<?xml version="1.0" standalone="no"?>
<!DOCTYPE svg PUBLIC "-//W3C//DTD SVG 1.1//EN" "http://www.w3.org/Graphics/SVG/1.1/DTD/svg11.dtd" >
<svg xmlns="http://www.w3.org/2000/svg">
<metadata></metadata>
<defs>
<font id="avenir_tpmedium" horiz-adv-x="1138" >
<font-face units-per-em="2048" ascent="1548" descent="-500" />
<missing-glyph horiz-adv-x="569" />
<glyph unicode="fi" d="M2 811v160h209v217q0 195 74.5 290t257.5 95q31 0 64.5 -2t72.5 -12l-21 -164q-27 10 -51 14t-53 4q-51 0 -82 -15.5t-48 -44t-22.5 -68.5t-5.5 -91v-223h219v-160h-221v-811h-184v811h-209zM758 1317q0 55 40 95t95 40t95 -40t40 -95t-40 -95t-95 -40t-95 40t-40 95z M799 0v971h184v-971h-184z" />
<glyph unicode="fl" d="M2 811v160h209v217q0 195 74.5 290t257.5 95q31 0 64.5 -2t72.5 -12l-21 -164q-27 10 -51 14t-53 4q-51 0 -82 -15.5t-48 -44t-22.5 -68.5t-5.5 -91v-223h219v-160h-221v-811h-184v811h-209zM801 0v1548h184v-1548h-184z" />
<glyph unicode="&#xd;" horiz-adv-x="569" />
<glyph unicode=" "  horiz-adv-x="569" />
<glyph unicode="&#x09;" horiz-adv-x="569" />
<glyph unicode="&#xa0;" horiz-adv-x="569" />
<glyph unicode="!" horiz-adv-x="569" d="M150 123q0 55 39.5 95t95.5 40q55 0 95 -40t40 -95t-40 -95t-95 -40t-95 40t-40 95zM182 418v1032h197v-1032h-197z" />
<glyph unicode="&#x22;" horiz-adv-x="1062" d="M299 946v504h160v-504h-160zM604 946v504h160v-504h-160z" />
<glyph unicode="#" d="M51 418v160h217l41 294h-194v160h217l57 418h162l-57 -418h237l57 418h162l-57 -418h194v-160h-217l-41 -294h195v-160h-217l-57 -418h-162l57 418h-237l-58 -418h-162l58 418h-195zM430 578h238l41 294h-238z" />
<glyph unicode="$" d="M53 172l158 141q47 -78 127 -119.5t166 -46.5v504q-84 20 -159 52t-133 81.5t-92 119t-34 167.5q0 88 35 158.5t92 123t133 84t158 38.5v147h110v-147q113 0 220.5 -38t185.5 -120l-148 -143q-47 59 -113.5 92.5t-144.5 36.5v-484l-4 -2q88 -25 169 -54.5t142.5 -75.5 t98.5 -115.5t37 -174.5q0 -94 -36 -169.5t-96.5 -130t-141.5 -85t-169 -37.5v-147h-110v147q-135 0 -251 44t-200 153zM283 1071q0 -49 18 -85t49 -62.5t71 -45t83 -30.5v455q-98 -16 -159.5 -75t-61.5 -157zM614 147q51 6 95.5 24.5t78 49.5t53 73t19.5 95t-21.5 91 t-55 64.5t-79 45t-90.5 33.5v-476z" />
<glyph unicode="%" horiz-adv-x="1744" d="M76 1124q0 76 28.5 141.5t77.5 115t114.5 78t141.5 28.5t141.5 -28.5t114.5 -78t78 -115t29 -141.5t-29 -141t-78 -114.5t-114.5 -78t-141.5 -28.5t-141.5 28.5t-114.5 78t-77.5 114.5t-28.5 141zM236 1124q0 -86 58 -144t144 -58t144.5 58t58.5 144t-58.5 144.5 t-144.5 58.5t-144 -58.5t-58 -144.5zM358 0l912 1516l123 -64l-912 -1515zM944 326q0 76 28.5 141t78 114.5t115 78t141.5 28.5t141 -28.5t114.5 -78t78 -115t28.5 -140.5q0 -76 -28.5 -141.5t-78 -115t-115 -78t-140.5 -28.5q-76 0 -141.5 28.5t-115 78t-78 115 t-28.5 141.5zM1104 326q0 -86 58.5 -144.5t144.5 -58.5t144 58.5t58 144.5t-58 144t-144 58t-144.5 -58t-58.5 -144z" />
<glyph unicode="&#x26;" horiz-adv-x="1478" d="M96 383q0 76 27 138.5t72 113.5t105 92t126 72q-70 74 -120 151.5t-50 184.5q0 82 31.5 145t85 106.5t123 66t147.5 22.5q76 0 144.5 -20.5t119.5 -61.5t81 -102.5t30 -143.5q0 -68 -26.5 -124t-69.5 -102.5t-96.5 -82t-108.5 -64.5l287 -299l182 297h223l-281 -434 l330 -338h-264l-178 193q-92 -111 -195.5 -170.5t-249.5 -59.5q-123 0 -213 36t-148 95.5t-86 134t-28 154.5zM305 389q0 -53 22.5 -99t61.5 -81t87 -54.5t102 -19.5q53 0 99 16.5t86 42t73.5 58.5t62.5 67l-350 365q-43 -25 -87 -53.5t-79 -63.5t-56.5 -79t-21.5 -99z M453 1133q0 -37 13 -70t34.5 -63.5t46 -57.5t49.5 -51q37 20 77 45t72.5 55.5t54 68.5t21.5 87q0 72 -49 114t-127 42t-135 -44.5t-57 -125.5z" />
<glyph unicode="'" horiz-adv-x="569" d="M205 946v504h160v-504h-160z" />
<glyph unicode="(" horiz-adv-x="569" d="M98 590q0 236 76 471t223 438l123 -78q-66 -104 -115 -200.5t-81.5 -195.5t-49 -205.5t-16.5 -229.5q0 -225 65.5 -436t196.5 -392l-123 -81q-141 193 -220 424t-79 485z" />
<glyph unicode=")" horiz-adv-x="569" d="M49 -242q66 104 115 200.5t82 196t49 206t16 229.5q0 225 -65.5 436t-196.5 391l123 82q141 -193 220 -424t79 -485q0 -236 -76 -471.5t-223 -437.5z" />
<glyph unicode="*" horiz-adv-x="950" d="M72 1114l43 133l288 -98v301h148v-301l285 96l43 -137l-285 -92l180 -244l-112 -84l-187 250l-182 -246l-113 84l182 240z" />
<glyph unicode="+" horiz-adv-x="1363" d="M135 541v159h467v467h160v-467h467v-159h-467v-467h-160v467h-467z" />
<glyph unicode="," horiz-adv-x="569" d="M98 -270l142 503h198l-172 -503h-168z" />
<glyph unicode="-" horiz-adv-x="647" d="M72 410v172h503v-172h-503z" />
<glyph unicode="." horiz-adv-x="569" d="M150 123q0 55 39.5 95t95.5 40q55 0 95 -40t40 -95t-40 -95t-95 -40t-95 40t-40 95z" />
<glyph unicode="/" horiz-adv-x="796" d="M0 -37l655 1577l142 -53l-654 -1577z" />
<glyph unicode="0" d="M70 725q0 80 8 166t29.5 169t57.5 158.5t92 132t133 90.5t179 34t179 -34t133.5 -90.5t92.5 -132t57.5 -158.5t29.5 -169t8 -166q0 -115 -20.5 -246t-75.5 -243.5t-152.5 -186.5t-251.5 -74t-251 74t-152 186.5t-75.5 243.5t-20.5 246zM266 725q0 -72 9.5 -170t40 -189.5 t91 -155t162.5 -63.5t163 63.5t91.5 155t39.5 189.5t9 170q0 49 -3 111.5t-14 127t-31.5 125t-54.5 108.5t-83 77t-117 29t-117 -29t-82.5 -77t-54 -108.5t-32 -125t-14.5 -127t-3 -111.5z" />
<glyph unicode="1" d="M172 1116l403 334h175v-1450h-197v1225l-266 -246z" />
<glyph unicode="2" d="M94 0v209l582 577q31 29 59.5 63t51 70.5t36 77.5t13.5 86q0 53 -19.5 96.5t-53.5 73t-80 46t-97 16.5q-106 0 -176 -59.5t-88 -163.5l-213 18q14 96 56 167t104.5 118t143.5 69.5t175 22.5t177 -25.5t145.5 -76t98 -125t35.5 -175.5q0 -72 -21.5 -134t-56 -117.5 t-79.5 -104.5t-94 -96l-478 -461h729v-172h-950z" />
<glyph unicode="3" d="M94 291l207 63q35 -104 93.5 -155.5t172.5 -51.5q57 0 107.5 19.5t89.5 53.5t61.5 82t22.5 108q0 90 -38 144t-97.5 82t-131 36t-141.5 8v172q113 0 184.5 15.5t112.5 44t57.5 71.5t16.5 96q0 117 -69.5 176.5t-174.5 59.5q-80 0 -144.5 -46t-96.5 -122l-201 67 q57 139 175 206t263 67q88 0 169 -23.5t142.5 -73t97.5 -124t36 -174.5q0 -115 -69 -205t-179 -123v-4q68 -12 121 -45t90 -82t55 -109.5t18 -128.5q0 -104 -39.5 -183t-106.5 -131t-154 -79t-183 -27q-166 0 -292 76t-175 240z" />
<glyph unicode="4" d="M70 319v201l577 930h238v-958h205v-173h-205v-319h-197v319h-618zM242 492h446v725h-4z" />
<glyph unicode="5" d="M70 268l198 68q39 -100 104.5 -144.5t164.5 -44.5q57 0 109 20.5t90 58.5t60.5 93.5t22.5 124.5q0 160 -97 239t-253 79q-55 0 -140 -19.5t-159 -56.5l16 764h779v-184h-588l-6 -363q14 6 40.5 12.5t54.5 10.5t54.5 6t44.5 2q102 0 185.5 -35t142.5 -98.5t91 -151.5 t32 -194q0 -109 -40 -197t-109.5 -151.5t-162 -97.5t-198.5 -34q-147 0 -266 76t-170 217z" />
<glyph unicode="6" d="M72 442q0 68 10 123.5t29.5 105.5t46 98t59.5 101l367 580h231l-364 -561h8q68 33 159 33q78 0 158 -27t144.5 -83t105.5 -143t41 -206q0 -121 -40 -212t-107.5 -152.5t-157.5 -92.5t-193 -31q-102 0 -192 33t-157.5 94.5t-107.5 147.5t-40 192zM268 449 q0 -66 21.5 -121.5t61.5 -95t95.5 -62.5t122.5 -23q68 0 123.5 23t95 62.5t61 95t21.5 121.5t-21.5 121t-61 95t-95 62.5t-123.5 22.5t-123 -22.5t-95 -62.5t-61.5 -95t-21.5 -121z" />
<glyph unicode="7" d="M86 1278v172h911v-168l-577 -1282h-221l587 1278h-700z" />
<glyph unicode="8" d="M96 416q0 68 21.5 125t58.5 103t87 78t110 48v6q-41 10 -82 37t-73 68t-52.5 99t-20.5 134q0 82 34 148.5t92.5 113.5t135 73t162.5 26t163 -26t135.5 -73t92 -113.5t33.5 -148.5q0 -76 -20.5 -134t-52 -99t-72.5 -68t-82 -37v-6q59 -16 109.5 -48t87 -78t58 -103.5 t21.5 -124.5q0 -102 -36.5 -184t-100 -139.5t-151 -87.5t-185.5 -30t-185 30t-150.5 87.5t-100.5 139t-37 184.5zM293 416q0 -63 22.5 -113.5t60.5 -84.5t88 -52.5t105 -18.5q123 0 200 75t77 194q0 66 -21.5 116t-59.5 83.5t-88 51t-108 17.5q-121 -2 -198.5 -77 t-77.5 -191zM342 1085q0 -43 15.5 -83.5t44 -72.5t70.5 -52.5t97 -20.5q57 0 99.5 19.5t71 51t43 72.5t14.5 86q0 100 -62.5 165t-165.5 65q-94 0 -160.5 -64t-66.5 -166z" />
<glyph unicode="9" d="M72 987q0 119 40 210t107.5 152.5t157.5 93.5t192 32t192.5 -33t158 -94.5t107.5 -147.5t40 -192q0 -68 -10 -123.5t-29.5 -105.5t-46.5 -99t-59 -100l-367 -580h-231l364 561h-8q-68 -33 -160 -33q-78 0 -157.5 27t-144 83t-105.5 143t-41 206zM268 1001 q0 -66 21.5 -121t61.5 -95t95.5 -62.5t122.5 -22.5q68 0 123.5 22.5t95 62.5t61 95t21.5 121t-21.5 121.5t-61 95t-95 62.5t-123.5 23t-123 -23t-95 -62.5t-61.5 -95t-21.5 -121.5z" />
<glyph unicode=":" horiz-adv-x="569" d="M150 123q0 55 39.5 95t95.5 40q55 0 95 -40t40 -95t-40 -95t-95 -40t-95 40t-40 95zM150 848q0 55 39.5 95t95.5 40q55 0 95 -40t40 -95t-40 -95t-95 -40t-95 40t-40 95z" />
<glyph unicode=";" horiz-adv-x="569" d="M98 -270l142 503h198l-172 -503h-168zM150 846q0 55 39.5 95t95.5 40q55 0 95 -40t40 -95t-40 -95t-95 -40t-95 40t-40 95z" />
<glyph unicode="&#x3c;" horiz-adv-x="1363" d="M135 537v168l1094 450v-162l-926 -372l926 -373v-160z" />
<glyph unicode="=" horiz-adv-x="1363" d="M135 379v160h1094v-160h-1094zM135 700v160h1094v-160h-1094z" />
<glyph unicode="&#x3e;" horiz-adv-x="1363" d="M135 86v162l926 373l-926 372v160l1094 -448v-168z" />
<glyph unicode="?" horiz-adv-x="1024" d="M98 1106q27 178 149 279.5t302 101.5q86 0 160.5 -25.5t130 -74t87 -119t31.5 -160.5q0 -78 -22.5 -141.5t-63.5 -104.5l-143 -145q-31 -31 -50.5 -53.5t-31.5 -46t-16 -51t-4 -70.5v-90h-197v124q0 55 8 92t24.5 67t44.5 57.5t68 66.5q33 31 66 62.5t59.5 65.5t44 72 t17.5 85t-17.5 87t-46 68.5t-68.5 45t-85 16.5q-100 0 -163 -63.5t-75 -166.5zM391 123q0 55 40 95t95 40t95.5 -40t40.5 -95t-40 -95t-96 -40q-55 0 -95 40t-40 95z" />
<glyph unicode="@" horiz-adv-x="1638" d="M90 729q0 158 60.5 296t164 240.5t241.5 162t294 59.5q143 0 270 -47t222.5 -130t150.5 -197t55 -249q0 -131 -48 -237.5t-120.5 -182t-156.5 -116.5t-156 -41q-53 0 -90 33.5t-39 97.5h-8q-47 -49 -112.5 -90t-141.5 -41q-66 0 -118 25.5t-88 68.5t-55.5 101.5 t-19.5 125.5q0 100 33 198.5t92.5 175.5t144.5 124t189 47q72 0 131 -36t88 -120h4l33 117h150l-173 -567q-10 -35 -10 -51q0 -49 60 -50q43 0 88 32t80.5 87.5t59.5 128t24 154.5q0 121 -43 214t-117 157.5t-171 98.5t-206 34q-131 0 -241.5 -49.5t-190.5 -134.5 t-125 -199.5t-45 -247.5q0 -135 47 -250t130 -198t194.5 -129t240.5 -46q147 0 275.5 53.5t201.5 153.5h162q-43 -78 -111.5 -141.5t-154.5 -107.5t-182.5 -68.5t-194.5 -24.5q-162 0 -302 59.5t-243.5 163t-163 243.5t-59.5 300zM567 610q0 -76 34 -120t112 -44 q61 0 113.5 36t89 89.5t57 118t20.5 123.5q0 72 -31.5 126t-97.5 54q-72 0 -127 -31.5t-93 -86t-57.5 -123t-19.5 -142.5z" />
<glyph unicode="A" horiz-adv-x="1441" d="M2 0l639 1450h178l621 -1450h-230l-145 358h-690l-144 -358h-229zM444 530h549l-270 666h-4z" />
<glyph unicode="B" horiz-adv-x="1290" d="M186 0v1450h504q94 0 175 -22.5t139.5 -66.5t92 -112.5t33.5 -161.5q0 -125 -69.5 -203.5t-179.5 -115.5v-4q66 -4 123 -34t99 -78t66.5 -111.5t24.5 -137.5q0 -98 -40 -172.5t-109.5 -126t-161.5 -78t-199 -26.5h-498zM383 172h289q45 0 99 9t101.5 37t80 75t32.5 125 q0 129 -84 193.5t-227 64.5h-291v-504zM383 848h268q55 0 104.5 11t86.5 38t58.5 68t21.5 100q0 86 -55.5 149.5t-174.5 63.5h-309v-430z" />
<glyph unicode="C" horiz-adv-x="1441" d="M96 713q0 168 55.5 310t155 245.5t238.5 161t307 57.5q143 0 281.5 -55.5t226.5 -169.5l-164 -125q-61 80 -155.5 123t-194.5 43q-123 0 -222.5 -46.5t-170 -126t-109.5 -187t-39 -230.5q0 -115 37 -217.5t106.5 -180t170 -123t227.5 -45.5q125 0 219 51.5t160 143.5 l166 -125q-16 -23 -57.5 -64.5t-109 -83.5t-162.5 -74t-220 -32q-172 0 -310.5 65.5t-235.5 172t-148.5 240.5t-51.5 272z" />
<glyph unicode="D" horiz-adv-x="1517" d="M154 0v1450h505q154 0 269.5 -35t200.5 -93t141.5 -134t89.5 -156t47 -159.5t14 -147.5q0 -139 -51 -269t-151.5 -231.5t-249 -163t-342.5 -61.5h-473zM350 184h248q125 0 236.5 34t195.5 101.5t133 169t49 236.5q0 70 -22.5 163t-85 177t-173 142.5t-286.5 58.5h-295 v-1082z" />
<glyph unicode="E" horiz-adv-x="1251" d="M186 0v1450h936v-184h-739v-432h688v-185h-688v-465h776v-184h-973z" />
<glyph unicode="F" horiz-adv-x="1175" d="M186 0v1450h912v-184h-715v-455h666v-184h-666v-627h-197z" />
<glyph unicode="G" horiz-adv-x="1593" d="M96 725q0 162 56.5 301t156 241.5t238.5 161t305 58.5q201 0 328 -50.5t213 -138.5l-140 -149q-90 86 -190 120t-211 34q-125 0 -225.5 -46.5t-172 -124t-110.5 -183t-39 -224.5q0 -123 43 -228.5t119 -183t178.5 -122t222.5 -44.5q104 0 197.5 19.5t159.5 56.5v404h-322 v184h518v-715q-53 -33 -120.5 -57.5t-140.5 -41.5t-147.5 -25.5t-140.5 -8.5q-184 0 -328.5 61.5t-243.5 166t-151.5 242.5t-52.5 292z" />
<glyph unicode="H" horiz-adv-x="1517" d="M186 0v1450h197v-602h752v602h196v-1450h-196v664h-752v-664h-197z" />
<glyph unicode="I" horiz-adv-x="569" d="M186 0v1450h197v-1450h-197z" />
<glyph unicode="J" horiz-adv-x="987" d="M18 281l193 43q16 -82 67.5 -129.5t133.5 -47.5q74 0 117.5 29t68.5 75t33 105.5t8 120.5v973h197v-1036q0 -137 -43 -224.5t-107.5 -137.5t-138.5 -69.5t-135 -19.5q-154 0 -259.5 79t-134.5 239z" />
<glyph unicode="K" horiz-adv-x="1327" d="M186 0v1450h197v-627h16l641 627h275l-701 -670l748 -780h-287l-676 725h-16v-725h-197z" />
<glyph unicode="L" horiz-adv-x="1062" d="M186 0v1450h197v-1266h666v-184h-863z" />
<glyph unicode="M" horiz-adv-x="1855" d="M172 0v1450h293l461 -1098h8l457 1098h292v-1450h-196v1192h-4l-490 -1192h-131l-489 1192h-4v-1192h-197z" />
<glyph unicode="N" horiz-adv-x="1630" d="M186 0v1450h258l799 -1192h4v1192h197v-1450h-250l-807 1192h-4v-1192h-197z" />
<glyph unicode="O" horiz-adv-x="1703" d="M96 725q0 162 56.5 301t156 241.5t238.5 161t305 58.5t305 -58.5t238.5 -161t156 -241.5t56.5 -301t-56.5 -301t-156 -241.5t-238.5 -161t-305 -58.5t-305 58.5t-238.5 161t-156 241.5t-56.5 301zM305 725q0 -119 39 -224.5t110.5 -183t172 -124t225.5 -46.5t225.5 46.5 t172 124t110.5 183t39 224.5t-39 224.5t-110.5 183t-172 124t-225.5 46.5t-225.5 -46.5t-172 -124t-110.5 -183t-39 -224.5z" />
<glyph unicode="P" horiz-adv-x="1214" d="M186 0v1450h510q139 0 229.5 -38t142.5 -96.5t72.5 -131t20.5 -140.5t-20.5 -140.5t-72.5 -130.5t-142 -96t-230 -38h-313v-639h-197zM383 811h258q57 0 113.5 9t100.5 34t70.5 71t26.5 119q0 74 -26.5 120t-70.5 71t-100.5 34t-113.5 9h-258v-467z" />
<glyph unicode="Q" horiz-adv-x="1703" d="M96 741q0 160 57.5 296.5t159 236.5t237.5 156.5t296 56.5q154 0 288 -55.5t234 -152.5t158.5 -229t58.5 -288q0 -92 -21.5 -181t-63.5 -167t-104.5 -139.5t-142.5 -98.5v-4h430v-172h-835q-154 0 -291 55.5t-239.5 153.5t-162 234.5t-59.5 297.5zM305 758 q0 -119 39 -223.5t109.5 -182.5t169 -123t217.5 -45t218 44t169.5 121t109.5 181.5t39 223.5q0 115 -40 215t-111.5 174t-170 117t-214.5 43q-115 0 -212.5 -43t-169 -117t-112.5 -173.5t-41 -211.5z" />
<glyph unicode="R" horiz-adv-x="1251" d="M186 0v1450h510q139 0 229.5 -38t142.5 -96.5t72.5 -131t20.5 -140.5q0 -70 -24.5 -134t-70.5 -116.5t-112.5 -88t-148.5 -43.5l412 -662h-246l-369 639h-219v-639h-197zM383 811h258q57 0 113.5 9t100.5 34t70.5 71t26.5 119q0 74 -26.5 120t-70.5 71t-100.5 34 t-113.5 9h-258v-467z" />
<glyph unicode="S" d="M68 164l161 139q53 -80 136.5 -118t171.5 -38q49 0 100 15.5t93 46.5t68.5 76t26.5 104q0 84 -53 128t-132 74t-172 57.5t-172 76.5t-132 132t-53 224q0 63 27.5 135t87 131.5t152.5 99.5t224 40q119 0 227.5 -33t190.5 -133l-160 -145q-37 57 -104.5 92t-153.5 35 q-82 0 -136 -21.5t-87 -55.5t-46.5 -73t-13.5 -72q0 -92 53.5 -141t132.5 -80t172 -55.5t172 -68.5t132 -118.5t53 -205.5q0 -104 -40 -188.5t-107.5 -141.5t-159.5 -88t-197 -31q-139 0 -264 49t-198 152z" />
<glyph unicode="T" horiz-adv-x="1175" d="M23 1266v184h1130v-184h-467v-1266h-197v1266h-466z" />
<glyph unicode="U" horiz-adv-x="1441" d="M160 530v920h196v-889q0 -68 18.5 -140.5t61.5 -134t112.5 -100.5t172.5 -39q102 0 172 39t113 100.5t61 134.5t18 140v889h197v-920q0 -127 -43 -230t-119 -179t-178 -117t-221 -41t-221.5 41t-178 117t-118.5 179t-43 230z" />
<glyph unicode="V" horiz-adv-x="1290" d="M-12 1450h227l426 -1180h4l442 1180h216l-572 -1450h-184z" />
<glyph unicode="W" horiz-adv-x="1970" d="M2 1450h205l319 -1159h4l342 1159h226l342 -1159h4l319 1159h205l-422 -1450h-207l-352 1184h-4l-350 -1184h-207z" />
<glyph unicode="X" horiz-adv-x="1327" d="M-4 0l526 762l-487 688h252l377 -557l372 557h246l-483 -686l532 -764h-258l-416 629l-417 -629h-244z" />
<glyph unicode="Y" horiz-adv-x="1253" d="M-20 1450h251l396 -637l407 637h240l-549 -832v-618h-197v618z" />
<glyph unicode="Z" horiz-adv-x="1214" d="M66 0v184l825 1082h-801v184h1047v-184l-822 -1082h834v-184h-1083z" />
<glyph unicode="[" horiz-adv-x="569" d="M147 -319v1818h357v-135h-185v-1548h185v-135h-357z" />
<glyph unicode="\" horiz-adv-x="796" d="M0 1487l141 53l656 -1577l-144 -53z" />
<glyph unicode="]" horiz-adv-x="569" d="M66 -184h184v1548h-184v135h356v-1818h-356v135z" />
<glyph unicode="^" horiz-adv-x="1363" d="M164 565l436 885h164l436 -885h-170l-348 723l-348 -723h-170z" />
<glyph unicode="_" horiz-adv-x="1024" d="M0 -154h1024v-102h-1024v102z" />
<glyph unicode="`" horiz-adv-x="491" d="M-94 1450h262l213 -295h-170z" />
<glyph unicode="a" horiz-adv-x="1062" d="M92 266q0 94 42 157.5t115 103.5t170 57.5t208 17.5h135v41q0 37 -14.5 74t-43 66.5t-71.5 47t-103 17.5q-53 0 -93 -10.5t-72.5 -25.5t-59 -35.5t-51.5 -39.5l-111 115q78 72 180.5 107.5t204.5 35.5q106 0 183 -26.5t126.5 -71.5t73 -103.5t23.5 -121.5v-496 q0 -51 2 -94t6 -82h-164q-6 74 -6 147h-4q-61 -94 -145 -133t-195 -39q-68 0 -129 18.5t-107.5 55.5t-73 91.5t-26.5 125.5zM276 281q0 -84 56.5 -121t152.5 -37q76 0 129.5 25.5t86 66.5t47 91t14.5 100v61h-98q-66 0 -134.5 -7t-125 -27.5t-92.5 -57.5t-36 -94z" />
<glyph unicode="b" horiz-adv-x="1251" d="M139 0v1548h185v-717h4q49 76 141 120t197 44q113 0 204 -38.5t155.5 -107.5t99 -162t34.5 -202t-34.5 -200.5t-99 -161.5t-156 -109t-203.5 -39q-98 0 -191.5 43t-146.5 121h-4v-139h-185zM324 485q0 -74 22.5 -136t63.5 -106t100 -70t133 -26t133.5 26t100.5 70 t63.5 106.5t22.5 135.5q0 74 -22.5 136.5t-63.5 106.5t-100.5 69.5t-133.5 25.5t-133 -25.5t-100 -69.5t-63.5 -106.5t-22.5 -136.5z" />
<glyph unicode="c" horiz-adv-x="987" d="M92 481q0 113 37 207t103.5 162t159.5 105.5t208 37.5q106 0 203.5 -37.5t169.5 -115.5l-139 -127q-51 53 -107.5 80.5t-134.5 27.5q-76 0 -132.5 -27.5t-94 -75.5t-57 -110.5t-19.5 -130.5t22.5 -128t63.5 -105t98 -71t129 -26q78 0 133.5 28t102.5 81l131 -131 q-72 -80 -167 -115t-202 -35q-113 0 -206 37t-160.5 103.5t-104.5 160t-37 205.5z" />
<glyph unicode="d" horiz-adv-x="1251" d="M92 485q0 109 35 202t99.5 162t155.5 107.5t204 38.5q104 0 196 -44t142 -120h4v717h184v-1548h-184v139h-4q-53 -78 -146.5 -121t-191.5 -43q-113 0 -204 39t-155.5 109t-99.5 162t-35 200zM289 485q0 -74 22.5 -136t63.5 -106t100 -70t133 -26t133.5 26t100.5 70 t63.5 106.5t22.5 135.5q0 74 -22.5 136.5t-63.5 106.5t-100.5 69.5t-133.5 25.5t-133 -25.5t-100 -69.5t-63.5 -106.5t-22.5 -136.5z" />
<glyph unicode="e" d="M82 485q0 109 38 202t104.5 162t158.5 107.5t201 38.5q129 0 218 -45t146.5 -117.5t83 -163.5t25.5 -186v-65h-778q0 -63 27.5 -115.5t72.5 -89.5t104.5 -57.5t122.5 -20.5q86 0 149.5 40t116.5 106l140 -107q-154 -199 -430 -199q-115 0 -208 39t-157.5 107.5t-99.5 162 t-35 201.5zM279 565h581q-2 61 -19.5 112.5t-52 89.5t-87 59.5t-121.5 21.5q-68 0 -124.5 -25.5t-95 -66.5t-60 -91.5t-21.5 -99.5z" />
<glyph unicode="f" horiz-adv-x="681" d="M2 811v160h209v217q0 195 74.5 290t257.5 95q31 0 64.5 -2t72.5 -12l-21 -164q-27 10 -51 14t-53 4q-51 0 -82 -15.5t-48 -44t-22.5 -68.5t-5.5 -91v-223h219v-160h-221v-811h-184v811h-209z" />
<glyph unicode="g" horiz-adv-x="1251" d="M92 485q0 106 35 199.5t99.5 163.5t155.5 108.5t204 38.5q98 0 191 -43t147 -121h4v140h184v-963q0 -111 -38 -202t-107.5 -157.5t-168 -103.5t-216.5 -37q-139 0 -255 39t-221 136l125 155q72 -78 156 -117.5t191 -39.5q102 0 169.5 29.5t107.5 76.5t56.5 107.5 t16.5 121.5v144h-6q-53 -88 -144.5 -130t-191.5 -42q-106 0 -197.5 37.5t-157 104.5t-102.5 158t-37 197zM289 485q0 -147 86 -236t233 -89t233.5 89t86.5 236q0 74 -22.5 136.5t-63.5 106.5t-100.5 69.5t-133.5 25.5t-133 -25.5t-100 -69.5t-63.5 -106.5t-22.5 -136.5z" />
<glyph unicode="h" d="M139 0v1548h185v-727h4q35 78 121 126t198 48q70 0 134.5 -21.5t112.5 -66.5t76.5 -115.5t28.5 -166.5v-625h-184v573q0 68 -18.5 116t-49 78t-70.5 43t-83 13q-57 0 -106.5 -18.5t-86 -58t-57 -101t-20.5 -145.5v-500h-185z" />
<glyph unicode="i" horiz-adv-x="491" d="M111 1319q0 55 39.5 95t95.5 40q55 0 95 -40t40 -95t-40 -95t-95 -40t-95 40t-40 95zM154 0v971h184v-971h-184z" />
<glyph unicode="j" horiz-adv-x="491" d="M-78 -473l21 170q16 -6 36.5 -11t38.5 -5q76 0 106 48t30 140v1102h184v-1110q0 -37 -5 -97.5t-33 -117t-88 -97.5t-171 -41q-31 0 -60.5 4.5t-58.5 14.5zM111 1319q0 55 39.5 95t95.5 40q55 0 95 -40t40 -95t-40 -95t-95 -40t-95 40t-40 95z" />
<glyph unicode="k" horiz-adv-x="1062" d="M139 0v1548h185v-999l417 420h256l-452 -441l491 -528h-262l-450 504v-504h-185z" />
<glyph unicode="l" horiz-adv-x="491" d="M154 0v1548h184v-1548h-184z" />
<glyph unicode="m" horiz-adv-x="1744" d="M139 0v971h172v-152h4q6 20 32 51t66 58.5t94 47t120 19.5q109 0 182.5 -45t120.5 -135q47 90 133 135t174 45q113 0 184.5 -36.5t112.5 -97t56.5 -137.5t15.5 -159v-565h-185v541q0 55 -7 106t-29.5 90t-63.5 62.5t-109 23.5q-133 0 -190 -82t-57 -211v-530h-185v508 q0 70 -7 127t-28.5 99t-61.5 65.5t-108 23.5q-49 0 -95 -19.5t-80.5 -58t-55 -99t-20.5 -142.5v-504h-185z" />
<glyph unicode="n" d="M139 0v971h185v-150h4q35 78 121 126t198 48q70 0 134.5 -21.5t112.5 -66.5t76.5 -115.5t28.5 -166.5v-625h-184v573q0 68 -18.5 116t-49 78t-70.5 43t-83 13q-57 0 -106.5 -18.5t-86 -58t-57 -101t-20.5 -145.5v-500h-185z" />
<glyph unicode="o" horiz-adv-x="1216" d="M92 485q0 106 40 198.5t109.5 162t164 109.5t202.5 40q109 0 203 -40t163.5 -109.5t109.5 -161.5t40 -199q0 -106 -40 -199t-109.5 -162t-163.5 -109t-203 -40t-203 40t-163.5 109t-109.5 162t-40 199zM289 485q0 -74 22.5 -136t63.5 -106t100.5 -70t132.5 -26 q74 0 133.5 26t100.5 70t63.5 106.5t22.5 135.5q0 74 -22.5 136.5t-63.5 106.5t-100.5 69.5t-133.5 25.5t-133 -25.5t-100 -69.5t-63.5 -106.5t-22.5 -136.5z" />
<glyph unicode="p" horiz-adv-x="1251" d="M139 -578v1549h185v-140h4q53 78 146 121t192 43q113 0 204 -38.5t155.5 -108.5t99 -163t34.5 -200q0 -109 -34.5 -202t-99 -161.5t-156 -107.5t-203.5 -39q-104 0 -196.5 44t-141.5 120h-4v-717h-185zM324 485q0 -74 22.5 -136t63.5 -106t100 -70t133 -26t133.5 26 t100.5 70t63.5 106.5t22.5 135.5q0 74 -22.5 136.5t-63.5 106.5t-100.5 69.5t-133.5 25.5t-133 -25.5t-100 -69.5t-63.5 -106.5t-22.5 -136.5z" />
<glyph unicode="q" horiz-adv-x="1251" d="M92 485q0 106 35 199.5t99.5 163.5t155.5 108.5t204 38.5q98 0 191 -43t147 -121h4v140h184v-1438h-184v606h-4q-49 -76 -141.5 -120t-196.5 -44q-113 0 -204 39t-155.5 107.5t-99.5 162t-35 201.5zM289 485q0 -74 22.5 -136t63.5 -106t100.5 -70t132.5 -26 q74 0 133.5 26t100.5 70t63.5 106.5t22.5 135.5q0 74 -22.5 136.5t-63.5 106.5t-100.5 69.5t-133.5 25.5t-133 -25.5t-100 -69.5t-63.5 -106.5t-22.5 -136.5z" />
<glyph unicode="r" horiz-adv-x="757" d="M139 0v971h185v-150h4q18 39 49 71t68.5 54.5t82.5 35.5t90 13t82 -12l-8 -199q-23 6 -45 10.5t-45 4.5q-135 0 -206.5 -76t-71.5 -236v-487h-185z" />
<glyph unicode="s" horiz-adv-x="909" d="M57 147l140 115q45 -45 100 -80t135 -35q35 0 71 7.5t63.5 23t45 39t17.5 53.5q0 41 -25.5 68t-61.5 42t-76 24.5t-71 15.5q-59 14 -112.5 32.5t-94.5 49t-65.5 78t-24.5 116.5q0 76 32 132.5t84 93t118.5 55t134.5 18.5q98 0 188 -36.5t144 -122.5l-144 -109 q-33 41 -81 68.5t-117 27.5q-66 0 -114 -27.5t-48 -80.5q0 -43 27.5 -70t65.5 -43t81 -24.5t74 -14.5q59 -14 111.5 -34.5t90 -53.5t59 -80t21.5 -114q0 -82 -34.5 -140.5t-90 -95.5t-126 -53.5t-142.5 -16.5q-121 0 -212 37t-163 135z" />
<glyph unicode="t" horiz-adv-x="757" d="M-2 811v160h213v272h184v-272h264v-160h-264v-440q0 -41 2 -81t15.5 -72t41 -51.5t81.5 -19.5q33 0 67.5 6.5t63.5 22.5v-168q-33 -18 -85.5 -25.5t-80.5 -7.5q-106 0 -165 30t-86.5 77t-32.5 105.5t-5 117.5v506h-213z" />
<glyph unicode="u" d="M139 346v625h185v-574q0 -68 18 -116t49 -77.5t71 -43t83 -13.5q57 0 106 18.5t86 58.5t57.5 101.5t20.5 145.5v500h184v-971h-184v150h-4q-35 -78 -121 -126.5t-198 -48.5q-72 0 -135.5 21.5t-111.5 67t-77 116t-29 166.5z" />
<glyph unicode="v" horiz-adv-x="1024" d="M23 971h213l290 -744l279 744h196l-380 -971h-203z" />
<glyph unicode="w" horiz-adv-x="1554" d="M23 971h206l220 -725h4l231 725h195l245 -725h4l209 725h195l-313 -971h-187l-256 725h-4l-231 -725h-199z" />
<glyph unicode="x" horiz-adv-x="1062" d="M12 0l394 518l-345 453h238l236 -344l231 344h223l-332 -453l394 -518h-238l-287 408l-286 -408h-228z" />
<glyph unicode="y" horiz-adv-x="1024" d="M23 971h213l288 -758h4l275 758h198l-460 -1180q-25 -63 -51.5 -115.5t-63.5 -89.5t-89 -57.5t-128 -20.5q-41 0 -83 5.5t-81 21.5l23 168q53 -22 105 -22h5q43 0 73 11t51.5 32.5t35.5 50t29 65.5l59 154z" />
<glyph unicode="z" horiz-adv-x="948" d="M72 0v166l551 645h-533v160h758v-164l-555 -647h584v-160h-805z" />
<glyph unicode="{" horiz-adv-x="681" d="M82 508v160q70 0 119 63.5t53 175.5v324q0 66 19.5 116t50 83.5t68.5 51t77 17.5h154v-147h-93q-31 0 -50 -15.5t-31.5 -41t-17.5 -57.5t-5 -64v-310q2 -72 -17.5 -121t-48 -81.5t-58.5 -49t-48 -20.5v-6q18 -2 48 -16.5t58.5 -45t48 -83t17.5 -130.5v-307q0 -31 5 -62.5 t17.5 -57t32 -41t49.5 -15.5h93v-147h-154q-39 0 -77 18t-68.5 56t-50 97.5t-19.5 141.5v274q-4 113 -53 176.5t-119 63.5z" />
<glyph unicode="|" horiz-adv-x="454" d="M147 -512v2048h160v-2048h-160z" />
<glyph unicode="}" horiz-adv-x="681" d="M59 -172h93q31 0 50 15.5t31.5 41t17.5 57t5 64.5v309q-2 72 17.5 121t48 82t58.5 49.5t48 20.5v6q-18 2 -48 16.5t-58.5 45t-48 83t-17.5 129.5v308q0 31 -5 62.5t-17.5 57t-32 41t-49.5 15.5h-93v147h154q39 0 77 -18.5t68.5 -56.5t50 -97t19.5 -141v-275 q0 -113 51 -176t121 -63v-160q-70 0 -121 -63.5t-51 -176.5v-323q0 -66 -19.5 -116t-50 -84t-68.5 -51t-77 -17h-154v147z" />
<glyph unicode="~" horiz-adv-x="1363" d="M197 594q47 80 110.5 130t161.5 50q61 0 119.5 -22.5t111.5 -51.5t104.5 -52t98.5 -23q49 0 94 31.5t88 117.5l82 -127q-61 -104 -127.5 -142t-134.5 -38q-59 0 -118.5 22.5t-118.5 51.5t-113.5 51t-103.5 22q-33 0 -59.5 -13t-47 -34.5t-37 -47t-28.5 -52.5z" />
<glyph unicode="&#xa1;" horiz-adv-x="569" d="M150 872q0 55 39.5 95.5t95.5 40.5q55 0 95 -40.5t40 -95.5t-40 -95t-95 -40t-95 40t-40 95zM190 -455v1033h197v-1033h-197z" />
<glyph unicode="&#xa2;" d="M147 485q0 104 31 191.5t88.5 153t139 108.5t184.5 57v135h110v-135q98 -4 189.5 -44t152.5 -111l-133 -121q-39 47 -94 81t-115 36v-701q129 4 218 107l120 -119q-59 -68 -146 -103.5t-192 -44.5v-135h-110v135q-102 10 -184 53.5t-139.5 111t-88.5 156.5t-31 189z M332 489q0 -63 17.5 -121.5t50 -106.5t80.5 -81t110 -45v701q-63 -10 -111.5 -42t-81 -79t-49 -105.5t-16.5 -120.5z" />
<glyph unicode="&#xa3;" d="M147 0v172h209v500h-196v147h196v205q0 88 29 170t85 144.5t140 99.5t197 37q98 0 186 -30t160 -97l-125 -144q-47 45 -98 72t-103 27q-53 0 -103 -17.5t-88 -56.5t-60.5 -101.5t-22.5 -152.5v-156h332v-147h-332v-500h504v-172h-910z" />
<glyph unicode="&#xa4;" d="M43 317l100 101q-49 68 -74.5 147.5t-25.5 161.5q0 84 25.5 163t74.5 146l-100 101l117 114l100 -98q72 51 150.5 75.5t158.5 24.5t159 -24.5t151 -75.5l100 98l117 -114l-101 -101q51 -70 76 -148.5t25 -160.5t-24.5 -161t-76.5 -148l101 -101l-117 -116l-100 100 q-68 -51 -147 -75.5t-163 -24.5q-168 0 -309 100l-100 -100zM203 727q0 -76 28.5 -142.5t78.5 -116.5t117 -79t142 -29q76 0 142.5 29t117 79t79 116.5t28.5 142.5t-28.5 142.5t-79 116.5t-117 79t-142.5 29t-142.5 -29t-116.5 -79t-78.5 -116.5t-28.5 -142.5z" />
<glyph unicode="&#xa5;" d="M-10 1450h205l366 -647l379 647h209l-381 -633h238v-135h-316l-35 -57v-109h351v-135h-351v-381h-172v381h-350v135h350v109l-34 57h-316v135h234z" />
<glyph unicode="&#xa6;" horiz-adv-x="454" d="M147 -358v716h160v-716h-160zM147 666v716h160v-716h-160z" />
<glyph unicode="&#xa7;" d="M127 -47l178 84q29 -86 97.5 -123t156.5 -37q39 0 76 10.5t66.5 32t47 55t17.5 80.5q0 53 -45 92t-111.5 73t-145.5 69t-145.5 77t-111.5 98t-45 136q0 123 56 194.5t144 114.5q-74 41 -118.5 100.5t-44.5 141.5t36.5 145.5t95 105.5t133.5 63.5t150 21.5 q55 0 111.5 -11.5t107 -36t91.5 -63.5t65 -94l-172 -94q-27 66 -81 95.5t-126 31.5q-80 0 -141 -39t-61 -121q0 -61 45 -102t111.5 -75t145 -66.5t145.5 -78t112 -107.5t45 -155q0 -90 -46 -158.5t-124 -109.5q63 -43 98 -105.5t35 -142.5q0 -88 -37 -153.5t-97.5 -109.5 t-138 -65.5t-157.5 -21.5q-135 0 -249 58.5t-169 189.5zM346 657q0 -47 19.5 -79.5t48 -55t64.5 -40t69 -33.5l158 -76q47 29 84.5 78t37.5 102q0 37 -15 65.5t-39.5 51t-54.5 40t-59 31.5l-161 78q-29 -10 -55.5 -24.5t-48 -34t-35 -45t-13.5 -58.5z" />
<glyph unicode="&#xa8;" horiz-adv-x="491" d="M-90 1346q0 51 40 83.5t87 32.5t87 -32.5t40 -83.5q0 -55 -36 -92t-91 -37t-91 36.5t-36 92.5zM328 1346q0 51 40 83.5t87 32.5t87 -32.5t40 -83.5q0 -55 -36 -92t-91 -37t-91 36.5t-36 92.5z" />
<glyph unicode="&#xa9;" horiz-adv-x="1638" d="M57 725q0 158 60.5 296t164 241.5t242 164t295.5 60.5q158 0 296 -60.5t241.5 -164t164 -241.5t60.5 -296t-60.5 -296t-164 -241.5t-241.5 -164t-296 -60.5t-296 60.5t-241.5 164t-164 241.5t-60.5 296zM193 725q0 -129 49 -243.5t134 -199.5t199.5 -134.5t243.5 -49.5 t244 49.5t200 134.5t134 199.5t49 243.5t-49 243.5t-134 199.5t-200 134.5t-244 49.5t-243.5 -49.5t-199.5 -134.5t-134 -199.5t-49 -243.5zM371 731q0 104 29.5 190.5t86 147.5t140.5 95t192 34q154 0 258.5 -79t128.5 -234h-157q-20 76 -72.5 121t-155.5 45 q-147 0 -219 -84t-72 -232q0 -68 19.5 -126t57.5 -102t93.5 -69.5t124.5 -25.5q98 0 152.5 47t71.5 127h157q-33 -147 -133 -234.5t-248 -87.5q-106 0 -191 34t-143.5 95.5t-89 147.5t-30.5 190z" />
<glyph unicode="&#xaa;" horiz-adv-x="690" d="M70 1034q0 76 41 119t102 63.5t131 24.5t127 4h25v21q0 41 -36 69.5t-104 28.5q-51 0 -98 -16.5t-84 -51.5l-72 93q49 43 117 64.5t135 21.5q88 0 143.5 -17.5t84 -45.5t39 -64.5t10.5 -75.5v-402h-135v91l-4 2q-29 -59 -81.5 -82t-123.5 -23q-41 0 -80 11.5t-70 33 t-49 54t-18 77.5zM205 1042q0 -43 38 -58t85 -15q86 0 127 39t41 100v39h-4q-43 0 -93.5 -2t-93.5 -11.5t-71.5 -31t-28.5 -60.5z" />
<glyph unicode="&#xab;" horiz-adv-x="1024" d="M96 498l297 442l127 -84l-239 -358l241 -359l-127 -84zM502 498l297 442l127 -84l-240 -358l242 -359l-127 -84z" />
<glyph unicode="&#xac;" horiz-adv-x="1363" d="M135 700v160h1094v-571h-160v411h-934z" />
<glyph unicode="&#xad;" horiz-adv-x="647" d="M72 410v172h503v-172h-503z" />
<glyph unicode="&#xae;" horiz-adv-x="1638" d="M57 725q0 158 60.5 296t164 241.5t242 164t295.5 60.5q158 0 296 -60.5t241.5 -164t164 -241.5t60.5 -296t-60.5 -296t-164 -241.5t-241.5 -164t-296 -60.5t-296 60.5t-241.5 164t-164 241.5t-60.5 296zM193 725q0 -129 49 -243.5t134 -199.5t199.5 -134.5t243.5 -49.5 t244 49.5t200 134.5t134 199.5t49 243.5t-49 243.5t-134 199.5t-200 134.5t-244 49.5t-243.5 -49.5t-199.5 -134.5t-134 -199.5t-49 -243.5zM526 295v870h336q158 0 232.5 -67.5t74.5 -194.5q0 -115 -59 -172t-149 -67l227 -369h-168l-217 356h-117v-356h-160zM686 786h117 q37 0 73.5 3.5t66.5 15.5t48.5 36.5t18.5 67.5t-18.5 67.5t-48.5 37t-66.5 14.5t-73.5 2h-117v-244z" />
<glyph unicode="&#xaf;" horiz-adv-x="491" d="M-49 1229v135h590v-135h-590z" />
<glyph unicode="&#xb0;" horiz-adv-x="819" d="M104 1169q0 63 24 118.5t66 96.5t97 66t119 25q63 0 118.5 -25t96.5 -66t65.5 -96t24.5 -119q0 -63 -24.5 -118.5t-65.5 -97.5t-96.5 -65.5t-118.5 -23.5t-118.5 23.5t-97.5 65.5t-66 97.5t-24 118.5zM240 1169q0 -72 49 -121t121 -49t121 49.5t49 120.5q0 72 -49.5 121 t-120.5 49q-72 0 -121 -49t-49 -121z" />
<glyph unicode="&#xb1;" horiz-adv-x="1363" d="M135 104v160h1094v-160h-1094zM135 645v160h467v334h160v-334h467v-160h-467v-307h-160v307h-467z" />
<glyph unicode="&#xb2;" horiz-adv-x="739" d="M53 592v156l367 327q31 29 61.5 66t30.5 84q0 53 -39 83.5t-94 30.5q-59 0 -97 -32.5t-42 -87.5l-172 12q10 119 97 181.5t214 62.5q63 0 118.5 -15.5t97.5 -46.5t65.5 -77t23.5 -107q0 -82 -41 -141.5t-104 -112.5l-289 -248h436v-135h-633z" />
<glyph unicode="&#xb3;" horiz-adv-x="739" d="M49 782l170 41q16 -51 52 -79.5t102 -28.5q63 0 110 35.5t47 95.5q0 43 -18 68.5t-49 40t-68 18.5t-73 4h-35v135h37q35 0 67.5 3t59 15.5t42 36t15.5 62.5q0 49 -37 79.5t-96 30.5q-49 0 -87 -23.5t-55 -68.5l-170 41q31 98 115 142.5t189 44.5q61 0 115.5 -14.5t95 -43 t65.5 -71.5t25 -101q0 -72 -43 -126t-117 -70v-5q90 -10 136 -70.5t46 -139.5q0 -61 -25.5 -108.5t-69.5 -80.5t-101.5 -49t-120.5 -16q-117 0 -205 47t-119 155z" />
<glyph unicode="&#xb4;" horiz-adv-x="491" d="M111 1155l213 295h262l-305 -295h-170z" />
<glyph unicode="&#xb5;" horiz-adv-x="1134" d="M139 -467v1438h185v-533q0 -47 5 -94t20.5 -87t45 -67.5t78.5 -35.5q10 -2 22.5 -3t22.5 -1q35 0 80 10q94 18 152.5 94t58.5 209v508h184v-713v-63.5t1 -69.5t1 -67.5v-57.5h-178v91t-2 73h-2q-35 -82 -120 -135.5t-201 -53.5q-47 0 -90.5 11.5t-77.5 36.5v-490h-185z " />
<glyph unicode="&#xb6;" horiz-adv-x="1228" d="M104 1030q0 201 125 310.5t342 109.5h510v-1708h-159v1573h-230v-1573h-160v909q-94 0 -172.5 30t-135 80t-88.5 119.5t-32 149.5z" />
<glyph unicode="&#xb7;" horiz-adv-x="569" d="M150 621q0 55 39.5 95t95.5 40q55 0 95 -40t40 -95t-40 -95.5t-95 -40.5t-95 40.5t-40 95.5z" />
<glyph unicode="&#xb8;" horiz-adv-x="491" d="M10 -420l39 82q76 -31 160 -31q18 0 39.5 4.5t41 13.5t32 25.5t12.5 42.5q0 39 -19.5 57.5t-48 23.5t-62.5 0t-63 -13l-43 37l125 178h101l-91 -125h60q35 0 68.5 -8t60.5 -26.5t43 -46t16 -66.5q0 -55 -23.5 -92t-60.5 -59.5t-83 -33t-89 -10.5q-55 0 -109.5 11.5 t-105.5 35.5z" />
<glyph unicode="&#xb9;" horiz-adv-x="739" d="M55 1274l262 201h146v-883h-148v735l-174 -147z" />
<glyph unicode="&#xba;" horiz-adv-x="790" d="M59 1165q0 141 91 225.5t245 84.5t245 -84t91 -226q0 -141 -91 -224t-245 -83t-245 83t-91 224zM207 1165q0 -86 48 -135t140 -49t140.5 49t48.5 135t-48.5 136.5t-140.5 50.5t-140 -50.5t-48 -136.5z" />
<glyph unicode="&#xbb;" horiz-adv-x="1024" d="M96 856l127 84l299 -442l-297 -443l-127 84l240 359zM502 856l127 84l299 -442l-297 -443l-127 84l239 359z" />
<glyph unicode="&#xbc;" horiz-adv-x="1708" d="M68 1274l262 201h145v-883h-147v735l-174 -147zM311 0l899 1516l123 -66l-899 -1516zM977 193v118l375 572h161v-555h127v-135h-127v-193h-135v193h-401zM1124 328h242v383h-4z" />
<glyph unicode="&#xbd;" horiz-adv-x="1708" d="M63 1274l263 201h145v-883h-147v735l-174 -147zM287 0l899 1516l123 -66l-899 -1516zM1012 0v156l366 327q31 29 61.5 66t30.5 84q0 53 -38.5 84t-94.5 31q-59 0 -97 -33t-42 -88l-172 12q10 119 97 181.5t214 62.5q63 0 118.5 -15.5t97.5 -46t65.5 -77t23.5 -107.5 q0 -82 -40.5 -141.5t-104.5 -112.5l-289 -248h437v-135h-633z" />
<glyph unicode="&#xbe;" horiz-adv-x="1708" d="M47 782l170 41q16 -51 52 -79.5t102 -28.5q63 0 110 35.5t47 95.5q0 43 -18 68.5t-49 40t-68 18.5t-74 4h-34v135h37q35 0 67.5 3t59 15.5t42 36t15.5 62.5q0 49 -37 79.5t-96 30.5q-49 0 -87 -23.5t-55 -68.5l-170 41q31 98 115 142.5t189 44.5q61 0 115.5 -14.5t95 -43 t65.5 -71.5t25 -101q0 -72 -43 -126t-117 -70v-5q90 -10 136 -70.5t46 -139.5q0 -61 -25.5 -108.5t-69.5 -80.5t-101.5 -49t-120.5 -16q-117 0 -205 47t-119 155zM393 0l899 1516l123 -66l-899 -1516zM1018 193v118l375 572h161v-555h127v-135h-127v-193h-135v193h-401z M1178 328h241v383h-4z" />
<glyph unicode="&#xbf;" horiz-adv-x="1024" d="M66 -113q0 78 22.5 141.5t63.5 104.5l143 146q31 31 50.5 53t31.5 45.5t16 51.5t4 71v90h197v-125q0 -55 -8 -92t-24.5 -67t-45.5 -57.5t-67 -66.5q-33 -31 -66 -62.5t-59.5 -65.5t-44 -72.5t-17.5 -83.5q0 -47 17.5 -87t46 -69t68.5 -45t85 -16q100 0 163 63t75 166 l209 -21q-27 -178 -149 -279.5t-302 -101.5q-86 0 -160.5 26t-130 74t-87 118.5t-31.5 160.5zM362 872q0 55 40 95.5t96 40.5q55 0 95 -40.5t40 -95.5t-40 -95t-95 -40t-95.5 40t-40.5 95z" />
<glyph unicode="&#xc0;" horiz-adv-x="1441" d="M2 0l639 1450h178l621 -1450h-230l-145 358h-690l-144 -358h-229zM381 1827h262l213 -295h-170zM444 530h549l-270 666h-4z" />
<glyph unicode="&#xc1;" horiz-adv-x="1441" d="M2 0l639 1450h178l621 -1450h-230l-145 358h-690l-144 -358h-229zM444 530h549l-270 666h-4zM586 1532l213 295h262l-305 -295h-170z" />
<glyph unicode="&#xc2;" horiz-adv-x="1441" d="M2 0l639 1450h178l621 -1450h-230l-145 358h-690l-144 -358h-229zM383 1532l229 295h217l230 -295h-187l-151 197l-152 -197h-186zM444 530h549l-270 666h-4z" />
<glyph unicode="&#xc3;" horiz-adv-x="1441" d="M2 0l639 1450h178l621 -1450h-230l-145 358h-690l-144 -358h-229zM377 1556q6 39 22.5 78t42 69t61.5 48t81 18q47 0 89 -15t83 -32q31 -12 54.5 -23t55.5 -11q41 0 65.5 26.5t35.5 63.5h98q-6 -39 -20.5 -77t-37 -68.5t-56 -49t-79.5 -18.5q-43 0 -85 13t-80 30 q-31 12 -66 25.5t-70 13.5q-39 0 -62.5 -28t-33.5 -63h-98zM444 530h549l-270 666h-4z" />
<glyph unicode="&#xc4;" horiz-adv-x="1441" d="M2 0l639 1450h178l621 -1450h-230l-145 358h-690l-144 -358h-229zM385 1722q0 51 40 84t87 33t87 -32.5t40 -84.5q0 -55 -36 -92t-91 -37t-91 37t-36 92zM444 530h549l-270 666h-4zM803 1722q0 51 40 84t87 33t87 -32.5t40 -84.5q0 -55 -36 -92t-91 -37t-91 37t-36 92z " />
<glyph unicode="&#xc5;" horiz-adv-x="1441" d="M2 0l639 1450h178l621 -1450h-230l-145 358h-690l-144 -358h-229zM444 530h549l-270 666h-4zM512 1690q0 43 17.5 79.5t46 64.5t66.5 43t79 15q43 0 81 -15t66.5 -43t45 -63.5t16.5 -78.5t-16.5 -80t-45 -64.5t-66.5 -43t-81 -15.5q-41 0 -79 15.5t-66.5 43t-46 63.5 t-17.5 79zM598 1690q0 -49 38 -82t85 -33t85 33t38 82q0 51 -37 83.5t-86 32.5t-86 -32.5t-37 -83.5z" />
<glyph unicode="&#xc6;" horiz-adv-x="1972" d="M-16 0l938 1450h933v-184h-604v-432h568v-185h-568v-465h629v-184h-825v352h-623l-207 -352h-241zM539 537h516v729h-39z" />
<glyph unicode="&#xc7;" horiz-adv-x="1441" d="M96 713q0 168 55.5 310t155 245.5t238.5 161t307 57.5q143 0 281.5 -55.5t226.5 -169.5l-164 -125q-61 80 -155.5 123t-194.5 43q-123 0 -222.5 -46.5t-170 -126t-109.5 -187t-39 -230.5q0 -115 37 -217.5t106.5 -180t170 -123t227.5 -45.5q125 0 219 51.5t160 143.5 l166 -125q-16 -23 -57.5 -64.5t-109 -83.5t-162.5 -74t-220 -32q-16 0 -27 2l-65 -90h59q35 0 68.5 -8t60.5 -26.5t43 -46t16 -66.5q0 -55 -23.5 -92t-60 -59.5t-83 -33t-89.5 -10.5q-55 0 -109 11.5t-106 35.5l39 82q76 -31 160 -31q18 0 39.5 4.5t41 13.5t32 25.5 t12.5 42.5q0 39 -19.5 57.5t-48 23.5t-62.5 0t-63 -13l-43 37l107 151q-145 23 -261 94.5t-197 173t-124 224.5t-43 248z" />
<glyph unicode="&#xc8;" horiz-adv-x="1251" d="M186 0v1450h936v-184h-739v-432h688v-185h-688v-465h776v-184h-973zM287 1827h262l213 -295h-170z" />
<glyph unicode="&#xc9;" horiz-adv-x="1251" d="M186 0v1450h936v-184h-739v-432h688v-185h-688v-465h776v-184h-973zM492 1532l213 295h262l-305 -295h-170z" />
<glyph unicode="&#xca;" horiz-adv-x="1251" d="M186 0v1450h936v-184h-739v-432h688v-185h-688v-465h776v-184h-973zM289 1532l229 295h217l230 -295h-187l-151 197l-152 -197h-186z" />
<glyph unicode="&#xcb;" horiz-adv-x="1251" d="M186 0v1450h936v-184h-739v-432h688v-185h-688v-465h776v-184h-973zM291 1722q0 51 40 84t87 33t87 -32.5t40 -84.5q0 -55 -36 -92t-91 -37t-91 37t-36 92zM709 1722q0 51 40 84t87 33t87 -32.5t40 -84.5q0 -55 -36 -92t-91 -37t-91 37t-36 92z" />
<glyph unicode="&#xcc;" horiz-adv-x="569" d="M-55 1827h262l213 -295h-170zM186 0v1450h197v-1450h-197z" />
<glyph unicode="&#xcd;" horiz-adv-x="569" d="M150 1532l212 295h263l-306 -295h-169zM186 0v1450h197v-1450h-197z" />
<glyph unicode="&#xce;" horiz-adv-x="569" d="M-53 1532l229 295h217l230 -295h-187l-151 197l-152 -197h-186zM186 0v1450h197v-1450h-197z" />
<glyph unicode="&#xcf;" horiz-adv-x="569" d="M-51 1722q0 51 40 84t87 33t87 -32.5t40 -84.5q0 -55 -36 -92t-91 -37t-91 37t-36 92zM186 0v1450h197v-1450h-197zM367 1722q0 51 40 84t87 33t87 -32.5t40 -84.5q0 -55 -36 -92t-91 -37t-91 37t-36 92z" />
<glyph unicode="&#xd0;" horiz-adv-x="1517" d="M6 688v135h148v627h505q154 0 269.5 -35t200.5 -93t141.5 -134t89.5 -156t47 -159.5t14 -147.5q0 -139 -51 -269t-151.5 -231.5t-249 -163t-342.5 -61.5h-473v688h-148zM350 184h248q125 0 236.5 34t195.5 101.5t133 169t49 236.5q0 70 -22.5 163t-85 177t-173 142.5 t-286.5 58.5h-295v-443h479v-135h-479v-504z" />
<glyph unicode="&#xd1;" horiz-adv-x="1630" d="M186 0v1450h258l799 -1192h4v1192h197v-1450h-250l-807 1192h-4v-1192h-197zM471 1556q6 39 22.5 78t42 69t61.5 48t81 18q47 0 89 -15t83 -32q31 -12 54.5 -23t56.5 -11q41 0 65.5 26.5t34.5 63.5h98q-6 -39 -20.5 -77t-37 -68.5t-56 -49t-78.5 -18.5q-43 0 -85 13 t-81 30q-31 12 -66 25.5t-69 13.5q-39 0 -62.5 -28t-34.5 -63h-98z" />
<glyph unicode="&#xd2;" horiz-adv-x="1703" d="M96 725q0 162 56.5 301t156 241.5t238.5 161t305 58.5t305 -58.5t238.5 -161t156 -241.5t56.5 -301t-56.5 -301t-156 -241.5t-238.5 -161t-305 -58.5t-305 58.5t-238.5 161t-156 241.5t-56.5 301zM305 725q0 -119 39 -224.5t110.5 -183t172 -124t225.5 -46.5t225.5 46.5 t172 124t110.5 183t39 224.5t-39 224.5t-110.5 183t-172 124t-225.5 46.5t-225.5 -46.5t-172 -124t-110.5 -183t-39 -224.5zM512 1827h262l213 -295h-170z" />
<glyph unicode="&#xd3;" horiz-adv-x="1703" d="M96 725q0 162 56.5 301t156 241.5t238.5 161t305 58.5t305 -58.5t238.5 -161t156 -241.5t56.5 -301t-56.5 -301t-156 -241.5t-238.5 -161t-305 -58.5t-305 58.5t-238.5 161t-156 241.5t-56.5 301zM305 725q0 -119 39 -224.5t110.5 -183t172 -124t225.5 -46.5t225.5 46.5 t172 124t110.5 183t39 224.5t-39 224.5t-110.5 183t-172 124t-225.5 46.5t-225.5 -46.5t-172 -124t-110.5 -183t-39 -224.5zM717 1532l213 295h262l-305 -295h-170z" />
<glyph unicode="&#xd4;" horiz-adv-x="1703" d="M96 725q0 162 56.5 301t156 241.5t238.5 161t305 58.5t305 -58.5t238.5 -161t156 -241.5t56.5 -301t-56.5 -301t-156 -241.5t-238.5 -161t-305 -58.5t-305 58.5t-238.5 161t-156 241.5t-56.5 301zM305 725q0 -119 39 -224.5t110.5 -183t172 -124t225.5 -46.5t225.5 46.5 t172 124t110.5 183t39 224.5t-39 224.5t-110.5 183t-172 124t-225.5 46.5t-225.5 -46.5t-172 -124t-110.5 -183t-39 -224.5zM514 1532l229 295h218l229 -295h-186l-152 197l-152 -197h-186z" />
<glyph unicode="&#xd5;" horiz-adv-x="1703" d="M96 725q0 162 56.5 301t156 241.5t238.5 161t305 58.5t305 -58.5t238.5 -161t156 -241.5t56.5 -301t-56.5 -301t-156 -241.5t-238.5 -161t-305 -58.5t-305 58.5t-238.5 161t-156 241.5t-56.5 301zM305 725q0 -119 39 -224.5t110.5 -183t172 -124t225.5 -46.5t225.5 46.5 t172 124t110.5 183t39 224.5t-39 224.5t-110.5 183t-172 124t-225.5 46.5t-225.5 -46.5t-172 -124t-110.5 -183t-39 -224.5zM508 1556q6 39 22.5 78t42 69t61.5 48t81 18q47 0 89 -15t83 -32q31 -12 54.5 -23t55.5 -11q41 0 65.5 26.5t35.5 63.5h98q-6 -39 -20.5 -77 t-37 -68.5t-56 -49t-78.5 -18.5q-43 0 -85 13t-81 30q-31 12 -66 25.5t-70 13.5q-39 0 -62.5 -28t-33.5 -63h-98z" />
<glyph unicode="&#xd6;" horiz-adv-x="1703" d="M96 725q0 162 56.5 301t156 241.5t238.5 161t305 58.5t305 -58.5t238.5 -161t156 -241.5t56.5 -301t-56.5 -301t-156 -241.5t-238.5 -161t-305 -58.5t-305 58.5t-238.5 161t-156 241.5t-56.5 301zM305 725q0 -119 39 -224.5t110.5 -183t172 -124t225.5 -46.5t225.5 46.5 t172 124t110.5 183t39 224.5t-39 224.5t-110.5 183t-172 124t-225.5 46.5t-225.5 -46.5t-172 -124t-110.5 -183t-39 -224.5zM516 1722q0 51 40 84t87 33t87 -32.5t40 -84.5q0 -55 -36 -92t-91 -37t-91 37t-36 92zM934 1722q0 51 40 84t87 33t87 -32.5t40 -84.5 q0 -55 -36 -92t-91 -37t-91 37t-36 92z" />
<glyph unicode="&#xd7;" horiz-adv-x="1363" d="M135 1055l113 112l434 -434l436 434l111 -112l-434 -434l434 -435l-115 -112l-432 434l-432 -434l-111 114l430 433z" />
<glyph unicode="&#xd8;" horiz-adv-x="1703" d="M96 725q0 162 56.5 301t156 241.5t238.5 161t305 58.5q137 0 256 -41t215 -115l170 185l86 -78l-170 -185q94 -100 146.5 -235t52.5 -293q0 -162 -56.5 -301t-156 -241.5t-238.5 -161t-305 -58.5q-141 0 -262 42t-217 120l-172 -186l-88 77l174 191q-92 102 -141.5 233 t-49.5 285zM305 725q0 -106 31 -200.5t88 -170.5l766 834q-68 53 -153 84t-185 31q-125 0 -225.5 -46.5t-172 -124t-110.5 -183t-39 -224.5zM504 268q70 -57 157 -89t191 -32q125 0 225.5 46.5t172 124t110.5 183t39 224.5q0 111 -33 207t-94 174z" />
<glyph unicode="&#xd9;" horiz-adv-x="1441" d="M160 530v920h196v-889q0 -68 18.5 -140.5t61.5 -134t112.5 -100.5t172.5 -39q102 0 172 39t113 100.5t61 134.5t18 140v889h197v-920q0 -127 -43 -230t-119 -179t-178 -117t-221 -41t-221.5 41t-178 117t-118.5 179t-43 230zM381 1827h262l213 -295h-170z" />
<glyph unicode="&#xda;" horiz-adv-x="1441" d="M160 530v920h196v-889q0 -68 18.5 -140.5t61.5 -134t112.5 -100.5t172.5 -39q102 0 172 39t113 100.5t61 134.5t18 140v889h197v-920q0 -127 -43 -230t-119 -179t-178 -117t-221 -41t-221.5 41t-178 117t-118.5 179t-43 230zM586 1532l213 295h262l-305 -295h-170z" />
<glyph unicode="&#xdb;" horiz-adv-x="1441" d="M160 530v920h196v-889q0 -68 18.5 -140.5t61.5 -134t112.5 -100.5t172.5 -39q102 0 172 39t113 100.5t61 134.5t18 140v889h197v-920q0 -127 -43 -230t-119 -179t-178 -117t-221 -41t-221.5 41t-178 117t-118.5 179t-43 230zM383 1532l229 295h217l230 -295h-187 l-151 197l-152 -197h-186z" />
<glyph unicode="&#xdc;" horiz-adv-x="1441" d="M160 530v920h196v-889q0 -68 18.5 -140.5t61.5 -134t112.5 -100.5t172.5 -39q102 0 172 39t113 100.5t61 134.5t18 140v889h197v-920q0 -127 -43 -230t-119 -179t-178 -117t-221 -41t-221.5 41t-178 117t-118.5 179t-43 230zM385 1722q0 51 40 84t87 33t87 -32.5 t40 -84.5q0 -55 -36 -92t-91 -37t-91 37t-36 92zM803 1722q0 51 40 84t87 33t87 -32.5t40 -84.5q0 -55 -36 -92t-91 -37t-91 37t-36 92z" />
<glyph unicode="&#xdd;" horiz-adv-x="1253" d="M-20 1450h251l396 -637l407 637h240l-549 -832v-618h-197v618zM492 1532l213 295h262l-305 -295h-170z" />
<glyph unicode="&#xde;" horiz-adv-x="1214" d="M186 0v1450h197v-297h313q139 0 229.5 -38t142.5 -96t72.5 -131t20.5 -140q0 -68 -20.5 -140.5t-72.5 -131t-142 -96.5t-230 -38h-313v-342h-197zM383 514h258q57 0 113.5 9t100.5 34t70.5 71t26.5 120t-26.5 119.5t-70.5 70.5t-100.5 34t-113.5 9h-258v-467z" />
<glyph unicode="&#xdf;" horiz-adv-x="1251" d="M139 0v1042q0 109 18.5 205t68.5 169t140.5 115t233.5 42q86 0 161 -23.5t132 -70.5t90 -117t33 -160q0 -127 -61.5 -207t-166.5 -110v-4q61 -10 123 -39t112 -81t82 -129t32 -181q0 -111 -37 -199t-103.5 -149.5t-157.5 -94.5t-198 -33q-76 0 -145 19v166 q51 -12 108 -13q152 0 244 83t92 237q0 82 -27.5 141.5t-76 98t-113 58t-139.5 19.5h-29v172h33q104 0 167.5 59.5t63.5 164.5q0 61 -20.5 104t-53 68.5t-73.5 37t-82 11.5q-78 0 -129 -25.5t-82 -70.5t-43 -106.5t-12 -133.5v-1065h-185z" />
<glyph unicode="&#xe0;" horiz-adv-x="1062" d="M92 266q0 94 42 157.5t115 103.5t170 57.5t208 17.5h135v41q0 37 -14.5 74t-43 66.5t-71.5 47t-103 17.5q-53 0 -93 -10.5t-72.5 -25.5t-59 -35.5t-51.5 -39.5l-111 115q78 72 180.5 107.5t204.5 35.5q106 0 183 -26.5t126.5 -71.5t73 -103.5t23.5 -121.5v-496 q0 -51 2 -94t6 -82h-164q-6 74 -6 147h-4q-61 -94 -145 -133t-195 -39q-68 0 -129 18.5t-107.5 55.5t-73 91.5t-26.5 125.5zM193 1450h262l213 -295h-170zM276 281q0 -84 56.5 -121t152.5 -37q76 0 129.5 25.5t86 66.5t47 91t14.5 100v61h-98q-66 0 -134.5 -7t-125 -27.5 t-92.5 -57.5t-36 -94z" />
<glyph unicode="&#xe1;" horiz-adv-x="1062" d="M92 266q0 94 42 157.5t115 103.5t170 57.5t208 17.5h135v41q0 37 -14.5 74t-43 66.5t-71.5 47t-103 17.5q-53 0 -93 -10.5t-72.5 -25.5t-59 -35.5t-51.5 -39.5l-111 115q78 72 180.5 107.5t204.5 35.5q106 0 183 -26.5t126.5 -71.5t73 -103.5t23.5 -121.5v-496 q0 -51 2 -94t6 -82h-164q-6 74 -6 147h-4q-61 -94 -145 -133t-195 -39q-68 0 -129 18.5t-107.5 55.5t-73 91.5t-26.5 125.5zM276 281q0 -84 56.5 -121t152.5 -37q76 0 129.5 25.5t86 66.5t47 91t14.5 100v61h-98q-66 0 -134.5 -7t-125 -27.5t-92.5 -57.5t-36 -94zM397 1155 l213 295h262l-305 -295h-170z" />
<glyph unicode="&#xe2;" horiz-adv-x="1062" d="M92 266q0 94 42 157.5t115 103.5t170 57.5t208 17.5h135v41q0 37 -14.5 74t-43 66.5t-71.5 47t-103 17.5q-53 0 -93 -10.5t-72.5 -25.5t-59 -35.5t-51.5 -39.5l-111 115q78 72 180.5 107.5t204.5 35.5q106 0 183 -26.5t126.5 -71.5t73 -103.5t23.5 -121.5v-496 q0 -51 2 -94t6 -82h-164q-6 74 -6 147h-4q-61 -94 -145 -133t-195 -39q-68 0 -129 18.5t-107.5 55.5t-73 91.5t-26.5 125.5zM195 1155l229 295h217l229 -295h-186l-152 197l-151 -197h-186zM276 281q0 -84 56.5 -121t152.5 -37q76 0 129.5 25.5t86 66.5t47 91t14.5 100v61 h-98q-66 0 -134.5 -7t-125 -27.5t-92.5 -57.5t-36 -94z" />
<glyph unicode="&#xe3;" horiz-adv-x="1062" d="M92 266q0 94 42 157.5t115 103.5t170 57.5t208 17.5h135v41q0 37 -14.5 74t-43 66.5t-71.5 47t-103 17.5q-53 0 -93 -10.5t-72.5 -25.5t-59 -35.5t-51.5 -39.5l-111 115q78 72 180.5 107.5t204.5 35.5q106 0 183 -26.5t126.5 -71.5t73 -103.5t23.5 -121.5v-496 q0 -51 2 -94t6 -82h-164q-6 74 -6 147h-4q-61 -94 -145 -133t-195 -39q-68 0 -129 18.5t-107.5 55.5t-73 91.5t-26.5 125.5zM188 1180q6 39 22.5 77.5t42.5 68.5t61.5 48.5t80.5 18.5q47 0 89 -15.5t83 -31.5q31 -12 54.5 -23.5t56.5 -11.5q41 0 65.5 26.5t34.5 63.5h99 q-6 -39 -20.5 -77t-37 -68.5t-56.5 -49t-79 -18.5q-43 0 -85 13t-81 30q-31 12 -65.5 25.5t-69.5 13.5q-39 0 -62.5 -28t-33.5 -62h-99zM276 281q0 -84 56.5 -121t152.5 -37q76 0 129.5 25.5t86 66.5t47 91t14.5 100v61h-98q-66 0 -134.5 -7t-125 -27.5t-92.5 -57.5t-36 -94 z" />
<glyph unicode="&#xe4;" horiz-adv-x="1062" d="M92 266q0 94 42 157.5t115 103.5t170 57.5t208 17.5h135v41q0 37 -14.5 74t-43 66.5t-71.5 47t-103 17.5q-53 0 -93 -10.5t-72.5 -25.5t-59 -35.5t-51.5 -39.5l-111 115q78 72 180.5 107.5t204.5 35.5q106 0 183 -26.5t126.5 -71.5t73 -103.5t23.5 -121.5v-496 q0 -51 2 -94t6 -82h-164q-6 74 -6 147h-4q-61 -94 -145 -133t-195 -39q-68 0 -129 18.5t-107.5 55.5t-73 91.5t-26.5 125.5zM197 1346q0 51 40 83.5t87 32.5t87 -32.5t40 -83.5q0 -55 -36 -92t-91 -37t-91 36.5t-36 92.5zM276 281q0 -84 56.5 -121t152.5 -37 q76 0 129.5 25.5t86 66.5t47 91t14.5 100v61h-98q-66 0 -134.5 -7t-125 -27.5t-92.5 -57.5t-36 -94zM614 1346q0 51 40 83.5t87 32.5t87 -32.5t40 -83.5q0 -55 -35.5 -92t-91.5 -37q-55 0 -91 36.5t-36 92.5z" />
<glyph unicode="&#xe5;" horiz-adv-x="1062" d="M92 266q0 94 42 157.5t115 103.5t170 57.5t208 17.5h135v41q0 37 -14.5 74t-43 66.5t-71.5 47t-103 17.5q-53 0 -93 -10.5t-72.5 -25.5t-59 -35.5t-51.5 -39.5l-111 115q78 72 180.5 107.5t204.5 35.5q106 0 183 -26.5t126.5 -71.5t73 -103.5t23.5 -121.5v-496 q0 -51 2 -94t6 -82h-164q-6 74 -6 147h-4q-61 -94 -145 -133t-195 -39q-68 0 -129 18.5t-107.5 55.5t-73 91.5t-26.5 125.5zM276 281q0 -84 56.5 -121t152.5 -37q76 0 129.5 25.5t86 66.5t47 91t14.5 100v61h-98q-66 0 -134.5 -7t-125 -27.5t-92.5 -57.5t-36 -94zM324 1333 q0 43 17 80t46 64.5t67 43t78 15.5q43 0 81 -15.5t67 -43t45 -63.5t16 -79t-16 -79.5t-45 -64.5t-67 -43t-81 -15q-41 0 -78.5 15t-66.5 43t-46 63.5t-17 78.5zM410 1333q0 -49 37.5 -81.5t84.5 -32.5t85 32.5t38 81.5q0 51 -36.5 84t-86.5 33q-49 0 -85.5 -33t-36.5 -84z " />
<glyph unicode="&#xe6;" horiz-adv-x="1744" d="M80 276q0 86 36 142.5t93 88.5t130 45t144 13h287v31q0 104 -61.5 178t-182.5 74q-86 0 -147.5 -28.5t-126.5 -82.5l-115 117q78 70 180.5 105.5t206.5 35.5q100 0 195.5 -34.5t152.5 -120.5q25 27 55.5 54.5t71.5 50t93.5 36.5t119.5 14q139 0 227.5 -53t138.5 -130 t68.5 -162t18.5 -146v-86h-723q0 -59 19.5 -112.5t57.5 -93.5t92 -64.5t124 -24.5q88 0 151.5 44t100.5 109l149 -112q-86 -98 -179 -149.5t-226 -51.5q-117 0 -215 44t-164 155q-68 -92 -165 -145.5t-232 -53.5q-98 0 -169 27.5t-117 71.5t-67.5 100.5t-21.5 113.5z M276 276q0 -72 59.5 -118.5t143.5 -46.5q57 0 109.5 19.5t92.5 55t64.5 87t24.5 116.5v29h-291q-106 0 -154.5 -35t-48.5 -107zM942 565h526q-2 55 -16 104.5t-45 86.5t-79 58.5t-118 21.5q-66 0 -114.5 -21.5t-83.5 -58.5t-52.5 -86t-17.5 -105z" />
<glyph unicode="&#xe7;" horiz-adv-x="987" d="M92 481q0 113 37 207t103.5 162t159.5 105.5t208 37.5q106 0 203.5 -37.5t169.5 -115.5l-139 -127q-51 53 -107.5 80.5t-134.5 27.5q-76 0 -132.5 -27.5t-94 -75.5t-57 -110.5t-19.5 -130.5t22.5 -128t63.5 -105t98 -71t129 -26q78 0 133.5 28t102.5 81l131 -131 q-70 -78 -160 -111.5t-193 -36.5l-73 -102h59q35 0 69 -8t60.5 -26.5t43 -46t16.5 -66.5q0 -55 -24 -92t-60.5 -59.5t-82.5 -33t-89 -10.5q-55 0 -109.5 11.5t-106.5 35.5l39 82q76 -31 160 -31q18 0 40 4.5t41 13.5t31.5 25.5t12.5 42.5q0 39 -19.5 57.5t-48 23.5t-62.5 0 t-62 -13l-43 37l112 162q-96 12 -175 53t-135 105.5t-87 150.5t-31 188z" />
<glyph unicode="&#xe8;" d="M82 485q0 109 38 202t104.5 162t158.5 107.5t201 38.5q129 0 218 -45t146.5 -117.5t83 -163.5t25.5 -186v-65h-778q0 -63 27.5 -115.5t72.5 -89.5t104.5 -57.5t122.5 -20.5q86 0 149.5 40t116.5 106l140 -107q-154 -199 -430 -199q-115 0 -208 39t-157.5 107.5t-99.5 162 t-35 201.5zM229 1450h263l213 -295h-170zM279 565h581q-2 61 -19.5 112.5t-52 89.5t-87 59.5t-121.5 21.5q-68 0 -124.5 -25.5t-95 -66.5t-60 -91.5t-21.5 -99.5z" />
<glyph unicode="&#xe9;" d="M82 485q0 109 38 202t104.5 162t158.5 107.5t201 38.5q129 0 218 -45t146.5 -117.5t83 -163.5t25.5 -186v-65h-778q0 -63 27.5 -115.5t72.5 -89.5t104.5 -57.5t122.5 -20.5q86 0 149.5 40t116.5 106l140 -107q-154 -199 -430 -199q-115 0 -208 39t-157.5 107.5t-99.5 162 t-35 201.5zM279 565h581q-2 61 -19.5 112.5t-52 89.5t-87 59.5t-121.5 21.5q-68 0 -124.5 -25.5t-95 -66.5t-60 -91.5t-21.5 -99.5zM434 1155l213 295h262l-305 -295h-170z" />
<glyph unicode="&#xea;" d="M82 485q0 109 38 202t104.5 162t158.5 107.5t201 38.5q129 0 218 -45t146.5 -117.5t83 -163.5t25.5 -186v-65h-778q0 -63 27.5 -115.5t72.5 -89.5t104.5 -57.5t122.5 -20.5q86 0 149.5 40t116.5 106l140 -107q-154 -199 -430 -199q-115 0 -208 39t-157.5 107.5t-99.5 162 t-35 201.5zM231 1155l230 295h217l229 -295h-186l-152 197l-151 -197h-187zM279 565h581q-2 61 -19.5 112.5t-52 89.5t-87 59.5t-121.5 21.5q-68 0 -124.5 -25.5t-95 -66.5t-60 -91.5t-21.5 -99.5z" />
<glyph unicode="&#xeb;" d="M82 485q0 109 38 202t104.5 162t158.5 107.5t201 38.5q129 0 218 -45t146.5 -117.5t83 -163.5t25.5 -186v-65h-778q0 -63 27.5 -115.5t72.5 -89.5t104.5 -57.5t122.5 -20.5q86 0 149.5 40t116.5 106l140 -107q-154 -199 -430 -199q-115 0 -208 39t-157.5 107.5t-99.5 162 t-35 201.5zM233 1346q0 51 40 83.5t87 32.5t87 -32.5t40 -83.5q0 -55 -35.5 -92t-91.5 -37q-55 0 -91 36.5t-36 92.5zM279 565h581q-2 61 -19.5 112.5t-52 89.5t-87 59.5t-121.5 21.5q-68 0 -124.5 -25.5t-95 -66.5t-60 -91.5t-21.5 -99.5zM651 1346q0 51 40 83.5t87 32.5 t87 -32.5t40 -83.5q0 -55 -35.5 -92t-91.5 -37q-55 0 -91 36.5t-36 92.5z" />
<glyph unicode="&#xec;" horiz-adv-x="491" d="M-94 1450h262l213 -295h-170zM154 0v971h184v-971h-184z" />
<glyph unicode="&#xed;" horiz-adv-x="491" d="M111 1155l213 295h262l-305 -295h-170zM154 0v971h184v-971h-184z" />
<glyph unicode="&#xee;" horiz-adv-x="491" d="M-92 1155l229 295h217l230 -295h-187l-151 197l-152 -197h-186zM154 0v971h184v-971h-184z" />
<glyph unicode="&#xef;" horiz-adv-x="491" d="M-90 1346q0 51 40 83.5t87 32.5t87 -32.5t40 -83.5q0 -55 -36 -92t-91 -37t-91 36.5t-36 92.5zM154 0v971h184v-971h-184zM328 1346q0 51 40 83.5t87 32.5t87 -32.5t40 -83.5q0 -55 -36 -92t-91 -37t-91 36.5t-36 92.5z" />
<glyph unicode="&#xf0;" horiz-adv-x="1216" d="M92 485q0 106 40 198.5t109.5 162t164 109.5t202.5 40q68 0 137.5 -22.5t118.5 -79.5l4 4q-57 102 -133 193.5t-162 175.5l-219 -107l-96 94l217 109l-174 145l162 95l182 -160l221 106l107 -90l-230 -112q80 -84 149 -174.5t121 -188.5t81.5 -205.5t29.5 -226.5 q0 -129 -34.5 -235.5t-101 -182.5t-162 -117t-218.5 -41q-109 0 -203 40t-163.5 109t-109.5 162t-40 199zM289 485q0 -74 22.5 -136t63.5 -106t100.5 -70t132.5 -26q74 0 133.5 26t100.5 70t63.5 106.5t22.5 135.5q0 74 -22.5 136.5t-63.5 106.5t-100.5 69.5t-133.5 25.5 t-133 -25.5t-100 -69.5t-63.5 -106.5t-22.5 -136.5z" />
<glyph unicode="&#xf1;" d="M139 0v971h185v-150h4q35 78 121 126t198 48q70 0 134.5 -21.5t112.5 -66.5t76.5 -115.5t28.5 -166.5v-625h-184v573q0 68 -18.5 116t-49 78t-70.5 43t-83 13q-57 0 -106.5 -18.5t-86 -58t-57 -101t-20.5 -145.5v-500h-185zM225 1180q6 39 22.5 77.5t42 68.5t61.5 48.5 t81 18.5q47 0 89 -15.5t83 -31.5q31 -12 54.5 -23.5t56.5 -11.5q41 0 65.5 26.5t34.5 63.5h98q-6 -39 -20 -77t-36.5 -68.5t-56.5 -49t-79 -18.5q-43 0 -85 13t-81 30q-31 12 -65.5 25.5t-69.5 13.5q-39 0 -62.5 -28t-33.5 -62h-99z" />
<glyph unicode="&#xf2;" horiz-adv-x="1216" d="M92 485q0 106 40 198.5t109.5 162t164 109.5t202.5 40q109 0 203 -40t163.5 -109.5t109.5 -161.5t40 -199q0 -106 -40 -199t-109.5 -162t-163.5 -109t-203 -40t-203 40t-163.5 109t-109.5 162t-40 199zM268 1450h262l213 -295h-170zM289 485q0 -74 22.5 -136t63.5 -106 t100.5 -70t132.5 -26q74 0 133.5 26t100.5 70t63.5 106.5t22.5 135.5q0 74 -22.5 136.5t-63.5 106.5t-100.5 69.5t-133.5 25.5t-133 -25.5t-100 -69.5t-63.5 -106.5t-22.5 -136.5z" />
<glyph unicode="&#xf3;" horiz-adv-x="1216" d="M92 485q0 106 40 198.5t109.5 162t164 109.5t202.5 40q109 0 203 -40t163.5 -109.5t109.5 -161.5t40 -199q0 -106 -40 -199t-109.5 -162t-163.5 -109t-203 -40t-203 40t-163.5 109t-109.5 162t-40 199zM289 485q0 -74 22.5 -136t63.5 -106t100.5 -70t132.5 -26 q74 0 133.5 26t100.5 70t63.5 106.5t22.5 135.5q0 74 -22.5 136.5t-63.5 106.5t-100.5 69.5t-133.5 25.5t-133 -25.5t-100 -69.5t-63.5 -106.5t-22.5 -136.5zM473 1155l213 295h262l-305 -295h-170z" />
<glyph unicode="&#xf4;" horiz-adv-x="1216" d="M92 485q0 106 40 198.5t109.5 162t164 109.5t202.5 40q109 0 203 -40t163.5 -109.5t109.5 -161.5t40 -199q0 -106 -40 -199t-109.5 -162t-163.5 -109t-203 -40t-203 40t-163.5 109t-109.5 162t-40 199zM270 1155l230 295h217l229 -295h-186l-152 197l-151 -197h-187z M289 485q0 -74 22.5 -136t63.5 -106t100.5 -70t132.5 -26q74 0 133.5 26t100.5 70t63.5 106.5t22.5 135.5q0 74 -22.5 136.5t-63.5 106.5t-100.5 69.5t-133.5 25.5t-133 -25.5t-100 -69.5t-63.5 -106.5t-22.5 -136.5z" />
<glyph unicode="&#xf5;" horiz-adv-x="1216" d="M92 485q0 106 40 198.5t109.5 162t164 109.5t202.5 40q109 0 203 -40t163.5 -109.5t109.5 -161.5t40 -199q0 -106 -40 -199t-109.5 -162t-163.5 -109t-203 -40t-203 40t-163.5 109t-109.5 162t-40 199zM264 1180q6 39 22.5 77.5t42 68.5t61.5 48.5t81 18.5q47 0 89 -15.5 t83 -31.5q31 -12 54.5 -23.5t56.5 -11.5q41 0 65.5 26.5t34.5 63.5h98q-6 -39 -20 -77t-37 -68.5t-56.5 -49t-78.5 -18.5q-43 0 -85 13t-81 30q-31 12 -65.5 25.5t-69.5 13.5q-39 0 -62.5 -28t-34.5 -62h-98zM289 485q0 -74 22.5 -136t63.5 -106t100.5 -70t132.5 -26 q74 0 133.5 26t100.5 70t63.5 106.5t22.5 135.5q0 74 -22.5 136.5t-63.5 106.5t-100.5 69.5t-133.5 25.5t-133 -25.5t-100 -69.5t-63.5 -106.5t-22.5 -136.5z" />
<glyph unicode="&#xf6;" horiz-adv-x="1216" d="M92 485q0 106 40 198.5t109.5 162t164 109.5t202.5 40q109 0 203 -40t163.5 -109.5t109.5 -161.5t40 -199q0 -106 -40 -199t-109.5 -162t-163.5 -109t-203 -40t-203 40t-163.5 109t-109.5 162t-40 199zM272 1346q0 51 40 83.5t87 32.5t87 -32.5t40 -83.5q0 -55 -35.5 -92 t-91.5 -37q-55 0 -91 36.5t-36 92.5zM289 485q0 -74 22.5 -136t63.5 -106t100.5 -70t132.5 -26q74 0 133.5 26t100.5 70t63.5 106.5t22.5 135.5q0 74 -22.5 136.5t-63.5 106.5t-100.5 69.5t-133.5 25.5t-133 -25.5t-100 -69.5t-63.5 -106.5t-22.5 -136.5zM690 1346 q0 51 40 83.5t87 32.5t87 -32.5t40 -83.5q0 -55 -36 -92t-91 -37t-91 36.5t-36 92.5z" />
<glyph unicode="&#xf7;" horiz-adv-x="1363" d="M135 539v159h1094v-159h-1094zM547 274q0 55 40 95.5t95 40.5t95 -40t40 -96q0 -55 -40 -95t-95 -40t-95 40t-40 95zM547 963q0 55 40 95t95 40t95 -40t40 -95t-40 -95.5t-95 -40.5t-95 40.5t-40 95.5z" />
<glyph unicode="&#xf8;" horiz-adv-x="1216" d="M84 8l137 139q-59 66 -94 153t-35 185q0 106 40 198.5t109.5 162t164 109.5t202.5 40q98 0 182 -31.5t150 -86.5l154 153l73 -74l-153 -155q53 -66 81.5 -146t28.5 -170q0 -106 -40 -199t-109.5 -162t-163.5 -109t-203 -40q-86 0 -163.5 27t-143.5 74l-141 -142zM289 485 q0 -127 61 -209l467 476q-41 35 -92 53t-117 18q-74 0 -133 -25.5t-100 -69.5t-63.5 -106.5t-22.5 -136.5zM426 203q74 -55 182 -56q74 0 133.5 26t100.5 70t63.5 106.5t22.5 135.5q0 106 -45 183z" />
<glyph unicode="&#xf9;" d="M139 346v625h185v-574q0 -68 18 -116t49 -77.5t71 -43t83 -13.5q57 0 106 18.5t86 58.5t57.5 101.5t20.5 145.5v500h184v-971h-184v150h-4q-35 -78 -121 -126.5t-198 -48.5q-72 0 -135.5 21.5t-111.5 67t-77 116t-29 166.5zM229 1450h263l213 -295h-170z" />
<glyph unicode="&#xfa;" d="M139 346v625h185v-574q0 -68 18 -116t49 -77.5t71 -43t83 -13.5q57 0 106 18.5t86 58.5t57.5 101.5t20.5 145.5v500h184v-971h-184v150h-4q-35 -78 -121 -126.5t-198 -48.5q-72 0 -135.5 21.5t-111.5 67t-77 116t-29 166.5zM434 1155l213 295h262l-305 -295h-170z" />
<glyph unicode="&#xfb;" d="M139 346v625h185v-574q0 -68 18 -116t49 -77.5t71 -43t83 -13.5q57 0 106 18.5t86 58.5t57.5 101.5t20.5 145.5v500h184v-971h-184v150h-4q-35 -78 -121 -126.5t-198 -48.5q-72 0 -135.5 21.5t-111.5 67t-77 116t-29 166.5zM231 1155l230 295h217l229 -295h-186l-152 197 l-151 -197h-187z" />
<glyph unicode="&#xfc;" d="M139 346v625h185v-574q0 -68 18 -116t49 -77.5t71 -43t83 -13.5q57 0 106 18.5t86 58.5t57.5 101.5t20.5 145.5v500h184v-971h-184v150h-4q-35 -78 -121 -126.5t-198 -48.5q-72 0 -135.5 21.5t-111.5 67t-77 116t-29 166.5zM233 1346q0 51 40 83.5t87 32.5t87 -32.5 t40 -83.5q0 -55 -35.5 -92t-91.5 -37q-55 0 -91 36.5t-36 92.5zM651 1346q0 51 40 83.5t87 32.5t87 -32.5t40 -83.5q0 -55 -35.5 -92t-91.5 -37q-55 0 -91 36.5t-36 92.5z" />
<glyph unicode="&#xfd;" horiz-adv-x="1024" d="M23 971h213l288 -758h4l275 758h198l-460 -1180q-25 -63 -51.5 -115.5t-63.5 -89.5t-89 -57.5t-128 -20.5q-41 0 -83 5.5t-81 21.5l23 168q55 -23 110 -22q43 0 73 11t51.5 32.5t35.5 50t29 65.5l59 154zM377 1155l213 295h262l-305 -295h-170z" />
<glyph unicode="&#xfe;" horiz-adv-x="1251" d="M139 -467v2015h185v-717h4q49 76 141 120t197 44q113 0 204 -38.5t155.5 -107.5t99 -162t34.5 -202t-34.5 -200.5t-99 -161.5t-156 -109t-203.5 -39q-98 0 -191.5 43t-146.5 121h-4v-606h-185zM324 485q0 -74 22.5 -136t63.5 -106t100 -70t133 -26t133.5 26t100.5 70 t63.5 106.5t22.5 135.5q0 74 -22.5 136.5t-63.5 106.5t-100.5 69.5t-133.5 25.5t-133 -25.5t-100 -69.5t-63.5 -106.5t-22.5 -136.5z" />
<glyph unicode="&#xff;" horiz-adv-x="1024" d="M23 971h213l288 -758h4l275 758h198l-460 -1180q-25 -63 -51.5 -115.5t-63.5 -89.5t-89 -57.5t-128 -20.5q-41 0 -83 5.5t-81 21.5l23 168q55 -23 110 -22q43 0 73 11t51.5 32.5t35.5 50t29 65.5l59 154zM176 1346q0 51 40 83.5t87 32.5t87 -32.5t40 -83.5q0 -55 -36 -92 t-91 -37t-91 36.5t-36 92.5zM594 1346q0 51 40 83.5t87 32.5t87 -32.5t40 -83.5q0 -55 -36 -92t-91 -37t-91 36.5t-36 92.5z" />
<glyph unicode="&#x100;" horiz-adv-x="1441" d="M2 0l639 1450h178l621 -1450h-230l-145 358h-690l-144 -358h-229zM426 1606v135h590v-135h-590zM444 530h549l-270 666h-4z" />
<glyph unicode="&#x101;" horiz-adv-x="1062" d="M92 266q0 94 42 157.5t115 103.5t170 57.5t208 17.5h135v41q0 37 -14.5 74t-43 66.5t-71.5 47t-103 17.5q-53 0 -93 -10.5t-72.5 -25.5t-59 -35.5t-51.5 -39.5l-111 115q78 72 180.5 107.5t204.5 35.5q106 0 183 -26.5t126.5 -71.5t73 -103.5t23.5 -121.5v-496 q0 -51 2 -94t6 -82h-164q-6 74 -6 147h-4q-61 -94 -145 -133t-195 -39q-68 0 -129 18.5t-107.5 55.5t-73 91.5t-26.5 125.5zM236 1229v135h589v-135h-589zM276 281q0 -84 56.5 -121t152.5 -37q76 0 129.5 25.5t86 66.5t47 91t14.5 100v61h-98q-66 0 -134.5 -7t-125 -27.5 t-92.5 -57.5t-36 -94z" />
<glyph unicode="&#x102;" horiz-adv-x="1441" d="M2 0l639 1450h178l621 -1450h-230l-145 358h-690l-144 -358h-229zM399 1815h113q14 -78 74.5 -113t136.5 -35t136.5 35t74.5 113h108q-10 -141 -98 -212t-223 -71t-223 70.5t-99 212.5zM444 530h549l-270 666h-4z" />
<glyph unicode="&#x103;" horiz-adv-x="1062" d="M92 266q0 94 42 157.5t115 103.5t170 57.5t208 17.5h135v41q0 37 -14.5 74t-43 66.5t-71.5 47t-103 17.5q-53 0 -93 -10.5t-72.5 -25.5t-59 -35.5t-51.5 -39.5l-111 115q78 72 180.5 107.5t204.5 35.5q106 0 183 -26.5t126.5 -71.5t73 -103.5t23.5 -121.5v-496 q0 -51 2 -94t6 -82h-164q-6 74 -6 147h-4q-61 -94 -145 -133t-195 -39q-68 0 -129 18.5t-107.5 55.5t-73 91.5t-26.5 125.5zM209 1438h113q14 -78 74.5 -113t135.5 -35q76 0 136.5 35t74.5 113h109q-10 -141 -98 -212t-224 -71q-135 0 -223 70.5t-98 212.5zM276 281 q0 -84 56.5 -121t152.5 -37q76 0 129.5 25.5t86 66.5t47 91t14.5 100v61h-98q-66 0 -134.5 -7t-125 -27.5t-92.5 -57.5t-36 -94z" />
<glyph unicode="&#x104;" horiz-adv-x="1441" d="M2 0l639 1450h178l621 -1450h-60q-23 -23 -45 -52.5t-42.5 -62t-33 -65.5t-12.5 -62q4 -49 34 -68.5t67 -19.5q27 0 51 11.5t45 27.5l45 -90q-41 -37 -90 -54.5t-96 -17.5q-80 0 -139.5 44t-63.5 130q0 39 14 77t38 75t52.5 68.5t59.5 58.5h-54l-145 358h-690l-144 -358 h-229zM444 530h549l-270 666h-4z" />
<glyph unicode="&#x105;" horiz-adv-x="1062" d="M92 266q0 94 42 157.5t115 103.5t170 57.5t208 17.5h135v41q0 37 -14.5 74t-43 66.5t-71.5 47t-103 17.5q-53 0 -93 -10.5t-72.5 -25.5t-59 -35.5t-51.5 -39.5l-111 115q78 72 180.5 107.5t204.5 35.5q106 0 183 -26.5t126.5 -71.5t73 -103.5t23.5 -121.5v-496 q0 -51 2 -94t6 -82h-22q-23 -23 -45.5 -52.5t-43 -62t-33 -65.5t-12.5 -62q4 -49 34 -68.5t67 -19.5q27 0 51.5 11.5t44.5 27.5l45 -90q-41 -37 -90 -54.5t-96 -17.5q-80 0 -139.5 44t-63.5 130q0 39 14.5 77t38 75t52 68.5t59.5 58.5h-25q-6 74 -6 147h-4 q-61 -94 -145 -133t-195 -39q-68 0 -129 18.5t-107.5 55.5t-73 91.5t-26.5 125.5zM276 281q0 -84 56.5 -121t152.5 -37q76 0 129.5 25.5t86 66.5t47 91t14.5 100v61h-98q-66 0 -134.5 -7t-125 -27.5t-92.5 -57.5t-36 -94z" />
<glyph unicode="&#x106;" horiz-adv-x="1441" d="M96 713q0 168 55.5 310t155 245.5t238.5 161t307 57.5q143 0 281.5 -55.5t226.5 -169.5l-164 -125q-61 80 -155.5 123t-194.5 43q-123 0 -222.5 -46.5t-170 -126t-109.5 -187t-39 -230.5q0 -115 37 -217.5t106.5 -180t170 -123t227.5 -45.5q125 0 219 51.5t160 143.5 l166 -125q-16 -23 -57.5 -64.5t-109 -83.5t-162.5 -74t-220 -32q-172 0 -310.5 65.5t-235.5 172t-148.5 240.5t-51.5 272zM637 1532l213 295h262l-305 -295h-170z" />
<glyph unicode="&#x107;" horiz-adv-x="987" d="M92 481q0 113 37 207t103.5 162t159.5 105.5t208 37.5q106 0 203.5 -37.5t169.5 -115.5l-139 -127q-51 53 -107.5 80.5t-134.5 27.5q-76 0 -132.5 -27.5t-94 -75.5t-57 -110.5t-19.5 -130.5t22.5 -128t63.5 -105t98 -71t129 -26q78 0 133.5 28t102.5 81l131 -131 q-72 -80 -167 -115t-202 -35q-113 0 -206 37t-160.5 103.5t-104.5 160t-37 205.5zM403 1155l213 295h263l-306 -295h-170z" />
<glyph unicode="&#x10c;" horiz-adv-x="1441" d="M96 713q0 168 55.5 310t155 245.5t238.5 161t307 57.5q143 0 281.5 -55.5t226.5 -169.5l-164 -125q-61 80 -155.5 123t-194.5 43q-123 0 -222.5 -46.5t-170 -126t-109.5 -187t-39 -230.5q0 -115 37 -217.5t106.5 -180t170 -123t227.5 -45.5q125 0 219 51.5t160 143.5 l166 -125q-16 -23 -57.5 -64.5t-109 -83.5t-162.5 -74t-220 -32q-172 0 -310.5 65.5t-235.5 172t-148.5 240.5t-51.5 272zM494 1827h178l159 -197l152 197h186l-229 -295h-217z" />
<glyph unicode="&#x10d;" horiz-adv-x="987" d="M92 481q0 113 37 207t103.5 162t159.5 105.5t208 37.5q106 0 203.5 -37.5t169.5 -115.5l-139 -127q-51 53 -107.5 80.5t-134.5 27.5q-76 0 -132.5 -27.5t-94 -75.5t-57 -110.5t-19.5 -130.5t22.5 -128t63.5 -105t98 -71t129 -26q78 0 133.5 28t102.5 81l131 -131 q-72 -80 -167 -115t-202 -35q-113 0 -206 37t-160.5 103.5t-104.5 160t-37 205.5zM250 1450h178l160 -197l151 197h187l-230 -295h-217z" />
<glyph unicode="&#x10e;" horiz-adv-x="1517" d="M154 0v1450h505q154 0 269.5 -35t200.5 -93t141.5 -134t89.5 -156t47 -159.5t14 -147.5q0 -139 -51 -269t-151.5 -231.5t-249 -163t-342.5 -61.5h-473zM350 184h248q125 0 236.5 34t195.5 101.5t133 169t49 236.5q0 70 -22.5 163t-85 177t-173 142.5t-286.5 58.5h-295 v-1082zM420 1827h178l160 -197l151 197h187l-230 -295h-217z" />
<glyph unicode="&#x10f;" horiz-adv-x="1366" d="M92 485q0 109 35 202t99.5 162t155.5 107.5t204 38.5q104 0 196 -44t142 -120h4v717h184v-1548h-184v139h-4q-53 -78 -146.5 -121t-191.5 -43q-113 0 -204 39t-155.5 109t-99.5 162t-35 200zM289 485q0 -74 22.5 -136t63.5 -106t100 -70t133 -26t133.5 26t100.5 70 t63.5 106.5t22.5 135.5q0 74 -22.5 136.5t-63.5 106.5t-100.5 69.5t-133.5 25.5t-133 -25.5t-100 -69.5t-63.5 -106.5t-22.5 -136.5zM1171 1149l117 401h185l-150 -401h-152z" />
<glyph unicode="&#x110;" horiz-adv-x="1517" d="M6 688v135h148v627h505q154 0 269.5 -35t200.5 -93t141.5 -134t89.5 -156t47 -159.5t14 -147.5q0 -139 -51 -269t-151.5 -231.5t-249 -163t-342.5 -61.5h-473v688h-148zM350 184h248q125 0 236.5 34t195.5 101.5t133 169t49 236.5q0 70 -22.5 163t-85 177t-173 142.5 t-286.5 58.5h-295v-443h479v-135h-479v-504z" />
<glyph unicode="&#x111;" horiz-adv-x="1251" d="M92 485q0 109 35 202t99.5 162t155.5 107.5t204 38.5q104 0 196 -44t142 -120h4v398h-344v135h344v184h184v-184h139v-135h-139v-1229h-184v139h-4q-53 -78 -146.5 -121t-191.5 -43q-113 0 -204 39t-155.5 109t-99.5 162t-35 200zM289 485q0 -74 22.5 -136t63.5 -106 t100 -70t133 -26t133.5 26t100.5 70t63.5 106.5t22.5 135.5q0 74 -22.5 136.5t-63.5 106.5t-100.5 69.5t-133.5 25.5t-133 -25.5t-100 -69.5t-63.5 -106.5t-22.5 -136.5z" />
<glyph unicode="&#x112;" horiz-adv-x="1251" d="M186 0v1450h936v-184h-739v-432h688v-185h-688v-465h776v-184h-973zM330 1604v135h590v-135h-590z" />
<glyph unicode="&#x113;" d="M82 485q0 109 38 202t104.5 162t158.5 107.5t201 38.5q129 0 218 -45t146.5 -117.5t83 -163.5t25.5 -186v-65h-778q0 -63 27.5 -115.5t72.5 -89.5t104.5 -57.5t122.5 -20.5q86 0 149.5 40t116.5 106l140 -107q-154 -199 -430 -199q-115 0 -208 39t-157.5 107.5t-99.5 162 t-35 201.5zM274 1229v135h590v-135h-590zM279 565h581q-2 61 -19.5 112.5t-52 89.5t-87 59.5t-121.5 21.5q-68 0 -124.5 -25.5t-95 -66.5t-60 -91.5t-21.5 -99.5z" />
<glyph unicode="&#x116;" horiz-adv-x="1251" d="M186 0v1450h936v-184h-739v-432h688v-185h-688v-465h776v-184h-973zM539 1661q0 51 39.5 84t87.5 33q47 0 87 -33t40 -84q0 -55 -36 -92t-91 -37t-91 37t-36 92z" />
<glyph unicode="&#x117;" d="M82 485q0 109 38 202t104.5 162t158.5 107.5t201 38.5q129 0 218 -45t146.5 -117.5t83 -163.5t25.5 -186v-65h-778q0 -63 27.5 -115.5t72.5 -89.5t104.5 -57.5t122.5 -20.5q86 0 149.5 40t116.5 106l140 -107q-154 -199 -430 -199q-115 0 -208 39t-157.5 107.5t-99.5 162 t-35 201.5zM279 565h581q-2 61 -19.5 112.5t-52 89.5t-87 59.5t-121.5 21.5q-68 0 -124.5 -25.5t-95 -66.5t-60 -91.5t-21.5 -99.5zM442 1284q0 51 40 84t87 33t87 -33t40 -84q0 -55 -36 -92t-91 -37t-91 37t-36 92z" />
<glyph unicode="&#x118;" horiz-adv-x="1251" d="M186 0v1450h936v-184h-739v-432h688v-185h-688v-465h776v-184h-98q-23 -23 -45.5 -52.5t-43 -62t-32.5 -65.5t-12 -62q4 -49 33.5 -68.5t66.5 -19.5q27 0 51.5 11.5t44.5 27.5l45 -90q-41 -37 -90 -54.5t-96 -17.5q-80 0 -139.5 44t-63.5 130q0 39 14.5 77t38 75t52 68.5 t59.5 58.5h-758z" />
<glyph unicode="&#x119;" d="M82 485q0 109 38 202t104.5 162t158.5 107.5t201 38.5q129 0 218 -45t146.5 -117.5t83 -163.5t25.5 -186v-65h-778q0 -63 27.5 -115.5t72.5 -89.5t104.5 -57.5t122.5 -20.5q86 0 149.5 40t116.5 106l140 -107q-90 -117 -224 -166q-23 -23 -47 -52.5t-45.5 -63t-35 -68.5 t-13.5 -66q4 -49 34 -68.5t67 -19.5q27 0 51 11.5t45 27.5l45 -90q-41 -37 -90 -54.5t-97 -17.5q-80 0 -139 44t-63 130q0 70 43 136.5t96 119.5q-14 0 -27.5 -1t-29.5 -1q-115 0 -208 39t-157.5 107.5t-99.5 162t-35 201.5zM279 565h581q-2 61 -19.5 112.5t-52 89.5 t-87 59.5t-121.5 21.5q-68 0 -124.5 -25.5t-95 -66.5t-60 -91.5t-21.5 -99.5z" />
<glyph unicode="&#x11a;" horiz-adv-x="1251" d="M186 0v1450h936v-184h-739v-432h688v-185h-688v-465h776v-184h-973zM317 1827h179l159 -197l152 197h186l-229 -295h-217z" />
<glyph unicode="&#x11b;" d="M82 485q0 109 38 202t104.5 162t158.5 107.5t201 38.5q129 0 218 -45t146.5 -117.5t83 -163.5t25.5 -186v-65h-778q0 -63 27.5 -115.5t72.5 -89.5t104.5 -57.5t122.5 -20.5q86 0 149.5 40t116.5 106l140 -107q-154 -199 -430 -199q-115 0 -208 39t-157.5 107.5t-99.5 162 t-35 201.5zM248 1450h178l160 -197l151 197h187l-230 -295h-217zM279 565h581q-2 61 -19.5 112.5t-52 89.5t-87 59.5t-121.5 21.5q-68 0 -124.5 -25.5t-95 -66.5t-60 -91.5t-21.5 -99.5z" />
<glyph unicode="&#x11e;" horiz-adv-x="1593" d="M96 725q0 162 56.5 301t156 241.5t238.5 161t305 58.5q201 0 328 -50.5t213 -138.5l-140 -149q-90 86 -190 120t-211 34q-125 0 -225.5 -46.5t-172 -124t-110.5 -183t-39 -224.5q0 -123 43 -228.5t119 -183t178.5 -122t222.5 -44.5q104 0 197.5 19.5t159.5 56.5v404h-322 v184h518v-715q-53 -33 -120.5 -57.5t-140.5 -41.5t-147.5 -25.5t-140.5 -8.5q-184 0 -328.5 61.5t-243.5 166t-151.5 242.5t-52.5 292zM535 1827h112q14 -78 74.5 -113t136.5 -35t136.5 35t74.5 113h109q-10 -141 -98.5 -212t-223.5 -71t-223 71t-98 212z" />
<glyph unicode="&#x11f;" horiz-adv-x="1251" d="M92 485q0 106 35 199.5t99.5 163.5t155.5 108.5t204 38.5q98 0 191 -43t147 -121h4v140h184v-963q0 -111 -38 -202t-107.5 -157.5t-168 -103.5t-216.5 -37q-139 0 -255 39t-221 136l125 155q72 -78 156 -117.5t191 -39.5q102 0 169.5 29.5t107.5 76.5t56.5 107.5 t16.5 121.5v144h-6q-53 -88 -144.5 -130t-191.5 -42q-106 0 -197.5 37.5t-157 104.5t-102.5 158t-37 197zM289 485q0 -147 86 -236t233 -89t233.5 89t86.5 236q0 74 -22.5 136.5t-63.5 106.5t-100.5 69.5t-133.5 25.5t-133 -25.5t-100 -69.5t-63.5 -106.5t-22.5 -136.5z M303 1438h113q14 -78 74.5 -113t136.5 -35t136 35t75 113h108q-10 -141 -98 -212t-223 -71t-223.5 70.5t-98.5 212.5z" />
<glyph unicode="&#x122;" horiz-adv-x="1593" d="M96 725q0 162 56.5 301t156 241.5t238.5 161t305 58.5q201 0 328 -50.5t213 -138.5l-140 -149q-90 86 -190 120t-211 34q-125 0 -225.5 -46.5t-172 -124t-110.5 -183t-39 -224.5q0 -123 43 -228.5t119 -183t178.5 -122t222.5 -44.5q104 0 197.5 19.5t159.5 56.5v404h-322 v184h518v-715q-53 -33 -120.5 -57.5t-140.5 -41.5t-147.5 -25.5t-140.5 -8.5q-184 0 -328.5 61.5t-243.5 166t-151.5 242.5t-52.5 292zM645 -500l117 402h184l-149 -402h-152z" />
<glyph unicode="&#x123;" horiz-adv-x="1251" d="M92 485q0 106 35 199.5t99.5 163.5t155.5 108.5t204 38.5q98 0 191 -43t147 -121h4v140h184v-963q0 -111 -38 -202t-107.5 -157.5t-168 -103.5t-216.5 -37q-139 0 -255 39t-221 136l125 155q72 -78 156 -117.5t191 -39.5q102 0 169.5 29.5t107.5 76.5t56.5 107.5 t16.5 121.5v144h-6q-53 -88 -144.5 -130t-191.5 -42q-106 0 -197.5 37.5t-157 104.5t-102.5 158t-37 197zM289 485q0 -147 86 -236t233 -89t233.5 89t86.5 236q0 74 -22.5 136.5t-63.5 106.5t-100.5 69.5t-133.5 25.5t-133 -25.5t-100 -69.5t-63.5 -106.5t-22.5 -136.5z M477 1133l150 401h151l-116 -401h-185z" />
<glyph unicode="&#x128;" horiz-adv-x="561" d="M-51 1575q4 41 19.5 80t41.5 71q27 33 61.5 53.5t82.5 20.5q57 0 129 -35l20 -8t21 -8q29 -14 57.5 -25.5t52.5 -11.5q41 0 63.5 24.5t32.5 63.5h101q-6 -41 -18.5 -80t-36 -69.5t-57.5 -50t-83 -19.5q-41 0 -76.5 12.5t-83.5 30.5q-41 16 -72.5 30.5t-62.5 14.5 q-16 0 -24 -6q-33 -8 -49.5 -31.5t-26.5 -56.5h-92zM186 0v1450h197v-1450h-197z" />
<glyph unicode="&#x129;" horiz-adv-x="491" d="M-76 1477q4 39 18.5 77.5t39.5 69.5q27 31 61.5 50.5t79.5 19.5q31 0 59.5 -8.5t67.5 -24.5q10 -4 19.5 -8t19.5 -8q29 -12 55.5 -23.5t50.5 -11.5q41 0 61.5 23.5t30.5 60.5h99q-6 -39 -18.5 -77t-34 -66.5t-55.5 -47t-81 -20.5q-39 0 -72.5 11t-80.5 30 q-41 16 -73 29.5t-60 13.5q-16 0 -25 -6q-29 -6 -45 -30t-27 -54h-90zM111 1319q0 55 39.5 95t95.5 40q55 0 95 -40t40 -95t-40 -95t-95 -40t-95 40t-40 95zM154 0v971h184v-971h-184z" />
<glyph unicode="&#x12a;" horiz-adv-x="569" d="M-10 1604v135h590v-135h-590zM186 0v1450h197v-1450h-197z" />
<glyph unicode="&#x12b;" horiz-adv-x="491" d="M-49 1229v135h590v-135h-590zM154 0v971h184v-971h-184z" />
<glyph unicode="&#x12e;" horiz-adv-x="569" d="M61 -279q0 39 14.5 77t38 75t52.5 68.5t59 58.5h-39v1450h197v-1450h-41q-23 -23 -45.5 -52.5t-43 -62t-32.5 -65.5t-12 -62q4 -49 33.5 -68.5t66.5 -19.5q27 0 51.5 11.5t45.5 27.5l45 -90q-41 -37 -90.5 -54.5t-96.5 -17.5q-80 0 -139 44t-64 130z" />
<glyph unicode="&#x12f;" horiz-adv-x="491" d="M25 -279q0 39 14 77t37.5 75t52.5 68.5t59 58.5h-34v971h184v-971h-33q-23 -23 -45 -52.5t-42.5 -62t-33 -65.5t-12.5 -62q4 -49 34 -68.5t66 -19.5q27 0 51.5 11.5t45.5 27.5l45 -90q-41 -37 -90.5 -54.5t-96.5 -17.5q-80 0 -139 44t-63 130zM111 1319q0 55 39.5 95 t95.5 40q55 0 95 -40t40 -95t-40 -95t-95 -40t-95 40t-40 95z" />
<glyph unicode="&#x130;" horiz-adv-x="569" d="M158 1661q0 51 40 84t87 33t87 -33t40 -84q0 -55 -36 -92t-91 -37t-91 37t-36 92zM186 0v1450h197v-1450h-197z" />
<glyph unicode="&#x131;" horiz-adv-x="491" d="M154 0v971h184v-971h-184z" />
<glyph unicode="&#x136;" horiz-adv-x="1327" d="M186 0v1450h197v-627h16l641 627h275l-701 -670l748 -780h-287l-676 725h-16v-725h-197zM512 -500l117 402h184l-149 -402h-152z" />
<glyph unicode="&#x137;" horiz-adv-x="1062" d="M139 0v1548h185v-999l417 420h256l-452 -441l491 -528h-262l-450 504v-504h-185zM381 -500l117 402h184l-150 -402h-151z" />
<glyph unicode="&#x139;" horiz-adv-x="1062" d="M186 0v1450h197v-1266h666v-184h-863zM199 1530l213 295h262l-305 -295h-170z" />
<glyph unicode="&#x13a;" horiz-adv-x="491" d="M154 0v1548h184v-1548h-184zM162 1608l213 295h262l-305 -295h-170z" />
<glyph unicode="&#x13b;" horiz-adv-x="1062" d="M186 0v1450h197v-1266h666v-184h-863zM418 -500l117 402h184l-150 -402h-151z" />
<glyph unicode="&#x13c;" horiz-adv-x="491" d="M70 -500l116 402h185l-150 -402h-151zM154 0v1548h184v-1548h-184z" />
<glyph unicode="&#x13d;" horiz-adv-x="1062" d="M186 0v1450h197v-1266h666v-184h-863zM432 1049l117 401h184l-149 -401h-152z" />
<glyph unicode="&#x13e;" horiz-adv-x="591" d="M154 0v1548h184v-1548h-184zM397 1149l117 401h184l-149 -401h-152z" />
<glyph unicode="&#x141;" horiz-adv-x="1062" d="M39 299v182l147 127v842h197v-672l442 385v-182l-442 -383v-414h666v-184h-863v428z" />
<glyph unicode="&#x142;" horiz-adv-x="491" d="M-6 451v184l160 160v753h184v-569l160 158v-185l-160 -157v-795h-184v610z" />
<glyph unicode="&#x143;" horiz-adv-x="1630" d="M186 0v1450h258l799 -1192h4v1192h197v-1450h-250l-807 1192h-4v-1192h-197zM641 1530l213 295h262l-305 -295h-170z" />
<glyph unicode="&#x144;" d="M139 0v971h185v-150h4q35 78 121 126t198 48q70 0 134.5 -21.5t112.5 -66.5t76.5 -115.5t28.5 -166.5v-625h-184v573q0 68 -18.5 116t-49 78t-70.5 43t-83 13q-57 0 -106.5 -18.5t-86 -58t-57 -101t-20.5 -145.5v-500h-185zM418 1155l213 295h262l-305 -295h-170z" />
<glyph unicode="&#x145;" horiz-adv-x="1630" d="M186 0v1450h258l799 -1192h4v1192h197v-1450h-250l-807 1192h-4v-1192h-197zM664 -500l116 402h185l-150 -402h-151z" />
<glyph unicode="&#x146;" d="M139 0v971h185v-150h4q35 78 121 126t198 48q70 0 134.5 -21.5t112.5 -66.5t76.5 -115.5t28.5 -166.5v-625h-184v573q0 68 -18.5 116t-49 78t-70.5 43t-83 13q-57 0 -106.5 -18.5t-86 -58t-57 -101t-20.5 -145.5v-500h-185zM418 -500l117 402h184l-150 -402h-151z" />
<glyph unicode="&#x147;" horiz-adv-x="1630" d="M186 0v1450h258l799 -1192h4v1192h197v-1450h-250l-807 1192h-4v-1192h-197zM485 1825h179l159 -197l152 197h186l-229 -295h-217z" />
<glyph unicode="&#x148;" d="M139 0v971h185v-150h4q35 78 121 126t198 48q70 0 134.5 -21.5t112.5 -66.5t76.5 -115.5t28.5 -166.5v-625h-184v573q0 68 -18.5 116t-49 78t-70.5 43t-83 13q-57 0 -106.5 -18.5t-86 -58t-57 -101t-20.5 -145.5v-500h-185zM231 1450h179l159 -197l152 197h186l-229 -295 h-217z" />
<glyph unicode="&#x14c;" horiz-adv-x="1703" d="M96 725q0 162 56.5 301t156 241.5t238.5 161t305 58.5t305 -58.5t238.5 -161t156 -241.5t56.5 -301t-56.5 -301t-156 -241.5t-238.5 -161t-305 -58.5t-305 58.5t-238.5 161t-156 241.5t-56.5 301zM305 725q0 -119 39 -224.5t110.5 -183t172 -124t225.5 -46.5t225.5 46.5 t172 124t110.5 183t39 224.5t-39 224.5t-110.5 183t-172 124t-225.5 46.5t-225.5 -46.5t-172 -124t-110.5 -183t-39 -224.5zM557 1606v135h590v-135h-590z" />
<glyph unicode="&#x14d;" horiz-adv-x="1216" d="M92 485q0 106 40 198.5t109.5 162t164 109.5t202.5 40q109 0 203 -40t163.5 -109.5t109.5 -161.5t40 -199q0 -106 -40 -199t-109.5 -162t-163.5 -109t-203 -40t-203 40t-163.5 109t-109.5 162t-40 199zM289 485q0 -74 22.5 -136t63.5 -106t100.5 -70t132.5 -26 q74 0 133.5 26t100.5 70t63.5 106.5t22.5 135.5q0 74 -22.5 136.5t-63.5 106.5t-100.5 69.5t-133.5 25.5t-133 -25.5t-100 -69.5t-63.5 -106.5t-22.5 -136.5zM313 1229v135h590v-135h-590z" />
<glyph unicode="&#x150;" horiz-adv-x="1703" d="M96 725q0 162 56.5 301t156 241.5t238.5 161t305 58.5t305 -58.5t238.5 -161t156 -241.5t56.5 -301t-56.5 -301t-156 -241.5t-238.5 -161t-305 -58.5t-305 58.5t-238.5 161t-156 241.5t-56.5 301zM305 725q0 -119 39 -224.5t110.5 -183t172 -124t225.5 -46.5t225.5 46.5 t172 124t110.5 183t39 224.5t-39 224.5t-110.5 183t-172 124t-225.5 46.5t-225.5 -46.5t-172 -124t-110.5 -183t-39 -224.5zM512 1532l213 295h260l-305 -295h-168zM858 1532l213 295h260l-305 -295h-168z" />
<glyph unicode="&#x151;" horiz-adv-x="1216" d="M92 485q0 106 40 198.5t109.5 162t164 109.5t202.5 40q109 0 203 -40t163.5 -109.5t109.5 -161.5t40 -199q0 -106 -40 -199t-109.5 -162t-163.5 -109t-203 -40t-203 40t-163.5 109t-109.5 162t-40 199zM268 1155l213 295h260l-305 -295h-168zM289 485q0 -74 22.5 -136 t63.5 -106t100.5 -70t132.5 -26q74 0 133.5 26t100.5 70t63.5 106.5t22.5 135.5q0 74 -22.5 136.5t-63.5 106.5t-100.5 69.5t-133.5 25.5t-133 -25.5t-100 -69.5t-63.5 -106.5t-22.5 -136.5zM614 1155l213 295h260l-305 -295h-168z" />
<glyph unicode="&#x152;" horiz-adv-x="2009" d="M119 725q0 164 57 298t166 229.5t263.5 146.5t350.5 51h910v-184h-602v-432h565v-185h-565v-465h626v-184h-934q-201 0 -356.5 54.5t-263 150.5t-162.5 229t-55 291zM328 725q0 -115 40 -214t116.5 -172t191.5 -114t266 -41h125v1082h-125q-152 0 -266.5 -44t-191 -118 t-116.5 -172t-40 -207z" />
<glyph unicode="&#x153;" horiz-adv-x="1896" d="M80 485q0 111 37 204t103.5 161t158.5 106.5t205 38.5q127 0 223 -45t170 -141q25 33 59.5 65.5t80.5 59.5t106.5 44t136.5 17q104 0 188 -35.5t143.5 -100t92.5 -154t33 -197.5v-90h-736q0 -53 16.5 -104.5t52.5 -91.5t91 -63.5t133 -23.5q88 0 149.5 38t102.5 103 l152 -100q-139 -201 -408 -201q-119 0 -227.5 44t-169.5 145q-18 -27 -48 -59.5t-76 -61.5t-113.5 -48.5t-162.5 -19.5q-117 0 -209 39t-155.5 107.5t-96 162t-32.5 201.5zM276 485q0 -72 19.5 -135t57.5 -111.5t93.5 -76t126.5 -27.5q94 0 157 30t99.5 79t52 112t15.5 129 t-17.5 129.5t-54.5 112.5t-95 79t-140 30q-78 0 -137.5 -28t-98.5 -75t-58.5 -110.5t-19.5 -137.5zM1081 565h539q-2 51 -18.5 102.5t-49 91.5t-82 64.5t-114.5 24.5q-66 0 -117 -27.5t-86 -68.5t-53.5 -91.5t-18.5 -95.5z" />
<glyph unicode="&#x154;" horiz-adv-x="1251" d="M186 0v1450h510q139 0 229.5 -38t142.5 -96.5t72.5 -131t20.5 -140.5q0 -70 -24.5 -134t-70.5 -116.5t-112.5 -88t-148.5 -43.5l412 -662h-246l-369 639h-219v-639h-197zM383 811h258q57 0 113.5 9t100.5 34t70.5 71t26.5 119q0 74 -26.5 120t-70.5 71t-100.5 34 t-113.5 9h-258v-467zM489 1532l213 295h263l-306 -295h-170z" />
<glyph unicode="&#x155;" horiz-adv-x="757" d="M139 0v971h185v-150h4q18 39 49 71t68.5 54.5t82.5 35.5t90 13t82 -12l-8 -199q-23 6 -45 10.5t-45 4.5q-135 0 -206.5 -76t-71.5 -236v-487h-185zM227 1155l213 295h262l-305 -295h-170z" />
<glyph unicode="&#x156;" horiz-adv-x="1251" d="M186 0v1450h510q139 0 229.5 -38t142.5 -96.5t72.5 -131t20.5 -140.5q0 -70 -24.5 -134t-70.5 -116.5t-112.5 -88t-148.5 -43.5l412 -662h-246l-369 639h-219v-639h-197zM383 811h258q57 0 113.5 9t100.5 34t70.5 71t26.5 119q0 74 -26.5 120t-70.5 71t-100.5 34 t-113.5 9h-258v-467zM475 -500l117 402h184l-149 -402h-152z" />
<glyph unicode="&#x157;" horiz-adv-x="757" d="M59 -500l117 402h184l-149 -402h-152zM139 0v971h185v-150h4q18 39 49 71t68.5 54.5t82.5 35.5t90 13t82 -12l-8 -199q-23 6 -45 10.5t-45 4.5q-135 0 -206.5 -76t-71.5 -236v-487h-185z" />
<glyph unicode="&#x158;" horiz-adv-x="1251" d="M186 0v1450h510q139 0 229.5 -38t142.5 -96.5t72.5 -131t20.5 -140.5q0 -70 -24.5 -134t-70.5 -116.5t-112.5 -88t-148.5 -43.5l412 -662h-246l-369 639h-219v-639h-197zM305 1827h178l160 -197l152 197h186l-229 -295h-217zM383 811h258q57 0 113.5 9t100.5 34t70.5 71 t26.5 119q0 74 -26.5 120t-70.5 71t-100.5 34t-113.5 9h-258v-467z" />
<glyph unicode="&#x159;" horiz-adv-x="757" d="M84 1450h178l160 -197l151 197h187l-230 -295h-217zM139 0v971h185v-150h4q18 39 49 71t68.5 54.5t82.5 35.5t90 13t82 -12l-8 -199q-23 6 -45 10.5t-45 4.5q-135 0 -206.5 -76t-71.5 -236v-487h-185z" />
<glyph unicode="&#x15a;" d="M68 164l161 139q53 -80 136.5 -118t171.5 -38q49 0 100 15.5t93 46.5t68.5 76t26.5 104q0 84 -53 128t-132 74t-172 57.5t-172 76.5t-132 132t-53 224q0 63 27.5 135t87 131.5t152.5 99.5t224 40q119 0 227.5 -33t190.5 -133l-160 -145q-37 57 -104.5 92t-153.5 35 q-82 0 -136 -21.5t-87 -55.5t-46.5 -73t-13.5 -72q0 -92 53.5 -141t132.5 -80t172 -55.5t172 -68.5t132 -118.5t53 -205.5q0 -104 -40 -188.5t-107.5 -141.5t-159.5 -88t-197 -31q-139 0 -264 49t-198 152zM420 1530l213 295h262l-305 -295h-170z" />
<glyph unicode="&#x15b;" horiz-adv-x="909" d="M57 147l140 115q45 -45 100 -80t135 -35q35 0 71 7.5t63.5 23t45 39t17.5 53.5q0 41 -25.5 68t-61.5 42t-76 24.5t-71 15.5q-59 14 -112.5 32.5t-94.5 49t-65.5 78t-24.5 116.5q0 76 32 132.5t84 93t118.5 55t134.5 18.5q98 0 188 -36.5t144 -122.5l-144 -109 q-33 41 -81 68.5t-117 27.5q-66 0 -114 -27.5t-48 -80.5q0 -43 27.5 -70t65.5 -43t81 -24.5t74 -14.5q59 -14 111.5 -34.5t90 -53.5t59 -80t21.5 -114q0 -82 -34.5 -140.5t-90 -95.5t-126 -53.5t-142.5 -16.5q-121 0 -212 37t-163 135zM287 1155l213 295h262l-305 -295h-170 z" />
<glyph unicode="&#x15e;" d="M68 164l161 139q53 -80 136.5 -118t171.5 -38q49 0 100 15.5t93 46.5t68.5 76t26.5 104q0 84 -53 128t-132 74t-172 57.5t-172 76.5t-132 132t-53 224q0 63 27.5 135t87 131.5t152.5 99.5t224 40q119 0 227.5 -33t190.5 -133l-160 -145q-37 57 -104.5 92t-153.5 35 q-82 0 -136 -21.5t-87 -55.5t-46.5 -73t-13.5 -72q0 -92 53.5 -141t132.5 -80t172 -55.5t172 -68.5t132 -118.5t53 -205.5q0 -92 -30.5 -168t-86 -132.5t-130 -92t-162.5 -48.5l-68 -96h59q35 0 69 -8t60.5 -26.5t43 -46t16.5 -66.5q0 -55 -23.5 -92t-60.5 -59.5t-83 -33 t-89 -10.5q-55 0 -109.5 11.5t-105.5 35.5l39 82q76 -31 159 -31q18 0 40 4.5t41.5 13.5t31.5 25.5t12 42.5q0 39 -19.5 57.5t-48 23.5t-62 0t-62.5 -13l-43 37l98 141q-137 2 -259 50t-193 151z" />
<glyph unicode="&#x15f;" horiz-adv-x="909" d="M57 147l140 115q45 -45 100 -80t135 -35q35 0 71 7.5t63.5 23t45 39t17.5 53.5q0 41 -25.5 68t-61.5 42t-76 24.5t-71 15.5q-59 14 -112.5 32.5t-94.5 49t-65.5 78t-24.5 116.5q0 76 32 132.5t84 93t118.5 55t134.5 18.5q98 0 188 -36.5t144 -122.5l-144 -109 q-33 41 -81 68.5t-117 27.5q-66 0 -114 -27.5t-48 -80.5q0 -43 27.5 -70t65.5 -43t81 -24.5t74 -14.5q59 -14 111.5 -34.5t90 -53.5t59 -80t21.5 -114q0 -70 -25.5 -122.5t-67.5 -89t-97 -58t-117 -29.5l-76 -107h60q35 0 68.5 -8t60 -26.5t43 -46t16.5 -66.5 q0 -55 -23.5 -92t-60.5 -59.5t-83 -33t-89 -10.5q-55 0 -109.5 11.5t-105.5 35.5l39 82q76 -31 160 -31q18 0 39.5 4.5t41 13.5t32 25.5t12.5 42.5q0 39 -19.5 57.5t-48.5 23.5t-62.5 0t-62.5 -13l-43 37l107 153q-113 4 -200 40t-157 132z" />
<glyph unicode="&#x160;" d="M68 164l161 139q53 -80 136.5 -118t171.5 -38q49 0 100 15.5t93 46.5t68.5 76t26.5 104q0 84 -53 128t-132 74t-172 57.5t-172 76.5t-132 132t-53 224q0 63 27.5 135t87 131.5t152.5 99.5t224 40q119 0 227.5 -33t190.5 -133l-160 -145q-37 57 -104.5 92t-153.5 35 q-82 0 -136 -21.5t-87 -55.5t-46.5 -73t-13.5 -72q0 -92 53.5 -141t132.5 -80t172 -55.5t172 -68.5t132 -118.5t53 -205.5q0 -104 -40 -188.5t-107.5 -141.5t-159.5 -88t-197 -31q-139 0 -264 49t-198 152zM231 1827h179l159 -197l152 197h186l-229 -295h-217z" />
<glyph unicode="&#x161;" horiz-adv-x="909" d="M57 147l140 115q45 -45 100 -80t135 -35q35 0 71 7.5t63.5 23t45 39t17.5 53.5q0 41 -25.5 68t-61.5 42t-76 24.5t-71 15.5q-59 14 -112.5 32.5t-94.5 49t-65.5 78t-24.5 116.5q0 76 32 132.5t84 93t118.5 55t134.5 18.5q98 0 188 -36.5t144 -122.5l-144 -109 q-33 41 -81 68.5t-117 27.5q-66 0 -114 -27.5t-48 -80.5q0 -43 27.5 -70t65.5 -43t81 -24.5t74 -14.5q59 -14 111.5 -34.5t90 -53.5t59 -80t21.5 -114q0 -82 -34.5 -140.5t-90 -95.5t-126 -53.5t-142.5 -16.5q-121 0 -212 37t-163 135zM117 1450h178l160 -197l151 197h187 l-230 -295h-217z" />
<glyph unicode="&#x162;" horiz-adv-x="1175" d="M23 1266v184h1130v-184h-467v-1266h-197v1266h-466zM412 -500l116 402h185l-150 -402h-151z" />
<glyph unicode="&#x163;" horiz-adv-x="757" d="M-2 811v160h213v272h184v-272h264v-160h-264v-440q0 -41 2 -81t15.5 -72t41 -51.5t81.5 -19.5q33 0 67.5 6.5t63.5 22.5v-168q-33 -18 -85.5 -25.5t-80.5 -7.5q-106 0 -165 30t-86.5 77t-32.5 105.5t-5 117.5v506h-213zM227 -500l117 402h184l-149 -402h-152z" />
<glyph unicode="&#x164;" horiz-adv-x="1175" d="M23 1266v184h1130v-184h-467v-1266h-197v1266h-466zM250 1827h178l160 -197l151 197h187l-230 -295h-217z" />
<glyph unicode="&#x165;" horiz-adv-x="757" d="M-2 811v160h213v272h184v-272h264v-160h-264v-440q0 -41 2 -81t15.5 -72t41 -51.5t81.5 -19.5q33 0 67.5 6.5t63.5 22.5v-168q-33 -18 -85.5 -25.5t-80.5 -7.5q-106 0 -165 30t-86.5 77t-32.5 105.5t-5 117.5v506h-213zM457 1051l116 401h185l-150 -401h-151z" />
<glyph unicode="&#x168;" horiz-adv-x="1441" d="M160 530v920h196v-889q0 -68 18.5 -140.5t61.5 -134t112.5 -100.5t172.5 -39q102 0 172 39t113 100.5t61 134.5t18 140v889h197v-920q0 -127 -43 -230t-119 -179t-178 -117t-221 -41t-221.5 41t-178 117t-118.5 179t-43 230zM387 1575q4 39 19.5 80t42 72.5t62.5 52 t83 20.5q31 0 59.5 -8t69.5 -27q10 -4 20.5 -8t20.5 -8q29 -14 57.5 -25.5t52.5 -11.5q41 0 64 24.5t33 63.5h100q-6 -41 -19.5 -79t-35.5 -68q-23 -29 -56.5 -50.5t-82.5 -21.5q-41 0 -77 12.5t-83 30.5q-41 16 -74 30.5t-63 14.5q-12 0 -25 -6q-31 -8 -47 -31.5t-27 -56.5 h-94z" />
<glyph unicode="&#x169;" d="M139 346v625h185v-574q0 -68 18 -116t49 -77.5t71 -43t83 -13.5q57 0 106 18.5t86 58.5t57.5 101.5t20.5 145.5v500h184v-971h-184v150h-4q-35 -78 -121 -126.5t-198 -48.5q-72 0 -135.5 21.5t-111.5 67t-77 116t-29 166.5zM246 1184q4 39 18.5 77.5t40.5 69.5 q27 29 60.5 50.5t78.5 21.5q31 0 61 -9.5t66 -25.5q10 -4 20.5 -8t20.5 -8q29 -12 55.5 -22.5t51.5 -10.5q41 0 61.5 23.5t30.5 60.5h98q-6 -39 -18 -77t-34.5 -67.5t-55.5 -48t-82 -20.5q-37 0 -72 11t-82 30q-41 16 -71.5 29.5t-61.5 13.5q-10 0 -22 -4q-31 -8 -47.5 -32 t-26.5 -54h-90z" />
<glyph unicode="&#x16a;" horiz-adv-x="1441" d="M160 530v920h196v-889q0 -68 18.5 -140.5t61.5 -134t112.5 -100.5t172.5 -39q102 0 172 39t113 100.5t61 134.5t18 140v889h197v-920q0 -127 -43 -230t-119 -179t-178 -117t-221 -41t-221.5 41t-178 117t-118.5 179t-43 230zM426 1606v135h590v-135h-590z" />
<glyph unicode="&#x16b;" d="M139 346v625h185v-574q0 -68 18 -116t49 -77.5t71 -43t83 -13.5q57 0 106 18.5t86 58.5t57.5 101.5t20.5 145.5v500h184v-971h-184v150h-4q-35 -78 -121 -126.5t-198 -48.5q-72 0 -135.5 21.5t-111.5 67t-77 116t-29 166.5zM274 1229v135h590v-135h-590z" />
<glyph unicode="&#x16e;" horiz-adv-x="1441" d="M160 530v920h196v-889q0 -68 18.5 -140.5t61.5 -134t112.5 -100.5t172.5 -39q102 0 172 39t113 100.5t61 134.5t18 140v889h197v-920q0 -127 -43 -230t-119 -179t-178 -117t-221 -41t-221.5 41t-178 117t-118.5 179t-43 230zM510 1694q0 43 17.5 79.5t46 64.5t66.5 43 t79 15q43 0 81 -15t66.5 -43t45 -63.5t16.5 -78.5t-16.5 -80t-45 -64.5t-66.5 -43t-81 -15.5q-41 0 -79 15.5t-66.5 43t-46 63.5t-17.5 79zM596 1694q0 -49 38 -82t85 -33t85 33t38 82q0 51 -37 83.5t-86 32.5t-86 -32.5t-37 -83.5z" />
<glyph unicode="&#x16f;" d="M139 346v625h185v-574q0 -68 18 -116t49 -77.5t71 -43t83 -13.5q57 0 106 18.5t86 58.5t57.5 101.5t20.5 145.5v500h184v-971h-184v150h-4q-35 -78 -121 -126.5t-198 -48.5q-72 0 -135.5 21.5t-111.5 67t-77 116t-29 166.5zM358 1333q0 43 17.5 80t46.5 64.5t66.5 43 t78.5 15.5q43 0 81 -15.5t66.5 -43t45 -63.5t16.5 -79t-16.5 -79.5t-45 -64.5t-66.5 -43t-81 -15q-41 0 -78.5 15t-66.5 43t-46.5 63.5t-17.5 78.5zM444 1333q0 -49 38 -81.5t85 -32.5t85 32.5t38 81.5q0 51 -37 84t-86 33t-86 -33t-37 -84z" />
<glyph unicode="&#x170;" horiz-adv-x="1441" d="M160 530v920h196v-889q0 -68 18.5 -140.5t61.5 -134t112.5 -100.5t172.5 -39q102 0 172 39t113 100.5t61 134.5t18 140v889h197v-920q0 -127 -43 -230t-119 -179t-178 -117t-221 -41t-221.5 41t-178 117t-118.5 179t-43 230zM389 1532l213 295h260l-305 -295h-168z M735 1532l213 295h260l-305 -295h-168z" />
<glyph unicode="&#x171;" d="M139 346v625h185v-574q0 -68 18 -116t49 -77.5t71 -43t83 -13.5q57 0 106 18.5t86 58.5t57.5 101.5t20.5 145.5v500h184v-971h-184v150h-4q-35 -78 -121 -126.5t-198 -48.5q-72 0 -135.5 21.5t-111.5 67t-77 116t-29 166.5zM236 1155l213 295h260l-306 -295h-167z M582 1155l213 295h260l-305 -295h-168z" />
<glyph unicode="&#x172;" horiz-adv-x="1441" d="M160 530v920h196v-889q0 -68 18.5 -140.5t61.5 -134t112.5 -100.5t172.5 -39q102 0 172 39t113 100.5t61 134.5t18 140v889h197v-920q0 -193 -94 -331t-248 -197q-23 -23 -47.5 -52.5t-44 -62t-32.5 -65.5t-13 -64q4 -49 33.5 -68.5t66.5 -19.5q27 0 51.5 11.5t44.5 27.5 l45 -90q-41 -37 -90 -54.5t-96 -17.5q-80 0 -139.5 44t-63.5 130q0 66 39 130.5t90 115.5q-16 -2 -31.5 -3t-31.5 -1q-119 0 -221.5 41t-178 117t-118.5 179t-43 230z" />
<glyph unicode="&#x173;" d="M139 346v625h185v-574q0 -68 18 -116t49 -77.5t71 -43t83 -13.5q57 0 106 18.5t86 58.5t57.5 101.5t20.5 145.5v500h184v-971h-34q-23 -23 -45.5 -52.5t-43 -62t-33 -65.5t-12.5 -62q4 -49 34 -68.5t67 -19.5q27 0 51.5 11.5t44.5 27.5l45 -90q-41 -37 -90 -54.5 t-96 -17.5q-80 0 -139.5 44t-63.5 130q0 39 14.5 77t38 75t52 68.5t59.5 58.5h-33v150h-4q-35 -78 -121 -126.5t-198 -48.5q-72 0 -135.5 21.5t-111.5 67t-77 116t-29 166.5z" />
<glyph unicode="&#x178;" horiz-adv-x="1253" d="M-20 1450h251l396 -637l407 637h240l-549 -832v-618h-197v618zM291 1722q0 51 40 84t87 33t87 -32.5t40 -84.5q0 -55 -36 -92t-91 -37t-91 37t-36 92zM709 1722q0 51 40 84t87 33t87 -32.5t40 -84.5q0 -55 -36 -92t-91 -37t-91 37t-36 92z" />
<glyph unicode="&#x179;" horiz-adv-x="1214" d="M66 0v184l825 1082h-801v184h1047v-184l-822 -1082h834v-184h-1083zM444 1532l213 295h263l-306 -295h-170z" />
<glyph unicode="&#x17a;" horiz-adv-x="948" d="M72 0v166l551 645h-533v160h758v-164l-555 -647h584v-160h-805zM336 1155l213 295h262l-305 -295h-170z" />
<glyph unicode="&#x17b;" horiz-adv-x="1214" d="M66 0v184l825 1082h-801v184h1047v-184l-822 -1082h834v-184h-1083zM479 1663q0 51 40 84t87 33t87 -33t40 -84q0 -55 -36 -92t-91 -37t-91 37t-36 92z" />
<glyph unicode="&#x17c;" horiz-adv-x="948" d="M72 0v166l551 645h-533v160h758v-164l-555 -647h584v-160h-805zM346 1284q0 51 40 84t87 33t87 -33t40 -84q0 -55 -36 -92t-91 -37t-91 37t-36 92z" />
<glyph unicode="&#x17d;" horiz-adv-x="1214" d="M66 0v184l825 1082h-801v184h1047v-184l-822 -1082h834v-184h-1083zM270 1827h179l159 -197l152 197h186l-229 -295h-217z" />
<glyph unicode="&#x17e;" horiz-adv-x="948" d="M72 0v166l551 645h-533v160h758v-164l-555 -647h584v-160h-805zM137 1450h178l160 -197l152 197h186l-229 -295h-217z" />
<glyph unicode="&#x192;" d="M-25 -244l78 146q63 -25 111 -25q45 0 72.5 17.5t45 44t25.5 59.5t15 61l129 664h-222v147h250l56 289q29 141 112.5 228.5t200.5 87.5q66 0 129 -11.5t110 -38.5l-81 -153q-23 16 -48.5 23.5t-70.5 7.5q-53 0 -103.5 -45.5t-70.5 -159.5l-39 -228h246v-147h-275 l-149 -754q-23 -121 -110 -192.5t-212 -71.5q-59 0 -107.5 14.5t-91.5 36.5z" />
<glyph unicode="&#x1a0;" horiz-adv-x="1703" d="M96 725q0 162 56.5 301t156 241.5t238.5 161t305 58.5q129 0 244 -37h190q92 0 127 49t35 119q0 33 -5 66.5t-16 62.5h154q18 -61 18 -133q0 -70 -23.5 -136.5t-82.5 -109.5q-27 -20 -62.5 -34.5t-84.5 -18.5q123 -104 192.5 -256t69.5 -334q0 -162 -56.5 -301 t-156 -241.5t-238.5 -161t-305 -58.5t-305 58.5t-238.5 161t-156 241.5t-56.5 301zM305 725q0 -119 39 -224.5t110.5 -183t172 -124t225.5 -46.5t225.5 46.5t172 124t110.5 183t39 224.5t-39 224.5t-110.5 183t-172 124t-225.5 46.5t-225.5 -46.5t-172 -124t-110.5 -183 t-39 -224.5z" />
<glyph unicode="&#x1a1;" horiz-adv-x="1216" d="M92 485q0 106 40 198.5t109.5 162t164 109.5t202.5 40q82 0 160 -24h125q92 0 127 49t35 119q0 33 -5.5 66.5t-15.5 62.5h154q18 -59 18 -133q0 -70 -24.5 -136.5t-85.5 -111.5q-45 -35 -115 -47q68 -70 105.5 -160t37.5 -195q0 -106 -40 -199t-109.5 -162t-163.5 -109 t-203 -40t-203 40t-163.5 109t-109.5 162t-40 199zM289 485q0 -74 22.5 -136t63.5 -106t100.5 -70t132.5 -26q74 0 133.5 26t100.5 70t63.5 106.5t22.5 135.5q0 74 -22.5 136.5t-63.5 106.5t-100.5 69.5t-133.5 25.5t-133 -25.5t-100 -69.5t-63.5 -106.5t-22.5 -136.5z" />
<glyph unicode="&#x1af;" horiz-adv-x="1441" d="M160 530v920h196v-889q0 -68 18.5 -140.5t61.5 -134t112.5 -100.5t172.5 -39q102 0 172 39t113 100.5t61 134.5t18 140v889h197q88 0 123 49t35 119q0 33 -6.5 66.5t-16.5 62.5h154q18 -61 18 -135q0 -47 -11 -94.5t-38 -87t-72 -69.5t-110 -40q-35 -10 -76 -10v-781 q0 -127 -43 -230t-119 -179t-178 -117t-221 -41t-221.5 41t-178 117t-118.5 179t-43 230z" />
<glyph unicode="&#x1b0;" horiz-adv-x="1173" d="M139 346v625h185v-574q0 -68 18 -116t49 -77.5t71 -43t83 -13.5q57 0 106 18.5t86 58.5t57.5 101.5t20.5 145.5v500l162 -2q92 0 127 50t35 120q0 31 -5.5 64.5t-15.5 62.5h154q10 -31 13 -65t3 -71q0 -53 -14 -105t-47 -95t-88.5 -71t-137.5 -30l-2 -829h-184v150h-4 q-35 -78 -121 -126.5t-198 -48.5q-72 0 -135.5 21.5t-111.5 67t-77 116t-29 166.5z" />
<glyph unicode="&#x218;" d="M68 164l161 139q53 -80 136.5 -118t171.5 -38q49 0 100 15.5t93 46.5t68.5 76t26.5 104q0 84 -53 128t-132 74t-172 57.5t-172 76.5t-132 132t-53 224q0 63 27.5 135t87 131.5t152.5 99.5t224 40q119 0 227.5 -33t190.5 -133l-160 -145q-37 57 -104.5 92t-153.5 35 q-82 0 -136 -21.5t-87 -55.5t-46.5 -73t-13.5 -72q0 -92 53.5 -141t132.5 -80t172 -55.5t172 -68.5t132 -118.5t53 -205.5q0 -104 -40 -188.5t-107.5 -141.5t-159.5 -88t-197 -31q-139 0 -264 49t-198 152zM381 -500l117 402h184l-150 -402h-151z" />
<glyph unicode="&#x219;" horiz-adv-x="909" d="M57 147l140 115q45 -45 100 -80t135 -35q35 0 71 7.5t63.5 23t45 39t17.5 53.5q0 41 -25.5 68t-61.5 42t-76 24.5t-71 15.5q-59 14 -112.5 32.5t-94.5 49t-65.5 78t-24.5 116.5q0 76 32 132.5t84 93t118.5 55t134.5 18.5q98 0 188 -36.5t144 -122.5l-144 -109 q-33 41 -81 68.5t-117 27.5q-66 0 -114 -27.5t-48 -80.5q0 -43 27.5 -70t65.5 -43t81 -24.5t74 -14.5q59 -14 111.5 -34.5t90 -53.5t59 -80t21.5 -114q0 -82 -34.5 -140.5t-90 -95.5t-126 -53.5t-142.5 -16.5q-121 0 -212 37t-163 135zM272 -500l117 402h184l-149 -402h-152 z" />
<glyph unicode="&#x2c6;" horiz-adv-x="491" d="M-92 1155l229 295h217l230 -295h-187l-151 197l-152 -197h-186z" />
<glyph unicode="&#x2c7;" horiz-adv-x="491" d="M-92 1450h178l160 -197l151 197h187l-230 -295h-217z" />
<glyph unicode="&#x2c9;" horiz-adv-x="491" d="M-49 1229v135h590v-135h-590z" />
<glyph unicode="&#x2d8;" horiz-adv-x="491" d="M-76 1438h113q14 -78 74.5 -113t136.5 -35t136 35t75 113h108q-10 -141 -98 -212t-223 -71t-223.5 70.5t-98.5 212.5z" />
<glyph unicode="&#x2d9;" horiz-adv-x="491" d="M119 1346q0 51 40 83.5t87 32.5t87 -32.5t40 -83.5q0 -55 -36 -92t-91 -37t-91 36.5t-36 92.5z" />
<glyph unicode="&#x2da;" horiz-adv-x="491" d="M37 1333q0 43 17.5 80t46 64.5t66.5 43t79 15.5q43 0 81 -15.5t66.5 -43t45 -63.5t16.5 -79t-16.5 -79.5t-45 -64.5t-66.5 -43t-81 -15q-41 0 -79 15t-66.5 43t-46 63.5t-17.5 78.5zM123 1333q0 -49 38 -81.5t85 -32.5t85 32.5t38 81.5q0 51 -37 84t-86 33t-86 -33 t-37 -84z" />
<glyph unicode="&#x2db;" horiz-adv-x="491" d="M51 -279q0 43 18.5 86t47 83t62.5 75t67 60h110q-23 -23 -50 -54.5t-51 -67.5t-40 -74t-16 -71q4 -49 33.5 -68.5t66.5 -19.5q27 0 51.5 11.5t44.5 27.5l45 -90q-41 -37 -90 -54.5t-96 -17.5q-80 0 -139.5 44t-63.5 130z" />
<glyph unicode="&#x2dc;" horiz-adv-x="491" d="M-98 1180q6 39 22.5 77.5t42 68.5t61 48.5t81.5 18.5q47 0 89 -15.5t83 -31.5q31 -12 54 -23.5t56 -11.5q41 0 65.5 26.5t35.5 63.5h98q-6 -39 -20.5 -77t-37 -68.5t-56.5 -49t-79 -18.5q-43 0 -85 13t-81 30q-31 12 -65.5 25.5t-69.5 13.5q-39 0 -62.5 -28t-33.5 -62 h-98z" />
<glyph unicode="&#x2dd;" horiz-adv-x="491" d="M-102 1155l213 295h260l-305 -295h-168zM244 1155l213 295h260l-305 -295h-168z" />
<glyph unicode="&#x384;" horiz-adv-x="423" d="M152 1139l77 311h197l-141 -311h-133z" />
<glyph unicode="&#x385;" horiz-adv-x="643" d="M-90 1327q0 49 36 86t91 37t92 -35t37 -88t-37 -88t-92 -35t-91 36t-36 87zM186 1147l80 311h195l-142 -311h-133zM477 1327q0 49 37 86t90 37q55 0 92 -35t37 -88t-37 -88t-92 -35q-53 0 -90 36t-37 87z" />
<glyph unicode="&#x386;" horiz-adv-x="1441" d="M2 0l639 1450h178l621 -1450h-230l-145 358h-690l-144 -358h-229zM231 1139l78 311h201q-8 -18 -28.5 -62.5t-43 -93.5t-43 -93t-28.5 -62h-136zM444 530h549l-270 666h-4z" />
<glyph unicode="&#x388;" horiz-adv-x="1302" d="M-102 1139l77 311h199l-139 -311h-137zM238 0v1450h936v-184h-740v-432h688v-185h-688v-465h776v-184h-972z" />
<glyph unicode="&#x389;" horiz-adv-x="1568" d="M-102 1139l77 311h199l-139 -311h-137zM238 0v1450h196v-602h752v602h196v-1450h-196v664h-752v-664h-196z" />
<glyph unicode="&#x38a;" horiz-adv-x="620" d="M-102 1139l77 311h199l-139 -311h-137zM238 0v1450h196v-1450h-196z" />
<glyph unicode="&#x38c;" horiz-adv-x="1703" d="M0 1139l78 311h198l-139 -311h-137zM96 725q0 162 56.5 301t156 241.5t238.5 161t305 58.5t305 -58.5t238.5 -161t156 -241.5t56.5 -301t-56.5 -301t-156 -241.5t-238.5 -161t-305 -58.5t-305 58.5t-238.5 161t-156 241.5t-56.5 301zM305 725q0 -119 39 -224.5 t110.5 -183t172 -124t225.5 -46.5t225.5 46.5t172 124t110.5 183t39 224.5t-39 224.5t-110.5 183t-172 124t-225.5 46.5t-225.5 -46.5t-172 -124t-110.5 -183t-39 -224.5z" />
<glyph unicode="&#x38e;" horiz-adv-x="1474" d="M-102 1139l77 311h199l-139 -311h-137zM201 1450h252l395 -637l407 637h240l-549 -832v-618h-196v618z" />
<glyph unicode="&#x38f;" horiz-adv-x="1693" d="M-16 1139l77 311h199l-139 -311h-137zM96 795q0 143 58.5 269t160 220t238.5 148.5t295 54.5q156 0 293 -54.5t238.5 -148.5t159.5 -220t58 -269q0 -109 -27.5 -198t-70.5 -164t-97 -136t-108 -113h285v-184h-578v178q84 55 155 123t122 145.5t79.5 164.5t28.5 184 q0 104 -41.5 196t-115.5 161t-172.5 108.5t-208.5 39.5q-113 0 -212 -39.5t-173 -108.5t-117 -161t-43 -196q0 -96 28.5 -183.5t80 -165t122 -145.5t154.5 -123v-178h-575v184h282q-55 53 -109.5 112.5t-96.5 132.5t-67.5 162t-25.5 204z" />
<glyph unicode="&#x390;" horiz-adv-x="491" d="M-164 1319q0 49 37 86t90 37q55 0 92 -35t37 -88t-37 -88t-92 -35q-53 0 -90 36t-37 87zM113 1139l80 311h196l-141 -311h-135zM139 195v776h185v-682q0 -74 16 -109t74 -37v-163q-53 -6 -102.5 2t-88.5 33.5t-61.5 69.5t-22.5 110zM406 1319q0 49 35.5 86t90.5 37 q53 0 91.5 -35t38.5 -88t-38 -88t-92 -35q-55 0 -90.5 36t-35.5 87z" />
<glyph unicode="&#x391;" horiz-adv-x="1441" d="M2 0l639 1450h178l621 -1450h-230l-145 358h-690l-144 -358h-229zM444 530h549l-270 666h-4z" />
<glyph unicode="&#x392;" horiz-adv-x="1290" d="M186 0v1450h504q94 0 175 -22.5t139.5 -66.5t92 -112.5t33.5 -161.5q0 -125 -69.5 -203.5t-179.5 -115.5v-4q66 -4 123 -34t99 -78t66.5 -111.5t24.5 -137.5q0 -98 -40 -172.5t-109.5 -126t-161.5 -78t-199 -26.5h-498zM383 172h289q45 0 99 9t101.5 37t80 75t32.5 125 q0 129 -84 193.5t-227 64.5h-291v-504zM383 848h268q55 0 104.5 11t86.5 38t58.5 68t21.5 100q0 86 -55.5 149.5t-174.5 63.5h-309v-430z" />
<glyph unicode="&#x393;" horiz-adv-x="972" d="M186 0v1450h764v-184h-567v-1266h-197z" />
<glyph unicode="&#x394;" horiz-adv-x="1400" d="M25 0v162l587 1290h187l577 -1290v-162h-1351zM246 184l899 2l-449 1033z" />
<glyph unicode="&#x395;" horiz-adv-x="1251" d="M186 0v1450h936v-184h-739v-432h688v-185h-688v-465h776v-184h-973z" />
<glyph unicode="&#x396;" horiz-adv-x="1214" d="M66 0v184l825 1082h-801v184h1047v-184l-822 -1082h834v-184h-1083z" />
<glyph unicode="&#x397;" horiz-adv-x="1517" d="M186 0v1450h197v-602h752v602h196v-1450h-196v664h-752v-664h-197z" />
<glyph unicode="&#x398;" horiz-adv-x="1703" d="M96 725q0 162 56.5 301t156 241.5t238.5 161t305 58.5t305 -58.5t238.5 -161t156 -241.5t56.5 -301t-56.5 -301t-156 -241.5t-238.5 -161t-305 -58.5t-305 58.5t-238.5 161t-156 241.5t-56.5 301zM305 725q0 -119 39 -224.5t110.5 -183t172 -124t225.5 -46.5t225.5 46.5 t172 124t110.5 183t39 224.5t-39 224.5t-110.5 183t-172 124t-225.5 46.5t-225.5 -46.5t-172 -124t-110.5 -183t-39 -224.5zM442 647v184h815v-184h-815z" />
<glyph unicode="&#x399;" horiz-adv-x="569" d="M186 0v1450h197v-1450h-197z" />
<glyph unicode="&#x39a;" horiz-adv-x="1327" d="M186 0v1450h197v-627h16l641 627h275l-701 -670l748 -780h-287l-676 725h-16v-725h-197z" />
<glyph unicode="&#x39b;" horiz-adv-x="1441" d="M2 0l639 1450h178l621 -1450h-230l-487 1196h-4l-488 -1196h-229z" />
<glyph unicode="&#x39c;" horiz-adv-x="1855" d="M172 0v1450h293l461 -1098h8l457 1098h292v-1450h-196v1192h-4l-490 -1192h-131l-489 1192h-4v-1192h-197z" />
<glyph unicode="&#x39d;" horiz-adv-x="1630" d="M186 0v1450h258l799 -1192h4v1192h197v-1450h-250l-807 1192h-4v-1192h-197z" />
<glyph unicode="&#x39e;" horiz-adv-x="1261" d="M92 0v184h1077v-184h-1077zM119 1266v184h1024v-184h-1024zM168 649v185h928v-185h-928z" />
<glyph unicode="&#x39f;" horiz-adv-x="1703" d="M96 725q0 162 56.5 301t156 241.5t238.5 161t305 58.5t305 -58.5t238.5 -161t156 -241.5t56.5 -301t-56.5 -301t-156 -241.5t-238.5 -161t-305 -58.5t-305 58.5t-238.5 161t-156 241.5t-56.5 301zM305 725q0 -119 39 -224.5t110.5 -183t172 -124t225.5 -46.5t225.5 46.5 t172 124t110.5 183t39 224.5t-39 224.5t-110.5 183t-172 124t-225.5 46.5t-225.5 -46.5t-172 -124t-110.5 -183t-39 -224.5z" />
<glyph unicode="&#x3a0;" horiz-adv-x="1517" d="M186 0v1450h1145v-1450h-196v1266h-752v-1266h-197z" />
<glyph unicode="&#x3a1;" horiz-adv-x="1214" d="M186 0v1450h510q139 0 229.5 -38t142.5 -96.5t72.5 -131t20.5 -140.5t-20.5 -140.5t-72.5 -130.5t-142 -96t-230 -38h-313v-639h-197zM383 811h258q57 0 113.5 9t100.5 34t70.5 71t26.5 119q0 74 -26.5 120t-70.5 71t-100.5 34t-113.5 9h-258v-467z" />
<glyph unicode="&#x3a3;" horiz-adv-x="1202" d="M92 0v166l518 579q-123 135 -245.5 270.5t-245.5 270.5v164h966v-184h-686q119 -129 236 -261.5t237 -261.5l-501 -559h739v-184h-1018z" />
<glyph unicode="&#x3a4;" horiz-adv-x="1175" d="M23 1266v184h1130v-184h-467v-1266h-197v1266h-466z" />
<glyph unicode="&#x3a5;" horiz-adv-x="1253" d="M-20 1450h251l396 -637l407 637h240l-549 -832v-618h-197v618z" />
<glyph unicode="&#x3a6;" horiz-adv-x="1777" d="M96 725q0 145 53.5 263t146.5 203t220 135t275 63v106h196v-106q147 -12 274.5 -62.5t220.5 -135.5t146 -203t53 -263t-53 -263t-146 -203t-220 -135t-275 -63v-108h-196v108q-147 12 -274.5 62.5t-220.5 135.5t-146.5 203t-53.5 263zM299 725q0 -98 36 -181 t100.5 -144.5t154.5 -100.5t201 -51v954q-111 -12 -201 -51t-154.5 -100.5t-100.5 -144.5t-36 -181zM987 248q111 12 201 51t154.5 100.5t100.5 144.5t36 181t-36 181t-100.5 144.5t-154.5 100.5t-201 51v-954z" />
<glyph unicode="&#x3a7;" horiz-adv-x="1327" d="M-4 0l526 762l-487 688h252l377 -557l372 557h246l-483 -686l532 -764h-258l-416 629l-417 -629h-244z" />
<glyph unicode="&#x3a8;" horiz-adv-x="1564" d="M133 877v573h197v-545q0 -96 24.5 -162.5t69.5 -110.5t110.5 -67.5t147.5 -32.5v918h197v-918q76 8 140 35t112.5 76t76 125t27.5 180v502h197v-522q0 -137 -38 -241.5t-110 -177.5t-174 -113t-231 -50v-346h-197v346q-106 12 -205.5 46t-175.5 96.5t-122 157.5t-46 231z " />
<glyph unicode="&#x3a9;" horiz-adv-x="1693" d="M96 795q0 143 58.5 269t160 220t238.5 148.5t295 54.5q156 0 293 -54.5t238.5 -148.5t159.5 -220t58 -269q0 -109 -27.5 -198t-70.5 -164t-97 -136t-108 -113h285v-184h-578v178q84 55 155 123t122 145.5t79.5 164.5t28.5 184q0 104 -41.5 196t-115.5 161t-172.5 108.5 t-208.5 39.5q-113 0 -212 -39.5t-173 -108.5t-117 -161t-43 -196q0 -96 28.5 -183.5t80 -165t122 -145.5t154.5 -123v-178h-575v184h282q-55 53 -109.5 112.5t-96.5 132.5t-67.5 162t-25.5 204z" />
<glyph unicode="&#x3aa;" horiz-adv-x="569" d="M-51 1722q0 51 40 84t87 33t87 -32.5t40 -84.5q0 -55 -36 -92t-91 -37t-91 37t-36 92zM186 0v1450h197v-1450h-197zM367 1722q0 51 40 84t87 33t87 -32.5t40 -84.5q0 -55 -36 -92t-91 -37t-91 37t-36 92z" />
<glyph unicode="&#x3ab;" horiz-adv-x="1253" d="M-20 1450h251l396 -637l407 637h240l-549 -832v-618h-197v618zM291 1722q0 51 40 84t87 33t87 -32.5t40 -84.5q0 -55 -36 -92t-91 -37t-91 37t-36 92zM709 1722q0 51 40 84t87 33t87 -32.5t40 -84.5q0 -55 -36 -92t-91 -37t-91 37t-36 92z" />
<glyph unicode="&#x3ac;" horiz-adv-x="1251" d="M92 485q0 109 35 202t99.5 162t155.5 107.5t204 38.5q104 0 196 -44t142 -120h4v140h184v-680q0 -74 16.5 -110t73.5 -38v-166q-49 -6 -94 1.5t-82 27t-62.5 55.5t-33.5 89q-55 -86 -150.5 -130.5t-193.5 -44.5q-113 0 -204 39t-155.5 109t-99.5 162t-35 200zM289 485 q0 -74 22.5 -136t63.5 -106t100 -70t133 -26t133.5 26t100.5 70t63.5 106.5t22.5 135.5q0 74 -22.5 136.5t-63.5 106.5t-100.5 69.5t-133.5 25.5t-133 -25.5t-100 -69.5t-63.5 -106.5t-22.5 -136.5zM508 1139l80 311h194l-141 -311h-133z" />
<glyph unicode="&#x3ad;" horiz-adv-x="897" d="M84 281q0 86 47 143t125 82q-78 35 -111.5 91t-33.5 116q0 70 30.5 122t80.5 86.5t117 53t140 18.5q117 0 213 -40t156 -126l-143 -114q-47 66 -103.5 93.5t-124.5 27.5q-78 0 -127 -33t-49 -99t51 -95t144 -29h98v-158h-96q-41 0 -80 -5t-70 -20.5t-49 -41t-18 -68.5 q0 -59 52 -101.5t146 -42.5q66 0 141.5 34t122.5 99l140 -116q-72 -96 -177.5 -139.5t-228.5 -43.5q-82 0 -153.5 19.5t-125 58.5t-84 96.5t-30.5 131.5zM414 1139l80 311h194l-141 -311h-133z" />
<glyph unicode="&#x3ae;" d="M139 0v971h185v-150h4q35 78 121 126t198 48q70 0 134.5 -21.5t112.5 -66.5t76.5 -115.5t28.5 -166.5v-1203h-184v1151q0 68 -18.5 116t-49 78t-70.5 43t-83 13q-57 0 -106.5 -18.5t-86 -58t-57 -101t-20.5 -145.5v-500h-185zM487 1139l80 311h195l-141 -311h-134z" />
<glyph unicode="&#x3af;" horiz-adv-x="491" d="M139 195v776h185v-682q0 -74 16 -109t74 -37v-163q-53 -6 -102.5 2t-88.5 33.5t-61.5 69.5t-22.5 110zM162 1139l80 311h194l-141 -311h-133z" />
<glyph unicode="&#x3b0;" horiz-adv-x="1146" d="M139 395v576h185v-531q0 -70 20.5 -124t54 -92t76.5 -57.5t90 -19.5t91 19.5t78 57.5t54.5 92.5t20.5 123.5v531h184v-576q0 -102 -34.5 -180t-93 -131t-136.5 -81t-164 -28t-163.5 28t-136 81t-92.5 131t-34 180zM154 1319q0 49 36.5 86t90.5 37q55 0 92 -35t37 -88 t-37 -88t-92 -35q-53 0 -90 36t-37 87zM430 1139l80 311h197l-142 -311h-135zM723 1319q0 49 36 86t91 37q53 0 91 -35t38 -88t-38 -88t-91 -35q-55 0 -91 36t-36 87z" />
<glyph unicode="&#x3b1;" horiz-adv-x="1251" d="M92 485q0 109 35 202t99.5 162t155.5 107.5t204 38.5q104 0 196 -44t142 -120h4v140h184v-680q0 -74 16.5 -110t73.5 -38v-166q-49 -6 -94 1.5t-82 27t-62.5 55.5t-33.5 89q-55 -86 -150.5 -130.5t-193.5 -44.5q-113 0 -204 39t-155.5 109t-99.5 162t-35 200zM289 485 q0 -74 22.5 -136t63.5 -106t100 -70t133 -26t133.5 26t100.5 70t63.5 106.5t22.5 135.5q0 74 -22.5 136.5t-63.5 106.5t-100.5 69.5t-133.5 25.5t-133 -25.5t-100 -69.5t-63.5 -106.5t-22.5 -136.5z" />
<glyph unicode="&#x3b2;" horiz-adv-x="1146" d="M139 -467v1352q0 160 25.5 272.5t78 183t133.5 103.5t193 33q84 0 151.5 -27t115 -75t73 -115.5t25.5 -149.5q0 -92 -41 -181t-133 -141q139 -35 217 -134t78 -246q0 -100 -34 -180.5t-91.5 -135.5t-134 -83.5t-162.5 -28.5q-78 0 -162 29.5t-145 101.5v-578h-187z M326 340q39 -88 119.5 -143.5t166.5 -55.5q68 0 117 23.5t80 61.5t45 86.5t14 97.5q0 68 -26.5 120t-71.5 86.5t-106.5 52t-128.5 17.5h-66v158h51q49 0 92 21.5t74 55t49.5 77.5t18.5 87q0 104 -46 167t-145 63q-121 0 -179 -97.5t-58 -314.5v-563z" />
<glyph unicode="&#x3b3;" horiz-adv-x="1026" d="M23 971h217l282 -735l279 735h203l-388 -971v-467h-192v467z" />
<glyph unicode="&#x3b4;" horiz-adv-x="1214" d="M92 473q0 84 26.5 162t76 140.5t120 108.5t160.5 64q-35 27 -74 51.5t-72.5 55t-55 68.5t-21.5 91q0 61 28.5 109.5t79 82.5t120 51.5t151.5 17.5q100 0 192 -31t162 -82q-23 -37 -45 -72t-45 -73q-61 45 -130 70.5t-140 25.5q-31 0 -62 -5t-56.5 -17.5t-40.5 -31 t-15 -45.5q0 -37 86 -94t274 -164q37 -20 90 -54t102.5 -90t84 -138t34.5 -201q0 -104 -39 -195.5t-107.5 -158t-165.5 -105.5t-214 -39q-106 0 -198.5 38t-160 104.5t-106.5 158t-39 197.5zM283 477q2 -74 26.5 -134t67.5 -103t101.5 -68t123.5 -25q70 0 130.5 25t104.5 68 t68.5 102t24.5 127q0 72 -18.5 125t-53.5 96t-84 78t-108 70q-90 -12 -161 -45t-120 -80t-75.5 -107.5t-26.5 -128.5z" />
<glyph unicode="&#x3b5;" horiz-adv-x="897" d="M84 281q0 86 47 143t125 82q-78 35 -111.5 91t-33.5 116q0 70 30.5 122t80.5 86.5t117 53t140 18.5q117 0 213 -40t156 -126l-143 -114q-47 66 -103.5 93.5t-124.5 27.5q-78 0 -127 -33t-49 -99t51 -95t144 -29h98v-158h-96q-41 0 -80 -5t-70 -20.5t-49 -41t-18 -68.5 q0 -59 52 -101.5t146 -42.5q66 0 141.5 34t122.5 99l140 -116q-72 -96 -177.5 -139.5t-228.5 -43.5q-82 0 -153.5 19.5t-125 58.5t-84 96.5t-30.5 131.5z" />
<glyph unicode="&#x3b6;" horiz-adv-x="894" d="M92 494q0 111 36 219t99.5 211.5t147.5 195.5t182 170h-330v160h625v-147q-121 -72 -224.5 -163t-180 -194.5t-120.5 -215.5t-44 -222q0 -16 1 -30.5t7 -31.5q8 -74 51 -131t109.5 -97t149.5 -63.5t175 -29.5q41 -2 61.5 -21.5t20.5 -48.5q0 -33 -10 -75.5t-26.5 -89 t-40 -91.5t-48.5 -82q-35 14 -69.5 29.5t-69.5 32.5q23 47 44 99t32 97q-127 18 -232.5 58.5t-182.5 105t-120 152.5t-43 203z" />
<glyph unicode="&#x3b7;" d="M139 0v971h185v-150h4q35 78 121 126t198 48q70 0 134.5 -21.5t112.5 -66.5t76.5 -115.5t28.5 -166.5v-1203h-184v1151q0 68 -18.5 116t-49 78t-70.5 43t-83 13q-57 0 -106.5 -18.5t-86 -58t-57 -101t-20.5 -145.5v-500h-185z" />
<glyph unicode="&#x3b8;" horiz-adv-x="1132" d="M92 739q0 158 31 293t90 235.5t149.5 157t208.5 56.5q125 0 213 -53.5t145.5 -150.5t84 -233.5t26.5 -304.5q0 -174 -27.5 -314t-86 -239.5t-148.5 -154t-215 -54.5q-223 0 -347 189.5t-124 572.5zM281 672q2 -123 24.5 -222.5t61.5 -168t90 -106.5t112 -38q70 0 121 40 t86 111.5t52.5 169t21.5 214.5h-569zM281 831h569q-4 96 -23.5 184.5t-55.5 156t-88 107.5t-122 40q-63 0 -113.5 -41t-86 -108.5t-56 -155.5t-24.5 -183z" />
<glyph unicode="&#x3b9;" horiz-adv-x="491" d="M139 195v776h185v-682q0 -74 16 -109t74 -37v-163q-53 -6 -102.5 2t-88.5 33.5t-61.5 69.5t-22.5 110z" />
<glyph unicode="&#x3ba;" horiz-adv-x="1046" d="M139 0v971h185v-430l421 430h236l-442 -447l481 -524h-248l-448 496v-496h-185z" />
<glyph unicode="&#x3bb;" horiz-adv-x="991" d="M8 0l395 938l-208 512h200l588 -1450h-205l-286 719l-283 -719h-201z" />
<glyph unicode="&#x3bc;" horiz-adv-x="1134" d="M139 -467v1438h185v-533q0 -47 5 -94t20.5 -87t45 -67.5t78.5 -35.5q10 -2 22.5 -3t22.5 -1q35 0 80 10q94 18 152.5 94t58.5 209v508h184v-713v-63.5t1 -69.5t1 -67.5v-57.5h-178v91t-2 73h-2q-35 -82 -120 -135.5t-201 -53.5q-47 0 -90.5 11.5t-77.5 36.5v-490h-185z " />
<glyph unicode="&#x3bd;" horiz-adv-x="1024" d="M23 971h213l290 -744l279 744h196l-380 -971h-203z" />
<glyph unicode="&#x3be;" horiz-adv-x="929" d="M92 426q0 147 77 250.5t216 157.5q-117 47 -163 121.5t-46 168.5q0 63 26.5 126t80 113t136.5 81t193 31q72 0 137.5 -14.5t124.5 -41.5q-4 -18 -9 -37.5t-11 -38.5q-6 -18 -11 -37.5t-12 -37.5q-51 20 -101 33.5t-105 13.5q-129 0 -194.5 -58.5t-65.5 -138.5 q0 -20 10 -41q10 -39 39.5 -71.5t71.5 -55t91.5 -36t100.5 -13.5h84v-158h-82q-104 0 -179 -24.5t-124 -66.5t-72.5 -97t-23.5 -117q0 -23 10 -49q14 -74 70.5 -123t132 -79.5t160.5 -45t159 -20.5q41 -4 60.5 -23.5t19.5 -46.5q0 -33 -10.5 -76t-26.5 -89t-39.5 -90 t-48.5 -81q-35 14 -69.5 28.5t-69.5 31.5q2 4 5 11t5 11l12 25q16 41 30.5 78t20.5 71q-102 10 -209.5 38t-196.5 82t-146.5 136t-57.5 199z" />
<glyph unicode="&#x3bf;" horiz-adv-x="1216" d="M92 485q0 106 40 198.5t109.5 162t164 109.5t202.5 40q109 0 203 -40t163.5 -109.5t109.5 -161.5t40 -199q0 -106 -40 -199t-109.5 -162t-163.5 -109t-203 -40t-203 40t-163.5 109t-109.5 162t-40 199zM289 485q0 -74 22.5 -136t63.5 -106t100.5 -70t132.5 -26 q74 0 133.5 26t100.5 70t63.5 106.5t22.5 135.5q0 74 -22.5 136.5t-63.5 106.5t-100.5 69.5t-133.5 25.5t-133 -25.5t-100 -69.5t-63.5 -106.5t-22.5 -136.5z" />
<glyph unicode="&#x3c0;" horiz-adv-x="1128" d="M10 930q53 18 130 29.5t173 11.5h791v-160h-160v-811h-186v811h-318q-8 -88 -21 -200.5t-31.5 -225.5t-40 -215t-46.5 -170h-186q27 82 49 185.5t39.5 213t29 216t15.5 194.5q-70 -4 -116 -14.5t-93 -22.5z" />
<glyph unicode="&#x3c1;" horiz-adv-x="1261" d="M139 -465v952q0 106 40 198.5t108.5 161t163 108.5t202.5 40q109 0 203 -40t164 -109.5t109.5 -161.5t39.5 -199q0 -106 -39.5 -199t-109.5 -162t-164 -109t-203 -40q-195 0 -329 136v-576h-185zM334 485q0 -74 22.5 -136t63.5 -106t100.5 -70t132.5 -26q74 0 133.5 26 t100.5 70t63.5 106.5t22.5 135.5q0 74 -22.5 136.5t-63.5 106.5t-100.5 69.5t-133.5 25.5t-133 -25.5t-100 -69.5t-63.5 -106.5t-22.5 -136.5z" />
<glyph unicode="&#x3c2;" horiz-adv-x="948" d="M92 492q0 106 37 197t103.5 157.5t157.5 104.5t200 38q82 0 166 -25.5t162 -84.5q-25 -37 -52.5 -77t-52.5 -77q-59 53 -114.5 73.5t-108.5 20.5q-68 0 -124 -24.5t-97 -68.5t-63.5 -103.5t-22.5 -128.5q0 -135 59 -211t145 -111q41 -18 87.5 -24.5t93.5 -6.5h21t30 2 q18 2 35.5 3t27.5 1q43 0 62.5 -23.5t19.5 -51.5q0 -35 -9 -80t-26.5 -93.5t-40 -95.5t-47.5 -84q-12 4 -23 10.5t-24 10.5l-90 39q23 47 43.5 100t28.5 98q-16 -2 -29.5 -2h-30.5q-117 0 -214 39t-165.5 107.5t-106.5 164t-38 206.5z" />
<glyph unicode="&#x3c3;" horiz-adv-x="1216" d="M92 485q0 106 40 198.5t109.5 162t164 109.5t202.5 40h598v-155h-235q78 -70 115.5 -160t37.5 -195q0 -106 -40 -199t-109.5 -162t-163.5 -109t-203 -40t-203 40t-163.5 109t-109.5 162t-40 199zM289 485q0 -74 22.5 -136t63.5 -106t100.5 -70t132.5 -26q74 0 133.5 26 t100.5 70t63.5 106.5t22.5 135.5q0 74 -22.5 136.5t-63.5 106.5t-100.5 69.5t-133.5 25.5t-133 -25.5t-100 -69.5t-63.5 -106.5t-22.5 -136.5z" />
<glyph unicode="&#x3c4;" horiz-adv-x="897" d="M10 930q53 18 129 29.5t172 11.5h561v-160h-319v-522q0 -74 16.5 -109t73.5 -37v-163q-53 -6 -102 2t-88 33.5t-61.5 69.5t-22.5 110v616h-88q-74 0 -130.5 -11.5t-111.5 -27.5z" />
<glyph unicode="&#x3c5;" horiz-adv-x="1132" d="M139 395v576h185v-531q0 -70 20.5 -124t54 -92t76.5 -57.5t90 -19.5t91 19.5t78 57.5t54.5 92.5t20.5 123.5v531h184v-576q0 -102 -34.5 -180t-93 -131t-136.5 -81t-164 -28t-163.5 28t-136 81t-92.5 131t-34 180z" />
<glyph unicode="&#x3c6;" horiz-adv-x="1374" d="M92 481q0 82 21.5 160t67.5 142.5t118 113.5t172 74l4 -13l10.5 -31.5t13.5 -41t13 -41t8 -29.5q-125 -37 -182 -128t-57 -204q0 -66 22.5 -123t63.5 -103t99 -75.5t130 -38.5v842q14 2 43 3t45 1q135 0 245.5 -32.5t189.5 -97t121 -160t42 -222.5q0 -104 -38 -192 t-104.5 -155t-158.5 -108.5t-203 -52.5v-436h-182v436q-119 8 -213 53.5t-158.5 115t-98.5 158.5t-34 185zM778 143q68 10 126.5 39t100.5 73t66.5 101.5t24.5 124.5q0 156 -88 240t-230 94v-672z" />
<glyph unicode="&#x3c7;" horiz-adv-x="962" d="M-29 -465l402 762l-353 674h218l251 -504h3l245 504h203l-342 -674l406 -762h-218l-311 588h-2l-295 -588h-207z" />
<glyph unicode="&#x3c8;" horiz-adv-x="1421" d="M139 475v496h185v-473q0 -94 26.5 -159t68.5 -105.5t94 -60t105 -21.5v1114h185v-1114q53 4 105.5 23.5t94 59t68.5 104t27 159.5v473h184v-496q0 -133 -41 -224t-108.5 -149.5t-153.5 -87t-176 -34.5v-447h-185v447q-90 6 -176 34.5t-153.5 87t-108.5 149.5t-41 224z " />
<glyph unicode="&#x3c9;" horiz-adv-x="1495" d="M92 492q0 72 15.5 142.5t41 133.5t57.5 115.5t66 87.5h205q-41 -49 -76.5 -105.5t-62.5 -118t-43 -126t-16 -127.5q0 -92 19 -160t50 -112t69 -65.5t75 -21.5q35 0 65.5 19.5t52 53.5t33.5 77t12 90v364h185v-364q0 -47 12 -90t33.5 -77t52.5 -53.5t66 -19.5 q37 0 74.5 21.5t68.5 65.5t50.5 111.5t19.5 160.5q0 63 -16.5 127.5t-43.5 126t-63.5 118t-75.5 105.5h207q33 -35 64.5 -87.5t57 -115.5t41 -134t15.5 -142q0 -139 -35 -237.5t-89 -160t-120.5 -90.5t-132.5 -29q-80 0 -153.5 35t-122.5 113q-51 -78 -126 -113t-155 -35 q-66 0 -132.5 29t-120.5 90.5t-89 159.5t-35 238z" />
<glyph unicode="&#x3ca;" horiz-adv-x="491" d="M-84 1319q0 49 36 86t91 37t92 -35t37 -88t-37 -88t-92 -35t-91 36t-36 87zM139 195v776h185v-682q0 -74 16 -109t74 -37v-163q-53 -6 -102.5 2t-88.5 33.5t-61.5 69.5t-22.5 110zM322 1319q0 49 36.5 86t90.5 37q55 0 92 -35t37 -88t-37 -88t-92 -35q-53 0 -90 36 t-37 87z" />
<glyph unicode="&#x3cb;" horiz-adv-x="1146" d="M139 395v576h185v-531q0 -70 20.5 -124t54 -92t76.5 -57.5t90 -19.5t91 19.5t78 57.5t54.5 92.5t20.5 123.5v531h184v-576q0 -102 -34.5 -180t-93 -131t-136.5 -81t-164 -28t-163.5 28t-136 81t-92.5 131t-34 180zM231 1319q0 49 37 86t92 37q53 0 91 -35t38 -88 t-37.5 -88t-91.5 -35q-55 0 -92 36t-37 87zM637 1319q0 49 37 86t92 37q53 0 91 -35t38 -88t-38 -88t-91 -35q-55 0 -92 36t-37 87z" />
<glyph unicode="&#x3cc;" horiz-adv-x="1216" d="M92 485q0 106 40 198.5t109.5 162t164 109.5t202.5 40q109 0 203 -40t163.5 -109.5t109.5 -161.5t40 -199q0 -106 -40 -199t-109.5 -162t-163.5 -109t-203 -40t-203 40t-163.5 109t-109.5 162t-40 199zM289 485q0 -74 22.5 -136t63.5 -106t100.5 -70t132.5 -26 q74 0 133.5 26t100.5 70t63.5 106.5t22.5 135.5q0 74 -22.5 136.5t-63.5 106.5t-100.5 69.5t-133.5 25.5t-133 -25.5t-100 -69.5t-63.5 -106.5t-22.5 -136.5zM526 1139l80 311h195l-142 -311h-133z" />
<glyph unicode="&#x3cd;" horiz-adv-x="1132" d="M139 395v576h185v-531q0 -70 20.5 -124t54 -92t76.5 -57.5t90 -19.5t91 19.5t78 57.5t54.5 92.5t20.5 123.5v531h184v-576q0 -102 -34.5 -180t-93 -131t-136.5 -81t-164 -28t-163.5 28t-136 81t-92.5 131t-34 180zM471 1139l80 311h194l-141 -311h-133z" />
<glyph unicode="&#x3ce;" horiz-adv-x="1495" d="M92 492q0 72 15.5 142.5t41 133.5t57.5 115.5t66 87.5h205q-41 -49 -76.5 -105.5t-62.5 -118t-43 -126t-16 -127.5q0 -92 19 -160t50 -112t69 -65.5t75 -21.5q35 0 65.5 19.5t52 53.5t33.5 77t12 90v364h185v-364q0 -47 12 -90t33.5 -77t52.5 -53.5t66 -19.5 q37 0 74.5 21.5t68.5 65.5t50.5 111.5t19.5 160.5q0 63 -16.5 127.5t-43.5 126t-63.5 118t-75.5 105.5h207q33 -35 64.5 -87.5t57 -115.5t41 -134t15.5 -142q0 -139 -35 -237.5t-89 -160t-120.5 -90.5t-132.5 -29q-80 0 -153.5 35t-122.5 113q-51 -78 -126 -113t-155 -35 q-66 0 -132.5 29t-120.5 90.5t-89 159.5t-35 238zM664 1139l79 311h195l-141 -311h-133z" />
<glyph unicode="&#x401;" horiz-adv-x="1251" d="M186 0v1450h936v-184h-739v-432h688v-185h-688v-465h776v-184h-973zM291 1722q0 51 40 84t87 33t87 -32.5t40 -84.5q0 -55 -36 -92t-91 -37t-91 37t-36 92zM709 1722q0 51 40 84t87 33t87 -32.5t40 -84.5q0 -55 -36 -92t-91 -37t-91 37t-36 92z" />
<glyph unicode="&#x402;" horiz-adv-x="1474" d="M23 1266v184h993v-184h-426v-392q78 20 141.5 28.5t110.5 8.5q133 0 232.5 -34.5t165 -95t99 -139.5t37.5 -167q2 -98 -29.5 -185t-96 -152.5t-162 -103.5t-224.5 -38q-16 0 -34.5 1t-36.5 3v184q76 -12 147.5 2.5t124.5 50t84 94t27 136.5q-4 66 -33 115t-75 80.5 t-105.5 48t-122.5 16.5q-49 0 -110.5 -7t-139.5 -36v-684h-197v1266h-370z" />
<glyph unicode="&#x403;" horiz-adv-x="978" d="M186 0v1450h770v-184h-573v-1266h-197zM379 1532l213 295h262l-305 -295h-170z" />
<glyph unicode="&#x404;" horiz-adv-x="1441" d="M96 713q0 168 55.5 310t155 245.5t238.5 161t307 57.5q143 0 281.5 -55.5t226.5 -169.5l-164 -125q-61 80 -155.5 123t-194.5 43q-104 0 -193.5 -34t-157 -95.5t-113.5 -144.5t-65 -181h709v-184h-721q8 -106 48 -200.5t109.5 -164.5t166 -111t217.5 -41q125 0 219 51.5 t160 143.5l166 -125q-16 -23 -57.5 -64.5t-109 -83.5t-162.5 -74t-220 -32q-172 0 -310.5 65.5t-235.5 172t-148.5 240.5t-51.5 272z" />
<glyph unicode="&#x405;" d="M68 164l161 139q53 -80 136.5 -118t171.5 -38q49 0 100 15.5t93 46.5t68.5 76t26.5 104q0 84 -53 128t-132 74t-172 57.5t-172 76.5t-132 132t-53 224q0 63 27.5 135t87 131.5t152.5 99.5t224 40q119 0 227.5 -33t190.5 -133l-160 -145q-37 57 -104.5 92t-153.5 35 q-82 0 -136 -21.5t-87 -55.5t-46.5 -73t-13.5 -72q0 -92 53.5 -141t132.5 -80t172 -55.5t172 -68.5t132 -118.5t53 -205.5q0 -104 -40 -188.5t-107.5 -141.5t-159.5 -88t-197 -31q-139 0 -264 49t-198 152z" />
<glyph unicode="&#x406;" horiz-adv-x="569" d="M186 0v1450h197v-1450h-197z" />
<glyph unicode="&#x407;" horiz-adv-x="569" d="M-51 1722q0 51 40 84t87 33t87 -32.5t40 -84.5q0 -55 -36 -92t-91 -37t-91 37t-36 92zM186 0v1450h197v-1450h-197zM367 1722q0 51 40 84t87 33t87 -32.5t40 -84.5q0 -55 -36 -92t-91 -37t-91 37t-36 92z" />
<glyph unicode="&#x408;" horiz-adv-x="987" d="M18 281l193 43q16 -82 67.5 -129.5t133.5 -47.5q74 0 117.5 29t68.5 75t33 105.5t8 120.5v973h197v-1036q0 -137 -43 -224.5t-107.5 -137.5t-138.5 -69.5t-135 -19.5q-154 0 -259.5 79t-134.5 239z" />
<glyph unicode="&#x409;" horiz-adv-x="2148" d="M14 4v191q33 -10 60.5 -17.5t46.5 -7.5q68 0 107.5 30.5t60 83t27 122t6.5 147.5v897h931v-573h246q72 0 167 -11.5t181 -55.5t145.5 -131t59.5 -239q0 -109 -32.5 -183.5t-86 -122.5t-121 -75.5t-135 -40t-131 -15.5t-108.5 -3h-381v1266h-537v-707q0 -109 -12 -212 t-50 -183t-111 -128t-193 -48q-10 0 -45 2t-95 14zM1253 184h207q121 0 198 23.5t120 60.5t59 82t16 90q0 63 -22.5 107.5t-57 73t-76.5 43t-82 20.5t-72 7t-46 1h-244v-508z" />
<glyph unicode="&#x40a;" horiz-adv-x="2226" d="M186 0v1450h197v-573h752v573h196v-573h246q72 0 167 -11.5t181 -55.5t145.5 -131t59.5 -239q0 -109 -33 -183.5t-86 -122.5t-120.5 -75.5t-135 -40t-131 -15.5t-108.5 -3h-381v692h-752v-692h-197zM1331 184h207q121 0 197.5 23.5t119.5 60.5t59.5 82t16.5 90 q0 63 -22.5 107.5t-57 73t-76.5 43t-82 20.5t-72 7t-46 1h-244v-508z" />
<glyph unicode="&#x40b;" horiz-adv-x="1497" d="M23 1266v184h993v-184h-426v-424q100 14 172 19t131 5q168 0 263 -36.5t142.5 -94t58.5 -127t11 -137.5v-471h-201v471q0 35 -6 73t-33.5 68.5t-83 50t-151.5 19.5q-74 0 -142.5 -5t-160.5 -20v-657h-197v1266h-370z" />
<glyph unicode="&#x40c;" horiz-adv-x="1327" d="M186 0v1450h197v-627h16l641 627h275l-701 -670l748 -780h-287l-676 725h-16v-725h-197zM541 1532l213 295h262l-305 -295h-170z" />
<glyph unicode="&#x40e;" horiz-adv-x="1157" d="M-12 1450h223l367 -782l378 782h213l-706 -1450h-213l221 453zM256 1815h113q14 -78 74.5 -113t136.5 -35t136 35t75 113h108q-10 -141 -98 -212t-223 -71t-223.5 70.5t-98.5 212.5z" />
<glyph unicode="&#x40f;" horiz-adv-x="1427" d="M186 0v1450h197v-1266h661v1266h197v-1450h-430v-272h-195v272h-430z" />
<glyph unicode="&#x410;" horiz-adv-x="1441" d="M2 0l639 1450h178l621 -1450h-230l-145 358h-690l-144 -358h-229zM444 530h549l-270 666h-4z" />
<glyph unicode="&#x411;" horiz-adv-x="1277" d="M186 0v1450h838v-184h-641v-389h246q72 0 167 -11.5t181 -55.5t145.5 -131t59.5 -239q0 -109 -33 -183.5t-86 -122.5t-121 -75.5t-135.5 -40t-131 -15.5t-108.5 -3h-381zM383 184h207q121 0 197.5 23.5t119.5 60.5t59.5 82t16.5 90q0 63 -22.5 107.5t-57.5 73t-77 43 t-81.5 20.5t-71.5 7t-46 1h-244v-508z" />
<glyph unicode="&#x412;" horiz-adv-x="1290" d="M186 0v1450h504q94 0 175 -22.5t139.5 -66.5t92 -112.5t33.5 -161.5q0 -125 -69.5 -203.5t-179.5 -115.5v-4q66 -4 123 -34t99 -78t66.5 -111.5t24.5 -137.5q0 -98 -40 -172.5t-109.5 -126t-161.5 -78t-199 -26.5h-498zM383 172h289q45 0 99 9t101.5 37t80 75t32.5 125 q0 129 -84 193.5t-227 64.5h-291v-504zM383 848h268q55 0 104.5 11t86.5 38t58.5 68t21.5 100q0 86 -55.5 149.5t-174.5 63.5h-309v-430z" />
<glyph unicode="&#x413;" horiz-adv-x="978" d="M186 0v1450h770v-184h-573v-1266h-197z" />
<glyph unicode="&#x414;" horiz-adv-x="1343" d="M20 186q135 -4 202 137.5t67 397.5v729h866v-1266h168v-456h-193v272h-921v-272h-189v458zM369 184h589v1082h-473v-545q0 -180 -22.5 -310t-93.5 -227z" />
<glyph unicode="&#x415;" horiz-adv-x="1251" d="M186 0v1450h936v-184h-739v-432h688v-185h-688v-465h776v-184h-973z" />
<glyph unicode="&#x416;" horiz-adv-x="1814" d="M-35 0l631 784l-596 666h254l551 -623h4v623h197v-623h4l549 623h251l-593 -666l632 -784h-262l-581 729v-729h-197v729l-582 -729h-262z" />
<glyph unicode="&#x417;" horiz-adv-x="1171" d="M51 201q8 6 31.5 25.5t50.5 41.5q27 23 50.5 41.5t29.5 22.5q53 -80 138 -131t196 -56q80 0 141.5 21.5t103.5 58.5t63.5 85t21.5 102q0 111 -84 180.5t-261 69.5h-157v184h164q68 0 117 20.5t81.5 54t48 76.5t15.5 86q0 92 -60.5 156t-181.5 64q-88 0 -175 -40 t-159 -112l-53 53q-29 29 -55.5 54.5t-34.5 31.5q63 59 121.5 97t117 60.5t118.5 31t126 8.5q109 0 191 -33t136 -87t81.5 -125t27.5 -146q0 -102 -49 -190.5t-143 -135.5q139 -41 202.5 -137t63.5 -225q0 -102 -40 -184.5t-110.5 -140.5t-168 -89t-211.5 -31 q-141 0 -267 57.5t-227 180.5z" />
<glyph unicode="&#x418;" horiz-adv-x="1517" d="M186 0v1450h197v-1161l696 1161h252v-1450h-196v1188l-701 -1188h-248z" />
<glyph unicode="&#x419;" horiz-adv-x="1517" d="M186 0v1450h197v-1161l696 1161h252v-1450h-196v1188l-701 -1188h-248zM422 1815h113q14 -78 74.5 -113t135.5 -35q76 0 136.5 35t74.5 113h109q-10 -141 -98 -212t-224 -71q-135 0 -223 70.5t-98 212.5z" />
<glyph unicode="&#x41a;" horiz-adv-x="1327" d="M186 0v1450h197v-627h16l641 627h275l-701 -670l748 -780h-287l-676 725h-16v-725h-197z" />
<glyph unicode="&#x41b;" horiz-adv-x="1439" d="M14 4v191q33 -10 60.5 -17.5t46.5 -7.5q68 0 107.5 30.5t60 83t27 122t6.5 147.5v897h931v-1450h-196v1266h-537v-707q0 -109 -12 -212t-50 -183t-111 -128t-193 -48q-10 0 -45 2t-95 14z" />
<glyph unicode="&#x41c;" horiz-adv-x="1855" d="M172 0v1450h293l461 -1098h8l457 1098h292v-1450h-196v1192h-4l-490 -1192h-131l-489 1192h-4v-1192h-197z" />
<glyph unicode="&#x41d;" horiz-adv-x="1517" d="M186 0v1450h197v-602h752v602h196v-1450h-196v664h-752v-664h-197z" />
<glyph unicode="&#x41e;" horiz-adv-x="1703" d="M96 725q0 162 56.5 301t156 241.5t238.5 161t305 58.5t305 -58.5t238.5 -161t156 -241.5t56.5 -301t-56.5 -301t-156 -241.5t-238.5 -161t-305 -58.5t-305 58.5t-238.5 161t-156 241.5t-56.5 301zM305 725q0 -119 39 -224.5t110.5 -183t172 -124t225.5 -46.5t225.5 46.5 t172 124t110.5 183t39 224.5t-39 224.5t-110.5 183t-172 124t-225.5 46.5t-225.5 -46.5t-172 -124t-110.5 -183t-39 -224.5z" />
<glyph unicode="&#x41f;" horiz-adv-x="1427" d="M186 0v1450h1055v-1450h-199v1266h-659v-1266h-197z" />
<glyph unicode="&#x420;" horiz-adv-x="1214" d="M186 0v1450h510q139 0 229.5 -38t142.5 -96.5t72.5 -131t20.5 -140.5t-20.5 -140.5t-72.5 -130.5t-142 -96t-230 -38h-313v-639h-197zM383 811h258q57 0 113.5 9t100.5 34t70.5 71t26.5 119q0 74 -26.5 120t-70.5 71t-100.5 34t-113.5 9h-258v-467z" />
<glyph unicode="&#x421;" horiz-adv-x="1441" d="M96 713q0 168 55.5 310t155 245.5t238.5 161t307 57.5q143 0 281.5 -55.5t226.5 -169.5l-164 -125q-61 80 -155.5 123t-194.5 43q-123 0 -222.5 -46.5t-170 -126t-109.5 -187t-39 -230.5q0 -115 37 -217.5t106.5 -180t170 -123t227.5 -45.5q125 0 219 51.5t160 143.5 l166 -125q-16 -23 -57.5 -64.5t-109 -83.5t-162.5 -74t-220 -32q-172 0 -310.5 65.5t-235.5 172t-148.5 240.5t-51.5 272z" />
<glyph unicode="&#x422;" horiz-adv-x="1175" d="M23 1266v184h1130v-184h-467v-1266h-197v1266h-466z" />
<glyph unicode="&#x423;" horiz-adv-x="1157" d="M-12 1450h223l367 -782l378 782h213l-706 -1450h-213l221 453z" />
<glyph unicode="&#x424;" horiz-adv-x="1792" d="M96 725q0 121 50.5 230.5t141.5 194.5t220 137t289 61v131h196v-131h2q160 -8 289 -60.5t220 -137.5t141.5 -194.5t50.5 -230.5t-50.5 -230.5t-141.5 -194.5t-221 -137t-290 -61v-133h-196v133q-160 8 -289 60.5t-220 137.5t-141.5 194.5t-50.5 230.5zM303 725 q0 -88 37 -165t102.5 -135t155.5 -94t199 -42v872q-109 -6 -199 -42t-155.5 -94t-102.5 -135t-37 -165zM995 289q109 6 199 42t155.5 94t102.5 135t37 165t-37 165t-102.5 135t-155.5 94t-199 42v-872z" />
<glyph unicode="&#x425;" horiz-adv-x="1327" d="M-4 0l526 762l-487 688h252l377 -557l372 557h246l-483 -686l532 -764h-258l-416 629l-417 -629h-244z" />
<glyph unicode="&#x426;" horiz-adv-x="1431" d="M186 0v1450h197v-1266h661v1266h197v-1266h170v-456h-194v272h-1031z" />
<glyph unicode="&#x427;" horiz-adv-x="1294" d="M133 979v471h201v-471q0 -35 6 -73t33.5 -68.5t83 -50t151.5 -19.5q74 0 142.5 6t160.5 21v655h197v-1450h-197v608q-100 -14 -171.5 -19t-131.5 -5q-168 0 -263 36.5t-142 94t-58.5 127t-11.5 137.5z" />
<glyph unicode="&#x428;" horiz-adv-x="2164" d="M186 0v1450h197v-1266h600v1266h197v-1266h602v1266h196v-1450h-1792z" />
<glyph unicode="&#x429;" horiz-adv-x="2168" d="M186 0v1450h197v-1266h600v1266h197v-1266h602v1266h196v-1266h170v-456h-194l2 272h-1770z" />
<glyph unicode="&#x42a;" horiz-adv-x="1482" d="M23 1266v184h565v-573h246q72 0 167 -11.5t181 -55.5t145 -131t59 -239q0 -109 -32.5 -183.5t-86 -122.5t-121 -75.5t-135 -40t-131 -15.5t-108.5 -3h-381v1266h-368zM588 184h207q121 0 197.5 23.5t119.5 60.5t59.5 82t16.5 90q0 63 -22.5 107.5t-57.5 73t-77 43 t-82 20.5t-71.5 7t-46.5 1h-243v-508z" />
<glyph unicode="&#x42b;" horiz-adv-x="1734" d="M186 0v1450h197v-573h246q72 0 167 -11.5t181 -55.5t145.5 -131t59.5 -239q0 -109 -33 -183.5t-86 -122.5t-121 -75.5t-135.5 -40t-131 -15.5t-108.5 -3h-381zM383 184h207q121 0 197.5 23.5t119.5 60.5t59.5 82t16.5 90q0 63 -22.5 107.5t-57.5 73t-77 43t-81.5 20.5 t-71.5 7t-46 1h-244v-508zM1352 0v1450h196v-1450h-196z" />
<glyph unicode="&#x42c;" horiz-adv-x="1277" d="M186 0v1450h197v-573h246q72 0 167 -11.5t181 -55.5t145.5 -131t59.5 -239q0 -109 -33 -183.5t-86 -122.5t-121 -75.5t-135.5 -40t-131 -15.5t-108.5 -3h-381zM383 184h207q121 0 197.5 23.5t119.5 60.5t59.5 82t16.5 90q0 63 -22.5 107.5t-57.5 73t-77 43t-81.5 20.5 t-71.5 7t-46 1h-244v-508z" />
<glyph unicode="&#x42d;" horiz-adv-x="1441" d="M51 217l166 125q66 -92 160 -143.5t219 -51.5q119 0 216 41t167 111t109.5 164t48.5 201h-721v184h708q-18 98 -64 181t-113.5 144.5t-157 95.5t-193.5 34q-100 0 -194.5 -43t-155.5 -123l-164 125q88 115 226 170t282 55q168 0 306 -57.5t238.5 -161t156 -245.5 t55.5 -310q0 -137 -51.5 -271.5t-148.5 -241t-235.5 -172t-310.5 -65.5q-125 0 -220 32t-162.5 74t-108.5 84t-58 64z" />
<glyph unicode="&#x42e;" horiz-adv-x="2179" d="M186 0v1450h197v-602h197q20 137 82.5 255t161 203t226.5 133t277 48q166 0 305.5 -58.5t238.5 -161t155.5 -241.5t56.5 -301t-56.5 -301t-155.5 -241.5t-238.5 -161t-305.5 -58.5q-158 0 -292 53.5t-232 147.5t-158.5 222t-71.5 278h-190v-664h-197zM780 725 q0 -119 39 -224.5t110.5 -183t172 -124t225.5 -46.5t225.5 46.5t172 124t110.5 183t39 224.5t-39 224.5t-110.5 183t-172 124t-225.5 46.5t-225.5 -46.5t-172 -124t-110.5 -183t-39 -224.5z" />
<glyph unicode="&#x42f;" horiz-adv-x="1251" d="M35 0l411 662q-82 8 -148.5 43.5t-112.5 88t-70.5 117t-24.5 133.5q0 68 20.5 140.5t73 131t142.5 96.5t229 38h510v-1450h-197v639h-219l-368 -639h-246zM299 1044q0 -74 26.5 -119.5t70.5 -70.5t99.5 -34t114.5 -9h258v467h-258q-59 0 -114.5 -9t-99.5 -34t-70.5 -71 t-26.5 -120z" />
<glyph unicode="&#x430;" horiz-adv-x="1062" d="M92 266q0 94 42 157.5t115 103.5t170 57.5t208 17.5h135v41q0 37 -14.5 74t-43 66.5t-71.5 47t-103 17.5q-53 0 -93 -10.5t-72.5 -25.5t-59 -35.5t-51.5 -39.5l-111 115q78 72 180.5 107.5t204.5 35.5q106 0 183 -26.5t126.5 -71.5t73 -103.5t23.5 -121.5v-496 q0 -51 2 -94t6 -82h-164q-6 74 -6 147h-4q-61 -94 -145 -133t-195 -39q-68 0 -129 18.5t-107.5 55.5t-73 91.5t-26.5 125.5zM276 281q0 -84 56.5 -121t152.5 -37q76 0 129.5 25.5t86 66.5t47 91t14.5 100v61h-98q-66 0 -134.5 -7t-125 -27.5t-92.5 -57.5t-36 -94z" />
<glyph unicode="&#x431;" horiz-adv-x="1198" d="M92 580q0 82 8.5 162.5t27.5 154.5t53 138.5t83 117.5q72 78 177.5 116t248.5 66q59 12 110.5 34t94.5 81h197q-39 -80 -85 -128t-95.5 -75.5t-98.5 -40t-92 -20.5q-84 -16 -146.5 -34.5t-113.5 -49.5q-68 -41 -106 -108.5t-58 -164.5q66 66 154 94.5t174 28.5 q100 0 187 -33.5t152.5 -95t103.5 -149.5t38 -197q0 -113 -37 -205t-103.5 -157.5t-158.5 -101.5t-205 -36q-129 0 -225 42t-158.5 120t-94.5 189.5t-32 251.5zM289 483q2 -68 23.5 -130t60.5 -111t96 -78t133 -29q74 0 132.5 25.5t99 69.5t62.5 104.5t22 130.5 q0 68 -22 127t-61.5 104t-97 71t-129.5 26q-74 0 -132 -22.5t-100 -62.5t-64.5 -94.5t-22.5 -117.5v-13z" />
<glyph unicode="&#x432;" horiz-adv-x="1017" d="M139 0v971h391q111 0 177.5 -29t101.5 -68.5t45 -82.5t10 -74q0 -47 -22.5 -102.5t-96.5 -92.5q86 -25 137.5 -87t51.5 -150q0 -29 -10.5 -76t-47 -94t-110.5 -81t-203 -34h-424zM324 156h227q27 0 60.5 4t63.5 17t50 39t20 69q0 20 -6 45.5t-26.5 47t-56 37t-97.5 15.5 h-235v-274zM324 580h186q84 0 129 25.5t45 94.5q0 14 -4 34t-20.5 38.5t-52.5 30.5t-97 12h-186v-235z" />
<glyph unicode="&#x433;" horiz-adv-x="755" d="M139 0v971h592v-160h-407v-811h-185z" />
<glyph unicode="&#x434;" horiz-adv-x="1054" d="M10 158q76 6 120 46t65.5 95t27.5 119.5t6 120.5v432h666v-811h139v-398h-176v238h-674v-238h-174v396zM328 160h381v651h-297v-358q0 -74 -21.5 -157t-62.5 -136z" />
<glyph unicode="&#x435;" d="M82 485q0 109 38 202t104.5 162t158.5 107.5t201 38.5q129 0 218 -45t146.5 -117.5t83 -163.5t25.5 -186v-65h-778q0 -63 27.5 -115.5t72.5 -89.5t104.5 -57.5t122.5 -20.5q86 0 149.5 40t116.5 106l140 -107q-154 -199 -430 -199q-115 0 -208 39t-157.5 107.5t-99.5 162 t-35 201.5zM279 565h581q-2 61 -19.5 112.5t-52 89.5t-87 59.5t-121.5 21.5q-68 0 -124.5 -25.5t-95 -66.5t-60 -91.5t-21.5 -99.5z" />
<glyph unicode="&#x436;" horiz-adv-x="1445" d="M12 0l422 522l-393 449h227l363 -426v426h184v-426l363 426h227l-393 -449l422 -522h-234l-385 487v-487h-184v487l-387 -487h-232z" />
<glyph unicode="&#x437;" horiz-adv-x="901" d="M14 156l133 114q47 -59 119 -96t142 -37q98 0 155.5 41t57.5 107q0 41 -18.5 68.5t-48.5 43t-69 21.5t-79 6h-95v160h97q190 0 190 125q0 39 -16.5 62.5t-41 36.5t-55 18t-61.5 5q-27 0 -56.5 -3t-60.5 -14t-62.5 -34.5t-60.5 -64.5l-137 106q66 96 165 135t210 39 q74 0 139.5 -18.5t116.5 -54t80.5 -88t29.5 -121.5q0 -59 -33.5 -112.5t-111.5 -90.5q74 -29 124 -87t50 -142q0 -80 -34.5 -137.5t-91 -95.5t-130.5 -56.5t-151 -18.5q-113 0 -219.5 44t-176.5 139z" />
<glyph unicode="&#x438;" horiz-adv-x="1132" d="M139 0v971h185v-719l450 719h219v-971h-184v715l-453 -715h-217z" />
<glyph unicode="&#x439;" horiz-adv-x="1132" d="M139 0v971h185v-719l450 719h219v-971h-184v715l-453 -715h-217zM246 1438h112q14 -78 75 -113t136 -35q76 0 136.5 35t74.5 113h109q-10 -141 -98.5 -212t-223.5 -71t-223 70.5t-98 212.5z" />
<glyph unicode="&#x43a;" horiz-adv-x="1026" d="M139 0v971h185v-430l421 430h230l-443 -447l482 -524h-242l-448 494v-494h-185z" />
<glyph unicode="&#x43b;" horiz-adv-x="1056" d="M10 0v160q63 0 100 15t55.5 44t24 69t5.5 89v594h723v-971h-185v811h-354v-516q0 -55 -16.5 -109.5t-58.5 -95.5t-113.5 -65.5t-180.5 -24.5z" />
<glyph unicode="&#x43c;" horiz-adv-x="1370" d="M139 0v971h248l297 -680l299 680h248v-971h-180v711l-306 -711h-122l-306 713v-713h-178z" />
<glyph unicode="&#x43d;" horiz-adv-x="1130" d="M139 0v971h185v-385h483v385h184v-971h-184v426h-483v-426h-185z" />
<glyph unicode="&#x43e;" horiz-adv-x="1216" d="M92 485q0 106 40 198.5t109.5 162t164 109.5t202.5 40q109 0 203 -40t163.5 -109.5t109.5 -161.5t40 -199q0 -106 -40 -199t-109.5 -162t-163.5 -109t-203 -40t-203 40t-163.5 109t-109.5 162t-40 199zM289 485q0 -74 22.5 -136t63.5 -106t100.5 -70t132.5 -26 q74 0 133.5 26t100.5 70t63.5 106.5t22.5 135.5q0 74 -22.5 136.5t-63.5 106.5t-100.5 69.5t-133.5 25.5t-133 -25.5t-100 -69.5t-63.5 -106.5t-22.5 -136.5z" />
<glyph unicode="&#x43f;" horiz-adv-x="1079" d="M139 0v971h801v-971h-184v811h-432v-811h-185z" />
<glyph unicode="&#x440;" horiz-adv-x="1251" d="M139 -578v1549h185v-140h4q53 78 146 121t192 43q113 0 204 -38.5t155.5 -108.5t99 -163t34.5 -200q0 -109 -34.5 -202t-99 -161.5t-156 -107.5t-203.5 -39q-104 0 -196.5 44t-141.5 120h-4v-717h-185zM324 485q0 -74 22.5 -136t63.5 -106t100 -70t133 -26t133.5 26 t100.5 70t63.5 106.5t22.5 135.5q0 74 -22.5 136.5t-63.5 106.5t-100.5 69.5t-133.5 25.5t-133 -25.5t-100 -69.5t-63.5 -106.5t-22.5 -136.5z" />
<glyph unicode="&#x441;" horiz-adv-x="987" d="M92 481q0 113 37 207t103.5 162t159.5 105.5t208 37.5q106 0 203.5 -37.5t169.5 -115.5l-139 -127q-51 53 -107.5 80.5t-134.5 27.5q-76 0 -132.5 -27.5t-94 -75.5t-57 -110.5t-19.5 -130.5t22.5 -128t63.5 -105t98 -71t129 -26q78 0 133.5 28t102.5 81l131 -131 q-72 -80 -167 -115t-202 -35q-113 0 -206 37t-160.5 103.5t-104.5 160t-37 205.5z" />
<glyph unicode="&#x442;" horiz-adv-x="911" d="M20 811v160h871v-160h-342v-811h-184v811h-345z" />
<glyph unicode="&#x443;" horiz-adv-x="1024" d="M23 971h213l288 -758h4l275 758h198l-460 -1180q-25 -63 -51.5 -115.5t-63.5 -89.5t-89 -57.5t-128 -20.5q-41 0 -83 5.5t-81 21.5l23 168q55 -23 110 -22q43 0 73 11t51.5 32.5t35.5 50t29 65.5l59 154z" />
<glyph unicode="&#x444;" horiz-adv-x="1402" d="M92 485q0 106 40 199.5t109.5 162t165 109.5t203.5 41v453h185v-453q109 0 203 -39.5t163.5 -109.5t109.5 -162t40 -199q0 -106 -40 -199t-109.5 -162t-164 -109t-202.5 -40v-555h-185v555l-2 -2q-109 0 -203 40t-163.5 109t-109.5 162t-40 199zM289 485q0 -74 22.5 -136 t63.5 -106t100.5 -70t132.5 -26l2 3l-2 673q-74 0 -133 -25.5t-100 -69.5t-63.5 -106.5t-22.5 -136.5zM795 150q74 0 133 25.5t100 69.5t63.5 106.5t22.5 135.5q0 74 -22.5 136.5t-63.5 106.5t-100.5 69.5t-132.5 25.5v-675z" />
<glyph unicode="&#x445;" horiz-adv-x="1062" d="M12 0l394 518l-345 453h238l236 -344l231 344h223l-332 -453l394 -518h-238l-287 408l-286 -408h-228z" />
<glyph unicode="&#x446;" horiz-adv-x="1099" d="M139 0v969h185v-809h432v809h184v-809h139v-398h-176v238h-764z" />
<glyph unicode="&#x447;" horiz-adv-x="980" d="M98 680v291h185v-291q0 -51 8 -84t29.5 -51.5t57.5 -24.5t91 -6q35 0 87 4t99 14v439h187v-971h-187v373q-55 -10 -116.5 -15.5t-106.5 -5.5q-96 0 -160.5 18.5t-103.5 58.5t-54.5 102.5t-15.5 148.5z" />
<glyph unicode="&#x448;" horiz-adv-x="1632" d="M139 0v971h185v-811h399v811h184v-811h402v811h184v-971h-1354z" />
<glyph unicode="&#x449;" horiz-adv-x="1652" d="M139 0v971h185v-811h399v811h184v-811h402v811h184v-811h139v-398h-176v238h-1317z" />
<glyph unicode="&#x44a;" horiz-adv-x="1079" d="M25 811v160h415v-369h181q119 0 193.5 -27.5t117.5 -71.5t58.5 -98.5t15.5 -105.5q0 -86 -30 -144.5t-82 -92t-123 -48t-153 -14.5h-362v811h-231zM440 158h170q25 0 61 2t68.5 15t56 42t23.5 82t-23.5 82t-57 43t-68.5 16t-58 2h-172v-284z" />
<glyph unicode="&#x44b;" horiz-adv-x="1329" d="M139 0v971h185v-369h180q119 0 193.5 -27.5t117.5 -71.5t58.5 -98.5t15.5 -105.5q0 -86 -30 -144.5t-82 -92t-122.5 -48t-152.5 -14.5h-363zM324 158h170q25 0 60.5 2t68 15t56 42t23.5 82t-23.5 82t-57 43t-68.5 16t-57 2h-172v-284zM1006 0v971h184v-971h-184z" />
<glyph unicode="&#x44c;" horiz-adv-x="962" d="M139 0v971h185v-369h180q119 0 193.5 -27.5t117.5 -71.5t58.5 -98.5t15.5 -105.5q0 -86 -30 -144.5t-82 -92t-122.5 -48t-152.5 -14.5h-363zM324 158h170q25 0 60.5 2t68 15t56 42t23.5 82t-23.5 82t-57 43t-68.5 16t-57 2h-172v-284z" />
<glyph unicode="&#x44d;" horiz-adv-x="987" d="M14 840q72 78 169.5 115.5t203.5 37.5q113 0 207 -37.5t160.5 -105.5t103.5 -162t37 -207t-37 -206t-104.5 -159.5t-160.5 -103.5t-206 -37q-106 0 -201.5 35t-167.5 115l132 131q47 -53 102 -81t133 -28q129 0 210 78t99 195h-415v158h409q-25 104 -97.5 173.5 t-195.5 69.5q-78 0 -134 -27.5t-107 -80.5z" />
<glyph unicode="&#x44e;" horiz-adv-x="1609" d="M139 0v971h185v-385h170q18 88 63 162.5t112.5 130t151.5 86t180 30.5q109 0 203 -40t164 -109.5t110 -161.5t40 -199q0 -106 -40 -199t-110 -162t-164 -109t-203 -40q-100 0 -189 35t-156.5 95.5t-111.5 142.5t-55 178h-165v-426h-185zM682 485q0 -74 22.5 -136 t63.5 -106t100.5 -70t132.5 -26q74 0 133.5 26t100.5 70t63.5 106.5t22.5 135.5q0 74 -22.5 136.5t-63.5 106.5t-100.5 69.5t-133.5 25.5t-133 -25.5t-100 -69.5t-63.5 -106.5t-22.5 -136.5z" />
<glyph unicode="&#x44f;" horiz-adv-x="1005" d="M31 0l282 401q-45 10 -85 32t-70.5 55.5t-48 79.5t-17.5 108q0 53 17.5 106.5t58.5 95.5t111.5 67.5t179.5 25.5h407v-971h-184v381h-170l-266 -381h-215zM279 676q0 -47 22.5 -75t53 -42t64.5 -17t58 -3h205v274h-205q-25 0 -58.5 -3t-64 -17.5t-53 -41t-22.5 -75.5z " />
<glyph unicode="&#x451;" d="M82 485q0 109 38 202t104.5 162t158.5 107.5t201 38.5q129 0 218 -45t146.5 -117.5t83 -163.5t25.5 -186v-65h-778q0 -63 27.5 -115.5t72.5 -89.5t104.5 -57.5t122.5 -20.5q86 0 149.5 40t116.5 106l140 -107q-154 -199 -430 -199q-115 0 -208 39t-157.5 107.5t-99.5 162 t-35 201.5zM233 1346q0 51 40 83.5t87 32.5t87 -32.5t40 -83.5q0 -55 -35.5 -92t-91.5 -37q-55 0 -91 36.5t-36 92.5zM279 565h581q-2 61 -19.5 112.5t-52 89.5t-87 59.5t-121.5 21.5q-68 0 -124.5 -25.5t-95 -66.5t-60 -91.5t-21.5 -99.5zM651 1346q0 51 40 83.5t87 32.5 t87 -32.5t40 -83.5q0 -55 -35.5 -92t-91.5 -37q-55 0 -91 36.5t-36 92.5z" />
<glyph unicode="&#x452;" horiz-adv-x="1091" d="M12 1118v158h127v176h185v-176h438v-158h-438v-297h4q35 78 121 126t198 48q113 0 181.5 -41t106.5 -105.5t51 -146t13 -161.5q0 -129 -21.5 -241t-67.5 -211t-118.5 -192.5t-177.5 -185.5q-29 27 -55.5 52.5t-54.5 50.5q63 72 112.5 135t83.5 121q66 106 90.5 229 t24.5 240q0 137 -54 210.5t-167 73.5q-57 0 -106.5 -18.5t-86 -58t-57 -101t-20.5 -145.5v-500h-185v1118h-127z" />
<glyph unicode="&#x453;" horiz-adv-x="761" d="M139 0v971h592v-160h-407v-811h-185zM227 1155l213 295h262l-305 -295h-170z" />
<glyph unicode="&#x454;" horiz-adv-x="987" d="M92 481q0 113 37 207t103.5 162t159.5 105.5t208 37.5q106 0 203.5 -37.5t169.5 -115.5l-139 -127q-51 53 -107.5 80.5t-134.5 27.5q-123 0 -195.5 -69.5t-97.5 -173.5h410v-158h-416q18 -117 99 -195t210 -78q78 0 133.5 28t102.5 81l131 -131q-72 -80 -167 -115 t-202 -35q-113 0 -206 37t-160.5 103.5t-104.5 160t-37 205.5z" />
<glyph unicode="&#x455;" horiz-adv-x="909" d="M57 147l140 115q45 -45 100 -80t135 -35q35 0 71 7.5t63.5 23t45 39t17.5 53.5q0 41 -25.5 68t-61.5 42t-76 24.5t-71 15.5q-59 14 -112.5 32.5t-94.5 49t-65.5 78t-24.5 116.5q0 76 32 132.5t84 93t118.5 55t134.5 18.5q98 0 188 -36.5t144 -122.5l-144 -109 q-33 41 -81 68.5t-117 27.5q-66 0 -114 -27.5t-48 -80.5q0 -43 27.5 -70t65.5 -43t81 -24.5t74 -14.5q59 -14 111.5 -34.5t90 -53.5t59 -80t21.5 -114q0 -82 -34.5 -140.5t-90 -95.5t-126 -53.5t-142.5 -16.5q-121 0 -212 37t-163 135z" />
<glyph unicode="&#x456;" horiz-adv-x="491" d="M111 1319q0 55 39.5 95t95.5 40q55 0 95 -40t40 -95t-40 -95t-95 -40t-95 40t-40 95zM154 0v971h184v-971h-184z" />
<glyph unicode="&#x457;" horiz-adv-x="491" d="M-90 1346q0 51 40 83.5t87 32.5t87 -32.5t40 -83.5q0 -55 -36 -92t-91 -37t-91 36.5t-36 92.5zM154 0v971h184v-971h-184zM328 1346q0 51 40 83.5t87 32.5t87 -32.5t40 -83.5q0 -55 -36 -92t-91 -37t-91 36.5t-36 92.5z" />
<glyph unicode="&#x458;" horiz-adv-x="491" d="M-78 -473l21 170q16 -6 36.5 -11t38.5 -5q76 0 106 48t30 140v1102h184v-1110q0 -37 -5 -97.5t-33 -117t-88 -97.5t-171 -41q-31 0 -60.5 4.5t-58.5 14.5zM111 1319q0 55 39.5 95t95.5 40q55 0 95 -40t40 -95t-40 -95t-95 -40t-95 40t-40 95z" />
<glyph unicode="&#x459;" horiz-adv-x="1556" d="M10 0v160q63 0 100 15t55.5 44t24 69t5.5 89v594h723v-369h180q119 0 193.5 -27.5t117.5 -71.5t58.5 -98.5t15.5 -105.5q0 -86 -30 -144.5t-82 -92t-122.5 -48t-152.5 -14.5h-363v811h-354v-516q0 -55 -16.5 -109.5t-58.5 -95.5t-113.5 -65.5t-180.5 -24.5zM918 158h169 q25 0 61 2t68.5 15t56 42t23.5 82t-23.5 82t-57 43t-68.5 16t-57 2h-172v-284z" />
<glyph unicode="&#x45a;" horiz-adv-x="1630" d="M139 0v971h185v-369h483v369h182h2v-369h180q119 0 194 -27.5t118 -71.5t58 -98.5t15 -105.5q0 -86 -29.5 -144.5t-81.5 -92t-123 -48t-153 -14.5h-362v442h-483v-442h-185zM991 158h170q25 0 60.5 2t68.5 15t56.5 42t23.5 82t-23.5 82t-57.5 43t-68.5 16t-57.5 2h-172 v-284z" />
<glyph unicode="&#x45b;" d="M12 1118v158h127v176h185v-176h438v-158h-438v-297h4q35 78 121 126t198 48q70 0 134.5 -21.5t112.5 -66.5t76.5 -115.5t28.5 -166.5v-625h-184v573q0 68 -18.5 116t-49 78t-70.5 43t-83 13q-57 0 -106.5 -18.5t-86 -58t-57 -101t-20.5 -145.5v-500h-185v1118h-127z" />
<glyph unicode="&#x45c;" horiz-adv-x="1026" d="M139 0v971h185v-430l421 430h230l-443 -447l482 -524h-242l-448 494v-494h-185zM317 1155l213 295h263l-306 -295h-170z" />
<glyph unicode="&#x45e;" horiz-adv-x="1024" d="M23 971h213l288 -758h4l275 758h198l-460 -1180q-25 -63 -51.5 -115.5t-63.5 -89.5t-89 -57.5t-128 -20.5q-41 0 -83 5.5t-81 21.5l23 168q55 -23 110 -22q43 0 73 11t51.5 32.5t35.5 50t29 65.5l59 154zM205 1438h112q14 -78 75 -113t136 -35q76 0 136.5 35t74.5 113 h109q-10 -141 -98 -212t-224 -71q-135 0 -223 70.5t-98 212.5z" />
<glyph unicode="&#x45f;" horiz-adv-x="1079" d="M139 0v971h185v-811h432v811h184v-971h-313v-238h-174v238h-314z" />
<glyph unicode="&#x490;" horiz-adv-x="978" d="M186 -4v1454h578v231h192v-415h-573v-1270h-197z" />
<glyph unicode="&#x491;" horiz-adv-x="761" d="M139 0v971h416v235h182v-395h-413v-811h-185z" />
<glyph unicode="&#x1e80;" horiz-adv-x="1970" d="M2 1450h205l319 -1159h4l342 1159h226l342 -1159h4l319 1159h205l-422 -1450h-207l-352 1184h-4l-350 -1184h-207zM670 1839h227l207 -293h-143z" />
<glyph unicode="&#x1e81;" horiz-adv-x="1554" d="M23 971h206l220 -725h4l231 725h195l245 -725h4l209 725h195l-313 -971h-187l-256 725h-4l-231 -725h-199zM449 1448h227q51 -74 102 -147.5t103 -145.5h-142q-74 72 -146.5 145.5t-143.5 147.5z" />
<glyph unicode="&#x1e82;" horiz-adv-x="1970" d="M2 1450h205l319 -1159h4l342 1159h226l342 -1159h4l319 1159h205l-422 -1450h-207l-352 1184h-4l-350 -1184h-207zM874 1546q51 72 102.5 145.5t102.5 147.5h228q-72 -74 -144.5 -147.5t-146.5 -145.5h-142z" />
<glyph unicode="&#x1e83;" horiz-adv-x="1554" d="M23 971h206l220 -725h4l231 725h195l245 -725h4l209 725h195l-313 -971h-187l-256 725h-4l-231 -725h-199zM686 1153q53 74 103.5 147.5t103.5 145.5h227q-74 -72 -146.5 -145.5t-144.5 -147.5h-143z" />
<glyph unicode="&#x1e84;" horiz-adv-x="1970" d="M2 1450h205l319 -1159h4l342 1159h226l342 -1159h4l319 1159h205l-422 -1450h-207l-352 1184h-4l-350 -1184h-207zM653 1722q0 51 40 84t87 33t87 -32.5t40 -84.5q0 -55 -35.5 -92t-91.5 -37q-55 0 -91 37t-36 92zM1071 1722q0 51 40 84t87 33t87 -32.5t40 -84.5 q0 -55 -36 -92t-91 -37t-91 37t-36 92z" />
<glyph unicode="&#x1e85;" horiz-adv-x="1554" d="M23 971h206l220 -725h4l231 725h195l245 -725h4l209 725h195l-313 -971h-187l-256 725h-4l-231 -725h-199zM436 1346q0 51 40 83.5t87 32.5t87 -32.5t40 -83.5q0 -55 -36 -92t-91 -37t-91 36.5t-36 92.5zM854 1346q0 51 40 83.5t87 32.5t87 -32.5t40 -83.5q0 -55 -36 -92 t-91 -37t-91 36.5t-36 92.5z" />
<glyph unicode="&#x1ea0;" horiz-adv-x="1441" d="M2 0l639 1450h178l621 -1450h-230l-145 358h-690l-144 -358h-229zM444 530h549l-270 666h-4zM598 -236q0 51 36 88t89 37t91 -35.5t38 -89.5q0 -55 -37 -93t-90 -38t-90 39t-37 92z" />
<glyph unicode="&#x1ea1;" horiz-adv-x="1062" d="M92 266q0 94 42 157.5t115 103.5t170 57.5t208 17.5h135v41q0 37 -14.5 74t-43 66.5t-71.5 47t-103 17.5q-53 0 -93 -10.5t-72.5 -25.5t-59 -35.5t-51.5 -39.5l-111 115q78 72 180.5 107.5t204.5 35.5q106 0 183 -26.5t126.5 -71.5t73 -103.5t23.5 -121.5v-496 q0 -51 2 -94t6 -82h-164q-6 74 -6 147h-4q-61 -94 -145 -133t-195 -39q-68 0 -129 18.5t-107.5 55.5t-73 91.5t-26.5 125.5zM276 281q0 -84 56.5 -121t152.5 -37q76 0 129.5 25.5t86 66.5t47 91t14.5 100v61h-98q-66 0 -134.5 -7t-125 -27.5t-92.5 -57.5t-36 -94zM410 -236 q0 51 36.5 89t90.5 38q53 0 91 -36.5t38 -90.5q0 -53 -37 -91t-92 -38q-53 0 -90 38t-37 91z" />
<glyph unicode="&#x1ea2;" horiz-adv-x="1441" d="M2 0l639 1450h178l621 -1450h-230l-145 358h-690l-144 -358h-229zM444 530h549l-270 666h-4zM594 1853v113q20 8 48 13.5t58 5.5q53 0 94.5 -15.5t69 -41t41 -58.5t13.5 -68q0 -53 -29 -98t-94 -78h-2v-92h-134v152q57 12 86 41.5t29 68.5q0 35 -29.5 55.5t-72.5 20.5 q-25 0 -41.5 -4t-36.5 -15z" />
<glyph unicode="&#x1ea3;" horiz-adv-x="1062" d="M92 266q0 94 42 157.5t115 103.5t170 57.5t208 17.5h135v41q0 37 -14.5 74t-43 66.5t-71.5 47t-103 17.5q-53 0 -93 -10.5t-72.5 -25.5t-59 -35.5t-51.5 -39.5l-111 115q78 72 180.5 107.5t204.5 35.5q106 0 183 -26.5t126.5 -71.5t73 -103.5t23.5 -121.5v-496 q0 -51 2 -94t6 -82h-164q-6 74 -6 147h-4q-61 -94 -145 -133t-195 -39q-68 0 -129 18.5t-107.5 55.5t-73 91.5t-26.5 125.5zM276 281q0 -84 56.5 -121t152.5 -37q76 0 129.5 25.5t86 66.5t47 91t14.5 100v61h-98q-66 0 -134.5 -7t-125 -27.5t-92.5 -57.5t-36 -94zM410 1425 v113q20 8 47.5 13t58.5 5q109 0 163 -53t54 -123q0 -53 -28.5 -96t-94.5 -74h-2v-92h-135v152q115 29 115 104q0 37 -29 53.5t-72 16.5q-25 0 -41 -4t-36 -15z" />
<glyph unicode="&#x1ea4;" horiz-adv-x="1441" d="M2 0l639 1450h178l621 -1450h-230l-145 358h-690l-144 -358h-229zM260 1554q53 68 104.5 136.5t104.5 136.5h182q53 -68 104.5 -136.5t104.5 -136.5h-160q-35 45 -69.5 90.5t-69.5 90.5q-35 -45 -70.5 -90.5t-70.5 -90.5h-160zM444 530h549l-270 666h-4zM809 1665 l180 246h195l-230 -246h-145z" />
<glyph unicode="&#x1ea5;" horiz-adv-x="1062" d="M92 266q0 94 42 157.5t115 103.5t170 57.5t208 17.5h135v41q0 37 -14.5 74t-43 66.5t-71.5 47t-103 17.5q-53 0 -93 -10.5t-72.5 -25.5t-59 -35.5t-51.5 -39.5l-111 115q78 72 180.5 107.5t204.5 35.5q106 0 183 -26.5t126.5 -71.5t73 -103.5t23.5 -121.5v-496 q0 -51 2 -94t6 -82h-164q-6 74 -6 147h-4q-61 -94 -145 -133t-195 -39q-68 0 -129 18.5t-107.5 55.5t-73 91.5t-26.5 125.5zM92 1155q53 68 104.5 136.5t104.5 135.5h182q53 -68 104.5 -136t104.5 -136h-160q-35 45 -69.5 90t-69.5 90q-35 -45 -70.5 -90t-70.5 -90h-160z M276 281q0 -84 56.5 -121t152.5 -37q76 0 129.5 25.5t86 66.5t47 91t14.5 100v61h-98q-66 0 -134.5 -7t-125 -27.5t-92.5 -57.5t-36 -94zM641 1266l180 245h195l-230 -245h-145z" />
<glyph unicode="&#x1ea6;" horiz-adv-x="1441" d="M2 0l639 1450h178l621 -1450h-230l-145 358h-690l-144 -358h-229zM258 1911h195l180 -246h-146zM444 530h549l-270 666h-4zM582 1554q53 68 104 136.5t105 136.5h182q53 -68 104 -136.5t105 -136.5h-160q-35 45 -71 90.5t-70 90.5q-35 -45 -70 -90.5t-70 -90.5h-159z" />
<glyph unicode="&#x1ea7;" horiz-adv-x="1062" d="M43 1511h195l180 -245h-146zM92 266q0 94 42 157.5t115 103.5t170 57.5t208 17.5h135v41q0 37 -14.5 74t-43 66.5t-71.5 47t-103 17.5q-53 0 -93 -10.5t-72.5 -25.5t-59 -35.5t-51.5 -39.5l-111 115q78 72 180.5 107.5t204.5 35.5q106 0 183 -26.5t126.5 -71.5t73 -103.5 t23.5 -121.5v-496q0 -51 2 -94t6 -82h-164q-6 74 -6 147h-4q-61 -94 -145 -133t-195 -39q-68 0 -129 18.5t-107.5 55.5t-73 91.5t-26.5 125.5zM276 281q0 -84 56.5 -121t152.5 -37q76 0 129.5 25.5t86 66.5t47 91t14.5 100v61h-98q-66 0 -134.5 -7t-125 -27.5t-92.5 -57.5 t-36 -94zM367 1155q53 68 104 136.5t104 135.5h183q53 -68 104 -136t105 -136h-160q-35 45 -71 90t-70 90l-70 -90l-70 -90h-159z" />
<glyph unicode="&#x1ea8;" horiz-adv-x="1441" d="M2 0l639 1450h178l621 -1450h-230l-145 358h-690l-144 -358h-229zM254 1556q53 68 105.5 135.5t105.5 137.5h182q53 -70 104.5 -137.5t104.5 -135.5h-166l-141 179l-141 -179h-154zM444 530h549l-270 666h-4zM827 1812v107q20 8 47 13t56 5q104 0 155.5 -51t51.5 -119 q0 -47 -28 -89t-91 -70v-84h-129v139q109 25 108 96q0 41 -28.5 56.5t-69.5 15.5t-72 -19z" />
<glyph unicode="&#x1ea9;" horiz-adv-x="1062" d="M92 266q0 94 42 157.5t115 103.5t170 57.5t208 17.5h135v41q0 37 -14.5 74t-43 66.5t-71.5 47t-103 17.5q-53 0 -93 -10.5t-72.5 -25.5t-59 -35.5t-51.5 -39.5l-111 115q78 72 180.5 107.5t204.5 35.5q106 0 183 -26.5t126.5 -71.5t73 -103.5t23.5 -121.5v-496 q0 -51 2 -94t6 -82h-164q-6 74 -6 147h-4q-61 -94 -145 -133t-195 -39q-68 0 -129 18.5t-107.5 55.5t-73 91.5t-26.5 125.5zM109 1155q53 68 105 135.5t105 134.5h181q53 -68 105 -135t106 -135h-168q-35 45 -70 89t-70 89l-141 -178h-153zM276 281q0 -84 56.5 -121 t152.5 -37q76 0 129.5 25.5t86 66.5t47 91t14.5 100v61h-98q-66 0 -134.5 -7t-125 -27.5t-92.5 -57.5t-36 -94zM682 1409v109q20 8 47 13t55 5q104 0 154.5 -51t50.5 -119q0 -47 -27.5 -89t-89.5 -71v-84h-129v140q109 25 109 96q0 41 -28.5 56.5t-69.5 15.5q-37 0 -72 -21z " />
<glyph unicode="&#x1eaa;" horiz-adv-x="1441" d="M2 0l639 1450h178l621 -1450h-230l-145 358h-690l-144 -358h-229zM82 1556q53 68 105.5 135.5t105.5 137.5h180q53 -70 104.5 -137.5t104.5 -135.5h-166l-141 179l-142 -179h-151zM444 530h549l-270 666h-4zM711 1556q4 39 17 79t36 71q25 33 56.5 53.5t72.5 20.5 q29 0 55.5 -9.5t61.5 -25.5q10 -4 18 -8t19 -8q27 -14 52 -24.5t50 -10.5q37 0 56.5 23.5t29.5 62.5h88q-4 -39 -16.5 -77t-32.5 -69q-20 -33 -50 -51t-75 -20q-35 0 -67.5 11t-73.5 30q-39 16 -68 29.5t-57 13.5q-16 0 -23 -5q-29 -8 -43 -30.5t-24 -55.5h-82z" />
<glyph unicode="&#x1eab;" horiz-adv-x="1062" d="M92 266q0 94 42 157.5t115 103.5t170 57.5t208 17.5h135v41q0 37 -14.5 74t-43 66.5t-71.5 47t-103 17.5q-53 0 -93 -10.5t-72.5 -25.5t-59 -35.5t-51.5 -39.5l-111 115q78 72 180.5 107.5t204.5 35.5q106 0 183 -26.5t126.5 -71.5t73 -103.5t23.5 -121.5v-496 q0 -51 2 -94t6 -82h-164q-6 74 -6 147h-4q-61 -94 -145 -133t-195 -39q-68 0 -129 18.5t-107.5 55.5t-73 91.5t-26.5 125.5zM244 1128q53 68 105 136.5t106 136.5h182q53 -68 104.5 -136.5t104.5 -136.5h-166q-35 45 -71 90.5t-70 90.5q-35 -45 -71 -90t-71 -91h-153z M250 1427q4 37 18.5 76t36.5 68q25 33 56.5 51t72.5 18q29 0 55.5 -7t61.5 -23q10 -4 18.5 -8.5t18.5 -8.5q27 -14 52.5 -24t47.5 -10q39 0 58.5 22.5t29.5 58.5h88q-6 -37 -17 -73.5t-32 -65.5q-20 -31 -50 -48t-75 -19q-35 0 -67.5 11t-75.5 30q-39 16 -66.5 28.5 t-56.5 12.5q-37 0 -58.5 -26t-31.5 -63h-84zM276 281q0 -84 56.5 -121t152.5 -37q76 0 129.5 25.5t86 66.5t47 91t14.5 100v61h-98q-66 0 -134.5 -7t-125 -27.5t-92.5 -57.5t-36 -94z" />
<glyph unicode="&#x1eac;" horiz-adv-x="1441" d="M2 0l639 1450h178l621 -1450h-230l-145 358h-690l-144 -358h-229zM414 1559l225 282h192l222 -282h-174l-152 188l-152 -188h-161zM444 530h549l-270 666h-4zM598 -236q0 51 36 88t89 37t91 -35.5t38 -89.5q0 -55 -37 -93t-90 -38t-90 39t-37 92z" />
<glyph unicode="&#x1ead;" horiz-adv-x="1062" d="M92 266q0 94 42 157.5t115 103.5t170 57.5t208 17.5h135v41q0 37 -14.5 74t-43 66.5t-71.5 47t-103 17.5q-53 0 -93 -10.5t-72.5 -25.5t-59 -35.5t-51.5 -39.5l-111 115q78 72 180.5 107.5t204.5 35.5q106 0 183 -26.5t126.5 -71.5t73 -103.5t23.5 -121.5v-496 q0 -51 2 -94t6 -82h-164q-6 74 -6 147h-4q-61 -94 -145 -133t-195 -39q-68 0 -129 18.5t-107.5 55.5t-73 91.5t-26.5 125.5zM227 1155q55 70 110.5 140.5t113.5 142.5h192q55 -72 110.5 -142.5t112.5 -140.5h-176q-39 47 -75.5 94t-75.5 94q-72 -92 -152 -188h-160zM276 281 q0 -84 56.5 -121t152.5 -37q76 0 129.5 25.5t86 66.5t47 91t14.5 100v61h-98q-66 0 -134.5 -7t-125 -27.5t-92.5 -57.5t-36 -94zM410 -236q0 51 36.5 89t90.5 38q53 0 91 -36.5t38 -90.5q0 -53 -37 -91t-92 -38q-53 0 -90 38t-37 91z" />
<glyph unicode="&#x1eae;" horiz-adv-x="1441" d="M2 0l639 1450h178l621 -1450h-230l-145 358h-690l-144 -358h-229zM430 1798h105q14 -76 69 -108.5t125 -32.5q86 0 137.5 31.5t69.5 109.5h106q-16 -129 -102 -192.5t-215 -63.5t-208 65.5t-87 190.5zM444 530h549l-270 666h-4zM625 1724q41 55 79.5 110.5t79.5 113.5 h201q-104 -115 -211 -224h-149z" />
<glyph unicode="&#x1eaf;" horiz-adv-x="1062" d="M92 266q0 94 42 157.5t115 103.5t170 57.5t208 17.5h135v41q0 37 -14.5 74t-43 66.5t-71.5 47t-103 17.5q-53 0 -93 -10.5t-72.5 -25.5t-59 -35.5t-51.5 -39.5l-111 115q78 72 180.5 107.5t204.5 35.5q106 0 183 -26.5t126.5 -71.5t73 -103.5t23.5 -121.5v-496 q0 -51 2 -94t6 -82h-164q-6 74 -6 147h-4q-61 -94 -145 -133t-195 -39q-68 0 -129 18.5t-107.5 55.5t-73 91.5t-26.5 125.5zM242 1413h104q14 -76 69.5 -109.5t125.5 -33.5q86 0 137 32.5t70 110.5h104q-16 -129 -101 -193.5t-214 -64.5t-208 65.5t-87 192.5zM276 281 q0 -84 56.5 -121t152.5 -37q76 0 129.5 25.5t86 66.5t47 91t14.5 100v61h-98q-66 0 -134.5 -7t-125 -27.5t-92.5 -57.5t-36 -94zM436 1337q41 57 80 112.5t80 111.5h201q-53 -55 -105.5 -110.5t-105.5 -113.5h-150z" />
<glyph unicode="&#x1eb0;" horiz-adv-x="1441" d="M2 0l639 1450h178l621 -1450h-230l-145 358h-690l-144 -358h-229zM424 1798h106q16 -80 69.5 -110.5t129.5 -30.5q80 0 133 33.5t70 107.5h104q-10 -129 -96 -192.5t-215 -63.5t-208 65.5t-93 190.5zM444 530h549l-270 666h-4zM483 1948h201l160 -226h-150z" />
<glyph unicode="&#x1eb1;" horiz-adv-x="1062" d="M92 266q0 94 42 157.5t115 103.5t170 57.5t208 17.5h135v41q0 37 -14.5 74t-43 66.5t-71.5 47t-103 17.5q-53 0 -93 -10.5t-72.5 -25.5t-59 -35.5t-51.5 -39.5l-111 115q78 72 180.5 107.5t204.5 35.5q106 0 183 -26.5t126.5 -71.5t73 -103.5t23.5 -121.5v-496 q0 -51 2 -94t6 -82h-164q-6 74 -6 147h-4q-61 -94 -145 -133t-195 -39q-68 0 -129 18.5t-107.5 55.5t-73 91.5t-26.5 125.5zM244 1411h106q16 -80 69.5 -110.5t129.5 -30.5q80 0 133 34.5t70 106.5h104q-10 -129 -97 -192.5t-214 -63.5q-129 0 -209 65.5t-92 190.5zM276 281 q0 -84 56.5 -121t152.5 -37q76 0 129.5 25.5t86 66.5t47 91t14.5 100v61h-98q-66 0 -134.5 -7t-125 -27.5t-92.5 -57.5t-36 -94zM301 1561h201q41 -57 80 -112.5t80 -111.5h-150q-53 55 -105.5 110.5t-105.5 113.5z" />
<glyph unicode="&#x1eb2;" horiz-adv-x="1441" d="M2 0l639 1450h178l621 -1450h-230l-145 358h-690l-144 -358h-229zM426 1788h106q16 -80 69.5 -110.5t129.5 -30.5q80 0 133.5 33.5t69.5 107.5h104q-10 -129 -97 -193.5t-214 -64.5q-129 0 -209 66.5t-92 191.5zM444 530h549l-270 666h-4zM602 1935v97q18 6 44 10t50 4 q100 0 149.5 -45t49.5 -109q0 -94 -113 -149q0 -12 1 -24.5t1 -26.5h-122v98q102 25 102 94q0 39 -27.5 52.5t-60.5 13.5q-39 0 -74 -15z" />
<glyph unicode="&#x1eb3;" horiz-adv-x="1062" d="M92 266q0 94 42 157.5t115 103.5t170 57.5t208 17.5h135v41q0 37 -14.5 74t-43 66.5t-71.5 47t-103 17.5q-53 0 -93 -10.5t-72.5 -25.5t-59 -35.5t-51.5 -39.5l-111 115q78 72 180.5 107.5t204.5 35.5q106 0 183 -26.5t126.5 -71.5t73 -103.5t23.5 -121.5v-496 q0 -51 2 -94t6 -82h-164q-6 74 -6 147h-4q-61 -94 -145 -133t-195 -39q-68 0 -129 18.5t-107.5 55.5t-73 91.5t-26.5 125.5zM246 1384h106q16 -78 69.5 -109.5t129.5 -31.5q80 0 133 35t70 106h104q-10 -129 -96 -192.5t-215 -63.5t-208 66t-93 190zM276 281 q0 -84 56.5 -121t152.5 -37q76 0 129.5 25.5t86 66.5t47 91t14.5 100v61h-98q-66 0 -134.5 -7t-125 -27.5t-92.5 -57.5t-36 -94zM422 1532v96q39 16 96 17q98 0 147.5 -46.5t49.5 -107.5q0 -96 -113 -150q0 -12 1 -25t1 -26h-123v96q51 14 78 37t27 60q0 33 -24.5 49 t-57.5 16q-45 0 -82 -16z" />
<glyph unicode="&#x1eb4;" horiz-adv-x="1441" d="M2 0l639 1450h178l621 -1450h-230l-145 358h-690l-144 -358h-229zM424 1786h106q16 -78 69.5 -109.5t129.5 -31.5q80 0 133 34.5t70 106.5h104q-10 -129 -96 -192.5t-215 -63.5t-208 65.5t-93 190.5zM440 1817q4 37 17.5 74.5t36.5 66.5t53.5 48t70.5 19q29 0 54.5 -7 t60.5 -23q10 -4 18.5 -8.5t16.5 -8.5q25 -14 50.5 -23t47.5 -9q35 0 54.5 22.5t27.5 56.5h88q-6 -35 -17 -71.5t-30 -65.5q-23 -27 -51.5 -46t-71.5 -19q-35 2 -66.5 12t-72.5 27q-37 16 -64.5 28.5t-54.5 12.5q-10 0 -22 -5q-27 -8 -41.5 -29.5t-22.5 -51.5h-82zM444 530 h549l-270 666h-4z" />
<glyph unicode="&#x1eb5;" horiz-adv-x="1062" d="M92 266q0 94 42 157.5t115 103.5t170 57.5t208 17.5h135v41q0 37 -14.5 74t-43 66.5t-71.5 47t-103 17.5q-53 0 -93 -10.5t-72.5 -25.5t-59 -35.5t-51.5 -39.5l-111 115q78 72 180.5 107.5t204.5 35.5q106 0 183 -26.5t126.5 -71.5t73 -103.5t23.5 -121.5v-496 q0 -51 2 -94t6 -82h-164q-6 74 -6 147h-4q-61 -94 -145 -133t-195 -39q-68 0 -129 18.5t-107.5 55.5t-73 91.5t-26.5 125.5zM244 1384h104q18 -78 70.5 -109.5t128.5 -31.5q82 0 134 35t69 106h106q-12 -129 -97 -192.5t-214 -63.5t-209 66t-92 190zM258 1415q4 37 18.5 75 t37 67.5t53 48t69.5 18.5q29 0 54.5 -7t60.5 -24q10 -4 18.5 -8t16.5 -8q27 -14 51.5 -23.5t46.5 -9.5q37 0 55.5 22.5t28.5 57.5h86q-6 -35 -16.5 -71.5t-30.5 -65.5q-18 -27 -49 -46.5t-74 -19.5q-35 0 -65.5 11.5t-71.5 27.5q-39 16 -65.5 28.5t-55.5 12.5q-10 0 -23 -4 q-27 -8 -41 -29.5t-22 -52.5h-82zM276 281q0 -84 56.5 -121t152.5 -37q76 0 129.5 25.5t86 66.5t47 91t14.5 100v61h-98q-66 0 -134.5 -7t-125 -27.5t-92.5 -57.5t-36 -94z" />
<glyph unicode="&#x1eb6;" horiz-adv-x="1441" d="M2 0l639 1450h178l621 -1450h-230l-145 358h-690l-144 -358h-229zM428 1808h102q12 -80 70.5 -114.5t128.5 -34.5q90 0 141.5 32.5t69.5 116.5h102q-16 -135 -101 -200.5t-216 -65.5q-129 0 -208 68.5t-89 197.5zM444 530h549l-270 666h-4zM598 -236q0 51 36 88t89 37 t91 -35.5t38 -89.5q0 -55 -37 -93t-90 -38t-90 39t-37 92z" />
<glyph unicode="&#x1eb7;" horiz-adv-x="1062" d="M92 266q0 94 42 157.5t115 103.5t170 57.5t208 17.5h135v41q0 37 -14.5 74t-43 66.5t-71.5 47t-103 17.5q-53 0 -93 -10.5t-72.5 -25.5t-59 -35.5t-51.5 -39.5l-111 115q78 72 180.5 107.5t204.5 35.5q106 0 183 -26.5t126.5 -71.5t73 -103.5t23.5 -121.5v-496 q0 -51 2 -94t6 -82h-164q-6 74 -6 147h-4q-61 -94 -145 -133t-195 -39q-68 0 -129 18.5t-107.5 55.5t-73 91.5t-26.5 125.5zM238 1421h102q12 -80 69.5 -114.5t129.5 -34.5q88 0 140 33.5t71 115.5h100q-16 -135 -101 -200.5t-214 -65.5t-208 68.5t-89 197.5zM276 281 q0 -84 56.5 -121t152.5 -37q76 0 129.5 25.5t86 66.5t47 91t14.5 100v61h-98q-66 0 -134.5 -7t-125 -27.5t-92.5 -57.5t-36 -94zM408 -236q0 51 35.5 89t88.5 38t92.5 -36.5t39.5 -90.5q0 -53 -37 -91t-92 -38q-53 0 -90 38t-37 91z" />
<glyph unicode="&#x1eb8;" horiz-adv-x="1251" d="M186 0v1450h936v-184h-739v-432h688v-185h-688v-465h776v-184h-973zM543 -236q0 51 35.5 88t89.5 37q53 0 92 -35.5t39 -89.5q0 -55 -37 -93t-92 -38q-53 0 -90 39t-37 92z" />
<glyph unicode="&#x1eb9;" d="M82 485q0 109 38 202t104.5 162t158.5 107.5t201 38.5q129 0 218 -45t146.5 -117.5t83 -163.5t25.5 -186v-65h-778q0 -63 27.5 -115.5t72.5 -89.5t104.5 -57.5t122.5 -20.5q86 0 149.5 40t116.5 106l140 -107q-154 -199 -430 -199q-115 0 -208 39t-157.5 107.5t-99.5 162 t-35 201.5zM279 565h581q-2 61 -19.5 112.5t-52 89.5t-87 59.5t-121.5 21.5q-68 0 -124.5 -25.5t-95 -66.5t-60 -91.5t-21.5 -99.5zM467 -236q0 51 36 88t89 37t91 -35.5t38 -89.5q0 -55 -37 -93t-90 -38t-90 39t-37 92z" />
<glyph unicode="&#x1eba;" horiz-adv-x="1251" d="M186 0v1450h936v-184h-739v-432h688v-185h-688v-465h776v-184h-973zM502 1843v111q23 8 49.5 13t56.5 5q111 0 165 -55t54 -125q0 -106 -122 -166h-5v-92h-133v152q115 25 115 104q0 35 -29.5 53.5t-70.5 18.5q-35 0 -56 -11q-16 -4 -24 -8z" />
<glyph unicode="&#x1ebb;" d="M82 485q0 109 38 202t104.5 162t158.5 107.5t201 38.5q129 0 218 -45t146.5 -117.5t83 -163.5t25.5 -186v-65h-778q0 -63 27.5 -115.5t72.5 -89.5t104.5 -57.5t122.5 -20.5q86 0 149.5 40t116.5 106l140 -107q-154 -199 -430 -199q-115 0 -208 39t-157.5 107.5t-99.5 162 t-35 201.5zM279 565h581q-2 61 -19.5 112.5t-52 89.5t-87 59.5t-121.5 21.5q-68 0 -124.5 -25.5t-95 -66.5t-60 -91.5t-21.5 -99.5zM459 1430v110q20 8 48 13.5t58 5.5q109 0 163 -53.5t54 -123.5q0 -53 -28.5 -96t-94.5 -72h-2v-94h-133v152q115 29 115 104 q0 37 -29.5 54.5t-72.5 17.5q-29 0 -56 -10q-6 -2 -11 -4t-11 -4z" />
<glyph unicode="&#x1ebc;" horiz-adv-x="1251" d="M186 0v1450h936v-184h-739v-432h688v-185h-688v-465h776v-184h-973zM332 1554q4 37 18.5 76t40.5 70q27 33 61.5 52.5t79.5 19.5q31 0 60 -8.5t65 -24.5q10 -4 20.5 -8.5t20.5 -8.5q29 -14 55.5 -24t51.5 -10q41 0 61.5 23.5t30.5 60.5h98q-6 -37 -18 -74t-33.5 -68 t-55.5 -50t-83 -19q-37 0 -72 11t-82 30q-41 16 -71.5 28t-61.5 12q-16 0 -22 -4q-31 -8 -47.5 -30.5t-24.5 -53.5h-92z" />
<glyph unicode="&#x1ebd;" d="M82 485q0 109 38 202t104.5 162t158.5 107.5t201 38.5q129 0 218 -45t146.5 -117.5t83 -163.5t25.5 -186v-65h-778q0 -63 27.5 -115.5t72.5 -89.5t104.5 -57.5t122.5 -20.5q86 0 149.5 40t116.5 106l140 -107q-154 -199 -430 -199q-115 0 -208 39t-157.5 107.5t-99.5 162 t-35 201.5zM264 1176q4 37 18.5 75.5t41.5 69.5q27 33 61.5 52.5t79.5 19.5q31 0 59.5 -8.5t65.5 -24.5q10 -4 20.5 -8t20.5 -9q29 -14 55.5 -24t50.5 -10q41 0 61.5 23.5t30.5 60.5h99q-6 -37 -18.5 -74t-34 -67.5t-55.5 -50t-83 -19.5q-37 0 -71.5 11t-81.5 30 q-41 16 -72 29.5t-61 13.5q-14 0 -23 -6q-31 -8 -47 -31t-25 -53h-92zM279 565h581q-2 61 -19.5 112.5t-52 89.5t-87 59.5t-121.5 21.5q-68 0 -124.5 -25.5t-95 -66.5t-60 -91.5t-21.5 -99.5z" />
<glyph unicode="&#x1ebe;" horiz-adv-x="1251" d="M186 0v1450h936v-184h-739v-432h688v-185h-688v-465h776v-184h-973zM190 1554q53 68 104.5 136.5t104.5 136.5h183q53 -68 104 -136.5t105 -136.5h-160q-35 45 -70 90.5t-69 90.5q-35 -45 -71 -90.5t-71 -90.5h-160zM739 1665l181 246h194l-229 -246h-146z" />
<glyph unicode="&#x1ebf;" d="M82 485q0 109 38 202t104.5 162t158.5 107.5t201 38.5q129 0 218 -45t146.5 -117.5t83 -163.5t25.5 -186v-65h-778q0 -63 27.5 -115.5t72.5 -89.5t104.5 -57.5t122.5 -20.5q86 0 149.5 40t116.5 106l140 -107q-154 -199 -430 -199q-115 0 -208 39t-157.5 107.5t-99.5 162 t-35 201.5zM131 1155q53 68 104.5 136.5t104.5 135.5h182q53 -68 104.5 -136t104.5 -136h-160q-35 45 -69.5 90t-69.5 90q-35 -45 -70.5 -90t-70.5 -90h-160zM279 565h581q-2 61 -19.5 112.5t-52 89.5t-87 59.5t-121.5 21.5q-68 0 -124.5 -25.5t-95 -66.5t-60 -91.5 t-21.5 -99.5zM680 1266l180 245h195l-230 -245h-145z" />
<glyph unicode="&#x1ec0;" horiz-adv-x="1251" d="M172 1911h195l180 -246h-146zM186 0v1450h936v-184h-739v-432h688v-185h-688v-465h776v-184h-973zM496 1554q53 68 104 136.5t105 136.5h182q53 -68 104 -136.5t105 -136.5h-160q-35 45 -71 90.5t-70 90.5q-35 -45 -70 -90.5t-70 -90.5h-159z" />
<glyph unicode="&#x1ec1;" d="M82 485q0 109 38 202t104.5 162t158.5 107.5t201 38.5q129 0 218 -45t146.5 -117.5t83 -163.5t25.5 -186v-65h-778q0 -63 27.5 -115.5t72.5 -89.5t104.5 -57.5t122.5 -20.5q86 0 149.5 40t116.5 106l140 -107q-154 -199 -430 -199q-115 0 -208 39t-157.5 107.5t-99.5 162 t-35 201.5zM98 1511h195l180 -245h-145zM279 565h581q-2 61 -19.5 112.5t-52 89.5t-87 59.5t-121.5 21.5q-68 0 -124.5 -25.5t-95 -66.5t-60 -91.5t-21.5 -99.5zM422 1155q53 68 104.5 136.5t104.5 135.5h182q53 -68 104.5 -136t104.5 -136h-160q-35 45 -70.5 90t-70.5 90 l-70 -90t-69 -90h-160z" />
<glyph unicode="&#x1ec2;" horiz-adv-x="1251" d="M186 0v1450h936v-184h-739v-432h688v-185h-688v-465h776v-184h-973zM219 1556q53 68 105.5 135.5t105.5 137.5h180q53 -70 104.5 -137.5t104.5 -135.5h-166l-141 179l-141 -179h-152zM791 1812v107q23 8 48 13t54 5q104 0 155.5 -51t51.5 -119q0 -47 -28 -89t-91 -70 q0 -20 1 -41t1 -43h-131v139q109 25 109 96q0 41 -29 56.5t-68 15.5q-41 0 -73 -19z" />
<glyph unicode="&#x1ec3;" d="M82 485q0 109 38 202t104.5 162t158.5 107.5t201 38.5q129 0 218 -45t146.5 -117.5t83 -163.5t25.5 -186v-65h-778q0 -63 27.5 -115.5t72.5 -89.5t104.5 -57.5t122.5 -20.5q86 0 149.5 40t116.5 106l140 -107q-154 -199 -430 -199q-115 0 -208 39t-157.5 107.5t-99.5 162 t-35 201.5zM139 1155q53 68 105.5 135.5t105.5 134.5h180q53 -68 105.5 -135t105.5 -135h-168q-35 45 -69.5 89t-69.5 89l-141 -178h-154zM279 565h581q-2 61 -19.5 112.5t-52 89.5t-87 59.5t-121.5 21.5q-68 0 -124.5 -25.5t-95 -66.5t-60 -91.5t-21.5 -99.5zM713 1409v109 q20 8 46.5 13t55.5 5q104 0 154.5 -51t50.5 -119q0 -47 -27.5 -89t-89.5 -71v-84h-129v140q109 25 109 96q0 41 -29 56.5t-70 15.5q-37 0 -71 -21z" />
<glyph unicode="&#x1ec4;" horiz-adv-x="1251" d="M8 1556q53 68 105.5 136.5t105.5 136.5h180q53 -68 105.5 -136.5t105.5 -136.5h-168q-35 45 -69.5 90.5t-69.5 90.5q-35 -45 -70.5 -90t-70.5 -91h-154zM186 0v1450h936v-184h-739v-432h688v-185h-688v-465h776v-184h-973zM637 1556q4 39 18.5 79t37 73t55 52.5 t73.5 19.5q29 0 55.5 -8.5t61.5 -24.5l37 -18q25 -12 51.5 -22.5t48.5 -10.5q39 0 58.5 23.5t27.5 60.5h90q-6 -37 -17 -76t-31.5 -69.5t-51.5 -50t-76 -21.5q-35 0 -67.5 12t-73.5 31q-39 16 -67.5 29.5t-57.5 13.5q-14 0 -23 -7q-29 -6 -43 -29.5t-22 -56.5h-84z" />
<glyph unicode="&#x1ec5;" d="M82 485q0 109 38 202t104.5 162t158.5 107.5t201 38.5q129 0 218 -45t146.5 -117.5t83 -163.5t25.5 -186v-65h-778q0 -63 27.5 -115.5t72.5 -89.5t104.5 -57.5t122.5 -20.5q86 0 149.5 40t116.5 106l140 -107q-154 -199 -430 -199q-115 0 -208 39t-157.5 107.5t-99.5 162 t-35 201.5zM279 565h581q-2 61 -19.5 112.5t-52 89.5t-87 59.5t-121.5 21.5q-68 0 -124.5 -25.5t-95 -66.5t-60 -91.5t-21.5 -99.5zM299 1128q53 68 105.5 136.5t105.5 136.5h180q53 -68 105.5 -136.5t105.5 -136.5h-168q-35 45 -69.5 90.5t-69.5 90.5q-35 -45 -71 -90 t-70 -91h-154zM305 1427q6 41 19.5 79t37 68t55.5 48t72 18q29 0 55.5 -7t61.5 -23q10 -4 17.5 -8.5t17.5 -8.5q27 -14 53.5 -24t48.5 -10q39 0 57.5 22.5t28.5 58.5h89q-4 -37 -15.5 -73.5t-32.5 -65.5q-23 -31 -52.5 -48t-74.5 -19q-35 0 -67.5 11t-73.5 30 q-37 16 -66.5 28.5t-58.5 12.5q-10 0 -22 -5q-29 -8 -43.5 -30.5t-22.5 -53.5h-84z" />
<glyph unicode="&#x1ec6;" horiz-adv-x="1251" d="M186 0v1450h936v-184h-739v-432h688v-185h-688v-465h776v-184h-973zM319 1556l224 285h192l223 -285h-176l-149 191l-154 -191h-160zM537 -236q0 51 35.5 88t89.5 37q53 0 92 -35.5t39 -89.5q0 -55 -37 -93t-92 -38q-53 0 -90 39t-37 92z" />
<glyph unicode="&#x1ec7;" d="M82 485q0 109 38 202t104.5 162t158.5 107.5t201 38.5q129 0 218 -45t146.5 -117.5t83 -163.5t25.5 -186v-65h-778q0 -63 27.5 -115.5t72.5 -89.5t104.5 -57.5t122.5 -20.5q86 0 149.5 40t116.5 106l140 -107q-154 -199 -430 -199q-115 0 -208 39t-157.5 107.5t-99.5 162 t-35 201.5zM279 565h581q-2 61 -19.5 112.5t-52 89.5t-87 59.5t-121.5 21.5q-68 0 -124.5 -25.5t-95 -66.5t-60 -91.5t-21.5 -99.5zM283 1155l223 283h192l224 -283h-177l-149 188l-152 -188h-161zM467 -236q0 51 36 88t89 37t92 -35.5t39 -89.5q0 -55 -37 -93t-92 -38 q-53 0 -90 39t-37 92z" />
<glyph unicode="&#x1ec8;" horiz-adv-x="569" d="M150 1843v111q20 8 47.5 13t58.5 5q109 0 163 -53t54 -123q0 -53 -28.5 -96t-94.5 -74h-2v-92h-135v152q115 25 115 104q0 35 -29 53.5t-72 18.5q-35 0 -55 -11q-12 -4 -22 -8zM186 0v1450h197v-1450h-197z" />
<glyph unicode="&#x1ec9;" horiz-adv-x="491" d="M117 1430v110q20 8 48 13.5t58 5.5q109 0 163 -53.5t54 -123.5q0 -53 -28.5 -96t-94.5 -72h-2v-94h-133v152q115 29 115 104q0 37 -29.5 54.5t-72.5 17.5q-29 0 -56 -10q-6 -2 -11 -4t-11 -4zM154 0v971h184v-971h-184z" />
<glyph unicode="&#x1eca;" horiz-adv-x="569" d="M156 -236q0 51 35.5 88t89.5 37q53 0 92 -35.5t39 -89.5q0 -55 -37 -93t-92 -38q-53 0 -90 39t-37 92zM186 0v1450h197v-1450h-197z" />
<glyph unicode="&#x1ecb;" horiz-adv-x="491" d="M111 1319q0 55 39.5 95t95.5 40q55 0 95 -40t40 -95t-40 -95t-95 -40t-95 40t-40 95zM125 -317q0 51 36 87.5t89 36.5t92 -35.5t39 -88.5q0 -55 -37 -93.5t-92 -38.5q-53 0 -90 39t-37 93zM154 0v971h184v-971h-184z" />
<glyph unicode="&#x1ecc;" horiz-adv-x="1703" d="M96 725q0 162 56.5 301t156 241.5t238.5 161t305 58.5t305 -58.5t238.5 -161t156 -241.5t56.5 -301t-56.5 -301t-156 -241.5t-238.5 -161t-305 -58.5t-305 58.5t-238.5 161t-156 241.5t-56.5 301zM305 725q0 -119 39 -224.5t110.5 -183t172 -124t225.5 -46.5t225.5 46.5 t172 124t110.5 183t39 224.5t-39 224.5t-110.5 183t-172 124t-225.5 46.5t-225.5 -46.5t-172 -124t-110.5 -183t-39 -224.5zM729 -236q0 51 36 88t89 37t92 -35.5t39 -89.5q0 -55 -37 -93t-92 -38q-53 0 -90 39t-37 92z" />
<glyph unicode="&#x1ecd;" horiz-adv-x="1216" d="M92 485q0 106 40 198.5t109.5 162t164 109.5t202.5 40q109 0 203 -40t163.5 -109.5t109.5 -161.5t40 -199q0 -106 -40 -199t-109.5 -162t-163.5 -109t-203 -40t-203 40t-163.5 109t-109.5 162t-40 199zM289 485q0 -74 22.5 -136t63.5 -106t100.5 -70t132.5 -26 q74 0 133.5 26t100.5 70t63.5 106.5t22.5 135.5q0 74 -22.5 136.5t-63.5 106.5t-100.5 69.5t-133.5 25.5t-133 -25.5t-100 -69.5t-63.5 -106.5t-22.5 -136.5zM494 -236q0 51 36.5 88t90.5 37q53 0 91 -35.5t38 -89.5q0 -55 -37 -93t-92 -38q-53 0 -90 39t-37 92z" />
<glyph unicode="&#x1ece;" horiz-adv-x="1703" d="M96 725q0 162 56.5 301t156 241.5t238.5 161t305 58.5t305 -58.5t238.5 -161t156 -241.5t56.5 -301t-56.5 -301t-156 -241.5t-238.5 -161t-305 -58.5t-305 58.5t-238.5 161t-156 241.5t-56.5 301zM305 725q0 -119 39 -224.5t110.5 -183t172 -124t225.5 -46.5t225.5 46.5 t172 124t110.5 183t39 224.5t-39 224.5t-110.5 183t-172 124t-225.5 46.5t-225.5 -46.5t-172 -124t-110.5 -183t-39 -224.5zM721 1843v113q20 8 48 13t58 5q53 0 94.5 -15t69 -41t40.5 -58.5t13 -67.5q0 -53 -27.5 -99t-94.5 -77h-2v-76h-134v135q115 29 115 111 q0 37 -29.5 56.5t-72.5 19.5q-23 0 -40.5 -4.5t-37.5 -14.5z" />
<glyph unicode="&#x1ecf;" horiz-adv-x="1216" d="M92 485q0 106 40 198.5t109.5 162t164 109.5t202.5 40q109 0 203 -40t163.5 -109.5t109.5 -161.5t40 -199q0 -106 -40 -199t-109.5 -162t-163.5 -109t-203 -40t-203 40t-163.5 109t-109.5 162t-40 199zM289 485q0 -74 22.5 -136t63.5 -106t100.5 -70t132.5 -26 q74 0 133.5 26t100.5 70t63.5 106.5t22.5 135.5q0 74 -22.5 136.5t-63.5 106.5t-100.5 69.5t-133.5 25.5t-133 -25.5t-100 -69.5t-63.5 -106.5t-22.5 -136.5zM475 1430v110q43 18 107 19q111 0 165 -54.5t54 -126.5q0 -47 -29 -90t-94 -74h-4v-92h-133v150q115 29 114 104 q0 37 -29.5 54.5t-70.5 17.5q-25 0 -42 -4t-38 -14z" />
<glyph unicode="&#x1ed0;" horiz-adv-x="1703" d="M96 725q0 162 56.5 301t156 241.5t238.5 161t305 58.5t305 -58.5t238.5 -161t156 -241.5t56.5 -301t-56.5 -301t-156 -241.5t-238.5 -161t-305 -58.5t-305 58.5t-238.5 161t-156 241.5t-56.5 301zM305 725q0 -119 39 -224.5t110.5 -183t172 -124t225.5 -46.5t225.5 46.5 t172 124t110.5 183t39 224.5t-39 224.5t-110.5 183t-172 124t-225.5 46.5t-225.5 -46.5t-172 -124t-110.5 -183t-39 -224.5zM408 1554q53 68 104 136.5t104 136.5h183q53 -68 104 -136.5t105 -136.5h-160q-35 45 -70 90.5t-69 90.5q-35 -45 -71 -90.5t-71 -90.5h-159z M956 1665l181 246h194l-229 -246h-146z" />
<glyph unicode="&#x1ed1;" horiz-adv-x="1216" d="M92 485q0 106 40 198.5t109.5 162t164 109.5t202.5 40q109 0 203 -40t163.5 -109.5t109.5 -161.5t40 -199q0 -106 -40 -199t-109.5 -162t-163.5 -109t-203 -40t-203 40t-163.5 109t-109.5 162t-40 199zM174 1155q53 68 104.5 136.5t104.5 135.5h182q53 -68 104.5 -136 t104.5 -136h-160q-35 45 -69.5 90t-69.5 90q-35 -45 -70.5 -90t-70.5 -90h-160zM289 485q0 -74 22.5 -136t63.5 -106t100.5 -70t132.5 -26q74 0 133.5 26t100.5 70t63.5 106.5t22.5 135.5q0 74 -22.5 136.5t-63.5 106.5t-100.5 69.5t-133.5 25.5t-133 -25.5t-100 -69.5 t-63.5 -106.5t-22.5 -136.5zM723 1266l180 245h195l-230 -245h-145z" />
<glyph unicode="&#x1ed2;" horiz-adv-x="1703" d="M96 725q0 162 56.5 301t156 241.5t238.5 161t305 58.5t305 -58.5t238.5 -161t156 -241.5t56.5 -301t-56.5 -301t-156 -241.5t-238.5 -161t-305 -58.5t-305 58.5t-238.5 161t-156 241.5t-56.5 301zM305 725q0 -119 39 -224.5t110.5 -183t172 -124t225.5 -46.5t225.5 46.5 t172 124t110.5 183t39 224.5t-39 224.5t-110.5 183t-172 124t-225.5 46.5t-225.5 -46.5t-172 -124t-110.5 -183t-39 -224.5zM371 1911h194l180 -246h-145zM694 1554q53 68 104.5 136.5t104.5 136.5h182q53 -68 104.5 -136.5t104.5 -136.5h-159q-35 45 -71 90.5t-71 90.5 q-35 -45 -69.5 -90.5t-69.5 -90.5h-160z" />
<glyph unicode="&#x1ed3;" horiz-adv-x="1216" d="M92 485q0 106 40 198.5t109.5 162t164 109.5t202.5 40q109 0 203 -40t163.5 -109.5t109.5 -161.5t40 -199q0 -106 -40 -199t-109.5 -162t-163.5 -109t-203 -40t-203 40t-163.5 109t-109.5 162t-40 199zM133 1511h195l180 -245h-146zM289 485q0 -74 22.5 -136t63.5 -106 t100.5 -70t132.5 -26q74 0 133.5 26t100.5 70t63.5 106.5t22.5 135.5q0 74 -22.5 136.5t-63.5 106.5t-100.5 69.5t-133.5 25.5t-133 -25.5t-100 -69.5t-63.5 -106.5t-22.5 -136.5zM457 1155q53 68 104 136.5t105 135.5h182q53 -68 104.5 -136t104.5 -136h-160 q-35 45 -70.5 90t-70.5 90l-70 -90l-70 -90h-159z" />
<glyph unicode="&#x1ed4;" horiz-adv-x="1703" d="M96 725q0 162 56.5 301t156 241.5t238.5 161t305 58.5t305 -58.5t238.5 -161t156 -241.5t56.5 -301t-56.5 -301t-156 -241.5t-238.5 -161t-305 -58.5t-305 58.5t-238.5 161t-156 241.5t-56.5 301zM305 725q0 -119 39 -224.5t110.5 -183t172 -124t225.5 -46.5t225.5 46.5 t172 124t110.5 183t39 224.5t-39 224.5t-110.5 183t-172 124t-225.5 46.5t-225.5 -46.5t-172 -124t-110.5 -183t-39 -224.5zM356 1554q53 68 105.5 136.5t105.5 136.5h181q53 -68 105 -136.5t105 -136.5h-167q-35 45 -70 90.5t-70 90.5q-35 -45 -70.5 -90.5t-70.5 -90.5 h-154zM930 1810v107q45 20 100 20q104 0 155.5 -50t51.5 -118q0 -47 -27.5 -87t-89.5 -68v-84h-129v137q53 14 80 35.5t27 60.5t-29 53.5t-68 14.5q-37 0 -71 -21z" />
<glyph unicode="&#x1ed5;" horiz-adv-x="1216" d="M92 485q0 106 40 198.5t109.5 162t164 109.5t202.5 40q109 0 203 -40t163.5 -109.5t109.5 -161.5t40 -199q0 -106 -40 -199t-109.5 -162t-163.5 -109t-203 -40t-203 40t-163.5 109t-109.5 162t-40 199zM188 1155q53 68 105.5 135.5t105.5 134.5h181l208 -270h-165 l-142 178l-141 -178h-152zM289 485q0 -74 22.5 -136t63.5 -106t100.5 -70t132.5 -26q74 0 133.5 26t100.5 70t63.5 106.5t22.5 135.5q0 74 -22.5 136.5t-63.5 106.5t-100.5 69.5t-133.5 25.5t-133 -25.5t-100 -69.5t-63.5 -106.5t-22.5 -136.5zM760 1409v109q23 8 48.5 13 t53.5 5q104 0 155.5 -51t51.5 -119q0 -47 -27.5 -89t-91.5 -71q0 -20 1 -40.5t1 -43.5h-131v140q109 25 109 96q0 41 -29 56.5t-67 15.5q-37 0 -74 -21z" />
<glyph unicode="&#x1ed6;" horiz-adv-x="1703" d="M96 725q0 162 56.5 301t156 241.5t238.5 161t305 58.5t305 -58.5t238.5 -161t156 -241.5t56.5 -301t-56.5 -301t-156 -241.5t-238.5 -161t-305 -58.5t-305 58.5t-238.5 161t-156 241.5t-56.5 301zM231 1554q53 68 105.5 136.5t105.5 136.5h183q53 -68 104 -136.5 t105 -136.5h-166q-35 45 -71 90.5t-71 90.5q-35 -45 -70.5 -90.5t-70.5 -90.5h-154zM305 725q0 -119 39 -224.5t110.5 -183t172 -124t225.5 -46.5t225.5 46.5t172 124t110.5 183t39 224.5t-39 224.5t-110.5 183t-172 124t-225.5 46.5t-225.5 -46.5t-172 -124t-110.5 -183 t-39 -224.5zM860 1554q4 39 18.5 79t37 73t55.5 52.5t73 19.5q29 0 55.5 -8.5t61.5 -24.5l37 -19q27 -12 52.5 -22t47.5 -10q39 0 58.5 23.5t29.5 60.5h89q-6 -37 -17.5 -76t-32 -69.5t-50 -50t-75.5 -21.5q-35 0 -67.5 11t-75.5 32q-39 16 -66.5 29.5t-56.5 13.5 q-16 0 -24 -7q-27 -6 -42.5 -29.5t-23.5 -56.5h-84z" />
<glyph unicode="&#x1ed7;" horiz-adv-x="1216" d="M92 485q0 106 40 198.5t109.5 162t164 109.5t202.5 40q109 0 203 -40t163.5 -109.5t109.5 -161.5t40 -199q0 -106 -40 -199t-109.5 -162t-163.5 -109t-203 -40t-203 40t-163.5 109t-109.5 162t-40 199zM289 485q0 -74 22.5 -136t63.5 -106t100.5 -70t132.5 -26 q74 0 133.5 26t100.5 70t63.5 106.5t22.5 135.5q0 74 -22.5 136.5t-63.5 106.5t-100.5 69.5t-133.5 25.5t-133 -25.5t-100 -69.5t-63.5 -106.5t-22.5 -136.5zM319 1128q53 68 105.5 136.5t105.5 136.5h181q53 -68 105 -136.5t106 -136.5h-168q-35 45 -70 90.5t-70 90.5 q-35 -45 -70.5 -90t-70.5 -91h-154zM326 1427q4 37 18 76t37 68q25 33 56.5 51t72.5 18q29 0 55.5 -7t61.5 -23q10 -4 18 -8.5t19 -8.5q25 -14 51 -24t49 -10q39 0 58.5 22.5t27.5 58.5h90q-6 -37 -17.5 -73.5t-31.5 -65.5q-23 -31 -51.5 -48t-75.5 -19q-35 -2 -67.5 11 t-73.5 30q-39 16 -68 28.5t-57 12.5q-10 0 -23 -5q-29 -8 -43 -30.5t-22 -53.5h-84z" />
<glyph unicode="&#x1ed8;" horiz-adv-x="1703" d="M96 725q0 162 56.5 301t156 241.5t238.5 161t305 58.5t305 -58.5t238.5 -161t156 -241.5t56.5 -301t-56.5 -301t-156 -241.5t-238.5 -161t-305 -58.5t-305 58.5t-238.5 161t-156 241.5t-56.5 301zM305 725q0 -119 39 -224.5t110.5 -183t172 -124t225.5 -46.5t225.5 46.5 t172 124t110.5 183t39 224.5t-39 224.5t-110.5 183t-172 124t-225.5 46.5t-225.5 -46.5t-172 -124t-110.5 -183t-39 -224.5zM537 1556l223 285h192l224 -285h-177l-149 191l-152 -191h-161zM729 -236q0 51 36 88t89 37t91 -35.5t38 -89.5q0 -55 -37 -93t-90 -38t-90 39 t-37 92z" />
<glyph unicode="&#x1ed9;" horiz-adv-x="1216" d="M92 485q0 106 40 198.5t109.5 162t164 109.5t202.5 40q109 0 203 -40t163.5 -109.5t109.5 -161.5t40 -199q0 -106 -40 -199t-109.5 -162t-163.5 -109t-203 -40t-203 40t-163.5 109t-109.5 162t-40 199zM289 485q0 -74 22.5 -136t63.5 -106t100.5 -70t132.5 -26 q74 0 133.5 26t100.5 70t63.5 106.5t22.5 135.5q0 74 -22.5 136.5t-63.5 106.5t-100.5 69.5t-133.5 25.5t-133 -25.5t-100 -69.5t-63.5 -106.5t-22.5 -136.5zM299 1155l225 283h193l221 -283h-174l-152 188l-151 -188h-162zM494 -236q0 51 35.5 88t88.5 37t92.5 -35.5 t39.5 -89.5q0 -55 -37 -93t-92 -38q-53 0 -90 39t-37 92z" />
<glyph unicode="&#x1eda;" horiz-adv-x="1703" d="M96 725q0 162 56.5 301t156 241.5t238.5 161t305 58.5q129 0 244 -37h190q92 0 127 49t35 119q0 33 -5 66.5t-16 62.5h154q18 -61 18 -133q0 -70 -23.5 -136.5t-82.5 -109.5q-27 -20 -62.5 -34.5t-84.5 -18.5q123 -104 192.5 -256t69.5 -334q0 -162 -56.5 -301 t-156 -241.5t-238.5 -161t-305 -58.5t-305 58.5t-238.5 161t-156 241.5t-56.5 301zM305 725q0 -119 39 -224.5t110.5 -183t172 -124t225.5 -46.5t225.5 46.5t172 124t110.5 183t39 224.5t-39 224.5t-110.5 183t-172 124t-225.5 46.5t-225.5 -46.5t-172 -124t-110.5 -183 t-39 -224.5zM709 1546q53 72 103 145.5t103 147.5h228q-74 -74 -146.5 -147.5t-144.5 -145.5h-143z" />
<glyph unicode="&#x1edb;" horiz-adv-x="1216" d="M92 485q0 106 40 198.5t109.5 162t164 109.5t202.5 40q82 0 160 -24h125q92 0 127 49t35 119q0 33 -5.5 66.5t-15.5 62.5h154q18 -59 18 -133q0 -70 -24.5 -136.5t-85.5 -111.5q-45 -35 -115 -47q68 -70 105.5 -160t37.5 -195q0 -106 -40 -199t-109.5 -162t-163.5 -109 t-203 -40t-203 40t-163.5 109t-109.5 162t-40 199zM289 485q0 -74 22.5 -136t63.5 -106t100.5 -70t132.5 -26q74 0 133.5 26t100.5 70t63.5 106.5t22.5 135.5q0 74 -22.5 136.5t-63.5 106.5t-100.5 69.5t-133.5 25.5t-133 -25.5t-100 -69.5t-63.5 -106.5t-22.5 -136.5z M463 1155q53 72 103 145.5t104 147.5h227q-74 -74 -146.5 -147.5t-144.5 -145.5h-143z" />
<glyph unicode="&#x1edc;" horiz-adv-x="1703" d="M96 725q0 162 56.5 301t156 241.5t238.5 161t305 58.5q129 0 244 -37h190q92 0 127 49t35 119q0 33 -5 66.5t-16 62.5h154q18 -61 18 -133q0 -70 -23.5 -136.5t-82.5 -109.5q-27 -20 -62.5 -34.5t-84.5 -18.5q123 -104 192.5 -256t69.5 -334q0 -162 -56.5 -301 t-156 -241.5t-238.5 -161t-305 -58.5t-305 58.5t-238.5 161t-156 241.5t-56.5 301zM305 725q0 -119 39 -224.5t110.5 -183t172 -124t225.5 -46.5t225.5 46.5t172 124t110.5 183t39 224.5t-39 224.5t-110.5 183t-172 124t-225.5 46.5t-225.5 -46.5t-172 -124t-110.5 -183 t-39 -224.5zM559 1839h227q53 -74 103.5 -147.5t103.5 -145.5h-143q-72 72 -144.5 145.5t-146.5 147.5z" />
<glyph unicode="&#x1edd;" horiz-adv-x="1216" d="M92 485q0 106 40 198.5t109.5 162t164 109.5t202.5 40q82 0 160 -24h125q92 0 127 49t35 119q0 33 -5.5 66.5t-15.5 62.5h154q18 -59 18 -133q0 -70 -24.5 -136.5t-85.5 -111.5q-45 -35 -115 -47q68 -70 105.5 -160t37.5 -195q0 -106 -40 -199t-109.5 -162t-163.5 -109 t-203 -40t-203 40t-163.5 109t-109.5 162t-40 199zM289 485q0 -74 22.5 -136t63.5 -106t100.5 -70t132.5 -26q74 0 133.5 26t100.5 70t63.5 106.5t22.5 135.5q0 74 -22.5 136.5t-63.5 106.5t-100.5 69.5t-133.5 25.5t-133 -25.5t-100 -69.5t-63.5 -106.5t-22.5 -136.5z M319 1448h228q53 -74 103 -147.5t104 -145.5h-144q-72 72 -144.5 145.5t-146.5 147.5z" />
<glyph unicode="&#x1ede;" horiz-adv-x="1703" d="M96 725q0 162 56.5 301t156 241.5t238.5 161t305 58.5q129 0 244 -37h190q92 0 127 49t35 119q0 33 -5 66.5t-16 62.5h154q18 -61 18 -133q0 -70 -23.5 -136.5t-82.5 -109.5q-27 -20 -62.5 -34.5t-84.5 -18.5q123 -104 192.5 -256t69.5 -334q0 -162 -56.5 -301 t-156 -241.5t-238.5 -161t-305 -58.5t-305 58.5t-238.5 161t-156 241.5t-56.5 301zM305 725q0 -119 39 -224.5t110.5 -183t172 -124t225.5 -46.5t225.5 46.5t172 124t110.5 183t39 224.5t-39 224.5t-110.5 183t-172 124t-225.5 46.5t-225.5 -46.5t-172 -124t-110.5 -183 t-39 -224.5zM721 1843v111q20 8 48 13t56 5q106 0 160.5 -52t58.5 -120q0 -51 -26.5 -97t-95.5 -77h-2v-84h-136v144q115 25 115 104q0 35 -28.5 53.5t-71.5 18.5q-35 0 -56 -11q-12 -4 -22 -8z" />
<glyph unicode="&#x1edf;" horiz-adv-x="1216" d="M92 485q0 106 40 198.5t109.5 162t164 109.5t202.5 40q82 0 160 -24h125q92 0 127 49t35 119q0 33 -5.5 66.5t-15.5 62.5h154q18 -59 18 -133q0 -70 -24.5 -136.5t-85.5 -111.5q-45 -35 -115 -47q68 -70 105.5 -160t37.5 -195q0 -106 -40 -199t-109.5 -162t-163.5 -109 t-203 -40t-203 40t-163.5 109t-109.5 162t-40 199zM289 485q0 -74 22.5 -136t63.5 -106t100.5 -70t132.5 -26q74 0 133.5 26t100.5 70t63.5 106.5t22.5 135.5q0 74 -22.5 136.5t-63.5 106.5t-100.5 69.5t-133.5 25.5t-133 -25.5t-100 -69.5t-63.5 -106.5t-22.5 -136.5z M475 1430v110q23 8 49.5 13.5t57.5 5.5q111 0 165 -55.5t54 -125.5q0 -106 -123 -164h-4v-94h-133v152q115 29 114 104q0 37 -29.5 54.5t-70.5 17.5q-29 0 -55 -10q-6 -2 -12.5 -4t-12.5 -4z" />
<glyph unicode="&#x1ee0;" horiz-adv-x="1703" d="M96 725q0 162 56.5 301t156 241.5t238.5 161t305 58.5q129 0 244 -37h190q92 0 127 49t35 119q0 33 -5 66.5t-16 62.5h154q18 -61 18 -133q0 -70 -23.5 -136.5t-82.5 -109.5q-27 -20 -62.5 -34.5t-84.5 -18.5q123 -104 192.5 -256t69.5 -334q0 -162 -56.5 -301 t-156 -241.5t-238.5 -161t-305 -58.5t-305 58.5t-238.5 161t-156 241.5t-56.5 301zM305 725q0 -119 39 -224.5t110.5 -183t172 -124t225.5 -46.5t225.5 46.5t172 124t110.5 183t39 224.5t-39 224.5t-110.5 183t-172 124t-225.5 46.5t-225.5 -46.5t-172 -124t-110.5 -183 t-39 -224.5zM510 1567q4 39 19.5 79t41 71.5t61.5 52t83 22.5q31 0 60.5 -9t68.5 -26q41 -16 80 -34.5t73 -18.5q41 0 62.5 23.5t32.5 64.5h102q-8 -41 -20.5 -79t-34.5 -68q-23 -33 -56.5 -51.5t-85.5 -20.5q-39 0 -74.5 11t-82.5 32q-43 16 -75 29.5t-63 13.5 q-41 0 -64.5 -27.5t-33.5 -64.5h-94z" />
<glyph unicode="&#x1ee1;" horiz-adv-x="1216" d="M92 485q0 106 40 198.5t109.5 162t164 109.5t202.5 40q82 0 160 -24h125q92 0 127 49t35 119q0 33 -5.5 66.5t-15.5 62.5h154q18 -59 18 -133q0 -70 -24.5 -136.5t-85.5 -111.5q-45 -35 -115 -47q68 -70 105.5 -160t37.5 -195q0 -106 -40 -199t-109.5 -162t-163.5 -109 t-203 -40t-203 40t-163.5 109t-109.5 162t-40 199zM272 1174q6 39 21.5 79.5t41 72.5t61.5 52.5t83 20.5q31 0 60.5 -8.5t68.5 -24.5q41 -16 80 -34.5t74 -18.5q41 0 62.5 23.5t31.5 62.5h100q-6 -39 -18 -78t-34.5 -69.5t-57.5 -50t-84 -19.5h-11.5t-11.5 2q-35 4 -64.5 14 t-70.5 27q-43 16 -74.5 29.5t-62.5 13.5q-8 0 -13 -1t-12 -3q-31 -8 -48 -33t-27 -57h-95zM289 485q0 -74 22.5 -136t63.5 -106t100.5 -70t132.5 -26q74 0 133.5 26t100.5 70t63.5 106.5t22.5 135.5q0 74 -22.5 136.5t-63.5 106.5t-100.5 69.5t-133.5 25.5t-133 -25.5 t-100 -69.5t-63.5 -106.5t-22.5 -136.5z" />
<glyph unicode="&#x1ee2;" horiz-adv-x="1703" d="M96 725q0 162 56.5 301t156 241.5t238.5 161t305 58.5q129 0 244 -37h190q92 0 127 49t35 119q0 33 -5 66.5t-16 62.5h154q18 -61 18 -133q0 -70 -23.5 -136.5t-82.5 -109.5q-27 -20 -62.5 -34.5t-84.5 -18.5q123 -104 192.5 -256t69.5 -334q0 -162 -56.5 -301 t-156 -241.5t-238.5 -161t-305 -58.5t-305 58.5t-238.5 161t-156 241.5t-56.5 301zM305 725q0 -119 39 -224.5t110.5 -183t172 -124t225.5 -46.5t225.5 46.5t172 124t110.5 183t39 224.5t-39 224.5t-110.5 183t-172 124t-225.5 46.5t-225.5 -46.5t-172 -124t-110.5 -183 t-39 -224.5zM727 -236q0 51 37 89t88 38q53 0 92 -36.5t39 -90.5q0 -53 -37 -91t-92 -38q-53 0 -90 38t-37 91z" />
<glyph unicode="&#x1ee3;" horiz-adv-x="1216" d="M92 485q0 106 40 198.5t109.5 162t164 109.5t202.5 40q82 0 160 -24h125q92 0 127 49t35 119q0 33 -5.5 66.5t-15.5 62.5h154q18 -59 18 -133q0 -70 -24.5 -136.5t-85.5 -111.5q-45 -35 -115 -47q68 -70 105.5 -160t37.5 -195q0 -106 -40 -199t-109.5 -162t-163.5 -109 t-203 -40t-203 40t-163.5 109t-109.5 162t-40 199zM289 485q0 -74 22.5 -136t63.5 -106t100.5 -70t132.5 -26q74 0 133.5 26t100.5 70t63.5 106.5t22.5 135.5q0 74 -22.5 136.5t-63.5 106.5t-100.5 69.5t-133.5 25.5t-133 -25.5t-100 -69.5t-63.5 -106.5t-22.5 -136.5z M492 -236q0 51 36.5 89t87.5 38q53 0 92.5 -36.5t39.5 -90.5q0 -53 -37 -91t-93 -38q-53 0 -89.5 38t-36.5 91z" />
<glyph unicode="&#x1ee4;" horiz-adv-x="1441" d="M160 530v920h196v-889q0 -68 18.5 -140.5t61.5 -134t112.5 -100.5t172.5 -39q102 0 172 39t113 100.5t61 134.5t18 140v889h197v-920q0 -127 -43 -230t-119 -179t-178 -117t-221 -41t-221.5 41t-178 117t-118.5 179t-43 230zM596 -236q0 51 36 88t89 37t92 -35.5 t39 -89.5q0 -55 -37 -93t-92 -38q-53 0 -90 39t-37 92z" />
<glyph unicode="&#x1ee5;" d="M139 346v625h185v-574q0 -68 18 -116t49 -77.5t71 -43t83 -13.5q57 0 106 18.5t86 58.5t57.5 101.5t20.5 145.5v500h184v-971h-184v150h-4q-35 -78 -121 -126.5t-198 -48.5q-72 0 -135.5 21.5t-111.5 67t-77 116t-29 166.5zM428 -236q0 51 37 89t90 38t91 -36.5t38 -90.5 q0 -53 -37 -91t-92 -38q-53 0 -90 38t-37 91z" />
<glyph unicode="&#x1ee6;" horiz-adv-x="1441" d="M160 530v920h196v-889q0 -68 18.5 -140.5t61.5 -134t112.5 -100.5t172.5 -39q102 0 172 39t113 100.5t61 134.5t18 140v889h197v-920q0 -127 -43 -230t-119 -179t-178 -117t-221 -41t-221.5 41t-178 117t-118.5 179t-43 230zM582 1843v113q23 8 49 13t57 5q55 0 96 -16 t69 -42t41 -59.5t13 -68.5q0 -49 -29.5 -95t-93.5 -77h-4v-80h-133v139q115 29 115 111q0 12 -6 22q-8 27 -34 40.5t-60 13.5q-25 0 -42.5 -4.5t-37.5 -14.5z" />
<glyph unicode="&#x1ee7;" d="M139 346v625h185v-574q0 -68 18 -116t49 -77.5t71 -43t83 -13.5q57 0 106 18.5t86 58.5t57.5 101.5t20.5 145.5v500h184v-971h-184v150h-4q-35 -78 -121 -126.5t-198 -48.5q-72 0 -135.5 21.5t-111.5 67t-77 116t-29 166.5zM432 1430v110q20 8 48 13.5t59 5.5 q109 0 163 -53.5t54 -123.5q0 -53 -28 -96t-95 -72h-2v-94h-133v152q115 29 114 104q0 37 -29.5 54.5t-72.5 17.5q-27 0 -53 -10q-6 -2 -12.5 -4t-12.5 -4z" />
<glyph unicode="&#x1ee8;" horiz-adv-x="1441" d="M160 530v920h196v-889q0 -68 18.5 -140.5t61.5 -134t112.5 -100.5t172.5 -39q102 0 172 39t113 100.5t61 134.5t18 140v889h197q88 0 123 49t35 119q0 33 -6.5 66.5t-16.5 62.5h154q18 -61 18 -135q0 -47 -11 -94.5t-38 -87t-72 -69.5t-110 -40q-35 -10 -76 -10v-781 q0 -127 -43 -230t-119 -179t-178 -117t-221 -41t-221.5 41t-178 117t-118.5 179t-43 230zM590 1546q51 72 102 145.5t103 147.5h227q-72 -74 -144.5 -147.5t-146.5 -145.5h-141z" />
<glyph unicode="&#x1ee9;" horiz-adv-x="1173" d="M139 346v625h185v-574q0 -68 18 -116t49 -77.5t71 -43t83 -13.5q57 0 106 18.5t86 58.5t57.5 101.5t20.5 145.5v500l162 -2q92 0 127 50t35 120q0 31 -5.5 64.5t-15.5 62.5h154q10 -31 13 -65t3 -71q0 -53 -14 -105t-47 -95t-88.5 -71t-137.5 -30l-2 -829h-184v150h-4 q-35 -78 -121 -126.5t-198 -48.5q-72 0 -135.5 21.5t-111.5 67t-77 116t-29 166.5zM440 1153q53 74 103.5 147.5t103.5 145.5h227q-74 -72 -146.5 -145.5t-143.5 -147.5h-144z" />
<glyph unicode="&#x1eea;" horiz-adv-x="1441" d="M160 530v920h196v-889q0 -68 18.5 -140.5t61.5 -134t112.5 -100.5t172.5 -39q102 0 172 39t113 100.5t61 134.5t18 140v889h197q88 0 123 49t35 119q0 33 -6.5 66.5t-16.5 62.5h154q18 -61 18 -135q0 -47 -11 -94.5t-38 -87t-72 -69.5t-110 -40q-35 -10 -76 -10v-781 q0 -127 -43 -230t-119 -179t-178 -117t-221 -41t-221.5 41t-178 117t-118.5 179t-43 230zM424 1839h227q53 -74 103.5 -147.5t103.5 -145.5h-143q-72 72 -144.5 145.5t-146.5 147.5z" />
<glyph unicode="&#x1eeb;" horiz-adv-x="1173" d="M139 346v625h185v-574q0 -68 18 -116t49 -77.5t71 -43t83 -13.5q57 0 106 18.5t86 58.5t57.5 101.5t20.5 145.5v500l162 -2q92 0 127 50t35 120q0 31 -5.5 64.5t-15.5 62.5h154q10 -31 13 -65t3 -71q0 -53 -14 -105t-47 -95t-88.5 -71t-137.5 -30l-2 -829h-184v150h-4 q-35 -78 -121 -126.5t-198 -48.5q-72 0 -135.5 21.5t-111.5 67t-77 116t-29 166.5zM315 1446h228q53 -72 103 -145.5t104 -147.5h-144q-72 74 -145.5 147.5z" />
<glyph unicode="&#x1eec;" horiz-adv-x="1441" d="M160 530v920h196v-889q0 -68 18.5 -140.5t61.5 -134t112.5 -100.5t172.5 -39q102 0 172 39t113 100.5t61 134.5t18 140v889h197q88 0 123 49t35 119q0 33 -6.5 66.5t-16.5 62.5h154q18 -61 18 -135q0 -47 -11 -94.5t-38 -87t-72 -69.5t-110 -40q-35 -10 -76 -10v-781 q0 -127 -43 -230t-119 -179t-178 -117t-221 -41t-221.5 41t-178 117t-118.5 179t-43 230zM582 1843v113q23 8 49 13t57 5q55 0 96 -15t69 -41t41 -59.5t13 -68.5q0 -49 -29.5 -94t-93.5 -74h-4v-88h-133v145q115 29 115 109q0 37 -30 55.5t-70 18.5q-25 0 -42.5 -4.5 t-37.5 -14.5z" />
<glyph unicode="&#x1eed;" horiz-adv-x="1173" d="M139 346v625h185v-574q0 -68 18 -116t49 -77.5t71 -43t83 -13.5q57 0 106 18.5t86 58.5t57.5 101.5t20.5 145.5v500l162 -2q92 0 127 50t35 120q0 31 -5.5 64.5t-15.5 62.5h154q10 -31 13 -65t3 -71q0 -53 -14 -105t-47 -95t-88.5 -71t-137.5 -30l-2 -829h-184v150h-4 q-35 -78 -121 -126.5t-198 -48.5q-72 0 -135.5 21.5t-111.5 67t-77 116t-29 166.5zM436 1430v112q20 8 48 13.5t59 5.5q109 0 163 -53.5t54 -123.5q0 -53 -27.5 -96t-95.5 -74h-2v-92h-133v152q115 29 114 104q0 37 -29.5 53.5t-72.5 16.5q-23 0 -40 -4t-38 -14z" />
<glyph unicode="&#x1eee;" horiz-adv-x="1441" d="M160 530v920h196v-889q0 -68 18.5 -140.5t61.5 -134t112.5 -100.5t172.5 -39q102 0 172 39t113 100.5t61 134.5t18 140v889h197q88 0 123 49t35 119q0 33 -6.5 66.5t-16.5 62.5h154q18 -61 18 -135q0 -47 -11 -94.5t-38 -87t-72 -69.5t-110 -40q-35 -10 -76 -10v-781 q0 -127 -43 -230t-119 -179t-178 -117t-221 -41t-221.5 41t-178 117t-118.5 179t-43 230zM397 1554q6 39 20.5 78t39.5 70q27 29 61.5 50.5t79.5 21.5q31 0 59.5 -9.5t67.5 -25.5q10 -4 19.5 -8.5t19.5 -8.5q29 -12 55.5 -22t50.5 -10q41 0 62.5 23.5t32.5 60.5h98 q-8 -41 -20.5 -78t-34 -67t-54 -48t-82.5 -20q-39 0 -72.5 11t-80.5 30q-41 16 -73 29.5t-60 13.5q-12 0 -25 -5q-29 -8 -45 -31.5t-27 -54.5h-92z" />
<glyph unicode="&#x1eef;" horiz-adv-x="1173" d="M139 346v625h185v-574q0 -68 18 -116t49 -77.5t71 -43t83 -13.5q57 0 106 18.5t86 58.5t57.5 101.5t20.5 145.5v500l162 -2q92 0 127 50t35 120q0 31 -5.5 64.5t-15.5 62.5h154q10 -31 13 -65t3 -71q0 -53 -14 -105t-47 -95t-88.5 -71t-137.5 -30l-2 -829h-184v150h-4 q-35 -78 -121 -126.5t-198 -48.5q-72 0 -135.5 21.5t-111.5 67t-77 116t-29 166.5zM258 1174q4 39 19.5 77.5t39.5 69.5q27 33 62 51.5t80 20.5q31 0 59.5 -8.5t67.5 -24.5q10 -4 19 -8t20 -9q29 -14 55.5 -24t50.5 -10q41 0 61.5 23.5t30.5 60.5h99q-6 -39 -17.5 -76 t-34.5 -68q-23 -29 -55.5 -48t-81.5 -19q-39 0 -72.5 11t-80.5 30q-41 16 -73 28.5t-61 12.5q-18 0 -24 -4q-29 -8 -45.5 -31t-26.5 -55h-92z" />
<glyph unicode="&#x1ef0;" horiz-adv-x="1441" d="M160 530v920h196v-889q0 -68 18.5 -140.5t61.5 -134t112.5 -100.5t172.5 -39q102 0 172 39t113 100.5t61 134.5t18 140v889h197q88 0 123 49t35 119q0 33 -6.5 66.5t-16.5 62.5h154q18 -61 18 -135q0 -47 -11 -94.5t-38 -87t-72 -69.5t-110 -40q-35 -10 -76 -10v-781 q0 -127 -43 -230t-119 -179t-178 -117t-221 -41t-221.5 41t-178 117t-118.5 179t-43 230zM594 -236q0 51 37 89t90 38t91 -36.5t38 -90.5q0 -53 -37 -91t-92 -38q-53 0 -90 38t-37 91z" />
<glyph unicode="&#x1ef1;" horiz-adv-x="1173" d="M139 346v625h185v-574q0 -68 18 -116t49 -77.5t71 -43t83 -13.5q57 0 106 18.5t86 58.5t57.5 101.5t20.5 145.5v500l162 -2q92 0 127 50t35 120q0 31 -5.5 64.5t-15.5 62.5h154q10 -31 13 -65t3 -71q0 -53 -14 -105t-47 -95t-88.5 -71t-137.5 -30l-2 -829h-184v150h-4 q-35 -78 -121 -126.5t-198 -48.5q-72 0 -135.5 21.5t-111.5 67t-77 116t-29 166.5zM430 -236q0 51 37 89t88 38q53 0 92 -36.5t39 -90.5q0 -53 -37 -91t-92 -38q-53 0 -90 38t-37 91z" />
<glyph unicode="&#x1ef2;" horiz-adv-x="1253" d="M-20 1450h251l396 -637l407 637h240l-549 -832v-618h-197v618zM326 1839h227l207 -293h-144z" />
<glyph unicode="&#x1ef3;" horiz-adv-x="1024" d="M23 971h213l288 -758h4l275 758h198l-460 -1180q-25 -63 -51.5 -115.5t-63.5 -89.5t-89 -57.5t-128 -20.5q-41 0 -83 5.5t-81 21.5l23 168q55 -23 110 -22q43 0 73 11t51.5 32.5t35.5 50t29 65.5l59 154zM240 1448h227q51 -74 102.5 -147.5t102.5 -145.5h-142 q-74 72 -146.5 145.5t-143.5 147.5z" />
<glyph unicode="&#x1ef4;" horiz-adv-x="1253" d="M-20 1450h251l396 -637l407 637h240l-549 -832v-618h-197v618zM489 -236q0 51 36 88t89 37t92 -35.5t39 -89.5q0 -55 -37 -93t-92 -38q-53 0 -90 39t-37 92z" />
<glyph unicode="&#x1ef5;" horiz-adv-x="1024" d="M23 971h213l288 -758h4l275 758h198l-460 -1180q-25 -63 -51.5 -115.5t-63.5 -89.5t-89 -57.5t-128 -20.5q-41 0 -83 5.5t-81 21.5l23 168q55 -23 110 -22q43 0 73 11t51.5 32.5t35.5 50t29 65.5l59 154zM641 -236q0 51 36 89t89 38t91 -36.5t38 -90.5q0 -53 -37 -91 t-90 -38t-90 38t-37 91z" />
<glyph unicode="&#x1ef6;" horiz-adv-x="1253" d="M-20 1450h251l396 -637l407 637h240l-549 -832v-618h-197v618zM483 1843v113q23 8 49.5 13t57.5 5q55 0 96 -16t68.5 -42t41 -59.5t13.5 -68.5q0 -49 -29.5 -95t-93.5 -77h-4v-80h-133v139q115 29 115 111q0 12 -7 22q-8 27 -33.5 40.5t-60.5 13.5q-25 0 -42 -4.5 t-38 -14.5z" />
<glyph unicode="&#x1ef7;" horiz-adv-x="1024" d="M23 971h213l288 -758h4l275 758h198l-460 -1180q-25 -63 -51.5 -115.5t-63.5 -89.5t-89 -57.5t-128 -20.5q-41 0 -83 5.5t-81 21.5l23 168q55 -23 110 -22q43 0 73 11t51.5 32.5t35.5 50t29 65.5l59 154zM373 1427v111q20 8 48 13t58 5q109 0 163 -53t54 -123v-12 q-2 -47 -31.5 -87t-91.5 -69h-2v-92h-133v150q115 29 115 104q0 37 -29.5 54.5t-72.5 17.5q-35 0 -56 -10q-12 -4 -22 -9z" />
<glyph unicode="&#x1ef8;" horiz-adv-x="1253" d="M-20 1450h251l396 -637l407 637h240l-549 -832v-618h-197v618zM303 1554q6 39 20.5 78t38.5 70q27 29 62 50.5t80 21.5q31 0 59.5 -9.5t67.5 -25.5q10 -4 19 -8.5t20 -8.5q29 -12 55.5 -22t50.5 -10q41 0 62.5 23.5t31.5 60.5h99q-8 -41 -20.5 -78t-34 -67t-54.5 -48 t-82 -20q-39 0 -72.5 11t-80.5 30q-41 16 -73 29.5t-60 13.5q-12 0 -25 -5q-29 -8 -45 -31.5t-27 -54.5h-92z" />
<glyph unicode="&#x1ef9;" horiz-adv-x="1024" d="M23 971h213l288 -758h4l275 758h198l-460 -1180q-25 -63 -51.5 -115.5t-63.5 -89.5t-89 -57.5t-128 -20.5q-41 0 -83 5.5t-81 21.5l23 168q55 -23 110 -22q43 0 73 11t51.5 32.5t35.5 50t29 65.5l59 154zM195 1174q4 39 19 77.5t40 69.5q27 33 61.5 51.5t79.5 20.5 q31 0 59.5 -8.5t67.5 -24.5q10 -4 19.5 -8t19.5 -9q29 -14 55.5 -24t51.5 -10q41 0 61.5 23.5t30.5 60.5h98q-6 -39 -17.5 -76t-33.5 -68q-23 -29 -55.5 -48t-81.5 -19q-39 0 -73 11t-81 30q-41 16 -72.5 28.5t-60.5 12.5q-18 0 -25 -4q-29 -8 -45 -31t-26 -55h-92z" />
<glyph unicode="&#x2011;" horiz-adv-x="647" d="M72 410v172h503v-172h-503z" />
<glyph unicode="&#x2013;" horiz-adv-x="1024" d="M0 418v160h1024v-160h-1024z" />
<glyph unicode="&#x2014;" horiz-adv-x="2048" d="M0 418v160h2048v-160h-2048z" />
<glyph unicode="&#x2015;" horiz-adv-x="2048" d="M266 418v160h1516v-160h-1516z" />
<glyph unicode="&#x2018;" horiz-adv-x="569" d="M115 946l172 504h168l-142 -504h-198z" />
<glyph unicode="&#x2019;" horiz-adv-x="569" d="M115 946l141 504h199l-172 -504h-168z" />
<glyph unicode="&#x201a;" horiz-adv-x="569" d="M115 -270l141 503h199l-172 -503h-168z" />
<glyph unicode="&#x201c;" horiz-adv-x="1062" d="M180 946l172 504h168l-141 -504h-199zM543 946l172 504h168l-142 -504h-198z" />
<glyph unicode="&#x201d;" horiz-adv-x="1062" d="M180 946l142 504h198l-172 -504h-168zM543 946l141 504h199l-172 -504h-168z" />
<glyph unicode="&#x201e;" horiz-adv-x="1062" d="M180 -270l142 503h198l-172 -503h-168zM543 -270l141 503h199l-172 -503h-168z" />
<glyph unicode="&#x2020;" d="M72 874v160h405v416h185v-416h405v-160h-405v-1132h-185v1132h-405z" />
<glyph unicode="&#x2021;" d="M84 135v160h393v627h-393v159h393v369h185v-369h393v-159h-393v-627h393v-160h-393v-393h-185v393h-393z" />
<glyph unicode="&#x2022;" horiz-adv-x="1024" d="M150 725q0 76 28.5 141.5t77.5 114.5t114.5 77.5t141.5 28.5t141.5 -28.5t114.5 -77.5t77.5 -114.5t28.5 -141.5t-28.5 -141.5t-77.5 -114.5t-114.5 -78t-141.5 -29t-141.5 29t-114.5 78t-77.5 114.5t-28.5 141.5z" />
<glyph unicode="&#x2026;" horiz-adv-x="2048" d="M207 123q0 55 40 95t95 40t95 -40t40 -95t-40 -95t-95 -40t-95 40t-40 95zM889 123q0 55 40 95t95 40t95 -40t40 -95t-40 -95t-95 -40t-95 40t-40 95zM1571 123q0 55 40 95t95 40t95 -40t40 -95t-40 -95t-95 -40t-95 40t-40 95z" />
<glyph unicode="&#x2030;" horiz-adv-x="2162" d="M41 1143q0 70 25.5 130t70.5 105t105.5 71t130.5 26t130 -26t105 -71t72 -105.5t27 -129.5q0 -70 -27 -130.5t-72 -105.5t-105.5 -71.5t-129.5 -26.5q-70 0 -130.5 26.5t-105.5 71.5t-70.5 105.5t-25.5 130.5zM188 1143q0 -78 53.5 -132.5t131.5 -54.5t132 54.5t54 132.5 t-54 131t-132 53t-131.5 -53t-53.5 -131zM190 0l912 1516l123 -62l-908 -1517zM707 297q0 70 25.5 130t70.5 105.5t105.5 71t129.5 25.5q70 0 130.5 -25.5t105.5 -71t71.5 -105.5t26.5 -130t-26.5 -130.5t-71.5 -105.5t-105.5 -71.5t-130.5 -26.5t-130 26.5t-105 71.5 t-70.5 105.5t-25.5 130.5zM854 297q0 -78 53 -132t131 -54t132.5 54t54.5 132t-54.5 131t-132.5 53t-131 -53t-53 -131zM1456 297q0 70 25.5 130t70.5 105.5t105.5 71t130.5 25.5t130 -25.5t105 -71t72 -105.5t27 -130t-27 -130.5t-72 -105.5t-105 -71.5t-130 -26.5 t-130.5 26.5t-105.5 71.5t-70.5 105.5t-25.5 130.5zM1604 297q0 -78 53 -132t131 -54t132 54t54 132t-54 131t-132 53t-131 -53t-53 -131z" />
<glyph unicode="&#x2039;" horiz-adv-x="645" d="M111 498l297 442l127 -84l-240 -358l242 -359l-127 -84z" />
<glyph unicode="&#x203a;" horiz-adv-x="645" d="M109 856l127 84l299 -442l-297 -443l-127 84l239 359z" />
<glyph unicode="&#x2044;" horiz-adv-x="342" d="M-340 0l899 1516l123 -66l-899 -1516z" />
<glyph unicode="&#x20ab;" horiz-adv-x="1251" d="M92 485q0 109 35 202t99.5 162t155.5 107.5t204 38.5q104 0 196 -44t142 -120h4v398h-344v135h344v184h184v-184h139v-135h-139v-1229h-184v139h-4q-53 -78 -146.5 -121t-191.5 -43q-113 0 -204 39t-155.5 109t-99.5 162t-35 200zM154 -164h958v-137h-958v137zM289 485 q0 -74 22.5 -136t63.5 -106t100 -70t133 -26t133.5 26t100.5 70t63.5 106.5t22.5 135.5q0 74 -22.5 136.5t-63.5 106.5t-100.5 69.5t-133.5 25.5t-133 -25.5t-100 -69.5t-63.5 -106.5t-22.5 -136.5z" />
<glyph unicode="&#x20ac;" d="M47 471l39 133h94q-2 12 -2 24.5v24.5v56q0 76 6 143h-135l43 137h117q29 123 82 214t127 151.5t163 90.5t191 30q86 0 168 -20.5t135 -53.5l-43 -154q-94 70 -268 70q-135 0 -231.5 -81t-141.5 -247h565l-34 -137h-555q-4 -35 -6.5 -72t-2.5 -78v-51v-24.5t2 -22.5h496 l-35 -133h-448q27 -174 107.5 -259t234.5 -85q86 0 148.5 34t107.5 87l100 -101q-53 -72 -149.5 -122t-214.5 -50q-221 0 -347.5 125t-164.5 371h-148z" />
<glyph unicode="&#x2116;" horiz-adv-x="2525" d="M186 0v1450h258l799 -1192h4v1192h197v-1450h-250l-807 1192h-4v-1192h-197zM1612 1049q0 88 29.5 162.5t84 129t130 85t165.5 30.5q92 0 168 -30.5t130.5 -85t84 -129t29.5 -162.5t-29.5 -163t-84 -129.5t-130 -85t-168.5 -30.5q-90 0 -165.5 30.5t-130 85t-84 129.5 t-29.5 163zM1665 414v161h715v-161h-715zM1782 1049q0 -106 64.5 -180t174.5 -74q55 0 100.5 19.5t76 54t48 81t17.5 99.5t-17.5 99t-48 80t-75.5 53t-101 19q-111 0 -175 -72.5t-64 -178.5z" />
<glyph unicode="&#x2122;" horiz-adv-x="2048" d="M70 1315v135h667v-135h-254v-709h-159v709h-254zM899 606v844h244l227 -647h6l228 647h243v-844h-159v705h-5l-245 -705h-129l-246 705h-4v-705h-160z" />
<glyph unicode="&#x2126;" horiz-adv-x="1693" d="M96 795q0 143 58.5 269t160 220t238.5 148.5t295 54.5q156 0 293 -54.5t238.5 -148.5t159.5 -220t58 -269q0 -109 -27.5 -198t-70.5 -164t-97 -136t-108 -113h285v-184h-578v178q84 55 155 123t122 145.5t79.5 164.5t28.5 184q0 104 -41.5 196t-115.5 161t-172.5 108.5 t-208.5 39.5q-113 0 -212 -39.5t-173 -108.5t-117 -161t-43 -196q0 -96 28.5 -183.5t80 -165t122 -145.5t154.5 -123v-178h-575v184h282q-55 53 -109.5 112.5t-96.5 132.5t-67.5 162t-25.5 204z" />
<glyph unicode="&#x2202;" horiz-adv-x="1130" d="M86 465q0 123 35 220t95 167t139 106.5t167 36.5q70 0 125 -21.5t96 -51t69 -61.5t40 -54h2q2 16 2 41.5v44.5q0 127 -29.5 234.5t-80 185.5t-119 121t-146.5 43q-96 0 -162.5 -33t-109.5 -68l-57 131q51 41 135 79t213 38q102 0 197.5 -48t169 -144.5t117.5 -244 t44 -345.5q0 -184 -35 -342t-103.5 -272.5t-170 -179t-234.5 -64.5q-102 0 -177 42t-124 110.5t-73.5 154.5t-24.5 174zM260 463q0 -72 17.5 -132.5t48 -104.5t75.5 -68.5t101 -24.5h2q70 0 126 43t98 113.5t68.5 162t37.5 187.5q-10 31 -34 68.5t-59.5 69.5t-83 53.5 t-104.5 21.5q-61 0 -114.5 -30.5t-93.5 -84t-62.5 -124t-22.5 -150.5z" />
<glyph unicode="&#x2206;" horiz-adv-x="1400" d="M25 0v162l587 1290h187l577 -1290v-162h-1351zM246 184l899 2l-449 1033z" />
<glyph unicode="&#x220f;" horiz-adv-x="1441" d="M53 1282v162h1333v-162h-219v-1481h-176v1481h-545v-1481h-174v1481h-219z" />
<glyph unicode="&#x2211;" horiz-adv-x="1134" d="M47 -82l539 703l-516 698v125h989v-152h-746v-8l473 -637l-516 -672v-8h820v-166h-1043v117z" />
<glyph unicode="&#x2212;" horiz-adv-x="1363" d="M135 541v159h1094v-159h-1094z" />
<glyph unicode="&#x2215;" horiz-adv-x="342" d="M-340 0l899 1516l123 -66l-899 -1516z" />
<glyph unicode="&#x2219;" horiz-adv-x="569" d="M150 621q0 55 39.5 95t95.5 40q55 0 95 -40t40 -95t-40 -95.5t-95 -40.5t-95 40.5t-40 95.5z" />
<glyph unicode="&#x221a;" horiz-adv-x="1181" d="M70 690l295 117l249 -744q10 -41 20.5 -82.5t16.5 -74.5h2q4 31 12.5 74t16.5 86l375 1654h127l-455 -2025h-151l-324 948l-152 -57z" />
<glyph unicode="&#x221e;" horiz-adv-x="1597" d="M102 590q0 72 25 133t69 105t103 69t129 25q57 0 109.5 -19.5t98.5 -52.5t88 -77t83 -93q39 43 79 86t85 78t99 56.5t120 21.5q68 0 123 -24t95 -65.5t62.5 -101t22.5 -131.5v-2q0 -78 -26.5 -139.5t-70.5 -104.5t-101.5 -66.5t-118.5 -23.5q-96 0 -182.5 58.5 t-192.5 185.5q-41 -47 -83 -91t-88 -78t-99.5 -54.5t-116.5 -20.5t-119.5 24.5t-99.5 68.5t-68 103.5t-25 129.5zM215 588q0 -90 59.5 -152.5t153.5 -62.5h2q49 0 91 20.5t81 52t74 68.5t65 72q-35 43 -68.5 84t-72.5 73.5t-84 53t-98 20.5q-98 0 -150.5 -67.5t-52.5 -161.5 zM864 596q49 -57 90 -99t78 -70t73 -41t77 -13q47 0 84 19.5t62.5 50t38.5 69.5t13 78q0 106 -57 166.5t-145 60.5h-2q-51 0 -96.5 -24.5t-84.5 -58.5t-71.5 -72.5t-59.5 -65.5z" />
<glyph unicode="&#x222b;" horiz-adv-x="751" d="M31 -305l28 129q14 -6 38 -15.5t55 -9.5q25 0 50 12.5t44 34.5q29 39 47 117t18 232q0 262 -14 529t-14 517q0 172 25.5 275.5t86.5 169.5q41 43 95.5 63t109.5 20q35 0 66.5 -8t48.5 -18l-27 -125q-31 20 -74 20q-27 0 -55.5 -11t-48.5 -38q-37 -47 -51.5 -134 t-14.5 -230q0 -246 14.5 -508t14.5 -522q0 -164 -25.5 -262.5t-60.5 -155.5q-35 -59 -94.5 -87t-122.5 -28q-41 0 -80 11.5t-59 21.5z" />
<glyph unicode="&#x2248;" horiz-adv-x="1148" d="M90 344q47 92 121 146.5t164 54.5q39 0 71.5 -9.5t60.5 -21.5t51.5 -26.5t43.5 -24.5q51 -29 94 -51.5t97 -22.5q63 0 106 40t86 112l70 -62q-43 -84 -107.5 -141t-159.5 -57q-63 0 -114 22.5t-123 63.5q-47 29 -92 49t-97 20q-37 0 -65.5 -12t-52 -33.5t-44 -49.5 t-38.5 -58zM90 700q47 92 120 146.5t165 54.5q76 0 131 -29.5t96 -52.5q55 -31 96 -52.5t95 -21.5q63 0 106 40t86 114l70 -61q-43 -86 -108.5 -143.5t-158.5 -57.5q-63 0 -114 22.5t-123 63.5q-47 29 -92 49.5t-97 20.5q-72 0 -116.5 -46.5t-83.5 -105.5z" />
<glyph unicode="&#x2260;" horiz-adv-x="1148" d="M102 328v110h347l133 297h-480v111h525l106 235l88 -39l-90 -196h313v-111h-356l-135 -297h491v-110h-534l-109 -240l-88 39l90 201h-301z" />
<glyph unicode="&#x2264;" horiz-adv-x="1148" d="M104 4v115h940v-115h-940zM115 664v118l923 463v-133l-807 -385v-4l807 -389v-133z" />
<glyph unicode="&#x2265;" horiz-adv-x="1148" d="M106 4v115h936v-115h-936zM117 201v133l807 387v4l-807 387v133l923 -463v-118z" />
<glyph unicode="&#x25ca;" horiz-adv-x="1181" d="M111 721l411 817h144l405 -817l-412 -815h-143zM270 725l281 -565q12 -31 21.5 -59.5t13.5 -49.5h8q6 20 16.5 54t20.5 53l280 559l-280 559q-10 29 -21.5 59.5t-15.5 53.5h-6q-8 -25 -17.5 -54.5t-23.5 -58.5z" />
<glyph unicode="&#x25fc;" horiz-adv-x="972" d="M0 0v973h973v-973h-973z" />
<glyph unicode="&#xf6c3;" horiz-adv-x="368" d="M41 -500l117 402h184l-149 -402h-152z" />
<glyph unicode="&#xff06;" horiz-adv-x="1478" d="M96 383q0 76 27 138.5t72 113.5t105 92t126 72q-70 74 -120 151.5t-50 184.5q0 82 31.5 145t85 106.5t123 66t147.5 22.5q76 0 144.5 -20.5t119.5 -61.5t81 -102.5t30 -143.5q0 -68 -26.5 -124t-69.5 -102.5t-96.5 -82t-108.5 -64.5l287 -299l182 297h223l-281 -434 l330 -338h-264l-178 193q-92 -111 -195.5 -170.5t-249.5 -59.5q-123 0 -213 36t-148 95.5t-86 134t-28 154.5zM305 389q0 -53 22.5 -99t61.5 -81t87 -54.5t102 -19.5q53 0 99 16.5t86 42t73.5 58.5t62.5 67l-350 365q-43 -25 -87 -53.5t-79 -63.5t-56.5 -79t-21.5 -99z M453 1133q0 -37 13 -70t34.5 -63.5t46 -57.5t49.5 -51q37 20 77 45t72.5 55.5t54 68.5t21.5 87q0 72 -49 114t-127 42t-135 -44.5t-57 -125.5z" />
</font>
</defs>
</svg>
