<svg id="Lag_1" data-name="Lag 1" xmlns="http://www.w3.org/2000/svg" viewBox="0 0 64 64"><defs><style>.cls-1{fill:#023f88;}</style></defs><title>Animal_Food</title><g id="Icons"><g id="Icons-Symbols-Rev1"><g id="Food-Icons"><g id="Animal-food"><g id="animal_food" data-name="animal food"><path class="cls-1" d="M62.44,31.84A8.26,8.26,0,0,0,49.76,21.33a8.46,8.46,0,0,0-2.23,3.94H47.4l-31,.16a8.09,8.09,0,0,0-2.18-3.92A8.36,8.36,0,0,0,1.39,32.15,8.27,8.27,0,0,0,14.07,42.67a8.46,8.46,0,0,0,2.23-3.94l31.17-.16a8.09,8.09,0,0,0,2.18,3.92A8.37,8.37,0,0,0,62.44,31.84Z"/></g></g></g></g></g></svg>