<svg id="Lag_1" data-name="Lag 1" xmlns="http://www.w3.org/2000/svg" viewBox="0 0 64 64">
    <title>Avatar</title>
    <path fill="#023f88" class="cls-1" d="M0,32A32,32,0,1,0,32,0,32,32,0,0,0,0,32Zm60,0A28,28,0,1,1,32,4,28,28,0,0,1,60,32Z"/>
    <path fill="none" stroke="#023f88" stroke-miterlimit="10" stroke-width="4" fill-rule="evenodd" class="cls-2" d="M21.42,24c.5-5.27,5.26-7.91,10.58-7.91S42.07,18.7,42.57,24c.26,2.76-.36,9.27-1.74,11.74a11.41,11.41,0,0,1-7.14,4.94,8.79,8.79,0,0,1-3.39,0,11.36,11.36,0,0,1-7.13-4.94c-1.38-2.47-2-9-1.75-11.74ZM51.76,54.05c.81-14.8-40.33-14.76-39.53,0"/>
</svg>
