<svg id="Lag_1" data-name="Lag 1" xmlns="http://www.w3.org/2000/svg" viewBox="0 0 64 64"><defs><style>.cls-1{fill:#023f88;}</style></defs><title>Bold_Arrow_Left</title><g id="Icons"><g id="Icons-Symbols-Rev1"><g id="Basic-Icons"><g id="Bold-arrow-left"><path id="bold_arrow_left" data-name="bold arrow left" class="cls-1" d="M.56,33.6a2.64,2.64,0,0,1,0-3.2C.56,30,27.49,4.6,28.21,4.6c1.43-.7,2.86,0,4.29.69a3.6,3.6,0,0,1,1.44,2.79v7.68h26.5A3.33,3.33,0,0,1,64,19.24V44.76a3.33,3.33,0,0,1-3.58,3.48H33.94v7.68a3.6,3.6,0,0,1-1.44,2.79c-1.43.69-2.86,1.39-4.29.69C27.49,59.4.56,34,.56,33.6Z"/></g></g></g></g></svg>