<svg id="Lag_1" data-name="Lag 1" xmlns="http://www.w3.org/2000/svg" viewBox="0 0 64 64"><defs><style>.cls-1{fill:#023f88;}</style></defs><title>Catalog</title><path class="cls-1" d="M31,46V17a7,7,0,0,0-7-7H0V53H24A7,7,0,0,0,31,46Zm-7.5-5H6.5a1.5,1.5,0,0,1,0-3h17a1.5,1.5,0,0,1,0,3Zm0-8H6.5a1.5,1.5,0,0,1,0-3h17a1.5,1.5,0,0,1,0,3Zm0-8H6.5a1.5,1.5,0,0,1,0-3h17a1.5,1.5,0,0,1,0,3Z"/><path class="cls-1" d="M62.5,10H40a7,7,0,0,0-7,7V46a7,7,0,0,0,7,7H62.43A1.57,1.57,0,0,0,64,51.43V11.5A1.5,1.5,0,0,0,62.5,10Zm-5,31h-17a1.5,1.5,0,0,1,0-3h17a1.5,1.5,0,0,1,0,3Zm0-8h-17a1.5,1.5,0,0,1,0-3h17a1.5,1.5,0,0,1,0,3Zm0-8h-17a1.5,1.5,0,0,1,0-3h17a1.5,1.5,0,0,1,0,3Z"/><path class="cls-1" d="M36.16,53.75C35,53.3,32.73,52.18,32,50c-.74,2.22-3.08,3.35-4.23,3.78a.45.45,0,0,0-.13.74A5.75,5.75,0,0,0,32,56c.89,0,3,0,4.3-1.43A.5.5,0,0,0,36.16,53.75Z"/></svg>