<svg id="Lag_1" data-name="Lag 1" xmlns="http://www.w3.org/2000/svg" viewBox="0 0 64 64"><defs><style>.cls-1{fill:#023f88;}</style></defs><title>Excel</title><path class="cls-1" d="M36.5,17V0h-25a3,3,0,0,0-3,3V61a3,3,0,0,0,3,3h42a3,3,0,0,0,3-3V20h-17A3,3,0,0,1,36.5,17ZM44,30.31,36.5,42,44,53.69A1.5,1.5,0,0,1,42.75,56H38.39a1.51,1.51,0,0,1-1.33-.79c-2.45-4.52-4.56-8.59-4.56-8.59-.8,1.85-1.25,2.5-4.58,8.6a1.48,1.48,0,0,1-1.31.79H22.25A1.5,1.5,0,0,1,21,53.7L28.52,42,21,30.32A1.49,1.49,0,0,1,22.25,28H26.6a1.49,1.49,0,0,1,1.32.79c3.27,6.1,2.5,4.2,4.58,8.56,0,0,.76-1.46,4.57-8.56A1.52,1.52,0,0,1,38.4,28h4.35A1.49,1.49,0,0,1,44,30.31ZM56.5,15.24V16h-16V0h.76a3,3,0,0,1,2.13.88L55.62,13.12A3,3,0,0,1,56.5,15.24Z"/></svg>