<svg width="16" height="16" viewBox="0 0 16 16" fill="none" xmlns="http://www.w3.org/2000/svg">
<path fill-rule="evenodd" clip-rule="evenodd" d="M2.3849 3.67759L0.727096 2.01979L1.65416 1.09273L14.5422 13.9843L13.6151 14.9078L11.4956 12.7846L11.1866 12.4756C10.2013 12.8719 9.12522 13.09 7.99819 13.09C4.36265 13.09 1.25791 10.8287 0 7.63669C0.567144 6.19341 1.51602 4.94641 2.71575 4.00844L2.3849 3.67759ZM5.8714 7.16045L4.74802 6.03707C4.50808 6.52422 4.36265 7.06229 4.36265 7.63669C4.36265 9.64351 5.99138 11.2722 7.99819 11.2722C8.57263 11.2722 9.11067 11.1268 9.59421 10.8869L8.47083 9.76348C8.31813 9.7962 8.16179 9.81802 7.99819 9.81802C6.79482 9.81802 5.81687 8.84007 5.81687 7.63669C5.81687 7.47309 5.83868 7.31679 5.8714 7.16045ZM7.99782 4.0012C10.0046 4.0012 11.6334 5.62993 11.6334 7.63675C11.6334 8.10573 11.5389 8.5529 11.3753 8.96371L13.502 11.0905C14.6 10.1743 15.4652 8.98917 15.9997 7.63675C14.7381 4.44476 11.637 2.18344 7.99785 2.18344C6.97989 2.18344 6.00559 2.36521 5.10034 2.69241L6.67089 4.25931C7.08166 4.09936 7.52884 4.0012 7.99782 4.0012ZM7.87769 5.46627L10.1681 7.75666L10.179 7.63668C10.179 6.43331 9.20103 5.45536 7.99766 5.45536L7.87769 5.46627Z" fill="#023F88"/>
</svg>
