<svg id="Lag_1" data-name="Lag 1" xmlns="http://www.w3.org/2000/svg" viewBox="0 0 64 64"><defs><style>.cls-1{fill:#023f88;}</style></defs><title>Jar</title><g id="Icons"><g id="Icons-Symbols-Rev1"><g id="Food-Icons"><g id="Jar"><path id="jar-2" data-name="jar" class="cls-1" d="M52.38,6.15A6,6,0,0,0,46.72-.06H18a6,6,0,0,0-5.66,6.21,6.48,6.48,0,0,0,2,4.77,8.17,8.17,0,0,0-2,5.46V56.14c0,4.3,3.19,7.8,7.11,7.8H45.28c3.92,0,7.1-3.5,7.1-7.8V16.38a8.16,8.16,0,0,0-2-5.46A6.47,6.47,0,0,0,52.38,6.15ZM48.93,48.4H15.84V24.12H48.93Z"/></g></g></g></g></svg>