<svg id="Lag_1" data-name="Lag 1" xmlns="http://www.w3.org/2000/svg" viewBox="0 0 64 64"><defs><style>.cls-1{fill:#023f88;}</style></defs><title>peech</title><g id="Icons"><g id="Icons-Symbols-Rev1"><g id="Misc.-Icons-"><g id="Speech"><path id="speech-2" data-name="speech" class="cls-1" d="M32,3.5A36.75,36.75,0,0,1,48.06,7a30.06,30.06,0,0,1,11.63,9.44,21.94,21.94,0,0,1,0,26.12A30.06,30.06,0,0,1,48.06,52,36.75,36.75,0,0,1,32,55.5a38.08,38.08,0,0,1-13.38-2.37,34,34,0,0,1-6.87,4.12A27,27,0,0,1,1,59.5a.9.9,0,0,1-.88-.62,1.11,1.11,0,0,1,.13-1.13,28.48,28.48,0,0,0,2.87-3.62,26.56,26.56,0,0,0,4-8.25,27.26,27.26,0,0,1-5.25-7.63A20.91,20.91,0,0,1,0,29.5,21.76,21.76,0,0,1,4.31,16.44,30.06,30.06,0,0,1,15.94,7,36.75,36.75,0,0,1,32,3.5Z"/></g></g></g></g></svg>