<svg id="Lag_1" data-name="Lag 1" xmlns="http://www.w3.org/2000/svg" viewBox="0 0 64 64"><defs><style>.cls-1{fill:#023f88;}</style></defs><title>Plant_Based</title><path class="cls-1" d="M12.21,26.35c-.1-5.76,3.25-12.85,12.63-14a24.43,24.43,0,0,1,2.91-.18c4.57,0,8.53,1.31,12.34,2.62s7.48,2.63,11.46,2.63a17.77,17.77,0,0,0,5.9-1,23,23,0,0,0,3.42-1.54l.08,0-.05.13q-1,3-2.15,5.53a40.14,40.14,0,0,1-8.11,12.29c-1.53-1.18-3-2.53-4.54-3.94a43.11,43.11,0,0,0-9.74-7.38c1,.09,2.11.14,3.34.14,1.67,0,3.52-.51,5.51-.67.43,0,.71-.23.65-.44s-.47-.34-.89-.31c-1.91.15-3.68.23-5.27.23a22.81,22.81,0,0,1-7.44-1.15,20.79,20.79,0,0,0-3.58-.35,13.56,13.56,0,0,0-1.43.07l-.31,0a14.22,14.22,0,0,0-12.17,6.89,14.47,14.47,0,0,0-2.25,3.81,17.72,17.72,0,0,0-1.95.62l-.91.34v0a22.3,22.3,0,0,0-4.23,2.52,17.91,17.91,0,0,1,6.78-6.79"/><path class="cls-1" d="M60.3,41.92a43.88,43.88,0,0,1-8.9,6.66,26.64,26.64,0,0,1-12.93,3.58c-14.19,0-23.94-13-24.57-17.71,0-.16,0-.3,0-.44l-.31.08a16.45,16.45,0,0,0-4.64,2.12c-.43.27-.82.55-1.19.83s-.82.65-1.17,1a17.52,17.52,0,0,0-1.73,1.7l-.21.24-.14.14-.07.08H0l1.67-1.74.82-.83h0l.23-.23c.38-.36.76-.73,1.16-1.09A24.58,24.58,0,0,1,10.12,32l.76-.32.83-.28.81-.25.67-.18.26-.06c.25-.06.49-.12.75-.16v0a19.91,19.91,0,0,1,4-.43,15.09,15.09,0,0,1,4.07.54c3,.83,4.83,2.52,7.13,4.24A16.16,16.16,0,0,0,39,38.51h.07c.36,0,.66-.13.7-.3s-.24-.34-.63-.36c-4.28-.2-6.68-2.31-8.91-4S26,30.35,22.63,29.43a16.34,16.34,0,0,0-4.44-.59,19.84,19.84,0,0,0-3.51.31c.17-.46.38-.93.6-1.4a12.91,12.91,0,0,1,11.66-7.39,14.25,14.25,0,0,1,1.7.11,17.94,17.94,0,0,1,3.17.66c8.1,2.47,12.41,8.43,17.8,12.61l.59.44.59.43a18.33,18.33,0,0,0,10.94,3.58h.12c.69,0,1.41,0,2.15-.1-1.24,1.4-2.48,2.66-3.7,3.82"/></svg>