<svg id="Lag_1" data-name="Lag 1" xmlns="http://www.w3.org/2000/svg" viewBox="0 0 64 64"><defs><style>.cls-1{fill:#023f88;}</style></defs><title>TetraPak</title><polygon class="cls-1" points="53.6 43.69 64 30.66 53.31 30.64 48.21 37.08 53.6 43.69 53.6 43.69"/><path class="cls-1" d="M34.28,37.18a6.58,6.58,0,0,1,5.15,2.47c.48.56.62.71,1,1.17,1.25,1.59,1.67,2.16,2.39,3.09-.72.88-1.14,1.48-2.39,3.07-.35.46-.49.61-1,1.17a6.56,6.56,0,0,1-5.15,2.45,6.71,6.71,0,0,1,0-13.42Z"/><path class="cls-1" d="M29.13,57.85a11.22,11.22,0,0,1-2.91-1.28,14.83,14.83,0,0,1-7-12.69,15.08,15.08,0,0,1,15-15.12,14.62,14.62,0,0,1,11.4,5.38l.19.23.14-.11L29.79,6,0,58H29.13v-.15Z"/><path class="cls-1" d="M39.69,57.86V58h20v-.15l-.61-.1a12,12,0,0,1-3.14-.86c-3-1.24-5.55-3.72-7.7-6.29,0,0-1.6,2.11-3,3.68a11.83,11.83,0,0,1-5.49,3.58Z"/></svg>