<svg id="Lag_1" data-name="Lag 1" xmlns="http://www.w3.org/2000/svg" viewBox="0 0 64 64"><defs><style>.cls-1{fill:#023f88;}</style></defs><title>Youtube</title><path class="cls-1" d="M33,54.28l-9.39-.15c-2.16-.05-4.31-.11-6.45-.22s-4.41-.27-6.61-.46a21,21,0,0,1-3.36-.51A7.9,7.9,0,0,1,1.26,47,24.82,24.82,0,0,1,.54,42.5C.36,40.2.2,37.9.09,35.59,0,33.05,0,30.5.09,28c.08-1.56.15-3.13.26-4.69a39.88,39.88,0,0,1,.94-6.7,8.19,8.19,0,0,1,6.49-6A59.1,59.1,0,0,1,13.7,10c5.41-.34,10.83-.48,16.25-.48,4.44,0,8.89.08,13.33.17,2.28.05,4.57.19,6.85.33a55.75,55.75,0,0,1,5.75.6,8.25,8.25,0,0,1,5.06,2.65,8.59,8.59,0,0,1,1.92,4,44.26,44.26,0,0,1,.72,5A104.46,104.46,0,0,1,64,33.56c0,2.68-.17,5.36-.42,8a30.54,30.54,0,0,1-.94,5.79,7.63,7.63,0,0,1-6.16,5.67,34.86,34.86,0,0,1-4.21.54c-5.94.48-11.89.58-17.85.64H33ZM25.62,41.45l16.66-9.58L25.62,22.26Z"/></svg>