<svg width="125" height="40" viewBox="0 0 125 40" fill="none" xmlns="http://www.w3.org/2000/svg">
<path d="M0 4C0 1.79086 1.79086 0 4 0H121C123.209 0 125 1.79086 125 4V36C125 38.2091 123.209 40 121 40H4C1.79086 40 0 38.2091 0 36V4Z" fill="#023F88"/>
<path d="M17.2715 25V15.0879H20.7168C21.1452 15.0879 21.5439 15.1403 21.9131 15.2451C22.2822 15.3454 22.599 15.4958 22.8633 15.6963C23.1322 15.8968 23.3418 16.1543 23.4922 16.4688C23.6471 16.7786 23.7246 17.1455 23.7246 17.5693C23.7246 18.139 23.5651 18.6038 23.2461 18.9639C22.9316 19.3193 22.5238 19.5814 22.0225 19.75V19.7773C22.3232 19.7956 22.6035 19.873 22.8633 20.0098C23.123 20.1465 23.3486 20.3242 23.54 20.543C23.7314 20.7617 23.8818 21.0169 23.9912 21.3086C24.1051 21.5957 24.1621 21.9079 24.1621 22.2451C24.1621 22.6917 24.071 23.0859 23.8887 23.4277C23.7064 23.765 23.4557 24.0521 23.1367 24.2891C22.8223 24.5215 22.4554 24.6992 22.0361 24.8223C21.6169 24.9408 21.1634 25 20.6758 25H17.2715ZM18.6182 23.8242H20.5938C20.7988 23.8242 21.0244 23.8037 21.2705 23.7627C21.5166 23.7217 21.7467 23.6374 21.9609 23.5098C22.1797 23.3822 22.362 23.2113 22.5078 22.9971C22.6582 22.7829 22.7334 22.498 22.7334 22.1426C22.7334 21.5547 22.542 21.1149 22.1592 20.8232C21.7764 20.527 21.2591 20.3789 20.6074 20.3789H18.6182V23.8242ZM18.6182 19.2031H20.4502C20.7008 19.2031 20.9378 19.1781 21.1611 19.1279C21.389 19.0778 21.5872 18.9912 21.7559 18.8682C21.9245 18.7451 22.0566 18.5902 22.1523 18.4033C22.2526 18.2165 22.3027 17.9886 22.3027 17.7197C22.3027 17.3278 22.1751 16.9883 21.9199 16.7012C21.6693 16.4095 21.2728 16.2637 20.7305 16.2637H18.6182V19.2031ZM25.7686 22.6348V18.3623H27.0332V22.2861C27.0332 22.596 27.0742 22.8604 27.1562 23.0791C27.2383 23.2979 27.3499 23.4756 27.4912 23.6123C27.6325 23.7445 27.7943 23.8424 27.9766 23.9062C28.1589 23.9655 28.348 23.9951 28.5439 23.9951C28.8037 23.9951 29.0452 23.9541 29.2686 23.8721C29.4919 23.7855 29.6878 23.651 29.8564 23.4688C30.0251 23.2865 30.1549 23.0563 30.2461 22.7783C30.3418 22.4958 30.3896 22.1631 30.3896 21.7803V18.3623H31.6475V25H30.3896V23.9746H30.3623C30.2028 24.3301 29.9271 24.6195 29.5352 24.8428C29.1432 25.0615 28.6921 25.1709 28.1816 25.1709C27.8535 25.1709 27.5436 25.1208 27.252 25.0205C26.9648 24.9248 26.7119 24.7744 26.4932 24.5693C26.2744 24.3597 26.099 24.0954 25.9668 23.7764C25.8346 23.4528 25.7686 23.0723 25.7686 22.6348ZM32.584 19.4561V18.3623H34.04V16.5029H35.2979V18.3623H37.1025V19.4561H35.2979V22.4639C35.2979 22.6507 35.3024 22.8353 35.3115 23.0176C35.3206 23.1999 35.3548 23.3639 35.4141 23.5098C35.4779 23.6556 35.5713 23.7741 35.6943 23.8652C35.8219 23.9518 36.0088 23.9951 36.2549 23.9951C36.4053 23.9951 36.5579 23.9814 36.7129 23.9541C36.8724 23.9222 37.0182 23.8698 37.1504 23.7969V24.9453C37 25.0273 36.804 25.0843 36.5625 25.1162C36.3255 25.1527 36.1432 25.1709 36.0156 25.1709C35.5326 25.1709 35.1566 25.1025 34.8877 24.9658C34.6188 24.8291 34.4206 24.6536 34.293 24.4395C34.1699 24.2253 34.097 23.986 34.0742 23.7217C34.0514 23.4528 34.04 23.1839 34.04 22.915V19.4561H32.584ZM37.7656 19.4561V18.3623H39.2217V16.5029H40.4795V18.3623H42.2842V19.4561H40.4795V22.4639C40.4795 22.6507 40.484 22.8353 40.4932 23.0176C40.5023 23.1999 40.5365 23.3639 40.5957 23.5098C40.6595 23.6556 40.7529 23.7741 40.876 23.8652C41.0036 23.9518 41.1904 23.9951 41.4365 23.9951C41.5869 23.9951 41.7396 23.9814 41.8945 23.9541C42.054 23.9222 42.1999 23.8698 42.332 23.7969V24.9453C42.1816 25.0273 41.9857 25.0843 41.7441 25.1162C41.5072 25.1527 41.3249 25.1709 41.1973 25.1709C40.7142 25.1709 40.3382 25.1025 40.0693 24.9658C39.8005 24.8291 39.6022 24.6536 39.4746 24.4395C39.3516 24.2253 39.2786 23.986 39.2559 23.7217C39.2331 23.4528 39.2217 23.1839 39.2217 22.915V19.4561H37.7656ZM43.5898 21.6846C43.5898 21.2015 43.681 20.7503 43.8633 20.3311C44.0456 19.9072 44.2939 19.5381 44.6084 19.2236C44.9274 18.9046 45.3011 18.654 45.7295 18.4717C46.1624 18.2894 46.625 18.1982 47.1172 18.1982C47.6139 18.1982 48.0765 18.2894 48.5049 18.4717C48.9333 18.654 49.3047 18.9046 49.6191 19.2236C49.9382 19.5381 50.1888 19.9049 50.3711 20.3242C50.5534 20.7435 50.6445 21.1969 50.6445 21.6846C50.6445 22.1676 50.5534 22.6211 50.3711 23.0449C50.1888 23.4688 49.9382 23.8379 49.6191 24.1523C49.3047 24.4668 48.9333 24.7152 48.5049 24.8975C48.0765 25.0798 47.6139 25.1709 47.1172 25.1709C46.6204 25.1709 46.1579 25.0798 45.7295 24.8975C45.3011 24.7152 44.9274 24.4668 44.6084 24.1523C44.2939 23.8379 44.0456 23.4688 43.8633 23.0449C43.681 22.6211 43.5898 22.1676 43.5898 21.6846ZM44.9365 21.6846C44.9365 22.0218 44.9867 22.3317 45.0869 22.6143C45.1917 22.8968 45.3376 23.1383 45.5244 23.3389C45.7113 23.5394 45.9391 23.6989 46.208 23.8174C46.4814 23.9359 46.7845 23.9951 47.1172 23.9951C47.4544 23.9951 47.7575 23.9359 48.0264 23.8174C48.2998 23.6989 48.5299 23.5394 48.7168 23.3389C48.9036 23.1383 49.0472 22.8968 49.1475 22.6143C49.2523 22.3271 49.3047 22.0173 49.3047 21.6846C49.3047 21.3473 49.2523 21.0374 49.1475 20.7549C49.0472 20.4678 48.9036 20.224 48.7168 20.0234C48.5299 19.8229 48.2998 19.6657 48.0264 19.5518C47.7575 19.4333 47.4544 19.374 47.1172 19.374C46.7799 19.374 46.4769 19.4333 46.208 19.5518C45.9391 19.6657 45.7113 19.8229 45.5244 20.0234C45.3376 20.224 45.1917 20.4678 45.0869 20.7549C44.9867 21.0374 44.9365 21.3473 44.9365 21.6846ZM52.2236 25V18.3623H53.4883V19.3877H53.5156C53.6751 19.0322 53.9508 18.7451 54.3428 18.5264C54.7347 18.3076 55.1859 18.1982 55.6963 18.1982C56.0153 18.1982 56.3206 18.2484 56.6123 18.3486C56.9085 18.4443 57.166 18.5947 57.3848 18.7998C57.6035 19.0049 57.7767 19.2692 57.9043 19.5928C58.0365 19.9118 58.1025 20.29 58.1025 20.7275V25H56.8447V21.083C56.8447 20.7731 56.8014 20.5088 56.7148 20.29C56.6328 20.0713 56.5212 19.8936 56.3799 19.7568C56.2432 19.6201 56.0837 19.5221 55.9014 19.4629C55.7191 19.4036 55.5299 19.374 55.334 19.374C55.0742 19.374 54.8304 19.4173 54.6025 19.5039C54.3792 19.5859 54.1833 19.7181 54.0146 19.9004C53.8506 20.0781 53.7207 20.3083 53.625 20.5908C53.5339 20.8688 53.4883 21.1992 53.4883 21.582V25H52.2236ZM62.9355 19.4561V18.3623H64.3916V16.5029H65.6494V18.3623H67.4541V19.4561H65.6494V22.4639C65.6494 22.6507 65.654 22.8353 65.6631 23.0176C65.6722 23.1999 65.7064 23.3639 65.7656 23.5098C65.8294 23.6556 65.9229 23.7741 66.0459 23.8652C66.1735 23.9518 66.3604 23.9951 66.6064 23.9951C66.7568 23.9951 66.9095 23.9814 67.0645 23.9541C67.224 23.9222 67.3698 23.8698 67.502 23.7969V24.9453C67.3516 25.0273 67.1556 25.0843 66.9141 25.1162C66.6771 25.1527 66.4948 25.1709 66.3672 25.1709C65.8841 25.1709 65.5081 25.1025 65.2393 24.9658C64.9704 24.8291 64.7721 24.6536 64.6445 24.4395C64.5215 24.2253 64.4486 23.986 64.4258 23.7217C64.403 23.4528 64.3916 23.1839 64.3916 22.915V19.4561H62.9355ZM68.6914 21.6846C68.6914 21.1878 68.778 20.7275 68.9512 20.3037C69.1243 19.8799 69.3613 19.5107 69.6621 19.1963C69.9674 18.8818 70.3298 18.638 70.749 18.4648C71.1683 18.2871 71.6263 18.1982 72.123 18.1982C72.7109 18.1982 73.2077 18.3008 73.6133 18.5059C74.0189 18.7109 74.3516 18.9798 74.6113 19.3125C74.8757 19.6406 75.0648 20.012 75.1787 20.4268C75.2972 20.8415 75.3564 21.2653 75.3564 21.6982V22.1426H70.0381C70.0381 22.4297 70.0996 22.694 70.2227 22.9355C70.3503 23.1725 70.5166 23.3753 70.7217 23.5439C70.9268 23.7126 71.1637 23.8447 71.4326 23.9404C71.7061 24.0316 71.9863 24.0771 72.2734 24.0771C72.6654 24.0771 73.0049 23.986 73.292 23.8037C73.5837 23.6214 73.8503 23.3799 74.0918 23.0791L75.0488 23.8105C74.347 24.7174 73.3672 25.1709 72.1094 25.1709C71.5853 25.1709 71.1113 25.082 70.6875 24.9043C70.2637 24.7266 69.9036 24.4827 69.6074 24.1729C69.3158 23.8584 69.0902 23.4893 68.9307 23.0654C68.7712 22.637 68.6914 22.1768 68.6914 21.6846ZM70.0381 21.1377H74.0098C74.0007 20.8597 73.9551 20.6045 73.873 20.3721C73.7956 20.1351 73.6771 19.93 73.5176 19.7568C73.3626 19.5837 73.1644 19.4492 72.9229 19.3535C72.6859 19.2533 72.4102 19.2031 72.0957 19.2031C71.7858 19.2031 71.501 19.2624 71.2412 19.3809C70.986 19.4948 70.7695 19.6452 70.5918 19.832C70.4186 20.0189 70.2819 20.2285 70.1816 20.4609C70.0859 20.6888 70.0381 20.9144 70.0381 21.1377ZM75.9922 25L78.6855 21.459L76.3271 18.3623H77.9541L79.5674 20.7139L81.1465 18.3623H82.6709L80.4014 21.459L83.0947 25H81.4678L79.5059 22.2109L77.5508 25H75.9922ZM83.1562 19.4561V18.3623H84.6123V16.5029H85.8701V18.3623H87.6748V19.4561H85.8701V22.4639C85.8701 22.6507 85.8747 22.8353 85.8838 23.0176C85.8929 23.1999 85.9271 23.3639 85.9863 23.5098C86.0501 23.6556 86.1436 23.7741 86.2666 23.8652C86.3942 23.9518 86.5811 23.9951 86.8271 23.9951C86.9775 23.9951 87.1302 23.9814 87.2852 23.9541C87.4447 23.9222 87.5905 23.8698 87.7227 23.7969V24.9453C87.5723 25.0273 87.3763 25.0843 87.1348 25.1162C86.8978 25.1527 86.7155 25.1709 86.5879 25.1709C86.1048 25.1709 85.7288 25.1025 85.46 24.9658C85.1911 24.8291 84.9928 24.6536 84.8652 24.4395C84.7422 24.2253 84.6693 23.986 84.6465 23.7217C84.6237 23.4528 84.6123 23.1839 84.6123 22.915V19.4561H83.1562Z" fill="white"/>
<path fill-rule="evenodd" clip-rule="evenodd" d="M100.213 14.0923C100.449 13.9394 100.783 13.9807 100.96 14.1846L106 20L100.96 25.8154C100.783 26.0193 100.449 26.0606 100.213 25.9077C99.9777 25.7547 99.93 25.4654 100.107 25.2615L104.667 20L100.107 14.7385C99.93 14.5346 99.9777 14.2453 100.213 14.0923Z" fill="white"/>
</svg>
