<svg width="16" height="16" viewBox="0 0 16 16" fill="none" xmlns="http://www.w3.org/2000/svg">
<path fill-rule="evenodd" clip-rule="evenodd" d="M0 8C0 12.4183 3.58172 16 8 16C12.4183 16 16 12.4183 16 8C16 3.58172 12.4183 0 8 0C3.58172 0 0 3.58172 0 8ZM15 8C15 11.866 11.866 15 8 15C4.13401 15 1 11.866 1 8C1 4.13401 4.13401 1 8 1C11.866 1 15 4.13401 15 8Z" fill="#023F88"/>
<path d="M6.13966 4.8135C5.96725 4.60185 5.96675 4.301 6.16889 4.12047C6.37103 3.93995 6.67467 3.96518 6.84709 4.17684L10 8L6.84571 11.8249C6.6724 12.0357 6.36866 12.0595 6.16728 11.8781C5.9659 11.6966 5.94314 11.3786 6.11644 11.1677L8.73305 7.99707L6.13966 4.8135Z" fill="#023F88"/>
</svg>
