<svg width="12" height="12" viewBox="0 0 12 12" fill="none" xmlns="http://www.w3.org/2000/svg">
<path fill-rule="evenodd" clip-rule="evenodd" d="M6.0247 0.375001L6.0247 8.25003L1.70821 4.95002C1.55284 4.82575 1.33243 4.85933 1.2159 5.02502C1.09937 5.1907 1.13086 5.42575 1.28623 5.55002L6.16536 9.30003L6.37635 9.46878L6.58734 9.30003L11.4665 5.55002C11.6218 5.42576 11.6533 5.1907 11.5368 5.02502C11.4203 4.85933 11.1999 4.82575 11.0445 4.95002L6.728 8.25003L6.728 0.375001C6.728 0.167894 6.57056 0 6.37635 0C6.18214 0 6.0247 0.167894 6.0247 0.375001ZM0.35165 11.25C0.157439 11.25 0 11.4179 0 11.625C0 11.8321 0.157439 12 0.35165 12H11.6484C11.8426 12 12 11.8321 12 11.625C12 11.4179 11.8426 11.25 11.6484 11.25H0.35165Z" fill="#023F88"/>
</svg>
