<svg width="16" height="16" viewBox="0 0 16 16" fill="none" xmlns="http://www.w3.org/2000/svg">
<path fill-rule="evenodd" clip-rule="evenodd" d="M5.93703 4.16716L6.06585 3.66667L5.93703 3.16617C5.71497 2.30342 4.93101 1.66667 4 1.66667C5.10457 1.66667 6 2.5621 6 3.66667C6 4.36069 5.6465 4.97215 5.10973 5.3308C5.51287 5.06153 5.81284 4.64969 5.93703 4.16716ZM2.89027 2.00253C2.3535 2.36119 2 2.97264 2 3.66667C2 4.77124 2.89543 5.66667 4 5.66667C3.06899 5.66667 2.28503 5.02992 2.06297 4.16716L1.93415 3.66667L2.06297 3.16617C2.18716 2.68364 2.48713 2.27181 2.89027 2.00253ZM13.3981 8.33333L13.2713 7.83664C13.0511 6.97403 12.2695 6.33638 11.34 6.33334C12.4415 6.33695 13.3333 7.23099 13.3333 8.33333C13.3333 9.02701 12.9802 9.63821 12.4439 9.99694C12.8477 9.72694 13.1478 9.31387 13.2713 8.83002L13.3981 8.33333ZM9.26854 8.33333L9.39533 8.83002C9.61553 9.69263 10.3972 10.3303 11.3267 10.3333C10.2252 10.3297 9.33333 9.43568 9.33333 8.33333C9.33333 7.2978 10.1203 6.44608 11.1288 6.34366C10.2878 6.42913 9.59971 7.03598 9.39533 7.83664L9.26854 8.33333ZM1.93415 13L2.06297 13.5005C2.2845 14.3612 3.06524 14.997 3.99332 15C2.89182 14.9964 2 14.1023 2 13C2 12.3051 2.35443 11.6929 2.89239 11.3345C2.48817 11.6037 2.18738 12.0161 2.06297 12.4995L1.93415 13ZM6.0648 13L5.93801 12.5033C5.71732 11.6388 4.93264 11.0002 4.00045 11C5.10482 11.0002 6 11.8956 6 13C6 13.6937 5.64685 14.3049 5.11052 14.6636C5.51433 14.3936 5.81449 13.9805 5.93801 13.4967L6.0648 13ZM1.41735 3H0.666667C0.298477 3 0 3.29848 0 3.66667C0 4.03486 0.298477 4.33333 0.666667 4.33333H1.41735C1.71337 5.48349 2.75744 6.33333 4 6.33333C5.24256 6.33333 6.28663 5.48349 6.58266 4.33333H15.3333C15.7015 4.33333 16 4.03486 16 3.66667C16 3.29848 15.7015 3 15.3333 3H6.58266C6.28663 1.84985 5.24256 1 4 1C2.75744 1 1.71337 1.84985 1.41735 3ZM1.41735 13.6667C1.71337 14.8168 2.75744 15.6667 4 15.6667C5.24439 15.6667 6.2897 14.8143 6.58396 13.6616C6.61106 13.6649 6.63866 13.6667 6.66667 13.6667H15.3333C15.7015 13.6667 16 13.3682 16 13C16 12.6318 15.7015 12.3333 15.3333 12.3333H6.66667C6.63866 12.3333 6.61106 12.3351 6.58396 12.3384C6.2897 11.1857 5.24439 10.3333 4 10.3333C2.75744 10.3333 1.71337 11.1832 1.41735 12.3333H0.666667C0.298477 12.3333 0 12.6318 0 13C0 13.3682 0.298477 13.6667 0.666667 13.6667H1.41735ZM4 5C4.73638 5 5.33333 4.40305 5.33333 3.66667C5.33333 2.93029 4.73638 2.33333 4 2.33333C3.26362 2.33333 2.66667 2.93029 2.66667 3.66667C2.66667 4.40305 3.26362 5 4 5ZM12.6667 8.33333C12.6667 9.06971 12.0697 9.66667 11.3333 9.66667C10.597 9.66667 10 9.06971 10 8.33333C10 7.59695 10.597 7 11.3333 7C12.0697 7 12.6667 7.59695 12.6667 8.33333ZM13.9173 8.99492C13.623 10.1476 12.5777 11 11.3333 11C10.0889 11 9.04363 10.1476 8.74938 8.99492C8.72227 8.99827 8.69467 9 8.66667 9H0.666667C0.298477 9 0 8.70152 0 8.33333C0 7.96514 0.298477 7.66667 0.666667 7.66667H8.66667C8.69467 7.66667 8.72227 7.6684 8.74938 7.67175C9.04363 6.51902 10.0889 5.66667 11.3333 5.66667C12.5777 5.66667 13.623 6.51902 13.9173 7.67175C13.9444 7.6684 13.972 7.66667 14 7.66667H15.3333C15.7015 7.66667 16 7.96514 16 8.33333C16 8.70152 15.7015 9 15.3333 9H14C13.972 9 13.9444 8.99827 13.9173 8.99492ZM4 14.3333C4.73638 14.3333 5.33333 13.7364 5.33333 13C5.33333 12.2636 4.73638 11.6667 4 11.6667C3.26362 11.6667 2.66667 12.2636 2.66667 13C2.66667 13.7364 3.26362 14.3333 4 14.3333Z" fill="#4A4A4A"/>
</svg>
