<svg width="16" height="16" viewBox="0 0 16 16" fill="none" xmlns="http://www.w3.org/2000/svg">
<path fill-rule="evenodd" clip-rule="evenodd" d="M7.99984 1.44138C10.136 1.44138 10.3888 1.44964 11.2325 1.48806C12.0125 1.52363 12.4361 1.65383 12.7181 1.76338C13.0915 1.9085 13.3579 2.08189 13.638 2.36166C13.9181 2.64174 14.0915 2.90817 14.2363 3.28161C14.3459 3.5636 14.4761 3.98722 14.5116 4.76713C14.55 5.61056 14.5583 5.86365 14.5583 7.99984C14.5583 10.136 14.55 10.3888 14.5116 11.2325C14.4761 12.0125 14.3459 12.4361 14.2363 12.7181C14.0912 13.0915 13.9178 13.3579 13.638 13.638C13.3579 13.9181 13.0915 14.0915 12.7181 14.2363C12.4361 14.3459 12.0125 14.4761 11.2325 14.5116C10.3891 14.55 10.136 14.5583 7.99984 14.5583C5.86365 14.5583 5.61056 14.55 4.76713 14.5116C3.98722 14.4761 3.5636 14.3459 3.28161 14.2363C2.90817 14.0912 2.64174 13.9178 2.36166 13.638C2.08157 13.3579 1.90819 13.0915 1.76338 12.7181C1.65383 12.4361 1.52363 12.0125 1.48806 11.2325C1.44964 10.3891 1.44138 10.136 1.44138 7.99984C1.44138 5.86365 1.44964 5.61088 1.48806 4.76713C1.52363 3.98722 1.65383 3.5636 1.76338 3.28161C1.9085 2.90817 2.08189 2.64174 2.36166 2.36166C2.64174 2.08157 2.90817 1.90819 3.28161 1.76338C3.5636 1.65383 3.98722 1.52363 4.76713 1.48806C5.61088 1.44964 5.86365 1.44138 7.99984 1.44138ZM7.99984 0C5.82713 0 5.55467 0.00920909 4.7014 0.0482683C3.85003 0.08701 3.26859 0.222288 2.75955 0.420125C2.23336 0.62463 1.7872 0.898045 1.34262 1.34294C0.898045 1.78752 0.624313 2.23368 0.420125 2.75955C0.222288 3.26859 0.08701 3.85003 0.0482683 4.7014C0.00920909 5.55467 0 5.82713 0 7.99984C0 10.1726 0.00920909 10.445 0.0482683 11.2983C0.08701 12.1496 0.222288 12.7311 0.420125 13.2401C0.62463 13.7663 0.898045 14.2125 1.34294 14.6571C1.78783 15.102 2.23368 15.3754 2.75987 15.5799C3.26859 15.7777 3.85035 15.913 4.70172 15.9517C5.55499 15.9908 5.82745 16 8.00016 16C10.1729 16 10.4453 15.9908 11.2986 15.9517C12.15 15.913 12.7317 15.7777 13.2404 15.5799C13.7666 15.3754 14.2128 15.102 14.6574 14.6571C15.1023 14.2122 15.3757 13.7663 15.5802 13.2401C15.778 12.7314 15.9133 12.1496 15.952 11.2983C15.9911 10.445 16.0003 10.1726 16.0003 7.99984C16.0003 5.82713 15.9911 5.55467 15.952 4.7014C15.9133 3.85003 15.778 3.26827 15.5802 2.75955C15.3757 2.23336 15.1023 1.7872 14.6574 1.34262C14.2125 0.897727 13.7666 0.624313 13.2404 0.419807C12.7311 0.222288 12.1496 0.08701 11.2983 0.0482683C10.445 0.00920909 10.1726 0 7.99984 0ZM7.99984 3.89195C5.73091 3.89195 3.89195 5.73123 3.89195 7.99984C3.89195 10.2685 5.73123 12.1077 7.99984 12.1077C10.2685 12.1077 12.1077 10.2685 12.1077 7.99984C12.1077 5.73123 10.2688 3.89195 7.99984 3.89195ZM7.99984 10.6664C6.52702 10.6664 5.33334 9.47235 5.33334 7.99984C5.33334 6.52702 6.52734 5.33334 7.99984 5.33334C9.47235 5.33334 10.6664 6.52734 10.6664 7.99984C10.6664 9.47266 9.47266 10.6664 7.99984 10.6664ZM13.2303 3.72936C13.2303 4.25953 12.8005 4.68933 12.2703 4.68933C11.7402 4.68933 11.3104 4.25953 11.3104 3.72936C11.3104 3.19918 11.7402 2.76939 12.2703 2.76939C12.8005 2.76939 13.2303 3.19918 13.2303 3.72936Z" fill="white"/>
</svg>
