<svg width="16" height="17" viewBox="0 0 16 17" fill="none" xmlns="http://www.w3.org/2000/svg">
<path d="M8 0C3.58219 0 0 3.58147 0 7.99971C0 11.2756 1.96982 14.0897 4.78869 15.3271C4.76595 14.7685 4.78461 14.0979 4.92806 13.4903C5.082 12.8407 5.95729 9.13094 5.95729 9.13094C5.95729 9.13094 5.70187 8.62014 5.70187 7.86501C5.70187 6.67954 6.3888 5.79438 7.24484 5.79438C7.97259 5.79438 8.32422 6.34076 8.32422 6.99559C8.32422 7.72681 7.85772 8.82131 7.61747 9.83476C7.41687 10.6832 8.04315 11.3753 8.87995 11.3753C10.3955 11.3753 11.4166 9.42891 11.4166 7.12213C11.4166 5.36871 10.2357 4.05671 8.08747 4.05671C5.66047 4.05671 4.14899 5.86669 4.14899 7.88775C4.14899 8.58457 4.35425 9.07613 4.67614 9.4569C4.82426 9.63184 4.84467 9.70181 4.79102 9.90298C4.75253 10.0499 4.66448 10.4045 4.62833 10.545C4.57526 10.7473 4.41082 10.8202 4.22771 10.745C3.10985 10.2884 2.58911 9.06447 2.58911 7.68891C2.58911 5.41652 4.50587 2.69164 8.30673 2.69164C11.3612 2.69164 13.3712 4.90164 13.3712 7.27432C13.3712 10.4126 11.6265 12.7573 9.05489 12.7573C8.19127 12.7573 7.37896 12.2902 7.10023 11.7602C7.10023 11.7602 6.63605 13.6034 6.5375 13.9591C6.36781 14.576 6.03601 15.1924 5.7322 15.6729C6.45178 15.8851 7.2116 16.0012 7.99942 16.0012C12.4172 16.0012 15.9994 12.4197 15.9994 8.00087C16 3.58147 12.4178 0 8 0Z" fill="white"/>
</svg>
