<svg id="Lag_1" data-name="Lag 1" xmlns="http://www.w3.org/2000/svg" viewBox="0 0 64 64"><defs><style>.cls-1{fill:#023f88;fill-rule:evenodd;}</style></defs><title>Twitter</title><path class="cls-1" d="M64,12.67a28.06,28.06,0,0,1-6.58,6.78c0,.57,0,1.14,0,1.71,0,17.34-13.2,37.32-37.32,37.32A37,37,0,0,1,0,52.59a27.58,27.58,0,0,0,3.17.16,26.28,26.28,0,0,0,16.28-5.6,13.13,13.13,0,0,1-12.26-9.1,15.43,15.43,0,0,0,2.47.21,14.14,14.14,0,0,0,3.46-.45A13.12,13.12,0,0,1,2.6,24.94v-.17a13.16,13.16,0,0,0,5.93,1.67A13.12,13.12,0,0,1,4.47,8.9a37.26,37.26,0,0,0,27,13.72,15,15,0,0,1-.32-3,13.13,13.13,0,0,1,22.7-9,25.63,25.63,0,0,0,8.32-3.17,13,13,0,0,1-5.76,7.23A26,26,0,0,0,64,12.67Z"/></svg>