<svg width="12" height="12" viewBox="0 0 12 12" fill="none" xmlns="http://www.w3.org/2000/svg">
<path fill-rule="evenodd" clip-rule="evenodd" d="M7.125 0.375C7.125 0.582107 7.29289 0.75 7.5 0.75H10.7197L5.25 6.21967C5.10355 6.36612 5.10355 6.60355 5.25 6.75C5.39645 6.89645 5.63388 6.89645 5.78033 6.75L11.25 1.28033V4.5C11.25 4.70711 11.4179 4.875 11.625 4.875C11.8321 4.875 12 4.70711 12 4.5V0.375V0H11.625H7.5C7.29289 0 7.125 0.167893 7.125 0.375ZM0.375 2.25H6.26786V3H0.75V11.25H9V5.73214H9.75V11.625C9.75 11.8321 9.58211 12 9.375 12H0.375C0.167893 12 0 11.8321 0 11.625V2.625C0 2.41789 0.167893 2.25 0.375 2.25Z" fill="#023F88"/>
</svg>
