<svg width="24" height="24" viewBox="0 0 24 24" fill="none" xmlns="http://www.w3.org/2000/svg">
<path fill-rule="evenodd" clip-rule="evenodd" d="M4 0C1.79086 0 0 1.79086 0 4V20C0 22.2091 1.79086 24 4 24H20C22.2091 24 24 22.2091 24 20V4C24 1.79086 22.2091 0 20 0H4ZM13.3416 16.719C13.3463 17.0583 13.1803 17.3289 12.7743 17.3289C12.6809 17.3289 12.5845 17.3299 12.4853 17.3309C11.2419 17.3434 9.55869 17.3604 7.85717 15.5237C5.97325 13.4904 4 9.41194 4 9.01062C4 8.7733 4.19666 8.66664 4.52464 8.66664H6.69455C7.20621 8.66664 7.30052 8.89283 7.42909 9.20115C7.44459 9.23831 7.46058 9.27666 7.47786 9.31595C8.14383 10.8365 9.74243 13.8898 10.1677 12.1858C10.4117 11.2072 10.5124 8.94129 9.46511 8.74597C8.87113 8.63531 9.91642 8 11.4317 8C11.8103 8 12.2183 8.04 12.6376 8.13666C13.4056 8.31532 13.4083 8.65997 13.3983 9.16262C13.389 9.62837 13.3682 10.0568 13.3495 10.4431C13.2918 11.6353 13.2535 12.4256 13.6316 12.6698C14.1102 12.9798 15.3709 10.9532 16.0342 9.38861C16.0582 9.33186 16.0798 9.27756 16.1003 9.22605C16.2355 8.88544 16.3224 8.66664 16.7695 8.66664H19.4234C20.782 8.66664 19.3099 10.5774 18.1213 12.1201C18.0945 12.1548 18.0679 12.1894 18.0414 12.2238C17.0842 13.4658 17.1251 13.5037 18.213 14.5133L18.2501 14.5477C19.0527 15.293 20 16.3083 20 16.8836C20 17.1556 19.788 17.3289 19.2494 17.3289H17.1161C16.2079 17.3289 15.8677 16.9382 15.3301 16.3208C15.1547 16.1194 14.9583 15.8937 14.7142 15.6497C13.8176 14.7531 13.3209 15.441 13.3416 16.719Z" fill="white"/>
</svg>
