<?xml version="1.0" standalone="no"?>
<!DOCTYPE svg PUBLIC "-//W3C//DTD SVG 1.1//EN" "http://www.w3.org/Graphics/SVG/1.1/DTD/svg11.dtd" >
<svg xmlns="http://www.w3.org/2000/svg">
<metadata></metadata>
<defs>
<font id="avenir_tplight_oblique" horiz-adv-x="1138" >
<font-face units-per-em="2048" ascent="1548" descent="-500" />
<missing-glyph horiz-adv-x="532" />
<glyph unicode="fi" horiz-adv-x="1062" d="M154 836l14 110h197l45 309q12 92 48 152.5t82 97.5t98 52.5t97 15.5q86 0 139 -25l-40 -106q-39 20 -107 20q-168 0 -201 -252l-39 -264h222l-15 -110h-221l-117 -836h-123l117 836h-196zM756 0l131 946h123l-131 -946h-123zM909 1321q6 39 36 65.5t69 26.5t62.5 -26.5 t17.5 -65.5q-4 -39 -35 -65.5t-70 -26.5t-61.5 26.5t-18.5 65.5z" />
<glyph unicode="fl" horiz-adv-x="1062" d="M154 836l14 110h197l45 309q12 92 48 152.5t82 97.5t98 52.5t97 15.5q86 0 139 -25l-40 -106q-39 20 -107 20q-168 0 -201 -252l-39 -264h222l-15 -110h-221l-117 -836h-123l117 836h-196zM756 0l217 1548h123l-217 -1548h-123z" />
<glyph unicode="&#xd;" horiz-adv-x="532" />
<glyph unicode=" "  horiz-adv-x="532" />
<glyph unicode="&#x09;" horiz-adv-x="532" />
<glyph unicode="&#xa0;" horiz-adv-x="532" />
<glyph unicode="!" horiz-adv-x="757" d="M291 86q6 41 38.5 69.5t73.5 28.5t66 -28.5t18 -69.5q-4 -41 -36.5 -69.5t-73.5 -28.5t-65.5 28.5t-20.5 69.5zM371 381l149 1069h123l-149 -1069h-123z" />
<glyph unicode="&#x22;" horiz-adv-x="1064" d="M467 983l65 467h123l-65 -467h-123zM750 983l65 467h123l-66 -467h-122z" />
<glyph unicode="#" horiz-adv-x="1064" d="M92 469l12 98h236l90 320h-221l14 98h236l127 465h106l-129 -465h285l129 465h106l-129 -465h222l-15 -98h-235l-88 -320h221l-12 -98h-236l-127 -469h-106l127 469h-285l-127 -469h-107l127 469h-221zM449 567h282l88 320h-282z" />
<glyph unicode="$" horiz-adv-x="1064" d="M94 190l127 80q37 -84 108.5 -132t157.5 -52l84 594l-137 53q-72 27 -112.5 72t-59 94t-19.5 96t3 82q12 86 56 157t105.5 122t134 81.5t142.5 37.5l18 137h99l-19 -137q51 0 100.5 -7.5t94.5 -28t85 -56t73 -91.5l-123 -82q-39 74 -105.5 114t-140.5 40l-82 -578 l137 -49q43 -16 86 -44.5t75 -73t47 -105.5t3 -143q-12 -88 -56 -159t-107.5 -122t-140.5 -80.5t-157 -34.5l-20 -137h-98l20 137q-55 0 -110.5 13.5t-105.5 41t-92 67.5t-71 93zM383 1085q-8 -53 2 -93t33.5 -70.5t59.5 -52t81 -38.5l33 -12l76 545q-49 -8 -96.5 -30.5 t-86.5 -58.5t-66.5 -84t-35.5 -106zM586 86q57 2 110.5 25.5t95.5 62.5t69.5 91t37.5 114q4 31 1 63.5t-19.5 63.5t-48 57.5t-84.5 46.5l-82 33z" />
<glyph unicode="%" horiz-adv-x="1669" d="M236 1122q10 74 46.5 137.5t91 111.5t122 76t141.5 28t133 -28t101 -76t60.5 -111.5t8.5 -137.5t-47 -137t-92.5 -111.5t-123 -76t-140.5 -27.5q-74 0 -133.5 27.5t-100.5 76t-59 111.5t-8 137zM322 -12l1148 1532l86 -58l-1150 -1532zM346 1122q-8 -51 5.5 -95t41 -76.5 t69.5 -51t91 -18.5t96 18.5t84 51t62.5 76.5t33.5 95q6 51 -6 95.5t-40.5 77t-70.5 51t-91 18.5t-96.5 -18.5t-84.5 -51t-62.5 -77t-31.5 -95.5zM932 328q10 74 47 137t91 111.5t122 76t141 27.5q74 0 133.5 -27.5t101.5 -76t60.5 -112t7.5 -136.5q-10 -74 -47 -137.5 t-91 -111.5t-121.5 -76t-141.5 -28t-133.5 28t-101.5 76t-60 111.5t-8 137.5zM1042 328q-6 -51 6.5 -95.5t40 -77t69.5 -51t91 -18.5t96.5 18.5t85 51t63.5 76.5t32 96q6 51 -6.5 95t-40 76.5t-69.5 51t-91 18.5t-96 -18.5t-85 -51t-64 -76.5t-32 -95z" />
<glyph unicode="&#x26;" horiz-adv-x="1441" d="M174 385q12 84 49 147.5t90.5 112.5t119 89t132.5 79q-25 37 -50.5 77t-44.5 83t-28.5 89t-3.5 95q10 78 49 139.5t95.5 103.5t126 64.5t141.5 22.5q63 0 119.5 -22.5t96.5 -62.5t58.5 -96.5t8.5 -125.5q-10 -78 -46 -135.5t-88.5 -102.5t-115 -80t-127.5 -67l299 -373 l262 377h139l-326 -463l281 -346h-182l-185 233q-104 -119 -219.5 -189.5t-267.5 -70.5q-92 0 -169 30t-129 85t-75.5 133t-9.5 174zM309 389q-10 -70 8.5 -125t56.5 -95t95 -61.5t125 -21.5q57 0 110.5 18.5t101.5 49t90 70.5t79 85l-344 418q-53 -29 -106.5 -61.5 t-97.5 -72.5t-77 -90t-41 -114zM573 1159q-6 -37 4.5 -76t29 -75.5t42 -69.5t41.5 -59q45 23 96.5 49t95.5 61t75.5 79t39.5 101q12 86 -38 140.5t-138 54.5q-45 0 -87 -15.5t-75.5 -42t-56 -64.5t-29.5 -83z" />
<glyph unicode="'" horiz-adv-x="532" d="M342 983l66 467h122l-65 -467h-123z" />
<glyph unicode="(" horiz-adv-x="532" d="M186 354.5q-2 118.5 15 235.5q35 244 142.5 481.5t268.5 427.5l97 -65q-80 -84 -144.5 -187.5t-113 -214t-81 -223.5t-46.5 -219q-16 -121 -14.5 -230.5t21 -214t55.5 -204t85 -199.5l-104 -61q-57 98 -96.5 209.5t-61 228.5t-23.5 235.5z" />
<glyph unicode=")" horiz-adv-x="532" d="M-10 -254q78 84 142.5 186.5t112.5 213t80.5 224t47.5 220.5q16 119 14 229.5t-21.5 215t-55.5 203.5t-85 200l105 61q57 -98 96 -209.5t60.5 -228.5t23.5 -235.5t-14 -235.5q-35 -244 -142.5 -481.5t-269.5 -427.5z" />
<glyph unicode="*" horiz-adv-x="909" d="M238 1145l41 92l288 -98l43 311h99l-43 -311l307 98l18 -98l-309 -97l152 -249l-84 -60l-158 256l-217 -256l-74 60l221 249z" />
<glyph unicode="+" horiz-adv-x="1363" d="M240 571l12 99h473l68 473h98l-68 -473h473l-12 -99h-473l-68 -473h-98l68 473h-473z" />
<glyph unicode="," horiz-adv-x="532" d="M61 -283l201 467h144l-224 -467h-121z" />
<glyph unicode="-" horiz-adv-x="681" d="M147 430l17 111h506l-17 -111h-506z" />
<glyph unicode="." horiz-adv-x="532" d="M178 86q6 41 39 69.5t74 28.5t65.5 -28.5t18.5 -69.5q-4 -41 -37 -69.5t-74 -28.5t-65.5 28.5t-20.5 69.5z" />
<glyph unicode="/" horiz-adv-x="757" d="M12 -37l842 1561l102 -37l-841 -1561z" />
<glyph unicode="0" horiz-adv-x="1064" d="M138.5 559q5.5 86 15.5 166q12 78 31.5 165t50 170t74.5 157.5t105.5 132t141.5 91.5t182 34t172 -34t116 -91.5t68.5 -132t30 -157.5t2 -170t-15.5 -165q-10 -80 -29.5 -166t-50.5 -169t-75 -157.5t-105 -132t-141 -91.5t-183 -34q-102 0 -171.5 34t-115.5 91.5 t-68.5 132t-31 157.5t-3 169zM272 459.5q2 -70.5 16.5 -138t45.5 -119.5t81 -84t128 -32q76 0 136 32t106 84t79 119.5t55.5 138t36 139.5t21.5 126q8 55 14 125t3 140.5t-17 138t-45 119.5t-82 84t-127 32t-136.5 -32t-105.5 -84t-77.5 -119.5t-55 -138t-37 -140.5 t-22.5 -125q-8 -57 -13.5 -126t-3.5 -139.5z" />
<glyph unicode="1" horiz-adv-x="1064" d="M356 1157l400 293h104l-203 -1450h-122l178 1278h-2l-293 -215z" />
<glyph unicode="2" horiz-adv-x="1064" d="M84 0l18 143l627 576q41 37 84 79t79 88t62.5 97t34.5 111q16 127 -55.5 198.5t-196.5 71.5q-113 0 -199.5 -65.5t-123.5 -172.5l-142 15q59 168 189.5 251t298.5 83q84 0 155.5 -26t123 -73t75 -115.5t10.5 -156.5q-12 -84 -48 -155.5t-86 -136t-112.5 -122 t-125.5 -115.5l-519 -464h762l-14 -111h-897z" />
<glyph unicode="3" horiz-adv-x="1064" d="M119 260l139 43q27 -104 89.5 -160.5t184.5 -56.5q80 0 144.5 24.5t112 67.5t75 100.5t37.5 122.5q12 80 -14.5 137.5t-75.5 93.5t-114.5 52t-135.5 16h-53l16 123h62q57 0 117.5 15.5t110.5 48.5t87 85t47 126q16 117 -46 191.5t-185 74.5q-90 0 -168 -46t-131 -124 l-107 66q76 113 186.5 164t235.5 51q82 0 152.5 -24t119 -70t70 -115.5t8.5 -163.5q-16 -119 -95 -210t-210 -126v-4q68 -12 120 -46t86 -83t47 -110.5t3 -131.5q-12 -86 -50 -161.5t-102.5 -132t-152.5 -89.5t-201 -33q-164 0 -268 69t-141 216z" />
<glyph unicode="4" horiz-adv-x="1064" d="M96 356l21 146l712 948h170l-137 -983h221l-16 -111h-221l-49 -356h-123l49 356h-627zM223 467h516l119 848h-4z" />
<glyph unicode="5" horiz-adv-x="1064" d="M115 221l135 64q12 -41 38.5 -77t63.5 -63.5t82 -43t94 -15.5t109.5 21.5t116 64.5t97.5 108.5t54 151.5q10 78 -8 146.5t-59 120t-103.5 81t-140.5 29.5t-156 -27.5t-145 -70.5l117 739h716l-16 -111h-598l-70 -460q51 25 107.5 33t109.5 8q104 0 182.5 -38 t127.5 -103.5t68.5 -152.5t4.5 -186q-16 -117 -71.5 -205t-130 -145t-160.5 -86t-166 -29q-160 0 -258 65.5t-141 180.5z" />
<glyph unicode="6" horiz-adv-x="1064" d="M117 426q16 115 73.5 207t110.5 164l485 653h156l-485 -639h4q41 31 105.5 46t117.5 15q96 0 173 -34.5t128 -95t72.5 -141.5t9.5 -175q-14 -98 -61.5 -181t-119 -142.5t-163.5 -93.5t-195 -34q-102 0 -185 34t-137 93.5t-79 142.5t-10 181zM252 426q-10 -76 5 -138.5 t54 -107.5t97.5 -69.5t134.5 -24.5t141.5 24.5t117.5 69.5t86 107.5t44 138.5q10 70 -8.5 132.5t-58.5 108.5t-98 72.5t-128 26.5q-72 0 -137.5 -26.5t-117.5 -72.5t-87 -108.5t-45 -132.5z" />
<glyph unicode="7" horiz-adv-x="1064" d="M193 0l774 1339h-697l17 111h823l-16 -111l-764 -1339h-137z" />
<glyph unicode="8" horiz-adv-x="1064" d="M139 403q8 66 36 126.5t71 110.5t100 86t129 50v2q-51 14 -89 47t-61.5 77t-32.5 94.5t-3 101.5q12 84 52 153.5t100.5 118.5t137 77t160.5 28t153 -28t115 -77t67.5 -118.5t8.5 -153.5q-6 -51 -29.5 -101.5t-60.5 -94.5t-84 -76.5t-102 -47.5v-2q68 -14 115 -50 t75.5 -86t37.5 -110.5t1 -126.5q-14 -98 -59 -177t-112.5 -134t-153.5 -86t-183 -31q-96 0 -174 31t-130 86t-75.5 134t-9.5 177zM274 403q-10 -66 4.5 -123t49 -100t89 -68.5t126.5 -25.5t133 25.5t108 68.5t77 100.5t40 122.5q10 72 -6 130.5t-53 100.5t-90.5 64.5 t-118.5 22.5q-66 0 -126.5 -22.5t-108.5 -64.5t-81 -100.5t-43 -130.5zM424 1098q-8 -55 4 -103.5t42 -84.5t75 -57.5t104 -21.5q57 0 108.5 21.5t91.5 57.5t65.5 84t33.5 104q16 121 -48 193.5t-177 72.5q-55 0 -106.5 -19.5t-91.5 -54.5t-66.5 -84t-34.5 -108z" />
<glyph unicode="9" horiz-adv-x="1064" d="M201 1024q14 98 61 181t119 142.5t164 93.5t194 34t185.5 -34t137.5 -93.5t78.5 -142.5t10.5 -181q-8 -57 -28.5 -108.5t-46 -97.5t-55.5 -87t-56 -78l-484 -653h-155l483 639h-4q-41 -31 -105.5 -46t-117.5 -15q-96 0 -173 34.5t-127.5 95t-72 141.5t-8.5 175zM336 1024 q-10 -72 7 -133.5t57 -107.5t97.5 -72.5t129.5 -26.5q70 0 136 26.5t118.5 72.5t88.5 107.5t46 133.5q10 76 -6.5 138.5t-54 107.5t-97 69.5t-135.5 24.5t-141.5 -24.5t-116.5 -69.5t-85 -107.5t-44 -138.5z" />
<glyph unicode=":" horiz-adv-x="532" d="M178 86q6 41 39 69.5t74 28.5t65.5 -28.5t18.5 -69.5q-4 -41 -37 -69.5t-74 -28.5t-65.5 28.5t-20.5 69.5zM289 860q4 41 36.5 69.5t73.5 28.5t65.5 -28.5t20.5 -69.5q-6 -41 -38.5 -69.5t-73.5 -28.5t-65.5 28.5t-18.5 69.5z" />
<glyph unicode=";" horiz-adv-x="532" d="M61 -283l201 467h144l-224 -467h-121zM289 860q4 41 36.5 69.5t73.5 28.5t65.5 -28.5t20.5 -69.5q-6 -41 -38.5 -69.5t-73.5 -28.5t-65.5 28.5t-18.5 69.5z" />
<glyph unicode="&#x3c;" horiz-adv-x="1363" d="M248 571l12 99l1096 479l-15 -102l-976 -426l858 -426l-15 -103z" />
<glyph unicode="=" horiz-adv-x="1363" d="M219 424l12 98h1045l-12 -98h-1045zM260 719l14 98h1045l-14 -98h-1045z" />
<glyph unicode="&#x3e;" horiz-adv-x="1363" d="M180 92l15 103l976 426l-858 426l15 102l960 -479l-12 -99z" />
<glyph unicode="?" horiz-adv-x="948" d="M258 1155q25 78 69 139.5t102 104.5t129 65.5t147 22.5q80 0 145 -23.5t109.5 -68.5t63.5 -110.5t7 -149.5q-12 -86 -45 -145.5t-76 -104.5t-91 -83t-91 -78t-73.5 -90t-41.5 -122l-18 -131h-123l23 172q10 68 40.5 119t72.5 92t88 78t88 79t72 91t40 116 q16 111 -38 179.5t-167 68.5q-109 0 -187.5 -65.5t-113.5 -171.5zM393 86q6 41 39 69.5t74 28.5t65.5 -28.5t18.5 -69.5q-4 -41 -37 -69.5t-74 -28.5t-65.5 28.5t-20.5 69.5z" />
<glyph unicode="@" horiz-adv-x="1638" d="M190 727q23 160 102 298t196.5 241.5t264 162t304.5 58.5q150 0 271.5 -47t203.5 -129t119 -194.5t18 -244.5q-18 -127 -75.5 -237.5t-137.5 -192.5t-172 -128t-178 -46q-53 0 -86 34t-23 104h-4q-47 -51 -124.5 -94.5t-157.5 -43.5q-70 0 -118 23.5t-77 65.5t-39 96.5 t0 115.5q14 106 62.5 213t123 191t171 137t208.5 53q68 0 123.5 -38t71.5 -132h4l68 131h123l-283 -594q-33 -70 -37 -98q-2 -16 5 -34.5t42 -18.5q53 0 117.5 45t123 115.5t102.5 158.5t57 174q16 115 -19 210.5t-106.5 163t-172 105.5t-214.5 38q-139 0 -266.5 -54.5 t-227.5 -145.5t-167 -211t-85 -251q-18 -137 15.5 -258t110.5 -212t189.5 -143.5t247.5 -52.5q76 0 155 20.5t151.5 56.5t137 85t113.5 109h119q-59 -86 -138 -153.5t-169 -116t-188.5 -74t-194.5 -25.5q-166 0 -299 59.5t-220 163t-125 242.5t-16 299zM600 573 q-12 -86 27 -140t118 -54q72 0 141.5 47t126 117.5t94.5 151.5t48 149q14 98 -17.5 153.5t-117.5 55.5q-78 0 -149.5 -47.5t-128 -119t-94.5 -155.5t-48 -158z" />
<glyph unicode="A" horiz-adv-x="1402" d="M10 0l836 1450h139l408 -1450h-152l-104 385h-768l-217 -385h-142zM438 508h666l-215 795z" />
<glyph unicode="B" horiz-adv-x="1290" d="M199 0l202 1450h418q82 0 164 -13.5t143 -55.5q62 -43 92 -117q20 -49 21 -118q0 -37 -6 -79q-16 -111 -93 -192.5t-210 -108.5v-4q70 -6 126 -34t92 -74t50 -110q8 -37 8 -77q0 -29 -4 -61q-18 -125 -76.5 -204t-137.5 -124t-166 -61.5t-160 -16.5h-463zM350 123h309 q119 0 196 28.5t122 71.5t64.5 91t25.5 87q4 28 4 53q-1 46 -15 84q-22 58 -66 94t-104.5 52t-123.5 16h-330zM449 823h280q104 0 174 25.5t111 62.5t60.5 79t23.5 77q4 28 4 52q0 42 -12 74q-18 50 -56.5 80t-94.5 42t-120 12h-299z" />
<glyph unicode="C" horiz-adv-x="1441" d="M205 725q25 166 99.5 305t188 240.5t259 159t311.5 57.5q147 0 268 -52.5t199 -174.5l-123 -93q-53 100 -153.5 148.5t-209.5 48.5q-141 0 -261.5 -49t-213 -135t-152 -203t-77.5 -252q-7 -55 -7 -106q-1 -76 15 -146q26 -117 94 -203t174.5 -135t247.5 -49 q55 0 115.5 13.5t122 41t119 69.5t104.5 101l98 -84q-123 -141 -269 -202.5t-306 -61.5q-166 0 -296 56.5t-215 158t-120 241.5q-21 84 -21 178q0 62 9 128z" />
<glyph unicode="D" horiz-adv-x="1517" d="M180 0l203 1450h448q188 0 313.5 -46t202 -118t114.5 -159q39 -87 51 -167q10 -64 10 -118q0 -14 -1 -26q-3 -64 -8 -91q-4 -27 -18 -91.5t-50 -144t-97.5 -166.5t-157.5 -159t-234.5 -118t-326.5 -46h-449zM332 123h278q143 0 273.5 36t234 109.5t171 187t89.5 269.5 q9 60 9 113q0 86 -23 156q-37 114 -118 187.5t-201.5 109.5t-264.5 36h-278z" />
<glyph unicode="E" horiz-adv-x="1214" d="M199 0l202 1450h887l-16 -123h-752l-74 -516h705l-16 -123h-705l-80 -565h785l-17 -123h-919z" />
<glyph unicode="F" d="M199 0l202 1450h869l-17 -123h-733l-74 -516h682l-16 -123h-682l-96 -688h-135z" />
<glyph unicode="G" horiz-adv-x="1593" d="M205 725q25 166 99.5 305t188 240.5t259 159t311.5 57.5q324 0 493 -201l-112 -102q-29 39 -72 72.5t-96 57t-112.5 37t-119.5 13.5q-141 0 -261.5 -49t-213 -135t-152 -203t-77.5 -252q-7 -55 -7 -106q0 -76 15 -146q27 -117 94.5 -203t174 -135t247.5 -49 q117 0 222.5 18.5t195.5 67.5l70 487h-348l16 123h483l-96 -688q-137 -72 -277.5 -101.5t-281.5 -29.5q-166 0 -296 56.5t-215 158t-120 241.5q-21 84 -21 178q0 62 9 128z" />
<glyph unicode="H" horiz-adv-x="1478" d="M199 0l202 1450h136l-91 -639h811l91 639h135l-203 -1450h-135l96 688h-811l-96 -688h-135z" />
<glyph unicode="I" horiz-adv-x="532" d="M199 0l202 1450h136l-203 -1450h-135z" />
<glyph unicode="J" horiz-adv-x="987" d="M49 260l139 25q20 -199 213 -199q72 0 125.5 23.5t90 64.5t58 97.5t32.5 121.5l149 1057h135l-143 -1024q-10 -66 -30.5 -145.5t-70 -150.5t-135.5 -119t-227 -48q-160 0 -242 81t-94 216z" />
<glyph unicode="K" horiz-adv-x="1251" d="M199 0l202 1450h136l-91 -639h13l792 639h187l-828 -664l666 -786h-195l-630 750h-13l-104 -750h-135z" />
<glyph unicode="L" horiz-adv-x="1024" d="M199 0l202 1450h136l-187 -1327h676l-16 -123h-811z" />
<glyph unicode="M" horiz-adv-x="1820" d="M184 0l203 1450h203l358 -1217l699 1217h192l-203 -1450h-135l178 1278h-4l-731 -1278h-59l-383 1278h-4l-179 -1278h-135z" />
<glyph unicode="N" horiz-adv-x="1593" d="M199 0l202 1450h174l705 -1270h4l178 1270h135l-202 -1450h-174l-705 1270h-4l-178 -1270h-135z" />
<glyph unicode="O" horiz-adv-x="1708" d="M205 725q25 166 99.5 305t188 240.5t259 159t311.5 57.5t296 -57.5t214 -159t120 -240.5q21 -82 21 -173q0 -63 -10 -132q-23 -166 -97.5 -306t-188 -241.5t-259 -158t-311.5 -56.5t-296 56.5t-215 158t-120 241.5q-21 84 -21 178q0 62 9 128zM340 725q-7 -55 -7 -106 q-1 -76 15 -146q26 -117 94 -203t174.5 -135t247.5 -49t262 49t213.5 135t151.5 203t78 252q7 56 7 109q0 75 -14 143q-26 117 -93.5 203t-175 135t-249.5 49q-141 0 -261.5 -49t-213 -135t-152 -203t-77.5 -252z" />
<glyph unicode="P" horiz-adv-x="1175" d="M199 0l202 1450h418q76 0 157 -17.5t144 -60.5q62 -44 96 -118q23 -50 22 -118q0 -33 -5 -69q-14 -98 -60.5 -170t-113 -118t-148.5 -68.5t-168 -22.5h-313l-96 -688h-135zM446 811h308q57 0 114.5 13.5t104.5 43t80.5 78.5t44.5 121q3 23 3 44q1 42 -13 75 q-20 49 -60.5 80.5t-95.5 46t-113 14.5h-299z" />
<glyph unicode="Q" horiz-adv-x="1708" d="M209 743q20 158 92 294.5t181.5 235.5t254 156.5t312.5 57.5t296 -57.5t208.5 -156.5t113.5 -235q20 -84 20 -175q0 -59 -8 -120q-14 -96 -53 -191t-97.5 -179t-135 -148.5t-164.5 -97.5v-4h452l-16 -123h-799q-152 0 -281.5 53t-222 150.5t-135.5 234.5q-27 87 -27 186 q0 57 9 119zM344 743q-7 -48 -7 -94q0 -76 19 -147q29 -113 99.5 -197t178 -133t245.5 -49q139 0 253.5 52t200.5 138t139.5 198t71.5 232q8 55 8 108q0 71 -14 137q-25 114 -91.5 198t-171 131t-245.5 47t-259 -47t-207 -131t-145.5 -198t-74.5 -245z" />
<glyph unicode="R" horiz-adv-x="1214" d="M199 0l202 1450h381q29 0 78 -2t105.5 -12.5t112 -33t97.5 -65.5t62 -109q12 -41 13 -93q0 -31 -5 -66q-14 -104 -59 -172t-105.5 -110t-129 -62t-130.5 -29l326 -696h-154l-311 688h-252l-96 -688h-135zM446 811h287q106 0 177 26.5t113 65.5t61.5 84t25.5 82q3 17 3 36 q0 22 -4 46q-7 45 -39 84t-94.5 65.5t-168.5 26.5h-287z" />
<glyph unicode="S" d="M133 182l141 86q41 -92 119 -137t187 -45q68 0 130 20.5t111 57.5t82 89t43 118q3 22 3 42q1 48 -17 83q-24 49 -72.5 80.5t-113 54t-131 45t-130 51.5t-109.5 75t-68 116q-14 43 -14 98q0 35 5 74q14 96 63.5 170.5t121 125t158.5 76t179 25.5q119 0 214 -42t155 -140 l-129 -84q-41 72 -104.5 107.5t-157.5 35.5q-66 0 -127.5 -17.5t-110.5 -51t-83 -85t-44 -120.5q-4 -26 -3 -49q1 -49 17 -85q26 -52 72.5 -86t111 -55.5t131 -43t130 -48.5t111.5 -71t70 -112q14 -40 13 -93q0 -35 -6 -76q-14 -98 -62 -174t-118 -128.5t-154.5 -79 t-173.5 -26.5q-143 0 -257.5 50t-182.5 169z" />
<glyph unicode="T" horiz-adv-x="1175" d="M211 1327l16 123h1127l-17 -123h-495l-187 -1327h-135l187 1327h-496z" />
<glyph unicode="U" horiz-adv-x="1400" d="M244 332q-5 43 -4 87q0 66 10 136l125 895h135l-121 -860q-9 -71 -9 -150v-16q1 -88 32.5 -164t101.5 -125t197 -49t211 49t137 125t79.5 164t37.5 166l120 860h136l-125 -895q-16 -117 -58.5 -223.5t-116 -188.5t-182 -131t-256.5 -49q-147 0 -241.5 49t-145.5 131.5 t-63 188.5z" />
<glyph unicode="V" horiz-adv-x="1214" d="M197 1450h145l289 -1272l649 1272h143l-753 -1450h-135z" />
<glyph unicode="W" horiz-adv-x="1933" d="M213 1450h139l180 -1284h5l546 1284h172l187 -1284h4l541 1284h139l-625 -1450h-166l-186 1290h-4l-547 -1290h-166z" />
<glyph unicode="X" horiz-adv-x="1251" d="M2 0l651 762l-399 688h160l336 -590l493 590h162l-588 -688l432 -762h-168l-368 655l-549 -655h-162z" />
<glyph unicode="Y" horiz-adv-x="1175" d="M190 1450h162l342 -688l545 688h152l-650 -825l-86 -625h-135l86 625z" />
<glyph unicode="Z" d="M47 0l14 106l1020 1221h-835l16 123h1010l-17 -111l-1024 -1216h877l-16 -123h-1045z" />
<glyph unicode="[" horiz-adv-x="532" d="M106 -319l254 1818h308l-13 -98h-184l-229 -1622h184l-12 -98h-308z" />
<glyph unicode="\" horiz-adv-x="757" d="M219 1487l111 37l403 -1561l-115 -37z" />
<glyph unicode="]" horiz-adv-x="532" d="M29 -319l12 98h184l230 1622h-185l13 98h307l-254 -1818h-307z" />
<glyph unicode="^" horiz-adv-x="1363" d="M240 524l598 926h94l336 -926h-115l-285 815l-512 -815h-116z" />
<glyph unicode="_" horiz-adv-x="1024" d="M-35 -256l15 102h1021l-14 -102h-1022z" />
<glyph unicode="`" horiz-adv-x="491" d="M190 1450h164l172 -295h-102z" />
<glyph unicode="a" horiz-adv-x="1062" d="M156 256q14 109 79.5 172.5t150.5 95t177 40.5t162 9h143l9 58q3 24 3 45q0 89 -54 131q-68 53 -183 53q-166 0 -305 -106l-59 84q78 66 182 99.5t196 33.5q171 0 263 -81q72 -64 72 -188q0 -34 -5 -73l-33 -232q-10 -70 -17 -125t-11 -102t-6 -88t-2 -82h-115 q-1 18 -1 36t1 38q2 39 8 80h-4q-66 -92 -151 -135.5t-205 -43.5q-61 0 -119 15.5t-101 49.5t-65 87q-14 35 -14 80q0 23 4 49zM279 262q-2 -13 -2 -25q0 -27 10 -51q14 -34 41.5 -55.5t64.5 -33t76 -11.5q98 0 165.5 28.5t112 75t68 104.5t31.5 118l8 63h-135 q-78 0 -152.5 -10t-135 -34.5t-102.5 -65.5t-50 -103z" />
<glyph unicode="b" horiz-adv-x="1251" d="M137 0l217 1548h123l-108 -768h4q35 49 83 85t102 59.5t110.5 35t109.5 11.5q109 0 195 -37t143.5 -103.5t81.5 -157.5q14 -56 14 -118q0 -40 -6 -82q-16 -109 -65 -200t-125 -157.5t-172 -103.5t-205 -37q-53 0 -106.5 11.5t-101.5 35t-86 59.5t-58 85h-4l-23 -166h-123 zM313 473q-4 -30 -4 -58q1 -49 13 -93q20 -70 66 -122.5t113.5 -83t151.5 -30.5q86 0 160 30.5t130 83t92 123t48 150.5q5 34 5 67q0 44 -9 84q-16 70 -57 122.5t-106.5 83t-151.5 30.5q-84 0 -161 -30.5t-137 -83t-100.5 -123t-52.5 -150.5z" />
<glyph unicode="c" horiz-adv-x="985" d="M176 473q14 109 64.5 200t125 157.5t172 103.5t205.5 37q104 0 187.5 -43t142.5 -121l-108 -74q-47 59 -104.5 93t-131.5 34q-86 0 -159.5 -30.5t-130 -83t-92.5 -123t-48 -150.5q-5 -34 -5 -67q0 -44 9 -84q16 -70 57 -122.5t106.5 -83t151.5 -30.5q78 0 148 36t125 95 l84 -78q-82 -84 -175 -124t-196 -40q-109 0 -195.5 37t-142.5 104q-58 66 -82 158q-15 55 -14 116q0 40 6 83z" />
<glyph unicode="d" horiz-adv-x="1251" d="M176 473q14 109 64.5 200t125 157.5t172 103.5t205.5 37q53 0 106.5 -11.5t101.5 -35t85 -59.5t60 -85h4l108 768h123l-217 -1548h-123l23 166h-4q-35 -49 -83 -85t-102.5 -59.5t-111 -35t-109.5 -11.5q-109 0 -195.5 37t-142.5 104q-58 66 -82 158q-15 55 -14 116 q0 40 6 83zM299 473q-5 -34 -5 -67q0 -44 9 -84q16 -70 57 -122.5t106.5 -83t151.5 -30.5q84 0 161 30.5t137.5 83t100.5 123t52 150.5q4 30 4 58q-1 49 -13 93q-20 70 -66 122.5t-113.5 83t-151.5 30.5q-86 0 -159.5 -30.5t-130 -83t-92.5 -123t-48 -150.5z" />
<glyph unicode="e" d="M176 475q14 106 62.5 196.5t121 157t163.5 104.5t196 38q109 0 186.5 -38t125.5 -101q47 -62 65 -142q10 -47 11 -96q0 -33 -5 -66l-12 -86h-795q-3 -18 -3 -40q0 -26 4 -59q7 -60 40 -117.5t95.5 -98.5t170.5 -41q94 0 189.5 45t152.5 123l80 -76q-88 -109 -199.5 -156 t-238.5 -47q-109 0 -192 37t-137 104q-53 66 -75 158q-12 52 -13 111q0 43 7 90zM309 553h672q3 21 3 40q0 41 -12 79q-16 56 -54.5 97.5t-95 66t-124.5 24.5q-100 0 -172.5 -41t-120 -94t-71 -103.5t-25.5 -68.5z" />
<glyph unicode="f" horiz-adv-x="606" d="M154 836l14 110h197l45 309q12 92 48 152.5t82 97.5t98 52.5t97 15.5q86 0 139 -25l-40 -106q-39 20 -107 20q-168 0 -201 -252l-39 -264h222l-15 -110h-221l-117 -836h-123l117 836h-196z" />
<glyph unicode="g" horiz-adv-x="1251" d="M98 -293l111 90q51 -92 143 -135t203 -43q94 0 161.5 24.5t116 64.5t79 88t48 96.5t25.5 91.5t12 69l19 131h-4q-66 -86 -163 -135t-220 -49q-104 0 -191.5 38t-147 104.5t-86.5 154.5q-19 58 -19 122q0 32 5 66q14 100 66.5 188.5t130.5 154t175 104.5t202 39 q123 0 207 -49.5t125 -135.5h4l22 160h123l-123 -885q-25 -176 -92 -284.5t-151 -168t-175.5 -80t-162.5 -20.5q-143 0 -263 52.5t-180 146.5zM313 485q-3 -26 -3 -52q0 -49 12 -95q20 -68 64 -118t107.5 -79.5t141.5 -29.5t150.5 29.5t131 79.5t97.5 118.5t49 146.5 q3 26 3 52q0 49 -12 95q-20 68 -64 118.5t-107.5 80t-141.5 29.5t-150.5 -29.5t-131 -80t-97 -119t-49.5 -146.5z" />
<glyph unicode="h" d="M164 0l217 1548h123l-109 -768h4q25 39 61 74t81 60.5t98 41t111 15.5q111 0 176 -35t97 -91.5t36 -130.5q1 -21 1 -42q0 -53 -7 -109l-78 -563h-123l78 557q6 46 6 90v21q-2 54 -22.5 97.5t-62.5 69t-116 25.5q-68 0 -131 -23.5t-114.5 -71.5t-87 -121t-50.5 -171 l-65 -473h-123z" />
<glyph unicode="i" horiz-adv-x="491" d="M184 0l131 946h123l-131 -946h-123zM338 1321q6 39 35.5 65.5t68.5 26.5q38 -1 62 -27q19 -21 19 -50q0 -7 -1 -15q-4 -39 -34.5 -65.5t-69.5 -26.5q-40 1 -62 27q-19 22 -19 54q0 5 1 11z" />
<glyph unicode="j" horiz-adv-x="491" d="M-127 -473l33 108q20 -8 37.5 -12t38.5 -4q49 0 80.5 17.5t51 45t29 64.5t15.5 78l157 1122h123l-155 -1112q-10 -74 -30 -133t-56.5 -102t-92 -67t-135.5 -24q-51 0 -96 19zM338 1321q6 39 35.5 65.5t68.5 26.5t62 -27q19 -21 19 -50q0 -7 -1 -15q-4 -39 -34.5 -65.5 t-69.5 -26.5t-62 27q-19 22 -19 54q0 5 1 11z" />
<glyph unicode="k" horiz-adv-x="985" d="M164 0l217 1548h123l-146 -1032l527 428h180l-547 -432l473 -512h-186l-449 500l-69 -500h-123z" />
<glyph unicode="l" horiz-adv-x="491" d="M184 0l217 1548h123l-217 -1548h-123z" />
<glyph unicode="m" horiz-adv-x="1744" d="M164 0l94 680q4 27 8 64.5t7 76.5t6.5 73t5.5 52h123q-4 -53 -10 -102q-5 -37 -5 -55v-9h6q25 39 61 74t81 60.5t98 41t111 15.5q94 0 165.5 -48.5t90.5 -156.5q59 106 155 155.5t195 49.5q111 0 176 -35t97 -91.5t36 -130.5q1 -21 1 -42q0 -53 -7 -109l-78 -563h-123 l78 557q6 46 6 90v21q-2 54 -22.5 97.5t-62.5 69t-116 25.5q-86 0 -145 -31.5t-99 -81t-61.5 -106.5t-27.5 -109l-74 -532h-123l80 569q6 43 6 81q-1 76 -25 130q-36 80 -137 80q-68 0 -131 -23.5t-114.5 -71.5t-87 -121t-50.5 -171l-65 -473h-123z" />
<glyph unicode="n" d="M164 0l94 680q4 27 8 64.5t7 76.5t6.5 73t5.5 52h123q-4 -53 -10 -102q-5 -37 -5 -55v-9h6q25 39 61 74t81 60.5t98 41t111 15.5q111 0 176 -35t97 -91.5t36 -130.5q1 -21 1 -42q0 -53 -7 -109l-78 -563h-123l78 557q6 46 6 90v21q-2 54 -22.5 97.5t-62.5 69t-116 25.5 q-68 0 -131 -23.5t-114.5 -71.5t-87 -121t-50.5 -171l-65 -473h-123z" />
<glyph unicode="o" horiz-adv-x="1216" d="M176 473q14 109 64.5 200t125 157.5t172 103.5t205.5 37q109 0 195 -37t144 -104q56 -66 80 -157q14 -56 15 -118q0 -40 -6 -82q-16 -109 -65 -200t-125 -157.5t-172 -103.5t-205 -37t-195.5 37t-142.5 104q-58 66 -82 157q-15 55 -14 117q0 40 6 83zM299 473 q-5 -34 -5 -67q0 -44 9 -84q16 -70 57 -122.5t106.5 -83t151.5 -30.5t160 30.5t130.5 83t92 123t48.5 150.5q5 34 5 66q0 45 -10 85q-16 70 -57 122.5t-106.5 83t-151.5 30.5t-159.5 -30.5t-130 -83t-92.5 -123t-48 -150.5z" />
<glyph unicode="p" horiz-adv-x="1251" d="M70 -467l198 1413h123l-22 -166h4q35 49 83 85t102 59.5t110.5 35t109.5 11.5q109 0 195 -37t143.5 -103.5t81.5 -157.5q14 -56 14 -118q0 -40 -6 -82q-16 -109 -65 -200t-125 -157.5t-172 -103.5t-205 -37q-53 0 -106.5 11.5t-101.5 35t-86 59.5t-58 85h-4l-90 -633 h-123zM313 473q-4 -30 -4 -58q0 -48 13 -93q20 -70 66 -122.5t113.5 -83t151.5 -30.5q86 0 160 30.5t130 83t92 123t48 150.5q5 34 5 67q0 43 -9 84q-16 70 -57 122.5t-106.5 83t-151.5 30.5q-84 0 -161 -30.5t-137 -83t-100.5 -123t-52.5 -150.5z" />
<glyph unicode="q" horiz-adv-x="1251" d="M176 473q14 109 64.5 200t125 157.5t172 103.5t205.5 37q53 0 106.5 -11.5t101.5 -35t85 -59.5t60 -85h4l22 166h123l-198 -1413h-123l90 633h-4q-35 -49 -83 -85t-102.5 -59.5t-111 -35t-109.5 -11.5q-109 0 -195.5 37t-143 103.5t-81.5 158.5q-14 55 -14 116q0 40 6 83 zM299 473q-5 -34 -5 -67q0 -43 9 -84q16 -70 57 -122.5t106.5 -83t151.5 -30.5q84 0 161 30.5t137.5 83t100.5 123t52 150.5q4 30 4 58q0 48 -13 93q-20 70 -66 122.5t-113.5 83t-151.5 30.5q-86 0 -159.5 -30.5t-130 -83t-92.5 -123t-48 -150.5z" />
<glyph unicode="r" horiz-adv-x="681" d="M164 0l94 680q4 27 8 64.5t7 76.5t6.5 73t5.5 52h123q-4 -53 -10 -102q-5 -37 -5 -55v-9q59 84 140 137.5t188 53.5q33 0 70 -10l-31 -121q-23 8 -45 8q-80 0 -141.5 -25.5t-106.5 -70.5t-71.5 -105.5t-37.5 -130.5l-71 -516h-123z" />
<glyph unicode="s" horiz-adv-x="872" d="M80 168l119 74q29 -76 98.5 -116t153.5 -40q39 0 79.5 12.5t74.5 35t57.5 54t29.5 72.5q1 12 1 22q-1 34 -15 57q-20 30 -56 48.5t-84.5 30.5t-99.5 23.5t-99 27.5t-84 45q-37 29 -55 73q-12 28 -11 64q0 22 4 47q10 70 45.5 121t87 85t111 50.5t118.5 16.5 q117 0 195.5 -43t113.5 -135l-121 -66q-27 66 -72.5 99.5t-129.5 33.5q-33 0 -70 -10t-69.5 -28.5t-55 -47.5t-29.5 -65q-1 -11 -1 -21q0 -47 30 -73q37 -31 97.5 -48.5t131 -30t129 -40t92.5 -79.5q25 -38 24 -101q0 -22 -3 -48q-10 -74 -46 -128t-88 -91t-116.5 -55.5 t-132.5 -18.5q-123 0 -218 47.5t-136 145.5z" />
<glyph unicode="t" horiz-adv-x="681" d="M145 836l15 110h205l38 273h123l-39 -273h271l-15 -110h-270l-86 -617q-3 -16 -2 -30q-1 -42 21 -68q30 -35 92 -35q35 0 72.5 9t72.5 24l-6 -111q-35 -12 -82 -22.5t-82 -10.5q-66 0 -110 19.5t-68.5 52.5t-31.5 77q-3 21 -3 43q0 25 4 52l86 617h-205z" />
<glyph unicode="u" d="M201 232q-1 21 -1 42q0 53 7 109l78 563h123l-78 -557q-6 -46 -6 -90v-21q2 -54 22.5 -97.5t62.5 -69t115 -25.5q68 0 131.5 23.5t114.5 71.5t87 121t50 171l66 473h123l-95 -680q-4 -27 -8 -64.5t-7 -76.5t-6 -73t-5 -52h-123q4 53 10 102.5t4 63.5h-6 q-25 -39 -60.5 -74t-80.5 -60.5t-98.5 -41t-110.5 -15.5q-111 0 -176.5 35t-97 91.5t-35.5 130.5z" />
<glyph unicode="v" horiz-adv-x="948" d="M162 946h139l203 -813l420 813h125l-504 -946h-127z" />
<glyph unicode="w" horiz-adv-x="1441" d="M162 946h135l119 -792h4l375 792h116l170 -792h4l334 792h123l-409 -946h-127l-175 774h-4l-372 -774h-127z" />
<glyph unicode="x" horiz-adv-x="985" d="M12 0l465 512l-278 434h157l213 -358l310 358h153l-393 -434l334 -512h-160l-270 428l-383 -428h-148z" />
<glyph unicode="y" horiz-adv-x="948" d="M-16 -473l26 115q25 -8 51.5 -15.5t55.5 -7.5q33 0 60.5 14.5t49 37t39 50t31.5 56.5l117 219l-252 950h137l203 -796l416 796h131l-662 -1239q-47 -92 -115.5 -145.5t-171.5 -53.5q-31 0 -60.5 5.5t-55.5 13.5z" />
<glyph unicode="z" horiz-adv-x="872" d="M55 0l11 74l673 762h-538l14 110h709l-11 -74l-671 -761h589l-14 -111h-762z" />
<glyph unicode="{" horiz-adv-x="681" d="M211 541l12 98q43 0 75 26.5t54.5 70.5t36.5 101.5t23 116.5l41 297q16 117 72.5 182.5t142.5 65.5h102l-12 -98h-47q-31 0 -55.5 -17.5t-42 -45t-28 -63.5t-16.5 -75l-41 -289q-10 -80 -36.5 -138t-57.5 -97t-57.5 -59.5t-36.5 -24.5v-4q8 -6 29.5 -26.5t41 -58.5 t30 -96.5t-2.5 -138.5l-41 -291q-6 -37 -5 -72.5t10.5 -63t29 -45t49.5 -17.5h47l-12 -98h-102q-86 0 -124 66.5t-22 180.5l41 299q8 59 10.5 115.5t-8 100.5t-34 71t-66.5 27z" />
<glyph unicode="|" horiz-adv-x="454" d="M104 -512l289 2048h99l-289 -2048h-99z" />
<glyph unicode="}" horiz-adv-x="681" d="M76 -319l12 98h47q31 0 55.5 17.5t42 45t27.5 63.5t16 75l41 288q10 80 37 138.5t57.5 97.5t57.5 59.5t37 24.5v4q-10 6 -30.5 26.5t-40 58.5t-30 96t2.5 138l41 291q6 37 5 73t-10.5 63.5t-29 45t-49.5 17.5h-48l13 98h102q86 0 124 -66.5t22 -181.5l-41 -299 q-8 -59 -10.5 -115.5t8 -100.5t34 -70.5t66.5 -26.5l-12 -98q-43 0 -75 -27t-54.5 -71t-37 -101t-22.5 -117l-41 -297q-16 -117 -72.5 -182t-142.5 -65h-102z" />
<glyph unicode="~" horiz-adv-x="1363" d="M289 561q20 33 48 65.5t62.5 59.5t77.5 43t94 16q57 0 114.5 -24.5t111.5 -48.5q53 -27 102 -46.5t88 -19.5q61 0 109.5 43t91.5 96l59 -65q-23 -35 -49.5 -68.5t-61 -59.5t-76.5 -41t-93 -15q-57 0 -114.5 24.5t-111.5 48.5q-55 27 -104 46.5t-88 19.5q-61 0 -109.5 -43 t-89.5 -96z" />
<glyph unicode="&#xa1;" horiz-adv-x="757" d="M252 -455l151 1069h123l-151 -1069h-123zM408 909q6 41 38.5 70t73.5 29t65.5 -29t18.5 -70t-39 -69.5t-73 -28.5q-41 0 -66 28.5t-18 69.5z" />
<glyph unicode="&#xa2;" horiz-adv-x="1064" d="M172 477q14 96 56 179t106.5 147.5t147.5 106.5t177 55l21 147h98l-20 -145q100 -2 179 -44t134 -116l-108 -74q-41 53 -93.5 85t-128.5 38l-108 -770q74 4 138.5 40t117.5 91l84 -78q-152 -158 -355 -164l-20 -141h-98l20 148q-92 12 -162.5 55t-115.5 109.5 t-63.5 150.5t-6.5 180zM295 477q-10 -68 2 -130t44 -113.5t81 -87t115 -50.5l106 758q-72 -10 -132 -45t-104.5 -86t-73 -114.5t-38.5 -131.5z" />
<glyph unicode="&#xa3;" horiz-adv-x="1064" d="M119 0l14 111h215l84 589h-194l14 111h194l35 240q8 70 42 144.5t93.5 137t147.5 102.5t207 40q162 0 276 -115l-96 -98q-37 43 -87 72.5t-116 29.5q-78 0 -136 -29.5t-99 -73.5t-64.5 -97.5t-30.5 -98.5l-36 -254h338l-15 -111h-338l-84 -589h502l-14 -111h-852z" />
<glyph unicode="&#xa4;" horiz-adv-x="1064" d="M68 291l133 112q-102 131 -78 322q29 190 168 322l-101 112l80 76l101 -115q76 53 161.5 81t172.5 28q86 0 163.5 -27.5t137.5 -81.5l133 115l59 -76l-133 -112q51 -66 71.5 -147t6.5 -175q-12 -94 -55.5 -175t-112.5 -147l100 -112l-80 -76l-100 115q-76 -53 -161 -81 t-171 -28t-165 27.5t-138 81.5l-133 -115zM246 725q-12 -82 9 -153.5t66.5 -125t111 -84t145.5 -30.5t154.5 30.5t134 84t100.5 125t53 153.5t-9.5 153.5t-66.5 125t-110.5 84t-145.5 30.5t-154.5 -30.5t-134 -84t-100.5 -125t-53 -153.5z" />
<glyph unicode="&#xa5;" horiz-adv-x="1064" d="M168 369l14 98h348l21 158l-12 32h-330l12 99h275l-293 694h139l295 -705l498 705h133l-490 -694h275l-13 -99h-329l-25 -32l-20 -158h348l-15 -98h-348l-51 -369h-135l51 369h-348z" />
<glyph unicode="&#xa6;" horiz-adv-x="454" d="M127 -358l100 716h99l-101 -716h-98zM270 666l101 716h98l-100 -716h-99z" />
<glyph unicode="&#xa7;" horiz-adv-x="1064" d="M123 -49l133 61q23 -92 84 -138t158 -46q45 0 91 12.5t85 38t65.5 62t32.5 86.5q10 70 -28.5 115.5t-101 81.5t-137.5 70t-136.5 80t-98.5 108.5t-22 158.5q8 51 31.5 92t58.5 74t77 56.5t89 41.5q-68 45 -107 106.5t-26 153.5q12 80 53 139.5t101.5 100.5t131 61.5 t142.5 20.5q51 0 100 -11.5t89 -34t68.5 -59t41.5 -88.5l-127 -69q-20 70 -71.5 104.5t-125.5 34.5q-47 0 -91 -12.5t-81 -37t-62.5 -62.5t-33.5 -87q-10 -66 27.5 -109.5t98 -79.5t133.5 -70t132 -79t94 -106.5t23 -151.5q-14 -94 -74.5 -160.5t-146.5 -109.5 q61 -41 95 -105.5t23 -146.5q-12 -82 -53 -145.5t-100.5 -107.5t-131 -66.5t-145.5 -22.5q-63 0 -121.5 14.5t-105.5 45t-82 76.5t-49 110zM385 645q-10 -78 24.5 -114.5t88.5 -65.5l194 -107q29 14 59.5 35t56.5 45.5t45 54t24 62.5q4 37 -6.5 67.5t-29 56.5t-43 45 t-46.5 32l-142 84q-35 -10 -72.5 -26.5t-69.5 -40t-54.5 -55.5t-28.5 -73z" />
<glyph unicode="&#xa8;" horiz-adv-x="491" d="M139 1335q6 41 39 70t74 29t65.5 -29t18.5 -70t-39 -69.5t-74 -28.5t-65.5 28.5t-18.5 69.5zM528 1335q6 41 39 70t74 29t65.5 -29t18.5 -70t-39 -69.5t-74 -28.5t-65.5 28.5t-18.5 69.5z" />
<glyph unicode="&#xa9;" horiz-adv-x="1638" d="M158 725q23 158 102.5 296t197 241.5t265 164t305.5 60.5t288 -60.5t219 -164t129 -241.5t17 -296t-101.5 -296t-197 -241.5t-265 -164t-304.5 -60.5t-288 60.5t-219 164t-130 241.5t-18 296zM268 725q-18 -135 16.5 -254t110.5 -207t187.5 -139t246.5 -51t261.5 51 t226.5 139t167.5 207t86.5 254q18 135 -15.5 254t-109.5 207t-187.5 139t-246.5 51t-261 -51t-226.5 -139t-169.5 -207t-87 -254zM500 725q14 100 56 186t106.5 149.5t150.5 98.5t191 35q72 0 134 -20.5t107 -60.5t69.5 -97.5t24.5 -132.5h-110q-6 84 -64.5 147.5 t-171.5 65.5q-78 0 -143.5 -30t-115.5 -81t-81.5 -117.5t-42.5 -142.5q-10 -76 2.5 -143.5t48 -117.5t93 -80t135.5 -30q55 0 103 17.5t87 47.5t65.5 67.5t39.5 80.5h110q-20 -76 -61 -133t-97.5 -97t-124 -60.5t-139.5 -20.5q-104 0 -181 35t-124 98.5t-64.5 148.5 t-2.5 187z" />
<glyph unicode="&#xaa;" horiz-adv-x="690" d="M213 1034q8 59 42 98t81 62t104.5 31t112.5 8h131l2 18q6 66 -22.5 102t-126.5 36q-61 0 -108.5 -18.5t-94.5 -53.5l-43 78q111 80 280 80q123 0 177.5 -49.5t35.5 -174.5l-22 -164q-8 -53 -14.5 -105t-4.5 -101h-100q-4 23 -1 45t5 49h-4q-43 -57 -99.5 -82t-127.5 -25 q-43 0 -83 9.5t-68.5 29t-43 51t-8.5 76.5zM313 1038q-6 -37 37 -60.5t99 -23.5q53 0 93 17.5t67.5 44t42 58.5t18.5 59l2 14h-78q-43 0 -91 -4t-88 -16.5t-69 -34t-33 -54.5z" />
<glyph unicode="&#xab;" horiz-adv-x="985" d="M197 485l338 416l77 -59l-286 -357l190 -360l-98 -55zM537 485l337 416l78 -59l-286 -357l190 -360l-98 -55z" />
<glyph unicode="&#xac;" horiz-adv-x="1363" d="M260 719l14 98h1045l-78 -543h-98l63 445h-946z" />
<glyph unicode="&#xad;" horiz-adv-x="681" d="M147 430l17 111h506l-17 -111h-506z" />
<glyph unicode="&#xae;" horiz-adv-x="1638" d="M158 725q23 158 102.5 296t197 241.5t265 164t305.5 60.5t288 -60.5t219 -164t129 -241.5t17 -296t-101.5 -296t-197 -241.5t-265 -164t-304.5 -60.5t-288 60.5t-219 164t-130 241.5t-18 296zM268 725q-18 -135 16.5 -254t110.5 -207t187.5 -139t246.5 -51t261.5 51 t226.5 139t167.5 207t86.5 254q18 135 -15.5 254t-109.5 207t-187.5 139t-246.5 51t-261 -51t-226.5 -139t-169.5 -207t-87 -254zM582 289l125 878h337q150 0 204.5 -62.5t37.5 -180.5q-8 -61 -32.5 -104.5t-58.5 -73t-77 -47t-88 -25.5l207 -385h-125l-207 385h-157 l-56 -385h-110zM760 772h141q45 0 91 3t84 18.5t64.5 45t35.5 85.5q6 43 -7.5 70.5t-39 44t-60.5 23.5t-70 7h-196z" />
<glyph unicode="&#xaf;" horiz-adv-x="491" d="M150 1241l12 98h540l-12 -98h-540z" />
<glyph unicode="&#xb0;" horiz-adv-x="819" d="M281 1182q8 61 38.5 114.5t75.5 93.5t102.5 62.5t118.5 22.5t111.5 -22.5t85.5 -62.5t50.5 -93.5t6.5 -114.5q-10 -61 -40.5 -115.5t-75.5 -94.5t-103 -63.5t-119 -23.5t-111 23.5t-85 63.5t-50.5 94t-4.5 116zM377 1180q-10 -82 39 -139.5t131 -57.5q41 0 79 15.5 t68.5 42t50 62.5t25.5 77q12 82 -37 139t-131 57q-41 0 -79 -15t-68.5 -42t-51 -62.5t-26.5 -76.5z" />
<glyph unicode="&#xb1;" horiz-adv-x="1363" d="M180 98l15 99h1028l-15 -99h-1028zM252 670l14 98h467l53 375h99l-54 -375h480l-15 -98h-479l-51 -375h-98l51 375h-467z" />
<glyph unicode="&#xb2;" horiz-adv-x="692" d="M129 592l12 88l402 344q63 53 108 102.5t56 120.5q8 57 -32 93t-122 36q-78 0 -124 -36.5t-69 -84.5l-104 9q23 59 59.5 99t80.5 64.5t90 36t85 11.5q119 0 189.5 -58.5t56.5 -165.5q-6 -49 -28.5 -92t-53 -80t-69.5 -71.5t-80 -69.5l-295 -248h450l-14 -98h-598z" />
<glyph unicode="&#xb3;" horiz-adv-x="692" d="M162 762l100 37q14 -55 53 -88t119 -33q35 0 70 12t64.5 33.5t50 50.5t24.5 60q6 49 -8 80.5t-44 50t-71 26.5t-86 8h-35l15 99h47q31 0 66.5 8t66.5 25.5t53.5 47t28.5 72.5q8 53 -30 89t-109 36q-59 0 -109.5 -27.5t-85.5 -74.5l-74 51q51 66 123 108t160 42 q55 0 102 -15.5t79 -44.5t47.5 -69.5t8.5 -92.5q-10 -72 -66 -126t-130 -76l-2 -4q88 -12 131 -74t31 -146q-8 -57 -37 -103t-74 -78t-101.5 -49t-119.5 -17q-100 0 -168 42t-90 140z" />
<glyph unicode="&#xb4;" horiz-adv-x="491" d="M289 1155l254 295h164l-316 -295h-102z" />
<glyph unicode="&#xb5;" d="M86 -467l199 1413h123l-78 -557q-8 -57 -6 -111.5t22.5 -97.5t62.5 -68.5t115 -25.5q68 0 131.5 23.5t114.5 71.5t87 121t50 171l66 473h123l-95 -680q-4 -27 -8 -64.5t-7 -76.5t-6 -73t-5 -52h-123q4 53 10 102.5t4 63.5h-6q-25 -39 -60.5 -74t-80.5 -60.5t-98.5 -41 t-110.5 -15.5q-84 0 -138.5 20.5t-90.5 57.5l-74 -520h-121z" />
<glyph unicode="&#xb6;" horiz-adv-x="1228" d="M268 1049q29 195 163 298t351 103h465l-239 -1708h-123l225 1610h-252l-225 -1610h-123l129 920q-90 0 -163 30.5t-123 83.5t-72.5 123t-12.5 150z" />
<glyph unicode="&#xb7;" horiz-adv-x="532" d="M258 651q6 41 39 70t74 29t65.5 -29t18.5 -70t-39 -69.5t-74 -28.5t-65.5 28.5t-18.5 69.5z" />
<glyph unicode="&#xb8;" horiz-adv-x="491" d="M10 -399l39 65q61 -35 150 -35q20 0 43.5 5.5t44 15.5t35 26.5t18.5 40.5q6 47 -27.5 66.5t-74.5 19.5q-47 0 -93 -16l-28 31l155 180h78l-114 -131l2 -4q29 14 65 14q33 0 62.5 -9t51 -27.5t32 -46t4.5 -64.5q-6 -47 -32 -80t-61.5 -53.5t-78.5 -30.5t-82 -10 q-102 0 -189 43z" />
<glyph unicode="&#xb9;" horiz-adv-x="692" d="M317 1286l250 176h111l-123 -870h-111l107 760l-193 -135z" />
<glyph unicode="&#xba;" horiz-adv-x="790" d="M233 1171q8 68 40 123.5t79 95.5t110.5 62.5t137.5 22.5q70 0 127 -21.5t96 -61.5t55.5 -95.5t6.5 -125.5q-10 -68 -42 -123t-82 -95t-113.5 -62.5t-133.5 -22.5q-74 0 -130 22.5t-93 62.5t-52.5 95t-5.5 123zM332 1171q-6 -43 5 -81.5t36.5 -69.5t64.5 -48.5t88 -17.5 t93.5 17.5t80 47.5t58 68.5t28.5 83.5q12 92 -41 155t-157 63q-49 0 -93 -17.5t-78 -48.5t-56.5 -70t-28.5 -82z" />
<glyph unicode="&#xbb;" horiz-adv-x="985" d="M166 129l289 356l-191 361l96 55l224 -416l-340 -415zM506 129l289 356l-191 361l96 55l224 -416l-340 -415z" />
<glyph unicode="&#xbc;" horiz-adv-x="1593" d="M233 -12l1149 1532l86 -58l-1151 -1532zM254 1286l250 176h110l-122 -870h-111l106 760l-192 -135zM918 209l12 92l459 567h120l-77 -561h131l-15 -98h-131l-28 -209h-111l29 209h-389zM1042 307h279l57 414h-4z" />
<glyph unicode="&#xbd;" horiz-adv-x="1593" d="M215 -12l1149 1532l86 -58l-1151 -1532zM238 1286l249 176h111l-123 -870h-110l106 760l-192 -135zM938 0l12 88l400 344q63 53 108 102.5t55 120.5q10 57 -30.5 93t-122.5 36q-78 0 -124 -36.5t-69 -83.5l-102 8q20 59 58 99t81 64.5t89 36t85 11.5q59 0 107.5 -15.5 t82.5 -44t49 -69.5t9 -95q-6 -49 -28.5 -92t-54.5 -79.5t-70.5 -71.5t-79.5 -70l-295 -248h450l-12 -98h-598z" />
<glyph unicode="&#xbe;" horiz-adv-x="1593" d="M147 762l103 37q14 -55 53 -88t119 -33q35 0 69.5 12t64.5 33.5t50.5 50.5t24.5 60q6 49 -8.5 80.5t-44 50t-70.5 26.5t-86 8h-35l14 99h48q31 2 66.5 10t66 25.5t53 46t29.5 71.5q8 53 -30 89t-110 36q-59 0 -109 -27.5t-85 -74.5l-74 51q51 66 123 108t160 42 q55 0 102 -15.5t79 -44.5t47 -69.5t9 -92.5q-10 -72 -66.5 -126t-129.5 -76l-2 -4q88 -12 131 -74t30 -146q-8 -57 -36.5 -103t-73.5 -78t-101.5 -49t-119.5 -17q-100 0 -168 42t-93 140zM338 -12l1149 1532l86 -58l-1151 -1532zM950 209l13 92l458 567h121l-78 -561h131 l-14 -98h-131l-29 -209h-110l28 209h-389zM1071 307h279l57 414h-4z" />
<glyph unicode="&#xbf;" horiz-adv-x="948" d="M55 -139q12 86 45 145.5t76 104.5t92 82.5t91 77.5t74 90.5t42 121.5l19 131h122l-24 -172q-10 -68 -41 -119t-72 -92t-88 -77.5t-88 -78.5t-71.5 -91.5t-41.5 -116.5q-16 -111 38.5 -179.5t166.5 -68.5q109 0 188 65.5t115 172.5l131 -17q-51 -158 -171.5 -245 t-274.5 -87q-80 0 -146.5 24t-110.5 69t-63.5 110.5t-7.5 149.5zM496 909q6 41 38.5 70t73.5 29t65.5 -29t18.5 -70t-38.5 -69.5t-73.5 -28.5t-66 28.5t-18 69.5z" />
<glyph unicode="&#xc0;" horiz-adv-x="1402" d="M10 0l836 1450h139l408 -1450h-152l-104 385h-768l-217 -385h-142zM438 508h666l-215 795zM700 1835h164l172 -295h-102z" />
<glyph unicode="&#xc1;" horiz-adv-x="1402" d="M10 0l836 1450h139l408 -1450h-152l-104 385h-768l-217 -385h-142zM438 508h666l-215 795zM799 1540l254 295h164l-316 -295h-102z" />
<glyph unicode="&#xc2;" horiz-adv-x="1402" d="M10 0l836 1450h139l408 -1450h-152l-104 385h-768l-217 -385h-142zM438 508h666l-215 795zM625 1540l262 295h143l180 -295h-133l-135 221l-197 -221h-120z" />
<glyph unicode="&#xc3;" horiz-adv-x="1402" d="M10 0l836 1450h139l408 -1450h-152l-104 385h-768l-217 -385h-142zM438 508h666l-215 795zM604 1575q10 35 27.5 73t46.5 66q29 31 63.5 50.5t75.5 19.5t77 -16.5t69 -34.5q33 -16 63.5 -31.5t58.5 -15.5q45 0 73 30.5t40 67.5h74q-10 -37 -27.5 -75t-42.5 -67 q-27 -31 -58.5 -49t-72.5 -18t-77 16.5t-70 32.5q-35 16 -67 32.5t-62 16.5q-47 0 -75 -30.5t-42 -67.5h-74z" />
<glyph unicode="&#xc4;" horiz-adv-x="1402" d="M10 0l836 1450h139l408 -1450h-152l-104 385h-768l-217 -385h-142zM438 508h666l-215 795zM651 1720q4 41 37 70t74 29t65.5 -29t20.5 -70q-6 -41 -39 -69.5t-74 -28.5t-65.5 28.5t-18.5 69.5zM1040 1720q4 41 37 70t74 29t65.5 -29t20.5 -70q-6 -41 -39 -69.5t-74 -28.5 t-65.5 28.5t-18.5 69.5z" />
<glyph unicode="&#xc5;" horiz-adv-x="1402" d="M10 0l836 1450h139l408 -1450h-152l-104 385h-768l-217 -385h-142zM438 508h666l-215 795zM752 1714q6 39 25.5 75t49 62.5t66.5 42t78 15.5q39 0 71.5 -16.5t54 -44t32 -62.5t4.5 -74q-6 -37 -26 -71.5t-48.5 -61.5t-65.5 -43t-75 -16q-41 0 -74 15t-55.5 42t-32.5 62.5 t-4 74.5zM825 1712q-8 -51 22 -85t79 -34q51 0 88 35t45 86t-20.5 86t-80.5 35q-51 0 -87.5 -36t-45.5 -87z" />
<glyph unicode="&#xc6;" horiz-adv-x="1896" d="M-10 0l1147 1450h825l-16 -123h-600l-74 -516h565l-16 -123h-566l-79 -565h616l-16 -123h-752l53 385h-639l-305 -385h-143zM535 508h559l116 819h-24z" />
<glyph unicode="&#xc7;" horiz-adv-x="1441" d="M205 725q25 166 99.5 305t188 240.5t259 159t311.5 57.5q147 0 268 -52.5t199 -174.5l-123 -93q-53 100 -153.5 148.5t-209.5 48.5q-141 0 -261.5 -49t-213 -135t-152 -203t-77.5 -252t8.5 -252t94 -203t174 -135t247.5 -49q55 0 115.5 13.5t122 41t119 69.5t104.5 101 l98 -84q-123 -141 -269 -202.5t-306 -61.5h-27.5t-27.5 2l-82 -96l2 -4q29 14 65 14q33 0 62.5 -9t51 -27.5t32 -46t4.5 -64.5q-6 -47 -32 -80t-61.5 -53.5t-78.5 -30.5t-82 -10q-102 0 -189 43l39 65q61 -35 150 -35q20 0 43.5 5.5t44 15.5t35 26.5t18.5 40.5 q6 47 -27.5 66.5t-74.5 19.5q-47 0 -92 -16l-29 31l133 153q-137 18 -243.5 83t-175 163t-95.5 227t-6 279z" />
<glyph unicode="&#xc8;" horiz-adv-x="1214" d="M199 0l202 1450h887l-16 -123h-752l-74 -516h705l-16 -123h-705l-80 -565h785l-17 -123h-919zM606 1835h164l172 -295h-102z" />
<glyph unicode="&#xc9;" horiz-adv-x="1214" d="M199 0l202 1450h887l-16 -123h-752l-74 -516h705l-16 -123h-705l-80 -565h785l-17 -123h-919zM705 1540l253 295h164l-315 -295h-102z" />
<glyph unicode="&#xca;" horiz-adv-x="1214" d="M199 0l202 1450h887l-16 -123h-752l-74 -516h705l-16 -123h-705l-80 -565h785l-17 -123h-919zM530 1540l263 295h143l180 -295h-133l-135 221l-197 -221h-121z" />
<glyph unicode="&#xcb;" horiz-adv-x="1214" d="M199 0l202 1450h887l-16 -123h-752l-74 -516h705l-16 -123h-705l-80 -565h785l-17 -123h-919zM557 1720q4 41 37 70t74 29t65.5 -29t20.5 -70q-6 -41 -39 -69.5t-74 -28.5t-65.5 28.5t-18.5 69.5zM946 1720q4 41 37 70t74 29t65.5 -29t20.5 -70q-6 -41 -39 -69.5 t-74 -28.5t-65.5 28.5t-18.5 69.5z" />
<glyph unicode="&#xcc;" horiz-adv-x="532" d="M199 0l202 1450h136l-203 -1450h-135zM264 1835h164l172 -295h-102z" />
<glyph unicode="&#xcd;" horiz-adv-x="532" d="M199 0l202 1450h136l-203 -1450h-135zM362 1540l254 295h164l-315 -295h-103z" />
<glyph unicode="&#xce;" horiz-adv-x="532" d="M188 1540l263 295h143l180 -295h-133l-135 221l-197 -221h-121zM199 0l202 1450h136l-203 -1450h-135z" />
<glyph unicode="&#xcf;" horiz-adv-x="532" d="M199 0l202 1450h136l-203 -1450h-135zM215 1720q4 41 37 70t74 29t65.5 -29t20.5 -70q-6 -41 -39 -69.5t-74 -28.5t-65.5 28.5t-18.5 69.5zM604 1720q4 41 37 70t74 29t65.5 -29t20.5 -70q-6 -41 -39 -69.5t-74 -28.5t-65.5 28.5t-18.5 69.5z" />
<glyph unicode="&#xd0;" horiz-adv-x="1517" d="M119 700l14 111h160l90 639h448q188 0 313.5 -46t202 -118t114.5 -159t50.5 -166.5t9.5 -144t-8 -91.5q-4 -27 -18 -91.5t-50 -144t-97.5 -166.5t-157.5 -159t-234.5 -118t-326.5 -46h-449l99 700h-160zM332 123h278q143 0 273.5 36t234 109.5t171 187t89.5 269.5 q23 156 -14 269.5t-118 187t-201.5 109.5t-264.5 36h-278l-74 -516h528l-14 -111h-528z" />
<glyph unicode="&#xd1;" horiz-adv-x="1593" d="M199 0l202 1450h174l705 -1270h4l178 1270h135l-202 -1450h-174l-705 1270h-4l-178 -1270h-135zM698 1575q10 35 27.5 73t46.5 66q29 31 63.5 50.5t75.5 19.5t77 -16.5t69 -34.5q33 -16 63.5 -31.5t59.5 -15.5q45 0 72.5 30.5t39.5 67.5h74q-10 -37 -27.5 -75t-42.5 -67 q-27 -31 -58.5 -49t-72.5 -18t-76.5 16.5t-70.5 32.5t-66.5 32.5t-62.5 16.5q-47 0 -75 -30.5t-42 -67.5h-74z" />
<glyph unicode="&#xd2;" horiz-adv-x="1708" d="M205 725q25 166 99.5 305t188 240.5t259 159t311.5 57.5t296 -57.5t214 -159t120 -240.5t11 -305q-23 -166 -97.5 -306t-188 -241.5t-259 -158t-311.5 -56.5t-296 56.5t-215 158t-120 241.5t-12 306zM340 725q-18 -135 8.5 -252t94 -203t174 -135t247.5 -49t262 49 t213.5 135t151.5 203t78 252q18 135 -7.5 252t-93 203t-175 135t-249.5 49q-141 0 -261.5 -49t-213 -135t-152 -203t-77.5 -252zM852 1835h164l172 -295h-103z" />
<glyph unicode="&#xd3;" horiz-adv-x="1708" d="M205 725q25 166 99.5 305t188 240.5t259 159t311.5 57.5t296 -57.5t214 -159t120 -240.5t11 -305q-23 -166 -97.5 -306t-188 -241.5t-259 -158t-311.5 -56.5t-296 56.5t-215 158t-120 241.5t-12 306zM340 725q-18 -135 8.5 -252t94 -203t174 -135t247.5 -49t262 49 t213.5 135t151.5 203t78 252q18 135 -7.5 252t-93 203t-175 135t-249.5 49q-141 0 -261.5 -49t-213 -135t-152 -203t-77.5 -252zM950 1540l254 295h164l-315 -295h-103z" />
<glyph unicode="&#xd4;" horiz-adv-x="1708" d="M205 725q25 166 99.5 305t188 240.5t259 159t311.5 57.5t296 -57.5t214 -159t120 -240.5t11 -305q-23 -166 -97.5 -306t-188 -241.5t-259 -158t-311.5 -56.5t-296 56.5t-215 158t-120 241.5t-12 306zM340 725q-18 -135 8.5 -252t94 -203t174 -135t247.5 -49t262 49 t213.5 135t151.5 203t78 252q18 135 -7.5 252t-93 203t-175 135t-249.5 49q-141 0 -261.5 -49t-213 -135t-152 -203t-77.5 -252zM776 1540l262 295h144l180 -295h-133l-135 221l-197 -221h-121z" />
<glyph unicode="&#xd5;" horiz-adv-x="1708" d="M205 725q25 166 99.5 305t188 240.5t259 159t311.5 57.5t296 -57.5t214 -159t120 -240.5t11 -305q-23 -166 -97.5 -306t-188 -241.5t-259 -158t-311.5 -56.5t-296 56.5t-215 158t-120 241.5t-12 306zM340 725q-18 -135 8.5 -252t94 -203t174 -135t247.5 -49t262 49 t213.5 135t151.5 203t78 252q18 135 -7.5 252t-93 203t-175 135t-249.5 49q-141 0 -261.5 -49t-213 -135t-152 -203t-77.5 -252zM756 1575q10 35 27.5 73t45.5 66q29 31 64 50.5t76 19.5t76.5 -16.5t68.5 -34.5q33 -16 63.5 -31.5t59.5 -15.5q45 0 72.5 30.5t40.5 67.5h73 q-10 -37 -27.5 -75t-41.5 -67q-27 -31 -58.5 -49t-72.5 -18t-77 16.5t-71 32.5t-66.5 32.5t-62.5 16.5q-47 0 -74.5 -30.5t-42.5 -67.5h-73z" />
<glyph unicode="&#xd6;" horiz-adv-x="1708" d="M205 725q25 166 99.5 305t188 240.5t259 159t311.5 57.5t296 -57.5t214 -159t120 -240.5t11 -305q-23 -166 -97.5 -306t-188 -241.5t-259 -158t-311.5 -56.5t-296 56.5t-215 158t-120 241.5t-12 306zM340 725q-18 -135 8.5 -252t94 -203t174 -135t247.5 -49t262 49 t213.5 135t151.5 203t78 252q18 135 -7.5 252t-93 203t-175 135t-249.5 49q-141 0 -261.5 -49t-213 -135t-152 -203t-77.5 -252zM803 1720q4 41 36.5 70t73.5 29t66 -29t20 -70q-6 -41 -38.5 -69.5t-73.5 -28.5t-65.5 28.5t-18.5 69.5zM1192 1720q4 41 37 70t74 29t65.5 -29 t20.5 -70q-6 -41 -39 -69.5t-74 -28.5t-65.5 28.5t-18.5 69.5z" />
<glyph unicode="&#xd7;" horiz-adv-x="1363" d="M233 215l467 406l-348 405l80 70l348 -406l465 406l58 -70l-465 -405l348 -406l-80 -70l-346 408l-465 -408z" />
<glyph unicode="&#xd8;" horiz-adv-x="1708" d="M143 31l179 168q-78 100 -109 233t-8 293q25 166 99.5 305t188 240.5t259 159t311.5 57.5q143 0 257 -42t200 -120l176 166l59 -64l-176 -165q82 -100 114.5 -236.5t10.5 -300.5q-23 -166 -97.5 -306t-188 -241.5t-259 -158t-311.5 -56.5q-147 0 -264 44t-201 126 l-178 -166zM340 725q-16 -129 5.5 -237.5t80.5 -192.5l993 936q-68 63 -162 98t-213 35q-141 0 -261.5 -49t-213 -135t-152 -203t-77.5 -252zM481 227q68 -68 164 -104.5t219 -36.5q141 0 262 49t213.5 135t151.5 203t78 252q18 131 -5.5 243.5t-86.5 196.5z" />
<glyph unicode="&#xd9;" horiz-adv-x="1400" d="M244.5 331.5q-11.5 106.5 5.5 223.5l125 895h135l-121 -860q-10 -78 -9 -166t32.5 -164t101.5 -125t197 -49t211 49t137 125t79.5 164t37.5 166l120 860h136l-125 -895q-16 -117 -58.5 -223.5t-116 -188.5t-182 -131t-256.5 -49q-147 0 -241.5 49t-145.5 131t-62.5 188.5 zM698 1835h164l172 -295h-102z" />
<glyph unicode="&#xda;" horiz-adv-x="1400" d="M244.5 331.5q-11.5 106.5 5.5 223.5l125 895h135l-121 -860q-10 -78 -9 -166t32.5 -164t101.5 -125t197 -49t211 49t137 125t79.5 164t37.5 166l120 860h136l-125 -895q-16 -117 -58.5 -223.5t-116 -188.5t-182 -131t-256.5 -49q-147 0 -241.5 49t-145.5 131t-62.5 188.5 zM797 1540l254 295h163l-315 -295h-102z" />
<glyph unicode="&#xdb;" horiz-adv-x="1400" d="M244.5 331.5q-11.5 106.5 5.5 223.5l125 895h135l-121 -860q-10 -78 -9 -166t32.5 -164t101.5 -125t197 -49t211 49t137 125t79.5 164t37.5 166l120 860h136l-125 -895q-16 -117 -58.5 -223.5t-116 -188.5t-182 -131t-256.5 -49q-147 0 -241.5 49t-145.5 131t-62.5 188.5 zM623 1540l262 295h143l180 -295h-133l-135 221l-197 -221h-120z" />
<glyph unicode="&#xdc;" horiz-adv-x="1400" d="M244.5 331.5q-11.5 106.5 5.5 223.5l125 895h135l-121 -860q-10 -78 -9 -166t32.5 -164t101.5 -125t197 -49t211 49t137 125t79.5 164t37.5 166l120 860h136l-125 -895q-16 -117 -58.5 -223.5t-116 -188.5t-182 -131t-256.5 -49q-147 0 -241.5 49t-145.5 131t-62.5 188.5 zM649 1720q4 41 37 70t74 29t65.5 -29t20.5 -70q-6 -41 -39 -69.5t-74 -28.5t-65.5 28.5t-18.5 69.5zM1038 1720q4 41 37 70t74 29t65.5 -29t20.5 -70q-6 -41 -39 -69.5t-74 -28.5t-65.5 28.5t-18.5 69.5z" />
<glyph unicode="&#xdd;" horiz-adv-x="1175" d="M190 1450h162l342 -688l545 688h152l-650 -825l-86 -625h-135l86 625zM684 1540l254 295h164l-316 -295h-102z" />
<glyph unicode="&#xde;" horiz-adv-x="1175" d="M199 0l202 1450h134l-46 -320h285q76 0 157 -17t143.5 -60t96 -118t17.5 -187q-14 -98 -60.5 -170t-113 -118t-148.5 -68.5t-168 -22.5h-313l-51 -369h-135zM401 492h308q57 0 114.5 13t104.5 43t80.5 79t44.5 121q10 70 -10.5 118.5t-60.5 80.5t-95.5 46.5t-112.5 14.5 h-299z" />
<glyph unicode="&#xdf;" horiz-adv-x="1214" d="M164 0l153 1094q14 104 54.5 192t104 151.5t149.5 99.5t190 36q80 0 145.5 -24.5t110.5 -70.5t64.5 -115t7.5 -157q-16 -121 -83 -203.5t-163 -111.5l-2 -4q55 -10 109.5 -35t94.5 -74t59.5 -128t2.5 -197q-16 -111 -66.5 -198t-126 -146.5t-172 -90t-206.5 -30.5 q-25 0 -48.5 2t-47.5 8l18 119q25 -10 50.5 -14.5t53.5 -4.5q82 0 154 24.5t127 71t92 112t47 145.5q14 96 -8 167.5t-69.5 117.5t-114 68.5t-142.5 22.5h-43l17 111h31q123 0 210 70.5t103 193.5q18 129 -47.5 194.5t-181.5 65.5q-84 0 -145.5 -30.5t-104.5 -84t-67.5 -124 t-37.5 -148.5l-149 -1075h-123z" />
<glyph unicode="&#xe0;" horiz-adv-x="1062" d="M156 256q14 109 79.5 172.5t150.5 95t177 40.5t162 9h143l9 58q16 123 -51.5 176t-182.5 53q-166 0 -305 -106l-59 84q78 66 182 99.5t196 33.5q172 0 263.5 -81t66.5 -261l-33 -232q-10 -70 -17 -125t-11 -102t-6 -88t-2 -82h-115q-2 35 0 74t8 80h-4 q-66 -92 -151 -135.5t-205 -43.5q-61 0 -119 15.5t-101 49.5t-64.5 87t-10.5 129zM279 262q-6 -43 8 -76.5t41.5 -55t64.5 -33t76 -11.5q98 0 165.5 28.5t112 75t68 104.5t31.5 118l8 63h-135q-78 0 -152.5 -10t-135 -34.5t-102.5 -65.5t-50 -103zM477 1450h164l172 -295 h-102z" />
<glyph unicode="&#xe1;" horiz-adv-x="1062" d="M156 256q14 109 79.5 172.5t150.5 95t177 40.5t162 9h143l9 58q16 123 -51.5 176t-182.5 53q-166 0 -305 -106l-59 84q78 66 182 99.5t196 33.5q172 0 263.5 -81t66.5 -261l-33 -232q-10 -70 -17 -125t-11 -102t-6 -88t-2 -82h-115q-2 35 0 74t8 80h-4 q-66 -92 -151 -135.5t-205 -43.5q-61 0 -119 15.5t-101 49.5t-64.5 87t-10.5 129zM279 262q-6 -43 8 -76.5t41.5 -55t64.5 -33t76 -11.5q98 0 165.5 28.5t112 75t68 104.5t31.5 118l8 63h-135q-78 0 -152.5 -10t-135 -34.5t-102.5 -65.5t-50 -103zM575 1155l254 295h164 l-315 -295h-103z" />
<glyph unicode="&#xe2;" horiz-adv-x="1062" d="M156 256q14 109 79.5 172.5t150.5 95t177 40.5t162 9h143l9 58q16 123 -51.5 176t-182.5 53q-166 0 -305 -106l-59 84q78 66 182 99.5t196 33.5q172 0 263.5 -81t66.5 -261l-33 -232q-10 -70 -17 -125t-11 -102t-6 -88t-2 -82h-115q-2 35 0 74t8 80h-4 q-66 -92 -151 -135.5t-205 -43.5q-61 0 -119 15.5t-101 49.5t-64.5 87t-10.5 129zM279 262q-6 -43 8 -76.5t41.5 -55t64.5 -33t76 -11.5q98 0 165.5 28.5t112 75t68 104.5t31.5 118l8 63h-135q-78 0 -152.5 -10t-135 -34.5t-102.5 -65.5t-50 -103zM401 1155l263 295h143 l180 -295h-133l-135 221l-197 -221h-121z" />
<glyph unicode="&#xe3;" horiz-adv-x="1062" d="M156 256q14 109 79.5 172.5t150.5 95t177 40.5t162 9h143l9 58q16 123 -51.5 176t-182.5 53q-166 0 -305 -106l-59 84q78 66 182 99.5t196 33.5q172 0 263.5 -81t66.5 -261l-33 -232q-10 -70 -17 -125t-11 -102t-6 -88t-2 -82h-115q-2 35 0 74t8 80h-4 q-66 -92 -151 -135.5t-205 -43.5q-61 0 -119 15.5t-101 49.5t-64.5 87t-10.5 129zM279 262q-6 -43 8 -76.5t41.5 -55t64.5 -33t76 -11.5q98 0 165.5 28.5t112 75t68 104.5t31.5 118l8 63h-135q-78 0 -152.5 -10t-135 -34.5t-102.5 -65.5t-50 -103zM379 1190q10 35 28.5 72.5 t47.5 66.5q29 31 62.5 50.5t74.5 19.5t78 -16.5t69 -34.5q31 -16 63 -32t60 -16q45 0 72 31t39 68h74q-10 -37 -26.5 -75t-42.5 -67.5t-58.5 -48t-73.5 -18.5t-76 16.5t-70 32.5t-66.5 32.5t-62.5 16.5q-47 0 -74.5 -30.5t-43.5 -67.5h-74z" />
<glyph unicode="&#xe4;" horiz-adv-x="1062" d="M156 256q14 109 79.5 172.5t150.5 95t177 40.5t162 9h143l9 58q16 123 -51.5 176t-182.5 53q-166 0 -305 -106l-59 84q78 66 182 99.5t196 33.5q172 0 263.5 -81t66.5 -261l-33 -232q-10 -70 -17 -125t-11 -102t-6 -88t-2 -82h-115q-2 35 0 74t8 80h-4 q-66 -92 -151 -135.5t-205 -43.5q-61 0 -119 15.5t-101 49.5t-64.5 87t-10.5 129zM279 262q-6 -43 8 -76.5t41.5 -55t64.5 -33t76 -11.5q98 0 165.5 28.5t112 75t68 104.5t31.5 118l8 63h-135q-78 0 -152.5 -10t-135 -34.5t-102.5 -65.5t-50 -103zM426 1335q6 41 39 70 t74 29t65.5 -29t18.5 -70t-39 -69.5t-74 -28.5t-65.5 28.5t-18.5 69.5zM815 1335q6 41 39 70t74 29t65.5 -29t18.5 -70t-39 -69.5t-74 -28.5t-65.5 28.5t-18.5 69.5z" />
<glyph unicode="&#xe5;" horiz-adv-x="1062" d="M156 256q14 109 79.5 172.5t150.5 95t177 40.5t162 9h143l9 58q16 123 -51.5 176t-182.5 53q-166 0 -305 -106l-59 84q78 66 182 99.5t196 33.5q172 0 263.5 -81t66.5 -261l-33 -232q-10 -70 -17 -125t-11 -102t-6 -88t-2 -82h-115q-2 35 0 74t8 80h-4 q-66 -92 -151 -135.5t-205 -43.5q-61 0 -119 15.5t-101 49.5t-64.5 87t-10.5 129zM279 262q-6 -43 8 -76.5t41.5 -55t64.5 -33t76 -11.5q98 0 165.5 28.5t112 75t68 104.5t31.5 118l8 63h-135q-78 0 -152.5 -10t-135 -34.5t-102.5 -65.5t-50 -103zM528 1329q6 39 25.5 75 t49.5 62.5t67 42t78 15.5q39 0 71.5 -16.5t54 -44t31.5 -62.5t4 -74q-6 -37 -25.5 -71.5t-49 -61.5t-66.5 -43t-76 -16q-41 0 -72.5 15t-54 42t-33 62.5t-4.5 74.5zM602 1327q-8 -51 20.5 -85t77.5 -34q51 0 89.5 35t46.5 86q6 51 -22 86t-79 35t-89 -36t-44 -87z" />
<glyph unicode="&#xe6;" horiz-adv-x="1744" d="M145 256q6 45 31 97.5t80 96.5t148.5 73.5t238.5 29.5h236l4 18q18 139 -39.5 214t-210.5 75q-166 0 -305 -106l-60 84q78 66 182.5 99.5t196.5 33.5q129 0 216 -42t126 -155q33 49 77 86t93 61.5t101.5 37t101.5 12.5q86 0 159.5 -25.5t125 -81t74 -142.5t5.5 -208 l-10 -72h-729q-12 -74 -2 -138t44 -112.5t92.5 -77t142.5 -28.5q88 0 163.5 40t131.5 112l86 -70q-47 -53 -94.5 -89t-96.5 -59.5t-104.5 -34t-120.5 -10.5q-125 0 -215 55.5t-125 178.5q-78 -127 -196 -180.5t-253 -53.5q-61 0 -118.5 15.5t-100.5 49.5t-64.5 87t-11.5 129 zM268 262q-6 -43 8.5 -76.5t42 -55t64.5 -33t76 -11.5q94 0 165.5 28.5t122 77t79 113t38.5 137.5h-239q-109 0 -176.5 -20.5t-106.5 -48t-55.5 -59t-18.5 -52.5zM1001 553h607q8 63 -1.5 119.5t-40 97.5t-83.5 65.5t-131 24.5q-72 0 -131.5 -24.5t-105.5 -66.5t-75.5 -97.5 t-38.5 -118.5z" />
<glyph unicode="&#xe7;" horiz-adv-x="985" d="M176 473q14 109 64.5 200t125 157.5t172 103.5t205.5 37q104 0 187.5 -43t142.5 -121l-108 -74q-47 59 -104.5 93t-131.5 34q-86 0 -159.5 -30.5t-130 -83t-92.5 -123t-48 -150.5t4 -150.5t57 -123t106.5 -83t151.5 -30.5q78 0 148 36t125 95l84 -78q-82 -84 -175 -124 t-196 -40q-18 0 -29 2l-92 -108l2 -4q29 14 66 14q33 0 62.5 -9t51 -27.5t32 -46t3.5 -64.5q-6 -47 -31.5 -80t-61.5 -53.5t-79 -30.5t-82 -10q-102 0 -188 43l39 65q61 -35 149 -35q20 0 44 5.5t44.5 15.5t35 26.5t18.5 40.5q6 47 -28 66.5t-75 19.5q-47 0 -92 -16l-28 31 l141 166q-86 14 -153.5 56t-111.5 105.5t-61.5 146.5t-3.5 179z" />
<glyph unicode="&#xe8;" d="M176 475q14 106 62.5 196.5t121 157t163.5 104.5t196 38q109 0 186.5 -38t125.5 -100.5t65.5 -142.5t5.5 -162l-12 -86h-795q-6 -39 1 -99t40 -117.5t95.5 -98.5t170.5 -41q94 0 189.5 45t152.5 123l80 -76q-88 -109 -199.5 -156t-238.5 -47q-109 0 -192 37t-137 103.5 t-75.5 158t-5.5 201.5zM309 553h672q8 63 -8.5 118.5t-55 97.5t-95 66.5t-124.5 24.5q-100 0 -172.5 -41t-120 -94t-71 -103.5t-25.5 -68.5zM514 1450h164l172 -295h-102z" />
<glyph unicode="&#xe9;" d="M176 475q14 106 62.5 196.5t121 157t163.5 104.5t196 38q109 0 186.5 -38t125.5 -100.5t65.5 -142.5t5.5 -162l-12 -86h-795q-6 -39 1 -99t40 -117.5t95.5 -98.5t170.5 -41q94 0 189.5 45t152.5 123l80 -76q-88 -109 -199.5 -156t-238.5 -47q-109 0 -192 37t-137 103.5 t-75.5 158t-5.5 201.5zM309 553h672q8 63 -8.5 118.5t-55 97.5t-95 66.5t-124.5 24.5q-100 0 -172.5 -41t-120 -94t-71 -103.5t-25.5 -68.5zM612 1155l254 295h164l-315 -295h-103z" />
<glyph unicode="&#xea;" d="M176 475q14 106 62.5 196.5t121 157t163.5 104.5t196 38q109 0 186.5 -38t125.5 -100.5t65.5 -142.5t5.5 -162l-12 -86h-795q-6 -39 1 -99t40 -117.5t95.5 -98.5t170.5 -41q94 0 189.5 45t152.5 123l80 -76q-88 -109 -199.5 -156t-238.5 -47q-109 0 -192 37t-137 103.5 t-75.5 158t-5.5 201.5zM309 553h672q8 63 -8.5 118.5t-55 97.5t-95 66.5t-124.5 24.5q-100 0 -172.5 -41t-120 -94t-71 -103.5t-25.5 -68.5zM438 1155l262 295h144l180 -295h-133l-135 221l-197 -221h-121z" />
<glyph unicode="&#xeb;" d="M176 475q14 106 62.5 196.5t121 157t163.5 104.5t196 38q109 0 186.5 -38t125.5 -100.5t65.5 -142.5t5.5 -162l-12 -86h-795q-6 -39 1 -99t40 -117.5t95.5 -98.5t170.5 -41q94 0 189.5 45t152.5 123l80 -76q-88 -109 -199.5 -156t-238.5 -47q-109 0 -192 37t-137 103.5 t-75.5 158t-5.5 201.5zM309 553h672q8 63 -8.5 118.5t-55 97.5t-95 66.5t-124.5 24.5q-100 0 -172.5 -41t-120 -94t-71 -103.5t-25.5 -68.5zM463 1335q6 41 39 70t73 29q41 0 66 -29t18 -70q-6 -41 -38.5 -69.5t-73.5 -28.5t-65.5 28.5t-18.5 69.5zM852 1335q6 41 39 70 t74 29t65.5 -29t18.5 -70t-39 -69.5t-74 -28.5t-65.5 28.5t-18.5 69.5z" />
<glyph unicode="&#xec;" horiz-adv-x="491" d="M184 0l131 946h123l-131 -946h-123zM190 1450h164l172 -295h-102z" />
<glyph unicode="&#xed;" horiz-adv-x="491" d="M184 0l131 946h123l-131 -946h-123zM289 1155l254 295h164l-316 -295h-102z" />
<glyph unicode="&#xee;" horiz-adv-x="491" d="M115 1155l262 295h143l180 -295h-133l-135 221l-196 -221h-121zM184 0l131 946h123l-131 -946h-123z" />
<glyph unicode="&#xef;" horiz-adv-x="491" d="M139 1335q6 41 39 70t74 29t65.5 -29t18.5 -70t-39 -69.5t-74 -28.5t-65.5 28.5t-18.5 69.5zM184 0l131 946h123l-131 -946h-123zM528 1335q6 41 39 70t74 29t65.5 -29t18.5 -70t-39 -69.5t-74 -28.5t-65.5 28.5t-18.5 69.5z" />
<glyph unicode="&#xf0;" horiz-adv-x="1216" d="M176 473q14 109 64.5 200t125 157.5t172 103.5t205.5 37q86 0 159 -26.5t130 -86.5l6 4q-59 137 -131.5 247t-138.5 177l-236 -117l-55 68l230 115q-41 43 -88.5 87t-81.5 72l114 62q41 -35 89 -79t83 -85l230 115l65 -62l-233 -116q39 -41 98 -115t109.5 -177.5 t79 -236.5t6.5 -293q-18 -127 -68.5 -229t-126.5 -173t-173 -109t-206 -38t-195.5 37t-143 103.5t-81 158t-8.5 199.5zM299 473q-12 -80 4 -150.5t57 -123t106.5 -83t151.5 -30.5t160 30.5t130.5 83t92 123t48.5 150.5q12 80 -4.5 150.5t-57.5 123t-106.5 83t-151.5 30.5 t-159.5 -30.5t-130 -83t-92.5 -123t-48 -150.5z" />
<glyph unicode="&#xf1;" d="M164 0l94 680q4 27 8 64.5t7 76.5t6.5 73t5.5 52h123q-4 -53 -10.5 -102t-4.5 -64h6q25 39 61 74t81 60.5t98 41t111 15.5q111 0 176 -35t97 -91.5t36 -130t-6 -151.5l-78 -563h-123l78 557q8 57 6 111.5t-22.5 97.5t-62.5 68.5t-116 25.5q-68 0 -131 -23.5t-114.5 -71.5 t-87 -121t-50.5 -171l-65 -473h-123zM416 1190q10 35 28.5 72.5t47.5 66.5q29 31 62.5 50.5t74.5 19.5t77.5 -16.5t69.5 -34.5q31 -16 62.5 -32t60.5 -16q45 0 71.5 31t39.5 68h73q-10 -37 -26.5 -75t-42 -67.5t-58 -48t-73.5 -18.5t-76 16.5t-70 32.5t-66.5 32.5 t-62.5 16.5q-47 0 -74.5 -30.5t-44.5 -67.5h-73z" />
<glyph unicode="&#xf2;" horiz-adv-x="1216" d="M176 473q14 109 64.5 200t125 157.5t172 103.5t205.5 37q109 0 195 -37t143.5 -103.5t81 -157.5t8.5 -200q-16 -109 -65 -200t-125 -157.5t-172 -103.5t-205 -37t-195.5 37t-143 103.5t-81 157.5t-8.5 200zM299 473q-12 -80 4 -150.5t57 -123t106.5 -83t151.5 -30.5 t160 30.5t130.5 83t92 123t48.5 150.5q12 80 -4.5 150.5t-57.5 123t-106.5 83t-151.5 30.5t-159.5 -30.5t-130 -83t-92.5 -123t-48 -150.5zM553 1450h164l172 -295h-103z" />
<glyph unicode="&#xf3;" horiz-adv-x="1216" d="M176 473q14 109 64.5 200t125 157.5t172 103.5t205.5 37q109 0 195 -37t143.5 -103.5t81 -157.5t8.5 -200q-16 -109 -65 -200t-125 -157.5t-172 -103.5t-205 -37t-195.5 37t-143 103.5t-81 157.5t-8.5 200zM299 473q-12 -80 4 -150.5t57 -123t106.5 -83t151.5 -30.5 t160 30.5t130.5 83t92 123t48.5 150.5q12 80 -4.5 150.5t-57.5 123t-106.5 83t-151.5 30.5t-159.5 -30.5t-130 -83t-92.5 -123t-48 -150.5zM651 1155l254 295h164l-315 -295h-103z" />
<glyph unicode="&#xf4;" horiz-adv-x="1216" d="M176 473q14 109 64.5 200t125 157.5t172 103.5t205.5 37q109 0 195 -37t143.5 -103.5t81 -157.5t8.5 -200q-16 -109 -65 -200t-125 -157.5t-172 -103.5t-205 -37t-195.5 37t-143 103.5t-81 157.5t-8.5 200zM299 473q-12 -80 4 -150.5t57 -123t106.5 -83t151.5 -30.5 t160 30.5t130.5 83t92 123t48.5 150.5q12 80 -4.5 150.5t-57.5 123t-106.5 83t-151.5 30.5t-159.5 -30.5t-130 -83t-92.5 -123t-48 -150.5zM477 1155l262 295h144l180 -295h-133l-135 221l-197 -221h-121z" />
<glyph unicode="&#xf5;" horiz-adv-x="1216" d="M176 473q14 109 64.5 200t125 157.5t172 103.5t205.5 37q109 0 195 -37t143.5 -103.5t81 -157.5t8.5 -200q-16 -109 -65 -200t-125 -157.5t-172 -103.5t-205 -37t-195.5 37t-143 103.5t-81 157.5t-8.5 200zM299 473q-12 -80 4 -150.5t57 -123t106.5 -83t151.5 -30.5 t160 30.5t130.5 83t92 123t48.5 150.5q12 80 -4.5 150.5t-57.5 123t-106.5 83t-151.5 30.5t-159.5 -30.5t-130 -83t-92.5 -123t-48 -150.5zM455 1190q10 35 28.5 72.5t46.5 66.5q29 31 63 50.5t75 19.5t77.5 -16.5t69.5 -34.5q31 -16 62.5 -32t60.5 -16q45 0 71.5 31 t39.5 68h73q-10 -37 -26.5 -75t-42 -67.5t-58 -48t-73.5 -18.5t-76 16.5t-70 32.5t-66.5 32.5t-62.5 16.5q-47 0 -74.5 -30.5t-44.5 -67.5h-73z" />
<glyph unicode="&#xf6;" horiz-adv-x="1216" d="M176 473q14 109 64.5 200t125 157.5t172 103.5t205.5 37q109 0 195 -37t143.5 -103.5t81 -157.5t8.5 -200q-16 -109 -65 -200t-125 -157.5t-172 -103.5t-205 -37t-195.5 37t-143 103.5t-81 157.5t-8.5 200zM299 473q-12 -80 4 -150.5t57 -123t106.5 -83t151.5 -30.5 t160 30.5t130.5 83t92 123t48.5 150.5q12 80 -4.5 150.5t-57.5 123t-106.5 83t-151.5 30.5t-159.5 -30.5t-130 -83t-92.5 -123t-48 -150.5zM502 1335q6 41 38.5 70t73.5 29t66 -29t18 -70q-6 -41 -38.5 -69.5t-73.5 -28.5t-65.5 28.5t-18.5 69.5zM891 1335q6 41 39 70t74 29 t65.5 -29t17.5 -70q-6 -41 -38.5 -69.5t-73.5 -28.5t-65.5 28.5t-18.5 69.5z" />
<glyph unicode="&#xf7;" horiz-adv-x="1363" d="M240 571l12 99h1044l-12 -99h-1044zM618 305q8 45 42 74t79 31q43 0 69 -31t19 -74q-4 -43 -39.5 -73.5t-78.5 -30.5t-69 30.5t-22 73.5zM709 936q6 43 40.5 73.5t77.5 30.5t70 -30.5t21 -73.5t-41 -74t-78 -31t-69.5 31t-20.5 74z" />
<glyph unicode="&#xf8;" horiz-adv-x="1216" d="M80 4l164 146q-94 133 -68 323q14 109 64.5 200t125 157.5t172 103.5t205.5 37q96 0 173 -29t135 -80l161 144l56 -60l-166 -145q98 -129 69 -328q-16 -109 -65 -200t-125 -157.5t-172 -103.5t-205 -37q-98 0 -176 29t-133 82l-158 -141zM299 344q10 -61 41 -108l614 542 q-41 39 -97 60.5t-128 21.5q-86 0 -159.5 -30.5t-130 -83t-92.5 -123t-48 -150.5q-10 -68 0 -129zM391 170q84 -84 227 -84q86 0 160 30.5t130.5 83t92 123t48.5 150.5q10 72 -1.5 133.5t-39.5 108.5z" />
<glyph unicode="&#xf9;" d="M201 231.5q-4 73.5 6 151.5l78 563h123l-78 -557q-8 -57 -6 -111.5t22.5 -97.5t62.5 -68.5t115 -25.5q68 0 131.5 23.5t114.5 71.5t87 121t50 171l66 473h123l-95 -680q-4 -27 -8 -64.5t-7 -76.5t-6 -73t-5 -52h-123q4 53 10 102.5t4 63.5h-6q-25 -39 -60.5 -74 t-80.5 -60.5t-98.5 -41t-110.5 -15.5q-111 0 -176.5 35t-97 91.5t-35.5 130zM514 1450h164l172 -295h-102z" />
<glyph unicode="&#xfa;" d="M201 231.5q-4 73.5 6 151.5l78 563h123l-78 -557q-8 -57 -6 -111.5t22.5 -97.5t62.5 -68.5t115 -25.5q68 0 131.5 23.5t114.5 71.5t87 121t50 171l66 473h123l-95 -680q-4 -27 -8 -64.5t-7 -76.5t-6 -73t-5 -52h-123q4 53 10 102.5t4 63.5h-6q-25 -39 -60.5 -74 t-80.5 -60.5t-98.5 -41t-110.5 -15.5q-111 0 -176.5 35t-97 91.5t-35.5 130zM612 1155l254 295h164l-315 -295h-103z" />
<glyph unicode="&#xfb;" d="M201 231.5q-4 73.5 6 151.5l78 563h123l-78 -557q-8 -57 -6 -111.5t22.5 -97.5t62.5 -68.5t115 -25.5q68 0 131.5 23.5t114.5 71.5t87 121t50 171l66 473h123l-95 -680q-4 -27 -8 -64.5t-7 -76.5t-6 -73t-5 -52h-123q4 53 10 102.5t4 63.5h-6q-25 -39 -60.5 -74 t-80.5 -60.5t-98.5 -41t-110.5 -15.5q-111 0 -176.5 35t-97 91.5t-35.5 130zM438 1155l262 295h144l180 -295h-133l-135 221l-197 -221h-121z" />
<glyph unicode="&#xfc;" d="M201 231.5q-4 73.5 6 151.5l78 563h123l-78 -557q-8 -57 -6 -111.5t22.5 -97.5t62.5 -68.5t115 -25.5q68 0 131.5 23.5t114.5 71.5t87 121t50 171l66 473h123l-95 -680q-4 -27 -8 -64.5t-7 -76.5t-6 -73t-5 -52h-123q4 53 10 102.5t4 63.5h-6q-25 -39 -60.5 -74 t-80.5 -60.5t-98.5 -41t-110.5 -15.5q-111 0 -176.5 35t-97 91.5t-35.5 130zM463 1335q6 41 39 70t73 29q41 0 66 -29t18 -70q-6 -41 -38.5 -69.5t-73.5 -28.5t-65.5 28.5t-18.5 69.5zM852 1335q6 41 39 70t74 29t65.5 -29t18.5 -70t-39 -69.5t-74 -28.5t-65.5 28.5 t-18.5 69.5z" />
<glyph unicode="&#xfd;" horiz-adv-x="948" d="M-16 -473l26 115q25 -8 51.5 -15.5t55.5 -7.5q33 0 60.5 14.5t49 37t39 50t31.5 56.5l117 219l-252 950h137l203 -796l416 796h131l-662 -1239q-47 -92 -115.5 -145.5t-171.5 -53.5q-31 0 -60.5 5.5t-55.5 13.5zM518 1155l254 295h164l-315 -295h-103z" />
<glyph unicode="&#xfe;" horiz-adv-x="1251" d="M70 -467l284 2015h123l-108 -768h4q35 49 83 85t102 59.5t110.5 35t109.5 11.5q109 0 195 -37t143.5 -103.5t81 -157.5t8.5 -200q-16 -109 -65 -200t-125 -157.5t-172 -103.5t-205 -37q-53 0 -106.5 11.5t-101.5 35t-86 59.5t-58 85h-4l-90 -633h-123zM313 473 q-12 -80 8.5 -150.5t66.5 -123t113.5 -83t151.5 -30.5q86 0 160 30.5t130 83t92 123t48 150.5t-4 150.5t-57 123t-106.5 83t-151.5 30.5q-84 0 -161 -30.5t-137 -83t-100.5 -123t-52.5 -150.5z" />
<glyph unicode="&#xff;" horiz-adv-x="948" d="M-16 -473l26 115q25 -8 51.5 -15.5t55.5 -7.5q33 0 60.5 14.5t49 37t39 50t31.5 56.5l117 219l-252 950h137l203 -796l416 796h131l-662 -1239q-47 -92 -115.5 -145.5t-171.5 -53.5q-31 0 -60.5 5.5t-55.5 13.5zM369 1335q6 41 38.5 70t73.5 29t65.5 -29t18.5 -70 t-38.5 -69.5t-73.5 -28.5t-65.5 28.5t-18.5 69.5zM758 1335q6 41 38.5 70t73.5 29t66 -29t18 -70q-6 -41 -38.5 -69.5t-73.5 -28.5t-65.5 28.5t-18.5 69.5z" />
<glyph unicode="&#x100;" horiz-adv-x="1402" d="M10 0l836 1450h139l408 -1450h-152l-104 385h-768l-217 -385h-142zM438 508h666l-215 795zM657 1626l15 98h540l-14 -98h-541z" />
<glyph unicode="&#x101;" horiz-adv-x="1062" d="M156 256q14 109 79.5 172.5t150.5 95t177 40.5t162 9h143l9 58q16 123 -51.5 176t-182.5 53q-166 0 -305 -106l-59 84q78 66 182 99.5t196 33.5q172 0 263.5 -81t66.5 -261l-33 -232q-10 -70 -17 -125t-11 -102t-6 -88t-2 -82h-115q-2 35 0 74t8 80h-4 q-66 -92 -151 -135.5t-205 -43.5q-61 0 -119 15.5t-101 49.5t-64.5 87t-10.5 129zM279 262q-6 -43 8 -76.5t41.5 -55t64.5 -33t76 -11.5q98 0 165.5 28.5t112 75t68 104.5t31.5 118l8 63h-135q-78 0 -152.5 -10t-135 -34.5t-102.5 -65.5t-50 -103zM434 1241l12 98h541 l-12 -98h-541z" />
<glyph unicode="&#x102;" horiz-adv-x="1402" d="M10 0l836 1450h139l408 -1450h-152l-104 385h-768l-217 -385h-142zM438 508h666l-215 795zM664 1837h86q0 -82 51 -121t131 -39q92 0 146.5 35t88.5 125h86q-33 -123 -123 -190.5t-212 -67.5q-121 0 -194 67.5t-60 190.5z" />
<glyph unicode="&#x103;" horiz-adv-x="1062" d="M156 256q14 109 79.5 172.5t150.5 95t177 40.5t162 9h143l9 58q16 123 -51.5 176t-182.5 53q-166 0 -305 -106l-59 84q78 66 182 99.5t196 33.5q172 0 263.5 -81t66.5 -261l-33 -232q-10 -70 -17 -125t-11 -102t-6 -88t-2 -82h-115q-2 35 0 74t8 80h-4 q-66 -92 -151 -135.5t-205 -43.5q-61 0 -119 15.5t-101 49.5t-64.5 87t-10.5 129zM279 262q-6 -43 8 -76.5t41.5 -55t64.5 -33t76 -11.5q98 0 165.5 28.5t112 75t68 104.5t31.5 118l8 63h-135q-78 0 -152.5 -10t-135 -34.5t-102.5 -65.5t-50 -103zM438 1448h86 q0 -82 51.5 -121t131.5 -39q92 0 147 35t88 125h86q-31 -123 -122 -190.5t-214 -67.5q-121 0 -192.5 67.5t-61.5 190.5z" />
<glyph unicode="&#x104;" horiz-adv-x="1402" d="M10 0l836 1450h139l408 -1450h-29q-25 -20 -52.5 -48t-52 -60.5t-42 -68.5t-23.5 -71q-12 -96 76 -96q43 0 72.5 15.5t46.5 31.5l28 -78q-37 -29 -82 -48t-102 -19q-82 0 -129 45t-35 123q6 39 25.5 76.5t48 73.5t62.5 67.5t67 56.5h-31l-104 385h-768l-217 -385h-142z M438 508h666l-215 795z" />
<glyph unicode="&#x105;" horiz-adv-x="1062" d="M156 256q14 109 79.5 172.5t150.5 95t177 40.5t162 9h143l9 58q16 123 -51.5 176t-182.5 53q-166 0 -305 -106l-59 84q78 66 182 99.5t196 33.5q172 0 263.5 -81t66.5 -261l-33 -232q-10 -70 -17 -125t-11 -102t-6 -88t-2 -82h-13q-25 -20 -53.5 -48t-53 -60.5t-42 -68.5 t-23.5 -71q-12 -96 76 -96q43 0 72.5 15.5t46.5 31.5l28 -78q-37 -29 -82 -48t-102 -19q-82 0 -129 45t-35 123q6 39 25.5 76.5t48.5 73.5t62.5 67.5t66.5 56.5h-8q-2 35 0 74t8 80h-4q-66 -92 -151 -135.5t-205 -43.5q-61 0 -119 15.5t-101 49.5t-64.5 87t-10.5 129z M279 262q-6 -43 8 -76.5t41.5 -55t64.5 -33t76 -11.5q98 0 165.5 28.5t112 75t68 104.5t31.5 118l8 63h-135q-78 0 -152.5 -10t-135 -34.5t-102.5 -65.5t-50 -103z" />
<glyph unicode="&#x106;" horiz-adv-x="1441" d="M205 725q25 166 99.5 305t188 240.5t259 159t311.5 57.5q147 0 268 -52.5t199 -174.5l-123 -93q-53 100 -153.5 148.5t-209.5 48.5q-141 0 -261.5 -49t-213 -135t-152 -203t-77.5 -252t8.5 -252t94 -203t174 -135t247.5 -49q55 0 115.5 13.5t122 41t119 69.5t104.5 101 l98 -84q-123 -141 -269 -202.5t-306 -61.5q-166 0 -296 56.5t-215 158t-120 241.5t-12 306zM928 1542l256 295h164l-318 -295h-102z" />
<glyph unicode="&#x107;" horiz-adv-x="985" d="M176 473q14 109 64.5 200t125 157.5t172 103.5t205.5 37q104 0 187.5 -43t142.5 -121l-108 -74q-47 59 -104.5 93t-131.5 34q-86 0 -159.5 -30.5t-130 -83t-92.5 -123t-48 -150.5t4 -150.5t57 -123t106.5 -83t151.5 -30.5q78 0 148 36t125 95l84 -78q-82 -84 -175 -124 t-196 -40q-109 0 -195.5 37t-143 103.5t-81 158t-8.5 199.5zM621 1155l253 295h164l-315 -295h-102z" />
<glyph unicode="&#x10c;" horiz-adv-x="1441" d="M205 725q25 166 99.5 305t188 240.5t259 159t311.5 57.5q147 0 268 -52.5t199 -174.5l-123 -93q-53 100 -153.5 148.5t-209.5 48.5q-141 0 -261.5 -49t-213 -135t-152 -203t-77.5 -252t8.5 -252t94 -203t174 -135t247.5 -49q55 0 115.5 13.5t122 41t119 69.5t104.5 101 l98 -84q-123 -141 -269 -202.5t-306 -61.5q-166 0 -296 56.5t-215 158t-120 241.5t-12 306zM809 1837h127l137 -233l209 233h111l-260 -295h-144z" />
<glyph unicode="&#x10d;" horiz-adv-x="985" d="M176 473q14 109 64.5 200t125 157.5t172 103.5t205.5 37q104 0 187.5 -43t142.5 -121l-108 -74q-47 59 -104.5 93t-131.5 34q-86 0 -159.5 -30.5t-130 -83t-92.5 -123t-48 -150.5t4 -150.5t57 -123t106.5 -83t151.5 -30.5q78 0 148 36t125 95l84 -78q-82 -84 -175 -124 t-196 -40q-109 0 -195.5 37t-143 103.5t-81 158t-8.5 199.5zM504 1450h127l137 -233l209 233h110l-258 -295h-143z" />
<glyph unicode="&#x10e;" horiz-adv-x="1517" d="M180 0l203 1450h448q188 0 313.5 -46t202 -118t114.5 -159t50.5 -166.5t9.5 -144t-8 -91.5q-4 -27 -18 -91.5t-50 -144t-97.5 -166.5t-157.5 -159t-234.5 -118t-326.5 -46h-449zM332 123h278q143 0 273.5 36t234 109.5t171 187t89.5 269.5q23 156 -14 269.5t-118 187 t-201.5 109.5t-264.5 36h-278zM723 1835h127l137 -233l209 233h111l-258 -295h-144z" />
<glyph unicode="&#x10f;" horiz-adv-x="1327" d="M176 473q14 109 64.5 200t125 157.5t172 103.5t205.5 37q53 0 106.5 -11.5t101.5 -35t85 -59.5t60 -85h4l108 768h123l-217 -1548h-123l23 166h-4q-35 -49 -83 -85t-102.5 -59.5t-111 -35t-109.5 -11.5q-109 0 -195.5 37t-143 103.5t-81 158t-8.5 199.5zM299 473 q-12 -80 4 -150.5t57 -123t106.5 -83t151.5 -30.5q84 0 161 30.5t137.5 83t100.5 123t52 150.5t-8.5 150.5t-66.5 123t-113.5 83t-151.5 30.5q-86 0 -159.5 -30.5t-130 -83t-92.5 -123t-48 -150.5zM1315 1147l172 401h121l-195 -401h-98z" />
<glyph unicode="&#x110;" horiz-adv-x="1517" d="M119 700l14 111h160l90 639h448q188 0 313.5 -46t202 -118t114.5 -159t50.5 -166.5t9.5 -144t-8 -91.5q-4 -27 -18 -91.5t-50 -144t-97.5 -166.5t-157.5 -159t-234.5 -118t-326.5 -46h-449l99 700h-160zM332 123h278q143 0 273.5 36t234 109.5t171 187t89.5 269.5 q23 156 -14 269.5t-118 187t-201.5 109.5t-264.5 36h-278l-74 -516h528l-14 -111h-528z" />
<glyph unicode="&#x111;" horiz-adv-x="1251" d="M176 473q14 109 64.5 200t125 157.5t172 103.5t205.5 37q53 0 106.5 -11.5t101.5 -35t85 -59.5t60 -85h4l65 461h-383l13 98h383l30 209h123l-31 -209h138l-13 -98h-137l-174 -1241h-123l23 166h-4q-35 -49 -83 -85t-102.5 -59.5t-111 -35t-109.5 -11.5q-109 0 -195.5 37 t-143 103.5t-81 158t-8.5 199.5zM299 473q-12 -80 4 -150.5t57 -123t106.5 -83t151.5 -30.5q84 0 161 30.5t137.5 83t100.5 123t52 150.5t-8.5 150.5t-66.5 123t-113.5 83t-151.5 30.5q-86 0 -159.5 -30.5t-130 -83t-92.5 -123t-48 -150.5z" />
<glyph unicode="&#x112;" horiz-adv-x="1214" d="M199 0l202 1450h887l-16 -123h-752l-74 -516h705l-16 -123h-705l-80 -565h785l-17 -123h-919zM588 1628l14 98h541l-15 -98h-540z" />
<glyph unicode="&#x113;" d="M176 475q14 106 62.5 196.5t121 157t163.5 104.5t196 38q109 0 186.5 -38t125.5 -100.5t65.5 -142.5t5.5 -162l-12 -86h-795q-6 -39 1 -99t40 -117.5t95.5 -98.5t170.5 -41q94 0 189.5 45t152.5 123l80 -76q-88 -109 -199.5 -156t-238.5 -47q-109 0 -192 37t-137 103.5 t-75.5 158t-5.5 201.5zM309 553h672q8 63 -8.5 118.5t-55 97.5t-95 66.5t-124.5 24.5q-100 0 -172.5 -41t-120 -94t-71 -103.5t-25.5 -68.5zM473 1241l12 98h541l-12 -98h-541z" />
<glyph unicode="&#x116;" horiz-adv-x="1214" d="M199 0l202 1450h887l-16 -123h-752l-74 -516h705l-16 -123h-705l-80 -565h785l-17 -123h-919zM788 1692q4 41 37 69.5t74 28.5t65.5 -28.5t20.5 -69.5q-6 -41 -39 -70t-74 -29t-65.5 29t-18.5 70z" />
<glyph unicode="&#x117;" d="M176 475q14 106 62.5 196.5t121 157t163.5 104.5t196 38q109 0 186.5 -38t125.5 -100.5t65.5 -142.5t5.5 -162l-12 -86h-795q-6 -39 1 -99t40 -117.5t95.5 -98.5t170.5 -41q94 0 189.5 45t152.5 123l80 -76q-88 -109 -199.5 -156t-238.5 -47q-109 0 -192 37t-137 103.5 t-75.5 158t-5.5 201.5zM309 553h672q8 63 -8.5 118.5t-55 97.5t-95 66.5t-124.5 24.5q-100 0 -172.5 -41t-120 -94t-71 -103.5t-25.5 -68.5zM670 1307q6 41 38.5 69.5t73.5 28.5t65.5 -28.5t18.5 -69.5t-38.5 -70t-73.5 -29t-65.5 29t-18.5 70z" />
<glyph unicode="&#x118;" horiz-adv-x="1214" d="M199 0l202 1450h887l-16 -123h-752l-74 -516h705l-16 -123h-705l-80 -565h785l-17 -123h-78q-25 -20 -53.5 -48t-53 -60.5t-42 -68.5t-23.5 -71q-12 -96 76 -96q43 0 73 15.5t46 31.5l29 -78q-37 -29 -82 -48t-103 -19q-82 0 -129 45t-35 123q6 39 25.5 76.5t48.5 73.5 t62.5 67.5t66.5 56.5h-747z" />
<glyph unicode="&#x119;" d="M176 475q14 106 62.5 196.5t121 157t163.5 104.5t196 38q109 0 186.5 -38t125.5 -100.5t65.5 -142.5t5.5 -162l-12 -86h-795q-6 -39 1 -99t40 -117.5t95.5 -98.5t170.5 -41q94 0 189.5 45t152.5 123l80 -76q-102 -125 -240 -172q-25 -18 -54.5 -47t-56 -62.5t-45 -70.5 t-24.5 -74q-12 -96 76 -96q43 0 72.5 15.5t46.5 31.5l28 -78q-37 -29 -82 -48t-102 -19q-82 0 -129 45t-35 123q10 70 62.5 136t113.5 118q-16 -2 -34.5 -3.5t-34.5 -1.5q-109 0 -192 37t-137 103.5t-75.5 158t-5.5 201.5zM309 553h672q8 63 -8.5 118.5t-55 97.5t-95 66.5 t-124.5 24.5q-100 0 -172.5 -41t-120 -94t-71 -103.5t-25.5 -68.5z" />
<glyph unicode="&#x11a;" horiz-adv-x="1214" d="M199 0l202 1450h887l-16 -123h-752l-74 -516h705l-16 -123h-705l-80 -565h785l-17 -123h-919zM633 1837h127l137 -233l209 233h111l-261 -295h-143z" />
<glyph unicode="&#x11b;" d="M176 475q14 106 62.5 196.5t121 157t163.5 104.5t196 38q109 0 186.5 -38t125.5 -100.5t65.5 -142.5t5.5 -162l-12 -86h-795q-6 -39 1 -99t40 -117.5t95.5 -98.5t170.5 -41q94 0 189.5 45t152.5 123l80 -76q-88 -109 -199.5 -156t-238.5 -47q-109 0 -192 37t-137 103.5 t-75.5 158t-5.5 201.5zM309 553h672q8 63 -8.5 118.5t-55 97.5t-95 66.5t-124.5 24.5q-100 0 -172.5 -41t-120 -94t-71 -103.5t-25.5 -68.5zM494 1450h127l137 -233l209 233h110l-258 -295h-143z" />
<glyph unicode="&#x11e;" horiz-adv-x="1593" d="M205 725q25 166 99.5 305t188 240.5t259 159t311.5 57.5q324 0 493 -201l-112 -102q-29 39 -72 72.5t-96 57t-112.5 37t-119.5 13.5q-141 0 -261.5 -49t-213 -135t-152 -203t-77.5 -252t8.5 -252t94 -203t174 -135t247.5 -49q117 0 222.5 18.5t195.5 67.5l70 487h-348 l16 123h483l-96 -688q-137 -72 -277.5 -101.5t-281.5 -29.5q-166 0 -296 56.5t-215 158t-120 241.5t-12 306zM819 1837h86q0 -82 51.5 -121t130.5 -39q92 0 146.5 35t89.5 125h86q-33 -123 -123 -190.5t-213 -67.5q-121 0 -193.5 67.5t-60.5 190.5z" />
<glyph unicode="&#x11f;" horiz-adv-x="1251" d="M98 -293l111 90q51 -92 143 -135t203 -43q94 0 161.5 24.5t116 64.5t79 88t48 96.5t25.5 91.5t12 69l19 131h-4q-66 -86 -163 -135t-220 -49q-104 0 -191.5 38t-147 104.5t-87 154.5t-13.5 188t66.5 188.5t130.5 154t175 104.5t202 39q123 0 207 -49.5t125 -135.5h4 l22 160h123l-123 -885q-25 -176 -92 -284.5t-151 -168t-175.5 -80t-162.5 -20.5q-143 0 -263 52.5t-180 146.5zM313 485q-10 -78 9.5 -146.5t63.5 -118.5t107.5 -79.5t141.5 -29.5t150.5 29.5t131 79.5t97.5 118.5t49 146.5t-9.5 146.5t-63.5 119t-107.5 80t-141.5 29.5 t-150.5 -29.5t-131 -80t-97 -119t-49.5 -146.5zM547 1450h86q2 -82 52 -121t130 -39q92 0 147.5 35t88.5 125h86q-31 -123 -122 -190.5t-214 -67.5q-121 0 -192.5 67.5t-61.5 190.5z" />
<glyph unicode="&#x122;" horiz-adv-x="1593" d="M205 725q25 166 99.5 305t188 240.5t259 159t311.5 57.5q324 0 493 -201l-112 -102q-29 39 -72 72.5t-96 57t-112.5 37t-119.5 13.5q-141 0 -261.5 -49t-213 -135t-152 -203t-77.5 -252t8.5 -252t94 -203t174 -135t247.5 -49q117 0 222.5 18.5t195.5 67.5l70 487h-348 l16 123h483l-96 -688q-137 -72 -277.5 -101.5t-281.5 -29.5q-166 0 -296 56.5t-215 158t-120 241.5t-12 306zM606 -502l172 402h121l-194 -402h-99z" />
<glyph unicode="&#x123;" horiz-adv-x="1251" d="M98 -293l111 90q51 -92 143 -135t203 -43q94 0 161.5 24.5t116 64.5t79 88t48 96.5t25.5 91.5t12 69l19 131h-4q-66 -86 -163 -135t-220 -49q-104 0 -191.5 38t-147 104.5t-87 154.5t-13.5 188t66.5 188.5t130.5 154t175 104.5t202 39q123 0 207 -49.5t125 -135.5h4 l22 160h123l-123 -885q-25 -176 -92 -284.5t-151 -168t-175.5 -80t-162.5 -20.5q-143 0 -263 52.5t-180 146.5zM313 485q-10 -78 9.5 -146.5t63.5 -118.5t107.5 -79.5t141.5 -29.5t150.5 29.5t131 79.5t97.5 118.5t49 146.5t-9.5 146.5t-63.5 119t-107.5 80t-141.5 29.5 t-150.5 -29.5t-131 -80t-97 -119t-49.5 -146.5zM709 1137l192 401h98l-170 -401h-120z" />
<glyph unicode="&#x128;" horiz-adv-x="532" d="M164 1575q10 35 27.5 73t46.5 66q29 31 63.5 50.5t75.5 19.5t76.5 -16.5t68.5 -34.5q33 -16 63.5 -31.5t59.5 -15.5q45 0 72.5 30.5t40.5 67.5h73q-10 -37 -27.5 -75t-41.5 -67q-27 -31 -58.5 -49t-72.5 -18t-77 16.5t-71 32.5t-66.5 32.5t-62.5 16.5q-47 0 -74.5 -30.5 t-41.5 -67.5h-74zM199 0l202 1450h136l-203 -1450h-135z" />
<glyph unicode="&#x129;" horiz-adv-x="491" d="M154 1440q10 33 27.5 67.5t41.5 63.5q29 29 61.5 47t71.5 18q41 0 75 -15t67 -32q29 -16 56.5 -30.5t55.5 -14.5q43 0 70 29t39 63h69q-10 -35 -26.5 -69.5t-38.5 -63.5q-25 -29 -55.5 -46t-71.5 -17q-37 0 -70.5 14t-68.5 31q-33 16 -62.5 31.5t-58.5 15.5 q-45 0 -71.5 -28.5t-41.5 -63.5h-69zM184 0l131 946h123l-131 -946h-123zM338 1321q6 39 35.5 65.5t68.5 26.5t62.5 -26.5t17.5 -65.5q-4 -39 -34.5 -65.5t-69.5 -26.5t-61.5 26.5t-18.5 65.5z" />
<glyph unicode="&#x12a;" horiz-adv-x="532" d="M199 0l202 1450h136l-203 -1450h-135zM223 1626l15 98h540l-14 -98h-541z" />
<glyph unicode="&#x12b;" horiz-adv-x="491" d="M150 1241l12 98h540l-12 -98h-540zM184 0l131 946h123l-131 -946h-123z" />
<glyph unicode="&#x12e;" horiz-adv-x="532" d="M14 -274q6 39 25.5 76.5t48.5 73.5t62.5 67.5t66.5 56.5h-18l202 1450h136l-203 -1450h-25q-25 -20 -52.5 -49t-52 -61.5t-42 -68.5t-23.5 -69q-12 -96 76 -96q43 0 72.5 15.5t46.5 31.5l28 -78q-37 -29 -81.5 -48t-102.5 -19q-82 0 -128 45t-36 123z" />
<glyph unicode="&#x12f;" horiz-adv-x="491" d="M-2 -274q4 39 23.5 76.5t48 73.5t62.5 67.5t67 56.5h-15l131 946h123l-131 -946h-16q-25 -20 -52.5 -49t-52 -61.5t-42 -68.5t-23.5 -69q-12 -96 76 -96q43 0 72.5 15.5t45.5 31.5l29 -78q-37 -29 -82 -48t-102 -19q-82 0 -128 45t-34 123zM338 1321q6 39 35.5 65.5 t68.5 26.5t62.5 -26.5t17.5 -65.5q-4 -39 -34.5 -65.5t-69.5 -26.5t-61.5 26.5t-18.5 65.5z" />
<glyph unicode="&#x130;" horiz-adv-x="532" d="M199 0l202 1450h136l-203 -1450h-135zM403 1690q6 41 39 69.5t74 28.5t65.5 -28.5t18.5 -69.5q-4 -41 -37 -70t-74 -29t-65.5 29t-20.5 70z" />
<glyph unicode="&#x131;" horiz-adv-x="491" d="M184 0l131 946h123l-131 -946h-123z" />
<glyph unicode="&#x136;" horiz-adv-x="1251" d="M199 0l202 1450h136l-91 -639h13l792 639h187l-828 -664l666 -786h-195l-630 750h-13l-104 -750h-135zM436 -502l172 402h121l-194 -402h-99z" />
<glyph unicode="&#x137;" horiz-adv-x="985" d="M164 0l217 1548h123l-146 -1032l527 428h180l-547 -432l473 -512h-186l-449 500l-69 -500h-123zM303 -502l172 402h121l-195 -402h-98z" />
<glyph unicode="&#x139;" horiz-adv-x="1024" d="M199 0l202 1450h136l-187 -1327h676l-16 -123h-811zM369 1540l254 295h163l-315 -295h-102z" />
<glyph unicode="&#x13a;" horiz-adv-x="491" d="M184 0l217 1548h123l-217 -1548h-123zM352 1599l256 295h164l-317 -295h-103z" />
<glyph unicode="&#x13b;" horiz-adv-x="1024" d="M199 0l202 1450h136l-187 -1327h676l-16 -123h-811zM358 -502l172 402h121l-194 -402h-99z" />
<glyph unicode="&#x13c;" horiz-adv-x="491" d="M51 -502l172 402h121l-194 -402h-99zM184 0l217 1548h123l-217 -1548h-123z" />
<glyph unicode="&#x13d;" horiz-adv-x="1024" d="M199 0l202 1450h136l-187 -1327h676l-16 -123h-811zM545 1049l172 401h121l-195 -401h-98z" />
<glyph unicode="&#x13e;" horiz-adv-x="526" d="M184 0l217 1548h123l-217 -1548h-123zM514 1147l172 401h121l-195 -401h-98z" />
<glyph unicode="&#x141;" horiz-adv-x="1024" d="M98 342l19 133l166 129l118 846h136l-103 -733l496 387l-17 -127l-497 -387l-66 -467h676l-16 -123h-811l65 473z" />
<glyph unicode="&#x142;" horiz-adv-x="491" d="M80 489l20 138l195 174l106 747h123l-88 -624l197 176l-19 -137l-196 -175l-111 -788h-123l92 664z" />
<glyph unicode="&#x143;" horiz-adv-x="1593" d="M199 0l202 1450h174l705 -1270h4l178 1270h135l-202 -1450h-174l-705 1270h-4l-178 -1270h-135zM891 1540l254 295h164l-316 -295h-102z" />
<glyph unicode="&#x144;" d="M164 0l94 680q4 27 8 64.5t7 76.5t6.5 73t5.5 52h123q-4 -53 -10.5 -102t-4.5 -64h6q25 39 61 74t81 60.5t98 41t111 15.5q111 0 176 -35t97 -91.5t36 -130t-6 -151.5l-78 -563h-123l78 557q8 57 6 111.5t-22.5 97.5t-62.5 68.5t-116 25.5q-68 0 -131 -23.5t-114.5 -71.5 t-87 -121t-50.5 -171l-65 -473h-123zM602 1155l254 295h164l-315 -295h-103z" />
<glyph unicode="&#x145;" horiz-adv-x="1593" d="M199 0l202 1450h174l705 -1270h4l178 1270h135l-202 -1450h-174l-705 1270h-4l-178 -1270h-135zM575 -502l173 402h120l-194 -402h-99z" />
<glyph unicode="&#x146;" d="M164 0l94 680q4 27 8 64.5t7 76.5t6.5 73t5.5 52h123q-4 -53 -10.5 -102t-4.5 -64h6q25 39 61 74t81 60.5t98 41t111 15.5q111 0 176 -35t97 -91.5t36 -130t-6 -151.5l-78 -563h-123l78 557q8 57 6 111.5t-22.5 97.5t-62.5 68.5t-116 25.5q-68 0 -131 -23.5t-114.5 -71.5 t-87 -121t-50.5 -171l-65 -473h-123zM352 -502l172 402h121l-194 -402h-99z" />
<glyph unicode="&#x147;" horiz-adv-x="1593" d="M199 0l202 1450h174l705 -1270h4l178 1270h135l-202 -1450h-174l-705 1270h-4l-178 -1270h-135zM778 1837h127l137 -233l209 233h111l-260 -295h-144z" />
<glyph unicode="&#x148;" d="M164 0l94 680q4 27 8 64.5t7 76.5t6.5 73t5.5 52h123q-4 -53 -10.5 -102t-4.5 -64h6q25 39 61 74t81 60.5t98 41t111 15.5q111 0 176 -35t97 -91.5t36 -130t-6 -151.5l-78 -563h-123l78 557q8 57 6 111.5t-22.5 97.5t-62.5 68.5t-116 25.5q-68 0 -131 -23.5t-114.5 -71.5 t-87 -121t-50.5 -171l-65 -473h-123zM479 1450h127l137 -233l209 233h111l-258 -295h-143z" />
<glyph unicode="&#x14c;" horiz-adv-x="1708" d="M205 725q25 166 99.5 305t188 240.5t259 159t311.5 57.5t296 -57.5t214 -159t120 -240.5t11 -305q-23 -166 -97.5 -306t-188 -241.5t-259 -158t-311.5 -56.5t-296 56.5t-215 158t-120 241.5t-12 306zM340 725q-18 -135 8.5 -252t94 -203t174 -135t247.5 -49t262 49 t213.5 135t151.5 203t78 252q18 135 -7.5 252t-93 203t-175 135t-249.5 49q-141 0 -261.5 -49t-213 -135t-152 -203t-77.5 -252zM811 1626l14 98h541l-14 -98h-541z" />
<glyph unicode="&#x14d;" horiz-adv-x="1216" d="M176 473q14 109 64.5 200t125 157.5t172 103.5t205.5 37q109 0 195 -37t143.5 -103.5t81 -157.5t8.5 -200q-16 -109 -65 -200t-125 -157.5t-172 -103.5t-205 -37t-195.5 37t-143 103.5t-81 157.5t-8.5 200zM299 473q-12 -80 4 -150.5t57 -123t106.5 -83t151.5 -30.5 t160 30.5t130.5 83t92 123t48.5 150.5q12 80 -4.5 150.5t-57.5 123t-106.5 83t-151.5 30.5t-159.5 -30.5t-130 -83t-92.5 -123t-48 -150.5zM512 1241l12 98h541l-12 -98h-541z" />
<glyph unicode="&#x150;" horiz-adv-x="1708" d="M205 725q25 166 99.5 305t188 240.5t259 159t311.5 57.5t296 -57.5t214 -159t120 -240.5t11 -305q-23 -166 -97.5 -306t-188 -241.5t-259 -158t-311.5 -56.5t-296 56.5t-215 158t-120 241.5t-12 306zM340 725q-18 -135 8.5 -252t94 -203t174 -135t247.5 -49t262 49 t213.5 135t151.5 203t78 252q18 135 -7.5 252t-93 203t-175 135t-249.5 49q-141 0 -261.5 -49t-213 -135t-152 -203t-77.5 -252zM817 1542l256 295h164l-317 -295h-103zM1116 1542l256 295h164l-317 -295h-103z" />
<glyph unicode="&#x151;" horiz-adv-x="1216" d="M176 473q14 109 64.5 200t125 157.5t172 103.5t205.5 37q109 0 195 -37t143.5 -103.5t81 -157.5t8.5 -200q-16 -109 -65 -200t-125 -157.5t-172 -103.5t-205 -37t-195.5 37t-143 103.5t-81 157.5t-8.5 200zM299 473q-12 -80 4 -150.5t57 -123t106.5 -83t151.5 -30.5 t160 30.5t130.5 83t92 123t48.5 150.5q12 80 -4.5 150.5t-57.5 123t-106.5 83t-151.5 30.5t-159.5 -30.5t-130 -83t-92.5 -123t-48 -150.5zM539 1155l254 295h163l-315 -295h-102zM838 1155l254 295h163l-315 -295h-102z" />
<glyph unicode="&#x152;" horiz-adv-x="1933" d="M221 725q25 180 111 315.5t209 226.5t272.5 137t300.5 46h885l-17 -123h-606l-73 -516h571l-16 -123h-572l-80 -565h623l-17 -123h-966q-145 0 -270 51t-211 146.5t-126 229.5t-18 298zM356 725q-16 -113 1.5 -201t58.5 -155.5t99 -113.5t124 -75.5t133.5 -43 t126.5 -13.5h172l170 1204h-160q-109 0 -226.5 -35t-221 -108.5t-179 -187t-98.5 -271.5z" />
<glyph unicode="&#x153;" horiz-adv-x="1857" d="M156 473q14 109 63 200t121 157.5t163 103.5t193 37t170 -28t110 -65.5t63.5 -77.5t31.5 -65q25 41 60.5 83t86 76t115 55.5t142.5 21.5q86 0 159.5 -25.5t124.5 -81t73.5 -142.5t6.5 -208l-10 -72h-729q-12 -74 -2 -138t44 -112.5t92 -77t142 -28.5q88 0 164 40t131 112 l86 -70q-47 -53 -94 -89t-96 -59.5t-104.5 -34t-121.5 -10.5q-125 0 -215 55.5t-125 178.5h-4q-76 -115 -190.5 -174.5t-249.5 -59.5q-102 0 -183 37t-134.5 103.5t-77 158t-6.5 199.5zM279 473q-10 -76 4 -145.5t52 -123.5t98.5 -86t141.5 -32q82 0 151 30.5t122 83t87 123 t46 150.5t-2 150.5t-52 123t-98.5 83t-142.5 30.5t-151.5 -31.5t-123 -86t-88 -124t-44.5 -145.5zM1114 553h606q8 63 -1 119.5t-39.5 97.5t-84 65.5t-131.5 24.5q-72 0 -131 -24.5t-105 -66.5t-76 -97.5t-38 -118.5z" />
<glyph unicode="&#x154;" horiz-adv-x="1214" d="M199 0l202 1450h381q29 0 78 -2t105.5 -12.5t112 -33t97.5 -65.5t62 -108.5t8 -159.5q-14 -104 -59 -172t-105.5 -110t-129 -62t-130.5 -29l326 -696h-154l-311 688h-252l-96 -688h-135zM446 811h287q106 0 177 26.5t113 65.5t61.5 84t25.5 82t-1 82t-39 84t-94.5 65.5 t-168.5 26.5h-287zM692 1540l254 295h164l-315 -295h-103z" />
<glyph unicode="&#x155;" horiz-adv-x="681" d="M164 0l94 680q4 27 8 64.5t7 76.5t6.5 73t5.5 52h123q-4 -53 -10.5 -102t-4.5 -64q59 84 140 137.5t188 53.5q33 0 70 -10l-31 -121q-23 8 -45 8q-80 0 -141.5 -25.5t-106.5 -70.5t-71.5 -105.5t-37.5 -130.5l-71 -516h-123zM418 1155l254 295h164l-316 -295h-102z" />
<glyph unicode="&#x156;" horiz-adv-x="1214" d="M199 0l202 1450h381q29 0 78 -2t105.5 -12.5t112 -33t97.5 -65.5t62 -108.5t8 -159.5q-14 -104 -59 -172t-105.5 -110t-129 -62t-130.5 -29l326 -696h-154l-311 688h-252l-96 -688h-135zM418 -502l172 402h121l-195 -402h-98zM446 811h287q106 0 177 26.5t113 65.5 t61.5 84t25.5 82t-1 82t-39 84t-94.5 65.5t-168.5 26.5h-287z" />
<glyph unicode="&#x157;" horiz-adv-x="681" d="M45 -502l172 402h121l-195 -402h-98zM164 0l94 680q4 27 8 64.5t7 76.5t6.5 73t5.5 52h123q-4 -53 -10.5 -102t-4.5 -64q59 84 140 137.5t188 53.5q33 0 70 -10l-31 -121q-23 8 -45 8q-80 0 -141.5 -25.5t-106.5 -70.5t-71.5 -105.5t-37.5 -130.5l-71 -516h-123z" />
<glyph unicode="&#x158;" horiz-adv-x="1214" d="M199 0l202 1450h381q29 0 78 -2t105.5 -12.5t112 -33t97.5 -65.5t62 -108.5t8 -159.5q-14 -104 -59 -172t-105.5 -110t-129 -62t-130.5 -29l326 -696h-154l-311 688h-252l-96 -688h-135zM446 811h287q106 0 177 26.5t113 65.5t61.5 84t25.5 82t-1 82t-39 84t-94.5 65.5 t-168.5 26.5h-287zM573 1837h127l138 -233l209 233h110l-260 -295h-143z" />
<glyph unicode="&#x159;" horiz-adv-x="681" d="M164 0l94 680q4 27 8 64.5t7 76.5t6.5 73t5.5 52h123q-4 -53 -10.5 -102t-4.5 -64q59 84 140 137.5t188 53.5q33 0 70 -10l-31 -121q-23 8 -45 8q-80 0 -141.5 -25.5t-106.5 -70.5t-71.5 -105.5t-37.5 -130.5l-71 -516h-123zM295 1450h127l137 -233l209 233h111 l-258 -295h-144z" />
<glyph unicode="&#x15a;" d="M133 182l141 86q41 -92 119 -137t187 -45q68 0 130 20.5t111 57.5t82 89t43 118q10 76 -14.5 125t-72.5 80.5t-112.5 54t-131 45t-130 51.5t-109.5 75t-68.5 115.5t-8.5 172.5q14 96 63.5 170.5t121 125t158.5 76t179 25.5q119 0 214 -42t155 -140l-129 -84 q-41 72 -104.5 107.5t-157.5 35.5q-66 0 -127.5 -17.5t-110.5 -51t-83 -85t-44 -120.5q-12 -82 13.5 -134.5t72.5 -86t111.5 -55t131 -43t130 -48.5t111 -71t70 -111.5t7.5 -169.5q-14 -98 -62 -174t-118 -128.5t-154.5 -79t-173.5 -26.5q-143 0 -257.5 50t-182.5 169z M680 1540l254 295h164l-316 -295h-102z" />
<glyph unicode="&#x15b;" horiz-adv-x="872" d="M80 168l119 74q29 -76 98.5 -116t153.5 -40q39 0 79.5 12.5t74.5 35t57.5 54t29.5 72.5q6 49 -13.5 79t-56 48.5t-85 30.5t-99.5 23.5t-99 27.5t-84 45t-54.5 73t-7.5 111q10 70 45.5 121t87 85t111 50.5t118.5 16.5q117 0 195.5 -43t113.5 -135l-121 -66 q-27 66 -72.5 99.5t-129.5 33.5q-33 0 -70 -10t-69.5 -28.5t-55 -47.5t-29.5 -65q-8 -63 29 -94t97.5 -48.5t131 -30t129 -40t92 -79.5t21.5 -149q-10 -74 -46 -128t-88 -91t-116.5 -55.5t-132.5 -18.5q-123 0 -218 47.5t-136 145.5zM463 1155l254 295h164l-316 -295h-102z " />
<glyph unicode="&#x15e;" d="M133 182l141 86q41 -92 119 -137t187 -45q68 0 130 20.5t111 57.5t82 89t43 118q10 76 -14.5 125t-72.5 80.5t-112.5 54t-131 45t-130 51.5t-109.5 75t-68.5 115.5t-8.5 172.5q14 96 63.5 170.5t121 125t158.5 76t179 25.5q119 0 214 -42t155 -140l-129 -84 q-41 72 -104.5 107.5t-157.5 35.5q-66 0 -127.5 -17.5t-110.5 -51t-83 -85t-44 -120.5q-12 -82 13.5 -134.5t72.5 -86t111.5 -55t131 -43t130 -48.5t111 -71t70 -111.5t7.5 -169.5q-12 -94 -57 -167t-109.5 -125t-144.5 -81t-164 -33l-82 -96l2 -4q29 14 66 14q33 0 62.5 -9 t51 -27.5t32 -46t3.5 -64.5q-6 -47 -31.5 -80t-61.5 -53.5t-79 -30.5t-82 -10q-102 0 -188 43l39 65q61 -35 149 -35q20 0 44 5.5t44.5 15.5t35 26.5t18.5 40.5q6 47 -28 66.5t-75 19.5q-47 0 -92 -16l-28 31l122 145q-129 6 -231 56.5t-164 160.5z" />
<glyph unicode="&#x15f;" horiz-adv-x="872" d="M80 168l119 74q29 -76 98.5 -116t153.5 -40q39 0 79.5 12.5t74.5 35t57.5 54t29.5 72.5q6 49 -13.5 79t-56 48.5t-85 30.5t-99.5 23.5t-99 27.5t-84 45t-54.5 73t-7.5 111q10 70 45.5 121t87 85t111 50.5t118.5 16.5q117 0 195.5 -43t113.5 -135l-121 -66 q-27 66 -72.5 99.5t-129.5 33.5q-33 0 -70 -10t-69.5 -28.5t-55 -47.5t-29.5 -65q-8 -63 29 -94t97.5 -48.5t131 -30t129 -40t92 -79.5t21.5 -149q-10 -66 -39.5 -117t-75 -86.5t-101.5 -57t-116 -27.5l-94 -111l2 -4q29 14 66 14q33 0 62.5 -9t51 -27.5t31.5 -46t4 -64.5 q-6 -47 -31.5 -80t-61.5 -53.5t-79 -30.5t-82 -10q-102 0 -188 43l39 65q61 -35 149 -35q20 0 44 5.5t44.5 15.5t35 26.5t18.5 40.5q6 47 -28 66.5t-75 19.5q-47 0 -92 -16l-29 31l134 155q-113 4 -200 51.5t-126 141.5z" />
<glyph unicode="&#x160;" d="M133 182l141 86q41 -92 119 -137t187 -45q68 0 130 20.5t111 57.5t82 89t43 118q10 76 -14.5 125t-72.5 80.5t-112.5 54t-131 45t-130 51.5t-109.5 75t-68.5 115.5t-8.5 172.5q14 96 63.5 170.5t121 125t158.5 76t179 25.5q119 0 214 -42t155 -140l-129 -84 q-41 72 -104.5 107.5t-157.5 35.5q-66 0 -127.5 -17.5t-110.5 -51t-83 -85t-44 -120.5q-12 -82 13.5 -134.5t72.5 -86t111.5 -55t131 -43t130 -48.5t111 -71t70 -111.5t7.5 -169.5q-14 -98 -62 -174t-118 -128.5t-154.5 -79t-173.5 -26.5q-143 0 -257.5 50t-182.5 169z M526 1835h127l138 -233l208 233h111l-258 -295h-143z" />
<glyph unicode="&#x161;" horiz-adv-x="872" d="M80 168l119 74q29 -76 98.5 -116t153.5 -40q39 0 79.5 12.5t74.5 35t57.5 54t29.5 72.5q6 49 -13.5 79t-56 48.5t-85 30.5t-99.5 23.5t-99 27.5t-84 45t-54.5 73t-7.5 111q10 70 45.5 121t87 85t111 50.5t118.5 16.5q117 0 195.5 -43t113.5 -135l-121 -66 q-27 66 -72.5 99.5t-129.5 33.5q-33 0 -70 -10t-69.5 -28.5t-55 -47.5t-29.5 -65q-8 -63 29 -94t97.5 -48.5t131 -30t129 -40t92 -79.5t21.5 -149q-10 -74 -46 -128t-88 -91t-116.5 -55.5t-132.5 -18.5q-123 0 -218 47.5t-136 145.5zM340 1450h127l137 -233l209 233h111 l-258 -295h-144z" />
<glyph unicode="&#x162;" horiz-adv-x="1175" d="M211 1327l16 123h1127l-17 -123h-495l-187 -1327h-135l187 1327h-496zM397 -502l172 402h121l-194 -402h-99z" />
<glyph unicode="&#x163;" horiz-adv-x="681" d="M145 836l15 110h205l38 273h123l-39 -273h271l-15 -110h-270l-86 -617q-10 -63 19.5 -98t91.5 -35q35 0 72.5 9t72.5 24l-6 -111q-35 -12 -82 -22.5t-82 -10.5q-66 0 -110 19.5t-68.5 52.5t-31.5 77t1 95l86 617h-205zM170 -502l172 402h121l-195 -402h-98z" />
<glyph unicode="&#x164;" horiz-adv-x="1175" d="M211 1327l16 123h1127l-17 -123h-495l-187 -1327h-135l187 1327h-496zM553 1837h127l137 -233l209 233h111l-260 -295h-144z" />
<glyph unicode="&#x165;" horiz-adv-x="681" d="M145 836l15 110h205l38 273h123l-39 -273h271l-15 -110h-270l-86 -617q-10 -63 19.5 -98t91.5 -35q35 0 72.5 9t72.5 24l-6 -111q-35 -12 -82 -22.5t-82 -10.5q-66 0 -110 19.5t-68.5 52.5t-31.5 77t1 95l86 617h-205zM571 1049l172 401h121l-194 -401h-99z" />
<glyph unicode="&#x168;" horiz-adv-x="1400" d="M244.5 331.5q-11.5 106.5 5.5 223.5l125 895h135l-121 -860q-10 -78 -9 -166t32.5 -164t101.5 -125t197 -49t211 49t137 125t79.5 164t37.5 166l120 860h136l-125 -895q-16 -117 -58.5 -223.5t-116 -188.5t-182 -131t-256.5 -49q-147 0 -241.5 49t-145.5 131t-62.5 188.5 zM606 1575q10 35 27.5 73t46.5 66q29 31 63.5 50.5t75.5 19.5t77 -16.5t69 -34.5q33 -16 63.5 -31.5t58.5 -15.5q45 0 73 30.5t40 67.5h74q-10 -37 -27.5 -75t-42.5 -67q-27 -31 -58.5 -49t-72.5 -18t-76.5 16.5t-70.5 32.5t-67 32.5t-62 16.5q-47 0 -75 -30.5t-42 -67.5 h-74z" />
<glyph unicode="&#x169;" d="M201 231.5q-4 73.5 6 151.5l78 563h123l-78 -557q-8 -57 -6 -111.5t22.5 -97.5t62.5 -68.5t115 -25.5q68 0 131.5 23.5t114.5 71.5t87 121t50 171l66 473h123l-95 -680q-4 -27 -8 -64.5t-7 -76.5t-6 -73t-5 -52h-123q4 53 10 102.5t4 63.5h-6q-25 -39 -60.5 -74 t-80.5 -60.5t-98.5 -41t-110.5 -15.5q-111 0 -176.5 35t-97 91.5t-35.5 130zM432 1190q10 33 27.5 67.5t42.5 63.5q29 29 61.5 47t71.5 18q41 0 74.5 -15t64.5 -32q29 -16 57.5 -30.5t57.5 -14.5q43 0 69.5 29t38.5 63h70q-10 -35 -26.5 -69.5t-39.5 -63.5 q-25 -29 -55.5 -46t-71.5 -17q-37 0 -70.5 14.5t-68.5 30.5q-33 16 -63.5 31.5t-59.5 15.5q-45 0 -70.5 -28.5t-39.5 -63.5h-70z" />
<glyph unicode="&#x16a;" horiz-adv-x="1400" d="M244.5 331.5q-11.5 106.5 5.5 223.5l125 895h135l-121 -860q-10 -78 -9 -166t32.5 -164t101.5 -125t197 -49t211 49t137 125t79.5 164t37.5 166l120 860h136l-125 -895q-16 -117 -58.5 -223.5t-116 -188.5t-182 -131t-256.5 -49q-147 0 -241.5 49t-145.5 131t-62.5 188.5 zM657 1626l15 98h540l-14 -98h-541z" />
<glyph unicode="&#x16b;" d="M201 231.5q-4 73.5 6 151.5l78 563h123l-78 -557q-8 -57 -6 -111.5t22.5 -97.5t62.5 -68.5t115 -25.5q68 0 131.5 23.5t114.5 71.5t87 121t50 171l66 473h123l-95 -680q-4 -27 -8 -64.5t-7 -76.5t-6 -73t-5 -52h-123q4 53 10 102.5t4 63.5h-6q-25 -39 -60.5 -74 t-80.5 -60.5t-98.5 -41t-110.5 -15.5q-111 0 -176.5 35t-97 91.5t-35.5 130zM473 1241l12 98h541l-12 -98h-541z" />
<glyph unicode="&#x16e;" horiz-adv-x="1400" d="M244.5 331.5q-11.5 106.5 5.5 223.5l125 895h135l-121 -860q-10 -78 -9 -166t32.5 -164t101.5 -125t197 -49t211 49t137 125t79.5 164t37.5 166l120 860h136l-125 -895q-16 -117 -58.5 -223.5t-116 -188.5t-182 -131t-256.5 -49q-147 0 -241.5 49t-145.5 131t-62.5 188.5 zM750 1714q6 39 25.5 75t49 62.5t66.5 42t78 15.5q39 0 71.5 -16.5t54 -44t32 -62.5t3.5 -74q-6 -37 -25.5 -71.5t-48 -61.5t-65.5 -43t-76 -16q-41 0 -73.5 15t-55 42t-32.5 62.5t-4 74.5zM823 1712q-8 -51 21.5 -85t79.5 -34q51 0 88 35t45 86t-20.5 86t-80.5 35 q-51 0 -88 -36t-45 -87z" />
<glyph unicode="&#x16f;" d="M201 231.5q-4 73.5 6 151.5l78 563h123l-78 -557q-8 -57 -6 -111.5t22.5 -97.5t62.5 -68.5t115 -25.5q68 0 131.5 23.5t114.5 71.5t87 121t50 171l66 473h123l-95 -680q-4 -27 -8 -64.5t-7 -76.5t-6 -73t-5 -52h-123q4 53 10 102.5t4 63.5h-6q-25 -39 -60.5 -74 t-80.5 -60.5t-98.5 -41t-110.5 -15.5q-111 0 -176.5 35t-97 91.5t-35.5 130zM565 1329q6 39 25.5 75t49.5 62.5t66.5 42t77.5 15.5q39 0 72 -16.5t54.5 -44t31.5 -62.5t4 -74q-6 -37 -25.5 -71.5t-49 -61.5t-66.5 -43t-76 -16q-41 0 -72.5 15t-54 42t-33 62.5t-4.5 74.5z M639 1327q-8 -51 20.5 -85t77.5 -34q51 0 89 35t46 86q6 51 -21.5 86t-78.5 35t-89 -36t-44 -87z" />
<glyph unicode="&#x170;" horiz-adv-x="1400" d="M244.5 331.5q-11.5 106.5 5.5 223.5l125 895h135l-121 -860q-10 -78 -9 -166t32.5 -164t101.5 -125t197 -49t211 49t137 125t79.5 164t37.5 166l120 860h136l-125 -895q-16 -117 -58.5 -223.5t-116 -188.5t-182 -131t-256.5 -49q-147 0 -241.5 49t-145.5 131t-62.5 188.5 zM645 1542l256 295h164l-317 -295h-103zM944 1542l256 295h164l-317 -295h-103z" />
<glyph unicode="&#x171;" d="M201 231.5q-4 73.5 6 151.5l78 563h123l-78 -557q-8 -57 -6 -111.5t22.5 -97.5t62.5 -68.5t115 -25.5q68 0 131.5 23.5t114.5 71.5t87 121t50 171l66 473h123l-95 -680q-4 -27 -8 -64.5t-7 -76.5t-6 -73t-5 -52h-123q4 53 10 102.5t4 63.5h-6q-25 -39 -60.5 -74 t-80.5 -60.5t-98.5 -41t-110.5 -15.5q-111 0 -176.5 35t-97 91.5t-35.5 130zM451 1155l254 295h163l-315 -295h-102zM750 1155l254 295h163l-315 -295h-102z" />
<glyph unicode="&#x172;" horiz-adv-x="1400" d="M244.5 331.5q-11.5 106.5 5.5 223.5l125 895h135l-121 -860q-10 -78 -9 -166t32.5 -164t101.5 -125t197 -49t211 49t137 125t79.5 164t37.5 166l120 860h136l-125 -895q-12 -90 -41 -176t-76 -159t-113.5 -130t-154.5 -90q-25 -20 -53.5 -48t-53 -60.5t-42 -68.5 t-23.5 -71q-12 -96 75 -96q43 0 73 15.5t46 31.5l29 -78q-37 -29 -82 -48t-103 -19q-82 0 -129 45t-34 123q10 66 58 130t105 113q-43 -6 -94 -6q-147 0 -241.5 49t-145.5 131t-62.5 188.5z" />
<glyph unicode="&#x173;" d="M201 231.5q-4 73.5 6 151.5l78 563h123l-78 -557q-8 -57 -6 -111.5t22.5 -97.5t62.5 -68.5t115 -25.5q68 0 131.5 23.5t114.5 71.5t87 121t50 171l66 473h123l-95 -680q-4 -27 -8 -64.5t-7 -76.5t-6 -73t-5 -52h-21q-25 -20 -52.5 -49t-52 -61.5t-41.5 -68.5t-24 -69 q-12 -96 76 -96q43 0 73 15.5t46 31.5l29 -78q-37 -29 -82 -48t-103 -19q-82 0 -129 45t-35 123q6 39 26 76.5t48.5 73.5t62 67.5t66.5 56.5h-10q4 53 10 102.5t4 63.5h-6q-25 -39 -60.5 -74t-80.5 -60.5t-98.5 -41t-110.5 -15.5q-111 0 -176.5 35t-97 91.5t-35.5 130z" />
<glyph unicode="&#x178;" horiz-adv-x="1175" d="M190 1450h162l342 -688l545 688h152l-650 -825l-86 -625h-135l86 625zM537 1720q4 41 36.5 70t73.5 29t65.5 -29t20.5 -70q-6 -41 -38.5 -69.5t-73.5 -28.5t-65.5 28.5t-18.5 69.5zM926 1720q4 41 36.5 70t73.5 29t65.5 -29t20.5 -70q-6 -41 -38.5 -69.5t-73.5 -28.5 t-65.5 28.5t-18.5 69.5z" />
<glyph unicode="&#x179;" d="M47 0l14 106l1020 1221h-835l16 123h1010l-17 -111l-1024 -1216h877l-16 -123h-1045zM662 1542l256 295h163l-317 -295h-102z" />
<glyph unicode="&#x17a;" horiz-adv-x="872" d="M55 0l11 74l673 762h-538l14 110h709l-11 -74l-671 -761h589l-14 -111h-762zM506 1155l254 295h164l-316 -295h-102z" />
<glyph unicode="&#x17b;" d="M47 0l14 106l1020 1221h-835l16 123h1010l-17 -111l-1024 -1216h877l-16 -123h-1045zM702 1692q4 41 37 69.5t74 28.5t65.5 -28.5t20.5 -69.5q-6 -41 -39 -70t-74 -29t-65.5 29t-18.5 70z" />
<glyph unicode="&#x17c;" horiz-adv-x="872" d="M55 0l11 74l673 762h-538l14 110h709l-11 -74l-671 -761h589l-14 -111h-762zM547 1335q6 41 38.5 70t73.5 29t66 -29t18 -70q-6 -41 -38.5 -69.5t-73.5 -28.5t-65.5 28.5t-18.5 69.5z" />
<glyph unicode="&#x17d;" d="M47 0l14 106l1020 1221h-835l16 123h1010l-17 -111l-1024 -1216h877l-16 -123h-1045zM526 1835h127l138 -233l208 233h111l-258 -295h-143z" />
<glyph unicode="&#x17e;" horiz-adv-x="872" d="M55 0l11 74l673 762h-538l14 110h709l-11 -74l-671 -761h589l-14 -111h-762zM340 1450h127l137 -233l209 233h111l-258 -295h-144z" />
<glyph unicode="&#x192;" horiz-adv-x="1064" d="M-66 -246l72 96q23 -18 49.5 -26t55.5 -8q82 0 128 58t80 169l234 717h-221l12 98h240l104 316q18 53 46 107t68 97t95 70t127 27q100 0 174 -62l-78 -92q-23 18 -51.5 30.5t-60.5 12.5q-78 0 -125 -54.5t-72 -129.5l-104 -322h221l-13 -98h-239l-260 -801 q-41 -119 -119 -186.5t-211 -67.5q-43 0 -83 10.5t-69 38.5z" />
<glyph unicode="&#x1a0;" horiz-adv-x="1708" d="M205 725q25 166 99.5 305t188 240.5t259 159t311.5 57.5q66 0 127 -10.5t115 -26.5h168q106 0 155 56.5t60 138.5q10 53 6 104h110q2 -27 1 -54.5t-5 -56.5q-6 -49 -26.5 -98t-57.5 -90t-92 -68.5t-131 -33.5q127 -100 183.5 -261t27.5 -362q-23 -166 -97.5 -306 t-188 -241.5t-259 -158t-311.5 -56.5t-296 56.5t-215 158t-120 241.5t-12 306zM340 725q-18 -135 8.5 -252t94 -203t174 -135t247.5 -49t262 49t213.5 135t151.5 203t78 252q18 135 -7.5 252t-93 203t-175 135t-249.5 49q-141 0 -261.5 -49t-213 -135t-152 -203t-77.5 -252z " />
<glyph unicode="&#x1a1;" horiz-adv-x="1216" d="M176 473q14 109 64.5 200t125 157.5t172 103.5t205.5 37q90 0 162 -25h84q106 0 155.5 56.5t61.5 138.5q4 27 6 53.5t-2 50.5h111q6 -49 -4 -110q-6 -45 -23.5 -90.5t-48.5 -84t-76 -68.5t-106 -42q66 -66 95.5 -163t12.5 -214q-16 -109 -65 -200t-125 -157.5 t-172 -103.5t-205 -37t-195.5 37t-143 103.5t-81 157.5t-8.5 200zM299 473q-12 -80 4 -150.5t57 -123t106.5 -83t151.5 -30.5t160 30.5t130.5 83t92 123t48.5 150.5q12 80 -4.5 150.5t-57.5 123t-106.5 83t-151.5 30.5t-159.5 -30.5t-130 -83t-92.5 -123t-48 -150.5z" />
<glyph unicode="&#x1af;" horiz-adv-x="1400" d="M244.5 331.5q-11.5 106.5 5.5 223.5l125 895h135l-121 -860q-10 -78 -9 -166t32.5 -164t101.5 -125t197 -49t211 49t137 125t79.5 164t37.5 166l120 860h136q106 0 155 56.5t60 138.5q10 53 6 104h110q2 -27 1 -54.5t-5 -56.5q-6 -49 -26.5 -99t-58.5 -91t-95 -68.5 t-137 -31.5h-25l-110 -793q-16 -117 -58.5 -223.5t-116 -188.5t-182 -131t-256.5 -49q-147 0 -241.5 49t-145.5 131t-62.5 188.5z" />
<glyph unicode="&#x1b0;" d="M201 231.5q-4 73.5 6 151.5l78 563h123l-78 -557q-8 -57 -6 -111.5t22.5 -97.5t62.5 -68.5t115 -25.5q68 0 131.5 23.5t114.5 71.5t87 121t50 171l66 473h94q106 0 155.5 56.5t61.5 138.5q4 27 6 53.5t-2 50.5h111q6 -49 -4 -110q-6 -49 -26.5 -99.5t-58.5 -91.5 t-94.5 -68.5t-134.5 -31.5l-80 -578q-4 -27 -8 -64.5t-7 -76.5t-6 -73t-5 -52h-123q4 53 10 102.5t4 63.5h-6q-25 -39 -60.5 -74t-80.5 -60.5t-98.5 -41t-110.5 -15.5q-111 0 -176.5 35t-97 91.5t-35.5 130z" />
<glyph unicode="&#x218;" d="M133 182l141 86q41 -92 119 -137t187 -45q68 0 130 20.5t111 57.5t82 89t43 118q10 76 -14.5 125t-72.5 80.5t-112.5 54t-131 45t-130 51.5t-109.5 75t-68.5 115.5t-8.5 172.5q14 96 63.5 170.5t121 125t158.5 76t179 25.5q119 0 214 -42t155 -140l-129 -84 q-41 72 -104.5 107.5t-157.5 35.5q-66 0 -127.5 -17.5t-110.5 -51t-83 -85t-44 -120.5q-12 -82 13.5 -134.5t72.5 -86t111.5 -55t131 -43t130 -48.5t111 -71t70 -111.5t7.5 -169.5q-14 -98 -62 -174t-118 -128.5t-154.5 -79t-173.5 -26.5q-143 0 -257.5 50t-182.5 169z M346 -502l172 402h121l-195 -402h-98z" />
<glyph unicode="&#x219;" horiz-adv-x="872" d="M80 168l119 74q29 -76 98.5 -116t153.5 -40q39 0 79.5 12.5t74.5 35t57.5 54t29.5 72.5q6 49 -13.5 79t-56 48.5t-85 30.5t-99.5 23.5t-99 27.5t-84 45t-54.5 73t-7.5 111q10 70 45.5 121t87 85t111 50.5t118.5 16.5q117 0 195.5 -43t113.5 -135l-121 -66 q-27 66 -72.5 99.5t-129.5 33.5q-33 0 -70 -10t-69.5 -28.5t-55 -47.5t-29.5 -65q-8 -63 29 -94t97.5 -48.5t131 -30t129 -40t92 -79.5t21.5 -149q-10 -74 -46 -128t-88 -91t-116.5 -55.5t-132.5 -18.5q-123 0 -218 47.5t-136 145.5zM209 -502l172 402h121l-195 -402h-98z " />
<glyph unicode="&#x2c6;" horiz-adv-x="491" d="M115 1155l262 295h143l180 -295h-133l-135 221l-196 -221h-121z" />
<glyph unicode="&#x2c7;" horiz-adv-x="491" d="M150 1450h126l138 -233l209 233h110l-258 -295h-143z" />
<glyph unicode="&#x2c9;" horiz-adv-x="491" d="M150 1241l12 98h540l-12 -98h-540z" />
<glyph unicode="&#x2d8;" horiz-adv-x="491" d="M154 1450h86q2 -82 52 -121t130 -39q92 0 147.5 35t87.5 125h86q-31 -123 -122 -190.5t-213 -67.5q-121 0 -193 67.5t-61 190.5z" />
<glyph unicode="&#x2d9;" horiz-adv-x="491" d="M340 1335q6 41 39 70t74 29t65.5 -29t18.5 -70t-39 -69.5t-74 -28.5t-65.5 28.5t-18.5 69.5z" />
<glyph unicode="&#x2da;" horiz-adv-x="491" d="M242 1329q6 39 25.5 75t49 62.5t66.5 42t78 15.5q39 0 71.5 -16.5t54 -44t32 -62.5t4.5 -74q-6 -37 -25.5 -71.5t-49.5 -61.5t-67 -43t-75 -16q-41 0 -73 15t-54.5 42t-32.5 62.5t-4 74.5zM315 1327q-8 -51 21 -85t78 -34q51 0 89 35t46 86q6 51 -21.5 86t-78.5 35 t-89 -36t-45 -87z" />
<glyph unicode="&#x2db;" horiz-adv-x="491" d="M-16 -274q6 43 28.5 85t55 79.5t71.5 71.5t74 58h92q-25 -16 -56.5 -45.5t-61 -65.5t-52 -77t-29.5 -80q-12 -96 76 -96q43 0 73 15.5t46 31.5l29 -78q-37 -29 -82 -48t-103 -19q-82 0 -128 45t-33 123z" />
<glyph unicode="&#x2dc;" horiz-adv-x="491" d="M92 1190q10 35 28.5 72.5t47.5 66.5q29 31 62.5 50.5t74.5 19.5t78 -16.5t70 -34.5q31 -16 62.5 -32t59.5 -16q45 0 72 31t39 68h74q-10 -37 -26.5 -75t-42 -67.5t-58.5 -48t-74 -18.5t-75.5 16.5t-69.5 32.5t-67 32.5t-62 16.5q-47 0 -75 -30.5t-44 -67.5h-74z" />
<glyph unicode="&#x2dd;" horiz-adv-x="491" d="M139 1155l254 295h164l-315 -295h-103zM438 1155l254 295h164l-315 -295h-103z" />
<glyph unicode="&#x384;" horiz-adv-x="454" d="M295 1167l113 283h139l-162 -283h-90z" />
<glyph unicode="&#x385;" horiz-adv-x="491" d="M109 1335q6 41 38.5 70t73.5 29t65.5 -29t18.5 -70t-39 -69.5t-73 -28.5q-41 0 -65.5 28.5t-18.5 69.5zM305 1167l113 283h139l-162 -283h-90zM561 1335q6 41 39 70t74 29t65.5 -29t18.5 -70t-39 -69.5t-74 -28.5t-65.5 28.5t-18.5 69.5z" />
<glyph unicode="&#x386;" horiz-adv-x="1402" d="M10 0l836 1450h139l408 -1450h-152l-104 385h-768l-217 -385h-142zM438 508h666l-215 795zM438 1167l111 283h145q-43 -76 -81 -141.5t-81 -141.5h-94z" />
<glyph unicode="&#x388;" horiz-adv-x="1214" d="M74 1167l110 283h146l-160 -283h-96zM199 0l202 1450h887l-16 -123h-752l-74 -516h705l-16 -123h-705l-80 -565h785l-17 -123h-919z" />
<glyph unicode="&#x389;" horiz-adv-x="1478" d="M74 1167l110 283h146l-160 -283h-96zM199 0l202 1450h136l-91 -639h811l91 639h135l-203 -1450h-135l96 688h-811l-96 -688h-135z" />
<glyph unicode="&#x38a;" horiz-adv-x="532" d="M74 1167l110 283h146l-160 -283h-96zM199 0l202 1450h136l-203 -1450h-135z" />
<glyph unicode="&#x38c;" horiz-adv-x="1708" d="M199 1167l110 283h146l-160 -283h-96zM205 725q25 166 99.5 305t188 240.5t259 159t311.5 57.5t296 -57.5t214 -159t120 -240.5t11 -305q-23 -166 -97.5 -306t-188 -241.5t-259 -158t-311.5 -56.5t-296 56.5t-215 158t-120 241.5t-12 306zM340 725q-18 -135 8.5 -252 t94 -203t174 -135t247.5 -49t262 49t213.5 135t151.5 203t78 252q18 135 -7.5 252t-93 203t-175 135t-249.5 49q-141 0 -261.5 -49t-213 -135t-152 -203t-77.5 -252z" />
<glyph unicode="&#x38e;" horiz-adv-x="1329" d="M74 1167l110 283h146l-160 -283h-96zM344 1450h162l342 -688l545 688h151l-649 -825l-86 -625h-135l86 625z" />
<glyph unicode="&#x38f;" horiz-adv-x="1681" d="M123 0l16 123h338q-57 57 -111.5 124.5t-93.5 149.5t-56 180.5t-1 219.5q20 143 95 268t187.5 219t255 148.5t298.5 54.5t281.5 -54.5t211.5 -148.5t125 -219t19 -268q-16 -119 -61.5 -217.5t-107 -181.5t-134 -150.5t-146.5 -124.5h336l-16 -123h-523l17 129 q94 59 178 132t149.5 157t108.5 179t57 200q16 119 -15.5 222t-100 180t-171 122t-227.5 45t-239.5 -45t-205.5 -122t-152.5 -180.5t-78.5 -221.5q-14 -104 2.5 -199.5t57.5 -180.5t103.5 -157t142.5 -131l-17 -129h-522zM199 1167l110 283h146l-160 -283h-96z" />
<glyph unicode="&#x390;" horiz-adv-x="450" d="M90 1335q6 41 39 70t74 29t65.5 -29t18.5 -70t-39 -69.5t-74 -28.5t-65.5 28.5t-18.5 69.5zM186 174l109 772h123l-96 -684q-10 -86 1 -128t68 -46l-18 -113q-92 -2 -146.5 49.5t-40.5 149.5zM287 1167l112 283h140l-162 -283h-90zM543 1335q6 41 38.5 70t73.5 29 t65.5 -29t18.5 -70t-38.5 -69.5t-73.5 -28.5t-65.5 28.5t-18.5 69.5z" />
<glyph unicode="&#x391;" horiz-adv-x="1402" d="M10 0l836 1450h139l408 -1450h-152l-104 385h-768l-217 -385h-142zM438 508h666l-215 795z" />
<glyph unicode="&#x392;" horiz-adv-x="1290" d="M199 0l202 1450h418q82 0 164 -13.5t143.5 -55.5t92 -116.5t14.5 -197.5q-16 -111 -93 -192.5t-210 -108.5v-4q70 -6 126 -34t92 -74t50 -109.5t4 -138.5q-18 -125 -76.5 -204t-137.5 -124t-166 -61.5t-160 -16.5h-463zM350 123h309q119 0 196 28.5t122 71.5t64.5 91 t25.5 87q12 80 -10.5 137.5t-66.5 93.5t-104.5 52t-123.5 16h-330zM449 823h280q104 0 174 25.5t111 62.5t60.5 79t23.5 77q10 76 -7.5 126t-56.5 80t-95 42t-120 12h-299z" />
<glyph unicode="&#x393;" horiz-adv-x="942" d="M199 0l202 1450h719l-16 -123h-584l-186 -1327h-135z" />
<glyph unicode="&#x394;" horiz-adv-x="1343" d="M25 0l16 123l766 1327h139l389 -1327l-16 -123h-1294zM182 121l1002 2l-334 1180z" />
<glyph unicode="&#x395;" horiz-adv-x="1214" d="M199 0l202 1450h887l-16 -123h-752l-74 -516h705l-16 -123h-705l-80 -565h785l-17 -123h-919z" />
<glyph unicode="&#x396;" d="M47 0l14 106l1020 1221h-835l16 123h1010l-17 -111l-1024 -1216h877l-16 -123h-1045z" />
<glyph unicode="&#x397;" horiz-adv-x="1478" d="M199 0l202 1450h136l-91 -639h811l91 639h135l-203 -1450h-135l96 688h-811l-96 -688h-135z" />
<glyph unicode="&#x398;" horiz-adv-x="1708" d="M205 725q25 166 99.5 305t188 240.5t259 159t311.5 57.5t296 -57.5t214 -159t120 -240.5t11 -305q-23 -166 -97.5 -306t-188 -241.5t-259 -158t-311.5 -56.5t-296 56.5t-215 158t-120 241.5t-12 306zM340 725q-18 -135 8.5 -252t94 -203t174 -135t247.5 -49t262 49 t213.5 135t151.5 203t78 252q18 135 -7.5 252t-93 203t-175 135t-249.5 49q-141 0 -261.5 -49t-213 -135t-152 -203t-77.5 -252zM524 688l17 123h845l-16 -123h-846z" />
<glyph unicode="&#x399;" horiz-adv-x="532" d="M199 0l202 1450h136l-203 -1450h-135z" />
<glyph unicode="&#x39a;" horiz-adv-x="1251" d="M199 0l202 1450h136l-91 -639h13l792 639h187l-828 -664l666 -786h-195l-630 750h-13l-104 -750h-135z" />
<glyph unicode="&#x39b;" horiz-adv-x="1402" d="M10 0l836 1450h139l408 -1450h-152l-352 1303l-737 -1303h-142z" />
<glyph unicode="&#x39c;" horiz-adv-x="1820" d="M184 0l203 1450h203l358 -1217l699 1217h192l-203 -1450h-135l178 1278h-4l-731 -1278h-59l-383 1278h-4l-179 -1278h-135z" />
<glyph unicode="&#x39d;" horiz-adv-x="1593" d="M199 0l202 1450h174l705 -1270h4l178 1270h135l-202 -1450h-174l-705 1270h-4l-178 -1270h-135z" />
<glyph unicode="&#x39e;" horiz-adv-x="1234" d="M96 0l17 123h1042l-16 -123h-1043zM272 688l17 123h885l-17 -123h-885zM311 1327l17 123h985l-17 -123h-985z" />
<glyph unicode="&#x39f;" horiz-adv-x="1708" d="M205 725q25 166 99.5 305t188 240.5t259 159t311.5 57.5t296 -57.5t214 -159t120 -240.5t11 -305q-23 -166 -97.5 -306t-188 -241.5t-259 -158t-311.5 -56.5t-296 56.5t-215 158t-120 241.5t-12 306zM340 725q-18 -135 8.5 -252t94 -203t174 -135t247.5 -49t262 49 t213.5 135t151.5 203t78 252q18 135 -7.5 252t-93 203t-175 135t-249.5 49q-141 0 -261.5 -49t-213 -135t-152 -203t-77.5 -252z" />
<glyph unicode="&#x3a0;" horiz-adv-x="1478" d="M199 0l202 1450h1082l-203 -1450h-135l186 1327h-811l-186 -1327h-135z" />
<glyph unicode="&#x3a1;" horiz-adv-x="1175" d="M199 0l202 1450h418q76 0 157 -17.5t143.5 -60.5t96 -117.5t17.5 -187.5q-14 -98 -60.5 -170t-113 -118t-148.5 -68.5t-168 -22.5h-313l-96 -688h-135zM446 811h308q57 0 114.5 13.5t104.5 43t80.5 78.5t44.5 121q10 70 -10.5 119t-60.5 80.5t-95 46t-113 14.5h-299z" />
<glyph unicode="&#x3a3;" horiz-adv-x="1177" d="M96 0l17 125l639 623l-441 579l17 123h929l-16 -123h-754l439 -582l-639 -622h811l-17 -123h-985z" />
<glyph unicode="&#x3a4;" horiz-adv-x="1175" d="M211 1327l16 123h1127l-17 -123h-495l-187 -1327h-135l187 1327h-496z" />
<glyph unicode="&#x3a5;" horiz-adv-x="1175" d="M190 1450h162l342 -688l545 688h152l-650 -825l-86 -625h-135l86 625z" />
<glyph unicode="&#x3a6;" horiz-adv-x="1773" d="M205 725q20 150 92 270.5t179.5 205.5t245.5 133t294 55l14 108h133l-14 -108q154 -6 278.5 -54.5t207.5 -133.5t119 -206t15 -270q-20 -150 -90.5 -270.5t-177 -205.5t-245 -133t-293.5 -55l-17 -108h-133l16 108q-154 6 -278.5 54.5t-208.5 133.5t-121 205.5t-16 270.5 zM342 725q-16 -117 10.5 -214t91 -168t166 -112t236.5 -47l151 1082q-135 -6 -248.5 -47t-197.5 -112t-138.5 -168t-70.5 -214zM979 184q135 6 248.5 47t198.5 112t138.5 168t69.5 214t-9.5 214t-91 168t-166.5 112t-237 47z" />
<glyph unicode="&#x3a7;" horiz-adv-x="1251" d="M2 0l651 762l-399 688h160l336 -590l493 590h162l-588 -688l432 -762h-168l-368 655l-549 -655h-162z" />
<glyph unicode="&#x3a8;" horiz-adv-x="1560" d="M266 885l80 565h135l-75 -535q-16 -115 1 -194.5t66 -130.5t126 -76t181 -31l135 967h134l-136 -969q94 6 178.5 34t151 84t110.5 144t62 218l70 489h135l-72 -512q-20 -139 -74.5 -243.5t-138.5 -176.5t-194.5 -110.5t-245.5 -45.5l-49 -362h-133l49 362q-115 6 -214 35 t-168 90.5t-101.5 158.5t-12.5 239z" />
<glyph unicode="&#x3a9;" horiz-adv-x="1681" d="M123 0l16 123h338q-57 57 -111.5 124.5t-93.5 149.5t-56 180.5t-1 219.5q20 143 95 268t187.5 219t255 148.5t298.5 54.5t281.5 -54.5t211.5 -148.5t125 -219t19 -268q-16 -119 -61.5 -217.5t-107 -181.5t-134 -150.5t-146.5 -124.5h336l-16 -123h-523l17 129 q94 59 178 132t149.5 157t108.5 179t57 200q16 119 -15.5 222t-100 180t-171 122t-227.5 45t-239.5 -45t-205.5 -122t-152.5 -180.5t-78.5 -221.5q-14 -104 2.5 -199.5t57.5 -180.5t103.5 -157t142.5 -131l-17 -129h-522z" />
<glyph unicode="&#x3aa;" horiz-adv-x="532" d="M199 0l202 1450h136l-203 -1450h-135zM215 1720q4 41 37 70t74 29t65.5 -29t20.5 -70q-6 -41 -39 -69.5t-74 -28.5t-65.5 28.5t-18.5 69.5zM604 1720q4 41 37 70t74 29t65.5 -29t20.5 -70q-6 -41 -39 -69.5t-74 -28.5t-65.5 28.5t-18.5 69.5z" />
<glyph unicode="&#x3ab;" horiz-adv-x="1175" d="M190 1450h162l342 -688l545 688h152l-650 -825l-86 -625h-135l86 625zM537 1720q4 41 36.5 70t73.5 29t65.5 -29t20.5 -70q-6 -41 -38.5 -69.5t-73.5 -28.5t-65.5 28.5t-18.5 69.5zM926 1720q4 41 36.5 70t73.5 29t65.5 -29t20.5 -70q-6 -41 -38.5 -69.5t-73.5 -28.5 t-65.5 28.5t-18.5 69.5z" />
<glyph unicode="&#x3ac;" horiz-adv-x="1275" d="M176 473q14 109 64.5 200t125 157.5t172 103.5t205.5 37q53 0 106.5 -11.5t101.5 -35t85 -59.5t60 -85h4l24 168h123l-100 -686q-10 -86 1 -128t69 -46l-17 -113q-88 -2 -140 45.5t-46 145.5q-35 -49 -84 -85t-103.5 -59.5t-112 -35t-110.5 -11.5q-109 0 -195.5 37 t-143 103.5t-81 158t-8.5 199.5zM299 473q-12 -80 4 -150.5t57 -123t106.5 -83t151.5 -30.5q84 0 161 30.5t137.5 83t100.5 123t52 150.5t-8.5 150.5t-66.5 123t-113.5 83t-151.5 30.5q-86 0 -159.5 -30.5t-130 -83t-92.5 -123t-48 -150.5zM682 1167l113 283h139l-162 -283 h-90z" />
<glyph unicode="&#x3ad;" horiz-adv-x="858" d="M129 268q12 94 72.5 147.5t128.5 71.5q-76 41 -101.5 97.5t-17.5 107.5q8 68 43 120t85 87t111.5 53.5t124.5 18.5q113 0 193 -43t115 -135l-121 -66q-27 66 -73 99.5t-130 33.5q-35 0 -71.5 -8t-68.5 -27.5t-56.5 -51.5t-30.5 -77q-10 -86 44 -120.5t142 -34.5h115 l-17 -111h-114q-16 0 -53 -3t-78 -19.5t-75 -49t-42 -92.5q-10 -74 41 -127t149 -53q84 0 165 41t134 113l97 -72q-82 -106 -183.5 -149.5t-224.5 -43.5q-156 0 -239.5 76t-63.5 217zM514 1167l113 283h139l-162 -283h-90z" />
<glyph unicode="&#x3ae;" d="M164 0l94 680q4 27 8 64.5t7 76.5t6.5 73t5.5 52h123q-4 -53 -10.5 -102t-4.5 -64h6q25 39 61 74t81 60.5t98 41t111 15.5q111 0 176 -35t97 -91.5t36 -130t-6 -151.5l-146 -1030h-123l146 1024q8 57 6 111.5t-22.5 97.5t-62.5 68.5t-116 25.5q-68 0 -131 -23.5 t-114.5 -71.5t-87 -121t-50.5 -171l-65 -473h-123zM647 1167l113 283h139l-162 -283h-90z" />
<glyph unicode="&#x3af;" horiz-adv-x="450" d="M186 174l109 772h123l-96 -684q-10 -86 1 -128t68 -46l-18 -113q-92 -2 -146.5 49.5t-40.5 149.5zM334 1167l112 283h140l-162 -283h-90z" />
<glyph unicode="&#x3b0;" horiz-adv-x="1116" d="M207 381l78 565h123l-74 -534q-10 -78 4 -138.5t47 -101.5t81 -62.5t103 -21.5t109.5 21.5t99.5 62.5t77 101.5t42 138.5l74 534h123l-78 -565q-14 -98 -57.5 -173t-105.5 -127t-140 -79t-160 -27t-151.5 27t-117.5 79t-69.5 127t-7.5 173zM420 1335q6 41 39 70t73 29 q41 0 66 -29t18 -70q-6 -41 -38.5 -69.5t-73.5 -28.5t-65.5 28.5t-18.5 69.5zM616 1167l113 283h139l-161 -283h-91zM872 1335q6 41 39 70t74 29t65.5 -29t18.5 -70t-39 -69.5t-74 -28.5t-65.5 28.5t-18.5 69.5z" />
<glyph unicode="&#x3b1;" horiz-adv-x="1275" d="M176 473q14 109 64.5 200t125 157.5t172 103.5t205.5 37q53 0 106.5 -11.5t101.5 -35t85 -59.5t60 -85h4l24 168h123l-100 -686q-10 -86 1 -128t69 -46l-17 -113q-88 -2 -140 45.5t-46 145.5q-35 -49 -84 -85t-103.5 -59.5t-112 -35t-110.5 -11.5q-109 0 -195.5 37 t-143 103.5t-81 158t-8.5 199.5zM299 473q-12 -80 4 -150.5t57 -123t106.5 -83t151.5 -30.5q84 0 161 30.5t137.5 83t100.5 123t52 150.5t-8.5 150.5t-66.5 123t-113.5 83t-151.5 30.5q-86 0 -159.5 -30.5t-130 -83t-92.5 -123t-48 -150.5z" />
<glyph unicode="&#x3b2;" horiz-adv-x="1157" d="M96 -469l191 1356q23 158 62.5 268.5t100 181t142.5 102t188 31.5q76 0 136.5 -25.5t100.5 -71.5t56.5 -110.5t3.5 -144.5q-14 -102 -72.5 -195.5t-168.5 -144.5q66 -16 120 -48t89.5 -81t51 -112.5t5.5 -141.5q-18 -102 -62.5 -180t-106 -130t-138 -80t-158.5 -28 q-90 0 -182.5 44.5t-147.5 132.5l-88 -623h-123zM332 330q33 -104 118 -172t189 -68q92 0 154.5 34t101.5 82t57.5 100t24.5 89q10 78 -11.5 136.5t-68.5 97.5t-113.5 58.5t-146.5 19.5h-45l16 112h49q51 0 102.5 24.5t92.5 63.5t68.5 89.5t33.5 99.5q16 119 -26.5 190.5 t-163.5 71.5q-72 0 -129 -24.5t-100 -78t-74 -140.5t-47 -210z" />
<glyph unicode="&#x3b3;" horiz-adv-x="948" d="M162 946h139l205 -792l418 792h125l-504 -930l-70 -483h-123l70 483z" />
<glyph unicode="&#x3b4;" horiz-adv-x="1210" d="M174 457q12 88 54 171t106.5 149.5t149.5 109.5t186 55q-10 8 -24.5 18.5t-24.5 16.5q-35 25 -67 47.5t-55.5 49t-33.5 62t-2 89.5q16 123 118.5 184t258.5 61q98 0 181 -30.5t138 -77.5l-78 -90q-47 43 -113.5 64.5t-142.5 21.5q-96 0 -162.5 -30t-76.5 -105 q-2 -20 2 -37t19.5 -36.5t45 -44t80.5 -56.5q47 -31 97.5 -64t97.5 -63q33 -20 80 -54t87 -88.5t61.5 -133.5t6.5 -187q-14 -100 -63 -188.5t-126 -153t-175.5 -102.5t-208.5 -38q-100 0 -182 38t-139.5 102.5t-83 152t-11.5 187.5zM299 467q-12 -80 6.5 -148.5t61.5 -118.5 t105.5 -80t139.5 -30q82 0 155 30t130 79t94 115.5t47 140.5q14 102 -22.5 190t-97.5 131l-121 82q-104 -8 -191.5 -43t-152 -88t-104.5 -120.5t-50 -139.5z" />
<glyph unicode="&#x3b5;" horiz-adv-x="858" d="M129 268q12 94 72.5 147.5t128.5 71.5q-76 41 -101.5 97.5t-17.5 107.5q8 68 43 120t85 87t111.5 53.5t124.5 18.5q113 0 193 -43t115 -135l-121 -66q-27 66 -73 99.5t-130 33.5q-35 0 -71.5 -8t-68.5 -27.5t-56.5 -51.5t-30.5 -77q-10 -86 44 -120.5t142 -34.5h115 l-17 -111h-114q-16 0 -53 -3t-78 -19.5t-75 -49t-42 -92.5q-10 -74 41 -127t149 -53q84 0 165 41t134 113l97 -72q-82 -106 -183.5 -149.5t-224.5 -43.5q-156 0 -239.5 76t-63.5 217z" />
<glyph unicode="&#x3b6;" horiz-adv-x="872" d="M180 504q16 119 77.5 238.5t151 230t199 205t221.5 161.5h-395l17 111h561l-17 -111q-291 -174 -474 -387t-218 -452q-12 -88 11.5 -163t83 -129t153.5 -85t223 -31q23 0 39 -14.5t12 -36.5q-10 -72 -49 -162t-92 -155l-94 43q31 49 58.5 104t43.5 109h4 q-303 39 -424.5 171t-91.5 353z" />
<glyph unicode="&#x3b7;" d="M164 0l94 680q4 27 8 64.5t7 76.5t6.5 73t5.5 52h123q-4 -53 -10.5 -102t-4.5 -64h6q25 39 61 74t81 60.5t98 41t111 15.5q111 0 176 -35t97 -91.5t36 -130t-6 -151.5l-146 -1030h-123l146 1024q8 57 6 111.5t-22.5 97.5t-62.5 68.5t-116 25.5q-68 0 -131 -23.5 t-114.5 -71.5t-87 -121t-50.5 -171l-65 -473h-123z" />
<glyph unicode="&#x3b8;" horiz-adv-x="1157" d="M225 735q23 156 71 291t119.5 235.5t167 157t210.5 56.5q119 0 196.5 -53.5t117.5 -149.5t46.5 -233.5t-16.5 -303.5q-25 -174 -71 -314t-115.5 -239.5t-164 -153t-213.5 -53.5q-217 0 -309 188.5t-39 571.5zM331 431q9 -114 43 -190.5t90 -116.5t130 -40q82 0 149.5 44 t118.5 124t87 191.5t57 248.5h-664q-20 -147 -11 -261zM358 803h662q14 117 9 218t-35.5 178t-86 121t-141.5 44q-76 0 -142.5 -46t-119.5 -123t-91 -178.5t-55 -213.5z" />
<glyph unicode="&#x3b9;" horiz-adv-x="450" d="M186 174l109 772h123l-96 -684q-10 -86 1 -128t68 -46l-18 -113q-92 -2 -146.5 49.5t-40.5 149.5z" />
<glyph unicode="&#x3ba;" horiz-adv-x="958" d="M164 0l131 946h123l-60 -430l523 430h163l-530 -432l451 -514h-168l-441 504l-69 -504h-123z" />
<glyph unicode="&#x3bb;" horiz-adv-x="913" d="M12 0l516 946q-29 127 -64.5 251t-64.5 253h131l371 -1450h-137l-197 801q-104 -199 -212.5 -400.5t-211.5 -400.5h-131z" />
<glyph unicode="&#x3bc;" d="M96 -467l199 1413h123l-78 -557q-10 -70 -8 -125t22.5 -95t63.5 -61.5t117 -21.5q68 0 131 23.5t114 71.5t87 121t51 171l65 473h123l-94 -680q-4 -27 -8.5 -64.5t-8.5 -76.5t-8 -73t-6 -52h-123q4 53 12.5 102.5t6.5 63.5q-25 -43 -66 -78t-90 -60.5t-104.5 -39 t-108.5 -13.5q-63 0 -118.5 19.5t-96.5 62.5l-74 -524h-123z" />
<glyph unicode="&#x3bd;" horiz-adv-x="948" d="M162 946h139l203 -813l420 813h125l-504 -946h-127z" />
<glyph unicode="&#x3be;" horiz-adv-x="921" d="M168 420q23 162 123 263t258 155q-131 47 -172 122.5t-25 176.5q8 61 41 120.5t89.5 107.5t137 76.5t187.5 28.5q139 0 223 -43l-55 -106q-41 16 -76 26.5t-94 10.5q-147 0 -231.5 -63.5t-96.5 -155.5q-8 -59 17.5 -106.5t72.5 -80t109.5 -51t128.5 -18.5h39l-17 -113 h-49q-115 0 -202 -27.5t-146 -73.5t-93 -106.5t-44 -128.5q-14 -109 37 -175t134 -103t181 -51.5t180 -14.5q23 0 38 -13t11 -36q-10 -74 -50 -162t-93 -153l-94 41q33 49 61.5 104t42.5 109q-104 2 -211.5 26.5t-192.5 75.5t-134 134t-35 204z" />
<glyph unicode="&#x3bf;" horiz-adv-x="1216" d="M176 473q14 109 64.5 200t125 157.5t172 103.5t205.5 37q109 0 195 -37t143.5 -103.5t81 -157.5t8.5 -200q-16 -109 -65 -200t-125 -157.5t-172 -103.5t-205 -37t-195.5 37t-143 103.5t-81 157.5t-8.5 200zM299 473q-12 -80 4 -150.5t57 -123t106.5 -83t151.5 -30.5 t160 30.5t130.5 83t92 123t48.5 150.5q12 80 -4.5 150.5t-57.5 123t-106.5 83t-151.5 30.5t-159.5 -30.5t-130 -83t-92.5 -123t-48 -150.5z" />
<glyph unicode="&#x3c0;" d="M127 0q37 80 74 187.5t70.5 222t60 225t43.5 201.5q-43 -2 -74 -4.5t-55.5 -5.5t-47 -8t-51.5 -11l-8 106q45 14 117 23.5t164 9.5h780l-14 -110h-164l-117 -836h-123l117 836h-395q-18 -90 -48 -206t-65 -232.5t-71.5 -222t-69.5 -175.5h-123z" />
<glyph unicode="&#x3c1;" horiz-adv-x="1261" d="M86 -467l131 928q16 123 69.5 217t130.5 159.5t173 99.5t201 34q104 0 190 -37t143.5 -101.5t83 -154t11.5 -193.5q-18 -127 -72.5 -222t-132.5 -159.5t-173.5 -96.5t-195.5 -32q-129 0 -218 55.5t-128 133.5l-90 -631h-123zM344 473q-12 -82 4.5 -152.5t58.5 -123 t106.5 -82t150.5 -29.5t159.5 29.5t130 82t92.5 123t48 152.5t-4.5 152.5t-58.5 123t-106.5 82t-150.5 29.5t-158.5 -29.5t-130 -82t-93.5 -123t-48 -152.5z" />
<glyph unicode="&#x3c2;" horiz-adv-x="923" d="M176 477q14 104 64.5 194.5t124 157t166 103.5t192.5 37q188 0 305 -135l-98 -86q-45 51 -100.5 80.5t-122.5 29.5q-78 0 -146.5 -29.5t-122 -80t-89.5 -119t-46 -148.5q-12 -78 -2 -138t34.5 -105t62.5 -76t83 -49q47 -20 97.5 -25.5t103.5 -5.5q16 0 56 3t57 3 q23 0 38 -12.5t11 -34.5q-10 -78 -50 -164t-94 -151l-90 38q31 53 58.5 106.5t44.5 109.5q-33 -4 -52.5 -5.5t-46.5 -1.5q-115 0 -202.5 38t-145 105.5t-82 160t-8.5 200.5z" />
<glyph unicode="&#x3c3;" horiz-adv-x="1216" d="M176 473q18 135 80.5 229.5t144.5 153.5t173.5 87t170.5 28h580l-14 -111h-275q82 -68 118 -171t20 -214q-16 -115 -68.5 -207t-129.5 -156.5t-173 -100.5t-201 -36q-127 0 -213 45.5t-138 117t-69.5 160.5t-5.5 175zM303 473q-12 -80 3.5 -150.5t55 -123t104 -83 t150.5 -30.5q90 0 165 30.5t130.5 83t90 123t47.5 150.5q12 80 -4.5 150.5t-56.5 123t-105.5 83t-151.5 30.5t-159.5 -30.5t-129 -83t-91.5 -123t-48 -150.5z" />
<glyph unicode="&#x3c4;" horiz-adv-x="860" d="M139 913q45 14 117 23.5t164 9.5h547l-15 -110h-331l-82 -574q-10 -86 1 -128t68 -46l-18 -113q-92 -2 -146.5 49.5t-40.5 149.5l95 662h-123q-76 0 -123 -8.5t-105 -20.5z" />
<glyph unicode="&#x3c5;" horiz-adv-x="1116" d="M207 381l78 565h123l-74 -534q-10 -78 4 -138.5t47 -101.5t81 -62.5t103 -21.5t109.5 21.5t99.5 62.5t77 101.5t42 138.5l74 534h123l-78 -565q-14 -98 -57.5 -173t-105.5 -127t-140 -79t-160 -27t-151.5 27t-117.5 79t-69.5 127t-7.5 173z" />
<glyph unicode="&#x3c6;" horiz-adv-x="1380" d="M176 469q12 84 42 161t84 140.5t135 110.5t192 71q4 -29 7 -53.5t7 -52.5q-160 -37 -240.5 -139.5t-99.5 -237.5q-12 -78 4.5 -145.5t59.5 -118.5t111.5 -82t162.5 -35l123 881h57q152 0 256.5 -36t167 -102.5t84 -157.5t6.5 -202q-14 -104 -65 -194.5t-129 -156 t-178.5 -104.5t-214.5 -41l-64 -444h-123l64 442q-123 4 -214.5 46t-147.5 110t-78.5 156t-8.5 184zM764 88q90 2 167 32t134 81t94 120.5t49 149.5q27 186 -64 283.5t-274 97.5z" />
<glyph unicode="&#x3c7;" horiz-adv-x="892" d="M-94 -467l504 754l-254 659h147l209 -559l352 559h135l-432 -659l297 -754h-149l-250 647l-420 -647h-139z" />
<glyph unicode="&#x3c8;" horiz-adv-x="1400" d="M217 465l68 481h123l-64 -457q-16 -117 5.5 -191.5t66.5 -118.5t107.5 -62.5t127.5 -22.5l162 1157h123l-162 -1157q68 4 135.5 22.5t125 62.5t99.5 119t58 191l63 457h123l-67 -481q-18 -135 -71.5 -225t-129.5 -146.5t-167 -82t-185 -27.5l-64 -451h-123l64 451 q-92 2 -176 27.5t-144.5 82t-88 146.5t-9.5 225z" />
<glyph unicode="&#x3c9;" horiz-adv-x="1476" d="M176 477q10 72 33.5 141.5t56.5 131t70 111.5t72 85h133q-84 -92 -151.5 -212t-86.5 -253q-14 -102 -2 -176t41 -122t70 -71.5t82 -23.5q43 0 81.5 22.5t69.5 60.5t52.5 87t27.5 102l49 349h125l-49 -349q-6 -53 1 -102t28.5 -87t53.5 -60.5t75 -22.5q41 0 88 23.5 t89 71.5t75.5 122t48.5 176q18 133 -17 253t-94 212h133q27 -35 49.5 -85t37 -111.5t19.5 -131t-5 -141.5q-18 -135 -64.5 -231t-105 -155.5t-124 -87.5t-124.5 -28q-82 0 -150.5 45.5t-103.5 139.5q-59 -94 -141 -139.5t-164 -45.5q-59 0 -117.5 28t-100.5 87.5 t-60.5 155.5t-0.5 231z" />
<glyph unicode="&#x3ca;" horiz-adv-x="450" d="M121 1335q6 41 39 70t73 29q41 0 66 -29t18 -70q-6 -41 -38.5 -69.5t-73.5 -28.5t-65.5 28.5t-18.5 69.5zM186 174l109 772h123l-96 -684q-10 -86 1 -128t68 -46l-18 -113q-92 -2 -146.5 49.5t-40.5 149.5zM510 1335q6 41 39 70t74 29t65.5 -29t18.5 -70t-39 -69.5 t-74 -28.5t-65.5 28.5t-18.5 69.5z" />
<glyph unicode="&#x3cb;" horiz-adv-x="1116" d="M207 381l78 565h123l-74 -534q-10 -78 4 -138.5t47 -101.5t81 -62.5t103 -21.5t109.5 21.5t99.5 62.5t77 101.5t42 138.5l74 534h123l-78 -565q-14 -98 -57.5 -173t-105.5 -127t-140 -79t-160 -27t-151.5 27t-117.5 79t-69.5 127t-7.5 173zM446 1335q6 41 39 70t74 29 t65.5 -29t18.5 -70t-39 -69.5t-74 -28.5t-65.5 28.5t-18.5 69.5zM836 1335q6 41 38.5 70t73.5 29t65.5 -29t18.5 -70t-38.5 -69.5t-73.5 -28.5t-65.5 28.5t-18.5 69.5z" />
<glyph unicode="&#x3cc;" horiz-adv-x="1216" d="M176 473q14 109 64.5 200t125 157.5t172 103.5t205.5 37q109 0 195 -37t143.5 -103.5t81 -157.5t8.5 -200q-16 -109 -65 -200t-125 -157.5t-172 -103.5t-205 -37t-195.5 37t-143 103.5t-81 157.5t-8.5 200zM299 473q-12 -80 4 -150.5t57 -123t106.5 -83t151.5 -30.5 t160 30.5t130.5 83t92 123t48.5 150.5q12 80 -4.5 150.5t-57.5 123t-106.5 83t-151.5 30.5t-159.5 -30.5t-130 -83t-92.5 -123t-48 -150.5zM682 1167l113 283h139l-162 -283h-90z" />
<glyph unicode="&#x3cd;" horiz-adv-x="1116" d="M207 381l78 565h123l-74 -534q-10 -78 4 -138.5t47 -101.5t81 -62.5t103 -21.5t109.5 21.5t99.5 62.5t77 101.5t42 138.5l74 534h123l-78 -565q-14 -98 -57.5 -173t-105.5 -127t-140 -79t-160 -27t-151.5 27t-117.5 79t-69.5 127t-7.5 173zM610 1167l113 283h139 l-162 -283h-90z" />
<glyph unicode="&#x3ce;" horiz-adv-x="1529" d="M176 477q10 72 33.5 141.5t56.5 131t70 111.5t72 85h133q-84 -92 -151.5 -212t-86.5 -253q-14 -102 -2 -176t41 -122t70 -71.5t82 -23.5q43 0 81.5 22.5t69.5 60.5t52.5 87t27.5 102l49 349h125l-49 -349q-6 -53 1 -102t28.5 -87t53.5 -60.5t75 -22.5q41 0 88 23.5 t89 71.5t75.5 122t48.5 176q18 133 -17 253t-94 212h133q27 -35 49.5 -85t37 -111.5t19.5 -131t-5 -141.5q-18 -135 -64.5 -231t-105 -155.5t-124 -87.5t-124.5 -28q-82 0 -150.5 45.5t-103.5 139.5q-59 -94 -141 -139.5t-164 -45.5q-59 0 -117.5 28t-100.5 87.5 t-60.5 155.5t-0.5 231zM831 1167l113 283h139l-161 -283h-91z" />
<glyph unicode="&#x401;" horiz-adv-x="1214" d="M199 0l202 1450h887l-16 -123h-752l-74 -516h705l-16 -123h-705l-80 -565h785l-17 -123h-919zM557 1720q4 41 37 70t74 29t65.5 -29t20.5 -70q-6 -41 -39 -69.5t-74 -28.5t-65.5 28.5t-18.5 69.5zM946 1720q4 41 37 70t74 29t65.5 -29t20.5 -70q-6 -41 -39 -69.5 t-74 -28.5t-65.5 28.5t-18.5 69.5z" />
<glyph unicode="&#x402;" horiz-adv-x="1380" d="M211 1329l16 121h953l-17 -121h-438l-70 -495q100 29 167 38t118 9q106 0 190 -31t139.5 -89.5t79 -141t9.5 -189.5q-16 -121 -64.5 -204t-120 -133t-165 -71.5t-201.5 -21.5l16 123h76q49 0 100.5 15.5t97.5 51t79.5 95t46.5 145.5q12 86 -6.5 148.5t-60.5 103.5 t-102.5 60.5t-131.5 19.5q-55 0 -122 -8.5t-163 -46.5l-98 -707h-136l187 1329h-379z" />
<glyph unicode="&#x403;" horiz-adv-x="952" d="M199 0l202 1450h729l-16 -121h-594l-186 -1329h-135zM623 1540l254 295h163l-315 -295h-102z" />
<glyph unicode="&#x404;" horiz-adv-x="1441" d="M205 725q25 166 99.5 305t188 240.5t259 159t311.5 57.5q147 0 268 -52.5t199 -174.5l-123 -93q-53 100 -153.5 148.5t-209.5 48.5q-131 0 -243.5 -42t-201.5 -115.5t-150.5 -175t-92.5 -220.5h813l-16 -123h-817q-12 -129 17.5 -238.5t97 -190.5t172 -127t241.5 -46 q55 0 115.5 13.5t122 41t119 69.5t104.5 101l98 -84q-123 -141 -269 -202.5t-306 -61.5q-166 0 -296 56.5t-215 158t-120 241.5t-12 306z" />
<glyph unicode="&#x405;" d="M133 182l141 86q41 -92 119 -137t187 -45q68 0 130 20.5t111 57.5t82 89t43 118q10 76 -14.5 125t-72.5 80.5t-112.5 54t-131 45t-130 51.5t-109.5 75t-68.5 115.5t-8.5 172.5q14 96 63.5 170.5t121 125t158.5 76t179 25.5q119 0 214 -42t155 -140l-129 -84 q-41 72 -104.5 107.5t-157.5 35.5q-66 0 -127.5 -17.5t-110.5 -51t-83 -85t-44 -120.5q-12 -82 13.5 -134.5t72.5 -86t111.5 -55t131 -43t130 -48.5t111 -71t70 -111.5t7.5 -169.5q-14 -98 -62 -174t-118 -128.5t-154.5 -79t-173.5 -26.5q-143 0 -257.5 50t-182.5 169z" />
<glyph unicode="&#x406;" horiz-adv-x="532" d="M199 0l202 1450h136l-203 -1450h-135z" />
<glyph unicode="&#x407;" horiz-adv-x="532" d="M199 0l202 1450h136l-203 -1450h-135zM215 1720q4 41 37 70t74 29t65.5 -29t20.5 -70q-6 -41 -39 -69.5t-74 -28.5t-65.5 28.5t-18.5 69.5zM604 1720q4 41 37 70t74 29t65.5 -29t20.5 -70q-6 -41 -39 -69.5t-74 -28.5t-65.5 28.5t-18.5 69.5z" />
<glyph unicode="&#x408;" horiz-adv-x="987" d="M49 260l139 25q20 -199 213 -199q72 0 125.5 23.5t90 64.5t58 97.5t32.5 121.5l149 1057h135l-143 -1024q-10 -66 -30.5 -145.5t-70 -150.5t-135.5 -119t-227 -48q-160 0 -242 81t-94 216z" />
<glyph unicode="&#x409;" horiz-adv-x="2121" d="M12 -2l19 125q35 -10 71 -10q82 0 134.5 33.5t86 92t53 137.5t32.5 169l127 905h895l-84 -594h274q70 0 161 -12.5t169 -55.5t124 -126.5t25 -229.5q-14 -104 -57 -177t-101.5 -121t-128 -74.5t-138 -40t-131 -16.5t-105.5 -3h-346l186 1329h-625l-110 -778 q-14 -109 -39 -210t-72 -180t-121.5 -127t-189.5 -48q-10 0 -41 1t-68 11zM1243 123h234q137 0 227 28.5t145.5 72.5t81 99.5t33.5 108.5q10 76 -7.5 129t-52 86t-80.5 51.5t-90 26.5t-80 9t-52 1h-273z" />
<glyph unicode="&#x40a;" horiz-adv-x="2174" d="M199 0l202 1450h136l-84 -594h811l84 594h137h-2l-84 -594h274q70 0 161 -12.5t169 -55.5t124 -126.5t25 -229.5q-14 -104 -57 -177t-101.5 -121t-128 -74.5t-138 -40t-131 -16.5t-105.5 -3h-346l102 733h-811l-102 -733h-135zM1296 123h234q137 0 227 28.5t145.5 72.5 t81 99.5t33.5 108.5q10 76 -7 129t-52 86t-81 51.5t-90 26.5t-80 9t-52 1h-273z" />
<glyph unicode="&#x40b;" horiz-adv-x="1458" d="M211 1329l16 121h953l-17 -121h-438l-74 -516q113 16 191 21.5t135 5.5q160 0 247 -35t123.5 -90.5t37.5 -123t-7 -130.5l-63 -461h-135l59 430q10 74 5 128t-37.5 90t-97.5 53.5t-171 17.5q-45 0 -79 -1t-67.5 -4t-70.5 -9.5t-86 -14.5l-96 -690h-133l186 1329h-381z " />
<glyph unicode="&#x40c;" horiz-adv-x="1251" d="M199 0l202 1450h136l-91 -639h13l792 639h187l-828 -664l666 -786h-195l-630 750h-13l-104 -750h-135zM774 1540l254 295h164l-315 -295h-103z" />
<glyph unicode="&#x40e;" horiz-adv-x="1099" d="M197 1450h153l281 -862l532 862h146l-899 -1450h-146l273 440zM510 1806h86q2 -82 52 -120.5t130 -38.5q92 0 147.5 34.5t88.5 124.5h86q-31 -123 -121 -190.5t-213 -67.5q-121 0 -193.5 67.5t-62.5 190.5z" />
<glyph unicode="&#x40f;" horiz-adv-x="1413" d="M199 0l202 1450h136l-187 -1327h746l186 1327h135l-203 -1450h-438l-41 -287h-133l41 287h-444z" />
<glyph unicode="&#x410;" horiz-adv-x="1402" d="M10 0l836 1450h139l408 -1450h-152l-104 385h-768l-217 -385h-142zM438 508h666l-215 795z" />
<glyph unicode="&#x411;" horiz-adv-x="1290" d="M199 0l202 1450h785l-17 -121h-649l-67 -473h274q47 0 104.5 -4t115 -19.5t110.5 -43t91 -74.5t55.5 -117t2.5 -166q-14 -104 -57 -177t-101.5 -121t-128 -74.5t-138 -40t-131 -16.5t-105.5 -3h-346zM350 121h234q137 0 227 28.5t145.5 73.5t81 100.5t33.5 108.5 q10 76 -7 129t-52 86t-81 51.5t-90 26.5t-80 9t-52 1h-273z" />
<glyph unicode="&#x412;" horiz-adv-x="1290" d="M199 0l202 1450h418q82 0 164 -13.5t143.5 -55.5t92 -116.5t14.5 -197.5q-16 -111 -93 -192.5t-210 -108.5v-4q70 -6 126 -34t92 -74t50 -109.5t4 -138.5q-18 -125 -76.5 -204t-137.5 -124t-166 -61.5t-160 -16.5h-463zM350 123h309q119 0 196 28.5t122 71.5t64.5 91 t25.5 87q12 80 -10.5 137.5t-66.5 93.5t-104.5 52t-123.5 16h-330zM449 823h280q104 0 174 25.5t111 62.5t60.5 79t23.5 77q10 76 -7.5 126t-56.5 80t-95 42t-120 12h-299z" />
<glyph unicode="&#x413;" horiz-adv-x="952" d="M199 0l202 1450h729l-16 -121h-594l-186 -1329h-135z" />
<glyph unicode="&#x414;" horiz-adv-x="1320" d="M-25 -287l56 410q70 -2 127 39t103 117.5t79 188.5t53 253l103 729h829l-186 -1327h178l-57 -410h-136l41 287h-1018l-41 -287h-131zM285 123h719l170 1206h-560l-86 -608q-29 -207 -81 -352.5t-162 -245.5z" />
<glyph unicode="&#x415;" horiz-adv-x="1214" d="M199 0l202 1450h887l-16 -123h-752l-74 -516h705l-16 -123h-705l-80 -565h785l-17 -123h-919z" />
<glyph unicode="&#x416;" horiz-adv-x="1726" d="M-25 0l762 788l-524 662h180l506 -637h8l90 637h138l-91 -637h9l686 637h176l-705 -662l541 -788h-184l-518 756h-13l-104 -756h-137l104 756h-12l-727 -756h-185z" />
<glyph unicode="&#x417;" horiz-adv-x="1161" d="M80 174q33 20 64.5 42t64.5 42q41 -80 123 -126t203 -50q90 0 163.5 25.5t127 68.5t86 100.5t42.5 120.5q18 131 -65.5 212t-282.5 81h-129l17 123h135q78 0 139 25.5t104 66.5t69 92.5t34 104.5q8 55 -3 102t-42 83t-81 56.5t-122 20.5q-96 0 -189.5 -39t-170.5 -100 q-23 25 -45.5 45t-45.5 43q123 100 237 137t239 37q102 0 175.5 -31t118 -83t61.5 -119.5t7 -139.5q-6 -49 -27.5 -101t-56.5 -99.5t-82 -86.5t-106 -63q76 -18 127 -56t80.5 -87.5t38 -107.5t-0.5 -120q-14 -98 -63 -178t-125 -136t-174 -86t-209 -30q-135 0 -249.5 51.5 t-186.5 159.5z" />
<glyph unicode="&#x418;" horiz-adv-x="1478" d="M199 0l202 1450h136l-177 -1255l947 1255h176l-203 -1450h-135l178 1272q-236 -313 -476.5 -635t-473.5 -637h-174z" />
<glyph unicode="&#x419;" horiz-adv-x="1478" d="M199 0l202 1450h136l-177 -1255l947 1255h176l-203 -1450h-135l178 1272q-236 -313 -476.5 -635t-473.5 -637h-174zM698 1806h86q2 -82 52.5 -120.5t130.5 -38.5q92 0 147 34.5t88 124.5h86q-31 -123 -121 -190.5t-213 -67.5q-121 0 -193.5 67.5t-62.5 190.5z" />
<glyph unicode="&#x41a;" horiz-adv-x="1251" d="M199 0l202 1450h136l-91 -639h13l792 639h187l-828 -664l666 -786h-195l-630 750h-13l-104 -750h-135z" />
<glyph unicode="&#x41b;" horiz-adv-x="1425" d="M12 -2l19 125q35 -10 71 -10q82 0 134.5 33.5t86 92t53 137.5t32.5 169l127 905h895l-203 -1450h-135l186 1329h-625l-110 -778q-14 -109 -39 -210t-72 -180t-121.5 -127t-189.5 -48q-10 0 -41 1t-68 11z" />
<glyph unicode="&#x41c;" horiz-adv-x="1820" d="M184 0l203 1450h203l358 -1217l699 1217h192l-203 -1450h-135l178 1278h-4l-731 -1278h-59l-383 1278h-4l-179 -1278h-135z" />
<glyph unicode="&#x41d;" horiz-adv-x="1478" d="M199 0l202 1450h136l-91 -639h811l91 639h135l-203 -1450h-135l96 688h-811l-96 -688h-135z" />
<glyph unicode="&#x41e;" horiz-adv-x="1708" d="M205 725q25 166 99.5 305t188 240.5t259 159t311.5 57.5t296 -57.5t214 -159t120 -240.5t11 -305q-23 -166 -97.5 -306t-188 -241.5t-259 -158t-311.5 -56.5t-296 56.5t-215 158t-120 241.5t-12 306zM340 725q-18 -135 8.5 -252t94 -203t174 -135t247.5 -49t262 49 t213.5 135t151.5 203t78 252q18 135 -7.5 252t-93 203t-175 135t-249.5 49q-141 0 -261.5 -49t-213 -135t-152 -203t-77.5 -252z" />
<glyph unicode="&#x41f;" horiz-adv-x="1400" d="M199 0l202 1450h1004l-203 -1450h-135l186 1329h-733l-186 -1329h-135z" />
<glyph unicode="&#x420;" horiz-adv-x="1175" d="M199 0l202 1450h418q76 0 157 -17.5t143.5 -60.5t96 -117.5t17.5 -187.5q-14 -98 -60.5 -170t-113 -118t-148.5 -68.5t-168 -22.5h-313l-96 -688h-135zM446 811h308q57 0 114.5 13.5t104.5 43t80.5 78.5t44.5 121q10 70 -10.5 119t-60.5 80.5t-95 46t-113 14.5h-299z" />
<glyph unicode="&#x421;" horiz-adv-x="1441" d="M205 725q25 166 99.5 305t188 240.5t259 159t311.5 57.5q147 0 268 -52.5t199 -174.5l-123 -93q-53 100 -153.5 148.5t-209.5 48.5q-141 0 -261.5 -49t-213 -135t-152 -203t-77.5 -252t8.5 -252t94 -203t174 -135t247.5 -49q55 0 115.5 13.5t122 41t119 69.5t104.5 101 l98 -84q-123 -141 -269 -202.5t-306 -61.5q-166 0 -296 56.5t-215 158t-120 241.5t-12 306z" />
<glyph unicode="&#x422;" horiz-adv-x="1175" d="M211 1327l16 123h1127l-17 -123h-495l-187 -1327h-135l187 1327h-496z" />
<glyph unicode="&#x423;" horiz-adv-x="1099" d="M197 1450h153l281 -862l532 862h146l-899 -1450h-146l273 440z" />
<glyph unicode="&#x424;" horiz-adv-x="1824" d="M205 727q18 137 89 252t180.5 198t252.5 130t307 47l19 123h133l-19 -123q164 0 294 -47t216 -130t124 -198t20 -252t-89 -252t-181.5 -197.5t-253 -130t-306.5 -47.5l-18 -131h-133l18 131q-164 0 -294 47.5t-216 130t-124 197.5t-19 252zM338 727q-14 -109 15.5 -201 t99 -159.5t176 -106.5t248.5 -39l141 1012q-141 0 -259 -39t-206 -106.5t-144.5 -160.5t-70.5 -200zM1010 221q141 0 258.5 39t206 106.5t143.5 159.5t70 201q14 106 -14.5 199.5t-98.5 161t-176.5 106.5t-247.5 39z" />
<glyph unicode="&#x425;" horiz-adv-x="1251" d="M2 0l651 762l-399 688h160l336 -590l493 590h162l-588 -688l432 -762h-168l-368 655l-549 -655h-162z" />
<glyph unicode="&#x426;" horiz-adv-x="1413" d="M199 0l202 1450h136l-187 -1327h746l186 1327h135l-186 -1327h178l-57 -410h-133l41 287h-1061z" />
<glyph unicode="&#x427;" horiz-adv-x="1280" d="M274 858.5q-2 67.5 7 130.5l65 461h135l-61 -430q-10 -74 -6 -128t34.5 -90t96 -53.5t180.5 -17.5q47 0 84 1t73 5t75.5 10.5t95.5 16.5l96 686h135l-203 -1450h-135l88 641q-121 -18 -203.5 -24.5t-146.5 -6.5q-160 0 -247 35t-124 90.5t-39 123z" />
<glyph unicode="&#x428;" horiz-adv-x="2177" d="M199 0l202 1450h134l-187 -1329h688l187 1329h135l-187 -1329h689l186 1329h135l-203 -1450h-1779z" />
<glyph unicode="&#x429;" horiz-adv-x="2177" d="M199 0l202 1450h134l-187 -1329h688l187 1329h135l-187 -1329h689l186 1329h135l-186 -1327h170l-58 -410h-125l41 287h-1824z" />
<glyph unicode="&#x42a;" horiz-adv-x="1431" d="M211 1329l16 121h512l-84 -594h275q70 0 161 -12.5t168.5 -55.5t124 -126.5t25.5 -229.5q-14 -104 -57 -177t-101.5 -121t-128 -74.5t-138.5 -40t-131 -16.5t-105 -3h-347l187 1329h-377zM553 123h233q137 0 227.5 28.5t145.5 72.5t81 99.5t34 108.5q10 76 -7.5 129 t-52 86t-81 51.5t-90.5 26.5t-79.5 9t-52.5 1h-272z" />
<glyph unicode="&#x42b;" horiz-adv-x="1646" d="M199 0l202 1450h136l-84 -594h274q70 0 161 -12.5t169 -55.5t124 -126.5t25 -229.5q-14 -104 -57 -177t-101.5 -121t-128 -74.5t-138 -40t-131 -16.5t-105.5 -3h-346zM350 123h234q137 0 227 28.5t145.5 72.5t81 99.5t33.5 108.5q10 76 -7 129t-52 86t-81 51.5t-90 26.5 t-80 9t-52 1h-273zM1313 0l203 1450h135l-203 -1450h-135z" />
<glyph unicode="&#x42c;" horiz-adv-x="1228" d="M199 0l202 1450h136l-84 -594h274q70 0 161 -12.5t169 -55.5t124 -126.5t25 -229.5q-14 -104 -57 -177t-101.5 -121t-128 -74.5t-138 -40t-131 -16.5t-105.5 -3h-346zM350 123h234q137 0 227 28.5t145.5 72.5t81 99.5t33.5 108.5q10 76 -7 129t-52 86t-81 51.5t-90 26.5 t-80 9t-52 1h-273z" />
<glyph unicode="&#x42d;" horiz-adv-x="1441" d="M80 227l123 84q31 -59 76 -101t97 -69.5t109.5 -41t112.5 -13.5q137 0 255 46t208 127t151.5 190.5t85.5 238.5h-817l17 123h813q4 119 -30 220.5t-102.5 175t-169 115.5t-231.5 42q-111 0 -222.5 -47t-193.5 -150l-98 93q113 123 249 175t284 52q166 0 296 -57.5 t214 -159t119.5 -240.5t11.5 -305q-23 -166 -97.5 -306t-188.5 -241.5t-259 -158t-311 -56.5q-160 0 -289 61.5t-213 202.5z" />
<glyph unicode="&#x42e;" horiz-adv-x="2138" d="M199 0l202 1450h136l-91 -639h205q35 150 113 273.5t188.5 212.5t247.5 139.5t293 50.5q166 0 296 -57.5t214 -159t120 -240.5t11 -305q-23 -166 -97.5 -306t-188 -241.5t-259 -158t-311.5 -56.5q-162 0 -290 54.5t-212 150.5t-123 229t-22 293h-201l-96 -690h-135z M770 725q-18 -135 8.5 -252t94 -203t174 -135t247.5 -49t262 49t213.5 135t151.5 203t78 252q18 135 -7.5 252t-93 203t-175 135t-248.5 49t-262 -49t-213.5 -135t-152 -203t-77.5 -252z" />
<glyph unicode="&#x42f;" horiz-adv-x="1214" d="M68 0l518 696q-59 8 -121 28.5t-111 62.5t-74.5 110t-11.5 172q12 94 52 159.5t93.5 108.5t116 65.5t122 33t108.5 12.5t78 2h381l-203 -1450h-135l96 688h-252l-504 -688h-153zM403 1069q-6 -37 1.5 -82t39 -84t94 -65.5t169.5 -26.5h286l74 516h-287q-106 0 -177 -26.5 t-112.5 -65.5t-61 -84t-26.5 -82z" />
<glyph unicode="&#x430;" horiz-adv-x="1062" d="M156 256q14 109 79.5 172.5t150.5 95t177 40.5t162 9h143l9 58q16 123 -51.5 176t-182.5 53q-166 0 -305 -106l-59 84q78 66 182 99.5t196 33.5q172 0 263.5 -81t66.5 -261l-33 -232q-10 -70 -17 -125t-11 -102t-6 -88t-2 -82h-115q-2 35 0 74t8 80h-4 q-66 -92 -151 -135.5t-205 -43.5q-61 0 -119 15.5t-101 49.5t-64.5 87t-10.5 129zM279 262q-6 -43 8 -76.5t41.5 -55t64.5 -33t76 -11.5q98 0 165.5 28.5t112 75t68 104.5t31.5 118l8 63h-135q-78 0 -152.5 -10t-135 -34.5t-102.5 -65.5t-50 -103z" />
<glyph unicode="&#x431;" horiz-adv-x="1216" d="M190 578q10 68 26.5 147.5t47.5 160.5t78 157.5t119 138.5q37 33 79 55.5t93 37.5t110.5 27.5t130.5 26.5q66 14 124.5 38t109.5 83h143q-41 -66 -91 -106.5t-100 -66.5t-96 -38t-79 -18q-90 -16 -156.5 -30.5t-124.5 -41.5q-96 -47 -151.5 -136t-94.5 -218 q70 72 173.5 112.5t209.5 40.5q109 0 195 -35.5t143.5 -100t81 -154t8.5 -195.5q-14 -106 -63 -195.5t-125 -154t-172 -101.5t-205 -37q-252 0 -353 160t-61 443zM311 471q-6 -72 8.5 -141.5t51.5 -123.5t98 -88t149 -34q86 0 160 29.5t130.5 81t92.5 121t46 147.5 t-5.5 146.5t-55.5 118.5t-103.5 80t-147.5 30q-180 0 -288.5 -93.5t-131.5 -246.5z" />
<glyph unicode="&#x432;" horiz-adv-x="999" d="M164 0l131 946h364q102 0 160 -26.5t85.5 -63.5t31.5 -78t0 -69q-8 -51 -42 -111.5t-118 -95.5q37 -6 71 -25.5t57.5 -50.5t34.5 -71t5 -87q-4 -27 -19.5 -71.5t-56.5 -89t-114.5 -76t-192.5 -31.5h-397zM301 111h262q33 0 74 4t79 19.5t66.5 46t36.5 83.5q2 25 -1 55.5 t-23.5 56t-62.5 43t-116 17.5h-270zM362 547h220q104 0 162.5 30.5t70.5 114.5q2 18 1 43t-18.5 47.5t-58.5 38t-116 15.5h-220z" />
<glyph unicode="&#x433;" horiz-adv-x="735" d="M164 0l131 946h543l-15 -110h-420l-116 -836h-123z" />
<glyph unicode="&#x434;" horiz-adv-x="1017" d="M-18 -244l47 355q80 8 131 52t81.5 104.5t46 129t23.5 127.5l60 422h614l-117 -835h144l-49 -355h-115l35 244h-756l-35 -244h-110zM268 111h477l103 725h-369l-57 -400q-12 -88 -50 -178t-104 -147z" />
<glyph unicode="&#x435;" d="M176 475q14 106 62.5 196.5t121 157t163.5 104.5t196 38q109 0 186.5 -38t125.5 -100.5t65.5 -142.5t5.5 -162l-12 -86h-795q-6 -39 1 -99t40 -117.5t95.5 -98.5t170.5 -41q94 0 189.5 45t152.5 123l80 -76q-88 -109 -199.5 -156t-238.5 -47q-109 0 -192 37t-137 103.5 t-75.5 158t-5.5 201.5zM309 553h672q8 63 -8.5 118.5t-55 97.5t-95 66.5t-124.5 24.5q-100 0 -172.5 -41t-120 -94t-71 -103.5t-25.5 -68.5z" />
<glyph unicode="&#x436;" horiz-adv-x="1339" d="M-6 0l532 514l-356 432h160l350 -432l59 432h123l-59 -432l469 432h160l-476 -432l390 -514h-164l-381 506l-70 -506h-123l70 506l-520 -506h-164z" />
<glyph unicode="&#x437;" horiz-adv-x="892" d="M78 160l110 69q35 -61 96.5 -103t147.5 -42q51 0 99.5 12.5t86 35t63.5 56t32 76.5q8 59 -17.5 92t-61.5 49.5t-73 19.5t-51 3h-115l15 111h114q88 0 151.5 34.5t76.5 120.5q8 59 -13.5 92t-54.5 48.5t-65.5 18.5t-47.5 3q-25 0 -54.5 -1t-63 -13.5t-70.5 -39t-78 -77.5 l-94 59q72 104 170 144.5t203 40.5q63 0 119.5 -18.5t97.5 -53.5t60.5 -87t10.5 -120q-8 -49 -47 -106.5t-127 -98.5q61 -18 106.5 -71.5t33.5 -147.5q-10 -78 -50 -133t-98.5 -90t-129 -52.5t-142.5 -17.5q-106 0 -196.5 44t-143.5 143z" />
<glyph unicode="&#x438;" d="M164 0l131 946h123l-111 -792l641 792h158l-131 -946h-123l111 788l-641 -788h-158z" />
<glyph unicode="&#x439;" d="M164 0l131 946h123l-111 -792l641 792h158l-131 -946h-123l111 788l-641 -788h-158zM479 1448h86q0 -82 51.5 -121t131.5 -39q92 0 147 35t88 125h86q-31 -123 -122 -190.5t-214 -67.5q-121 0 -192.5 67.5t-61.5 190.5z" />
<glyph unicode="&#x43a;" horiz-adv-x="958" d="M164 0l131 946h123l-60 -430l523 430h163l-530 -432l451 -514h-168l-441 504l-69 -504h-123z" />
<glyph unicode="&#x43b;" horiz-adv-x="1042" d="M14 0l17 123q66 0 105.5 18.5t64 50t36 76.5t19.5 99l80 579h674l-131 -946h-123l116 836h-426l-77 -553q-8 -53 -30 -104.5t-64 -90.5t-105.5 -63.5t-155.5 -24.5z" />
<glyph unicode="&#x43c;" horiz-adv-x="1363" d="M164 0l131 946h166l248 -751l456 751h166l-131 -946h-123l107 772l-467 -772h-70l-254 772l-106 -772h-123z" />
<glyph unicode="&#x43d;" d="M164 0l131 946h123l-56 -393h566l55 393h123l-131 -946h-123l61 442h-565l-61 -442h-123z" />
<glyph unicode="&#x43e;" horiz-adv-x="1216" d="M176 473q14 109 64.5 200t125 157.5t172 103.5t205.5 37q109 0 195 -37t143.5 -103.5t81 -157.5t8.5 -200q-16 -109 -65 -200t-125 -157.5t-172 -103.5t-205 -37t-195.5 37t-143 103.5t-81 157.5t-8.5 200zM299 473q-12 -80 4 -150.5t57 -123t106.5 -83t151.5 -30.5 t160 30.5t130.5 83t92 123t48.5 150.5q12 80 -4.5 150.5t-57.5 123t-106.5 83t-151.5 30.5t-159.5 -30.5t-130 -83t-92.5 -123t-48 -150.5z" />
<glyph unicode="&#x43f;" horiz-adv-x="1085" d="M164 0l131 946h758l-131 -946h-123l116 836h-512l-116 -836h-123z" />
<glyph unicode="&#x440;" horiz-adv-x="1251" d="M70 -467l198 1413h123l-22 -166h4q35 49 83 85t102 59.5t110.5 35t109.5 11.5q109 0 195 -37t143.5 -103.5t81 -157.5t8.5 -200q-16 -109 -65 -200t-125 -157.5t-172 -103.5t-205 -37q-53 0 -106.5 11.5t-101.5 35t-86 59.5t-58 85h-4l-90 -633h-123zM313 473 q-12 -80 8.5 -150.5t66.5 -123t113.5 -83t151.5 -30.5q86 0 160 30.5t130 83t92 123t48 150.5t-4 150.5t-57 123t-106.5 83t-151.5 30.5q-84 0 -161 -30.5t-137 -83t-100.5 -123t-52.5 -150.5z" />
<glyph unicode="&#x441;" horiz-adv-x="985" d="M176 473q14 109 64.5 200t125 157.5t172 103.5t205.5 37q104 0 187.5 -43t142.5 -121l-108 -74q-47 59 -104.5 93t-131.5 34q-86 0 -159.5 -30.5t-130 -83t-92.5 -123t-48 -150.5t4 -150.5t57 -123t106.5 -83t151.5 -30.5q78 0 148 36t125 95l84 -78q-82 -84 -175 -124 t-196 -40q-109 0 -195.5 37t-143 103.5t-81 158t-8.5 199.5z" />
<glyph unicode="&#x442;" horiz-adv-x="878" d="M141 836l15 110h829l-14 -110h-353l-116 -836h-123l117 836h-355z" />
<glyph unicode="&#x443;" horiz-adv-x="948" d="M-16 -473l26 115q25 -8 51.5 -15.5t55.5 -7.5q33 0 60.5 14.5t49 37t39 50t31.5 56.5l117 219l-252 950h137l203 -796l416 796h131l-662 -1239q-47 -92 -115.5 -145.5t-171.5 -53.5q-31 0 -60.5 5.5t-55.5 13.5z" />
<glyph unicode="&#x444;" horiz-adv-x="1361" d="M176 473q14 109 66.5 200t129.5 157.5t175 103.5t207 37l67 481h123l-67 -481q109 0 196.5 -37t147 -103.5t85 -157.5t11.5 -200q-16 -109 -67.5 -200t-129.5 -157.5t-176 -103.5t-207 -37l-63 -442h-123l63 442q-109 0 -196.5 37t-146 103.5t-85 158t-10.5 199.5z M299 473q-12 -80 5.5 -150.5t60.5 -123t110.5 -83t153.5 -30.5l110 774q-86 0 -161.5 -30.5t-134 -83t-95.5 -123t-49 -150.5zM752 86q86 0 161.5 30.5t134 83t96.5 123t50 150.5t-6.5 150.5t-61.5 123t-110.5 83t-153.5 30.5z" />
<glyph unicode="&#x445;" horiz-adv-x="985" d="M12 0l465 512l-278 434h157l213 -358l310 358h153l-393 -434l334 -512h-160l-270 428l-383 -428h-148z" />
<glyph unicode="&#x446;" horiz-adv-x="1085" d="M164 0l131 946h123l-117 -835h512l117 835h123l-117 -835h143l-49 -355h-115l35 244h-786z" />
<glyph unicode="&#x447;" horiz-adv-x="976" d="M203 535.5q-6 60.5 6 142.5l37 268h123l-37 -268q-10 -63 -5 -103t27.5 -63t64.5 -31t109 -8q20 0 49 2t61 6t63.5 9.5t58.5 13.5l61 442h123l-131 -946h-123l53 387q-33 -6 -69.5 -12t-72.5 -9.5t-68.5 -5.5t-57.5 -2q-90 0 -147.5 19.5t-88 58.5t-36.5 99.5z" />
<glyph unicode="&#x448;" horiz-adv-x="1656" d="M164 0l131 946h123l-117 -835h479l117 835h123l-117 -835h481l117 835h123l-131 -946h-1329z" />
<glyph unicode="&#x449;" horiz-adv-x="1656" d="M164 0l131 946h123l-117 -835h479l117 835h123l-117 -835h481l117 835h123l-117 -835h144l-49 -355h-115l35 244h-1358z" />
<glyph unicode="&#x44a;" horiz-adv-x="1024" d="M141 836l15 110h362l-53 -379h201q113 0 180 -25.5t102 -67.5t42 -92t1 -99q-12 -82 -48 -136.5t-90 -87t-122.5 -46t-144.5 -13.5h-322l117 836h-240zM401 111h191q29 0 72 2t85 18t74.5 51t42.5 101q8 63 -15.5 98t-60 51.5t-78.5 20.5t-69 4h-192z" />
<glyph unicode="&#x44b;" horiz-adv-x="1288" d="M164 0l131 946h123l-53 -379h200q113 0 180.5 -25.5t102.5 -67.5t42 -92t1 -99q-12 -82 -48 -136.5t-90.5 -87t-123 -46t-144.5 -13.5h-321zM301 111h191q29 0 71.5 2t84.5 18t75 51t43 101q8 63 -15.5 98t-60.5 51.5t-79 20.5t-68 4h-193zM1001 0l132 946h122l-131 -946 h-123z" />
<glyph unicode="&#x44c;" horiz-adv-x="923" d="M164 0l131 946h123l-53 -379h200q113 0 180.5 -25.5t102.5 -67.5t42 -92t1 -99q-12 -82 -48 -136.5t-90.5 -87t-123 -46t-144.5 -13.5h-321zM301 111h191q29 0 71.5 2t84.5 18t75 51t43 101q8 63 -15.5 98t-60.5 51.5t-79 20.5t-68 4h-193z" />
<glyph unicode="&#x44d;" horiz-adv-x="985" d="M47 139l105 78q41 -59 99 -95t136 -36q82 0 151.5 26.5t125 73.5t92.5 109.5t53 136.5h-481l16 121h477q-2 66 -24.5 122t-63.5 97t-100.5 64.5t-134.5 23.5q-74 0 -142.5 -33.5t-130.5 -93.5l-88 74q80 78 175.5 121t199.5 43q109 0 195 -37t143 -103.5t80.5 -157.5 t9.5 -200q-16 -109 -65.5 -200t-125 -157.5t-172 -103.5t-204.5 -37q-102 0 -185.5 40t-140.5 124z" />
<glyph unicode="&#x44e;" horiz-adv-x="1585" d="M164 0l131 946h123l-56 -393h197q27 92 79 169t125 132t162 86t187 31q109 0 195 -37t143 -103.5t80.5 -157.5t9.5 -200q-16 -109 -65.5 -200t-125 -157.5t-171.5 -103.5t-205 -37q-104 0 -189.5 35t-141.5 96.5t-84 147.5t-17 188h-193l-61 -442h-123zM668 473 q-12 -80 4 -150.5t57 -123t106.5 -83t151.5 -30.5t160 30.5t130 83t92 123t48 150.5t-4 150.5t-57 123t-106.5 83t-151.5 30.5t-160 -30.5t-130 -83t-92 -123t-48 -150.5z" />
<glyph unicode="&#x44f;" horiz-adv-x="972" d="M57 0l340 406q-45 6 -86 24.5t-70.5 51t-44 79.5t-6.5 109q8 49 31 99t67 89t113.5 63.5t169.5 24.5h369l-131 -946h-123l55 395h-211q-78 -96 -164.5 -197.5t-164.5 -197.5h-144zM311 670q-8 -57 14.5 -90t58.5 -49.5t77 -20.5t69 -4h226l47 330h-225q-29 0 -71 -4.5 t-83 -20.5t-73 -50t-40 -91z" />
<glyph unicode="&#x451;" d="M176 475q14 106 62.5 196.5t121 157t163.5 104.5t196 38q109 0 186.5 -38t125.5 -100.5t65.5 -142.5t5.5 -162l-12 -86h-795q-6 -39 1 -99t40 -117.5t95.5 -98.5t170.5 -41q94 0 189.5 45t152.5 123l80 -76q-88 -109 -199.5 -156t-238.5 -47q-109 0 -192 37t-137 103.5 t-75.5 158t-5.5 201.5zM309 553h672q8 63 -8.5 118.5t-55 97.5t-95 66.5t-124.5 24.5q-100 0 -172.5 -41t-120 -94t-71 -103.5t-25.5 -68.5zM463 1335q6 41 39 70t73 29q41 0 66 -29t18 -70q-6 -41 -38.5 -69.5t-73.5 -28.5t-65.5 28.5t-18.5 69.5zM852 1335q6 41 39 70 t74 29t65.5 -29t18.5 -70t-39 -69.5t-74 -28.5t-65.5 28.5t-18.5 69.5z" />
<glyph unicode="&#x452;" horiz-adv-x="1097" d="M164 0l160 1139h-142l15 112h141l29 199h122l-28 -199h454l-14 -112h-455l-51 -359h4q25 39 61 74t82 60.5t100.5 41t111.5 15.5q111 0 176 -39t98 -104.5t37 -150.5t-8 -177q-35 -238 -152 -427.5t-323 -355.5q-16 18 -31.5 35t-32.5 33q141 137 227 252 q86 113 130.5 225.5t60.5 235.5q10 72 9 137t-20.5 115.5t-64.5 80t-125 29.5q-68 0 -131 -23.5t-114.5 -71.5t-87 -121t-50.5 -171l-65 -473h-123z" />
<glyph unicode="&#x453;" horiz-adv-x="731" d="M164 0l131 946h543l-15 -110h-420l-116 -836h-123zM457 1155l254 295h163l-315 -295h-102z" />
<glyph unicode="&#x454;" horiz-adv-x="985" d="M176 473q14 109 64.5 200t125 157.5t172 103.5t205.5 37q104 0 187.5 -43t142.5 -121l-108 -74q-47 59 -104.5 93t-131.5 34q-76 0 -142.5 -23.5t-119.5 -64.5t-92 -97.5t-60 -121.5h478l-17 -121h-481q-4 -74 15.5 -136.5t61.5 -109.5t103.5 -73.5t142.5 -26.5 q78 0 148 36t125 95l84 -78q-82 -84 -175 -124t-196 -40q-109 0 -195.5 37t-143 103.5t-81 158t-8.5 199.5z" />
<glyph unicode="&#x455;" horiz-adv-x="872" d="M80 168l119 74q29 -76 98.5 -116t153.5 -40q39 0 79.5 12.5t74.5 35t57.5 54t29.5 72.5q6 49 -13.5 79t-56 48.5t-85 30.5t-99.5 23.5t-99 27.5t-84 45t-54.5 73t-7.5 111q10 70 45.5 121t87 85t111 50.5t118.5 16.5q117 0 195.5 -43t113.5 -135l-121 -66 q-27 66 -72.5 99.5t-129.5 33.5q-33 0 -70 -10t-69.5 -28.5t-55 -47.5t-29.5 -65q-8 -63 29 -94t97.5 -48.5t131 -30t129 -40t92 -79.5t21.5 -149q-10 -74 -46 -128t-88 -91t-116.5 -55.5t-132.5 -18.5q-123 0 -218 47.5t-136 145.5z" />
<glyph unicode="&#x456;" horiz-adv-x="491" d="M184 0l131 946h123l-131 -946h-123zM338 1321q6 39 35.5 65.5t68.5 26.5t62.5 -26.5t17.5 -65.5q-4 -39 -34.5 -65.5t-69.5 -26.5t-61.5 26.5t-18.5 65.5z" />
<glyph unicode="&#x457;" horiz-adv-x="491" d="M139 1335q6 41 39 70t74 29t65.5 -29t18.5 -70t-39 -69.5t-74 -28.5t-65.5 28.5t-18.5 69.5zM184 0l131 946h123l-131 -946h-123zM528 1335q6 41 39 70t74 29t65.5 -29t18.5 -70t-39 -69.5t-74 -28.5t-65.5 28.5t-18.5 69.5z" />
<glyph unicode="&#x458;" horiz-adv-x="491" d="M-127 -473l33 108q20 -8 37.5 -12t38.5 -4q49 0 80.5 17.5t51 45t29 64.5t15.5 78l157 1122h123l-155 -1112q-10 -74 -30 -133t-56.5 -102t-92 -67t-135.5 -24q-51 0 -96 19zM338 1321q6 39 35.5 65.5t68.5 26.5t62.5 -26.5t17.5 -65.5q-4 -39 -34.5 -65.5t-69.5 -26.5 t-61.5 26.5t-18.5 65.5z" />
<glyph unicode="&#x459;" horiz-adv-x="1515" d="M14 0l17 123q66 0 105.5 18.5t64 50t36 76.5t19.5 99l80 579h674l-54 -379h201q113 0 180.5 -25.5t102.5 -67.5t42 -92t1 -99q-12 -82 -48 -136.5t-90.5 -87t-123 -46t-144.5 -13.5h-321l116 836h-426l-77 -553q-8 -53 -30 -104.5t-64 -90.5t-105.5 -63.5t-155.5 -24.5z M893 111h190q29 0 72 2t85 18t75 51t43 101q8 63 -15.5 98t-60.5 51.5t-79 20.5t-68 4h-193z" />
<glyph unicode="&#x45a;" horiz-adv-x="1613" d="M164 0l131 946h123l-53 -379h565l53 379h121h2l-53 -379h202q113 0 180.5 -25.5t102.5 -67.5t42 -92t1 -99q-12 -82 -48 -136.5t-90 -87t-123 -46t-144 -13.5h-324l63 457h-565l-63 -457h-123zM989 111h193q29 0 71.5 2t84.5 18t75 51t43 101q8 63 -15.5 98t-60.5 51.5 t-78.5 20.5t-68.5 4h-195z" />
<glyph unicode="&#x45b;" d="M164 0l160 1141h-142l17 112h141l27 199h122l-26 -199h455l-17 -112h-455l-51 -361h4q25 39 61 74t81 60.5t98 41t111 15.5q111 0 176 -35t97 -91.5t36 -130t-6 -151.5l-78 -563h-123l78 557q8 57 6 111.5t-22.5 97.5t-62.5 68.5t-116 25.5q-68 0 -131 -23.5 t-114.5 -71.5t-87 -121t-50.5 -171l-65 -473h-123z" />
<glyph unicode="&#x45c;" horiz-adv-x="958" d="M164 0l131 946h123l-60 -430l523 430h163l-530 -432l451 -514h-168l-441 504l-69 -504h-123zM561 1155l254 295h164l-315 -295h-103z" />
<glyph unicode="&#x45e;" horiz-adv-x="948" d="M-16 -473l26 115q25 -8 51.5 -15.5t55.5 -7.5q33 0 60.5 14.5t49 37t39 50t31.5 56.5l117 219l-252 950h137l203 -796l416 796h131l-662 -1239q-47 -92 -115.5 -145.5t-171.5 -53.5q-31 0 -60.5 5.5t-55.5 13.5zM385 1413h86q2 -82 53 -121t131 -39q92 0 146.5 35 t87.5 125h86q-31 -123 -121 -190.5t-213 -67.5q-121 0 -193.5 67.5t-62.5 190.5z" />
<glyph unicode="&#x45f;" horiz-adv-x="1085" d="M164 0l131 946h123l-117 -835h512l117 835h123l-131 -946h-320l-35 -244h-114l34 244h-323z" />
<glyph unicode="&#x490;" horiz-adv-x="952" d="M199 0l202 1450h596l33 240h133l-49 -361h-594l-186 -1329h-135z" />
<glyph unicode="&#x491;" horiz-adv-x="739" d="M164 0l131 946h424l35 242h123l-50 -352h-424l-116 -836h-123z" />
<glyph unicode="&#x1e80;" horiz-adv-x="1933" d="M213 1450h139l180 -1284h5l546 1284h172l187 -1284h4l541 1284h139l-625 -1450h-166l-186 1290h-4l-547 -1290h-166zM948 1835h164l172 -295h-102z" />
<glyph unicode="&#x1e81;" horiz-adv-x="1441" d="M162 946h135l119 -792h4l375 792h116l170 -792h4l334 792h123l-409 -946h-127l-175 774h-4l-372 -774h-127zM649 1450h164l172 -295h-102z" />
<glyph unicode="&#x1e82;" horiz-adv-x="1933" d="M213 1450h139l180 -1284h5l546 1284h172l187 -1284h4l541 1284h139l-625 -1450h-166l-186 1290h-4l-547 -1290h-166zM1083 1540l254 295h164l-315 -295h-103z" />
<glyph unicode="&#x1e83;" horiz-adv-x="1441" d="M162 946h135l119 -792h4l375 792h116l170 -792h4l334 792h123l-409 -946h-127l-175 774h-4l-372 -774h-127zM778 1155l254 295h164l-315 -295h-103z" />
<glyph unicode="&#x1e84;" horiz-adv-x="1933" d="M213 1450h139l180 -1284h5l546 1284h172l187 -1284h4l541 1284h139l-625 -1450h-166l-186 1290h-4l-547 -1290h-166zM915 1720q4 41 37 70t74 29t65.5 -29t20.5 -70q-6 -41 -39 -69.5t-74 -28.5t-65.5 28.5t-18.5 69.5zM1305 1720q4 41 36.5 70t73.5 29t65.5 -29 t20.5 -70q-6 -41 -38.5 -69.5t-73.5 -28.5t-65.5 28.5t-18.5 69.5z" />
<glyph unicode="&#x1e85;" horiz-adv-x="1441" d="M162 946h135l119 -792h4l375 792h116l170 -792h4l334 792h123l-409 -946h-127l-175 774h-4l-372 -774h-127zM612 1335q6 41 39 70t74 29t65.5 -29t18.5 -70t-39 -69.5t-74 -28.5t-65.5 28.5t-18.5 69.5zM1001 1335q6 41 39 70t74 29t65.5 -29t18.5 -70t-39 -69.5 t-74 -28.5t-65.5 28.5t-18.5 69.5z" />
<glyph unicode="&#x1ea0;" horiz-adv-x="1402" d="M10 0l836 1450h139l408 -1450h-152l-104 385h-768l-217 -385h-142zM438 508h666l-215 795zM580 -211q6 41 38.5 69.5t73.5 28.5t65.5 -28.5t18.5 -69.5t-38.5 -69.5t-73.5 -28.5t-65.5 28.5t-18.5 69.5z" />
<glyph unicode="&#x1ea1;" horiz-adv-x="1062" d="M156 256q14 109 79.5 172.5t150.5 95t177 40.5t162 9h143l9 58q16 123 -51.5 176t-182.5 53q-166 0 -305 -106l-59 84q78 66 182 99.5t196 33.5q172 0 263.5 -81t66.5 -261l-33 -232q-10 -70 -17 -125t-11 -102t-6 -88t-2 -82h-115q-2 35 0 74t8 80h-4 q-66 -92 -151 -135.5t-205 -43.5q-61 0 -119 15.5t-101 49.5t-64.5 87t-10.5 129zM279 262q-6 -43 8 -76.5t41.5 -55t64.5 -33t76 -11.5q98 0 165.5 28.5t112 75t68 104.5t31.5 118l8 63h-135q-78 0 -152.5 -10t-135 -34.5t-102.5 -65.5t-50 -103zM391 -211q6 41 39 69.5 t74 28.5t65.5 -28.5t18.5 -69.5t-39 -69.5t-74 -28.5t-65.5 28.5t-18.5 69.5z" />
<glyph unicode="&#x1ea2;" horiz-adv-x="1402" d="M10 0l836 1450h139l408 -1450h-152l-104 385h-768l-217 -385h-142zM438 508h666l-215 795zM852 1847l14 95q45 18 90 18q51 0 88 -15.5t58.5 -40t30 -57t4.5 -65.5q-8 -47 -42 -92t-106 -74l-10 -82h-105l19 139q66 12 99.5 42t39.5 65q4 41 -26.5 63.5t-77.5 22.5 q-39 0 -76 -19z" />
<glyph unicode="&#x1ea3;" horiz-adv-x="1062" d="M156 256q14 109 79.5 172.5t150.5 95t177 40.5t162 9h143l9 58q16 123 -51.5 176t-182.5 53q-166 0 -305 -106l-59 84q78 66 182 99.5t196 33.5q172 0 263.5 -81t66.5 -261l-33 -232q-10 -70 -17 -125t-11 -102t-6 -88t-2 -82h-115q-2 35 0 74t8 80h-4 q-66 -92 -151 -135.5t-205 -43.5q-61 0 -119 15.5t-101 49.5t-64.5 87t-10.5 129zM279 262q-6 -43 8 -76.5t41.5 -55t64.5 -33t76 -11.5q98 0 165.5 28.5t112 75t68 104.5t31.5 118l8 63h-135q-78 0 -152.5 -10t-135 -34.5t-102.5 -65.5t-50 -103zM612 1409l15 94 q45 18 90 19q104 0 147 -50.5t33 -117.5q-6 -47 -40 -87t-103 -69l-13 -82h-104l20 139q125 25 136 97q6 41 -27 58t-80 17q-37 0 -74 -18z" />
<glyph unicode="&#x1ea4;" horiz-adv-x="1402" d="M10 0l836 1450h139l408 -1450h-152l-104 385h-768l-217 -385h-142zM438 508h666l-215 795zM479 1556l260 279h144l182 -279h-125l-137 205l-195 -205h-129zM1020 1671l233 250h146l-258 -250h-121z" />
<glyph unicode="&#x1ea5;" horiz-adv-x="1062" d="M156 256q16 109 79.5 172.5t149.5 95t178 40.5t162 9h143l9 58q16 123 -51.5 176t-182.5 53q-164 0 -305 -106l-59 84q76 66 181 99.5t197 33.5q172 0 263.5 -81t66.5 -261l-33 -232q-10 -70 -17 -125t-11 -102t-7.5 -88t-0.5 -82h-115q-4 70 8 154h-4 q-66 -92 -151 -135.5t-205 -43.5q-61 0 -119 15.5t-100 49.5t-64.5 87t-11.5 129zM279 262q-4 -43 10 -76.5t41.5 -55t63.5 -33t75 -11.5q98 0 165.5 28.5t113 75t68 104.5t30.5 118l8 63h-135q-78 0 -151.5 -10t-136 -34.5t-102.5 -65.5t-50 -103zM285 1151l262 279h143 l180 -279h-125l-135 205l-196 -205h-129zM825 1266l236 250h145l-260 -250h-121z" />
<glyph unicode="&#x1ea6;" horiz-adv-x="1402" d="M10 0l836 1450h139l408 -1450h-152l-104 385h-768l-217 -385h-142zM438 508h666l-215 795zM530 1921h146l164 -250h-121zM762 1556l260 279h143l183 -279h-129l-138 205l-194 -205h-125z" />
<glyph unicode="&#x1ea7;" horiz-adv-x="1062" d="M156 256q16 109 79.5 172.5t149.5 95t178 40.5t162 9h143l9 58q16 123 -51.5 176t-182.5 53q-164 0 -305 -106l-59 84q76 66 181 99.5t197 33.5q172 0 263.5 -81t66.5 -261l-33 -232q-10 -70 -17 -125t-11 -102t-7.5 -88t-0.5 -82h-115q-4 70 8 154h-4 q-66 -92 -151 -135.5t-205 -43.5q-61 0 -119 15.5t-100 49.5t-64.5 87t-11.5 129zM279 262q-4 -43 10 -76.5t41.5 -55t63.5 -33t75 -11.5q98 0 165.5 28.5t113 75t68 104.5t30.5 118l8 63h-135q-78 0 -151.5 -10t-136 -34.5t-102.5 -65.5t-50 -103zM281 1516h145l162 -250 h-121zM510 1151l262 279h143l181 -279h-129l-136 205l-196 -205h-125z" />
<glyph unicode="&#x1ea8;" horiz-adv-x="1402" d="M10 0l836 1450h139l408 -1450h-152l-104 385h-768l-217 -385h-142zM438 508h666l-215 795zM487 1559l263 278h143l180 -278h-133l-135 204l-197 -204h-121zM1077 1812l13 95q45 18 92 18q104 0 147 -50t33 -118q-6 -47 -40 -87t-105 -68l-11 -82h-104l18 139 q127 25 137 96q6 41 -26.5 58.5t-79.5 17.5q-37 0 -74 -19z" />
<glyph unicode="&#x1ea9;" horiz-adv-x="1062" d="M156 256q14 109 79.5 172.5t150.5 95t177 40.5t162 9h143l9 58q16 123 -51.5 176t-182.5 53q-166 0 -305 -106l-59 84q78 66 182 99.5t196 33.5q172 0 263.5 -81t66.5 -261l-33 -232q-10 -70 -17 -125t-11 -102t-6 -88t-2 -82h-115q-2 35 0 74t8 80h-4 q-66 -92 -151 -135.5t-205 -43.5q-61 0 -119 15.5t-101 49.5t-64.5 87t-10.5 129zM268 1155l260 279h144l182 -279h-133l-137 205l-195 -205h-121zM279 262q-6 -43 8 -76.5t41.5 -55t64.5 -33t76 -11.5q98 0 165.5 28.5t112 75t68 104.5t31.5 118l8 63h-135 q-78 0 -152.5 -10t-135 -34.5t-102.5 -65.5t-50 -103zM856 1409l14 94q45 18 91 19q104 0 147 -50.5t33 -117.5q-6 -47 -40 -87t-104 -69l-12 -82h-104l20 139q125 25 135 97q6 41 -26.5 58t-79.5 17q-37 0 -74 -18z" />
<glyph unicode="&#x1eaa;" horiz-adv-x="1402" d="M10 0l836 1450h139l408 -1450h-152l-104 385h-768l-217 -385h-142zM309 1559l262 278h144l180 -278h-133l-135 204l-197 -204h-121zM438 508h666l-215 795zM924 1559q10 33 27.5 67.5t41.5 63.5q29 29 61.5 47t71.5 18q41 0 75 -15.5t67 -31.5q29 -16 57.5 -30.5 t56.5 -14.5q43 0 69 28.5t38 63.5h70q-10 -35 -26.5 -69.5t-39.5 -63.5q-25 -29 -55.5 -46t-71.5 -17q-37 0 -70.5 14t-66.5 31q-35 16 -64.5 31.5t-58.5 15.5q-45 0 -70.5 -29t-42.5 -63h-69z" />
<glyph unicode="&#x1eab;" horiz-adv-x="1062" d="M156 256q14 109 79.5 172.5t150.5 95t177 40.5t162 9h143l9 58q16 123 -51.5 176t-182.5 53q-166 0 -305 -106l-59 84q78 66 182 99.5t196 33.5q172 0 263.5 -81t66.5 -261l-33 -232q-10 -70 -17 -125t-11 -102t-6 -88t-2 -82h-115q-2 35 0 74t8 80h-4 q-66 -92 -151 -135.5t-205 -43.5q-61 0 -119 15.5t-101 49.5t-64.5 87t-10.5 129zM279 262q-6 -43 8 -76.5t41.5 -55t64.5 -33t76 -11.5q98 0 165.5 28.5t112 75t68 104.5t31.5 118l8 63h-135q-78 0 -152.5 -10t-135 -34.5t-102.5 -65.5t-50 -103zM399 1114l260 279h144 l182 -279h-133l-137 205l-195 -205h-121zM438 1419q10 33 26.5 68t43.5 63q29 29 60.5 47.5t70.5 18.5q41 0 76 -15.5t65 -31.5q29 -16 57.5 -30.5t57.5 -14.5q43 0 68.5 28.5t37.5 63.5h70q-10 -35 -25.5 -70t-39.5 -63q-23 -29 -53.5 -46.5t-71.5 -17.5q-37 0 -71 14.5 t-69 30.5q-33 16 -63.5 31.5t-59.5 15.5q-45 0 -70.5 -28.5t-39.5 -63.5h-70z" />
<glyph unicode="&#x1eac;" horiz-adv-x="1402" d="M10 0l836 1450h139l408 -1450h-152l-104 385h-768l-217 -385h-142zM438 508h666l-215 795zM580 -211q6 41 38.5 69.5t73.5 28.5t65.5 -28.5t18.5 -69.5t-38.5 -69.5t-73.5 -28.5t-65.5 28.5t-18.5 69.5zM639 1559l262 278h143l181 -278h-133l-136 204l-196 -204h-121z " />
<glyph unicode="&#x1ead;" horiz-adv-x="1062" d="M156 256q14 109 79.5 172.5t150.5 95t177 40.5t162 9h143l9 58q16 123 -51.5 176t-182.5 53q-166 0 -305 -106l-59 84q78 66 182 99.5t196 33.5q172 0 263.5 -81t66.5 -261l-33 -232q-10 -70 -17 -125t-11 -102t-6 -88t-2 -82h-115q-2 35 0 74t8 80h-4 q-66 -92 -151 -135.5t-205 -43.5q-61 0 -119 15.5t-101 49.5t-64.5 87t-10.5 129zM279 262q-6 -43 8 -76.5t41.5 -55t64.5 -33t76 -11.5q98 0 165.5 28.5t112 75t68 104.5t31.5 118l8 63h-135q-78 0 -152.5 -10t-135 -34.5t-102.5 -65.5t-50 -103zM391 -211q6 41 39 69.5 t74 28.5t65.5 -28.5t18.5 -69.5t-39 -69.5t-74 -28.5t-65.5 28.5t-18.5 69.5zM397 1155l260 279h144l182 -279h-133l-137 205l-195 -205h-121z" />
<glyph unicode="&#x1eae;" horiz-adv-x="1402" d="M10 0l836 1450h139l408 -1450h-152l-104 385h-768l-217 -385h-142zM438 508h666l-215 795zM686 1780h82q2 -78 49 -115t123 -37q86 0 140.5 33t84.5 119h82q-31 -117 -117 -180.5t-202 -63.5q-115 0 -183.5 63.5t-58.5 180.5zM850 1679l203 219h147l-225 -219h-125z" />
<glyph unicode="&#x1eaf;" horiz-adv-x="1062" d="M156 256q14 109 79.5 172.5t150.5 95t177 40.5t162 9h143l9 58q16 123 -51.5 176t-182.5 53q-166 0 -305 -106l-59 84q78 66 182 99.5t196 33.5q172 0 263.5 -81t66.5 -261l-33 -232q-10 -70 -17 -125t-11 -102t-6 -88t-2 -82h-115q-2 35 0 74t8 80h-4 q-66 -92 -151 -135.5t-205 -43.5q-61 0 -119 15.5t-101 49.5t-64.5 87t-10.5 129zM279 262q-6 -43 8 -76.5t41.5 -55t64.5 -33t76 -11.5q98 0 165.5 28.5t112 75t68 104.5t31.5 118l8 63h-135q-78 0 -152.5 -10t-135 -34.5t-102.5 -65.5t-50 -103zM442 1401h82 q2 -78 49.5 -115t122.5 -37q86 0 140.5 33t85.5 119h82q-31 -117 -117 -180.5t-203 -63.5q-115 0 -183.5 63.5t-58.5 180.5zM606 1300l203 220h147l-225 -220h-125z" />
<glyph unicode="&#x1eb0;" horiz-adv-x="1402" d="M10 0l836 1450h139l408 -1450h-152l-104 385h-768l-217 -385h-142zM438 508h666l-215 795zM676 1778h82q8 -86 52 -119t130 -33q76 0 134.5 37t80.5 115h82q-23 -117 -109 -180.5t-200 -63.5q-117 0 -185.5 63.5t-66.5 180.5zM758 1896h147l142 -219h-125z" />
<glyph unicode="&#x1eb1;" horiz-adv-x="1062" d="M156 256q14 109 79.5 172.5t150.5 95t177 40.5t162 9h143l9 58q16 123 -51.5 176t-182.5 53q-166 0 -305 -106l-59 84q78 66 182 99.5t196 33.5q172 0 263.5 -81t66.5 -261l-33 -232q-10 -70 -17 -125t-11 -102t-6 -88t-2 -82h-115q-2 35 0 74t8 80h-4 q-66 -92 -151 -135.5t-205 -43.5q-61 0 -119 15.5t-101 49.5t-64.5 87t-10.5 129zM279 262q-6 -43 8 -76.5t41.5 -55t64.5 -33t76 -11.5q98 0 165.5 28.5t112 75t68 104.5t31.5 118l8 63h-135q-78 0 -152.5 -10t-135 -34.5t-102.5 -65.5t-50 -103zM442 1401h82 q6 -86 50 -119t131 -33q76 0 135 37t82 115h82q-12 -59 -41 -104.5t-70 -76t-92 -47t-109 -16.5q-117 0 -185.5 63.5t-64.5 180.5zM522 1520h148l141 -220h-125z" />
<glyph unicode="&#x1eb2;" horiz-adv-x="1402" d="M10 0l836 1450h139l408 -1450h-152l-104 385h-768l-217 -385h-142zM438 508h666l-215 795zM674 1761h82q8 -86 52 -118.5t130 -32.5q76 0 134 36.5t81 114.5h82q-23 -117 -109 -180t-200 -63q-117 0 -185.5 63.5t-66.5 179.5zM858 1903l12 79q18 8 41 11.5t41 3.5 q98 0 141.5 -42t32.5 -106q-8 -53 -38.5 -83.5t-96.5 -59.5l-8 -55h-96l14 100q119 25 129 96q4 29 -13.5 44.5t-44 20.5t-58 2t-56.5 -11z" />
<glyph unicode="&#x1eb3;" horiz-adv-x="1062" d="M156 256q14 109 79.5 172.5t150.5 95t177 40.5t162 9h143l9 58q16 123 -51.5 176t-182.5 53q-166 0 -305 -106l-59 84q78 66 182 99.5t196 33.5q172 0 263.5 -81t66.5 -261l-33 -232q-10 -70 -17 -125t-11 -102t-6 -88t-2 -82h-115q-2 35 0 74t8 80h-4 q-66 -92 -151 -135.5t-205 -43.5q-61 0 -119 15.5t-101 49.5t-64.5 87t-10.5 129zM279 262q-6 -43 8 -76.5t41.5 -55t64.5 -33t76 -11.5q98 0 165.5 28.5t112 75t68 104.5t31.5 118l8 63h-135q-78 0 -152.5 -10t-135 -34.5t-102.5 -65.5t-50 -103zM440 1356h82 q6 -86 50 -119t130 -33q76 0 135.5 37t82.5 115h81q-12 -59 -40.5 -104.5t-69.5 -76t-92 -47t-109 -16.5q-117 0 -185.5 63.5t-64.5 180.5zM623 1497l12 80q18 8 40.5 11t41.5 3q98 0 141 -42t35 -105q-8 -53 -40 -84t-97 -60l-8 -55h-97l15 101q119 25 129 96 q4 29 -12.5 44t-44 20t-59.5 2t-56 -11z" />
<glyph unicode="&#x1eb4;" horiz-adv-x="1402" d="M10 0l836 1450h139l408 -1450h-152l-104 385h-768l-217 -385h-142zM438 508h666l-215 795zM674 1761h82q8 -86 52 -118.5t130 -32.5q76 0 134 36.5t81 114.5h82q-23 -117 -109 -180t-200 -63q-117 0 -185.5 63.5t-66.5 179.5zM678 1790q10 31 27.5 64.5t39.5 60.5 q25 29 57 46t68 17q39 0 73 -14t63 -31q29 -16 55 -29.5t53 -13.5q41 0 65.5 28t34.5 60h68q-10 -33 -24.5 -66.5t-36.5 -60.5q-25 -29 -54.5 -45t-66.5 -16q-35 0 -68 14.5t-65 28.5q-31 16 -59.5 30.5t-57.5 14.5q-41 0 -66.5 -27.5t-38.5 -60.5h-67z" />
<glyph unicode="&#x1eb5;" horiz-adv-x="1062" d="M156 256q14 109 79.5 172.5t150.5 95t177 40.5t162 9h143l9 58q16 123 -51.5 176t-182.5 53q-166 0 -305 -106l-59 84q78 66 182 99.5t196 33.5q172 0 263.5 -81t66.5 -261l-33 -232q-10 -70 -17 -125t-11 -102t-6 -88t-2 -82h-115q-2 35 0 74t8 80h-4 q-66 -92 -151 -135.5t-205 -43.5q-61 0 -119 15.5t-101 49.5t-64.5 87t-10.5 129zM279 262q-6 -43 8 -76.5t41.5 -55t64.5 -33t76 -11.5q98 0 165.5 28.5t112 75t68 104.5t31.5 118l8 63h-135q-78 0 -152.5 -10t-135 -34.5t-102.5 -65.5t-50 -103zM436 1356h82 q6 -86 50 -119t130 -33q76 0 135.5 37t81.5 115h82q-12 -59 -40.5 -104.5t-69.5 -76t-92.5 -47t-108.5 -16.5q-117 0 -185.5 63.5t-64.5 180.5zM440 1384q8 31 25.5 65t40.5 60q27 29 57.5 46.5t67.5 17.5q39 0 72.5 -14.5t62.5 -30.5t55.5 -29.5t52.5 -13.5q41 0 66 27.5 t35 60.5h67q-10 -33 -24 -66.5t-37 -60.5q-25 -29 -53.5 -45.5t-65.5 -16.5q-35 0 -68.5 14.5t-66.5 28.5q-31 16 -58.5 31t-56.5 15q-41 0 -67.5 -28t-36.5 -61h-68z" />
<glyph unicode="&#x1eb6;" horiz-adv-x="1402" d="M10 0l836 1450h139l408 -1450h-152l-104 385h-768l-217 -385h-142zM438 508h666l-215 795zM580 -211q6 41 38.5 69.5t73.5 28.5t65.5 -28.5t18.5 -69.5t-38.5 -69.5t-73.5 -28.5t-65.5 28.5t-18.5 69.5zM684 1778h82q2 -78 50 -115t124 -37q86 0 140.5 33t82.5 119h82 q-29 -117 -115 -180.5t-202 -63.5q-57 0 -104.5 16.5t-79 47t-48 75.5t-12.5 105z" />
<glyph unicode="&#x1eb7;" horiz-adv-x="1062" d="M156 256q14 109 79.5 172.5t150.5 95t177 40.5t162 9h143l9 58q16 123 -51.5 176t-182.5 53q-166 0 -305 -106l-59 84q78 66 182 99.5t196 33.5q172 0 263.5 -81t66.5 -261l-33 -232q-10 -70 -17 -125t-11 -102t-6 -88t-2 -82h-115q-2 35 0 74t8 80h-4 q-66 -92 -151 -135.5t-205 -43.5q-61 0 -119 15.5t-101 49.5t-64.5 87t-10.5 129zM279 262q-6 -43 8 -76.5t41.5 -55t64.5 -33t76 -11.5q98 0 165.5 28.5t112 75t68 104.5t31.5 118l8 63h-135q-78 0 -152.5 -10t-135 -34.5t-102.5 -65.5t-50 -103zM391 -211q6 41 39 69.5 t74 28.5t65.5 -28.5t18.5 -69.5t-39 -69.5t-74 -28.5t-65.5 28.5t-18.5 69.5zM442 1401h82q2 -78 49.5 -115t122.5 -37q86 0 140.5 33t85.5 119h82q-31 -117 -117 -180.5t-203 -63.5q-115 0 -183.5 63.5t-58.5 180.5z" />
<glyph unicode="&#x1eb8;" horiz-adv-x="1214" d="M199 0l202 1450h887l-16 -123h-752l-74 -516h705l-16 -123h-705l-80 -565h785l-17 -123h-919zM530 -211q6 41 39 69.5t74 28.5t65.5 -28.5t18.5 -69.5t-39 -69.5t-74 -28.5t-65.5 28.5t-18.5 69.5z" />
<glyph unicode="&#x1eb9;" d="M176 475q14 106 62.5 196.5t121 157t163.5 104.5t196 38q109 0 186.5 -38t125.5 -100.5t65.5 -142.5t5.5 -162l-12 -86h-795q-6 -39 1 -99t40 -117.5t95.5 -98.5t170.5 -41q94 0 189.5 45t152.5 123l80 -76q-88 -109 -199.5 -156t-238.5 -47q-109 0 -192 37t-137 103.5 t-75.5 158t-5.5 201.5zM309 553h672q8 63 -8.5 118.5t-55 97.5t-95 66.5t-124.5 24.5q-100 0 -172.5 -41t-120 -94t-71 -103.5t-25.5 -68.5zM457 -211q6 41 38.5 69.5t73.5 28.5t65.5 -28.5t18.5 -69.5t-38.5 -69.5t-73.5 -28.5t-65.5 28.5t-18.5 69.5z" />
<glyph unicode="&#x1eba;" horiz-adv-x="1214" d="M199 0l202 1450h887l-16 -123h-752l-74 -516h705l-16 -123h-705l-80 -565h785l-17 -123h-919zM778 1829l13 94q45 18 92 19q104 0 147 -51.5t33 -118.5q-6 -47 -40 -87t-105 -69l-11 -82h-104l18 139q127 25 137 96q6 41 -26.5 59.5t-79.5 18.5q-37 0 -74 -18z" />
<glyph unicode="&#x1ebb;" d="M176 475q14 106 62.5 196.5t121 157t163.5 104.5t196 38q109 0 186.5 -38t125.5 -100.5t65.5 -142.5t5.5 -162l-12 -86h-795q-6 -39 1 -99t40 -117.5t95.5 -98.5t170.5 -41q94 0 189.5 45t152.5 123l80 -76q-88 -109 -199.5 -156t-238.5 -47q-109 0 -192 37t-137 103.5 t-75.5 158t-5.5 201.5zM309 553h672q8 63 -8.5 118.5t-55 97.5t-95 66.5t-124.5 24.5q-100 0 -172.5 -41t-120 -94t-71 -103.5t-25.5 -68.5zM664 1409l14 94q45 18 90 19q104 0 147 -50.5t33 -117.5q-6 -47 -40 -87t-103 -69l-12 -82h-105l21 139q125 25 135 97q6 41 -27 58 t-80 17q-37 0 -73 -18z" />
<glyph unicode="&#x1ebc;" horiz-adv-x="1214" d="M199 0l202 1450h887l-16 -123h-752l-74 -516h705l-16 -123h-705l-80 -565h785l-17 -123h-919zM571 1554q10 33 27.5 68t42.5 64q29 29 61.5 47t71.5 18q41 0 75 -15.5t64 -31.5q29 -16 57.5 -30.5t57.5 -14.5q43 0 69.5 28.5t39.5 63.5h69q-10 -35 -26.5 -69.5 t-38.5 -63.5q-25 -29 -55.5 -46.5t-71.5 -17.5q-37 0 -71 14.5t-69 30.5q-33 16 -63.5 32t-58.5 16q-45 0 -71 -29t-40 -64h-70z" />
<glyph unicode="&#x1ebd;" d="M176 475q14 106 62.5 196.5t121 157t163.5 104.5t196 38q109 0 186.5 -38t125.5 -100.5t65.5 -142.5t5.5 -162l-12 -86h-795q-6 -39 1 -99t40 -117.5t95.5 -98.5t170.5 -41q94 0 189.5 45t152.5 123l80 -76q-88 -109 -199.5 -156t-238.5 -47q-109 0 -192 37t-137 103.5 t-75.5 158t-5.5 201.5zM309 553h672q8 63 -8.5 118.5t-55 97.5t-95 66.5t-124.5 24.5q-100 0 -172.5 -41t-120 -94t-71 -103.5t-25.5 -68.5zM453 1190q10 33 27.5 67.5t41.5 63.5q29 29 61.5 47t71.5 18q41 0 75 -15t65 -32q29 -16 57.5 -30.5t56.5 -14.5q43 0 70 29t39 63 h69q-10 -35 -26.5 -69.5t-38.5 -63.5q-25 -29 -55.5 -46t-71.5 -17q-37 0 -70.5 14.5t-68.5 30.5q-33 16 -63.5 31.5t-59.5 15.5q-45 0 -70.5 -28.5t-40.5 -63.5h-69z" />
<glyph unicode="&#x1ebe;" horiz-adv-x="1214" d="M199 0l202 1450h887l-16 -123h-752l-74 -516h705l-16 -123h-705l-80 -565h785l-17 -123h-919zM459 1556l260 279h143l182 -279h-124l-138 205l-194 -205h-129zM999 1671l234 250h145l-258 -250h-121z" />
<glyph unicode="&#x1ebf;" d="M176 475q14 106 62.5 196.5t121 157t163.5 104.5t196 38q109 0 186.5 -38t124.5 -100.5t64.5 -142.5t7.5 -162l-12 -86h-795q-6 -39 1 -99t40 -117.5t95.5 -98.5t170.5 -41q94 0 189.5 45t152.5 123l80 -76q-88 -109 -199.5 -156t-238.5 -47q-109 0 -192 37t-137 103.5 t-74.5 158t-6.5 201.5zM309 553h672q10 63 -8.5 118.5t-56 97.5t-94 66.5t-124.5 24.5q-100 0 -172.5 -41t-119 -94t-70 -103.5t-27.5 -68.5zM311 1151l262 279h144l180 -279h-125l-135 205l-197 -205h-129zM852 1266l235 250h146l-260 -250h-121z" />
<glyph unicode="&#x1ec0;" horiz-adv-x="1214" d="M199 0l202 1450h887l-16 -123h-752l-74 -516h705l-16 -123h-705l-80 -565h785l-17 -123h-919zM451 1921h145l164 -250h-121zM682 1556l260 279h143l183 -279h-129l-138 205l-194 -205h-125z" />
<glyph unicode="&#x1ec1;" d="M176 475q14 106 62.5 196.5t121 157t163.5 104.5t196 38q109 0 186.5 -38t124.5 -100.5t64.5 -142.5t7.5 -162l-12 -86h-795q-6 -39 1 -99t40 -117.5t95.5 -98.5t170.5 -41q94 0 189.5 45t152.5 123l80 -76q-88 -109 -199.5 -156t-238.5 -47q-109 0 -192 37t-137 103.5 t-74.5 158t-6.5 201.5zM309 553h672q10 63 -8.5 118.5t-56 97.5t-94 66.5t-124.5 24.5q-100 0 -172.5 -41t-119 -94t-70 -103.5t-27.5 -68.5zM328 1516h145l162 -250h-121zM557 1151l262 279h144l180 -279h-129l-135 205l-197 -205h-125z" />
<glyph unicode="&#x1ec2;" horiz-adv-x="1214" d="M199 0l202 1450h887l-16 -123h-752l-74 -516h705l-16 -123h-705l-80 -565h785l-17 -123h-919zM459 1559l262 278h143l180 -278h-133l-135 204l-196 -204h-121zM1049 1812l12 95q45 18 92 18q104 0 147 -50t33 -118q-6 -47 -39.5 -87t-105.5 -68l-10 -82h-105l19 139 q127 25 137 96q6 41 -27 58.5t-80 17.5q-37 0 -73 -19z" />
<glyph unicode="&#x1ec3;" d="M176 475q14 106 62.5 196.5t121 157t163.5 104.5t196 38q109 0 186.5 -38t125.5 -100.5t65.5 -142.5t5.5 -162l-12 -86h-795q-6 -39 1 -99t40 -117.5t95.5 -98.5t170.5 -41q94 0 189.5 45t152.5 123l80 -76q-88 -109 -199.5 -156t-238.5 -47q-109 0 -192 37t-137 103.5 t-75.5 158t-5.5 201.5zM309 553h672q8 63 -8.5 118.5t-55 97.5t-95 66.5t-124.5 24.5q-100 0 -172.5 -41t-120 -94t-71 -103.5t-25.5 -68.5zM319 1155l261 279h143l182 -279h-133l-137 205l-195 -205h-121zM907 1409l15 94q45 18 90 19q104 0 147 -50.5t33 -117.5 q-6 -47 -40 -87t-103 -69l-13 -82h-104l20 139q125 25 135 97q6 41 -26.5 58t-79.5 17q-37 0 -74 -18z" />
<glyph unicode="&#x1ec4;" horiz-adv-x="1214" d="M199 0l202 1450h887l-16 -123h-752l-74 -516h705l-16 -123h-705l-80 -565h785l-17 -123h-919zM231 1559l263 278h143l180 -278h-133l-135 204l-197 -204h-121zM846 1559q10 33 27.5 67.5t41.5 63.5q29 29 62 47t72 18q41 0 74.5 -15.5t66.5 -31.5q29 -16 57.5 -30.5 t57.5 -14.5q43 0 68.5 28.5t37.5 63.5h70q-10 -35 -26.5 -69.5t-39.5 -63.5q-25 -29 -55.5 -46t-71.5 -17q-37 0 -70.5 14t-66.5 31q-35 16 -64.5 31.5t-58.5 15.5q-45 0 -70.5 -29t-42.5 -63h-69z" />
<glyph unicode="&#x1ec5;" d="M176 475q14 106 62.5 196.5t121 157t163.5 104.5t196 38q109 0 186.5 -38t125.5 -100.5t65.5 -142.5t5.5 -162l-12 -86h-795q-6 -39 1 -99t40 -117.5t95.5 -98.5t170.5 -41q94 0 189.5 45t152.5 123l80 -76q-88 -109 -199.5 -156t-238.5 -47q-109 0 -192 37t-137 103.5 t-75.5 158t-5.5 201.5zM309 553h672q8 63 -8.5 118.5t-55 97.5t-95 66.5t-124.5 24.5q-100 0 -172.5 -41t-120 -94t-71 -103.5t-25.5 -68.5zM459 1114l260 279h143l182 -279h-133l-137 205l-194 -205h-121zM498 1419q10 33 26.5 68t42.5 63q29 29 60.5 47.5t70.5 18.5 q41 0 76 -15.5t66 -31.5q29 -16 57.5 -30.5t56.5 -14.5q43 0 69 28.5t38 63.5h69q-10 -35 -25 -70t-40 -63q-23 -29 -53.5 -46.5t-71.5 -17.5q-37 0 -70.5 14.5t-68.5 30.5q-33 16 -63.5 31.5t-59.5 15.5q-45 0 -70.5 -28.5t-40.5 -63.5h-69z" />
<glyph unicode="&#x1ec6;" horiz-adv-x="1214" d="M199 0l202 1450h887l-16 -123h-752l-74 -516h705l-16 -123h-705l-80 -565h785l-17 -123h-919zM532 -211q6 41 39 69.5t74 28.5t65.5 -28.5t18.5 -69.5t-39 -69.5t-74 -28.5t-65.5 28.5t-18.5 69.5zM559 1559l262 278h144l180 -278h-133l-135 204l-197 -204h-121z" />
<glyph unicode="&#x1ec7;" d="M176 475q14 106 62.5 196.5t121 157t163.5 104.5t196 38q109 0 186.5 -38t125.5 -100.5t65.5 -142.5t5.5 -162l-12 -86h-795q-6 -39 1 -99t40 -117.5t95.5 -98.5t170.5 -41q94 0 189.5 45t152.5 123l80 -76q-88 -109 -199.5 -156t-238.5 -47q-109 0 -192 37t-137 103.5 t-75.5 158t-5.5 201.5zM309 553h672q8 63 -8.5 118.5t-55 97.5t-95 66.5t-124.5 24.5q-100 0 -172.5 -41t-120 -94t-71 -103.5t-25.5 -68.5zM459 -211q6 41 38.5 69.5t73.5 28.5t66 -28.5t18 -69.5q-6 -41 -38.5 -69.5t-73.5 -28.5t-65.5 28.5t-18.5 69.5zM465 1155l260 279 h143l183 -279h-133l-138 205l-194 -205h-121z" />
<glyph unicode="&#x1ec8;" horiz-adv-x="532" d="M199 0l202 1450h136l-203 -1450h-135zM408 1829l12 94q45 18 92 19q104 0 147 -51.5t33 -118.5q-6 -47 -40 -87t-105 -69l-10 -82h-105l19 139q127 25 137 96q6 41 -27 59.5t-80 18.5q-37 0 -73 -18z" />
<glyph unicode="&#x1ec9;" horiz-adv-x="491" d="M184 0l131 946h123l-131 -946h-123zM322 1409l14 94q45 18 90 19q104 0 147 -50.5t33 -117.5q-6 -47 -40 -87t-103 -69l-12 -82h-105l21 139q125 25 135 97q6 41 -27 58t-80 17q-37 0 -73 -18z" />
<glyph unicode="&#x1eca;" horiz-adv-x="532" d="M137 -211q6 41 39 69.5t74 28.5t65.5 -28.5t18.5 -69.5t-39 -69.5t-74 -28.5t-65.5 28.5t-18.5 69.5zM199 0l202 1450h136l-203 -1450h-135z" />
<glyph unicode="&#x1ecb;" horiz-adv-x="491" d="M117 -211q6 41 38.5 69.5t73.5 28.5t65.5 -28.5t18.5 -69.5t-38.5 -69.5t-73.5 -28.5t-65.5 28.5t-18.5 69.5zM184 0l131 946h123l-131 -946h-123zM338 1321q6 39 35.5 65.5t68.5 26.5t62.5 -26.5t17.5 -65.5q-4 -39 -34.5 -65.5t-69.5 -26.5t-61.5 26.5t-18.5 65.5z" />
<glyph unicode="&#x1ecc;" horiz-adv-x="1708" d="M205 725q25 166 99.5 305t188 240.5t259 159t311.5 57.5t296 -57.5t214 -159t120 -240.5t11 -305q-23 -166 -97.5 -306t-188 -241.5t-259 -158t-311.5 -56.5t-296 56.5t-215 158t-120 241.5t-12 306zM340 725q-18 -135 8.5 -252t94 -203t174 -135t247.5 -49t262 49 t213.5 135t151.5 203t78 252q18 135 -7.5 252t-93 203t-175 135t-249.5 49q-141 0 -261.5 -49t-213 -135t-152 -203t-77.5 -252zM727 -211q6 41 39 69.5t74 28.5t65.5 -28.5t18.5 -69.5t-39 -69.5t-74 -28.5t-65.5 28.5t-18.5 69.5z" />
<glyph unicode="&#x1ecd;" horiz-adv-x="1216" d="M176 473q14 109 64.5 200t125 157.5t172 103.5t205.5 37q109 0 195 -37t143.5 -103.5t81 -157.5t8.5 -200q-16 -109 -65 -200t-125 -157.5t-172 -103.5t-205 -37t-195.5 37t-143 103.5t-81 157.5t-8.5 200zM299 473q-12 -80 4 -150.5t57 -123t106.5 -83t151.5 -30.5 t160 30.5t130.5 83t92 123t48.5 150.5q12 80 -4.5 150.5t-57.5 123t-106.5 83t-151.5 30.5t-159.5 -30.5t-130 -83t-92.5 -123t-48 -150.5zM487 -211q6 41 39 69.5t74 28.5t65.5 -28.5t18.5 -69.5t-39 -69.5t-74 -28.5t-65.5 28.5t-18.5 69.5z" />
<glyph unicode="&#x1ece;" horiz-adv-x="1708" d="M205 725q25 166 99.5 305t188 240.5t259 159t311.5 57.5t296 -57.5t214 -159t120 -240.5t11 -305q-23 -166 -97.5 -306t-188 -241.5t-259 -158t-311.5 -56.5t-296 56.5t-215 158t-120 241.5t-12 306zM340 725q-18 -135 8.5 -252t94 -203t174 -135t247.5 -49t262 49 t213.5 135t151.5 203t78 252q18 135 -7.5 252t-93 203t-175 135t-249.5 49q-141 0 -261.5 -49t-213 -135t-152 -203t-77.5 -252zM995 1831l15 94q43 18 90 19q51 0 88 -15.5t58.5 -40t29.5 -57.5t4 -66q-8 -47 -42 -92t-105 -74l-11 -69h-104l18 127q66 12 99.5 42t40.5 64 q4 41 -28 63.5t-79 22.5q-37 0 -74 -18z" />
<glyph unicode="&#x1ecf;" horiz-adv-x="1216" d="M176 473q14 109 64.5 200t125 157.5t172 103.5t205.5 37q109 0 195 -37t143.5 -103.5t81 -157.5t8.5 -200q-16 -109 -65 -200t-125 -157.5t-172 -103.5t-205 -37t-195.5 37t-143 103.5t-81 157.5t-8.5 200zM299 473q-12 -80 4 -150.5t57 -123t106.5 -83t151.5 -30.5 t160 30.5t130.5 83t92 123t48.5 150.5q12 80 -4.5 150.5t-57.5 123t-106.5 83t-151.5 30.5t-159.5 -30.5t-130 -83t-92.5 -123t-48 -150.5zM684 1409l14 94q45 18 90 19q104 0 147.5 -50.5t33.5 -117.5q-6 -47 -40 -87t-104 -69l-12 -82h-104l20 139q125 25 135 97 q6 41 -26.5 58t-79.5 17q-37 0 -74 -18z" />
<glyph unicode="&#x1ed0;" horiz-adv-x="1708" d="M205 725q25 166 99.5 305t187 240.5t259 159t312.5 57.5t296 -57.5t214 -159t120 -240.5t11 -305q-23 -166 -97.5 -306t-187 -241.5t-259 -158t-312.5 -56.5t-296 56.5t-214 158t-120 241.5t-13 306zM340 725q-18 -135 8.5 -252t94 -203t174 -135t247.5 -49t262 49 t213.5 135t151.5 203t78 252q20 135 -6.5 252t-95 203t-175 135t-248.5 49q-141 0 -261.5 -49t-212 -135t-151 -203t-79.5 -252zM653 1556l260 279h144l182 -279h-125l-137 205l-195 -205h-129zM1194 1671l233 250h146l-258 -250h-121z" />
<glyph unicode="&#x1ed1;" horiz-adv-x="1216" d="M176 473q14 109 64.5 200t125 157.5t172 103.5t205.5 37q109 0 195 -37t143.5 -103.5t81 -157.5t8.5 -200q-14 -109 -64 -200t-126 -157.5t-172 -103.5t-205 -37t-195.5 37t-143 103.5t-80 157.5t-9.5 200zM299 473q-12 -80 4 -150.5t58 -123t106.5 -83t150.5 -30.5 t161 30.5t131.5 83t91 123t47.5 150.5q10 80 -5.5 150.5t-57.5 123t-106.5 83t-150.5 30.5t-160.5 -30.5t-131 -83t-92.5 -123t-46 -150.5zM315 1151l263 279h143l180 -279h-125l-135 205l-197 -205h-129zM856 1266l236 250h145l-260 -250h-121z" />
<glyph unicode="&#x1ed2;" horiz-adv-x="1708" d="M205 725q25 166 99.5 305t187 240.5t259 159t312.5 57.5t296 -57.5t214 -159t120 -240.5t11 -305q-23 -166 -97.5 -306t-187 -241.5t-259 -158t-312.5 -56.5t-296 56.5t-214 158t-120 241.5t-13 306zM340 725q-18 -135 8.5 -252t94 -203t174 -135t247.5 -49t262 49 t213.5 135t151.5 203t78 252q20 135 -6.5 252t-95 203t-175 135t-248.5 49q-141 0 -261.5 -49t-212 -135t-151 -203t-79.5 -252zM682 1921h145l164 -250h-121zM913 1556l261 279h143l182 -279h-129l-137 205l-195 -205h-125z" />
<glyph unicode="&#x1ed3;" horiz-adv-x="1216" d="M176 473q14 109 64.5 200t125 157.5t172 103.5t205.5 37q109 0 195 -37t143.5 -103.5t81 -157.5t8.5 -200q-14 -109 -64 -200t-126 -157.5t-172 -103.5t-205 -37t-195.5 37t-143 103.5t-80 157.5t-9.5 200zM299 473q-12 -80 4 -150.5t58 -123t106.5 -83t150.5 -30.5 t161 30.5t131.5 83t91 123t47.5 150.5q10 80 -5.5 150.5t-57.5 123t-106.5 83t-150.5 30.5t-160.5 -30.5t-131 -83t-92.5 -123t-46 -150.5zM328 1516h145l162 -250h-121zM557 1151l262 279h144l180 -279h-129l-135 205l-197 -205h-125z" />
<glyph unicode="&#x1ed4;" horiz-adv-x="1708" d="M205 725q25 166 99.5 305t188 240.5t259 159t311.5 57.5t296 -57.5t214 -159t120 -240.5t11 -305q-23 -166 -97.5 -306t-188 -241.5t-259 -158t-311.5 -56.5t-296 56.5t-215 158t-120 241.5t-12 306zM340 725q-18 -135 8.5 -252t94 -203t174 -135t247.5 -49t262 49 t213.5 135t151.5 203t78 252q18 135 -7.5 252t-93 203t-175 135t-249.5 49q-141 0 -261.5 -49t-213 -135t-152 -203t-77.5 -252zM623 1556l260 279h143l182 -279h-133l-137 205l-195 -205h-120zM1212 1810l13 95q45 18 90 18q104 0 148 -47t34 -115q-6 -47 -39 -85t-104 -66 l-13 -82h-104l20 139q127 25 136 92q6 41 -27 55.5t-80 14.5q-37 0 -74 -19z" />
<glyph unicode="&#x1ed5;" horiz-adv-x="1216" d="M176 473q14 109 64.5 200t125 157.5t172 103.5t205.5 37q109 0 195 -37t143.5 -103.5t81 -157.5t8.5 -200q-16 -109 -65 -200t-125 -157.5t-172 -103.5t-205 -37t-195.5 37t-143 103.5t-81 157.5t-8.5 200zM299 473q-12 -80 4 -150.5t57 -123t106.5 -83t151.5 -30.5 t160 30.5t130.5 83t92 123t48.5 150.5q12 80 -4.5 150.5t-57.5 123t-106.5 83t-151.5 30.5t-159.5 -30.5t-130 -83t-92.5 -123t-48 -150.5zM352 1155l260 279h144l182 -279h-133l-137 205l-195 -205h-121zM940 1409l14 94q45 18 90 19q104 0 147.5 -50.5t33.5 -117.5 q-6 -47 -40 -87t-104 -69l-12 -82h-104l20 139q125 25 135 97q6 41 -26.5 58t-79.5 17q-37 0 -74 -18z" />
<glyph unicode="&#x1ed6;" horiz-adv-x="1708" d="M205 725q25 166 99.5 305t188 240.5t259 159t311.5 57.5t296 -57.5t214 -159t120 -240.5t11 -305q-23 -166 -97.5 -306t-188 -241.5t-259 -158t-311.5 -56.5t-296 56.5t-215 158t-120 241.5t-12 306zM340 725q-18 -135 8.5 -252t94 -203t174 -135t247.5 -49t262 49 t213.5 135t151.5 203t78 252q18 135 -7.5 252t-93 203t-175 135t-249.5 49q-141 0 -261.5 -49t-213 -135t-152 -203t-77.5 -252zM461 1556l260 279h143l183 -279h-134l-137 205l-194 -205h-121zM1075 1556q10 33 27.5 68t42.5 64q29 29 61.5 47t71.5 18q41 0 74.5 -15.5 t66.5 -31.5q29 -16 56.5 -30.5t56.5 -14.5q43 0 69.5 28.5t38.5 63.5h70q-10 -35 -26.5 -69.5t-38.5 -63.5q-25 -29 -55.5 -46.5t-71.5 -17.5q-37 0 -71 14.5t-69 31.5q-33 16 -62.5 31.5t-58.5 15.5q-45 0 -71.5 -29t-40.5 -64h-70z" />
<glyph unicode="&#x1ed7;" horiz-adv-x="1216" d="M176 473q14 109 64.5 200t125 157.5t172 103.5t205.5 37q109 0 195 -37t143.5 -103.5t81 -157.5t8.5 -200q-16 -109 -65 -200t-125 -157.5t-172 -103.5t-205 -37t-195.5 37t-143 103.5t-81 157.5t-8.5 200zM299 473q-12 -80 4 -150.5t57 -123t106.5 -83t151.5 -30.5 t160 30.5t130.5 83t92 123t48.5 150.5q12 80 -4.5 150.5t-57.5 123t-106.5 83t-151.5 30.5t-159.5 -30.5t-130 -83t-92.5 -123t-48 -150.5zM477 1114l260 279h144l182 -279h-133l-137 205l-195 -205h-121zM516 1419q10 33 26.5 68t43.5 63q29 29 60.5 47.5t70.5 18.5 q41 0 75.5 -15.5t65.5 -31.5q29 -16 57.5 -30.5t57.5 -14.5q43 0 68.5 28.5t37.5 63.5h70q-10 -35 -25.5 -70t-40.5 -63q-23 -29 -53.5 -46.5t-71.5 -17.5q-37 0 -70.5 14.5t-68.5 30.5q-33 16 -63.5 31.5t-59.5 15.5q-45 0 -70.5 -28.5t-39.5 -63.5h-70z" />
<glyph unicode="&#x1ed8;" horiz-adv-x="1708" d="M205 725q25 166 99.5 305t188 240.5t259 159t311.5 57.5t296 -57.5t214 -159t120 -240.5t11 -305q-23 -166 -97.5 -306t-188 -241.5t-259 -158t-311.5 -56.5t-296 56.5t-215 158t-120 241.5t-12 306zM340 725q-18 -135 8.5 -252t94 -203t174 -135t247.5 -49t262 49 t213.5 135t151.5 203t78 252q18 135 -7.5 252t-93 203t-175 135t-249.5 49q-141 0 -261.5 -49t-213 -135t-152 -203t-77.5 -252zM727 -211q6 41 39 69.5t74 28.5t65.5 -28.5t18.5 -69.5t-39 -69.5t-74 -28.5t-65.5 28.5t-18.5 69.5zM784 1559l263 278h143l180 -278h-133 l-135 204l-197 -204h-121z" />
<glyph unicode="&#x1ed9;" horiz-adv-x="1216" d="M176 473q14 109 64.5 200t125 157.5t172 103.5t205.5 37q109 0 195 -37t143.5 -103.5t81 -157.5t8.5 -200q-16 -109 -65 -200t-125 -157.5t-172 -103.5t-205 -37t-195.5 37t-143 103.5t-81 157.5t-8.5 200zM299 473q-12 -80 4 -150.5t57 -123t106.5 -83t151.5 -30.5 t160 30.5t130.5 83t92 123t48.5 150.5q12 80 -4.5 150.5t-57.5 123t-106.5 83t-151.5 30.5t-159.5 -30.5t-130 -83t-92.5 -123t-48 -150.5zM481 1155l260 279h144l182 -279h-133l-137 205l-195 -205h-121zM487 -211q6 41 39 69.5t74 28.5t65.5 -28.5t18.5 -69.5t-39 -69.5 t-74 -28.5t-65.5 28.5t-18.5 69.5z" />
<glyph unicode="&#x1eda;" horiz-adv-x="1708" d="M205 725q25 166 99.5 305t188 240.5t259 159t311.5 57.5q66 0 127 -10.5t115 -26.5h168q106 0 155 56.5t60 138.5q10 53 6 104h110q2 -27 1 -54.5t-5 -56.5q-6 -49 -26.5 -98t-57.5 -90t-92 -68.5t-131 -33.5q127 -100 183.5 -261t27.5 -362q-23 -166 -97.5 -306 t-188 -241.5t-259 -158t-311.5 -56.5t-296 56.5t-215 158t-120 241.5t-12 306zM340 725q-18 -135 8.5 -252t94 -203t174 -135t247.5 -49t262 49t213.5 135t151.5 203t78 252q18 135 -7.5 252t-93 203t-175 135t-249.5 49q-141 0 -261.5 -49t-213 -135t-152 -203t-77.5 -252z M950 1540l254 295h164l-315 -295h-103z" />
<glyph unicode="&#x1edb;" horiz-adv-x="1216" d="M176 473q14 109 64.5 200t125 157.5t172 103.5t205.5 37q90 0 162 -25h84q106 0 155.5 56.5t61.5 138.5q4 27 6 53.5t-2 50.5h111q6 -49 -4 -110q-6 -45 -23.5 -90.5t-48.5 -84t-76 -68.5t-106 -42q66 -66 95.5 -163t12.5 -214q-16 -109 -65 -200t-125 -157.5 t-172 -103.5t-205 -37t-195.5 37t-143 103.5t-81 157.5t-8.5 200zM299 473q-12 -80 4 -150.5t57 -123t106.5 -83t151.5 -30.5t160 30.5t130.5 83t92 123t48.5 150.5q12 80 -4.5 150.5t-57.5 123t-106.5 83t-151.5 30.5t-159.5 -30.5t-130 -83t-92.5 -123t-48 -150.5z M651 1155l254 295h164l-315 -295h-103z" />
<glyph unicode="&#x1edc;" horiz-adv-x="1708" d="M205 725q25 166 99.5 305t188 240.5t259 159t311.5 57.5q66 0 127 -10.5t115 -26.5h168q106 0 155 56.5t60 138.5q10 53 6 104h110q2 -27 1 -54.5t-5 -56.5q-6 -49 -26.5 -98t-57.5 -90t-92 -68.5t-131 -33.5q127 -100 183.5 -261t27.5 -362q-23 -166 -97.5 -306 t-188 -241.5t-259 -158t-311.5 -56.5t-296 56.5t-215 158t-120 241.5t-12 306zM340 725q-18 -135 8.5 -252t94 -203t174 -135t247.5 -49t262 49t213.5 135t151.5 203t78 252q18 135 -7.5 252t-93 203t-175 135t-249.5 49q-141 0 -261.5 -49t-213 -135t-152 -203t-77.5 -252z M868 1835h164l172 -295h-102z" />
<glyph unicode="&#x1edd;" horiz-adv-x="1216" d="M176 473q14 109 64.5 200t125 157.5t172 103.5t205.5 37q90 0 162 -25h84q106 0 155.5 56.5t61.5 138.5q4 27 6 53.5t-2 50.5h111q6 -49 -4 -110q-6 -45 -23.5 -90.5t-48.5 -84t-76 -68.5t-106 -42q66 -66 95.5 -163t12.5 -214q-16 -109 -65 -200t-125 -157.5 t-172 -103.5t-205 -37t-195.5 37t-143 103.5t-81 157.5t-8.5 200zM299 473q-12 -80 4 -150.5t57 -123t106.5 -83t151.5 -30.5t160 30.5t130.5 83t92 123t48.5 150.5q12 80 -4.5 150.5t-57.5 123t-106.5 83t-151.5 30.5t-159.5 -30.5t-130 -83t-92.5 -123t-48 -150.5z M553 1450h164l172 -295h-103z" />
<glyph unicode="&#x1ede;" horiz-adv-x="1708" d="M205 725q25 166 99.5 305t188 240.5t259 159t311.5 57.5q66 0 127 -10.5t115 -26.5h168q106 0 155 56.5t60 138.5q10 53 6 104h110q2 -27 1 -54.5t-5 -56.5q-6 -49 -26.5 -98t-57.5 -90t-92 -68.5t-131 -33.5q127 -100 183.5 -261t27.5 -362q-23 -166 -97.5 -306 t-188 -241.5t-259 -158t-311.5 -56.5t-296 56.5t-215 158t-120 241.5t-12 306zM340 725q-18 -135 8.5 -252t94 -203t174 -135t247.5 -49t262 49t213.5 135t151.5 203t78 252q18 135 -7.5 252t-93 203t-175 135t-249.5 49q-141 0 -261.5 -49t-213 -135t-152 -203t-77.5 -252z M997 1829l13 94q45 18 92 19q104 0 147 -51.5t33 -118.5q-6 -47 -40 -87t-105 -69l-11 -82h-104l18 139q127 25 138 96q6 41 -27 59.5t-80 18.5q-37 0 -74 -18z" />
<glyph unicode="&#x1edf;" horiz-adv-x="1216" d="M176 473q14 109 64.5 200t125 157.5t172 103.5t205.5 37q90 0 162 -25h84q106 0 155.5 56.5t61.5 138.5q4 27 6 53.5t-2 50.5h111q6 -49 -4 -110q-6 -45 -23.5 -90.5t-48.5 -84t-76 -68.5t-106 -42q66 -66 95.5 -163t12.5 -214q-16 -109 -65 -200t-125 -157.5 t-172 -103.5t-205 -37t-195.5 37t-143 103.5t-81 157.5t-8.5 200zM299 473q-12 -80 4 -150.5t57 -123t106.5 -83t151.5 -30.5t160 30.5t130.5 83t92 123t48.5 150.5q12 80 -4.5 150.5t-57.5 123t-106.5 83t-151.5 30.5t-159.5 -30.5t-130 -83t-92.5 -123t-48 -150.5z M684 1409l14 94q45 18 90 19q104 0 147.5 -50.5t33.5 -117.5q-6 -47 -40 -87t-104 -69l-12 -82h-104l20 139q125 25 135 97q6 41 -26.5 58t-79.5 17q-37 0 -74 -18z" />
<glyph unicode="&#x1ee0;" horiz-adv-x="1708" d="M205 725q25 166 99.5 305t188 240.5t259 159t311.5 57.5q66 0 127 -10.5t115 -26.5h168q106 0 155 56.5t60 138.5q10 53 6 104h110q2 -27 1 -54.5t-5 -56.5q-6 -49 -26.5 -98t-57.5 -90t-92 -68.5t-131 -33.5q127 -100 183.5 -261t27.5 -362q-23 -166 -97.5 -306 t-188 -241.5t-259 -158t-311.5 -56.5t-296 56.5t-215 158t-120 241.5t-12 306zM340 725q-18 -135 8.5 -252t94 -203t174 -135t247.5 -49t262 49t213.5 135t151.5 203t78 252q18 135 -7.5 252t-93 203t-175 135t-249.5 49q-141 0 -261.5 -49t-213 -135t-152 -203t-77.5 -252z M756 1575q10 35 27.5 73t45.5 66q29 31 64 50.5t76 19.5t76.5 -16.5t68.5 -34.5q33 -16 63.5 -31.5t59.5 -15.5q45 0 72.5 30.5t40.5 67.5h73q-10 -37 -27.5 -75t-41.5 -67q-27 -31 -58.5 -49t-72.5 -18t-77 16.5t-71 32.5t-66.5 32.5t-62.5 16.5q-47 0 -74.5 -30.5 t-42.5 -67.5h-73z" />
<glyph unicode="&#x1ee1;" horiz-adv-x="1216" d="M176 473q14 109 64.5 200t125 157.5t172 103.5t205.5 37q90 0 162 -25h84q106 0 155.5 56.5t61.5 138.5q4 27 6 53.5t-2 50.5h111q6 -49 -4 -110q-6 -45 -23.5 -90.5t-48.5 -84t-76 -68.5t-106 -42q66 -66 95.5 -163t12.5 -214q-16 -109 -65 -200t-125 -157.5 t-172 -103.5t-205 -37t-195.5 37t-143 103.5t-81 157.5t-8.5 200zM299 473q-12 -80 4 -150.5t57 -123t106.5 -83t151.5 -30.5t160 30.5t130.5 83t92 123t48.5 150.5q12 80 -4.5 150.5t-57.5 123t-106.5 83t-151.5 30.5t-159.5 -30.5t-130 -83t-92.5 -123t-48 -150.5z M455 1190q10 35 28.5 72.5t46.5 66.5q29 31 63 50.5t75 19.5t77.5 -16.5t69.5 -34.5q31 -16 62.5 -32t60.5 -16q45 0 71.5 31t39.5 68h73q-10 -37 -26.5 -75t-42 -67.5t-58 -48t-73.5 -18.5t-76 16.5t-70 32.5t-66.5 32.5t-62.5 16.5q-47 0 -74.5 -30.5t-44.5 -67.5h-73z " />
<glyph unicode="&#x1ee2;" horiz-adv-x="1708" d="M205 725q25 166 99.5 305t188 240.5t259 159t311.5 57.5q66 0 127 -10.5t115 -26.5h168q106 0 155 56.5t60 138.5q10 53 6 104h110q2 -27 1 -54.5t-5 -56.5q-6 -49 -26.5 -98t-57.5 -90t-92 -68.5t-131 -33.5q127 -100 183.5 -261t27.5 -362q-23 -166 -97.5 -306 t-188 -241.5t-259 -158t-311.5 -56.5t-296 56.5t-215 158t-120 241.5t-12 306zM340 725q-18 -135 8.5 -252t94 -203t174 -135t247.5 -49t262 49t213.5 135t151.5 203t78 252q18 135 -7.5 252t-93 203t-175 135t-249.5 49q-141 0 -261.5 -49t-213 -135t-152 -203t-77.5 -252z M727 -211q6 41 39 69.5t74 28.5t65.5 -28.5t18.5 -69.5t-39 -69.5t-74 -28.5t-65.5 28.5t-18.5 69.5z" />
<glyph unicode="&#x1ee3;" horiz-adv-x="1216" d="M176 473q14 109 64.5 200t125 157.5t172 103.5t205.5 37q90 0 162 -25h84q106 0 155.5 56.5t61.5 138.5q4 27 6 53.5t-2 50.5h111q6 -49 -4 -110q-6 -45 -23.5 -90.5t-48.5 -84t-76 -68.5t-106 -42q66 -66 95.5 -163t12.5 -214q-16 -109 -65 -200t-125 -157.5 t-172 -103.5t-205 -37t-195.5 37t-143 103.5t-81 157.5t-8.5 200zM299 473q-12 -80 4 -150.5t57 -123t106.5 -83t151.5 -30.5t160 30.5t130.5 83t92 123t48.5 150.5q12 80 -4.5 150.5t-57.5 123t-106.5 83t-151.5 30.5t-159.5 -30.5t-130 -83t-92.5 -123t-48 -150.5z M487 -211q6 41 39 69.5t74 28.5t65.5 -28.5t18.5 -69.5t-39 -69.5t-74 -28.5t-65.5 28.5t-18.5 69.5z" />
<glyph unicode="&#x1ee4;" horiz-adv-x="1400" d="M244.5 331.5q-11.5 106.5 5.5 223.5l125 895h135l-121 -860q-10 -78 -9 -166t32.5 -164t101.5 -125t197 -49t211 49t137 125t79.5 164t37.5 166l120 860h136l-125 -895q-16 -117 -58.5 -223.5t-116 -188.5t-182 -131t-256.5 -49q-147 0 -241.5 49t-145.5 131t-62.5 188.5 zM567 -211q6 41 39 69.5t74 28.5t65.5 -28.5t18.5 -69.5t-39 -69.5t-74 -28.5t-65.5 28.5t-18.5 69.5z" />
<glyph unicode="&#x1ee5;" d="M201 231.5q-4 73.5 6 151.5l78 563h123l-78 -557q-8 -57 -6 -111.5t22.5 -97.5t62.5 -68.5t115 -25.5q68 0 131.5 23.5t114.5 71.5t87 121t50 171l66 473h123l-95 -680q-4 -27 -8 -64.5t-7 -76.5t-6 -73t-5 -52h-123q4 53 10 102.5t4 63.5h-6q-25 -39 -60.5 -74 t-80.5 -60.5t-98.5 -41t-110.5 -15.5q-111 0 -176.5 35t-97 91.5t-35.5 130zM406 -211q6 41 38.5 69.5t73.5 28.5t65.5 -28.5t18.5 -69.5t-39 -69.5t-74 -28.5t-65 28.5t-18 69.5z" />
<glyph unicode="&#x1ee6;" horiz-adv-x="1400" d="M244.5 331.5q-11.5 106.5 5.5 223.5l125 895h135l-121 -860q-10 -78 -9 -166t32.5 -164t101.5 -125t197 -49t211 49t137 125t79.5 164t37.5 166l120 860h136l-125 -895q-16 -117 -58.5 -223.5t-116 -188.5t-182 -131t-256.5 -49q-147 0 -241.5 49t-145.5 131t-62.5 188.5 zM834 1831l14 94q43 18 90 19q51 0 88 -15.5t58.5 -40t29.5 -57.5t4 -66q-8 -47 -42 -92t-105 -74l-8 -63h-105l16 121q66 12 100 42t40 64q4 41 -28 63.5t-79 22.5q-37 0 -73 -18z" />
<glyph unicode="&#x1ee7;" d="M201 231.5q-4 73.5 6 151.5l78 563h123l-78 -557q-8 -57 -6 -111.5t22.5 -97.5t62.5 -68.5t115 -25.5q68 0 131.5 23.5t114.5 71.5t87 121t50 171l66 473h123l-95 -680q-4 -27 -8 -64.5t-7 -76.5t-6 -73t-5 -52h-123q4 53 10 102.5t4 63.5h-6q-25 -39 -60.5 -74 t-80.5 -60.5t-98.5 -41t-110.5 -15.5q-111 0 -176.5 35t-97 91.5t-35.5 130zM631 1409l14 94q45 18 90 19q104 0 147.5 -50.5t32.5 -117.5q-6 -47 -39.5 -87t-103.5 -69l-12 -82h-105l21 139q125 25 135 97q6 41 -26.5 58t-79.5 17q-37 0 -74 -18z" />
<glyph unicode="&#x1ee8;" horiz-adv-x="1400" d="M244.5 331.5q-11.5 106.5 5.5 223.5l125 895h135l-121 -860q-10 -78 -9 -166t32.5 -164t101.5 -125t197 -49t211 49t137 125t79.5 164t37.5 166l120 860h136q106 0 155 56.5t60 138.5q10 53 6 104h110q2 -27 1 -54.5t-5 -56.5q-6 -49 -26.5 -99t-58.5 -91t-95 -68.5 t-137 -31.5h-25l-110 -793q-16 -117 -58.5 -223.5t-116 -188.5t-182 -131t-256.5 -49q-147 0 -241.5 49t-145.5 131t-62.5 188.5zM797 1540l254 295h163l-315 -295h-102z" />
<glyph unicode="&#x1ee9;" d="M201 231.5q-4 73.5 6 151.5l78 563h123l-78 -557q-8 -57 -6 -111.5t22.5 -97.5t62.5 -68.5t115 -25.5q68 0 131.5 23.5t114.5 71.5t87 121t50 171l66 473h94q106 0 155.5 56.5t61.5 138.5q4 27 6 53.5t-2 50.5h111q6 -49 -4 -110q-6 -49 -26.5 -99.5t-58.5 -91.5 t-94.5 -68.5t-134.5 -31.5l-80 -578q-4 -27 -8 -64.5t-7 -76.5t-6 -73t-5 -52h-123q4 53 10 102.5t4 63.5h-6q-25 -39 -60.5 -74t-80.5 -60.5t-98.5 -41t-110.5 -15.5q-111 0 -176.5 35t-97 91.5t-35.5 130zM612 1155l254 295h164l-315 -295h-103z" />
<glyph unicode="&#x1eea;" horiz-adv-x="1400" d="M244.5 331.5q-11.5 106.5 5.5 223.5l125 895h135l-121 -860q-10 -78 -9 -166t32.5 -164t101.5 -125t197 -49t211 49t137 125t79.5 164t37.5 166l120 860h136q106 0 155 56.5t60 138.5q10 53 6 104h110q2 -27 1 -54.5t-5 -56.5q-6 -49 -26.5 -99t-58.5 -91t-95 -68.5 t-137 -31.5h-25l-110 -793q-16 -117 -58.5 -223.5t-116 -188.5t-182 -131t-256.5 -49q-147 0 -241.5 49t-145.5 131t-62.5 188.5zM694 1835h164l172 -295h-102z" />
<glyph unicode="&#x1eeb;" d="M201 231.5q-4 73.5 6 151.5l78 563h123l-78 -557q-8 -57 -6 -111.5t22.5 -97.5t62.5 -68.5t115 -25.5q68 0 131.5 23.5t114.5 71.5t87 121t50 171l66 473h94q106 0 155.5 56.5t61.5 138.5q4 27 6 53.5t-2 50.5h111q6 -49 -4 -110q-6 -49 -26.5 -99.5t-58.5 -91.5 t-94.5 -68.5t-134.5 -31.5l-80 -578q-4 -27 -8 -64.5t-7 -76.5t-6 -73t-5 -52h-123q4 53 10 102.5t4 63.5h-6q-25 -39 -60.5 -74t-80.5 -60.5t-98.5 -41t-110.5 -15.5q-111 0 -176.5 35t-97 91.5t-35.5 130zM530 1450h164l172 -295h-102z" />
<glyph unicode="&#x1eec;" horiz-adv-x="1400" d="M244.5 331.5q-11.5 106.5 5.5 223.5l125 895h135l-121 -860q-10 -78 -9 -166t32.5 -164t101.5 -125t197 -49t211 49t137 125t79.5 164t37.5 166l120 860h136q106 0 155 56.5t60 138.5q10 53 6 104h110q2 -27 1 -54.5t-5 -56.5q-6 -49 -26.5 -99t-58.5 -91t-95 -68.5 t-137 -31.5h-25l-110 -793q-16 -117 -58.5 -223.5t-116 -188.5t-182 -131t-256.5 -49q-147 0 -241.5 49t-145.5 131t-62.5 188.5zM834 1831l14 94q43 18 90 19q102 0 145 -53.5t35 -121.5q-6 -47 -41 -90t-104 -71l-10 -74h-105l19 131q66 12 99.5 40t37.5 62q6 41 -27 61.5 t-80 20.5q-37 0 -73 -18z" />
<glyph unicode="&#x1eed;" d="M201 231.5q-4 73.5 6 151.5l78 563h123l-78 -557q-8 -57 -6 -111.5t22.5 -97.5t62.5 -68.5t115 -25.5q68 0 131.5 23.5t114.5 71.5t87 121t50 171l66 473h94q106 0 155.5 56.5t61.5 138.5q4 27 6 53.5t-2 50.5h111q6 -49 -4 -110q-6 -49 -26.5 -99.5t-58.5 -91.5 t-94.5 -68.5t-134.5 -31.5l-80 -578q-4 -27 -8 -64.5t-7 -76.5t-6 -73t-5 -52h-123q4 53 10 102.5t4 63.5h-6q-25 -39 -60.5 -74t-80.5 -60.5t-98.5 -41t-110.5 -15.5q-111 0 -176.5 35t-97 91.5t-35.5 130zM627 1409l14 94q45 18 90 19q104 0 147.5 -50.5t32.5 -117.5 q-6 -47 -39.5 -87t-103.5 -69l-12 -82h-105l21 139q125 25 135 97q6 41 -26.5 58t-80.5 17q-37 0 -73 -18z" />
<glyph unicode="&#x1eee;" horiz-adv-x="1400" d="M244.5 331.5q-11.5 106.5 5.5 223.5l125 895h135l-121 -860q-10 -78 -9 -166t32.5 -164t101.5 -125t197 -49t211 49t137 125t79.5 164t37.5 166l120 860h136q106 0 155 56.5t60 138.5q10 53 6 104h110q2 -27 1 -54.5t-5 -56.5q-6 -49 -26.5 -99t-58.5 -91t-95 -68.5 t-137 -31.5h-25l-110 -793q-16 -117 -58.5 -223.5t-116 -188.5t-182 -131t-256.5 -49q-147 0 -241.5 49t-145.5 131t-62.5 188.5zM621 1556q10 33 27.5 68t41.5 64q29 29 61.5 47t71.5 18q41 0 75 -15.5t67 -31.5q29 -16 56.5 -30.5t55.5 -14.5q43 0 70 28.5t39 63.5h69 q-10 -35 -26.5 -69.5t-38.5 -63.5q-25 -29 -55.5 -46.5t-71.5 -17.5q-37 0 -71 14.5t-68 31.5q-33 16 -63 31.5t-58 15.5q-45 0 -71.5 -29t-41.5 -64h-69z" />
<glyph unicode="&#x1eef;" d="M201 231.5q-4 73.5 6 151.5l78 563h123l-78 -557q-8 -57 -6 -111.5t22.5 -97.5t62.5 -68.5t115 -25.5q68 0 131.5 23.5t114.5 71.5t87 121t50 171l66 473h94q106 0 155.5 56.5t61.5 138.5q4 27 6 53.5t-2 50.5h111q6 -49 -4 -110q-6 -49 -26.5 -99.5t-58.5 -91.5 t-94.5 -68.5t-134.5 -31.5l-80 -578q-4 -27 -8 -64.5t-7 -76.5t-6 -73t-5 -52h-123q4 53 10 102.5t4 63.5h-6q-25 -39 -60.5 -74t-80.5 -60.5t-98.5 -41t-110.5 -15.5q-111 0 -176.5 35t-97 91.5t-35.5 130zM440 1190q10 33 27.5 67.5t42.5 63.5q29 29 61.5 47t71.5 18 q41 0 75 -15t64 -32q29 -16 57.5 -30.5t57.5 -14.5q43 0 69.5 29t39.5 63h69q-10 -35 -26.5 -69.5t-38.5 -63.5q-25 -29 -55.5 -46t-71.5 -17q-37 0 -71 14.5t-69 30.5q-33 16 -63.5 31.5t-58.5 15.5q-45 0 -71 -28.5t-40 -63.5h-70z" />
<glyph unicode="&#x1ef0;" horiz-adv-x="1400" d="M244.5 331.5q-11.5 106.5 5.5 223.5l125 895h135l-121 -860q-10 -78 -9 -166t32.5 -164t101.5 -125t197 -49t211 49t137 125t79.5 164t37.5 166l120 860h136q106 0 155 56.5t60 138.5q10 53 6 104h110q2 -27 1 -54.5t-5 -56.5q-6 -49 -26.5 -99t-58.5 -91t-95 -68.5 t-137 -31.5h-25l-110 -793q-16 -117 -58.5 -223.5t-116 -188.5t-182 -131t-256.5 -49q-147 0 -241.5 49t-145.5 131t-62.5 188.5zM567 -211q6 41 39 69.5t74 28.5t65.5 -28.5t18.5 -69.5t-39 -69.5t-74 -28.5t-65.5 28.5t-18.5 69.5z" />
<glyph unicode="&#x1ef1;" d="M201 231.5q-4 73.5 6 151.5l78 563h123l-78 -557q-8 -57 -6 -111.5t22.5 -97.5t62.5 -68.5t115 -25.5q68 0 131.5 23.5t114.5 71.5t87 121t50 171l66 473h94q106 0 155.5 56.5t61.5 138.5q4 27 6 53.5t-2 50.5h111q6 -49 -4 -110q-6 -49 -26.5 -99.5t-58.5 -91.5 t-94.5 -68.5t-134.5 -31.5l-80 -578q-4 -27 -8 -64.5t-7 -76.5t-6 -73t-5 -52h-123q4 53 10 102.5t4 63.5h-6q-25 -39 -60.5 -74t-80.5 -60.5t-98.5 -41t-110.5 -15.5q-111 0 -176.5 35t-97 91.5t-35.5 130zM406 -211q6 41 38.5 69.5t73.5 28.5t65.5 -28.5t18.5 -69.5 t-39 -69.5t-74 -28.5t-65 28.5t-18 69.5z" />
<glyph unicode="&#x1ef2;" horiz-adv-x="1175" d="M190 1450h162l342 -688l545 688h152l-650 -825l-86 -625h-135l86 625zM573 1835h164l172 -295h-102z" />
<glyph unicode="&#x1ef3;" horiz-adv-x="948" d="M-16 -473l26 115q25 -8 51.5 -15.5t55.5 -7.5q33 0 60.5 14.5t49 37t39 50t31.5 56.5l117 219l-252 950h137l203 -796l416 796h131l-662 -1239q-47 -92 -115.5 -145.5t-171.5 -53.5q-31 0 -60.5 5.5t-55.5 13.5zM424 1450h164l172 -295h-103z" />
<glyph unicode="&#x1ef4;" horiz-adv-x="1175" d="M190 1450h162l342 -688l545 688h152l-650 -825l-86 -625h-135l86 625zM453 -211q6 41 38.5 69.5t73.5 28.5t65.5 -28.5t18.5 -69.5t-38.5 -69.5t-73.5 -28.5t-65.5 28.5t-18.5 69.5z" />
<glyph unicode="&#x1ef5;" horiz-adv-x="948" d="M-16 -473l26 115q25 -8 51.5 -15.5t55.5 -7.5q33 0 60.5 14.5t49 37t39 50t31.5 56.5l117 219l-252 950h137l203 -796l416 796h131l-662 -1239q-47 -92 -115.5 -145.5t-171.5 -53.5q-31 0 -60.5 5.5t-55.5 13.5zM549 -211q6 41 39 69.5t74 28.5t65.5 -28.5t17.5 -69.5 q-6 -41 -38.5 -69.5t-73.5 -28.5t-65.5 28.5t-18.5 69.5z" />
<glyph unicode="&#x1ef6;" horiz-adv-x="1175" d="M190 1450h162l342 -688l545 688h152l-650 -825l-86 -625h-135l86 625zM731 1831l14 94q43 18 91 19q51 0 88 -15.5t58.5 -40t29.5 -57.5t4 -66q-8 -47 -42 -92t-106 -74l-8 -63h-104l16 121q66 12 99.5 42t39.5 64q4 41 -27.5 63.5t-78.5 22.5q-37 0 -74 -18z" />
<glyph unicode="&#x1ef7;" horiz-adv-x="948" d="M-16 -473l26 115q25 -8 51.5 -15.5t55.5 -7.5q33 0 60.5 14.5t49 37t39 50t31.5 56.5l117 219l-252 950h137l203 -796l416 796h131l-662 -1239q-47 -92 -115.5 -145.5t-171.5 -53.5q-31 0 -60.5 5.5t-55.5 13.5zM545 1409l14 94q45 18 90 19q104 0 147.5 -50.5 t32.5 -117.5q-6 -47 -39.5 -87t-103.5 -69l-12 -82h-105l21 139q125 25 135 97q6 41 -26.5 58t-80.5 17q-37 0 -73 -18z" />
<glyph unicode="&#x1ef8;" horiz-adv-x="1175" d="M190 1450h162l342 -688l545 688h152l-650 -825l-86 -625h-135l86 625zM518 1556q10 33 27.5 68t42.5 64q29 29 61.5 47t71.5 18q41 0 74.5 -15.5t66.5 -31.5q29 -16 56.5 -30.5t56.5 -14.5q43 0 69.5 28.5t38.5 63.5h70q-10 -35 -26.5 -69.5t-39.5 -63.5 q-25 -29 -55.5 -46.5t-70.5 -17.5q-37 0 -71 14.5t-69 31.5q-33 16 -62.5 31.5t-58.5 15.5q-45 0 -71.5 -29t-40.5 -64h-70z" />
<glyph unicode="&#x1ef9;" horiz-adv-x="948" d="M-16 -473l26 115q25 -8 51.5 -15.5t55.5 -7.5q33 0 60.5 14.5t49 37t39 50t31.5 56.5l117 219l-252 950h137l203 -796l416 796h131l-662 -1239q-47 -92 -115.5 -145.5t-171.5 -53.5q-31 0 -60.5 5.5t-55.5 13.5zM348 1190q10 33 27.5 67.5t42.5 63.5q29 29 61.5 47 t71.5 18q41 0 74.5 -15t64.5 -32q29 -16 57.5 -30.5t57.5 -14.5q43 0 69.5 29t38.5 63h70q-10 -35 -26.5 -69.5t-38.5 -63.5q-25 -29 -56 -46t-71 -17q-37 0 -71 14.5t-69 30.5q-33 16 -63.5 31.5t-59.5 15.5q-45 0 -70.5 -28.5t-39.5 -63.5h-70z" />
<glyph unicode="&#x2011;" horiz-adv-x="681" d="M147 430l17 111h506l-17 -111h-506z" />
<glyph unicode="&#x2013;" horiz-adv-x="1024" d="M59 430l17 111h1024l-17 -111h-1024z" />
<glyph unicode="&#x2014;" horiz-adv-x="2048" d="M59 430l17 111h2048l-17 -111h-2048z" />
<glyph unicode="&#x2015;" horiz-adv-x="2048" d="M326 430l16 111h1516l-17 -111h-1515z" />
<glyph unicode="&#x2018;" horiz-adv-x="532" d="M264 983l221 467h123l-196 -467h-148z" />
<glyph unicode="&#x2019;" horiz-adv-x="532" d="M264 983l195 467h149l-223 -467h-121z" />
<glyph unicode="&#x201a;" horiz-adv-x="532" d="M86 -283l195 467h149l-223 -467h-121z" />
<glyph unicode="&#x201c;" horiz-adv-x="1064" d="M352 983l223 467h121l-194 -467h-150zM709 983l223 467h121l-195 -467h-149z" />
<glyph unicode="&#x201d;" horiz-adv-x="1064" d="M352 983l195 467h149l-223 -467h-121zM709 983l194 467h150l-224 -467h-120z" />
<glyph unicode="&#x201e;" horiz-adv-x="1064" d="M174 -283l195 467h149l-223 -467h-121zM530 -283l195 467h149l-223 -467h-121z" />
<glyph unicode="&#x2020;" horiz-adv-x="1064" d="M209 944l14 98h393l58 408h123l-58 -408h394l-15 -98h-393l-168 -1202h-123l168 1202h-393z" />
<glyph unicode="&#x2021;" horiz-adv-x="1064" d="M98 150l15 98h393l96 696h-393l14 98h393l58 408h123l-58 -408h394l-15 -98h-393l-96 -696h393l-14 -98h-394l-57 -408h-123l58 408h-394z" />
<glyph unicode="&#x2022;" horiz-adv-x="1024" d="M250 725q10 76 48 141.5t94.5 114.5t126 77.5t145.5 28.5t137 -28.5t104 -77.5t61.5 -114.5t8.5 -141.5t-48 -141.5t-94.5 -114.5t-126 -78t-145.5 -29t-137.5 29t-104.5 78t-61 114.5t-8 141.5z" />
<glyph unicode="&#x2026;" horiz-adv-x="2048" d="M254 86q6 41 39 69.5t74 28.5t65.5 -28.5t18.5 -69.5q-4 -41 -37 -69.5t-74 -28.5t-65.5 28.5t-20.5 69.5zM936 86q6 41 39 69.5t74 28.5t65.5 -28.5t18.5 -69.5q-4 -41 -37 -69.5t-74 -28.5t-65.5 28.5t-20.5 69.5zM1618 86q6 41 39 69.5t74 28.5t65.5 -28.5t18.5 -69.5 q-4 -41 -37 -69.5t-74 -28.5t-65.5 28.5t-20.5 69.5z" />
</font>
</defs>
</svg>
