<?xml version="1.0" standalone="no"?>
<!DOCTYPE svg PUBLIC "-//W3C//DTD SVG 1.1//EN" "http://www.w3.org/Graphics/SVG/1.1/DTD/svg11.dtd" >
<svg xmlns="http://www.w3.org/2000/svg">
<metadata></metadata>
<defs>
<font id="avenir_tpblack" horiz-adv-x="1175" >
<font-face units-per-em="2048" ascent="1548" descent="-500" />
<missing-glyph horiz-adv-x="606" />
<glyph unicode="fi" horiz-adv-x="1290" d="M12 750v245h203v176q0 82 14.5 155t55.5 128t117.5 87t201.5 32q47 0 92 -4t88 -15l-14 -260q-27 10 -49.5 15.5t-50.5 5.5q-74 0 -111 -32t-37 -130v-158h228v-245h-228v-750h-307v750h-203zM846 1309q0 74 52 126t126 52t126 -52.5t52 -125.5q0 -74 -52 -126.5 t-126 -52.5t-126 52.5t-52 126.5zM870 0v995h308v-995h-308z" />
<glyph unicode="fl" horiz-adv-x="1290" d="M12 750v245h203v176q0 82 14.5 155t55.5 128t117.5 87t201.5 32q47 0 92 -4t88 -15l-14 -260q-27 10 -49.5 15.5t-50.5 5.5q-74 0 -111 -32t-37 -130v-158h228v-245h-228v-750h-307v750h-203zM870 0v1548h308v-1548h-308z" />
<glyph unicode="&#xd;" horiz-adv-x="606" />
<glyph unicode=" "  horiz-adv-x="606" />
<glyph unicode="&#x09;" horiz-adv-x="606" />
<glyph unicode="&#xa0;" horiz-adv-x="606" />
<glyph unicode="!" horiz-adv-x="909" d="M266 176q0 39 14.5 74t40 60.5t60.5 40t74 14.5t73.5 -14.5t60 -40t40 -60.5t14.5 -74t-14.5 -73.5t-40 -60.5t-60 -40t-73.5 -14t-74 14t-60.5 40t-40 60.5t-14.5 73.5zM301 479v971h307v-971h-307z" />
<glyph unicode="&#x22;" horiz-adv-x="1064" d="M166 872v578h258v-578h-258zM641 872v578h258v-578h-258z" />
<glyph unicode="#" horiz-adv-x="1212" d="M92 412v184h197l35 258h-172v184h196l58 412h198l-57 -412h203l57 412h199l-58 -412h172v-184h-196l-35 -258h172v-184h-197l-57 -412h-199l58 412h-203l-57 -412h-199l57 412h-172zM487 596h203l35 258h-203z" />
<glyph unicode="$" horiz-adv-x="1212" d="M31 141l217 244q53 -66 129 -93.5t160 -33.5v346l-150 45q-156 49 -236.5 138.5t-80.5 244.5q0 96 38.5 174t103 133.5t149.5 90t176 45.5v143h135v-143q111 0 229.5 -29t208.5 -100l-197 -240q-49 43 -112.5 62.5t-128.5 23.5v-326l196 -57q135 -41 216 -134t81 -237 q0 -109 -39 -190.5t-106.5 -139t-157.5 -90t-190 -43.5v-143h-135v143q-135 0 -269.5 37t-236.5 129zM389 1047q0 -47 18.5 -74t43 -42.5t49 -21.5t37.5 -10v287q-57 -12 -102.5 -43t-45.5 -96zM672 262q31 6 62.5 17.5t56 30t40 44t15.5 60.5q0 33 -11.5 55.5t-30 37.5 t-43 26.5t-50.5 21.5l-39 14v-307z" />
<glyph unicode="%" horiz-adv-x="1857" d="M10 1069q0 84 32 157.5t86 129t128 87.5t158 32t157.5 -32t128 -87.5t86 -129t31.5 -157.5t-31.5 -157.5t-86 -129t-128 -87t-157.5 -31.5t-158 31.5t-128 87t-86 129t-32 157.5zM219 1069q0 -82 56.5 -139.5t138.5 -57.5t138 57.5t56 139.5t-56 139.5t-138 57.5 t-138.5 -57.5t-56.5 -139.5zM430 23l830 1493l172 -97l-846 -1485zM1040 383q0 84 32 157.5t86 129t128 87t158 31.5t157.5 -31.5t128 -87t86 -129t31.5 -157.5t-31.5 -158.5t-86 -130t-128 -87.5t-157.5 -32t-158 32t-128 87.5t-86 130t-32 158.5zM1249 383 q0 -84 56.5 -141.5t138.5 -57.5t138 57.5t56 141.5q0 82 -56 139.5t-138 57.5t-138.5 -57.5t-56.5 -139.5z" />
<glyph unicode="&#x26;" horiz-adv-x="1554" d="M86 397q0 70 23.5 132.5t65.5 113.5t97.5 89t120.5 61q-35 39 -64.5 73.5t-51 73.5t-33 82t-11.5 96q0 98 38 168t101.5 115t145.5 65.5t168 20.5q84 0 160 -21.5t134 -65.5t93 -110.5t35 -159.5q0 -66 -21.5 -121t-58.5 -103t-85 -86t-103 -66l186 -199l141 193h357 l-305 -406l323 -342h-395l-121 137q-90 -92 -193.5 -133t-232.5 -41q-98 0 -190.5 26.5t-165 81t-115.5 136.5t-43 190zM418 412q0 -41 16.5 -74t43 -55.5t62 -36t72.5 -13.5q72 0 124 31t104 76l-256 278q-31 -18 -60.5 -37.5t-53.5 -43t-38 -54t-14 -71.5zM541 1106 q0 -27 12 -52.5t29.5 -49t39 -44t40.5 -36.5q25 14 53 33.5t53 43t41 51t16 58.5q0 63 -42 97t-101 34t-100 -37t-41 -98z" />
<glyph unicode="'" horiz-adv-x="606" d="M174 872v578h258v-578h-258z" />
<glyph unicode="(" horiz-adv-x="643" d="M90 590q0 254 77 472t218 429l4 8l211 -123q-61 -98 -110.5 -188t-83 -183.5t-52 -194.5t-18.5 -220t18.5 -220.5t52 -194.5t83 -183t110.5 -189l-211 -122l-4 8q-141 211 -218 429t-77 472z" />
<glyph unicode=")" horiz-adv-x="643" d="M43 -197q61 98 110.5 188.5t83 183.5t52 194.5t18.5 220.5t-18.5 220t-52 194.5t-83 183.5t-110.5 188l211 123l4 -8q141 -211 218 -429t77 -472t-77 -472t-218 -429l-4 -8z" />
<glyph unicode="*" horiz-adv-x="987" d="M57 1069l66 195l268 -97v283h209v-283l268 88l62 -194l-268 -86l169 -234l-169 -125l-173 236l-165 -225l-166 125l172 223z" />
<glyph unicode="+" horiz-adv-x="1363" d="M121 492v258h432v432h258v-432h432v-258h-432v-433h-258v433h-432z" />
<glyph unicode="," horiz-adv-x="606" d="M35 -246l151 578h295l-184 -578h-262z" />
<glyph unicode="-" horiz-adv-x="606" d="M51 387v246h504v-246h-504z" />
<glyph unicode="." horiz-adv-x="606" d="M115 176q0 39 14 74t40 60.5t60.5 40t73.5 14.5t74 -14.5t60.5 -40t40 -60.5t14.5 -74t-14.5 -73.5t-40 -60.5t-60.5 -40t-74 -14t-73.5 14t-60.5 40t-40 60.5t-14 73.5z" />
<glyph unicode="/" horiz-adv-x="833" d="M-6 -37l612 1596l234 -72l-615 -1596z" />
<glyph unicode="0" horiz-adv-x="1212" d="M68 725q0 129 23.5 262t84 241.5t164.5 177.5t266 69t266.5 -69t165 -177.5t84 -241.5t23.5 -262t-23.5 -262t-84 -241.5t-165 -177.5t-266.5 -69t-266 69t-164.5 177.5t-84 241.5t-23.5 262zM375 725q0 -57 5 -137t27.5 -154t68.5 -125t130 -51q82 0 129 51t69.5 125 t28 154t5.5 137t-5.5 137t-28 154t-69.5 125t-129 51q-84 0 -130 -51t-68.5 -125t-27.5 -154t-5 -137z" />
<glyph unicode="1" horiz-adv-x="1212" d="M125 1051l473 399h287v-1450h-295v1106l-291 -256z" />
<glyph unicode="2" horiz-adv-x="1212" d="M100 0v326l564 505q43 39 86 88.5t43 114.5q0 74 -53.5 116t-125.5 42q-86 0 -134 -53.5t-54 -130.5l-307 22q6 113 47 196t108.5 138t158.5 83t198 28q98 0 184 -28t149.5 -82t99.5 -136t36 -191q0 -70 -14.5 -126t-40 -102t-60.5 -85t-76 -76l-440 -379h643v-270h-1012 z" />
<glyph unicode="3" horiz-adv-x="1212" d="M66 350l323 76q16 -78 66.5 -123t148.5 -45q100 0 148.5 52t48.5 134q0 61 -25.5 95t-66.5 50.5t-92.5 19.5t-102.5 3h-72v267h101q43 0 84 6t74.5 23.5t54 49t20.5 82.5q0 66 -52 109t-128 43q-72 0 -119 -39t-61 -96l-338 69q25 94 74 161t116.5 108t150.5 60.5 t175 19.5q96 0 185 -24t157 -74t107.5 -125.5t39.5 -180.5q0 -121 -63.5 -207t-183.5 -110v-6q66 -8 115.5 -39t84.5 -76t53.5 -102.5t18.5 -120.5q0 -109 -42 -191t-112.5 -136t-166 -81t-201.5 -27q-195 0 -335 90.5t-185 284.5z" />
<glyph unicode="4" horiz-adv-x="1212" d="M49 291v258l592 901h336v-901h186v-258h-186v-291h-295v291h-633zM356 549h326v500h-4z" />
<glyph unicode="5" horiz-adv-x="1212" d="M66 346l321 74q12 -78 65.5 -126t133.5 -48q98 0 156.5 61.5t58.5 155.5q0 72 -30 118t-78 73.5t-107.5 37.5t-118.5 10q-76 0 -152.5 -14t-148.5 -39l16 801h877v-270h-576l-6 -224q47 16 129 17q111 0 203 -33t158.5 -95.5t103.5 -151.5t37 -199q0 -123 -42 -219.5 t-115.5 -163t-175 -101.5t-220.5 -35q-188 0 -315 92.5t-174 278.5z" />
<glyph unicode="6" horiz-adv-x="1212" d="M61 473q0 78 14.5 142.5t38 122t55.5 109.5t67 107l317 496h375l-340 -518q25 6 49.5 10t50.5 4q102 0 186 -37t143.5 -100.5t92.5 -150.5t33 -185q0 -113 -42 -204t-115 -156.5t-172 -101.5t-212 -36q-115 0 -213 36t-171 101.5t-115 156.5t-42 204zM369 485 q0 -98 64.5 -162.5t168.5 -64.5t169 64.5t65 162.5t-64.5 163t-169.5 65q-104 0 -168.5 -64.5t-64.5 -163.5z" />
<glyph unicode="7" horiz-adv-x="1212" d="M76 1167v283h1061v-270l-580 -1180h-358l594 1167h-717z" />
<glyph unicode="8" horiz-adv-x="1212" d="M96 397q0 135 70 226.5t201 126.5v4q-117 35 -181.5 118.5t-64.5 202.5q0 100 38 175t104.5 125t154.5 75t188 25t188.5 -25t154 -75t104.5 -124.5t39 -175.5q0 -119 -64.5 -203t-181.5 -118v-4q131 -35 200.5 -126.5t69.5 -226.5q0 -104 -42 -184t-112.5 -132 t-162.5 -79t-193 -27q-100 0 -192 27t-163 79t-113 132t-42 184zM403 440q0 -76 55.5 -129t147.5 -53t147.5 53.5t55.5 128.5q0 78 -55.5 131.5t-147.5 53.5t-147.5 -53.5t-55.5 -131.5zM428 1032q0 -68 49 -115t129 -47t129 47.5t49 114.5q0 66 -49 113t-129 47t-129 -47 t-49 -113z" />
<glyph unicode="9" horiz-adv-x="1212" d="M70 977q0 113 42 204t114.5 156.5t171 101.5t212.5 36q113 0 212.5 -36t172 -101.5t114.5 -156.5t42 -204q0 -78 -14.5 -142.5t-38 -122t-55 -109.5t-66.5 -107l-318 -496h-374l340 518q-25 -6 -49.5 -10t-51.5 -4q-102 0 -186 37t-143.5 100.5t-92 150.5t-32.5 185z M377 965q0 -98 64.5 -163t168.5 -65t169 64.5t65 163.5q0 98 -64.5 162.5t-169.5 64.5q-104 0 -168.5 -64.5t-64.5 -162.5z" />
<glyph unicode=":" horiz-adv-x="606" d="M115 176q0 39 14 74t40 60.5t60.5 40t73.5 14.5t74 -14.5t60.5 -40t40 -60.5t14.5 -74t-14.5 -73.5t-40 -60.5t-60.5 -40t-74 -14t-73.5 14t-60.5 40t-40 60.5t-14 73.5zM115 831q0 39 14 74t40 60.5t60.5 40t73.5 14.5t74 -14.5t60.5 -40t40 -60.5t14.5 -74t-14.5 -73.5 t-40 -60t-60.5 -40t-74 -14.5t-73.5 14.5t-60.5 40t-40 60t-14 73.5z" />
<glyph unicode=";" horiz-adv-x="606" d="M35 -246l151 578h295l-184 -578h-262zM115 831q0 39 14 74t40 60.5t60.5 40t73.5 14.5t74 -14.5t60.5 -40t40 -60.5t14.5 -74t-14.5 -73.5t-40 -60t-60.5 -40t-74 -14.5t-73.5 14.5t-60.5 40t-40 60t-14 73.5z" />
<glyph unicode="&#x3c;" horiz-adv-x="1363" d="M164 492v258l1036 405v-278l-649 -254v-5l649 -253v-279z" />
<glyph unicode="=" horiz-adv-x="1363" d="M121 295v258h1122v-258h-1122zM121 688v258h1122v-258h-1122z" />
<glyph unicode="&#x3e;" horiz-adv-x="1363" d="M164 86v279l649 253v5l-649 254v278l1036 -405v-258z" />
<glyph unicode="?" horiz-adv-x="1138" d="M111 1042q23 217 160 331t352 114q94 0 177 -25.5t146.5 -77t100 -127t36.5 -174.5q0 -59 -12 -107t-42 -95t-78 -95.5t-122 -105.5q-47 -37 -63 -72t-16 -69v-60h-308v90q0 61 16.5 104.5t55.5 80.5q57 55 105.5 96t83 77t54 67.5t19.5 66.5q0 68 -42 105.5t-105 37.5 q-96 0 -146.5 -53t-56.5 -129zM408 176q0 39 14 74t39.5 60.5t60.5 40t74 14.5t74 -14.5t60.5 -40t39.5 -60.5t14 -74t-14 -73.5t-39.5 -60.5t-60.5 -40t-74 -14t-74 14t-60.5 40t-39.5 60.5t-14 73.5z" />
<glyph unicode="@" horiz-adv-x="1638" d="M66 723q0 164 61 303t167.5 241.5t249 161t304.5 58.5q135 0 265 -44t232.5 -130t165 -212t62.5 -288q0 -109 -25.5 -188.5t-65.5 -135t-90.5 -90t-100.5 -53t-96 -26t-77 -7.5q-86 0 -123 35t-39 76h-4q-41 -41 -102.5 -76t-159.5 -35q-66 0 -120 26t-93 71t-60.5 108.5 t-21.5 138.5q0 90 29 173t81 147.5t128 102.5t172 38q82 0 136 -26.5t85 -90.5h4l17 93h192l-76 -404q-6 -29 -12 -67.5t-6 -67.5q0 -23 11 -40t44 -17t64.5 17t56.5 55t40 95.5t15 137.5q0 123 -40 216t-110.5 156.5t-169 95.5t-214.5 32q-127 0 -231.5 -43t-179.5 -121 t-116 -184.5t-41 -231.5q0 -135 45.5 -241.5t126 -180.5t191.5 -114t240 -40q117 0 214 33t173 92h225q-111 -152 -275.5 -230.5t-353.5 -78.5q-164 0 -308 56.5t-253 156.5t-171 240.5t-62 306.5zM616 680q0 -33 6.5 -65.5t21.5 -58.5t43 -42t71 -16q63 0 105 22.5t66.5 58 t34 79.5t9.5 87q0 82 -37 135.5t-115 53.5q-94 0 -149.5 -74t-55.5 -180z" />
<glyph unicode="A" horiz-adv-x="1517" d="M-2 0l627 1450h264l631 -1450h-361l-125 307h-563l-121 -307h-352zM571 578h355l-178 450z" />
<glyph unicode="B" horiz-adv-x="1327" d="M147 0v1450h541q94 0 189.5 -13.5t171 -53.5t123 -111.5t47.5 -190.5q0 -123 -69 -203.5t-181 -115.5v-4q72 -10 130 -40t100 -76t64.5 -107.5t22.5 -131.5q0 -115 -49 -191.5t-127 -123.5t-175 -67.5t-194 -20.5h-594zM467 270h287q37 0 74.5 8.5t68.5 29t50.5 53 t19.5 79.5q0 51 -26 83t-64.5 48.5t-83.5 22.5t-84 6h-242v-330zM467 870h231q37 0 73 8.5t64.5 27t46 49t17.5 73.5q0 45 -19.5 75t-50 46t-69.5 23.5t-76 7.5h-217v-310z" />
<glyph unicode="C" horiz-adv-x="1402" d="M70 725q0 174 58 315.5t162.5 240.5t248 152.5t313.5 53.5q61 0 128 -11.5t131.5 -36t123.5 -65.5t106 -100l-245 -201q-47 57 -116 88t-159 31t-166.5 -35t-133 -97.5t-88.5 -148.5t-32 -186q0 -102 32 -187t87 -147.5t130 -97.5t161 -35q98 0 174 41t125 115l266 -199 q-92 -129 -233.5 -190.5t-290.5 -61.5q-170 0 -313.5 53.5t-248 152.5t-162.5 240.5t-58 315.5z" />
<glyph unicode="D" horiz-adv-x="1554" d="M147 0v1450h480q174 0 330.5 -39t273.5 -126t185.5 -226t68.5 -338q0 -176 -66.5 -310.5t-179.5 -225.5t-260.5 -138t-308.5 -47h-523zM467 295h166q111 0 206 22.5t164.5 74.5t109.5 137t40 208q0 106 -40 185t-107.5 130.5t-158.5 77t-192 25.5h-188v-860z" />
<glyph unicode="E" horiz-adv-x="1290" d="M160 0v1450h985v-295h-666v-270h629v-295h-629v-295h703v-295h-1022z" />
<glyph unicode="F" horiz-adv-x="1214" d="M160 0v1450h973v-295h-654v-295h604v-295h-604v-565h-319z" />
<glyph unicode="G" horiz-adv-x="1593" d="M70 725q0 174 58 315.5t162.5 240.5t248 152.5t313.5 53.5q174 0 320.5 -42t257.5 -145l-226 -245q-66 68 -147.5 102.5t-204.5 34.5q-102 0 -185 -35t-142.5 -97.5t-91.5 -148.5t-32 -186q0 -102 32 -187t91.5 -147.5t142.5 -97.5t185 -35q104 0 180 23.5t121 48.5v235 h-260v295h567v-758q-141 -74 -294.5 -106.5t-313.5 -32.5q-170 0 -313.5 53.5t-248 152.5t-162.5 240.5t-58 315.5z" />
<glyph unicode="H" horiz-adv-x="1554" d="M147 0v1450h320v-541h620v541h320v-1450h-320v627h-620v-627h-320z" />
<glyph unicode="I" horiz-adv-x="606" d="M143 0v1450h320v-1450h-320z" />
<glyph unicode="J" horiz-adv-x="1024" d="M-10 301l293 72q6 -53 48 -90t95 -37q55 0 86 27.5t45 68.5t17.5 89t3.5 89v930h319v-965q0 -100 -17.5 -194t-66.5 -167t-140 -117t-239 -44q-172 0 -290.5 82t-153.5 256z" />
<glyph unicode="K" horiz-adv-x="1478" d="M160 0v1450h319v-602l563 602h418l-645 -674l701 -776h-447l-590 688v-688h-319z" />
<glyph unicode="L" horiz-adv-x="1099" d="M160 0v1450h319v-1155h592v-295h-911z" />
<glyph unicode="M" horiz-adv-x="1933" d="M147 0v1450h484l334 -946h4l336 946h481v-1450h-320v1112h-4l-381 -1112h-243l-367 1112h-4v-1112h-320z" />
<glyph unicode="N" horiz-adv-x="1669" d="M147 0v1450h435l616 -1008h4v1008h320v-1450h-418l-633 1032h-4v-1032h-320z" />
<glyph unicode="O" horiz-adv-x="1703" d="M70 725q0 174 58 315.5t162.5 240.5t248 152.5t313.5 53.5t313.5 -53.5t248 -152.5t162.5 -240.5t58 -315.5t-58 -315.5t-162.5 -240.5t-248 -152.5t-313.5 -53.5t-313.5 53.5t-248 152.5t-162.5 240.5t-58 315.5zM401 725q0 -102 32 -187t91.5 -147.5t142.5 -97.5 t185 -35t185 35t142.5 97.5t91.5 147.5t32 187q0 100 -32 186t-91.5 148.5t-142.5 97.5t-185 35t-185 -35t-142.5 -97.5t-91.5 -148.5t-32 -186z" />
<glyph unicode="P" horiz-adv-x="1290" d="M147 0v1450h539q113 0 213 -20.5t175 -70.5t119 -135t44 -214q0 -127 -41 -213t-112.5 -137.5t-170 -73t-213.5 -21.5h-233v-565h-320zM467 836h213q43 0 83 8t71.5 27.5t51 53t19.5 85.5q0 55 -25.5 89t-65.5 52t-89 23.5t-94 5.5h-164v-344z" />
<glyph unicode="Q" horiz-adv-x="1744" d="M70 743q0 164 60 301.5t164.5 235.5t246 152.5t303.5 54.5t303 -55.5t245.5 -153.5t165 -234.5t60.5 -300.5q0 -78 -17.5 -151.5t-52.5 -139t-90 -117.5t-129 -85v-4h406v-246h-879q-170 0 -314.5 50t-249 146.5t-163.5 233.5t-59 313zM401 743q0 -94 35 -176t95.5 -142 t140.5 -95t172 -35t172 35t140.5 95t95 142t34.5 176t-34.5 176t-95 142.5t-140.5 95.5t-172 35t-172 -35t-140.5 -95.5t-95.5 -142.5t-35 -176z" />
<glyph unicode="R" horiz-adv-x="1327" d="M147 0v1450h562q111 0 210 -21.5t173.5 -71.5t118.5 -135t44 -212q0 -154 -79.5 -261.5t-233.5 -136.5l369 -612h-383l-303 580h-158v-580h-320zM467 850h188q43 0 91.5 3t87 18.5t64.5 48t26 92.5q0 55 -22.5 88t-57.5 50t-80 23.5t-88 6.5h-209v-330z" />
<glyph unicode="S" d="M39 145l227 250q49 -66 124 -101.5t155 -35.5q39 0 79 9t71.5 27.5t51 47.5t19.5 68q0 66 -50 103.5t-126 64t-164 53t-164 72t-126 119t-50 194.5q0 117 46 205t123 147t177 89t207 30q123 0 237.5 -35t206.5 -117l-219 -239q-39 49 -105.5 72.5t-125.5 23.5 q-35 0 -72 -8t-69.5 -25.5t-53 -46.5t-20.5 -70q0 -66 49 -100.5t124 -59t161 -49t160.5 -69.5t123.5 -121t49 -203q0 -121 -45 -211t-121.5 -149.5t-178 -88t-214.5 -28.5q-141 0 -262 43t-225 139z" />
<glyph unicode="T" d="M14 1167v283h1147v-283h-413v-1167h-320v1167h-414z" />
<glyph unicode="U" horiz-adv-x="1517" d="M147 559v891h320v-879q0 -68 21.5 -125t60.5 -99t93 -65.5t118 -23.5q63 0 116.5 23.5t92.5 65.5t60.5 99.5t21.5 124.5v879h319v-891q0 -129 -39 -237.5t-115.5 -188.5t-191.5 -125t-264 -45q-152 0 -266.5 45t-191.5 125t-116 188.5t-39 237.5z" />
<glyph unicode="V" horiz-adv-x="1441" d="M4 1450h365l358 -950h4l365 950h342l-598 -1450h-256z" />
<glyph unicode="W" horiz-adv-x="2048" d="M-4 1450h348l231 -930h5l303 930h297l301 -954h4l244 954h323l-424 -1450h-285l-319 1004h-4l-320 -1004h-274z" />
<glyph unicode="X" horiz-adv-x="1478" d="M0 0l508 758l-479 692h401l309 -508l297 508h387l-469 -686l525 -764h-402l-354 584l-344 -584h-379z" />
<glyph unicode="Y" horiz-adv-x="1327" d="M-41 1450h397l308 -543l325 543h379l-545 -832v-618h-319v618z" />
<glyph unicode="Z" horiz-adv-x="1290" d="M72 0v295l735 872h-709v283h1096v-283l-721 -872h746v-295h-1147z" />
<glyph unicode="[" horiz-adv-x="606" d="M135 -319v1818h430v-184h-184v-1450h184v-184h-430z" />
<glyph unicode="\" horiz-adv-x="833" d="M-6 1487l233 72l613 -1596l-232 -72z" />
<glyph unicode="]" horiz-adv-x="606" d="M41 -135h184v1450h-184v184h430v-1818h-430v184z" />
<glyph unicode="^" horiz-adv-x="1363" d="M164 702l368 748h299l369 -748h-291l-227 488l-229 -488h-289z" />
<glyph unicode="_" horiz-adv-x="1024" d="M0 -154h1024v-102h-1024v102z" />
<glyph unicode="`" horiz-adv-x="532" d="M-150 1450h418l207 -295h-270z" />
<glyph unicode="a" horiz-adv-x="1099" d="M59 283q0 86 32 145t86 98t124 60.5t144.5 32t149.5 12.5t138 2q0 82 -58.5 130t-137.5 48q-76 0 -138.5 -31.5t-111.5 -87.5l-164 168q86 80 200.5 120t237.5 40q135 0 222 -34t139.5 -99.5t73 -160.5t20.5 -220v-506h-283v125h-4q-51 -80 -136 -115t-179 -35 q-70 0 -134.5 19.5t-113.5 58.5t-78 96.5t-29 133.5zM354 293q0 -55 47.5 -82t98.5 -27q45 0 87 12.5t74.5 35t52 57.5t19.5 82v65h-76q-35 0 -87 -3t-100 -17.5t-82 -43t-34 -79.5z" />
<glyph unicode="b" horiz-adv-x="1290" d="M137 0v1548h307v-659h5q53 72 136 101.5t179 29.5q106 0 190 -44t142.5 -118t90.5 -169t32 -200q0 -113 -35 -207t-99.5 -162.5t-154.5 -106.5t-201 -38q-53 0 -100 14.5t-87 37t-70 50t-48 54.5h-4v-131h-283zM420 498q0 -113 64.5 -182.5t181.5 -69.5t181 69.5 t64 182.5t-64.5 182.5t-180.5 69.5q-117 0 -181.5 -69.5t-64.5 -182.5z" />
<glyph unicode="c" horiz-adv-x="987" d="M78 498q0 119 43 215t117.5 164.5t176 105.5t216.5 37q88 0 185 -29.5t169 -103.5l-203 -213q-23 33 -63.5 54.5t-87.5 21.5q-117 0 -181.5 -70t-64.5 -182q0 -113 64.5 -182.5t181.5 -69.5q51 0 88 22.5t63 53.5l203 -213q-72 -74 -169 -104t-185 -30q-115 0 -216.5 37 t-176 105.5t-117.5 165t-43 215.5z" />
<glyph unicode="d" horiz-adv-x="1290" d="M72 489q0 104 31.5 199.5t90 169.5t142.5 118t190 44q96 0 179 -29.5t137 -101.5h4v659h307v-1548h-283v131h-4q-18 -27 -48 -54.5t-69.5 -50t-88 -37t-99.5 -14.5q-111 0 -201 38t-154.5 106.5t-99 163t-34.5 206.5zM379 498q0 -113 64.5 -182.5t181.5 -69.5t181 69.5 t64 182.5t-64.5 182.5t-180.5 69.5q-117 0 -181.5 -70t-64.5 -182z" />
<glyph unicode="e" d="M78 498q0 119 43 215t117.5 164.5t176 105.5t216.5 37q106 0 193 -37t147.5 -105.5t93.5 -165t33 -214.5v-97h-713q18 -88 79.5 -140t151.5 -52q76 0 128.5 33.5t91.5 87.5l215 -158q-74 -94 -186.5 -145.5t-233.5 -51.5q-115 0 -216.5 37t-176 105.5t-117.5 165 t-43 215.5zM385 610h406v6q1 74 -51 128q-54 56 -138 55q-51 0 -90 -16.5t-66.5 -42t-43 -59.5t-17.5 -71z" />
<glyph unicode="f" horiz-adv-x="757" d="M12 750v245h203v176q0 82 14.5 155t55.5 128t117.5 87t201.5 32q47 0 92 -4t88 -15l-14 -260q-27 10 -49.5 15.5t-50.5 5.5q-74 0 -111 -32t-37 -130v-158h228v-245h-228v-750h-307v750h-203z" />
<glyph unicode="g" horiz-adv-x="1290" d="M72 502q0 98 31.5 192t90 166t142.5 116t190 44q66 0 120 -14.5t97 -37t74 -50t49 -54.5h4v131h283v-911q0 -283 -142.5 -429.5t-432.5 -146.5q-133 0 -262.5 30t-237.5 116l170 254q72 -59 150.5 -94t172.5 -35q141 0 208 68.5t67 175.5v96h-4q-53 -72 -132 -101.5 t-149 -29.5q-111 0 -201 37.5t-154.5 106.5t-99 163t-34.5 207zM379 504q0 -49 18.5 -93t52 -78t77.5 -54.5t98 -20.5q51 0 96 20.5t79 54.5t52 78t18 93t-18 93t-52 78t-79 54.5t-96 20.5q-53 0 -97.5 -20.5t-78 -54.5t-52 -78t-18.5 -93z" />
<glyph unicode="h" d="M109 0v1548h307v-688h4q10 29 34.5 57.5t59.5 51t82 37t102 14.5q117 0 188.5 -36t111.5 -99.5t54.5 -149.5t14.5 -186v-549h-307v487q0 43 -3 89.5t-18.5 85t-47.5 63.5t-91 25t-96 -21.5t-56.5 -57.5t-25.5 -81t-6 -94v-496h-307z" />
<glyph unicode="i" horiz-adv-x="532" d="M88 1309q0 74 52.5 126t125.5 52q74 0 126 -52.5t52 -125.5q0 -74 -52 -126.5t-126 -52.5t-126 52.5t-52 126.5zM113 0v995h307v-995h-307z" />
<glyph unicode="j" horiz-adv-x="532" d="M-92 -475l16 272q37 -18 80 -18q39 0 61.5 20.5t33 51t12.5 65.5t2 64v1015h307v-1069q0 -96 -18.5 -173t-61.5 -131t-113.5 -84t-175.5 -30q-35 0 -71.5 3.5t-71.5 13.5zM88 1309q0 74 52.5 126t125.5 52q74 0 126 -52.5t52 -125.5q0 -74 -52 -126.5t-126 -52.5 t-126 52.5t-52 126.5z" />
<glyph unicode="k" horiz-adv-x="1138" d="M109 0v1548h307v-946l340 393h377l-396 -448l406 -547h-387l-336 504h-4v-504h-307z" />
<glyph unicode="l" horiz-adv-x="532" d="M113 0v1548h307v-1548h-307z" />
<glyph unicode="m" horiz-adv-x="1781" d="M109 0v995h294v-135h5q14 29 40.5 57.5t63.5 51t84 37t102 14.5q104 0 185.5 -43t122.5 -135q53 96 128.5 137t186.5 41q100 0 169 -34t108.5 -92t57 -137t17.5 -169v-588h-307v580q0 70 -29.5 120t-105.5 50q-53 0 -89 -17.5t-57.5 -48.5t-31 -72t-9.5 -86v-526h-307 v526q0 27 -2 66t-14 73.5t-40 59.5t-81 25q-59 0 -96 -21.5t-56.5 -57.5t-25.5 -81t-6 -94v-496h-307z" />
<glyph unicode="n" d="M109 0v995h294v-135h5q14 29 40.5 57.5t63.5 51t84 37t102 14.5q117 0 188.5 -36t111.5 -99.5t54.5 -149.5t14.5 -186v-549h-307v487q0 43 -3 89.5t-18.5 85t-47.5 63.5t-91 25t-96 -21.5t-56.5 -57.5t-25.5 -81t-6 -94v-496h-307z" />
<glyph unicode="o" horiz-adv-x="1249" d="M72 498q0 119 43 215t117.5 164.5t176 105.5t216.5 37t216 -37t176 -105.5t118 -165t43 -214.5q0 -119 -43 -215.5t-118 -165t-176.5 -105.5t-215.5 -37q-115 0 -216.5 37t-176 105.5t-117.5 165t-43 215.5zM379 498q0 -113 64.5 -182.5t181.5 -69.5t181 69.5t64 182.5 t-64.5 182.5t-180.5 69.5q-117 0 -181.5 -69.5t-64.5 -182.5z" />
<glyph unicode="p" horiz-adv-x="1290" d="M137 -467v1462h283v-131h4q18 27 48 54.5t70 50t87 37t100 14.5q111 0 201 -38t154.5 -106.5t99.5 -163t35 -206.5q0 -104 -32 -199.5t-90.5 -169.5t-142.5 -118t-190 -44q-96 0 -179 30t-136 101h-5v-573h-307zM420 498q0 -113 64.5 -182.5t181.5 -69.5t181 69.5 t64 182.5t-64.5 182.5t-180.5 69.5q-117 0 -181.5 -69.5t-64.5 -182.5z" />
<glyph unicode="q" horiz-adv-x="1290" d="M72 506q0 113 34.5 207t99 162.5t155 106.5t200.5 38q51 0 99.5 -14.5t88 -37t69.5 -50t48 -54.5h4v131h283v-1462h-307v573h-4q-53 -72 -136 -101.5t-180 -29.5q-106 0 -190 44t-142.5 118t-90 169t-31.5 200zM379 498q0 -113 64.5 -182.5t181.5 -69.5t181 69.5 t64 182.5t-64.5 182.5t-180.5 69.5q-117 0 -181.5 -70t-64.5 -182z" />
<glyph unicode="r" horiz-adv-x="833" d="M109 0v995h307v-159h4q49 92 116.5 138t170.5 46q27 0 53 -2t49 -8v-281q-33 10 -64.5 15.5t-66.5 5.5q-88 0 -139.5 -25t-79 -69t-35.5 -105.5t-8 -134.5v-416h-307z" />
<glyph unicode="s" horiz-adv-x="948" d="M49 111l187 206q43 -53 95 -80.5t122 -27.5q53 0 96 15.5t43 56.5q0 39 -38 58t-96.5 32.5t-125 29t-124.5 46t-96 87t-38 150.5q0 88 35.5 151.5t94 104.5t134.5 60.5t154 19.5q98 0 198.5 -28.5t169.5 -102.5l-188 -187q-68 84 -178 84q-39 0 -76 -18t-37 -63 q0 -37 38 -54.5t96 -31t125 -29t125 -48t96 -89t38 -150.5q0 -96 -42 -158.5t-107.5 -100.5t-147.5 -53.5t-162 -15.5q-104 0 -210.5 30t-180.5 106z" />
<glyph unicode="t" horiz-adv-x="833" d="M12 750v245h197v295h307v-295h270v-245h-270v-332q0 -41 4 -75t18.5 -58.5t44 -38t79.5 -13.5q25 0 64.5 5.5t59.5 23.5v-256q-51 -18 -106 -24.5t-109 -6.5q-78 0 -143.5 16.5t-114.5 52.5t-76.5 93.5t-27.5 138.5v474h-197z" />
<glyph unicode="u" d="M109 446v549h307v-487q0 -43 3 -89t18.5 -85t47 -63.5t90.5 -24.5t96.5 21.5t57 57t25.5 81t6 94.5v495h307v-995h-295v135h-4q-16 -29 -42 -57.5t-62.5 -51t-84 -37t-102.5 -14.5q-117 0 -189.5 36t-112.5 99.5t-53 149.5t-13 186z" />
<glyph unicode="v" horiz-adv-x="1138" d="M4 995h332l252 -676h4l233 676h310l-394 -995h-325z" />
<glyph unicode="w" horiz-adv-x="1705" d="M-10 995h327l203 -624h4l170 624h336l184 -624h5l186 624h311l-354 -995h-303l-207 662h-4l-184 -662h-310z" />
<glyph unicode="x" horiz-adv-x="1138" d="M-16 0l393 532l-332 463h363l176 -270l170 270h342l-324 -463l383 -532h-362l-218 332l-233 -332h-358z" />
<glyph unicode="y" horiz-adv-x="1138" d="M6 995h332l256 -657h4l219 657h316l-451 -1157q-31 -80 -59.5 -141.5t-72.5 -103.5t-111.5 -63.5t-178.5 -21.5q-119 0 -229 37l41 252q68 -30 138 -30h5q51 0 84 11t54.5 32.5t35.5 52.5t31 71l22 58z" />
<glyph unicode="z" horiz-adv-x="1024" d="M70 0v307l516 443h-504v245h860v-295l-541 -454h553v-246h-884z" />
<glyph unicode="{" horiz-adv-x="757" d="M29 473v234q18 0 55 4t74 18t64.5 43t27.5 76v354q0 80 19.5 136.5t55 92t84 52t105.5 16.5h215v-233h-100q-47 0 -74 -12.5t-40 -32t-16 -43t-3 -43.5v-330q0 -72 -20.5 -113t-50.5 -62.5t-65.5 -28.5t-68.5 -9v-4q33 -2 68.5 -8.5t65.5 -28t50.5 -62t20.5 -112.5v-332 q0 -20 3 -44t16 -43t40 -31.5t74 -12.5h100v-233h-215q-55 0 -103.5 16t-84 53t-56 93.5t-20.5 136.5v352q0 47 -27.5 75.5t-64.5 43t-74 18.5t-55 4z" />
<glyph unicode="|" horiz-adv-x="454" d="M98 -512v2048h258v-2048h-258z" />
<glyph unicode="}" horiz-adv-x="757" d="M29 -86h100q47 0 73.5 12.5t40 31.5t16.5 43t3 44v330q0 72 20.5 112.5t50 62t65.5 28t69 10.5v4q-33 2 -69 8t-65.5 27.5t-50 62.5t-20.5 113v332q0 20 -3 43.5t-16.5 43t-40 32t-73.5 12.5h-100v233h221q51 0 98 -16.5t83 -53t56.5 -93t20.5 -136.5v-352 q0 -47 26.5 -76t62.5 -43t73 -18t59 -4v-234q-23 0 -59.5 -4t-72.5 -18.5t-62.5 -43t-26.5 -75.5v-355q0 -80 -20.5 -136t-55.5 -92t-83 -52t-105 -16h-215v233z" />
<glyph unicode="~" horiz-adv-x="1363" d="M209 643q16 33 39.5 64.5t54.5 56t71 40t91 15.5q53 0 110.5 -19.5t116.5 -45.5q57 -25 112.5 -49.5t96.5 -24.5q31 0 56.5 13.5t47 32.5t40 44t36.5 49l74 -221q-16 -33 -39.5 -64.5t-54.5 -56t-71 -40t-91 -15.5q-53 0 -110.5 19.5t-116.5 45.5q-57 25 -112.5 49.5 t-96.5 24.5q-31 0 -56.5 -13t-47 -32.5t-40 -44.5t-36.5 -49z" />
<glyph unicode="&#xa1;" horiz-adv-x="909" d="M266 819q0 39 14.5 74t40 60.5t60.5 40t74 14.5t73.5 -14.5t60 -40t40 -60.5t14.5 -74t-14.5 -73.5t-40 -60.5t-60 -40t-73.5 -14t-74 14t-60.5 40t-40 60.5t-14.5 73.5zM301 -455v971h307v-971h-307z" />
<glyph unicode="&#xa2;" horiz-adv-x="1212" d="M156 498q0 109 33.5 198.5t96 157.5t151.5 111t198 55v135h123v-135q104 0 188 -29.5t164 -97.5l-197 -209q-41 41 -80.5 59.5t-74.5 18.5v-529q12 0 27.5 2.5t37 10.5t47 26.5t58.5 49.5l186 -220q-39 -37 -86 -61.5t-95 -38.5t-94 -20.5t-81 -6.5v-141h-123v141 q-109 6 -198 49.5t-151.5 113t-96 161.5t-33.5 199zM451 500q0 -94 44 -166t140 -101v529q-96 -18 -140 -92t-44 -170z" />
<glyph unicode="&#xa3;" horiz-adv-x="1212" d="M98 0v233h197v406h-197v209h197v145q0 92 32.5 178t97 154t159 109t219.5 41q117 0 229.5 -31t198.5 -109l-205 -219q-41 41 -93 64.5t-93 23.5q-68 0 -114 -22.5t-73.5 -58.5t-39 -82t-11.5 -93v-100h320v-209h-320v-406h518v-233h-1022z" />
<glyph unicode="&#xa4;" horiz-adv-x="1212" d="M74 313l100 101q-47 66 -73.5 144.5t-26.5 166.5t26.5 167t73.5 144l-100 101l123 120l100 -98q66 47 143.5 72.5t165.5 25.5t166 -25.5t143 -72.5l101 98l123 -120l-101 -101q100 -137 101 -311q0 -174 -101 -311l101 -101l-123 -120l-101 98q-66 -47 -143.5 -72.5 t-165.5 -25.5t-166 25.5t-143 72.5l-100 -98zM344 725q0 -57 20.5 -107.5t56.5 -87t83 -58t102 -21.5t102.5 21.5t83 58t56 87t20.5 107.5t-20.5 107.5t-56 87t-82.5 58t-103 21.5q-55 0 -102 -21.5t-83 -58t-56.5 -87t-20.5 -107.5z" />
<glyph unicode="&#xa5;" horiz-adv-x="1212" d="M-74 1450h373l307 -541l307 541h373l-379 -594h205v-197h-321l-25 -41v-98h346v-196h-346v-324h-320v324h-346v196h346v98l-24 41h-322v197h205z" />
<glyph unicode="&#xa6;" horiz-adv-x="454" d="M98 -358v716h258v-716h-258zM98 666v716h258v-716h-258z" />
<glyph unicode="&#xa7;" horiz-adv-x="1212" d="M78 -51l262 129q8 -37 31.5 -63.5t54.5 -44t66.5 -25.5t70.5 -8q25 0 53.5 5t53 17t41 32.5t16.5 51.5q0 49 -46 81t-113.5 61.5t-148.5 60t-148.5 77t-113.5 113t-46 164.5q0 104 46 177t132 126q-59 41 -94 101.5t-35 134.5q0 90 40 155.5t103.5 108.5t141 63.5 t155.5 20.5q66 0 133.5 -10.5t130 -37t113.5 -69.5t82 -106l-258 -148q-23 59 -75 92t-114 33q-49 0 -91 -26.5t-42 -81.5q0 -51 47 -86t119 -66t154 -62.5t153.5 -76.5t118.5 -109.5t47 -157.5q0 -86 -49 -157.5t-123 -108.5q53 -43 83 -107.5t30 -135.5q0 -100 -48 -172 t-122 -117t-163 -65.5t-171 -20.5q-76 0 -147.5 12t-133 43t-111.5 80t-85 123zM393 657q0 -37 15.5 -62.5t39 -45t52 -33.5t57.5 -27l209 -96q70 41 70 125q0 29 -12.5 52.5t-32 41t-43 30.5t-46.5 24l-237 112q-72 -41 -72 -121z" />
<glyph unicode="&#xa8;" horiz-adv-x="532" d="M-119 1319q0 33 13.5 63.5t36 53t52 37t64.5 14.5q72 0 125 -47t53 -121t-49 -125t-125 -51q-37 0 -67.5 14t-53 39t-36 56.5t-13.5 66.5zM307 1319q0 33 13.5 63.5t36 53t52 37t64.5 14.5q72 0 125 -47t53 -121t-49 -125t-125 -51q-37 0 -67.5 14t-53 39t-36 56.5 t-13.5 66.5z" />
<glyph unicode="&#xa9;" horiz-adv-x="1638" d="M57 725q0 158 60.5 296t164 241.5t242 164t295.5 60.5q158 0 296 -60.5t241.5 -164t164 -241.5t60.5 -296t-60.5 -296t-164 -241.5t-241.5 -164t-296 -60.5t-296 60.5t-241.5 164t-164 241.5t-60.5 296zM266 725q0 -119 43 -224.5t119 -183t176.5 -124t214.5 -46.5 q115 0 215.5 46.5t176 124t118.5 183t43 224.5t-43 224.5t-118.5 183t-176 124t-215.5 46.5t-215 -46.5t-176 -124t-119 -183t-43 -224.5zM432 731q0 94 26.5 173t77 136.5t126 89t174.5 31.5q70 0 131 -18.5t110 -56t82 -95t45 -133.5h-192q-14 66 -59.5 92.5t-100.5 26.5 q-100 0 -149.5 -65.5t-49.5 -176.5q0 -115 52.5 -186.5t142.5 -71.5q66 0 113 31t51 106h192q-10 -80 -44 -139t-83 -100t-109.5 -61.5t-127.5 -20.5q-96 0 -172 33.5t-128.5 93t-80 139.5t-27.5 172z" />
<glyph unicode="&#xaa;" horiz-adv-x="714" d="M47 1053q0 78 45 121t109.5 64.5t138.5 25.5t131 4q0 37 -30.5 66.5t-84.5 29.5q-49 0 -89 -20.5t-72 -53.5l-107 101q55 47 131 71.5t154 24.5q88 0 144 -20.5t90 -58.5t47.5 -94.5t13.5 -127.5v-303h-197v75h-4q-23 -47 -76 -67.5t-115 -20.5q-45 0 -87 11.5t-73.5 35 t-50 57.5t-18.5 79zM256 1061q0 -35 27.5 -45t60.5 -10q59 0 99 32.5t40 67.5v39h-37q-23 0 -55.5 -2t-62 -10.5t-51 -25.5t-21.5 -46z" />
<glyph unicode="&#xab;" horiz-adv-x="1101" d="M37 510l325 479l187 -125l-238 -354l238 -354l-187 -125zM532 510l326 479l186 -125l-237 -354l237 -354l-186 -125z" />
<glyph unicode="&#xac;" horiz-adv-x="1363" d="M121 688v258h1122v-655h-258v397h-864z" />
<glyph unicode="&#xad;" horiz-adv-x="606" d="M51 387v246h504v-246h-504z" />
<glyph unicode="&#xae;" horiz-adv-x="1638" d="M57 725q0 158 60.5 296t164 241.5t242 164t295.5 60.5q158 0 296 -60.5t241.5 -164t164 -241.5t60.5 -296t-60.5 -296t-164 -241.5t-241.5 -164t-296 -60.5t-296 60.5t-241.5 164t-164 241.5t-60.5 296zM266 725q0 -119 43 -224.5t119 -183t176.5 -124t214.5 -46.5 q115 0 215.5 46.5t176 124t118.5 183t43 224.5t-43 224.5t-118.5 183t-176 124t-215.5 46.5t-215 -46.5t-176 -124t-119 -183t-43 -224.5zM526 334v799h283q33 0 90 -4.5t112.5 -29t96.5 -76.5t41 -149q0 -61 -16.5 -101t-42 -65.5t-59.5 -39t-68 -17.5l204 -317h-215 l-182 307h-35v-307h-209zM733 801h84q18 0 40 2t40 10t30.5 25.5t12.5 48.5t-12.5 48t-30.5 25.5t-39.5 10.5t-40.5 2h-84v-172z" />
<glyph unicode="&#xaf;" horiz-adv-x="532" d="M-82 1210v197h696v-197h-696z" />
<glyph unicode="&#xb0;" horiz-adv-x="819" d="M57 1122q0 74 28 137.5t76 111.5t111.5 76t137.5 28t137 -28t111.5 -76t76 -111.5t27.5 -137.5t-27.5 -137t-76 -111.5t-111.5 -76t-137 -27.5t-137.5 27.5t-111.5 76t-76 112t-28 136.5zM229 1122q0 -76 52.5 -128t128.5 -52t128 52.5t52 127.5q0 76 -52.5 128.5 t-127.5 52.5q-76 0 -128.5 -52.5t-52.5 -128.5z" />
<glyph unicode="&#xb1;" horiz-adv-x="1363" d="M121 59v258h1122v-258h-1122zM121 662v258h432v262h258v-262h432v-258h-432v-263h-258v263h-432z" />
<glyph unicode="&#xb2;" horiz-adv-x="788" d="M49 592v182l381 324q29 25 58.5 53.5t29.5 58.5q0 43 -37 61.5t-84 18.5q-59 0 -95 -31.5t-40 -78.5l-209 12q10 145 108.5 214t246.5 69q72 0 132 -16.5t105 -47.5t69.5 -77t24.5 -105q0 -53 -8 -88t-24.5 -61.5t-39 -47t-53.5 -43.5l-286 -221v-4h411v-172h-690z" />
<glyph unicode="&#xb3;" horiz-adv-x="788" d="M35 821l223 45q10 -47 43 -74.5t92 -27.5t99 22.5t40 75.5q0 35 -16 54.5t-43 28.5t-60.5 11t-68.5 2h-51v172h69q29 0 56.5 3.5t49 13.5t34 28.5t12.5 47.5q0 33 -30.5 50t-84.5 17q-49 0 -84.5 -23.5t-46.5 -66.5l-225 41q35 131 132 182.5t224 51.5q66 0 127.5 -14.5 t107.5 -43t73.5 -73t27.5 -103.5q0 -72 -43 -124t-127 -66v-4q90 -10 139.5 -69.5t49.5 -135.5q0 -66 -29 -115t-78 -82t-114.5 -49t-139.5 -16q-135 0 -231 55t-127 186z" />
<glyph unicode="&#xb4;" horiz-adv-x="532" d="M61 1155l207 295h418l-354 -295h-271z" />
<glyph unicode="&#xb5;" d="M109 -467v1462h307v-487q0 -43 3 -89t18.5 -85t47 -63.5t90.5 -24.5t96.5 21.5t57 57t25.5 81t6 94.5v495h307v-995h-295v135h-4q-16 -29 -42 -57.5t-62.5 -51t-84 -37t-102.5 -14.5q-35 0 -61 7v-449h-307z" />
<glyph unicode="&#xb6;" horiz-adv-x="1269" d="M27 1085q0 111 38.5 181.5t106.5 111.5t160 56.5t198 15.5h619v-1722h-221v1525h-223v-1525h-222v1007q-223 0 -339.5 92.5t-116.5 257.5z" />
<glyph unicode="&#xb7;" horiz-adv-x="606" d="M115 580q0 39 14 73.5t40 60t60.5 40t73.5 14.5t74 -14.5t60.5 -40t40 -60.5t14.5 -73q0 -39 -14.5 -74t-40 -60.5t-60.5 -40t-74 -14.5t-73.5 14.5t-60.5 40t-40 60.5t-14 74z" />
<glyph unicode="&#xb8;" horiz-adv-x="532" d="M-23 -430l52 96q25 -10 64.5 -22.5t92.5 -12.5q25 0 48.5 3.5t43 10.5t32 19t12.5 33q0 37 -36 53.5t-67 16.5q-35 0 -74 -17l-65 60l127 190h137l-84 -123q45 0 91 -5t83 -22.5t60.5 -51.5t23.5 -91q0 -55 -29.5 -94t-73.5 -61.5t-93.5 -33t-88.5 -10.5 q-61 0 -131.5 17.5t-124.5 44.5z" />
<glyph unicode="&#xb9;" horiz-adv-x="788" d="M74 1223l325 239h197v-870h-221v649l-182 -154z" />
<glyph unicode="&#xba;" horiz-adv-x="813" d="M47 1178q0 70 27.5 127t76 97t114 62.5t141.5 22.5t141 -22.5t114.5 -62.5t77 -97.5t27.5 -126.5q0 -74 -27.5 -130.5t-77 -96.5t-115 -60.5t-140.5 -20.5q-76 0 -141.5 20.5t-114 60.5t-76 96.5t-27.5 130.5zM256 1178q2 -55 41 -95.5t109 -40.5t110.5 40t40.5 96 q0 57 -41 97t-110 40q-70 0 -110 -40t-40 -97z" />
<glyph unicode="&#xbb;" horiz-adv-x="1101" d="M57 156l238 354l-238 354l187 125l325 -479l-325 -479zM553 156l238 354l-238 354l186 125l326 -479l-326 -479z" />
<glyph unicode="&#xbc;" horiz-adv-x="1820" d="M16 1223l326 239h197v-870h-222v649l-182 -154zM387 23l830 1493l172 -97l-846 -1485zM1038 174v160l408 536h242v-524h116v-172h-116v-174h-222v174h-428zM1260 346h206v279h-4z" />
<glyph unicode="&#xbd;" horiz-adv-x="1820" d="M16 1223l326 239h197v-870h-222v649l-182 -154zM387 23l830 1493l172 -97l-846 -1485zM1114 0v182l381 324q29 25 58.5 53.5t29.5 58.5q0 43 -37 61.5t-84 18.5q-59 0 -95 -31.5t-40 -78.5l-209 12q10 145 108.5 214t246.5 69q72 0 132 -16.5t105 -47.5t69.5 -77 t24.5 -105q0 -53 -8 -88t-24.5 -61.5t-39 -47t-53.5 -43.5l-286 -221v-4h411v-172h-690z" />
<glyph unicode="&#xbe;" horiz-adv-x="1820" d="M8 821l223 45q10 -47 43 -74.5t93 -27.5q59 0 99 22.5t40 75.5q0 35 -16.5 54.5t-43 28.5t-60.5 11t-69 2h-51v172h70q29 0 56.5 3.5t49 13.5t33.5 28.5t12 47.5q0 33 -30.5 50t-83.5 17q-49 0 -85 -23.5t-46 -66.5l-224 41q16 66 50 110t80.5 71.5t103.5 40t121 12.5 q66 0 127 -14.5t107 -43t74 -73t28 -103.5q0 -72 -43 -124t-127 -66v-4q90 -10 139 -69.5t49 -135.5q0 -66 -28.5 -115t-78 -82t-115 -49t-138.5 -16q-135 0 -231.5 55t-127.5 186zM436 23l830 1493l172 -97l-846 -1485zM1047 174v160l407 536h242v-524h116v-172h-116v-174 h-221v174h-428zM1268 346h207v279h-5z" />
<glyph unicode="&#xbf;" horiz-adv-x="1138" d="M55 -88q0 57 12.5 106.5t42 96.5t78 95t121.5 105q47 37 63.5 72t16.5 70v59h307v-90q0 -61 -16 -104t-55 -80q-57 -55 -105.5 -96.5t-83.5 -77t-54.5 -67.5t-19.5 -67q0 -68 42 -105.5t106 -37.5q96 0 146.5 53.5t56.5 128.5l315 -20q-23 -217 -160 -331t-352 -114 q-94 0 -178 26t-146.5 77t-99.5 127t-37 174zM354 819q0 39 14.5 74t40 60.5t60.5 40t74 14.5t73.5 -14.5t60 -40t40 -60.5t14.5 -74t-14.5 -73.5t-40 -60.5t-60 -40t-73.5 -14t-74 14t-60.5 40t-40 60.5t-14.5 73.5z" />
<glyph unicode="&#xc0;" horiz-adv-x="1517" d="M-2 0l627 1450h264l631 -1450h-361l-125 307h-563l-121 -307h-352zM344 1849h418l207 -295h-271zM571 578h355l-178 450z" />
<glyph unicode="&#xc1;" horiz-adv-x="1517" d="M-2 0l627 1450h264l631 -1450h-361l-125 307h-563l-121 -307h-352zM555 1554l207 295h418l-355 -295h-270zM571 578h355l-178 450z" />
<glyph unicode="&#xc2;" horiz-adv-x="1517" d="M-2 0l627 1450h264l631 -1450h-361l-125 307h-563l-121 -307h-352zM352 1554l244 295h334l237 -295h-282l-129 160l-127 -160h-277zM571 578h355l-178 450z" />
<glyph unicode="&#xc3;" horiz-adv-x="1517" d="M-2 0l627 1450h264l631 -1450h-361l-125 307h-563l-121 -307h-352zM358 1567q8 51 29 102t52.5 91t76.5 64.5t102 24.5q51 0 92.5 -12t86.5 -31q29 -10 56.5 -20t57.5 -10q35 0 55.5 21.5t34.5 51.5h160q-10 -59 -28.5 -110t-50 -89t-78 -60.5t-109.5 -22.5q-45 0 -85 13 t-75 30q-35 16 -66.5 29.5t-62.5 13.5q-35 0 -55.5 -29t-30.5 -57h-162zM571 578h355l-178 450z" />
<glyph unicode="&#xc4;" horiz-adv-x="1517" d="M-2 0l627 1450h264l631 -1450h-361l-125 307h-563l-121 -307h-352zM375 1718q0 33 13 63.5t35.5 53.5t52.5 37t65 14q72 0 125 -47t53 -121t-49 -125t-125 -51q-37 0 -68 14.5t-53.5 39t-35.5 56t-13 66.5zM571 578h355l-178 450zM801 1718q0 33 13 63.5t35.5 53.5 t52.5 37t65 14q72 0 125 -47t53 -121t-49 -125t-125 -51q-37 0 -68 14.5t-53.5 39t-35.5 56t-13 66.5z" />
<glyph unicode="&#xc5;" horiz-adv-x="1517" d="M-2 0l627 1450h264l631 -1450h-361l-125 307h-563l-121 -307h-352zM532 1724q0 47 18.5 88t49.5 72t72 49.5t88 18.5t88 -18.5t71.5 -49.5t49 -71.5t18.5 -88.5q0 -47 -18.5 -88t-49 -71.5t-71.5 -49t-88 -18.5t-88 18.5t-72 49t-49.5 71.5t-18.5 88zM571 578h355 l-178 450zM655 1724q0 -43 31 -73.5t74 -30.5t73.5 30.5t30.5 73.5t-30.5 74t-73.5 31t-74 -31t-31 -74z" />
<glyph unicode="&#xc6;" horiz-adv-x="2123" d="M-31 0l920 1450h1102v-295h-578v-270h529v-295h-529v-295h602v-295h-921v307h-539l-195 -307h-391zM692 578h402v577h-35z" />
<glyph unicode="&#xc7;" horiz-adv-x="1402" d="M70 725q0 174 58 315.5t162.5 240.5t248 152.5t313.5 53.5q61 0 128 -11.5t131.5 -36t123.5 -65.5t106 -100l-245 -201q-47 57 -116 88t-159 31t-166.5 -35t-133 -97.5t-88.5 -148.5t-32 -186q0 -102 32 -187t87 -147.5t130 -97.5t161 -35q98 0 174 41t125 115l266 -199 q-92 -129 -233.5 -190.5t-290.5 -61.5h-19.5t-19.5 2l-59 -88q45 0 91 -5t83 -22.5t60.5 -51.5t23.5 -91q0 -55 -30 -94t-74 -61.5t-93 -33t-88 -10.5q-61 0 -132 17.5t-124 44.5l51 96q25 -10 65 -22.5t93 -12.5q25 0 48.5 3.5t43 10.5t31.5 19t12 33q0 37 -36 53.5 t-66 16.5q-35 0 -74 -17l-66 60l111 167q-137 25 -249.5 87.5t-193.5 158.5t-126 223t-45 279z" />
<glyph unicode="&#xc8;" horiz-adv-x="1290" d="M160 0v1450h985v-295h-666v-270h629v-295h-629v-295h703v-295h-1022zM229 1849h418l207 -295h-270z" />
<glyph unicode="&#xc9;" horiz-adv-x="1290" d="M160 0v1450h985v-295h-666v-270h629v-295h-629v-295h703v-295h-1022zM440 1554l207 295h418l-354 -295h-271z" />
<glyph unicode="&#xca;" horiz-adv-x="1290" d="M160 0v1450h985v-295h-666v-270h629v-295h-629v-295h703v-295h-1022zM238 1554l243 295h334l238 -295h-283l-129 160l-127 -160h-276z" />
<glyph unicode="&#xcb;" horiz-adv-x="1290" d="M160 0v1450h985v-295h-666v-270h629v-295h-629v-295h703v-295h-1022zM260 1718q0 33 13.5 63.5t36 53.5t52 37t64.5 14q72 0 125 -47t53 -121t-49 -125t-125 -51q-37 0 -67.5 14.5t-53 39t-36 56t-13.5 66.5zM686 1718q0 33 13.5 63.5t36 53.5t52 37t64.5 14 q72 0 125 -47t53 -121t-49 -125t-125 -51q-37 0 -67.5 14.5t-53 39t-36 56t-13.5 66.5z" />
<glyph unicode="&#xcc;" horiz-adv-x="606" d="M-113 1849h418l207 -295h-270zM143 0v1450h320v-1450h-320z" />
<glyph unicode="&#xcd;" horiz-adv-x="606" d="M98 1554l207 295h418l-354 -295h-271zM143 0v1450h320v-1450h-320z" />
<glyph unicode="&#xce;" horiz-adv-x="606" d="M-104 1554l243 295h334l238 -295h-283l-129 160l-127 -160h-276zM143 0v1450h320v-1450h-320z" />
<glyph unicode="&#xcf;" horiz-adv-x="606" d="M-82 1718q0 33 13.5 63.5t36 53.5t52 37t64.5 14q72 0 125 -47t53 -121t-49 -125t-125 -51q-37 0 -67.5 14.5t-53 39t-36 56t-13.5 66.5zM143 0v1450h320v-1450h-320zM344 1718q0 33 13.5 63.5t36 53.5t52 37t64.5 14q72 0 125 -47t53 -121t-49 -125t-125 -51 q-37 0 -67.5 14.5t-53 39t-36 56t-13.5 66.5z" />
<glyph unicode="&#xd0;" horiz-adv-x="1554" d="M25 651v209h122v590h480q174 0 330.5 -39t273.5 -126t185.5 -226t68.5 -338q0 -176 -66.5 -310.5t-179.5 -225.5t-260.5 -138t-308.5 -47h-523v651h-122zM467 295h166q111 0 206 22.5t164.5 74.5t109.5 137t40 208q0 106 -40 185t-107.5 130.5t-158.5 77t-192 25.5h-188 v-295h405v-209h-405v-356z" />
<glyph unicode="&#xd1;" horiz-adv-x="1669" d="M147 0v1450h435l616 -1008h4v1008h320v-1450h-418l-633 1032h-4v-1032h-320zM434 1567q8 51 28.5 102t52.5 91t77 64.5t102 24.5q51 0 92 -12t86 -31q29 -10 56.5 -20t58.5 -10q35 0 55.5 21.5t34.5 51.5h160q-10 -59 -28.5 -110t-50.5 -89t-78 -60.5t-109 -22.5 q-45 0 -85 13t-75 30q-35 16 -66.5 29.5t-62.5 13.5q-35 0 -55.5 -29t-30.5 -57h-162z" />
<glyph unicode="&#xd2;" horiz-adv-x="1703" d="M70 725q0 174 58 315.5t162.5 240.5t248 152.5t313.5 53.5t313.5 -53.5t248 -152.5t162.5 -240.5t58 -315.5t-58 -315.5t-162.5 -240.5t-248 -152.5t-313.5 -53.5t-313.5 53.5t-248 152.5t-162.5 240.5t-58 315.5zM401 725q0 -102 32 -187t91.5 -147.5t142.5 -97.5 t185 -35t185 35t142.5 97.5t91.5 147.5t32 187q0 100 -32 186t-91.5 148.5t-142.5 97.5t-185 35t-185 -35t-142.5 -97.5t-91.5 -148.5t-32 -186zM436 1849h418l207 -295h-270z" />
<glyph unicode="&#xd3;" horiz-adv-x="1703" d="M70 725q0 174 58 315.5t162.5 240.5t248 152.5t313.5 53.5t313.5 -53.5t248 -152.5t162.5 -240.5t58 -315.5t-58 -315.5t-162.5 -240.5t-248 -152.5t-313.5 -53.5t-313.5 53.5t-248 152.5t-162.5 240.5t-58 315.5zM401 725q0 -102 32 -187t91.5 -147.5t142.5 -97.5 t185 -35t185 35t142.5 97.5t91.5 147.5t32 187q0 100 -32 186t-91.5 148.5t-142.5 97.5t-185 35t-185 -35t-142.5 -97.5t-91.5 -148.5t-32 -186zM647 1554l207 295h418l-354 -295h-271z" />
<glyph unicode="&#xd4;" horiz-adv-x="1703" d="M70 725q0 174 58 315.5t162.5 240.5t248 152.5t313.5 53.5t313.5 -53.5t248 -152.5t162.5 -240.5t58 -315.5t-58 -315.5t-162.5 -240.5t-248 -152.5t-313.5 -53.5t-313.5 53.5t-248 152.5t-162.5 240.5t-58 315.5zM401 725q0 -102 32 -187t91.5 -147.5t142.5 -97.5 t185 -35t185 35t142.5 97.5t91.5 147.5t32 187q0 100 -32 186t-91.5 148.5t-142.5 97.5t-185 35t-185 -35t-142.5 -97.5t-91.5 -148.5t-32 -186zM444 1554l244 295h334l238 -295h-283l-129 160l-127 -160h-277z" />
<glyph unicode="&#xd5;" horiz-adv-x="1703" d="M70 725q0 174 58 315.5t162.5 240.5t248 152.5t313.5 53.5t313.5 -53.5t248 -152.5t162.5 -240.5t58 -315.5t-58 -315.5t-162.5 -240.5t-248 -152.5t-313.5 -53.5t-313.5 53.5t-248 152.5t-162.5 240.5t-58 315.5zM401 725q0 -102 32 -187t91.5 -147.5t142.5 -97.5 t185 -35t185 35t142.5 97.5t91.5 147.5t32 187q0 100 -32 186t-91.5 148.5t-142.5 97.5t-185 35t-185 -35t-142.5 -97.5t-91.5 -148.5t-32 -186zM451 1567q8 51 28.5 102t52 91t76.5 64.5t103 24.5q51 0 92 -12t86 -31q29 -10 56.5 -20t58.5 -10q35 0 55 21.5t35 51.5h159 q-10 -59 -28.5 -110t-50 -89t-77.5 -60.5t-110 -22.5q-45 0 -85 13t-75 30q-35 16 -66.5 29.5t-62.5 13.5q-35 0 -55 -29t-31 -57h-161z" />
<glyph unicode="&#xd6;" horiz-adv-x="1703" d="M70 725q0 174 58 315.5t162.5 240.5t248 152.5t313.5 53.5t313.5 -53.5t248 -152.5t162.5 -240.5t58 -315.5t-58 -315.5t-162.5 -240.5t-248 -152.5t-313.5 -53.5t-313.5 53.5t-248 152.5t-162.5 240.5t-58 315.5zM401 725q0 -102 32 -187t91.5 -147.5t142.5 -97.5 t185 -35t185 35t142.5 97.5t91.5 147.5t32 187q0 100 -32 186t-91.5 148.5t-142.5 97.5t-185 35t-185 -35t-142.5 -97.5t-91.5 -148.5t-32 -186zM467 1718q0 33 13.5 63.5t36 53.5t52 37t64.5 14q72 0 125 -47t53 -121t-49 -125t-125 -51q-37 0 -67.5 14.5t-53 39t-36 56 t-13.5 66.5zM893 1718q0 33 13.5 63.5t36 53.5t52 37t64.5 14q72 0 125 -47t53 -121t-49 -125t-125 -51q-37 0 -67.5 14.5t-53 39t-36 56t-13.5 66.5z" />
<glyph unicode="&#xd7;" horiz-adv-x="1363" d="M131 973l191 194l362 -358l352 356l183 -176l-355 -368l369 -355l-189 -190l-360 360l-362 -362l-183 176l357 371z" />
<glyph unicode="&#xd8;" horiz-adv-x="1703" d="M70 -6l190 209q-92 98 -141 230t-49 292q0 174 58 315.5t162.5 240.5t248 152.5t313.5 53.5q268 0 465 -131l188 205l113 -101l-184 -200q96 -98 148 -233.5t52 -301.5q0 -174 -58 -315.5t-162.5 -240.5t-248 -152.5t-313.5 -53.5q-141 0 -262 37t-215 102l-191 -206z M401 725q0 -160 80 -281l623 678q-109 70 -252 70q-102 0 -185 -35t-142.5 -97.5t-91.5 -148.5t-32 -186zM588 336q53 -37 119.5 -57.5t144.5 -20.5q102 0 185 35t142.5 97.5t91.5 147.5t32 187q0 86 -24 161t-67 132z" />
<glyph unicode="&#xd9;" horiz-adv-x="1517" d="M147 559v891h320v-879q0 -68 21.5 -125t60.5 -99t93 -65.5t118 -23.5q63 0 116.5 23.5t92.5 65.5t60.5 99.5t21.5 124.5v879h319v-891q0 -129 -39 -237.5t-115.5 -188.5t-191.5 -125t-264 -45q-152 0 -266.5 45t-191.5 125t-116 188.5t-39 237.5zM344 1849h418l207 -295 h-271z" />
<glyph unicode="&#xda;" horiz-adv-x="1517" d="M147 559v891h320v-879q0 -68 21.5 -125t60.5 -99t93 -65.5t118 -23.5q63 0 116.5 23.5t92.5 65.5t60.5 99.5t21.5 124.5v879h319v-891q0 -129 -39 -237.5t-115.5 -188.5t-191.5 -125t-264 -45q-152 0 -266.5 45t-191.5 125t-116 188.5t-39 237.5zM555 1554l207 295h418 l-355 -295h-270z" />
<glyph unicode="&#xdb;" horiz-adv-x="1517" d="M147 559v891h320v-879q0 -68 21.5 -125t60.5 -99t93 -65.5t118 -23.5q63 0 116.5 23.5t92.5 65.5t60.5 99.5t21.5 124.5v879h319v-891q0 -129 -39 -237.5t-115.5 -188.5t-191.5 -125t-264 -45q-152 0 -266.5 45t-191.5 125t-116 188.5t-39 237.5zM352 1554l244 295h334 l237 -295h-282l-129 160l-127 -160h-277z" />
<glyph unicode="&#xdc;" horiz-adv-x="1517" d="M147 559v891h320v-879q0 -68 21.5 -125t60.5 -99t93 -65.5t118 -23.5q63 0 116.5 23.5t92.5 65.5t60.5 99.5t21.5 124.5v879h319v-891q0 -129 -39 -237.5t-115.5 -188.5t-191.5 -125t-264 -45q-152 0 -266.5 45t-191.5 125t-116 188.5t-39 237.5zM375 1718q0 33 13 63.5 t35.5 53.5t52.5 37t65 14q72 0 125 -47t53 -121t-49 -125t-125 -51q-37 0 -68 14.5t-53.5 39t-35.5 56t-13 66.5zM801 1718q0 33 13 63.5t35.5 53.5t52.5 37t65 14q72 0 125 -47t53 -121t-49 -125t-125 -51q-37 0 -68 14.5t-53.5 39t-35.5 56t-13 66.5z" />
<glyph unicode="&#xdd;" horiz-adv-x="1327" d="M-41 1450h397l308 -543l325 543h379l-545 -832v-618h-319v618zM459 1556l207 295h417l-354 -295h-270z" />
<glyph unicode="&#xde;" horiz-adv-x="1290" d="M147 0v1450h320v-258h219q113 0 213 -20.5t175 -70.5t119 -135t44 -214q0 -127 -41 -213t-112.5 -137.5t-170 -73t-213.5 -21.5h-233v-307h-320zM467 578h213q43 0 83 8t71.5 27.5t51 53t19.5 85.5q0 55 -25.5 88.5t-65.5 52t-89 24t-94 5.5h-164v-344z" />
<glyph unicode="&#xdf;" horiz-adv-x="1290" d="M109 0v1051q0 522 524 522q86 0 171 -21.5t152.5 -67.5t108.5 -117t41 -169q0 -119 -49 -201t-160 -127v-4q162 -33 241 -147.5t79 -274.5q0 -109 -37 -195.5t-101.5 -147t-153.5 -93.5t-196 -33q-96 0 -190 25v250q53 -16 100 -17q57 0 108.5 14.5t90.5 44.5t61.5 75 t22.5 106q0 131 -80 190.5t-201 59.5h-41v258h25q78 0 132 41t54 121q0 39 -15.5 68.5t-42 50t-59 31t-69.5 10.5q-94 0 -151.5 -54.5t-57.5 -146.5v-1102h-307z" />
<glyph unicode="&#xe0;" horiz-adv-x="1099" d="M59 283q0 86 32 145t86 98t124 60.5t144.5 32t149.5 12.5t138 2q0 82 -58.5 130t-137.5 48q-76 0 -138.5 -31.5t-111.5 -87.5l-164 168q86 80 200.5 120t237.5 40q135 0 222 -34t139.5 -99.5t73 -160.5t20.5 -220v-506h-283v125h-4q-51 -80 -136 -115t-179 -35 q-70 0 -134.5 19.5t-113.5 58.5t-78 96.5t-29 133.5zM135 1450h418l207 -295h-271zM354 293q0 -55 47.5 -82t98.5 -27q45 0 87 12.5t74.5 35t52 57.5t19.5 82v65h-76q-35 0 -87 -3t-100 -17.5t-82 -43t-34 -79.5z" />
<glyph unicode="&#xe1;" horiz-adv-x="1099" d="M59 283q0 86 32 145t86 98t124 60.5t144.5 32t149.5 12.5t138 2q0 82 -58.5 130t-137.5 48q-76 0 -138.5 -31.5t-111.5 -87.5l-164 168q86 80 200.5 120t237.5 40q135 0 222 -34t139.5 -99.5t73 -160.5t20.5 -220v-506h-283v125h-4q-51 -80 -136 -115t-179 -35 q-70 0 -134.5 19.5t-113.5 58.5t-78 96.5t-29 133.5zM346 1155l207 295h418l-355 -295h-270zM354 293q0 -55 47.5 -82t98.5 -27q45 0 87 12.5t74.5 35t52 57.5t19.5 82v65h-76q-35 0 -87 -3t-100 -17.5t-82 -43t-34 -79.5z" />
<glyph unicode="&#xe2;" horiz-adv-x="1099" d="M59 283q0 86 32 145t86 98t124 60.5t144.5 32t149.5 12.5t138 2q0 82 -58.5 130t-137.5 48q-76 0 -138.5 -31.5t-111.5 -87.5l-164 168q86 80 200.5 120t237.5 40q135 0 222 -34t139.5 -99.5t73 -160.5t20.5 -220v-506h-283v125h-4q-51 -80 -136 -115t-179 -35 q-70 0 -134.5 19.5t-113.5 58.5t-78 96.5t-29 133.5zM143 1155l244 295h334l237 -295h-282l-129 160l-127 -160h-277zM354 293q0 -55 47.5 -82t98.5 -27q45 0 87 12.5t74.5 35t52 57.5t19.5 82v65h-76q-35 0 -87 -3t-100 -17.5t-82 -43t-34 -79.5z" />
<glyph unicode="&#xe3;" horiz-adv-x="1099" d="M59 283q0 86 32 145t86 98t124 60.5t144.5 32t149.5 12.5t138 2q0 82 -58.5 130t-137.5 48q-76 0 -138.5 -31.5t-111.5 -87.5l-164 168q86 80 200.5 120t237.5 40q135 0 222 -34t139.5 -99.5t73 -160.5t20.5 -220v-506h-283v125h-4q-51 -80 -136 -115t-179 -35 q-70 0 -134.5 19.5t-113.5 58.5t-78 96.5t-29 133.5zM150 1167q8 51 28.5 102.5t52 91.5t76.5 64.5t103 24.5q51 0 92 -12.5t86 -30.5q29 -10 56.5 -20.5t57.5 -10.5q35 0 55.5 21.5t35.5 52.5h159q-10 -59 -28.5 -110.5t-50 -89.5t-77.5 -60.5t-110 -22.5q-45 0 -85 13.5 t-75 29.5t-66.5 29.5t-62.5 13.5q-35 0 -55 -28.5t-31 -57.5h-161zM354 293q0 -55 47.5 -82t98.5 -27q45 0 87 12.5t74.5 35t52 57.5t19.5 82v65h-76q-35 0 -87 -3t-100 -17.5t-82 -43t-34 -79.5z" />
<glyph unicode="&#xe4;" horiz-adv-x="1099" d="M59 283q0 86 32 145t86 98t124 60.5t144.5 32t149.5 12.5t138 2q0 82 -58.5 130t-137.5 48q-76 0 -138.5 -31.5t-111.5 -87.5l-164 168q86 80 200.5 120t237.5 40q135 0 222 -34t139.5 -99.5t73 -160.5t20.5 -220v-506h-283v125h-4q-51 -80 -136 -115t-179 -35 q-70 0 -134.5 19.5t-113.5 58.5t-78 96.5t-29 133.5zM166 1319q0 33 13.5 63.5t36 53t52 37t64.5 14.5q72 0 125 -47t53 -121t-49 -125t-125 -51q-37 0 -67.5 14t-53 39t-36 56.5t-13.5 66.5zM354 293q0 -55 47.5 -82t98.5 -27q45 0 87 12.5t74.5 35t52 57.5t19.5 82v65h-76 q-35 0 -87 -3t-100 -17.5t-82 -43t-34 -79.5zM592 1319q0 33 13 63.5t36 53t52.5 37t64.5 14.5q72 0 125 -47t53 -121t-49 -125t-125 -51q-37 0 -67.5 14t-53.5 39t-36 56.5t-13 66.5z" />
<glyph unicode="&#xe5;" horiz-adv-x="1099" d="M59 283q0 86 32 145t86 98t124 60.5t144.5 32t149.5 12.5t138 2q0 82 -58.5 130t-137.5 48q-76 0 -138.5 -31.5t-111.5 -87.5l-164 168q86 80 200.5 120t237.5 40q135 0 222 -34t139.5 -99.5t73 -160.5t20.5 -220v-506h-283v125h-4q-51 -80 -136 -115t-179 -35 q-70 0 -134.5 19.5t-113.5 58.5t-78 96.5t-29 133.5zM324 1343q0 47 18 88.5t49 72t72 49t88 18.5t88 -18.5t71.5 -49t49 -71.5t18.5 -89q0 -47 -18.5 -88t-49 -71.5t-71.5 -49t-88 -18.5t-88 18.5t-72 49t-49 71.5t-18 88zM354 293q0 -55 47.5 -82t98.5 -27q45 0 87 12.5 t74.5 35t52 57.5t19.5 82v65h-76q-35 0 -87 -3t-100 -17.5t-82 -43t-34 -79.5zM446 1343q0 -43 31 -73.5t74 -30.5t73.5 30.5t30.5 73.5t-30.5 74t-73.5 31t-74 -31t-31 -74z" />
<glyph unicode="&#xe6;" horiz-adv-x="1744" d="M59 283q0 80 31 135t81 92t114.5 56.5t133 29.5t136.5 12t123 2h37q0 90 -47 145.5t-131 55.5q-76 0 -138.5 -31.5t-111.5 -87.5l-164 168q86 80 200.5 120t237.5 40q88 0 173 -28.5t151 -92.5q61 59 148 90t186 31q106 0 193 -37t147.5 -105.5t93.5 -165t33 -214.5v-97 h-713q18 -88 79.5 -140t151.5 -52q76 0 128 33.5t91 87.5l215 -158q-74 -94 -186.5 -145.5t-232.5 -51.5q-123 0 -227.5 35t-170.5 127q-66 -90 -171 -126t-236 -36q-70 0 -134.5 19.5t-113.5 58.5t-78 96.5t-29 133.5zM354 285q0 -35 15.5 -54.5t38 -30t51 -13.5t53.5 -3 q111 0 157 59.5t46 157.5h-37q-35 0 -90.5 -2t-107.5 -12t-89 -34.5t-37 -67.5zM973 610h405q2 78 -51 133.5t-137 55.5q-51 0 -90 -16.5t-66.5 -42t-43 -59.5t-17.5 -71z" />
<glyph unicode="&#xe7;" horiz-adv-x="987" d="M78 498q0 119 43 215t117.5 164.5t176 105.5t216.5 37q88 0 185 -29.5t169 -103.5l-203 -213q-23 33 -63.5 54.5t-87.5 21.5q-117 0 -181.5 -70t-64.5 -182q0 -113 64.5 -182.5t181.5 -69.5q51 0 88 22.5t63 53.5l203 -213q-72 -74 -169 -104t-185 -30q-14 0 -19 2 l-67 -100q45 0 91 -5t83 -22.5t60.5 -51.5t23.5 -91q0 -55 -30 -94t-74 -61.5t-93 -33t-88 -10.5q-61 0 -132 17.5t-124 44.5l51 96q25 -10 65 -22.5t93 -12.5q25 0 48.5 3.5t43 10.5t31.5 19t12 33q0 37 -35.5 53.5t-66.5 16.5q-35 0 -74 -17l-65 60l122 184 q-90 18 -164.5 62t-129 108.5t-85 148.5t-30.5 185z" />
<glyph unicode="&#xe8;" d="M78 498q0 119 43 215t117.5 164.5t176 105.5t216.5 37q106 0 193 -37t147.5 -105.5t93.5 -165t33 -214.5v-97h-713q18 -88 79.5 -140t151.5 -52q76 0 128.5 33.5t91.5 87.5l215 -158q-74 -94 -186.5 -145.5t-233.5 -51.5q-115 0 -216.5 37t-176 105.5t-117.5 165 t-43 215.5zM172 1450h418l207 -295h-271zM385 610h406q2 78 -51.5 133.5t-137.5 55.5q-51 0 -90 -16.5t-66.5 -42t-43 -59.5t-17.5 -71z" />
<glyph unicode="&#xe9;" d="M78 498q0 119 43 215t117.5 164.5t176 105.5t216.5 37q106 0 193 -37t147.5 -105.5t93.5 -165t33 -214.5v-97h-713q18 -88 79.5 -140t151.5 -52q76 0 128.5 33.5t91.5 87.5l215 -158q-74 -94 -186.5 -145.5t-233.5 -51.5q-115 0 -216.5 37t-176 105.5t-117.5 165 t-43 215.5zM383 1155l207 295h418l-355 -295h-270zM385 610h406q2 78 -51.5 133.5t-137.5 55.5q-51 0 -90 -16.5t-66.5 -42t-43 -59.5t-17.5 -71z" />
<glyph unicode="&#xea;" d="M78 498q0 119 43 215t117.5 164.5t176 105.5t216.5 37q106 0 193 -37t147.5 -105.5t93.5 -165t33 -214.5v-97h-713q18 -88 79.5 -140t151.5 -52q76 0 128.5 33.5t91.5 87.5l215 -158q-74 -94 -186.5 -145.5t-233.5 -51.5q-115 0 -216.5 37t-176 105.5t-117.5 165 t-43 215.5zM180 1155l244 295h334l237 -295h-282l-129 160l-127 -160h-277zM385 610h406q2 78 -51.5 133.5t-137.5 55.5q-51 0 -90 -16.5t-66.5 -42t-43 -59.5t-17.5 -71z" />
<glyph unicode="&#xeb;" d="M78 498q0 119 43 215t117.5 164.5t176 105.5t216.5 37q106 0 193 -37t147.5 -105.5t93.5 -165t33 -214.5v-97h-713q18 -88 79.5 -140t151.5 -52q76 0 128.5 33.5t91.5 87.5l215 -158q-74 -94 -186.5 -145.5t-233.5 -51.5q-115 0 -216.5 37t-176 105.5t-117.5 165 t-43 215.5zM203 1319q0 33 13 63.5t35.5 53t52.5 37t65 14.5q72 0 125 -47t53 -121t-49 -125t-125 -51q-37 0 -68 14t-53.5 39t-35.5 56.5t-13 66.5zM385 610h406q2 78 -51.5 133.5t-137.5 55.5q-51 0 -90 -16.5t-66.5 -42t-43 -59.5t-17.5 -71zM629 1319q0 33 13 63.5 t35.5 53t52.5 37t65 14.5q72 0 125 -47t53 -121t-49 -125t-125 -51q-37 0 -68 14t-53.5 39t-35.5 56.5t-13 66.5z" />
<glyph unicode="&#xec;" horiz-adv-x="532" d="M-150 1450h418l207 -295h-270zM113 0v995h307v-995h-307z" />
<glyph unicode="&#xed;" horiz-adv-x="532" d="M61 1155l207 295h418l-354 -295h-271zM113 0v995h307v-995h-307z" />
<glyph unicode="&#xee;" horiz-adv-x="532" d="M-141 1155l243 295h334l238 -295h-283l-129 160l-127 -160h-276zM113 0v995h307v-995h-307z" />
<glyph unicode="&#xef;" horiz-adv-x="532" d="M-119 1319q0 33 13.5 63.5t36 53t52 37t64.5 14.5q72 0 125 -47t53 -121t-49 -125t-125 -51q-37 0 -67.5 14t-53 39t-36 56.5t-13.5 66.5zM113 0v995h307v-995h-307zM307 1319q0 33 13.5 63.5t36 53t52 37t64.5 14.5q72 0 125 -47t53 -121t-49 -125t-125 -51 q-37 0 -67.5 14t-53 39t-36 56.5t-13.5 66.5z" />
<glyph unicode="&#xf0;" horiz-adv-x="1249" d="M72 498q0 119 44 215t115.5 164.5t162.5 105.5t186 37q53 0 106 -9.5t94 -43.5l4 4q-20 29 -48.5 64.5t-59.5 72.5t-62.5 70.5t-56.5 56.5l-217 -92l-147 139l221 94q-10 10 -26.5 25.5t-36 33t-40 34t-39.5 28.5l250 143q47 -35 87 -71.5t77 -75.5l234 98l157 -137 l-252 -104q49 -51 109.5 -123t115 -167t91.5 -214t37 -264q0 -139 -36 -252t-106.5 -192t-173 -122t-237.5 -41q-115 0 -216.5 37t-176 105.5t-117.5 165t-43 215.5zM379 498q0 -113 64.5 -182.5t181.5 -69.5t181 69.5t64 182.5t-64.5 182.5t-180.5 69.5 q-117 0 -181.5 -69.5t-64.5 -182.5z" />
<glyph unicode="&#xf1;" d="M109 0v995h294v-135h5q14 29 40.5 57.5t63.5 51t84 37t102 14.5q117 0 188.5 -36t111.5 -99.5t54.5 -149.5t14.5 -186v-549h-307v487q0 43 -3 89.5t-18.5 85t-47.5 63.5t-91 25t-96 -21.5t-56.5 -57.5t-25.5 -81t-6 -94v-496h-307zM186 1167q8 51 29 102.5t52.5 91.5 t76.5 64.5t102 24.5q51 0 92.5 -12.5t86.5 -30.5q29 -10 56.5 -20.5t57.5 -10.5q35 0 55.5 21.5t34.5 52.5h160q-10 -59 -28.5 -110.5t-50 -89.5t-78 -60.5t-109.5 -22.5q-45 0 -85 13.5t-75 29.5t-66.5 29.5t-62.5 13.5q-35 0 -55.5 -28.5t-30.5 -57.5h-162z" />
<glyph unicode="&#xf2;" horiz-adv-x="1249" d="M72 498q0 119 43 215t117.5 164.5t176 105.5t216.5 37t216 -37t176 -105.5t118 -165t43 -214.5q0 -119 -43 -215.5t-118 -165t-176.5 -105.5t-215.5 -37q-115 0 -216.5 37t-176 105.5t-117.5 165t-43 215.5zM209 1450h418l207 -295h-271zM379 498q0 -113 64.5 -182.5 t181.5 -69.5t181 69.5t64 182.5t-64.5 182.5t-180.5 69.5q-117 0 -181.5 -69.5t-64.5 -182.5z" />
<glyph unicode="&#xf3;" horiz-adv-x="1249" d="M72 498q0 119 43 215t117.5 164.5t176 105.5t216.5 37t216 -37t176 -105.5t118 -165t43 -214.5q0 -119 -43 -215.5t-118 -165t-176.5 -105.5t-215.5 -37q-115 0 -216.5 37t-176 105.5t-117.5 165t-43 215.5zM379 498q0 -113 64.5 -182.5t181.5 -69.5t181 69.5t64 182.5 t-64.5 182.5t-180.5 69.5q-117 0 -181.5 -69.5t-64.5 -182.5zM420 1155l207 295h417l-354 -295h-270z" />
<glyph unicode="&#xf4;" horiz-adv-x="1249" d="M72 498q0 119 43 215t117.5 164.5t176 105.5t216.5 37t216 -37t176 -105.5t118 -165t43 -214.5q0 -119 -43 -215.5t-118 -165t-176.5 -105.5t-215.5 -37q-115 0 -216.5 37t-176 105.5t-117.5 165t-43 215.5zM217 1155l244 295h334l237 -295h-282l-129 160l-127 -160h-277 zM379 498q0 -113 64.5 -182.5t181.5 -69.5t181 69.5t64 182.5t-64.5 182.5t-180.5 69.5q-117 0 -181.5 -69.5t-64.5 -182.5z" />
<glyph unicode="&#xf5;" horiz-adv-x="1249" d="M72 498q0 119 43 215t117.5 164.5t176 105.5t216.5 37t216 -37t176 -105.5t118 -165t43 -214.5q0 -119 -43 -215.5t-118 -165t-176.5 -105.5t-215.5 -37q-115 0 -216.5 37t-176 105.5t-117.5 165t-43 215.5zM223 1167q8 51 28.5 102.5t52.5 91.5t77 64.5t102 24.5 q51 0 92 -12.5t87 -30.5q29 -10 56 -20.5t58 -10.5q35 0 55.5 21.5t34.5 52.5h160q-10 -59 -28.5 -110.5t-50.5 -89.5t-78 -60.5t-109 -22.5q-45 0 -85 13.5t-75 29.5t-66.5 29.5t-62.5 13.5q-35 0 -55.5 -28.5t-30.5 -57.5h-162zM379 498q0 -113 64.5 -182.5t181.5 -69.5 t181 69.5t64 182.5t-64.5 182.5t-180.5 69.5q-117 0 -181.5 -69.5t-64.5 -182.5z" />
<glyph unicode="&#xf6;" horiz-adv-x="1249" d="M72 498q0 119 43 215t117.5 164.5t176 105.5t216.5 37t216 -37t176 -105.5t118 -165t43 -214.5q0 -119 -43 -215.5t-118 -165t-176.5 -105.5t-215.5 -37q-115 0 -216.5 37t-176 105.5t-117.5 165t-43 215.5zM240 1319q0 33 13 63.5t35.5 53t52.5 37t65 14.5q72 0 125 -47 t53 -121t-49 -125t-125 -51q-37 0 -68 14t-53.5 39t-35.5 56.5t-13 66.5zM379 498q0 -113 64.5 -182.5t181.5 -69.5t181 69.5t64 182.5t-64.5 182.5t-180.5 69.5q-117 0 -181.5 -69.5t-64.5 -182.5zM666 1319q0 33 13 63.5t35.5 53t52.5 37t64 14.5q72 0 125.5 -47 t53.5 -121t-49 -125t-125 -51q-37 0 -68 14t-53.5 39t-35.5 56.5t-13 66.5z" />
<glyph unicode="&#xf7;" horiz-adv-x="1363" d="M121 492v258h1122v-258h-1122zM506 233q0 37 14.5 69t38 55.5t55 38t68.5 14.5t68.5 -14.5t55 -38t38 -55.5t14.5 -69t-14.5 -68.5t-38 -55t-55 -38t-68.5 -14.5t-68.5 14.5t-55 38t-38 55t-14.5 68.5zM506 1008q0 37 14.5 68.5t38 55t55 38t68.5 14.5t68.5 -14.5t55 -38 t38 -55.5t14.5 -68q0 -37 -14.5 -69t-38 -55.5t-55 -38t-68.5 -14.5t-68.5 14.5t-55 38t-38 55.5t-14.5 69z" />
<glyph unicode="&#xf8;" horiz-adv-x="1249" d="M53 12l144 144q-59 66 -92 151.5t-33 190.5q0 119 43 215t117.5 164.5t176 105.5t216.5 37q98 0 183 -26.5t155 -73.5l137 137l96 -92l-135 -136q55 -66 86 -149.5t31 -181.5q0 -119 -43 -215.5t-118 -165t-176.5 -105.5t-215.5 -37q-184 0 -326 95l-149 -150zM379 498 q0 -74 31 -129l348 348q-55 33 -133 33q-117 0 -181.5 -70t-64.5 -182zM504 274q53 -29 121 -28q117 0 181 69.5t64 182.5q0 63 -24 116z" />
<glyph unicode="&#xf9;" d="M109 446v549h307v-487q0 -43 3 -89t18.5 -85t47 -63.5t90.5 -24.5t96.5 21.5t57 57t25.5 81t6 94.5v495h307v-995h-295v135h-4q-16 -29 -42 -57.5t-62.5 -51t-84 -37t-102.5 -14.5q-117 0 -189.5 36t-112.5 99.5t-53 149.5t-13 186zM172 1450h418l207 -295h-271z" />
<glyph unicode="&#xfa;" d="M109 446v549h307v-487q0 -43 3 -89t18.5 -85t47 -63.5t90.5 -24.5t96.5 21.5t57 57t25.5 81t6 94.5v495h307v-995h-295v135h-4q-16 -29 -42 -57.5t-62.5 -51t-84 -37t-102.5 -14.5q-117 0 -189.5 36t-112.5 99.5t-53 149.5t-13 186zM383 1155l207 295h418l-355 -295h-270 z" />
<glyph unicode="&#xfb;" d="M109 446v549h307v-487q0 -43 3 -89t18.5 -85t47 -63.5t90.5 -24.5t96.5 21.5t57 57t25.5 81t6 94.5v495h307v-995h-295v135h-4q-16 -29 -42 -57.5t-62.5 -51t-84 -37t-102.5 -14.5q-117 0 -189.5 36t-112.5 99.5t-53 149.5t-13 186zM180 1155l244 295h334l237 -295h-282 l-129 160l-127 -160h-277z" />
<glyph unicode="&#xfc;" d="M109 446v549h307v-487q0 -43 3 -89t18.5 -85t47 -63.5t90.5 -24.5t96.5 21.5t57 57t25.5 81t6 94.5v495h307v-995h-295v135h-4q-16 -29 -42 -57.5t-62.5 -51t-84 -37t-102.5 -14.5q-117 0 -189.5 36t-112.5 99.5t-53 149.5t-13 186zM203 1319q0 33 13 63.5t35.5 53 t52.5 37t65 14.5q72 0 125 -47t53 -121t-49 -125t-125 -51q-37 0 -68 14t-53.5 39t-35.5 56.5t-13 66.5zM629 1319q0 33 13 63.5t35.5 53t52.5 37t65 14.5q72 0 125 -47t53 -121t-49 -125t-125 -51q-37 0 -68 14t-53.5 39t-35.5 56.5t-13 66.5z" />
<glyph unicode="&#xfd;" horiz-adv-x="1138" d="M6 995h332l256 -657h4l219 657h316l-451 -1157q-31 -80 -59.5 -141.5t-72.5 -103.5t-111.5 -63.5t-178.5 -21.5q-119 0 -229 37l41 252q70 -31 143 -30q51 0 84 11t54.5 32.5t35.5 52.5t31 71l22 58zM365 1155l206 295h418l-354 -295h-270z" />
<glyph unicode="&#xfe;" horiz-adv-x="1290" d="M137 -467v2015h307v-659h5q18 31 47.5 54.5t67.5 40.5t80 26.5t85 9.5q111 0 201 -38t154.5 -106.5t99.5 -163t35 -206.5q0 -104 -32 -199.5t-90.5 -169.5t-142.5 -118t-190 -44q-96 0 -179 30t-136 101h-5v-573h-307zM420 498q0 -113 64.5 -182.5t181.5 -69.5t181 69.5 t64 182.5t-64.5 182.5t-180.5 69.5q-117 0 -181.5 -69.5t-64.5 -182.5z" />
<glyph unicode="&#xff;" horiz-adv-x="1138" d="M6 995h332l256 -657h4l219 657h316l-451 -1157q-31 -80 -59.5 -141.5t-72.5 -103.5t-111.5 -63.5t-178.5 -21.5q-119 0 -229 37l41 252q70 -31 143 -30q51 0 84 11t54.5 32.5t35.5 52.5t31 71l22 58zM184 1319q0 33 13.5 63.5t36 53t52 37t64.5 14.5q72 0 125 -47 t53 -121t-49 -125t-125 -51q-37 0 -67.5 14t-53 39t-36 56.5t-13.5 66.5zM610 1319q0 33 13.5 63.5t36 53t52 37t64.5 14.5q72 0 125 -47t53 -121t-49 -125t-125 -51q-37 0 -67.5 14t-53 39t-36 56.5t-13.5 66.5z" />
<glyph unicode="&#x100;" horiz-adv-x="1517" d="M-2 0l627 1450h264l631 -1450h-361l-125 307h-563l-121 -307h-352zM410 1612v196h696v-196h-696zM571 578h355l-178 450z" />
<glyph unicode="&#x101;" horiz-adv-x="1099" d="M59 283q0 86 32 145t86 98t124 60.5t144.5 32t149.5 12.5t138 2q0 82 -58.5 130t-137.5 48q-76 0 -138.5 -31.5t-111.5 -87.5l-164 168q86 80 200.5 120t237.5 40q135 0 222 -34t139.5 -99.5t73 -160.5t20.5 -220v-506h-283v125h-4q-51 -80 -136 -115t-179 -35 q-70 0 -134.5 19.5t-113.5 58.5t-78 96.5t-29 133.5zM201 1210v197h696v-197h-696zM354 293q0 -55 47.5 -82t98.5 -27q45 0 87 12.5t74.5 35t52 57.5t19.5 82v65h-76q-35 0 -87 -3t-100 -17.5t-82 -43t-34 -79.5z" />
<glyph unicode="&#x102;" horiz-adv-x="1517" d="M-2 0l627 1450h264l631 -1450h-361l-125 307h-563l-121 -307h-352zM381 1851h164q6 -31 27.5 -49t51 -29.5t64.5 -15.5t70 -4q80 0 136 15.5t79 82.5h162q-8 -78 -41 -134t-83 -92t-115 -52.5t-138 -16.5q-74 0 -139.5 15.5t-116.5 51.5t-84 92.5t-37 135.5zM571 578h355 l-178 450z" />
<glyph unicode="&#x103;" horiz-adv-x="1099" d="M59 283q0 86 32 145t86 98t124 60.5t144.5 32t149.5 12.5t138 2q0 82 -58.5 130t-137.5 48q-76 0 -138.5 -31.5t-111.5 -87.5l-164 168q86 80 200.5 120t237.5 40q135 0 222 -34t139.5 -99.5t73 -160.5t20.5 -220v-506h-283v125h-4q-51 -80 -136 -115t-179 -35 q-70 0 -134.5 19.5t-113.5 58.5t-78 96.5t-29 133.5zM172 1450h164q6 -31 27.5 -49.5t51 -29.5t64.5 -15t70 -4q80 0 136 15t79 83h162q-8 -78 -41 -134t-83 -92t-114.5 -52.5t-138.5 -16.5t-139.5 15.5t-116.5 51t-84 92t-37 136.5zM354 293q0 -55 47.5 -82t98.5 -27 q45 0 87 12.5t74.5 35t52 57.5t19.5 82v65h-76q-35 0 -87 -3t-100 -17.5t-82 -43t-34 -79.5z" />
<glyph unicode="&#x104;" horiz-adv-x="1517" d="M-2 0l627 1450h264l631 -1450h-111q-25 -25 -50.5 -54.5t-46 -63.5t-33.5 -67.5t-13 -64.5q0 -35 24.5 -64.5t61.5 -29.5q29 0 58.5 14.5t51.5 32.5l58 -109q-51 -39 -104.5 -62.5t-119.5 -23.5q-43 0 -81.5 12.5t-68.5 37t-47.5 60.5t-17.5 81q0 39 17.5 81t44 82 t59.5 74.5t64 63.5h-107l-125 307h-563l-121 -307h-352zM571 578h355l-178 450z" />
<glyph unicode="&#x105;" horiz-adv-x="1099" d="M59 283q0 86 32 145t86 98t124 60.5t144.5 32t149.5 12.5t138 2q0 82 -58.5 130t-137.5 48q-76 0 -138.5 -31.5t-111.5 -87.5l-164 168q86 80 200.5 120t237.5 40q135 0 222 -34t139.5 -99.5t73 -160.5t20.5 -220v-506h-68q-25 -25 -50.5 -54.5t-46 -63.5t-33.5 -67.5 t-13 -64.5q0 -35 24.5 -64.5t61.5 -29.5q29 0 58.5 14.5t51.5 32.5l58 -109q-51 -39 -104.5 -62.5t-118.5 -23.5q-43 0 -82 12.5t-69 37t-47 60.5t-17 81q0 39 17 81t44 82t59.5 74.5t63.5 63.5h-72v125h-4q-51 -80 -136 -115t-179 -35q-70 0 -134.5 19.5t-113.5 58.5 t-78 96.5t-29 133.5zM354 293q0 -55 47.5 -82t98.5 -27q45 0 87 12.5t74.5 35t52 57.5t19.5 82v65h-76q-35 0 -87 -3t-100 -17.5t-82 -43t-34 -79.5z" />
<glyph unicode="&#x106;" horiz-adv-x="1402" d="M70 725q0 174 58 315.5t162.5 240.5t248 152.5t313.5 53.5q61 0 128 -11.5t131.5 -36t123.5 -65.5t106 -100l-245 -201q-47 57 -116 88t-159 31t-166.5 -35t-133 -97.5t-88.5 -148.5t-32 -186q0 -102 32 -187t87 -147.5t130 -97.5t161 -35q98 0 174 41t125 115l266 -199 q-92 -129 -233.5 -190.5t-290.5 -61.5q-170 0 -313.5 53.5t-248 152.5t-162.5 240.5t-58 315.5zM549 1556l207 295h418l-355 -295h-270z" />
<glyph unicode="&#x107;" horiz-adv-x="987" d="M78 498q0 119 43 215t117.5 164.5t176 105.5t216.5 37q88 0 185 -29.5t169 -103.5l-203 -213q-23 33 -63.5 54.5t-87.5 21.5q-117 0 -181.5 -70t-64.5 -182q0 -113 64.5 -182.5t181.5 -69.5q51 0 88 22.5t63 53.5l203 -213q-72 -74 -169 -104t-185 -30q-115 0 -216.5 37 t-176 105.5t-117.5 165t-43 215.5zM348 1155l207 295h418l-355 -295h-270z" />
<glyph unicode="&#x10c;" horiz-adv-x="1402" d="M70 725q0 174 58 315.5t162.5 240.5t248 152.5t313.5 53.5q61 0 128 -11.5t131.5 -36t123.5 -65.5t106 -100l-245 -201q-47 57 -116 88t-159 31t-166.5 -35t-133 -97.5t-88.5 -148.5t-32 -186q0 -102 32 -187t87 -147.5t130 -97.5t161 -35q98 0 174 41t125 115l266 -199 q-92 -129 -233.5 -190.5t-290.5 -61.5q-170 0 -313.5 53.5t-248 152.5t-162.5 240.5t-58 315.5zM426 1851h283l129 -159l127 159h276l-244 -295h-333z" />
<glyph unicode="&#x10d;" horiz-adv-x="987" d="M78 498q0 119 43 215t117.5 164.5t176 105.5t216.5 37q88 0 185 -29.5t169 -103.5l-203 -213q-23 33 -63.5 54.5t-87.5 21.5q-117 0 -181.5 -70t-64.5 -182q0 -113 64.5 -182.5t181.5 -69.5q51 0 88 22.5t63 53.5l203 -213q-72 -74 -169 -104t-185 -30q-115 0 -216.5 37 t-176 105.5t-117.5 165t-43 215.5zM231 1450h283l129 -160l127 160h277l-244 -295h-334z" />
<glyph unicode="&#x10e;" horiz-adv-x="1554" d="M147 0v1450h480q174 0 330.5 -39t273.5 -126t185.5 -226t68.5 -338q0 -176 -66.5 -310.5t-179.5 -225.5t-260.5 -138t-308.5 -47h-523zM369 1851h282l129 -159l127 159h277l-244 -295h-334zM467 295h166q111 0 206 22.5t164.5 74.5t109.5 137t40 208q0 106 -40 185 t-107.5 130.5t-158.5 77t-192 25.5h-188v-860z" />
<glyph unicode="&#x10f;" horiz-adv-x="1540" d="M72 489q0 104 31.5 199.5t90 169.5t142.5 118t190 44q96 0 179 -29.5t137 -101.5h4v659h307v-1548h-283v131h-4q-18 -27 -48 -54.5t-69.5 -50t-88 -37t-99.5 -14.5q-111 0 -201 38t-154.5 106.5t-99 163t-34.5 206.5zM379 498q0 -113 64.5 -182.5t181.5 -69.5t181 69.5 t64 182.5t-64.5 182.5t-180.5 69.5q-117 0 -181.5 -70t-64.5 -182zM1204 1147l127 401h295l-182 -401h-240z" />
<glyph unicode="&#x110;" horiz-adv-x="1554" d="M25 651v209h122v590h480q174 0 330.5 -39t273.5 -126t185.5 -226t68.5 -338q0 -176 -66.5 -310.5t-179.5 -225.5t-260.5 -138t-308.5 -47h-523v651h-122zM467 295h166q111 0 206 22.5t164.5 74.5t109.5 137t40 208q0 106 -40 185t-107.5 130.5t-158.5 77t-192 25.5h-188 v-295h405v-209h-405v-356z" />
<glyph unicode="&#x111;" horiz-adv-x="1290" d="M72 489q0 104 31.5 199.5t90 169.5t142.5 118t190 44q96 0 179 -29.5t137 -101.5h4v321h-314v197h314v141h307v-141h137v-197h-137v-1210h-283v131h-4q-18 -27 -48 -54.5t-69.5 -50t-88 -37t-99.5 -14.5q-111 0 -201 38t-154.5 106.5t-99 163t-34.5 206.5zM379 498 q0 -113 64.5 -182.5t181.5 -69.5t181 69.5t64 182.5t-64.5 182.5t-180.5 69.5q-117 0 -181.5 -70t-64.5 -182z" />
<glyph unicode="&#x112;" horiz-adv-x="1290" d="M160 0v1450h985v-295h-666v-270h629v-295h-629v-295h703v-295h-1022zM309 1612v196h697v-196h-697z" />
<glyph unicode="&#x113;" d="M78 498q0 119 43 215t117.5 164.5t176 105.5t216.5 37q106 0 193 -37t147.5 -105.5t93.5 -165t33 -214.5v-97h-713q18 -88 79.5 -140t151.5 -52q76 0 128.5 33.5t91.5 87.5l215 -158q-74 -94 -186.5 -145.5t-233.5 -51.5q-115 0 -216.5 37t-176 105.5t-117.5 165 t-43 215.5zM240 1210v197h696v-197h-696zM385 610h406q2 78 -51.5 133.5t-137.5 55.5q-51 0 -90 -16.5t-66.5 -42t-43 -59.5t-17.5 -71z" />
<glyph unicode="&#x116;" horiz-adv-x="1290" d="M160 0v1450h985v-295h-666v-270h629v-295h-629v-295h703v-295h-1022zM492 1722q0 33 13 64t35.5 53.5t52.5 36.5t64 14q72 0 125.5 -47t53.5 -121t-49 -125t-125 -51q-37 0 -68 14.5t-53.5 39t-35.5 56.5t-13 66z" />
<glyph unicode="&#x117;" d="M78 498q0 119 43 215t117.5 164.5t176 105.5t216.5 37q106 0 193 -37t147.5 -105.5t93.5 -165t33 -214.5v-97h-713q18 -88 79.5 -140t151.5 -52q76 0 128.5 33.5t91.5 87.5l215 -158q-74 -94 -186.5 -145.5t-233.5 -51.5q-115 0 -216.5 37t-176 105.5t-117.5 165 t-43 215.5zM385 610h406q2 78 -51.5 133.5t-137.5 55.5q-51 0 -90 -16.5t-66.5 -42t-43 -59.5t-17.5 -71zM461 1319q0 33 13 63.5t35.5 53t52.5 37t65 14.5q72 0 125 -47t53 -121t-49 -125t-125 -51q-37 0 -68 14t-53.5 39t-35.5 56.5t-13 66.5z" />
<glyph unicode="&#x118;" horiz-adv-x="1290" d="M160 0v1450h985v-295h-666v-270h629v-295h-629v-295h703v-295h-105q-25 -25 -50.5 -54.5t-45.5 -63.5t-33.5 -67.5t-13.5 -64.5q0 -35 24.5 -64.5t61.5 -29.5q29 0 58.5 14.5t51.5 32.5l58 -109q-51 -39 -104.5 -62.5t-118.5 -23.5q-43 0 -82 12.5t-69 37t-47 60.5 t-17 81q0 39 17 81t44 82t59.5 74.5t63.5 63.5h-774z" />
<glyph unicode="&#x119;" d="M78 498q0 119 43 215t117.5 164.5t176 105.5t216.5 37q106 0 193 -37t147.5 -105.5t93.5 -165t33 -214.5v-97h-713q18 -88 79.5 -140t151.5 -52q76 0 128.5 33.5t91.5 87.5l215 -158q-47 -61 -113 -105t-141 -67q-25 -23 -50.5 -53.5t-46 -64.5t-34 -67.5t-13.5 -64.5 q0 -35 24.5 -64.5t61.5 -29.5q29 0 58.5 14.5t52.5 32.5l57 -109q-51 -39 -104 -62.5t-119 -23.5q-43 0 -82 12.5t-68.5 37t-47 60.5t-17.5 81q0 37 13.5 74t36 72.5t51 68.5t57.5 61q-115 0 -215.5 38t-174 105.5t-116.5 164t-43 215.5zM385 610h406q2 78 -51.5 133.5 t-137.5 55.5q-51 0 -90 -16.5t-66.5 -42t-43 -59.5t-17.5 -71z" />
<glyph unicode="&#x11a;" horiz-adv-x="1290" d="M160 0v1450h985v-295h-666v-270h629v-295h-629v-295h703v-295h-1022zM258 1851h283l129 -159l127 159h276l-244 -295h-333z" />
<glyph unicode="&#x11b;" d="M78 498q0 119 43 215t117.5 164.5t176 105.5t216.5 37q106 0 193 -37t147.5 -105.5t93.5 -165t33 -214.5v-97h-713q18 -88 79.5 -140t151.5 -52q76 0 128.5 33.5t91.5 87.5l215 -158q-74 -94 -186.5 -145.5t-233.5 -51.5q-115 0 -216.5 37t-176 105.5t-117.5 165 t-43 215.5zM180 1450h283l129 -160l127 160h276l-243 -295h-334zM385 610h406q2 78 -51.5 133.5t-137.5 55.5q-51 0 -90 -16.5t-66.5 -42t-43 -59.5t-17.5 -71z" />
<glyph unicode="&#x11e;" horiz-adv-x="1593" d="M70 725q0 174 58 315.5t162.5 240.5t248 152.5t313.5 53.5q174 0 320.5 -42t257.5 -145l-226 -245q-66 68 -147.5 102.5t-204.5 34.5q-102 0 -185 -35t-142.5 -97.5t-91.5 -148.5t-32 -186q0 -102 32 -187t91.5 -147.5t142.5 -97.5t185 -35q104 0 180 23.5t121 48.5v235 h-260v295h567v-758q-141 -74 -294.5 -106.5t-313.5 -32.5q-170 0 -313.5 53.5t-248 152.5t-162.5 240.5t-58 315.5zM475 1851h164q6 -31 27.5 -49t51.5 -29.5t64.5 -15.5t69.5 -4q80 0 136 15.5t79 82.5h162q-8 -78 -41 -134t-83 -92t-114.5 -52.5t-138.5 -16.5t-139.5 15.5 t-116.5 51.5t-84 92.5t-37 135.5z" />
<glyph unicode="&#x11f;" horiz-adv-x="1290" d="M72 502q0 98 31.5 192t90 166t142.5 116t190 44q66 0 120 -14.5t97 -37t74 -50t49 -54.5h4v131h283v-911q0 -283 -142.5 -429.5t-432.5 -146.5q-133 0 -262.5 30t-237.5 116l170 254q72 -59 150.5 -94t172.5 -35q141 0 208 68.5t67 175.5v96h-4q-53 -72 -132 -101.5 t-149 -29.5q-111 0 -201 37.5t-154.5 106.5t-99 163t-34.5 207zM268 1450h164q6 -31 27.5 -49.5t51.5 -29.5t64.5 -15t69.5 -4q80 0 136.5 15t78.5 83h162q-8 -78 -41 -134t-83 -92t-114.5 -52.5t-138.5 -16.5t-139.5 15.5t-116.5 51t-84 92t-37 136.5zM379 504 q0 -49 18.5 -93t52 -78t77.5 -54.5t98 -20.5q51 0 96 20.5t79 54.5t52 78t18 93t-18 93t-52 78t-79 54.5t-96 20.5q-53 0 -97.5 -20.5t-78 -54.5t-52 -78t-18.5 -93z" />
<glyph unicode="&#x122;" horiz-adv-x="1593" d="M70 725q0 174 58 315.5t162.5 240.5t248 152.5t313.5 53.5q174 0 320.5 -42t257.5 -145l-226 -245q-66 68 -147.5 102.5t-204.5 34.5q-102 0 -185 -35t-142.5 -97.5t-91.5 -148.5t-32 -186q0 -102 32 -187t91.5 -147.5t142.5 -97.5t185 -35q104 0 180 23.5t121 48.5v235 h-260v295h567v-758q-141 -74 -294.5 -106.5t-313.5 -32.5q-170 0 -313.5 53.5t-248 152.5t-162.5 240.5t-58 315.5zM586 -500l127 402h295l-183 -402h-239z" />
<glyph unicode="&#x123;" horiz-adv-x="1290" d="M72 502q0 98 31.5 192t90 166t142.5 116t190 44q66 0 120 -14.5t97 -37t74 -50t49 -54.5h4v131h283v-911q0 -283 -142.5 -429.5t-432.5 -146.5q-133 0 -262.5 30t-237.5 116l170 254q72 -59 150.5 -94t172.5 -35q141 0 208 68.5t67 175.5v96h-4q-53 -72 -132 -101.5 t-149 -29.5q-111 0 -201 37.5t-154.5 106.5t-99 163t-34.5 207zM362 1155l183 401h239l-127 -401h-295zM379 504q0 -49 18.5 -93t52 -78t77.5 -54.5t98 -20.5q51 0 96 20.5t79 54.5t52 78t18 93t-18 93t-52 78t-79 54.5t-96 20.5q-53 0 -97.5 -20.5t-78 -54.5t-52 -78 t-18.5 -93z" />
<glyph unicode="&#x128;" horiz-adv-x="606" d="M-76 1577q6 45 23.5 89t48.5 80t73 58.5t95 22.5q31 0 61.5 -7.5t85.5 -29.5q35 -12 69 -23.5t64 -11.5q37 0 57.5 15.5t33.5 56.5h141q-10 -43 -23.5 -84t-38 -73t-64.5 -53.5t-104 -23.5q-39 0 -70.5 6.5t-94.5 28.5q-51 16 -80 25.5t-60 9.5q-39 0 -60.5 -23.5 t-31.5 -62.5h-125zM143 0v1450h320v-1450h-320z" />
<glyph unicode="&#x129;" horiz-adv-x="532" d="M-76 1534q6 45 23.5 89t48.5 80t73 58.5t95 22.5q31 0 61.5 -7.5t85.5 -29.5q35 -12 69 -23.5t64 -11.5q37 0 57.5 15.5t33.5 56.5h141q-10 -43 -23.5 -84t-38 -73t-64.5 -53.5t-104 -23.5q-39 0 -70.5 6.5t-94.5 28.5q-51 16 -80 25.5t-60 9.5q-39 0 -60.5 -23.5 t-31.5 -62.5h-125zM88 1309q0 74 52.5 126t125.5 52q74 0 126 -52.5t52 -125.5q0 -74 -52 -126.5t-126 -52.5t-126 52.5t-52 126.5zM113 0v995h307v-995h-307z" />
<glyph unicode="&#x12a;" horiz-adv-x="606" d="M-45 1612v196h696v-196h-696zM143 0v1450h320v-1450h-320z" />
<glyph unicode="&#x12b;" horiz-adv-x="532" d="M-82 1210v197h696v-197h-696zM113 0v995h307v-995h-307z" />
<glyph unicode="&#x12e;" horiz-adv-x="606" d="M49 -301q0 39 17.5 81t44 82t59.5 74.5t63 63.5h-90v1450h320v-1450h-86q-25 -25 -50.5 -54.5t-46 -63.5t-34 -67.5t-13.5 -64.5q0 -35 25 -64.5t61 -29.5q29 0 59 14.5t52 32.5l57 -109q-51 -39 -104 -62.5t-119 -23.5q-43 0 -82 12.5t-68.5 37t-47 60.5t-17.5 81z" />
<glyph unicode="&#x12f;" horiz-adv-x="532" d="M10 -301q0 39 17.5 81t44 82t59.5 74.5t64 63.5h-82v995h307v-995h-82q-25 -25 -50.5 -54.5t-46 -63.5t-33.5 -67.5t-13 -64.5q0 -35 24.5 -64.5t61.5 -29.5q29 0 58.5 14.5t51.5 32.5l58 -109q-51 -39 -104.5 -62.5t-119.5 -23.5q-43 0 -82 12.5t-68.5 37t-47 60.5 t-17.5 81zM88 1309q0 74 52.5 126t125.5 52q74 0 126 -52.5t52 -125.5q0 -74 -52 -126.5t-126 -52.5t-126 52.5t-52 126.5z" />
<glyph unicode="&#x130;" horiz-adv-x="606" d="M131 1720q0 33 13.5 64t36 53.5t52 36.5t64.5 14q72 0 125 -47t53 -121t-49 -125t-125 -51q-37 0 -67.5 14.5t-53 39t-36 56.5t-13.5 66zM143 0v1450h320v-1450h-320z" />
<glyph unicode="&#x131;" horiz-adv-x="532" d="M113 0v995h307v-995h-307z" />
<glyph unicode="&#x136;" horiz-adv-x="1478" d="M160 0v1450h319v-602l563 602h418l-645 -674l701 -776h-447l-590 688v-688h-319zM528 -500l127 402h295l-182 -402h-240z" />
<glyph unicode="&#x137;" horiz-adv-x="1138" d="M109 0v1548h307v-946l340 393h377l-396 -448l406 -547h-387l-336 504h-4v-504h-307zM358 -500l127 402h295l-182 -402h-240z" />
<glyph unicode="&#x139;" horiz-adv-x="1099" d="M160 0v1450h319v-1155h592v-295h-911zM188 1556l207 295h418l-354 -295h-271z" />
<glyph unicode="&#x13a;" horiz-adv-x="532" d="M113 0v1548h307v-1548h-307zM129 1612l207 295h418l-355 -295h-270z" />
<glyph unicode="&#x13b;" horiz-adv-x="1099" d="M160 0v1450h319v-1155h592v-295h-911zM354 -500l127 402h295l-182 -402h-240z" />
<glyph unicode="&#x13c;" horiz-adv-x="532" d="M55 -500l127 402h295l-182 -402h-240zM113 0v1548h307v-1548h-307z" />
<glyph unicode="&#x13d;" horiz-adv-x="1099" d="M160 0v1450h319v-1155h592v-295h-911zM535 1051l127 401h294l-182 -401h-239z" />
<glyph unicode="&#x13e;" horiz-adv-x="806" d="M113 0v1548h307v-1548h-307zM471 1147l127 401h295l-182 -401h-240z" />
<glyph unicode="&#x141;" horiz-adv-x="1099" d="M37 221v271l123 106v852h319v-576l430 379v-266l-430 -377v-315h592v-295h-911v328z" />
<glyph unicode="&#x142;" horiz-adv-x="532" d="M-10 383v264l123 125v776h307v-469l123 125v-264l-123 -125v-815h-307v508z" />
<glyph unicode="&#x143;" horiz-adv-x="1669" d="M147 0v1450h435l616 -1008h4v1008h320v-1450h-418l-633 1032h-4v-1032h-320zM606 1610l207 295h418l-354 -295h-271z" />
<glyph unicode="&#x144;" d="M109 0v995h294v-135h5q14 29 40.5 57.5t63.5 51t84 37t102 14.5q117 0 188.5 -36t111.5 -99.5t54.5 -149.5t14.5 -186v-549h-307v487q0 43 -3 89.5t-18.5 85t-47.5 63.5t-91 25t-96 -21.5t-56.5 -57.5t-25.5 -81t-6 -94v-496h-307zM362 1155l207 295h418l-354 -295h-271z " />
<glyph unicode="&#x145;" horiz-adv-x="1669" d="M147 0v1450h435l616 -1008h4v1008h320v-1450h-418l-633 1032h-4v-1032h-320zM623 -500l127 402h294l-182 -402h-239z" />
<glyph unicode="&#x146;" d="M109 0v995h294v-135h5q14 29 40.5 57.5t63.5 51t84 37t102 14.5q117 0 188.5 -36t111.5 -99.5t54.5 -149.5t14.5 -186v-549h-307v487q0 43 -3 89.5t-18.5 85t-47.5 63.5t-91 25t-96 -21.5t-56.5 -57.5t-25.5 -81t-6 -94v-496h-307zM367 -500l127 402h294l-182 -402h-239z " />
<glyph unicode="&#x147;" horiz-adv-x="1669" d="M147 0v1450h435l616 -1008h4v1008h320v-1450h-418l-633 1032h-4v-1032h-320zM426 1851h283l129 -159l127 159h276l-244 -295h-333z" />
<glyph unicode="&#x148;" d="M109 0v995h294v-135h5q14 29 40.5 57.5t63.5 51t84 37t102 14.5q117 0 188.5 -36t111.5 -99.5t54.5 -149.5t14.5 -186v-549h-307v487q0 43 -3 89.5t-18.5 85t-47.5 63.5t-91 25t-96 -21.5t-56.5 -57.5t-25.5 -81t-6 -94v-496h-307zM188 1450h283l129 -160l127 160h277 l-244 -295h-334z" />
<glyph unicode="&#x14c;" horiz-adv-x="1703" d="M70 725q0 174 58 315.5t162.5 240.5t248 152.5t313.5 53.5t313.5 -53.5t248 -152.5t162.5 -240.5t58 -315.5t-58 -315.5t-162.5 -240.5t-248 -152.5t-313.5 -53.5t-313.5 53.5t-248 152.5t-162.5 240.5t-58 315.5zM401 725q0 -102 32 -187t91.5 -147.5t142.5 -97.5 t185 -35t185 35t142.5 97.5t91.5 147.5t32 187q0 100 -32 186t-91.5 148.5t-142.5 97.5t-185 35t-185 -35t-142.5 -97.5t-91.5 -148.5t-32 -186zM504 1612v196h696v-196h-696z" />
<glyph unicode="&#x14d;" horiz-adv-x="1249" d="M72 498q0 119 43 215t117.5 164.5t176 105.5t216.5 37t216 -37t176 -105.5t118 -165t43 -214.5q0 -119 -43 -215.5t-118 -165t-176.5 -105.5t-215.5 -37q-115 0 -216.5 37t-176 105.5t-117.5 165t-43 215.5zM276 1210v197h697v-197h-697zM379 498q0 -113 64.5 -182.5 t181.5 -69.5t181 69.5t64 182.5t-64.5 182.5t-180.5 69.5q-117 0 -181.5 -69.5t-64.5 -182.5z" />
<glyph unicode="&#x150;" horiz-adv-x="1703" d="M70 725q0 174 58 315.5t162.5 240.5t248 152.5t313.5 53.5t313.5 -53.5t248 -152.5t162.5 -240.5t58 -315.5t-58 -315.5t-162.5 -240.5t-248 -152.5t-313.5 -53.5t-313.5 53.5t-248 152.5t-162.5 240.5t-58 315.5zM401 725q0 -102 32 -187t91.5 -147.5t142.5 -97.5 t185 -35t185 35t142.5 97.5t91.5 147.5t32 187q0 100 -32 186t-91.5 148.5t-142.5 97.5t-185 35t-185 -35t-142.5 -97.5t-91.5 -148.5t-32 -186zM401 1556l207 295h418l-354 -295h-271zM942 1556l207 295h418l-355 -295h-270z" />
<glyph unicode="&#x151;" horiz-adv-x="1249" d="M72 498q0 119 43 215t117.5 164.5t176 105.5t216.5 37t216 -37t176 -105.5t118 -165t43 -214.5q0 -119 -43 -215.5t-118 -165t-176.5 -105.5t-215.5 -37q-115 0 -216.5 37t-176 105.5t-117.5 165t-43 215.5zM176 1155l207 295h418l-355 -295h-270zM379 498 q0 -113 64.5 -182.5t181.5 -69.5t181 69.5t64 182.5t-64.5 182.5t-180.5 69.5q-117 0 -181.5 -69.5t-64.5 -182.5zM717 1155l207 295h417l-354 -295h-270z" />
<glyph unicode="&#x152;" horiz-adv-x="2084" d="M70 725q0 176 62.5 311t171 227.5t255 139.5t313.5 47h1080v-295h-590v-270h541v-295h-541v-295h614v-295h-1087q-145 0 -291.5 42t-263.5 130t-190.5 225.5t-73.5 327.5zM401 725q0 -109 40 -188.5t111 -134t169 -81t217 -26.5h104v860h-104q-119 0 -217 -26.5t-169 -81 t-111 -135.5t-40 -187z" />
<glyph unicode="&#x153;" horiz-adv-x="1933" d="M72 498q0 119 43 215t118.5 164.5t176 105.5t217.5 37q111 0 205 -37t167 -113q66 70 160 110t230 40q106 0 193 -37t147.5 -105.5t93 -165t32.5 -214.5v-97h-712q18 -88 79.5 -140t151.5 -52q76 0 128 33.5t91 87.5l215 -158q-74 -94 -186.5 -145.5t-232.5 -51.5 q-129 0 -223.5 32t-166.5 110q-78 -80 -173 -111t-199 -31q-117 0 -217.5 37t-176 105.5t-118.5 165t-43 215.5zM379 498q0 -113 65.5 -182.5t182.5 -69.5t181 69.5t64 182.5t-64 182.5t-181 69.5t-182.5 -70t-65.5 -182zM1143 610h405q2 78 -51 133.5t-137 55.5 q-51 0 -90 -16.5t-66.5 -42t-43 -59.5t-17.5 -71z" />
<glyph unicode="&#x154;" horiz-adv-x="1327" d="M147 0v1450h562q111 0 210 -21.5t173.5 -71.5t118.5 -135t44 -212q0 -154 -79.5 -261.5t-233.5 -136.5l369 -612h-383l-303 580h-158v-580h-320zM426 1556l207 295h418l-355 -295h-270zM467 850h188q43 0 91.5 3t87 18.5t64.5 48t26 92.5q0 55 -22.5 88t-57.5 50 t-80 23.5t-88 6.5h-209v-330z" />
<glyph unicode="&#x155;" horiz-adv-x="833" d="M109 0v995h307v-159h4q49 92 116.5 138t170.5 46q27 0 53 -2t49 -8v-281q-33 10 -64.5 15.5t-66.5 5.5q-88 0 -139.5 -25t-79 -69t-35.5 -105.5t-8 -134.5v-416h-307zM195 1155l206 295h418l-354 -295h-270z" />
<glyph unicode="&#x156;" horiz-adv-x="1327" d="M147 0v1450h562q111 0 210 -21.5t173.5 -71.5t118.5 -135t44 -212q0 -154 -79.5 -261.5t-233.5 -136.5l369 -612h-383l-303 580h-158v-580h-320zM453 -500l127 402h294l-182 -402h-239zM467 850h188q43 0 91.5 3t87 18.5t64.5 48t26 92.5q0 55 -22.5 88t-57.5 50 t-80 23.5t-88 6.5h-209v-330z" />
<glyph unicode="&#x157;" horiz-adv-x="833" d="M88 -500l127 402h295l-182 -402h-240zM109 0v995h307v-159h4q49 92 116.5 138t170.5 46q27 0 53 -2t49 -8v-281q-33 10 -64.5 15.5t-66.5 5.5q-88 0 -139.5 -25t-79 -69t-35.5 -105.5t-8 -134.5v-416h-307z" />
<glyph unicode="&#x158;" horiz-adv-x="1327" d="M147 0v1450h562q111 0 210 -21.5t173.5 -71.5t118.5 -135t44 -212q0 -154 -79.5 -261.5t-233.5 -136.5l369 -612h-383l-303 580h-158v-580h-320zM276 1851h283l129 -159l127 159h277l-244 -295h-334zM467 850h188q43 0 91.5 3t87 18.5t64.5 48t26 92.5q0 55 -22.5 88 t-57.5 50t-80 23.5t-88 6.5h-209v-330z" />
<glyph unicode="&#x159;" horiz-adv-x="833" d="M57 1450h283l129 -160l127 160h276l-243 -295h-334zM109 0v995h307v-159h4q49 92 116.5 138t170.5 46q27 0 53 -2t49 -8v-281q-33 10 -64.5 15.5t-66.5 5.5q-88 0 -139.5 -25t-79 -69t-35.5 -105.5t-8 -134.5v-416h-307z" />
<glyph unicode="&#x15a;" d="M39 145l227 250q49 -66 124 -101.5t155 -35.5q39 0 79 9t71.5 27.5t51 47.5t19.5 68q0 66 -50 103.5t-126 64t-164 53t-164 72t-126 119t-50 194.5q0 117 46 205t123 147t177 89t207 30q123 0 237.5 -35t206.5 -117l-219 -239q-39 49 -105.5 72.5t-125.5 23.5 q-35 0 -72 -8t-69.5 -25.5t-53 -46.5t-20.5 -70q0 -66 49 -100.5t124 -59t161 -49t160.5 -69.5t123.5 -121t49 -203q0 -121 -45 -211t-121.5 -149.5t-178 -88t-214.5 -28.5q-141 0 -262 43t-225 139zM371 1556l207 295h417l-354 -295h-270z" />
<glyph unicode="&#x15b;" horiz-adv-x="948" d="M49 111l187 206q43 -53 95 -80.5t122 -27.5q53 0 96 15.5t43 56.5q0 39 -38 58t-96.5 32.5t-125 29t-124.5 46t-96 87t-38 150.5q0 88 35.5 151.5t94 104.5t134.5 60.5t154 19.5q98 0 198.5 -28.5t169.5 -102.5l-188 -187q-68 84 -178 84q-39 0 -76 -18t-37 -63 q0 -37 38 -54.5t96 -31t125 -29t125 -48t96 -89t38 -150.5q0 -96 -42 -158.5t-107.5 -100.5t-147.5 -53.5t-162 -15.5q-104 0 -210.5 30t-180.5 106zM248 1155l207 295h417l-354 -295h-270z" />
<glyph unicode="&#x15e;" d="M39 145l227 250q49 -66 124 -101.5t155 -35.5q39 0 79 9t71.5 27.5t51 47.5t19.5 68q0 66 -50 103.5t-126 64t-164 53t-164 72t-126 119t-50 194.5q0 117 46 205t123 147t177 89t207 30q123 0 237.5 -35t206.5 -117l-219 -239q-39 49 -105.5 72.5t-125.5 23.5 q-35 0 -72 -8t-69.5 -25.5t-53 -46.5t-20.5 -70q0 -66 49 -100.5t124 -59t161 -49t160.5 -69.5t123.5 -121t49 -203q0 -102 -32.5 -182t-89 -137.5t-133 -94t-164.5 -51.5l-66 -98q45 0 91 -5t83 -22.5t60.5 -51.5t23.5 -91q0 -55 -29.5 -94t-73.5 -61.5t-93.5 -33 t-88.5 -10.5q-61 0 -131.5 17.5t-124.5 44.5l52 96q25 -10 64.5 -22.5t92.5 -12.5q25 0 48.5 3.5t43 10.5t32 19t12.5 33q0 37 -36 53.5t-67 16.5q-35 0 -74 -17l-65 60l102 153q-139 2 -260 44t-223 138z" />
<glyph unicode="&#x15f;" horiz-adv-x="948" d="M49 111l187 206q43 -53 95 -80.5t122 -27.5q53 0 96 15.5t43 56.5q0 39 -38 58t-96.5 32.5t-125 29t-124.5 46t-96 87t-38 150.5q0 88 35.5 151.5t94 104.5t134.5 60.5t154 19.5q98 0 198.5 -28.5t169.5 -102.5l-188 -187q-68 84 -178 84q-39 0 -76 -18t-37 -63 q0 -37 38 -54.5t96 -31t125 -29t125 -48t96 -89t38 -150.5q0 -78 -28.5 -134t-77 -95t-109.5 -60.5t-127 -29.5l-72 -107q45 0 91.5 -5t83 -22.5t60 -51.5t23.5 -91q0 -55 -29.5 -94t-73.5 -61.5t-93 -33t-88 -10.5q-61 0 -132 17.5t-124 44.5l51 96q25 -10 64.5 -22.5 t93.5 -12.5q25 0 48 3.5t42.5 10.5t32 19t12.5 33q0 37 -36 53.5t-67 16.5q-35 0 -73 -17l-66 60l111 165q-100 4 -198.5 34t-168.5 102z" />
<glyph unicode="&#x160;" d="M39 145l227 250q49 -66 124 -101.5t155 -35.5q39 0 79 9t71.5 27.5t51 47.5t19.5 68q0 66 -50 103.5t-126 64t-164 53t-164 72t-126 119t-50 194.5q0 117 46 205t123 147t177 89t207 30q123 0 237.5 -35t206.5 -117l-219 -239q-39 49 -105.5 72.5t-125.5 23.5 q-35 0 -72 -8t-69.5 -25.5t-53 -46.5t-20.5 -70q0 -66 49 -100.5t124 -59t161 -49t160.5 -69.5t123.5 -121t49 -203q0 -121 -45 -211t-121.5 -149.5t-178 -88t-214.5 -28.5q-141 0 -262 43t-225 139zM215 1851h283l129 -159l127 159h276l-244 -295h-333z" />
<glyph unicode="&#x161;" horiz-adv-x="948" d="M49 111l187 206q43 -53 95 -80.5t122 -27.5q53 0 96 15.5t43 56.5q0 39 -38 58t-96.5 32.5t-125 29t-124.5 46t-96 87t-38 150.5q0 88 35.5 151.5t94 104.5t134.5 60.5t154 19.5q98 0 198.5 -28.5t169.5 -102.5l-188 -187q-68 84 -178 84q-39 0 -76 -18t-37 -63 q0 -37 38 -54.5t96 -31t125 -29t125 -48t96 -89t38 -150.5q0 -96 -42 -158.5t-107.5 -100.5t-147.5 -53.5t-162 -15.5q-104 0 -210.5 30t-180.5 106zM86 1450h283l129 -160l127 160h276l-244 -295h-333z" />
<glyph unicode="&#x162;" d="M14 1167v283h1147v-283h-413v-1167h-320v1167h-414zM377 -500l127 402h295l-183 -402h-239z" />
<glyph unicode="&#x163;" horiz-adv-x="833" d="M12 750v245h197v295h307v-295h270v-245h-270v-332q0 -41 4 -75t18.5 -58.5t44 -38t79.5 -13.5q25 0 64.5 5.5t59.5 23.5v-256q-51 -18 -106 -24.5t-109 -6.5q-78 0 -143.5 16.5t-114.5 52.5t-76.5 93.5t-27.5 138.5v474h-197zM205 -500l127 402h295l-183 -402h-239z" />
<glyph unicode="&#x164;" d="M14 1167v283h1147v-283h-413v-1167h-320v1167h-414zM180 1851h283l129 -159l127 159h276l-243 -295h-334z" />
<glyph unicode="&#x165;" horiz-adv-x="903" d="M12 750v245h197v295h307v-295h270v-245h-270v-332q0 -41 4 -75t18.5 -58.5t44 -38t79.5 -13.5q25 0 64.5 5.5t59.5 23.5v-256q-51 -18 -106 -24.5t-109 -6.5q-78 0 -143.5 16.5t-114.5 52.5t-76.5 93.5t-27.5 138.5v474h-197zM567 1051l127 401h295l-182 -401h-240z" />
<glyph unicode="&#x168;" horiz-adv-x="1517" d="M147 559v891h320v-879q0 -68 21.5 -125t60.5 -99t93 -65.5t118 -23.5q63 0 116.5 23.5t92.5 65.5t60.5 99.5t21.5 124.5v879h319v-891q0 -129 -39 -237.5t-115.5 -188.5t-191.5 -125t-264 -45q-152 0 -266.5 45t-191.5 125t-116 188.5t-39 237.5zM391 1577q6 45 23.5 89 t48.5 80t73 58.5t95 22.5q31 0 61.5 -7.5t85.5 -29.5q35 -12 69 -23.5t64 -11.5q37 0 57.5 15.5t32.5 56.5h142q-10 -43 -23.5 -84t-38 -73t-64.5 -53.5t-104 -23.5q-39 0 -70.5 6.5t-94.5 28.5q-51 16 -80 25.5t-60 9.5q-39 0 -60.5 -23.5t-31.5 -62.5h-125z" />
<glyph unicode="&#x169;" d="M109 446v549h307v-487q0 -43 3 -89t18.5 -85t47 -63.5t90.5 -24.5t96.5 21.5t57 57t25.5 81t6 94.5v495h307v-995h-295v135h-4q-16 -29 -42 -57.5t-62.5 -51t-84 -37t-102.5 -14.5q-117 0 -189.5 36t-112.5 99.5t-53 149.5t-13 186zM215 1178q6 45 23.5 89t48 79.5 t72.5 58t96 22.5q31 0 61.5 -7t85.5 -29q35 -12 69 -23.5t64 -11.5q37 0 57.5 15t32.5 56h142q-10 -43 -23.5 -83.5t-38 -72.5t-64.5 -53.5t-104 -23.5q-39 0 -70.5 6t-95.5 29q-51 16 -79.5 25.5t-59.5 9.5q-39 0 -60.5 -23.5t-31.5 -62.5h-125z" />
<glyph unicode="&#x16a;" horiz-adv-x="1517" d="M147 559v891h320v-879q0 -68 21.5 -125t60.5 -99t93 -65.5t118 -23.5q63 0 116.5 23.5t92.5 65.5t60.5 99.5t21.5 124.5v879h319v-891q0 -129 -39 -237.5t-115.5 -188.5t-191.5 -125t-264 -45q-152 0 -266.5 45t-191.5 125t-116 188.5t-39 237.5zM410 1612v196h696v-196 h-696z" />
<glyph unicode="&#x16b;" d="M109 446v549h307v-487q0 -43 3 -89t18.5 -85t47 -63.5t90.5 -24.5t96.5 21.5t57 57t25.5 81t6 94.5v495h307v-995h-295v135h-4q-16 -29 -42 -57.5t-62.5 -51t-84 -37t-102.5 -14.5q-117 0 -189.5 36t-112.5 99.5t-53 149.5t-13 186zM240 1210v197h696v-197h-696z" />
<glyph unicode="&#x16e;" horiz-adv-x="1517" d="M147 559v891h320v-879q0 -68 21.5 -125t60.5 -99t93 -65.5t118 -23.5q63 0 116.5 23.5t92.5 65.5t60.5 99.5t21.5 124.5v879h319v-891q0 -129 -39 -237.5t-115.5 -188.5t-191.5 -125t-264 -45q-152 0 -266.5 45t-191.5 125t-116 188.5t-39 237.5zM530 1747q0 47 18.5 88 t49.5 71.5t72 49t88 18.5t88 -18.5t71.5 -49t49 -71.5t18.5 -88t-18.5 -88t-49 -72t-71.5 -49t-88 -18t-88 18t-72 49t-49.5 72t-18.5 88zM653 1747q0 -43 31 -74t74 -31t73.5 31t30.5 74t-30.5 73.5t-73.5 30.5t-74 -30.5t-31 -73.5z" />
<glyph unicode="&#x16f;" d="M109 446v549h307v-487q0 -43 3 -89t18.5 -85t47 -63.5t90.5 -24.5t96.5 21.5t57 57t25.5 81t6 94.5v495h307v-995h-295v135h-4q-16 -29 -42 -57.5t-62.5 -51t-84 -37t-102.5 -14.5q-117 0 -189.5 36t-112.5 99.5t-53 149.5t-13 186zM360 1343q0 47 18.5 88.5t49.5 72 t72 49t88 18.5t88 -18.5t71.5 -49t49 -71.5t18.5 -89q0 -47 -18.5 -88t-49 -71.5t-71.5 -49t-88 -18.5t-88 18.5t-72 49t-49.5 71.5t-18.5 88zM483 1343q0 -43 31 -73.5t74 -30.5t73.5 30.5t30.5 73.5t-30.5 74t-73.5 31t-74 -31t-31 -74z" />
<glyph unicode="&#x170;" horiz-adv-x="1517" d="M147 559v891h320v-879q0 -68 21.5 -125t60.5 -99t93 -65.5t118 -23.5q63 0 116.5 23.5t92.5 65.5t60.5 99.5t21.5 124.5v879h319v-891q0 -129 -39 -237.5t-115.5 -188.5t-191.5 -125t-264 -45q-152 0 -266.5 45t-191.5 125t-116 188.5t-39 237.5zM264 1556l207 295h418 l-354 -295h-271zM805 1556l207 295h418l-355 -295h-270z" />
<glyph unicode="&#x171;" d="M109 446v549h307v-487q0 -43 3 -89t18.5 -85t47 -63.5t90.5 -24.5t96.5 21.5t57 57t25.5 81t6 94.5v495h307v-995h-295v135h-4q-16 -29 -42 -57.5t-62.5 -51t-84 -37t-102.5 -14.5q-117 0 -189.5 36t-112.5 99.5t-53 149.5t-13 186zM117 1155l207 295h417l-354 -295h-270 zM657 1155l207 295h418l-354 -295h-271z" />
<glyph unicode="&#x172;" horiz-adv-x="1517" d="M147 559v891h320v-879q0 -68 21.5 -125t60.5 -99t93 -65.5t118 -23.5q63 0 116.5 23.5t92.5 65.5t60.5 99.5t21.5 124.5v879h319v-891q0 -195 -88 -341t-262 -212q-25 -23 -51.5 -54.5t-48 -65t-36 -69.5t-14.5 -67q0 -35 25 -64.5t61 -29.5q29 0 58.5 14.5t52.5 32.5 l57 -109q-51 -39 -104 -62.5t-119 -23.5q-43 0 -82 12.5t-68.5 37t-47 60.5t-17.5 81q0 70 46 141.5t102 126.5q-18 -2 -37 -3t-37 -1q-152 0 -266.5 45t-191.5 125t-116 188.5t-39 237.5z" />
<glyph unicode="&#x173;" d="M109 446v549h307v-487q0 -43 3 -89t18.5 -85t47 -63.5t90.5 -24.5t96.5 21.5t57 57t25.5 81t6 94.5v495h307v-995h-84q-25 -25 -49.5 -54.5t-45 -63.5t-33.5 -67.5t-13 -64.5q0 -35 24.5 -64.5t61.5 -29.5q29 0 58.5 14.5t51.5 32.5l58 -109q-51 -39 -104.5 -62.5 t-119.5 -23.5q-43 0 -81.5 12.5t-68.5 37t-47.5 60.5t-17.5 81q0 39 17.5 81t44 82t59.5 74.5t64 63.5h-70v135h-4q-16 -29 -42 -57.5t-62.5 -51t-84 -37t-102.5 -14.5q-117 0 -189.5 36t-112.5 99.5t-53 149.5t-13 186z" />
<glyph unicode="&#x178;" horiz-adv-x="1327" d="M-41 1450h397l308 -543l325 543h379l-545 -832v-618h-319v618zM279 1718q0 33 13 63.5t35.5 53.5t52.5 37t64 14q72 0 125.5 -47t53.5 -121t-49 -125t-125 -51q-37 0 -68 14.5t-53.5 39t-35.5 56t-13 66.5zM705 1718q0 33 13 63.5t35.5 53.5t52.5 37t64 14 q72 0 125.5 -47t53.5 -121t-49.5 -125t-125.5 -51q-37 0 -67.5 14.5t-53 39t-35.5 56t-13 66.5z" />
<glyph unicode="&#x179;" horiz-adv-x="1290" d="M72 0v295l735 872h-709v283h1096v-283l-721 -872h746v-295h-1147zM406 1556l206 295h418l-354 -295h-270z" />
<glyph unicode="&#x17a;" horiz-adv-x="1024" d="M70 0v307l516 443h-504v245h860v-295l-541 -454h553v-246h-884zM283 1155l206 295h418l-354 -295h-270z" />
<glyph unicode="&#x17b;" horiz-adv-x="1290" d="M72 0v295l735 872h-709v283h1096v-283l-721 -872h746v-295h-1147zM485 1722q0 33 13.5 64t36 53.5t52 36.5t64.5 14q72 0 125 -47t53 -121t-49 -125t-125 -51q-37 0 -67.5 14.5t-53 39t-36 56.5t-13.5 66z" />
<glyph unicode="&#x17c;" horiz-adv-x="1024" d="M70 0v307l516 443h-504v245h860v-295l-541 -454h553v-246h-884zM356 1319q0 33 13.5 63.5t36 53t52 37t64.5 14.5q72 0 125 -47t53 -121t-49 -125t-125 -51q-37 0 -67.5 14t-53 39t-36 56.5t-13.5 66.5z" />
<glyph unicode="&#x17d;" horiz-adv-x="1290" d="M72 0v295l735 872h-709v283h1096v-283l-721 -872h746v-295h-1147zM256 1851h283l129 -159l127 159h276l-244 -295h-333z" />
<glyph unicode="&#x17e;" horiz-adv-x="1024" d="M70 0v307l516 443h-504v245h860v-295l-541 -454h553v-246h-884zM121 1450h282l129 -160l127 160h277l-244 -295h-334z" />
<glyph unicode="&#x192;" horiz-adv-x="1212" d="M-41 -236l107 244q23 -12 46 -17t48 -5q66 0 98.5 44t54.5 150l103 500h-234v209h275l37 186q23 113 53.5 189.5t77.5 124t113.5 67t160.5 19.5q72 0 136.5 -15.5t129.5 -46.5l-108 -231q-51 23 -107 22q-74 0 -108.5 -40t-53.5 -130l-30 -145h258v-209h-299l-119 -598 q-16 -84 -47 -151.5t-80 -115.5t-118.5 -74t-166.5 -26q-57 0 -115.5 13.5t-111.5 35.5z" />
<glyph unicode="&#x1a0;" horiz-adv-x="1593" d="M70 725q0 174 58 315.5t162.5 240.5t248 152.5t313.5 53.5q68 0 131.5 -10.5t122.5 -26.5h223q70 0 96.5 39t26.5 92q0 41 -11 86t-28 80h217q29 -76 29 -170q0 -74 -23.5 -142.5t-83.5 -115.5q-23 -16 -52.5 -30.5t-74.5 -20.5q98 -100 153.5 -236.5t55.5 -306.5 q0 -174 -58 -315.5t-162.5 -240.5t-248 -152.5t-313.5 -53.5t-313.5 53.5t-248 152.5t-162.5 240.5t-58 315.5zM401 725q0 -102 32 -187t91.5 -147.5t142.5 -97.5t185 -35t185 35t142.5 97.5t91.5 147.5t32 187q0 100 -32 186t-91.5 148.5t-142.5 97.5t-185 35t-185 -35 t-142.5 -97.5t-91.5 -148.5t-32 -186z" />
<glyph unicode="&#x1a1;" horiz-adv-x="1277" d="M72 498q0 119 43 215t117.5 164.5t176 105.5t216.5 37q92 0 178 -25h186q70 0 96.5 38t26.5 91q0 41 -11 86t-28 80h217q29 -76 29 -170q0 -74 -23.5 -142.5t-83.5 -115.5q-23 -18 -54.5 -31.5t-80.5 -21.5q47 -63 74 -141t27 -170q0 -119 -43 -215.5t-118 -165 t-176.5 -105.5t-215.5 -37q-115 0 -216.5 37t-176 105.5t-117.5 165t-43 215.5zM379 498q0 -113 64.5 -182.5t181.5 -69.5t181 69.5t64 182.5t-64.5 182.5t-180.5 69.5q-117 0 -181.5 -69.5t-64.5 -182.5z" />
<glyph unicode="&#x1af;" horiz-adv-x="1613" d="M147 559v891h320v-879q0 -68 21.5 -125t60.5 -99t93 -65.5t118 -23.5q63 0 116.5 23.5t92.5 65.5t60.5 99.5t21.5 124.5v879h317q61 4 86 41t25 88q0 41 -11.5 85t-27.5 81h217q29 -76 29 -172q0 -59 -15.5 -115.5t-52.5 -101.5t-97.5 -73t-150.5 -28v-696 q0 -129 -39 -237.5t-115.5 -188.5t-191.5 -125t-264 -45q-152 0 -266.5 45t-191.5 125t-116 188.5t-39 237.5z" />
<glyph unicode="&#x1b0;" horiz-adv-x="1343" d="M109 446v549h307v-487q0 -43 3 -89t18.5 -85t47 -63.5t90.5 -24.5t96.5 21.5t57 57t25.5 81t6 94.5v495h293q61 0 88.5 31t32 76t-7 96t-29.5 92h217q23 -66 27.5 -150.5t-23 -160.5t-97 -127t-194.5 -51v-801h-295v135h-4q-16 -29 -42 -57.5t-62.5 -51t-84 -37 t-102.5 -14.5q-117 0 -189.5 36t-112.5 99.5t-53 149.5t-13 186z" />
<glyph unicode="&#x218;" d="M39 145l227 250q49 -66 124 -101.5t155 -35.5q39 0 79 9t71.5 27.5t51 47.5t19.5 68q0 66 -50 103.5t-126 64t-164 53t-164 72t-126 119t-50 194.5q0 117 46 205t123 147t177 89t207 30q123 0 237.5 -35t206.5 -117l-219 -239q-39 49 -105.5 72.5t-125.5 23.5 q-35 0 -72 -8t-69.5 -25.5t-53 -46.5t-20.5 -70q0 -66 49 -100.5t124 -59t161 -49t160.5 -69.5t123.5 -121t49 -203q0 -121 -45 -211t-121.5 -149.5t-178 -88t-214.5 -28.5q-141 0 -262 43t-225 139zM336 -500l127 402h295l-183 -402h-239z" />
<glyph unicode="&#x219;" horiz-adv-x="948" d="M49 111l187 206q43 -53 95 -80.5t122 -27.5q53 0 96 15.5t43 56.5q0 39 -38 58t-96.5 32.5t-125 29t-124.5 46t-96 87t-38 150.5q0 88 35.5 151.5t94 104.5t134.5 60.5t154 19.5q98 0 198.5 -28.5t169.5 -102.5l-188 -187q-68 84 -178 84q-39 0 -76 -18t-37 -63 q0 -37 38 -54.5t96 -31t125 -29t125 -48t96 -89t38 -150.5q0 -96 -42 -158.5t-107.5 -100.5t-147.5 -53.5t-162 -15.5q-104 0 -210.5 30t-180.5 106zM223 -500l127 402h295l-182 -402h-240z" />
<glyph unicode="&#x2c6;" horiz-adv-x="532" d="M-141 1155l243 295h334l238 -295h-283l-129 160l-127 -160h-276z" />
<glyph unicode="&#x2c7;" horiz-adv-x="532" d="M-150 1450h283l129 -160l127 160h277l-244 -295h-334z" />
<glyph unicode="&#x2c9;" horiz-adv-x="532" d="M-82 1210v197h696v-197h-696z" />
<glyph unicode="&#x2d8;" horiz-adv-x="532" d="M-111 1450h164q6 -31 27.5 -49.5t51.5 -29.5t64.5 -15t69.5 -4q80 0 136.5 15t78.5 83h162q-8 -78 -41 -134t-83 -92t-114.5 -52.5t-138.5 -16.5t-139.5 15.5t-116.5 51t-83.5 92t-37.5 136.5z" />
<glyph unicode="&#x2d9;" horiz-adv-x="532" d="M94 1319q0 33 13.5 63.5t36 53t52 37t64.5 14.5q72 0 125 -47t53 -121t-49 -125t-125 -51q-37 0 -67.5 14t-53 39t-36 56.5t-13.5 66.5z" />
<glyph unicode="&#x2da;" horiz-adv-x="532" d="M39 1343q0 47 18.5 88.5t49 72t71.5 49t88 18.5t88 -18.5t72 -49t49.5 -71.5t18.5 -89q0 -47 -18.5 -88t-49.5 -71.5t-72 -49t-88 -18.5t-88 18.5t-71.5 49t-49 71.5t-18.5 88zM162 1343q0 -43 30.5 -73.5t73.5 -30.5t74 30.5t31 73.5t-31 74t-74 31t-73.5 -31t-30.5 -74 z" />
<glyph unicode="&#x2db;" horiz-adv-x="532" d="M-18 -301q0 45 20.5 91t53 90t69.5 81t72 64h139q-25 -23 -54.5 -54.5t-55 -69.5t-43 -77t-17.5 -74t24.5 -64.5t61.5 -29.5q29 0 58.5 14.5t51.5 32.5l58 -109q-51 -39 -104.5 -62.5t-118.5 -23.5q-43 0 -82 12.5t-69 37t-47 60.5t-17 81z" />
<glyph unicode="&#x2dc;" horiz-adv-x="532" d="M-135 1167q8 51 28.5 102.5t52 91.5t77 64.5t102.5 24.5q51 0 92 -12.5t86 -30.5q29 -10 56.5 -20.5t58.5 -10.5q35 0 55.5 21.5t34.5 52.5h160q-10 -59 -28.5 -110.5t-50.5 -89.5t-78 -60.5t-110 -22.5q-45 0 -85 13.5t-74 29.5q-35 16 -67 29.5t-62 13.5 q-35 0 -55.5 -28.5t-30.5 -57.5h-162z" />
<glyph unicode="&#x2dd;" horiz-adv-x="532" d="M-209 1155l207 295h418l-355 -295h-270zM332 1155l207 295h417l-354 -295h-270z" />
<glyph unicode="&#x384;" horiz-adv-x="534" d="M98 1149l76 338h287l-172 -338h-191z" />
<glyph unicode="&#x385;" horiz-adv-x="534" d="M-270 1319q0 33 13 63.5t35.5 53t52.5 37t65 14.5q72 0 125 -47t53 -121t-49 -125t-125 -51q-37 0 -68 14t-53.5 39t-35.5 56.5t-13 66.5zM98 1149l76 338h287l-172 -338h-191zM461 1319q0 33 13 63.5t35.5 53t52.5 37t65 14.5q72 0 125 -47t53 -121t-49 -125t-125 -51 q-37 0 -68 14t-53.5 39t-35.5 56.5t-13 66.5z" />
<glyph unicode="&#x386;" horiz-adv-x="1517" d="M-2 0l627 1450h264l631 -1450h-361l-125 307h-563l-121 -307h-352zM182 1114l76 338h262l-147 -338h-191zM571 578h355l-178 450z" />
<glyph unicode="&#x388;" horiz-adv-x="1499" d="M-82 1114l76 338h262l-147 -338h-191zM307 0v1450h985v-295h-665v-270h628v-295h-628v-295h702v-295h-1022z" />
<glyph unicode="&#x389;" horiz-adv-x="1714" d="M-82 1114l76 338h262l-147 -338h-191zM307 0v1450h320v-541h620v541h320v-1450h-320v627h-620v-627h-320z" />
<glyph unicode="&#x38a;" horiz-adv-x="776" d="M-82 1114l76 338h262l-147 -338h-191zM307 0v1450h322v-1450h-322z" />
<glyph unicode="&#x38c;" horiz-adv-x="1726" d="M-82 1114l76 338h262l-147 -338h-191zM92 725q0 174 58.5 315.5t163 240.5t248 152.5t312.5 53.5q170 0 313.5 -53.5t248 -152.5t163 -240.5t58.5 -315.5t-58.5 -315.5t-163 -240.5t-248 -152.5t-313.5 -53.5t-313 53.5t-247.5 152.5t-163 240.5t-58.5 315.5zM424 725 q0 -102 31.5 -187t91 -147.5t142.5 -97.5t185 -35t185.5 35t143 97.5t91 147.5t31.5 187q0 100 -31.5 186t-91 148.5t-142.5 97.5t-186 35q-102 0 -185 -35t-142.5 -97.5t-91 -148.5t-31.5 -186z" />
<glyph unicode="&#x38e;" horiz-adv-x="1656" d="M-82 1114l76 338h262l-147 -338h-191zM289 1450h397l307 -543l326 543h379l-545 -832v-618h-319v618z" />
<glyph unicode="&#x38f;" horiz-adv-x="1652" d="M-82 1114l76 338h262l-147 -338h-191zM106 791q0 143 55.5 270t155 221t234.5 149.5t295 55.5t295 -55.5t233.5 -149.5t153.5 -221t55 -270q0 -86 -20.5 -158t-53 -132.5t-75.5 -111.5t-86 -94h206v-295h-634v258q154 102 243.5 237.5t89.5 295.5q0 82 -29.5 155.5 t-84 126.5t-129 85t-164.5 32t-165 -32t-129 -85t-85 -127t-31 -155q0 -160 88 -295.5t246 -237.5v-258h-635v295h201q-45 43 -87 90t-74 105.5t-50.5 131t-18.5 169.5z" />
<glyph unicode="&#x390;" horiz-adv-x="552" d="M-254 1319q0 33 13.5 63.5t36 53t52 37t64.5 14.5q72 0 125 -47t53 -121t-49 -125t-125 -51q-37 0 -67.5 14t-53 39t-36 56.5t-13.5 66.5zM109 233v762h307v-682q0 -45 14 -63.5t72 -18.5v-245q-29 -4 -53.5 -7.5t-45.5 -3.5q-55 0 -108 14.5t-95 45.5t-66.5 80 t-24.5 118zM115 1149l75 338h287l-172 -338h-190zM477 1319q0 33 13.5 63.5t36 53t52 37t64.5 14.5q72 0 125 -47t53 -121t-49 -125t-125 -51q-37 0 -67.5 14t-53 39t-36 56.5t-13.5 66.5z" />
<glyph unicode="&#x391;" horiz-adv-x="1517" d="M-2 0l627 1450h264l631 -1450h-361l-125 307h-563l-121 -307h-352zM571 578h355l-178 450z" />
<glyph unicode="&#x392;" horiz-adv-x="1327" d="M147 0v1450h541q94 0 189.5 -13.5t171 -53.5t123 -111.5t47.5 -190.5q0 -123 -69 -203.5t-181 -115.5v-4q72 -10 130 -40t100 -76t64.5 -107.5t22.5 -131.5q0 -115 -49 -191.5t-127 -123.5t-175 -67.5t-194 -20.5h-594zM467 270h287q37 0 74.5 8.5t68.5 29t50.5 53 t19.5 79.5q0 51 -26 83t-64.5 48.5t-83.5 22.5t-84 6h-242v-330zM467 870h231q37 0 73 8.5t64.5 27t46 49t17.5 73.5q0 45 -19.5 75t-50 46t-69.5 23.5t-76 7.5h-217v-310z" />
<glyph unicode="&#x393;" horiz-adv-x="1003" d="M147 0v1450h842v-295h-522v-1155h-320z" />
<glyph unicode="&#x394;" horiz-adv-x="1460" d="M25 0v219l577 1231h270l564 -1231v-219h-1411zM389 295h672l-332 731z" />
<glyph unicode="&#x395;" horiz-adv-x="1277" d="M147 0v1450h986v-295h-666v-270h629v-295h-629v-295h702v-295h-1022z" />
<glyph unicode="&#x396;" horiz-adv-x="1290" d="M72 0v295l735 872h-709v283h1096v-283l-721 -872h746v-295h-1147z" />
<glyph unicode="&#x397;" horiz-adv-x="1554" d="M147 0v1450h320v-541h620v541h320v-1450h-320v627h-620v-627h-320z" />
<glyph unicode="&#x398;" horiz-adv-x="1703" d="M70 725q0 174 58 315.5t162.5 240.5t248 152.5t313.5 53.5t313.5 -53.5t248 -152.5t162.5 -240.5t58 -315.5t-58 -315.5t-162.5 -240.5t-248 -152.5t-313.5 -53.5t-313.5 53.5t-248 152.5t-162.5 240.5t-58 315.5zM401 725q0 -102 32 -187t91.5 -147.5t142.5 -97.5 t185 -35t185 35t142.5 97.5t91.5 147.5t32 187q0 100 -32 186t-91.5 148.5t-142.5 97.5t-185 35t-185 -35t-142.5 -97.5t-91.5 -148.5t-32 -186zM512 590v295h678v-295h-678z" />
<glyph unicode="&#x399;" horiz-adv-x="616" d="M147 0v1450h322v-1450h-322z" />
<glyph unicode="&#x39a;" horiz-adv-x="1466" d="M147 0v1450h320v-602l563 602h418l-645 -674l700 -776h-446l-590 688v-688h-320z" />
<glyph unicode="&#x39b;" horiz-adv-x="1513" d="M-2 0l633 1450h260l625 -1450h-361l-401 1016q-98 -252 -199.5 -510t-200.5 -506h-356z" />
<glyph unicode="&#x39c;" horiz-adv-x="1933" d="M147 0v1450h484l334 -946h4l336 946h481v-1450h-320v1112h-4l-381 -1112h-243l-367 1112h-4v-1112h-320z" />
<glyph unicode="&#x39d;" horiz-adv-x="1669" d="M147 0v1450h435l616 -1008h4v1008h320v-1450h-418l-633 1032h-4v-1032h-320z" />
<glyph unicode="&#x39e;" horiz-adv-x="1345" d="M109 0v295h1128v-295h-1128zM133 1155v295h1079v-295h-1079zM178 590v297h991v-297h-991z" />
<glyph unicode="&#x39f;" horiz-adv-x="1703" d="M70 725q0 174 58 315.5t162.5 240.5t248 152.5t313.5 53.5t313.5 -53.5t248 -152.5t162.5 -240.5t58 -315.5t-58 -315.5t-162.5 -240.5t-248 -152.5t-313.5 -53.5t-313.5 53.5t-248 152.5t-162.5 240.5t-58 315.5zM401 725q0 -102 32 -187t91.5 -147.5t142.5 -97.5 t185 -35t185 35t142.5 97.5t91.5 147.5t32 187q0 100 -32 186t-91.5 148.5t-142.5 97.5t-185 35t-185 -35t-142.5 -97.5t-91.5 -148.5t-32 -186z" />
<glyph unicode="&#x3a0;" horiz-adv-x="1499" d="M147 0v1450h1205v-1450h-318v1155h-567v-1155h-320z" />
<glyph unicode="&#x3a1;" horiz-adv-x="1290" d="M147 0v1450h539q113 0 213 -20.5t175 -70.5t119 -135t44 -214q0 -127 -41 -213t-112.5 -137.5t-170 -73t-213.5 -21.5h-233v-565h-320zM467 836h213q43 0 83 8t71.5 27.5t51 53t19.5 85.5q0 55 -25.5 89t-65.5 52t-89 23.5t-94 5.5h-164v-344z" />
<glyph unicode="&#x3a3;" horiz-adv-x="1239" d="M82 0v238l461 505l-437 471v236h1029v-297h-557q94 -104 191 -207.5t189 -202.5l-407 -448h606v-295h-1075z" />
<glyph unicode="&#x3a4;" d="M14 1157v293h1147v-293h-413v-1157h-320v1157h-414z" />
<glyph unicode="&#x3a5;" horiz-adv-x="1327" d="M-41 1450h397l308 -543l325 543h379l-545 -832v-618h-319v618z" />
<glyph unicode="&#x3a6;" horiz-adv-x="1736" d="M70 725q0 141 47 256t132 201t202.5 139t257.5 72v108h319v-108q141 -16 258 -69.5t202 -139.5t132 -202t47 -257t-47 -256t-132 -201t-203 -139t-257 -72v-108h-319v108q-141 16 -258 69.5t-202 139.5t-132 202t-47 257zM393 725q0 -143 82 -240.5t234 -126.5v734 q-152 -29 -234 -126.5t-82 -240.5zM1028 358q152 29 233.5 126.5t81.5 240.5t-81.5 240.5t-233.5 126.5v-734z" />
<glyph unicode="&#x3a7;" horiz-adv-x="1478" d="M0 0l508 758l-479 692h401l309 -508l297 508h387l-469 -686l525 -764h-402l-354 584l-344 -584h-379z" />
<glyph unicode="&#x3a8;" horiz-adv-x="1583" d="M123 862v588h317v-559q0 -127 46 -188.5t145 -79.5v827h319v-825q84 25 138.5 96.5t54.5 210.5v518h317v-539q0 -274 -130 -417.5t-380 -171.5v-322h-319v322q-106 12 -199.5 48t-162 100.5t-107.5 160.5t-39 231z" />
<glyph unicode="&#x3a9;" horiz-adv-x="1615" d="M70 791q0 143 55 270t154.5 221t234.5 149.5t295 55.5t295 -55.5t233.5 -149.5t153.5 -221t55 -270q0 -86 -20.5 -158t-53 -132.5t-75.5 -111.5t-86 -94h207v-295h-635v258q154 102 244 237.5t90 295.5q0 82 -30 155.5t-84 126.5t-129 85t-165 32t-165 -32t-129 -85 t-85 -127t-31 -155q0 -160 88 -295.5t246 -237.5v-258h-635v295h201q-45 43 -87 90t-74 105.5t-50 131t-18 169.5z" />
<glyph unicode="&#x3aa;" horiz-adv-x="616" d="M-80 1718q0 33 13.5 63.5t36 53.5t52 37t64.5 14q72 0 125 -47t53 -121t-49 -125t-125 -51q-37 0 -67.5 14.5t-53 39t-36 56t-13.5 66.5zM145 0v1450h322v-1450h-322zM346 1718q0 33 13.5 63.5t36 53.5t52 37t64.5 14q72 0 125 -47t53 -121t-49 -125t-125 -51 q-37 0 -67.5 14.5t-53 39t-36 56t-13.5 66.5z" />
<glyph unicode="&#x3ab;" horiz-adv-x="1327" d="M-41 1450h397l308 -543l325 543h379l-545 -832v-618h-319v618zM279 1718q0 33 13 63.5t35.5 53.5t52.5 37t64 14q72 0 125.5 -47t53.5 -121t-49 -125t-125 -51q-37 0 -68 14.5t-53.5 39t-35.5 56t-13 66.5zM705 1718q0 33 13 63.5t35.5 53.5t52.5 37t64 14 q72 0 125.5 -47t53.5 -121t-49.5 -125t-125.5 -51q-37 0 -67.5 14.5t-53 39t-35.5 56t-13 66.5z" />
<glyph unicode="&#x3ac;" horiz-adv-x="1290" d="M72 489q0 104 31.5 199.5t90 169.5t142.5 118t190 44q96 0 180.5 -29.5t139.5 -101.5v106h307v-686q0 -45 14.5 -63.5t71.5 -18.5v-245q-29 -4 -55.5 -7.5t-46.5 -3.5q-94 0 -163 40t-104 120q-18 -25 -50 -52.5t-71.5 -51t-87 -38t-100.5 -14.5q-111 0 -201 38 t-154.5 106.5t-99 163t-34.5 206.5zM379 498q0 -113 64.5 -182.5t181.5 -69.5t181 69.5t64 182.5t-64.5 182.5t-180.5 69.5q-117 0 -181.5 -70t-64.5 -182zM442 1149l76 338h287l-172 -338h-191z" />
<glyph unicode="&#x3ad;" horiz-adv-x="894" d="M61 303q0 72 35 127t119 90q-68 37 -95.5 93.5t-27.5 113.5q0 72 34 127t90 92t132 55.5t160 18.5q207 0 360 -129l-186 -186q-47 47 -92 64t-84 17q-68 0 -93.5 -27.5t-25.5 -56.5q0 -33 27.5 -62.5t105.5 -29.5h121v-209h-119q-53 0 -84.5 -9t-48 -23.5t-20.5 -32 t-4 -33.5q0 -41 36.5 -66.5t110.5 -25.5q47 0 104.5 24.5t110.5 83.5l166 -200q-86 -82 -184.5 -113t-200.5 -31q-86 0 -166 20.5t-142.5 61.5t-100.5 102.5t-38 143.5zM362 1149l76 338h287l-172 -338h-191z" />
<glyph unicode="&#x3ae;" d="M109 0v995h294v-135h5q14 29 40.5 57.5t63.5 51t84 37t102 14.5q117 0 188.5 -36t111.5 -99.5t54.5 -149.5t14.5 -186v-1016h-307v954q0 43 -3 89.5t-18.5 85t-47.5 63.5t-91 25t-96 -21.5t-56.5 -57.5t-25.5 -81t-6 -94v-496h-307zM477 1149l76 338h287l-172 -338h-191z " />
<glyph unicode="&#x3af;" horiz-adv-x="552" d="M109 233v762h307v-682q0 -45 14 -63.5t72 -18.5v-245q-29 -4 -53.5 -7.5t-45.5 -3.5q-55 0 -108 14.5t-95 45.5t-66.5 80t-24.5 118zM162 1149l76 338h286l-172 -338h-190z" />
<glyph unicode="&#x3b0;" d="M49 1319q0 33 13.5 63.5t36 53t52 37t64.5 14.5q72 0 125 -47t53 -121t-49 -125t-125 -51q-37 0 -67.5 14t-53 39t-36 56.5t-13.5 66.5zM109 414v581h305v-534q0 -53 14 -93t39 -68t55.5 -42t63.5 -14t64.5 14t56 42t39 68t14.5 93v534h307v-581q0 -104 -39 -186.5 t-105.5 -138.5t-153.5 -85t-183 -29t-182.5 29t-152 85t-104 138t-38.5 187zM418 1149l76 338h286l-172 -338h-190zM780 1319q0 33 13.5 63.5t36 53t52 37t64.5 14.5q72 0 125 -47t53 -121t-49 -125t-125 -51q-37 0 -67.5 14t-53 39t-36 56.5t-13.5 66.5z" />
<glyph unicode="&#x3b1;" horiz-adv-x="1290" d="M72 489q0 104 31.5 199.5t90 169.5t142.5 118t190 44q96 0 180.5 -29.5t139.5 -101.5v106h307v-686q0 -45 14.5 -63.5t71.5 -18.5v-245q-29 -4 -55.5 -7.5t-46.5 -3.5q-94 0 -163 40t-104 120q-18 -25 -50 -52.5t-71.5 -51t-87 -38t-100.5 -14.5q-111 0 -201 38 t-154.5 106.5t-99 163t-34.5 206.5zM379 498q0 -113 64.5 -182.5t181.5 -69.5t181 69.5t64 182.5t-64.5 182.5t-180.5 69.5q-117 0 -181.5 -70t-64.5 -182z" />
<glyph unicode="&#x3b2;" horiz-adv-x="1187" d="M115 -444v1318q0 164 28.5 279t87 186.5t148.5 104.5t213 33q94 0 169 -28t128 -79t81.5 -123.5t28.5 -161.5q0 -78 -29.5 -153.5t-109.5 -128.5q72 -23 121 -59.5t79 -85t42 -106.5t12 -122q-4 -111 -42 -194.5t-99.5 -141t-144.5 -87.5t-175 -30q-59 0 -117.5 12.5 t-115.5 49.5v-483h-305zM420 432q0 -195 180 -194q102 0 157.5 49t55.5 147q0 102 -52 155.5t-163 53.5h-80v246h49q29 0 54.5 15.5t45 40t31 56t11.5 64.5q0 66 -33 110t-94 44q-55 0 -87 -20.5t-49.5 -61.5t-21.5 -102.5t-4 -141.5v-461z" />
<glyph unicode="&#x3b3;" horiz-adv-x="1138" d="M4 995h332l252 -676h4l233 676h310l-402 -1015v-447h-307v444z" />
<glyph unicode="&#x3b4;" horiz-adv-x="1259" d="M72 487q0 174 88 276.5t233 164.5q-66 47 -118 105.5t-52 135.5q0 63 30 120t88 99t144 65.5t199 23.5q96 0 188.5 -25t174.5 -72l-134 -221q-152 82 -258 82q-61 0 -81.5 -21.5t-20.5 -45.5q0 -20 17.5 -34t56.5 -34l221 -121q41 -23 99.5 -58.5t110.5 -94t89 -143.5 t37 -206q0 -104 -41 -196t-115 -161t-178.5 -109t-233.5 -40q-119 0 -218 38t-171.5 106.5t-113.5 162t-41 203.5zM377 487q4 -117 72.5 -181t173.5 -64q53 0 99 17t81 49t54.5 75t19.5 96t-12.5 95t-40 77t-70.5 67t-105 64q-139 -25 -205.5 -108t-66.5 -187z" />
<glyph unicode="&#x3b5;" horiz-adv-x="894" d="M61 303q0 72 35 127t119 90q-68 37 -95.5 93.5t-27.5 113.5q0 72 34 127t90 92t132 55.5t160 18.5q207 0 360 -129l-186 -186q-47 47 -92 64t-84 17q-68 0 -93.5 -27.5t-25.5 -56.5q0 -33 27.5 -62.5t105.5 -29.5h121v-209h-119q-53 0 -84.5 -9t-48 -23.5t-20.5 -32 t-4 -33.5q0 -41 36.5 -66.5t110.5 -25.5q47 0 104.5 24.5t110.5 83.5l166 -200q-86 -82 -184.5 -113t-200.5 -31q-86 0 -166 20.5t-142.5 61.5t-100.5 102.5t-38 143.5z" />
<glyph unicode="&#x3b6;" horiz-adv-x="997" d="M72 498q0 98 31.5 197.5t88 191.5t132 173t163.5 144h-276v246h754v-215q-109 -57 -214.5 -142t-188.5 -183.5t-132 -202t-45 -197.5q0 -63 43 -111.5t109.5 -84t146.5 -57t154 -34.5q66 -8 94.5 -38.5t28.5 -69.5q0 -29 -15.5 -77t-39 -103.5t-53.5 -110.5t-60 -96 l-224 84q20 41 44 87t38 81q-104 20 -208.5 60t-186.5 102.5t-133 150.5t-51 205z" />
<glyph unicode="&#x3b7;" d="M109 0v995h294v-135h5q14 29 40.5 57.5t63.5 51t84 37t102 14.5q117 0 188.5 -36t111.5 -99.5t54.5 -149.5t14.5 -186v-1016h-307v954q0 43 -3 89.5t-18.5 85t-47.5 63.5t-91 25t-96 -21.5t-56.5 -57.5t-25.5 -81t-6 -94v-496h-307z" />
<glyph unicode="&#x3b8;" horiz-adv-x="1196" d="M72 778q0 164 33.5 305.5t100 246t166 164.5t232.5 60q137 0 235.5 -56t162 -158.5t93 -245t29.5 -316.5q0 -182 -30.5 -330.5t-95 -253t-165 -162t-237.5 -57.5q-250 0 -387 201t-137 602zM385 655q16 -203 74.5 -313.5t142.5 -110.5q96 0 145.5 114t57.5 310v11h-420 v-11zM389 911h414v11q-6 78 -22.5 147.5t-42 120.5t-62.5 80.5t-82 29.5q-41 0 -75 -29.5t-60.5 -80.5t-44 -121t-25.5 -147v-11z" />
<glyph unicode="&#x3b9;" horiz-adv-x="552" d="M109 233v762h307v-682q0 -45 14 -63.5t72 -18.5v-245q-29 -4 -53.5 -7.5t-45.5 -3.5q-55 0 -108 14.5t-95 45.5t-66.5 80t-24.5 118z" />
<glyph unicode="&#x3ba;" horiz-adv-x="1169" d="M109 0v995h307v-354q84 84 166 178t163 176h385l-446 -467q123 -123 244 -264t239 -264h-405l-346 397v-397h-307z" />
<glyph unicode="&#x3bb;" horiz-adv-x="1130" d="M0 0l393 993l-184 457h332l589 -1450h-331l-252 676h-4l-234 -676h-309z" />
<glyph unicode="&#x3bc;" d="M109 -467v1462h307v-487q0 -43 3 -89t18.5 -85t47 -63.5t90.5 -24.5t96.5 21.5t57 57t25.5 81t6 94.5v495h307v-995h-295v135h-4q-16 -29 -42 -57.5t-62.5 -51t-84 -37t-102.5 -14.5q-35 0 -61 7v-449h-307z" />
<glyph unicode="&#x3bd;" horiz-adv-x="1138" d="M4 995h332l252 -676h4l233 676h310l-394 -995h-325z" />
<glyph unicode="&#x3be;" horiz-adv-x="1036" d="M72 451q0 123 63.5 226t179.5 163q-80 51 -115.5 116.5t-35.5 143.5q0 70 30.5 137.5t93 120.5t156 86t218.5 33q37 0 80.5 -4.5t90 -13.5t90.5 -25.5t81 -40.5l-103 -211q-59 31 -121.5 44t-107.5 13q-104 0 -157.5 -48t-53.5 -108q0 -31 21.5 -55t56 -41.5t81 -27 t93.5 -9.5h147v-243h-137q-90 0 -154.5 -20.5t-107.5 -54.5t-63.5 -78t-20.5 -93q0 -74 44 -120t113.5 -71.5t154.5 -36t165 -10.5q68 -6 95.5 -37.5t27.5 -70.5q0 -29 -15.5 -77t-39 -103.5t-53 -111.5t-60.5 -99l-223 86q27 47 47 88t37 82q-104 14 -211 40.5t-193 78 t-140 135t-54 217.5z" />
<glyph unicode="&#x3bf;" horiz-adv-x="1249" d="M72 498q0 119 43 215t117.5 164.5t176 105.5t216.5 37t216 -37t176 -105.5t118 -165t43 -214.5q0 -119 -43 -215.5t-118 -165t-176.5 -105.5t-215.5 -37q-115 0 -216.5 37t-176 105.5t-117.5 165t-43 215.5zM379 498q0 -113 64.5 -182.5t181.5 -69.5t181 69.5t64 182.5 t-64.5 182.5t-180.5 69.5q-117 0 -181.5 -69.5t-64.5 -182.5z" />
<glyph unicode="&#x3c0;" horiz-adv-x="1241" d="M-10 936q74 29 152.5 44t183.5 15h891v-245h-158v-750h-305v748h-189q-10 -84 -25.5 -186.5t-35 -205t-43 -195.5t-47.5 -161h-310q29 80 52.5 176t42 196.5t32 197t19.5 178.5q-23 -4 -42.5 -6.5t-42 -6.5t-49 -13t-61.5 -26z" />
<glyph unicode="&#x3c1;" horiz-adv-x="1284" d="M109 -467v965q0 119 43 215t117.5 164.5t175 105.5t214.5 37q115 0 216.5 -37t176 -105.5t117.5 -165t43 -214.5q0 -119 -43 -215.5t-117.5 -165t-176 -105.5t-216.5 -37q-66 0 -128 12.5t-115 35.5v-490h-307zM414 498q0 -113 64.5 -182.5t180.5 -69.5q117 0 181.5 69.5 t64.5 182.5t-64.5 182.5t-181.5 69.5t-181 -69.5t-64 -182.5z" />
<glyph unicode="&#x3c2;" horiz-adv-x="1001" d="M78 498q0 119 43 215t117.5 164.5t176 105.5t216.5 37q88 0 185 -29.5t169 -103.5l-203 -213q-23 33 -63.5 54.5t-87.5 21.5q-117 0 -181.5 -70t-64.5 -182q0 -113 64.5 -180.5t181.5 -71.5q53 -2 104 -2t94 -11q47 -12 78 -41.5t31 -76.5q0 -29 -14.5 -80t-39 -109.5 t-54 -117t-60.5 -103.5l-221 90q23 47 44 90t38 90q-115 0 -216.5 37t-176 105.5t-117.5 165t-43 215.5z" />
<glyph unicode="&#x3c3;" horiz-adv-x="1327" d="M72 498q0 119 43 215t117.5 164.5t176 105.5t216.5 37h678v-248h-199q74 -121 74 -274q0 -119 -43 -215.5t-118 -165t-176.5 -105.5t-215.5 -37q-115 0 -216.5 37t-176 105.5t-117.5 165t-43 215.5zM379 498q0 -113 64.5 -182.5t181.5 -69.5t181 69.5t64 182.5 t-64.5 182.5t-180.5 69.5q-117 0 -181.5 -69.5t-64.5 -182.5z" />
<glyph unicode="&#x3c4;" horiz-adv-x="978" d="M-10 936q72 33 169 47t197 14h598v-247h-301v-435q0 -45 13.5 -65.5t70.5 -20.5v-245q-29 -4 -53.5 -7.5t-44.5 -3.5q-55 0 -107.5 14.5t-94.5 45t-66.5 80t-24.5 118.5v519h-20q-70 0 -137.5 -11.5t-131.5 -42.5z" />
<glyph unicode="&#x3c5;" d="M109 414v581h305v-534q0 -53 14 -93t39 -68t55.5 -42t63.5 -14t64.5 14t56 42t39 68t14.5 93v534h307v-581q0 -104 -39 -186.5t-105.5 -138.5t-153.5 -85t-183 -29t-182.5 29t-152 85t-104 138t-38.5 187z" />
<glyph unicode="&#x3c6;" horiz-adv-x="1449" d="M72 500q0 70 19.5 139.5t59 132t100 114.5t142.5 89l125 -234q-74 -49 -107.5 -104t-33.5 -143q0 -45 13 -88.5t39 -80t60.5 -63t77.5 -39.5l2 797h160q113 0 228.5 -24.5t210 -85t152.5 -163t58 -258.5q0 -102 -33.5 -190t-98 -154.5t-158 -109.5t-209.5 -58v-444h-310 v444q-123 12 -216 58.5t-155.5 117t-94 159.5t-31.5 188zM881 223q45 12 79.5 38t59 62.5t37 79.5t12.5 91q0 111 -51 177t-137 87v-535z" />
<glyph unicode="&#x3c7;" horiz-adv-x="1071" d="M-43 -465l403 774l-360 686h350l187 -401l184 401h350l-360 -686l403 -774h-338l-239 494h-2l-240 -494h-338z" />
<glyph unicode="&#x3c8;" horiz-adv-x="1536" d="M109 489v506h309v-485q0 -80 19.5 -128t49 -74.5t63.5 -37t64 -14.5v1012h308v-1010q31 6 64.5 16.5t63 36t49 72.5t19.5 127v485h309v-506q0 -135 -43 -227t-113.5 -150.5t-161.5 -88t-187 -43.5v-445h-308v445q-96 14 -187 44.5t-161.5 89t-113.5 149.5t-43 226z" />
<glyph unicode="&#x3c9;" horiz-adv-x="1505" d="M72 502q0 72 17 143.5t46 137t65 119.5t72 93h344q-49 -57 -94 -120.5t-78.5 -127t-53 -126t-19.5 -117.5q0 -72 13 -124t32.5 -85t44 -48.5t49.5 -15.5q41 0 68.5 49.5t27.5 114.5v385h293v-385q0 -66 27.5 -115t68.5 -49q25 0 49.5 15.5t45 48.5t34 85t13.5 124 q0 55 -20.5 117.5t-54.5 126t-79 127t-94 120.5h344q37 -39 72.5 -93t64.5 -119.5t46.5 -137.5t17.5 -143q0 -143 -38 -243.5t-98.5 -163t-135 -91.5t-146.5 -29q-70 0 -139.5 20.5t-122.5 70.5q-57 -53 -125 -72t-140 -19t-146.5 29t-135 91.5t-98 162.5t-37.5 244z" />
<glyph unicode="&#x3ca;" horiz-adv-x="552" d="M-106 1319q0 33 13 63.5t35.5 53t52.5 37t64 14.5q72 0 125.5 -47t53.5 -121t-49.5 -125t-125.5 -51q-37 0 -67.5 14t-53 39t-35.5 56.5t-13 66.5zM109 233v762h307v-682q0 -45 14 -63.5t72 -18.5v-245q-29 -4 -53.5 -7.5t-45.5 -3.5q-55 0 -108 14.5t-95 45.5t-66.5 80 t-24.5 118zM319 1319q0 33 13.5 63.5t36 53t52.5 37t64 14.5q72 0 125.5 -47t53.5 -121t-49.5 -125t-125.5 -51q-37 0 -67.5 14t-53 39t-36 56.5t-13.5 66.5z" />
<glyph unicode="&#x3cb;" d="M109 414v581h305v-534q0 -53 14 -93t39 -68t55.5 -42t63.5 -14t64.5 14t56 42t39 68t14.5 93v534h307v-581q0 -104 -39 -186.5t-105.5 -138.5t-153.5 -85t-183 -29t-182.5 29t-152 85t-104 138t-38.5 187zM207 1319q0 33 13 63.5t36 53t52.5 37t64.5 14.5q72 0 125 -47 t53 -121t-49 -125t-125 -51q-37 0 -67.5 14t-53.5 39t-36 56.5t-13 66.5zM633 1319q0 33 13 63.5t36 53t52.5 37t64.5 14.5q72 0 125 -47t53 -121t-49 -125t-125 -51q-37 0 -67.5 14t-53.5 39t-36 56.5t-13 66.5z" />
<glyph unicode="&#x3cc;" horiz-adv-x="1249" d="M72 498q0 119 43 215t117.5 164.5t176 105.5t216.5 37t216 -37t176 -105.5t118 -165t43 -214.5q0 -119 -43 -215.5t-118 -165t-176.5 -105.5t-215.5 -37q-115 0 -216.5 37t-176 105.5t-117.5 165t-43 215.5zM379 498q0 -113 64.5 -182.5t181.5 -69.5t181 69.5t64 182.5 t-64.5 182.5t-180.5 69.5q-117 0 -181.5 -69.5t-64.5 -182.5zM520 1149l76 338h287l-172 -338h-191z" />
<glyph unicode="&#x3cd;" d="M109 414v581h305v-534q0 -53 14 -93t39 -68t55.5 -42t63.5 -14t64.5 14t56 42t39 68t14.5 93v534h307v-581q0 -104 -39 -186.5t-105.5 -138.5t-153.5 -85t-183 -29t-182.5 29t-152 85t-104 138t-38.5 187zM446 1149l76 338h287l-172 -338h-191z" />
<glyph unicode="&#x3ce;" horiz-adv-x="1505" d="M72 502q0 72 17 143.5t46 137t65 119.5t72 93h344q-49 -57 -94 -120.5t-78.5 -127t-53 -126t-19.5 -117.5q0 -72 13 -124t32.5 -85t44 -48.5t49.5 -15.5q41 0 68.5 49.5t27.5 114.5v385h293v-385q0 -66 27.5 -115t68.5 -49q25 0 49.5 15.5t45 48.5t34 85t13.5 124 q0 55 -20.5 117.5t-54.5 126t-79 127t-94 120.5h344q37 -39 72.5 -93t64.5 -119.5t46.5 -137.5t17.5 -143q0 -143 -38 -243.5t-98.5 -163t-135 -91.5t-146.5 -29q-70 0 -139.5 20.5t-122.5 70.5q-57 -53 -125 -72t-140 -19t-146.5 29t-135 91.5t-98 162.5t-37.5 244z M647 1149l76 338h287l-172 -338h-191z" />
<glyph unicode="&#x401;" horiz-adv-x="1290" d="M160 0v1450h985v-295h-666v-270h629v-295h-629v-295h703v-295h-1022zM260 1718q0 33 13.5 63.5t36 53.5t52 37t64.5 14q72 0 125 -47t53 -121t-49 -125t-125 -51q-37 0 -67.5 14.5t-53 39t-36 56t-13.5 66.5zM686 1718q0 33 13.5 63.5t36 53.5t52 37t64.5 14 q72 0 125 -47t53 -121t-49 -125t-125 -51q-37 0 -67.5 14.5t-53 39t-36 56t-13.5 66.5z" />
<glyph unicode="&#x402;" horiz-adv-x="1544" d="M14 1165v285h1123v-283h-465v-262h266q137 0 232.5 -27.5t158 -71.5t97 -97.5t52 -103.5t21.5 -91t4 -61q0 -102 -41 -186.5t-115.5 -144t-179 -91t-229.5 -31.5h-168v272h172q74 0 120 18.5t72.5 46.5t37 58.5t10.5 57.5t-10.5 57.5t-37 57t-72.5 45t-120 18.5h-270 v-631h-318v1165h-340z" />
<glyph unicode="&#x403;" horiz-adv-x="1101" d="M147 0v1450h940v-283h-620v-1167h-320zM371 1554l207 295h417l-354 -295h-270z" />
<glyph unicode="&#x404;" horiz-adv-x="1402" d="M70 725q0 174 58 315.5t162.5 240.5t248 152.5t313.5 53.5q61 0 128 -11.5t131.5 -36t123.5 -65.5t106 -100l-245 -201q-47 57 -115 88t-160 31q-74 0 -138.5 -23.5t-117.5 -66.5t-91 -103.5t-56 -132.5h565v-282h-565q18 -72 56 -132.5t89 -103.5t114.5 -66.5 t133.5 -23.5q98 0 174 41t125 115l266 -199q-92 -129 -232 -190.5t-292 -61.5q-170 0 -313.5 53.5t-248 152.5t-162.5 239.5t-58 316.5z" />
<glyph unicode="&#x405;" d="M39 145l227 250q49 -66 124 -101.5t155 -35.5q39 0 79 9t71.5 27.5t51 47.5t19.5 68q0 66 -50 103.5t-126 64t-164 53t-164 72t-126 119t-50 194.5q0 117 46 205t123 147t177 89t207 30q125 0 238.5 -35t205.5 -117l-219 -239q-18 25 -45.5 42t-59.5 29.5t-64.5 18.5 t-61.5 6q-33 0 -71 -8t-69.5 -25.5t-53 -46.5t-21.5 -70q0 -66 49 -100.5t124 -59t161 -49t160.5 -69.5t123.5 -121t49 -203q0 -121 -45 -211t-121.5 -149.5t-178 -88t-214.5 -28.5q-141 0 -262 42t-225 140z" />
<glyph unicode="&#x406;" horiz-adv-x="606" d="M143 0v1450h320v-1450h-320z" />
<glyph unicode="&#x407;" horiz-adv-x="606" d="M-82 1718q0 33 13.5 63.5t36 53.5t52 37t64.5 14q72 0 125 -47t53 -121t-49 -125t-125 -51q-37 0 -67.5 14.5t-53 39t-36 56t-13.5 66.5zM143 0v1450h320v-1450h-320zM344 1718q0 33 13.5 63.5t36 53.5t52 37t64.5 14q72 0 125 -47t53 -121t-49 -125t-125 -51 q-37 0 -67.5 14.5t-53 39t-36 56t-13.5 66.5z" />
<glyph unicode="&#x408;" horiz-adv-x="1024" d="M-10 301l293 72q8 -53 49 -90t94 -37q55 0 86 27.5t45 68.5t17.5 89t3.5 89v930h319v-965q0 -102 -17.5 -196t-66.5 -166t-140 -116t-239 -44q-174 0 -290.5 81t-153.5 257z" />
<glyph unicode="&#x409;" horiz-adv-x="2308" d="M-41 0l1147 1450h330v-545h268q135 0 230.5 -27.5t157.5 -71.5t97 -96.5t52.5 -102.5t21.5 -91t4 -59q0 -102 -41 -186.5t-114.5 -144.5t-178 -93t-229.5 -33h-584l-2 977l-766 -977h-393zM1436 272h268q72 0 119 18.5t73.5 46.5t37 60.5t10.5 59.5t-10.5 57.5t-37 56 t-73.5 43t-119 17.5h-268v-359z" />
<glyph unicode="&#x40a;" horiz-adv-x="2275" d="M147 0v1450h318v-547h625l-3 547h318v-547h266q135 0 230.5 -27.5t158 -71.5t97 -97.5t52 -103.5t21.5 -91t4 -59q0 -102 -41 -186.5t-114.5 -144t-178 -91t-229.5 -31.5h-584l3 629h-625v-629h-318zM1405 272h272q72 0 118 18.5t73.5 46.5t38 58.5t10.5 57.5t-10.5 57.5 t-38 57t-73.5 44t-118 17.5h-272v-357z" />
<glyph unicode="&#x40b;" horiz-adv-x="1579" d="M14 1165v285h1123v-285h-465v-260h325q160 0 255.5 -44t145.5 -107.5t64.5 -131t14.5 -112.5v-510h-322v469q0 27 -6 55.5t-27.5 52t-63.5 39t-116 15.5h-270v-631h-318v1165h-340z" />
<glyph unicode="&#x40c;" horiz-adv-x="1478" d="M160 0v1450h319v-602l563 602h418l-645 -674l701 -776h-447l-590 688v-688h-319zM549 1554l207 295h418l-355 -295h-270z" />
<glyph unicode="&#x40e;" horiz-adv-x="1425" d="M0 1450h379l371 -696l313 696h362l-706 -1450h-338l201 412zM356 1831h164q6 -31 27.5 -49.5t52.5 -29.5t65.5 -15t67.5 -4q39 0 74 2t62.5 12t48 29.5t30.5 54.5h164q-8 -78 -41 -134.5t-83 -92t-114.5 -52t-138.5 -16.5t-140.5 15.5t-116.5 51t-83 92t-39 136.5z" />
<glyph unicode="&#x40f;" horiz-adv-x="1556" d="M147 0v1450h320v-1157h620v1157h322l-2 -1450h-471v-246h-322v246h-467z" />
<glyph unicode="&#x410;" horiz-adv-x="1517" d="M-2 0l627 1450h264l631 -1450h-361l-125 307h-563l-121 -307h-352zM571 578h355l-178 450z" />
<glyph unicode="&#x411;" horiz-adv-x="1337" d="M147 0v1450h992v-283h-672v-264h264q137 0 232.5 -27.5t158 -71.5t97 -97.5t52 -103.5t21.5 -91t4 -59q0 -102 -41 -186.5t-115.5 -144t-179 -91t-229.5 -31.5h-584zM467 272h268q74 0 120 18.5t72.5 46.5t37 58.5t10.5 57.5t-10.5 57.5t-37 57t-72.5 45t-120 18.5h-268 v-359z" />
<glyph unicode="&#x412;" horiz-adv-x="1327" d="M147 0v1450h541q94 0 189.5 -13.5t171 -53.5t123 -111.5t47.5 -190.5q0 -123 -69 -202.5t-181 -116.5v-4q72 -8 130 -39t100 -77t64.5 -107.5t22.5 -131.5q0 -115 -49 -191.5t-127 -123.5t-175 -67.5t-194 -20.5h-594zM467 270h287q37 0 74.5 8.5t68.5 29t50.5 52 t19.5 80.5q0 51 -26 83t-64.5 49.5t-83.5 22.5t-84 5h-242v-330zM467 870h231q37 0 73 8.5t64.5 27t46 48t17.5 74.5t-19.5 75t-50 47t-68.5 23.5t-77 6.5h-217v-310z" />
<glyph unicode="&#x413;" horiz-adv-x="1101" d="M147 0v1450h940v-283h-620v-1167h-320z" />
<glyph unicode="&#x414;" horiz-adv-x="1777" d="M29 -246v539h166q63 135 128.5 261t131.5 261q78 150 158.5 316.5t150.5 318.5h258l561 -1157h166v-539h-319v246h-1082v-246h-319zM547 293h680q-53 113 -103.5 216t-101.5 214q-25 51 -40 85t-28.5 64.5t-29 66.5t-39.5 89q-37 -86 -75 -167t-75 -167q-27 -57 -48 -104 t-41.5 -92t-44 -94.5t-54.5 -110.5z" />
<glyph unicode="&#x415;" horiz-adv-x="1271" d="M147 0v1450h986v-295h-666v-270h629v-295h-629v-295h702v-295h-1022z" />
<glyph unicode="&#x416;" horiz-adv-x="2068" d="M-37 0l645 782l-602 668h416l452 -532v532h320v-532l453 532h415l-602 -668l645 -782h-434l-477 614v-614h2h-322v614l-477 -614h-434z" />
<glyph unicode="&#x417;" horiz-adv-x="1173" d="M27 352l325 92q37 -104 87 -149t141 -45q45 0 85 12t70.5 34.5t48 55.5t17.5 74q0 59 -18.5 95t-55.5 56.5t-92 26.5t-127 6h-105v279h107q78 0 127 10t77.5 30.5t39 50.5t10.5 69q0 78 -53.5 114.5t-130.5 36.5q-61 0 -116.5 -41t-90.5 -117l-320 99q39 86 95.5 150.5 t124 107.5t144.5 64.5t158 21.5q100 0 194.5 -25.5t166.5 -79t115 -133.5t43 -188q0 -66 -15.5 -112t-42 -81t-63.5 -59.5t-80 -44.5q45 -14 88 -38t77 -62.5t54.5 -97t20.5 -142.5q0 -82 -31 -163t-98.5 -146.5t-174 -106.5t-256.5 -41q-188 0 -334.5 92.5t-211.5 294.5z " />
<glyph unicode="&#x418;" horiz-adv-x="1669" d="M147 0v1450h320v-969l702 969h353v-1450h-324v971l-709 -971h-342z" />
<glyph unicode="&#x419;" horiz-adv-x="1669" d="M147 0v1450h320v-969l702 969h353v-1450h-324v971l-709 -971h-342zM442 1831h164q6 -31 27.5 -49.5t52.5 -29.5t65.5 -15t67.5 -4q39 0 74 2t62.5 12t48 29.5t30.5 54.5h164q-8 -78 -41 -134.5t-83 -92t-114.5 -52t-138.5 -16.5t-140.5 15.5t-116.5 51t-82.5 92 t-39.5 136.5z" />
<glyph unicode="&#x41a;" horiz-adv-x="1466" d="M147 0v1450h320v-602l563 602h418l-645 -674l700 -776h-446l-590 688v-688h-320z" />
<glyph unicode="&#x41b;" horiz-adv-x="1644" d="M-2 0l707 1450h256l686 -1450h-361l-465 1026l-461 -1026h-362z" />
<glyph unicode="&#x41c;" horiz-adv-x="1933" d="M147 0v1450h484l334 -946h4l336 946h481v-1450h-320v1112h-4l-381 -1112h-243l-367 1112h-4v-1112h-320z" />
<glyph unicode="&#x41d;" horiz-adv-x="1554" d="M147 0v1450h320v-541h620v541h320v-1450h-320v627h-620v-627h-320z" />
<glyph unicode="&#x41e;" horiz-adv-x="1703" d="M70 725q0 174 58 315.5t162.5 240.5t248 152.5t313.5 53.5t313.5 -53.5t248 -152.5t162.5 -240.5t58 -315.5q0 -176 -58 -316.5t-162.5 -239.5t-248 -152.5t-313.5 -53.5t-313.5 53.5t-248 152.5t-162.5 239.5t-58 316.5zM401 725q0 -102 32 -187t91.5 -147.5 t142.5 -97.5t185 -35t185 35t142.5 97.5t91.5 147.5t32 187q0 100 -32 186t-91.5 148.5t-142.5 97.5t-185 35t-185 -35t-142.5 -97.5t-91.5 -148.5t-32 -186z" />
<glyph unicode="&#x41f;" horiz-adv-x="1554" d="M147 0v1450h1260v-1450h-320v1165h-620l2 -1165h-322z" />
<glyph unicode="&#x420;" horiz-adv-x="1290" d="M147 0v1450h539q113 0 213 -20.5t175 -70.5t119 -135t44 -214q0 -127 -41 -212t-112.5 -137.5t-170 -74t-213.5 -21.5h-233v-565h-320zM467 836h213q43 0 83 8t71.5 27.5t51 53t19.5 85.5q0 57 -25.5 91t-65.5 51t-89 22.5t-94 5.5h-164v-344z" />
<glyph unicode="&#x421;" horiz-adv-x="1402" d="M70 725q0 174 58 315.5t162.5 240.5t248 152.5t313.5 53.5q61 0 128 -11.5t131.5 -36t123.5 -65.5t106 -100l-245 -201q-47 57 -115 88t-160 31q-90 0 -166.5 -35t-133 -97.5t-88.5 -148.5t-32 -186q0 -102 32 -187t87 -147.5t130 -97.5t161 -35q98 0 174 41t125 115 l266 -199q-92 -129 -232 -190.5t-292 -61.5q-170 0 -313.5 53.5t-248 152.5t-162.5 239.5t-58 316.5z" />
<glyph unicode="&#x422;" d="M14 1167v283h1147v-283h-413v-1167h-320v1167h-414z" />
<glyph unicode="&#x423;" horiz-adv-x="1425" d="M0 1450h379l371 -696l313 696h362l-706 -1450h-338l201 412z" />
<glyph unicode="&#x424;" horiz-adv-x="1818" d="M70 735q0 55 13 123t44 137.5t81 136t126 120t178 88t238 40.5v105h321v-105q203 -12 334 -82.5t208 -168t106.5 -204t29.5 -190.5q0 -55 -12.5 -121.5t-43 -136t-80.5 -136.5t-126 -120t-178.5 -88t-237.5 -41v-127h-321v127q-135 6 -237.5 41t-178.5 88t-126 120 t-81 136.5t-44 136t-13 121.5zM395 737q0 -43 15.5 -100t55.5 -111.5t108.5 -96.5t175.5 -54v723q-106 -12 -175 -54.5t-109 -96.5t-55.5 -111.5t-15.5 -98.5zM1071 375q104 12 172 55t108 97.5t56 111.5t16 98t-15 98.5t-55 111.5t-107.5 96t-174.5 55v-723z" />
<glyph unicode="&#x425;" horiz-adv-x="1478" d="M0 0l508 758l-479 692h401l309 -508l297 508h387l-469 -686l525 -764h-402l-354 584l-344 -584h-379z" />
<glyph unicode="&#x426;" horiz-adv-x="1636" d="M147 0v1450h320v-1157h620v1157h322v-1157h199v-539h-322v246h-1139z" />
<glyph unicode="&#x427;" horiz-adv-x="1382" d="M102 985v465h316v-446q2 -61 17.5 -100.5t48 -63t83.5 -32.5t125 -9h221v651h322v-1450h-322v518h-221q-166 0 -278.5 26.5t-181 84t-99.5 145.5t-31 211z" />
<glyph unicode="&#x428;" horiz-adv-x="2125" d="M147 0v1450h320v-1157h436v1157h320v-1157h438v1157h317v-1450h-1831z" />
<glyph unicode="&#x429;" horiz-adv-x="2203" d="M147 0v1450h320v-1157h436v1157h320v-1157h438v1157h317l-2 -1157h199v-539h-322v246h-1706z" />
<glyph unicode="&#x42a;" horiz-adv-x="1544" d="M14 1165v285h658v-547h266q137 0 232.5 -27.5t158 -71.5t97 -97.5t52 -103.5t21.5 -91t4 -59q0 -102 -41 -186.5t-115.5 -144t-179 -91t-229.5 -31.5h-584v1165h-340zM672 272h270q74 0 120 18.5t72.5 46.5t37 58.5t10.5 57.5t-10.5 57.5t-37 57t-72.5 45t-120 18.5h-270 v-359z" />
<glyph unicode="&#x42b;" horiz-adv-x="1886" d="M147 0v1450h320v-547h264q137 0 232.5 -27.5t158 -71.5t97 -97.5t52 -103.5t21.5 -91t4 -59q0 -102 -41 -186.5t-115.5 -144t-179 -91t-229.5 -31.5h-584zM467 272h268q74 0 120 18.5t72.5 46.5t37 58.5t10.5 57.5t-10.5 57.5t-37 57t-72.5 45t-120 18.5h-268v-359z M1421 0v1450h318v-1450h-318z" />
<glyph unicode="&#x42c;" horiz-adv-x="1337" d="M147 0v1450h318v-547h266q137 0 232.5 -27.5t158 -71.5t97 -97.5t52 -103.5t21.5 -91t4 -59q0 -102 -41 -186.5t-115.5 -144t-179 -91t-229.5 -31.5h-584zM465 272h270q74 0 120 18.5t72.5 46.5t37 58.5t10.5 57.5t-10.5 57.5t-37 57t-72.5 45t-120 18.5h-270v-359z" />
<glyph unicode="&#x42d;" horiz-adv-x="1402" d="M27 215l266 199q49 -74 125 -115t174 -41q70 0 133 23.5t115.5 66.5t89.5 103.5t55 132.5h-565v282h565q-18 72 -56 132.5t-91.5 103.5t-118 66.5t-137.5 23.5q-92 0 -160 -31t-115 -88l-246 201q45 59 104.5 100t125 65.5t132 36t128.5 11.5q170 0 313.5 -53.5 t248 -152.5t162.5 -240.5t58 -315.5q0 -176 -58 -316.5t-162.5 -239.5t-248 -152.5t-313.5 -53.5q-152 0 -292 61.5t-232 190.5z" />
<glyph unicode="&#x42e;" horiz-adv-x="2230" d="M145 0v1450h320v-571h143q25 141 92.5 253.5t168 191.5t230.5 121t279 42q170 0 313.5 -53.5t248 -152.5t163 -240.5t58.5 -315.5q0 -176 -58.5 -316.5t-163 -239.5t-248 -152.5t-313.5 -53.5q-154 0 -285.5 44t-233 126t-168 199t-87.5 264h-139v-596h-320zM928 725 q0 -102 31.5 -187t91 -147.5t142.5 -97.5t185 -35t185.5 35t142.5 97.5t91 147.5t32 187q0 100 -32 186t-91 148.5t-142 97.5t-186 35q-102 0 -185 -35t-142.5 -97.5t-91 -148.5t-31.5 -186z" />
<glyph unicode="&#x42f;" horiz-adv-x="1327" d="M16 0l369 612q-154 29 -233.5 136.5t-79.5 261.5q0 127 44 212t118.5 135t174 71.5t209.5 21.5h562v-1450h-320v580h-158l-303 -580h-383zM403 1012q0 -59 26 -92t64.5 -48.5t87 -18.5t91.5 -3h188v330h-209q-43 0 -88 -6.5t-79.5 -23.5t-57.5 -50t-23 -88z" />
<glyph unicode="&#x430;" horiz-adv-x="1099" d="M59 283q0 129 68 199.5t169 104.5t217 40t212 6q0 82 -54.5 130t-133.5 48q-76 0 -138.5 -31.5t-111.5 -87.5l-164 168q86 78 200.5 119t237.5 41q135 0 222 -34t139.5 -99.5t73 -160.5t20.5 -220v-506h-291v125h-4q-51 -80 -132 -115t-175 -35q-72 0 -135.5 19.5 t-112.5 58.5t-78 96.5t-29 133.5zM354 293q0 -29 13.5 -49.5t35 -33.5t47 -19.5t50.5 -6.5q45 0 86 12.5t71.5 36t49 58.5t18.5 80v65h-76q-35 0 -86 -3t-97 -17.5t-79 -43t-33 -79.5z" />
<glyph unicode="&#x431;" horiz-adv-x="1259" d="M72 604q0 166 47 286t116.5 205t151.5 140t154 90l411 182l142 -250l-461 -194q-25 -10 -54.5 -25.5t-59.5 -37t-57.5 -48t-45.5 -55.5q59 27 122.5 45.5t129.5 18.5q98 0 190 -31t165 -92.5t117 -152.5t44 -210q0 -106 -39 -197.5t-111.5 -158t-174 -104.5t-226.5 -38 q-90 0 -188.5 31t-181.5 102.5t-137 192.5t-54 301zM393 471q0 -43 15.5 -84t46 -72.5t77 -52t105.5 -20.5t105 20.5t77 52t46.5 72.5t15.5 84q0 41 -14.5 81t-45 72.5t-77 52t-107.5 19.5q-66 0 -112 -19.5t-74.5 -51t-43 -72.5t-14.5 -82z" />
<glyph unicode="&#x432;" horiz-adv-x="1069" d="M109 0v995h438q88 0 162.5 -11t130 -41t86 -82t30.5 -134q0 -66 -35.5 -120t-101.5 -81q92 -23 138.5 -88t46.5 -147q0 -86 -35 -142.5t-91.5 -89t-128 -46t-145.5 -13.5h-495zM416 217h168q41 0 78.5 22.5t37.5 79.5q0 29 -15 46.5t-37.5 26.5t-49.5 11.5t-51 2.5h-131 v-189zM416 610h133q41 0 75.5 18.5t34.5 69.5q0 27 -11 43.5t-29.5 24.5t-40 10t-41.5 2h-121v-168z" />
<glyph unicode="&#x433;" horiz-adv-x="888" d="M109 0v995h755v-245h-448v-750h-307z" />
<glyph unicode="&#x434;" horiz-adv-x="1310" d="M16 -201v447h127l359 749h311l352 -749h129v-447h-295v201h-690v-201h-293zM457 246h393l-199 430z" />
<glyph unicode="&#x435;" d="M78 498q0 119 43 216t117.5 164.5t176 104.5t216.5 37q106 0 193 -37t147.5 -104.5t93.5 -165t33 -215.5v-97h-713q16 -88 79.5 -140t151.5 -52q76 0 128.5 33.5t91.5 87.5l215 -158q-76 -96 -187.5 -146.5t-232.5 -50.5q-115 0 -216.5 37t-176 105.5t-117.5 165 t-43 215.5zM385 610h406q4 78 -50.5 133.5t-138.5 55.5q-49 0 -89 -16.5t-67.5 -42t-43 -59.5t-17.5 -71z" />
<glyph unicode="&#x436;" horiz-adv-x="1636" d="M2 0l404 528l-373 467h368l263 -354v354h309v-354l262 354h369l-373 -467l403 -528h-383l-278 397v-397h-309v397l-279 -397h-383z" />
<glyph unicode="&#x437;" horiz-adv-x="956" d="M35 231l272 76q16 -57 62.5 -84.5t93.5 -27.5q49 0 87 26.5t38 73.5q0 66 -46 88.5t-134 22.5h-97v212h99q92 0 121.5 27t29.5 68q0 43 -33.5 63.5t-76.5 20.5q-41 0 -79 -18.5t-55 -57.5q-74 25 -130 37t-130 37q53 117 168 174t250 57q86 0 166 -22.5t135 -67.5 q47 -39 69.5 -93.5t22.5 -109.5q0 -66 -35.5 -125t-111.5 -82q33 -12 63.5 -29.5t54 -44t38 -65.5t14.5 -92q0 -59 -24.5 -117.5t-77 -105.5t-134.5 -77t-198 -30q-135 0 -250 62.5t-172 203.5z" />
<glyph unicode="&#x438;" horiz-adv-x="1255" d="M109 0v995h309l-2 -553q104 135 209.5 276.5t212.5 276.5h309v-995h-309v555q-106 -135 -215 -277.5t-213 -277.5h-301z" />
<glyph unicode="&#x439;" horiz-adv-x="1255" d="M109 0v995h309l-2 -553q104 135 209.5 276.5t212.5 276.5h309v-995h-309v555q-106 -135 -215 -277.5t-213 -277.5h-301zM252 1450h164q8 -31 29.5 -49.5t50 -29.5t63.5 -15t70 -4q82 0 136 15t79 83h164q-8 -78 -41 -134t-83 -92t-114.5 -52.5t-138.5 -16.5 q-72 0 -138.5 15.5t-118.5 51t-85 92t-37 136.5z" />
<glyph unicode="&#x43a;" horiz-adv-x="1169" d="M109 0v995h307v-354q84 84 166 178t163 176h385l-446 -467q123 -123 244 -264t239 -264h-405l-346 397v-397h-307z" />
<glyph unicode="&#x43b;" horiz-adv-x="1269" d="M2 0l490 995h299l477 -995h-338l-295 668q-37 -74 -74 -160t-73.5 -174t-73.5 -174t-72 -160h-340z" />
<glyph unicode="&#x43c;" horiz-adv-x="1437" d="M109 0v995h399l199 -594l14 -59l14 61l195 592h399v-995h-297v608l-20 -73l-183 -535h-233l-170 520l-20 74v-594h-297z" />
<glyph unicode="&#x43d;" d="M109 0v995h307v-348h346v348h305v-995h-305v403h-346v-403h-307z" />
<glyph unicode="&#x43e;" horiz-adv-x="1249" d="M72 498q0 119 43 216t117.5 164.5t176 104.5t216.5 37t216 -37t176 -104.5t118 -165t43 -215.5q0 -119 -43 -215.5t-118 -165t-176.5 -105.5t-215.5 -37q-115 0 -216.5 37t-176 105.5t-117.5 165t-43 215.5zM379 498q0 -113 64.5 -182.5t181.5 -69.5q115 0 180 69.5 t65 182.5q0 115 -65.5 183.5t-179.5 68.5q-117 0 -181.5 -68.5t-64.5 -183.5z" />
<glyph unicode="&#x43f;" d="M109 0v995h958v-995h-305v750h-346v-750h-307z" />
<glyph unicode="&#x440;" horiz-adv-x="1290" d="M137 -467v1462h283v-131h4q18 27 49 54.5t70 50t86 37t100 14.5q111 0 201 -38t154.5 -105.5t99.5 -163t35 -207.5q0 -104 -32 -199.5t-90.5 -169.5t-142.5 -118t-190 -44q-96 0 -179 30t-136 101h-5v-573h-307zM420 498q0 -113 64.5 -182.5t181.5 -69.5q115 0 180 69.5 t65 182.5q0 115 -65.5 183.5t-179.5 68.5q-117 0 -181.5 -68.5t-64.5 -183.5z" />
<glyph unicode="&#x441;" horiz-adv-x="995" d="M72 498q0 119 43 216t117.5 164.5t176 104.5t216.5 37q92 0 186 -29.5t168 -103.5l-203 -213q-23 33 -62.5 54.5t-88.5 21.5q-117 0 -181.5 -69t-64.5 -183q0 -113 64.5 -182.5t181.5 -69.5q51 0 88 22.5t63 53.5l203 -213q-74 -74 -168 -104t-186 -30q-115 0 -216.5 37 t-176 105.5t-117.5 165t-43 215.5z" />
<glyph unicode="&#x442;" horiz-adv-x="927" d="M25 750v245h878v-245h-285v-750h-307v750h-286z" />
<glyph unicode="&#x443;" horiz-adv-x="1138" d="M6 995h332l256 -657h4l219 657h316l-451 -1157q-31 -80 -59.5 -141.5t-72.5 -103.5t-111.5 -63.5t-178.5 -21.5q-119 0 -229 37l41 252q35 -14 69.5 -22t73.5 -8q51 0 84 11t54.5 32.5t35.5 52.5t31 71l22 58z" />
<glyph unicode="&#x444;" horiz-adv-x="1556" d="M72 498q0 119 43 216t117.5 164.5t176 104.5t216.5 37v432h307v-432q115 0 216 -37t176 -104.5t118 -165t43 -215.5q0 -119 -43 -215.5t-118 -165t-176 -105.5t-216 -37v-440h-307v440q-115 0 -216.5 37t-176 105.5t-117.5 165t-43 215.5zM379 498q0 -113 64.5 -182.5 t181.5 -69.5v504q-117 0 -181.5 -69t-64.5 -183zM932 246q117 0 181.5 69.5t64.5 182.5q0 115 -64.5 183.5t-181.5 68.5v-504z" />
<glyph unicode="&#x445;" horiz-adv-x="1138" d="M-16 0l393 532l-332 463h363l176 -270l170 270h342l-324 -463l383 -532h-362l-218 332l-233 -332h-358z" />
<glyph unicode="&#x446;" horiz-adv-x="1214" d="M109 0v995h307v-749h346v749h305v-749h131v-447h-295v201h-794z" />
<glyph unicode="&#x447;" horiz-adv-x="1089" d="M78 666v329h301v-317q4 -59 38 -83t124 -20h133v420h307v-995h-307v334h-146q-131 0 -218 17.5t-138 57.5t-72.5 103t-21.5 154z" />
<glyph unicode="&#x448;" horiz-adv-x="1572" d="M109 0v995h305v-749h219v749h305v-749h221v749h305v-995h-1355z" />
<glyph unicode="&#x449;" horiz-adv-x="1611" d="M109 0v995h305v-749h219v749h305v-749h221v749h305v-749h131v-447h-295v201h-1191z" />
<glyph unicode="&#x44a;" horiz-adv-x="1220" d="M25 750v245h542v-333h156q125 0 209 -29t133 -75t69.5 -106.5t20.5 -121.5t-19.5 -120.5t-68.5 -106t-132 -75t-212 -28.5h-463v750h-235zM567 233h158q39 0 63.5 10.5t39 25t20.5 31.5t6 32q0 14 -6 31.5t-20.5 32t-39 24.5t-63.5 10h-158v-197z" />
<glyph unicode="&#x44b;" horiz-adv-x="1546" d="M109 0v995h307v-333h155q125 0 209 -29t133.5 -75t70 -106.5t20.5 -121.5t-19.5 -120.5t-69 -106t-133.5 -75t-211 -28.5h-462zM416 233h157q39 0 65 10.5t40 25t19 31.5t5 32q0 14 -5 31.5t-19 32t-40 24.5t-65 10h-157v-197zM1130 0v995h308v-995h-308z" />
<glyph unicode="&#x44c;" horiz-adv-x="1069" d="M109 0v995h307v-333h155q125 0 209 -29t133.5 -75t70 -106.5t20.5 -121.5t-19.5 -120.5t-69 -106t-133.5 -75t-211 -28.5h-462zM416 233h157q39 0 65 10.5t40 25t19 31.5t5 32q0 14 -5 31.5t-19 32t-40 24.5t-65 10h-157v-197z" />
<glyph unicode="&#x44d;" horiz-adv-x="995" d="M16 109l191 200q45 -43 89 -59.5t87 -16.5q74 0 133 44.5t84 117.5h-311v209h311q-25 72 -81 115t-130 43q-43 0 -89 -16.5t-93 -57.5l-191 199q72 74 170.5 103.5t184.5 29.5q115 0 216 -37t176 -104.5t118 -165t43 -215.5q0 -119 -43 -215.5t-118 -165t-176.5 -105.5 t-215.5 -37q-86 0 -184.5 30t-170.5 104z" />
<glyph unicode="&#x44e;" horiz-adv-x="1703" d="M109 0v995h307v-368h125q20 90 70.5 162.5t121 124t159.5 79t187 27.5q115 0 216.5 -37t176 -104.5t117.5 -165t43 -215.5q0 -119 -43 -215.5t-117.5 -165t-176 -105.5t-216.5 -37q-102 0 -192 29t-162 81t-121 128t-67 172h-121v-385h-307zM834 498q0 -113 65.5 -182.5 t179.5 -69.5q117 0 181.5 69.5t64.5 182.5q0 115 -64.5 183.5t-181.5 68.5q-115 0 -180 -68.5t-65 -183.5z" />
<glyph unicode="&#x44f;" horiz-adv-x="1052" d="M10 0l262 408q-100 31 -150 102.5t-50 169.5q0 90 33.5 150.5t91 97.5t134.5 52t163 15h450v-995h-301v373h-80q-49 -92 -100 -186.5t-103 -186.5h-350zM379 682q0 -35 14.5 -53.5t36 -26.5t48 -10t50.5 -2h115v188h-131q-25 0 -48.5 -3t-42 -13t-30.5 -28.5t-12 -51.5z " />
<glyph unicode="&#x451;" d="M78 498q0 119 43 216t117.5 164.5t176 104.5t216.5 37q106 0 193 -37t147.5 -104.5t93.5 -165t33 -215.5v-97h-713q16 -88 79.5 -140t151.5 -52q76 0 128.5 33.5t91.5 87.5l215 -158q-76 -96 -187.5 -146.5t-232.5 -50.5q-115 0 -216.5 37t-176 105.5t-117.5 165 t-43 215.5zM203 1319q0 33 13 63.5t35.5 53t52.5 37t65 14.5q72 0 125 -47t53 -121t-49 -125t-125 -51q-72 0 -121 53t-49 123zM385 610h406q4 78 -50.5 133.5t-138.5 55.5q-49 0 -89 -16.5t-67.5 -42t-43 -59.5t-17.5 -71zM629 1319q0 33 13 63.5t35.5 53t52.5 37t65 14.5 q72 0 125 -47t53 -121t-49 -125t-125 -51q-72 0 -121 53t-49 123z" />
<glyph unicode="&#x452;" horiz-adv-x="1302" d="M0 1143v248h236v157h307v-157h473v-248h-473v-283h4q10 29 33.5 57.5t58.5 51t82 37t104 14.5q117 0 188.5 -36t111.5 -99.5t54.5 -149.5t14.5 -186v-574q0 -96 -18.5 -172.5t-61.5 -131t-113.5 -84t-175.5 -29.5h-108v270h61q39 0 61.5 20.5t33 51t12.5 65.5t2 64v458 q0 43 -3 89.5t-18.5 85t-47.5 63.5t-91 25t-95 -21.5t-56.5 -56.5t-26.5 -81t-6 -95v-496h-307v1143h-236z" />
<glyph unicode="&#x453;" horiz-adv-x="888" d="M109 0v995h755v-245h-448v-750h-307zM233 1155l207 295h418l-354 -295h-271z" />
<glyph unicode="&#x454;" horiz-adv-x="995" d="M72 498q0 119 43 216t117.5 164.5t176 104.5t216.5 37q92 0 186 -29.5t168 -103.5l-191 -199q-47 41 -93 57.5t-89 16.5q-74 0 -130 -43t-81 -115h312v-209h-312q25 -74 84.5 -118t132.5 -44q43 0 87 16.5t89 59.5l191 -200q-74 -74 -168 -104t-186 -30q-115 0 -216.5 37 t-176 105.5t-117.5 165t-43 215.5z" />
<glyph unicode="&#x455;" horiz-adv-x="948" d="M35 111l186 206q43 -53 95.5 -80.5t121.5 -27.5q53 0 96.5 15.5t43.5 56.5q0 39 -38 58t-96.5 32.5t-125 29t-125 46t-96.5 87t-38 150.5q0 88 36 151.5t94.5 104.5t134 60.5t153.5 19.5q100 0 198.5 -27.5t170.5 -103.5l-189 -187q-68 84 -178 84q-39 0 -75.5 -19 t-36.5 -62q0 -37 37.5 -54.5t96 -31t125 -29t125 -48t96.5 -89t38 -150.5q0 -96 -41 -158.5t-107.5 -100.5t-148.5 -53.5t-162 -15.5q-104 0 -209.5 30t-181.5 106z" />
<glyph unicode="&#x456;" horiz-adv-x="532" d="M88 1309q0 74 52.5 126t125.5 52q74 0 126 -52.5t52 -125.5q0 -76 -52 -127.5t-126 -51.5t-126 51.5t-52 127.5zM113 0v995h307v-995h-307z" />
<glyph unicode="&#x457;" horiz-adv-x="532" d="M-119 1319q0 33 13.5 63.5t36 53t52 37t64.5 14.5q72 0 125 -47t53 -121t-49 -125t-125 -51q-37 0 -67.5 14t-53 39t-36 56.5t-13.5 66.5zM113 0v995h307v-995h-307zM307 1319q0 33 13.5 63.5t36 53t52 37t64.5 14.5q72 0 125 -47t53 -121t-49 -125t-125 -51 q-37 0 -67.5 14t-53 39t-36 56.5t-13.5 66.5z" />
<glyph unicode="&#x458;" horiz-adv-x="532" d="M-92 -475l16 272q37 -18 80 -18q39 0 61.5 20.5t33 51t12.5 65.5t2 64v1015h307v-1069q0 -96 -18.5 -173t-61.5 -131t-113.5 -84t-175.5 -30q-35 0 -71.5 3.5t-71.5 13.5zM88 1309q0 74 52.5 126t125.5 52q74 0 126 -52.5t52 -125.5q0 -76 -52 -127.5t-126 -51.5 t-126 51.5t-52 127.5z" />
<glyph unicode="&#x459;" horiz-adv-x="1757" d="M-31 0l805 995h330v-333h156q125 0 208.5 -29t133 -75t70 -106.5t20.5 -121.5t-19.5 -120.5t-69 -106t-133.5 -75t-210 -28.5h-463h2l-2 584q-57 -70 -116.5 -144.5t-119 -149.5t-118 -148.5t-113.5 -141.5h-361zM1104 233h158q39 0 64.5 10.5t39.5 25t19.5 31.5t5.5 32 q0 14 -5.5 31.5t-19.5 32t-40 24.5t-64 10h-158v-197z" />
<glyph unicode="&#x45a;" horiz-adv-x="1722" d="M109 0v995h307v-333h346v333h307v-333h156q125 0 209 -29t133 -75t69.5 -106.5t20.5 -121.5t-19.5 -120.5t-68.5 -106t-132 -75t-212 -28.5h-463v424h-346v-424h-307zM1069 233h158q39 0 64.5 10.5t40 25t19.5 31.5t5 32q0 14 -5 31.5t-19.5 32t-40 24.5t-64.5 10h-158 v-197z" />
<glyph unicode="&#x45b;" horiz-adv-x="1302" d="M0 1143v248h236v157h307v-157h473v-248h-473v-283h4q10 29 33.5 57.5t58.5 51t82 37t104 14.5q117 0 188.5 -36t111.5 -99.5t54.5 -149.5t14.5 -186v-549h-307v487q0 43 -3 89.5t-18.5 85t-47.5 63.5t-91 25t-95 -21.5t-56.5 -56.5t-26.5 -81t-6 -95v-496h-307v1143h-236 z" />
<glyph unicode="&#x45c;" horiz-adv-x="1169" d="M109 0v995h307v-354q84 84 166 178t163 176h385l-446 -467q123 -123 244 -264t239 -264h-405l-346 397v-397h-307zM340 1155l207 295h418l-355 -295h-270z" />
<glyph unicode="&#x45e;" horiz-adv-x="1138" d="M6 995h332l256 -657h4l219 657h316l-451 -1157q-31 -80 -59.5 -141.5t-72.5 -103.5t-111.5 -63.5t-178.5 -21.5q-119 0 -229 37l41 252q35 -14 69.5 -22t73.5 -8q51 0 84 11t54.5 32.5t35.5 52.5t31 71l22 58zM188 1450h164q6 -31 27.5 -49.5t52.5 -29.5t65.5 -15 t67.5 -4q80 0 135.5 15t79.5 83h164q-8 -78 -41 -134t-84 -92t-115.5 -52.5t-136.5 -16.5q-74 0 -140.5 15.5t-116.5 51t-82.5 92t-39.5 136.5z" />
<glyph unicode="&#x45f;" d="M109 0v995h307v-749h346v749h305v-995h-332v-201h-295v201h-331z" />
<glyph unicode="&#x490;" horiz-adv-x="1105" d="M147 0v1452h621v207h324v-492h-627v-1167h-318z" />
<glyph unicode="&#x491;" horiz-adv-x="894" d="M109 0v995h466v160h295v-405h-454v-750h-307z" />
<glyph unicode="&#x1e80;" horiz-adv-x="2048" d="M-4 1450h348l231 -930h5l303 930h297l301 -954h4l244 954h323l-424 -1450h-285l-319 1004h-4l-320 -1004h-274zM664 1845h321l197 -291h-203z" />
<glyph unicode="&#x1e81;" horiz-adv-x="1705" d="M-10 995h327l203 -624h4l170 624h336l184 -624h5l186 624h311l-354 -995h-303l-207 662h-4l-184 -662h-310zM512 1446h322l196 -291h-203z" />
<glyph unicode="&#x1e82;" horiz-adv-x="2048" d="M-4 1450h348l231 -930h5l303 930h297l301 -954h4l244 954h323l-424 -1450h-285l-319 1004h-4l-320 -1004h-274zM885 1556l196 291h322l-316 -291h-202z" />
<glyph unicode="&#x1e83;" horiz-adv-x="1705" d="M-10 995h327l203 -624h4l170 624h336l184 -624h5l186 624h311l-354 -995h-303l-207 662h-4l-184 -662h-310zM698 1155l197 291h322l-316 -291h-203z" />
<glyph unicode="&#x1e84;" horiz-adv-x="2048" d="M-4 1450h348l231 -930h5l303 930h297l301 -954h4l244 954h323l-424 -1450h-285l-319 1004h-4l-320 -1004h-274zM635 1718q0 33 13.5 63.5t36 53.5t52 37t64.5 14q72 0 125 -47t53 -121t-49 -125t-125 -51q-37 0 -67.5 14.5t-53 39t-36 56t-13.5 66.5zM1061 1718 q0 33 13 63.5t36 53.5t52.5 37t64.5 14q72 0 125 -47t53 -121t-49 -125t-125 -51q-37 0 -67.5 14.5t-53.5 39t-36 56t-13 66.5z" />
<glyph unicode="&#x1e85;" horiz-adv-x="1705" d="M-10 995h327l203 -624h4l170 624h336l184 -624h5l186 624h311l-354 -995h-303l-207 662h-4l-184 -662h-310zM469 1319q0 33 13.5 63.5t36 53t52 37t64.5 14.5q72 0 125 -47t53 -121t-49 -125t-125 -51q-37 0 -67.5 14t-53 39t-36 56.5t-13.5 66.5zM895 1319 q0 33 13.5 63.5t36 53t52 37t64.5 14.5q72 0 125 -47t53 -121t-49 -125t-125 -51q-37 0 -67.5 14t-53 39t-36 56.5t-13.5 66.5z" />
<glyph unicode="&#x1ea0;" horiz-adv-x="1517" d="M-2 0l627 1450h264l631 -1450h-361l-125 307h-563l-121 -307h-352zM571 578h355l-178 450zM578 -274q0 33 13 63.5t35.5 53t52.5 37t64 14.5q72 0 125.5 -47.5t53.5 -120.5q0 -74 -49 -125.5t-125 -51.5q-37 0 -68 14.5t-53.5 39t-35.5 56.5t-13 67z" />
<glyph unicode="&#x1ea1;" horiz-adv-x="1099" d="M59 283q0 86 32 145t86 98t124 60.5t144.5 32t149.5 12.5t138 2q0 82 -58.5 130t-137.5 48q-76 0 -138.5 -31.5t-111.5 -87.5l-164 168q86 80 200.5 120t237.5 40q135 0 222 -34t139.5 -99.5t73 -160.5t20.5 -220v-506h-283v125h-4q-51 -80 -136 -115t-179 -35 q-70 0 -134.5 19.5t-113.5 58.5t-78 96.5t-29 133.5zM354 293q0 -55 47.5 -82t98.5 -27q45 0 87 12.5t74.5 35t52 57.5t19.5 82v65h-76q-35 0 -87 -3t-100 -17.5t-82 -43t-34 -79.5zM395 -274q0 33 13.5 63.5t36 53t52 37t64.5 14.5q72 0 125 -47.5t53 -120.5 q0 -74 -49 -125.5t-125 -51.5q-37 0 -67.5 14.5t-53 39t-36 56.5t-13.5 67z" />
<glyph unicode="&#x1ea2;" horiz-adv-x="1517" d="M-2 0l627 1450h264l631 -1450h-361l-125 307h-563l-121 -307h-352zM571 578h355l-178 450zM596 1866v137q18 6 55 12t78 6q100 0 158.5 -45t74 -106.5t-13 -125t-104.5 -99.5h-6v-109h-179v168q47 16 75 45t28 72q0 29 -21.5 46t-56.5 17q-29 0 -47.5 -4t-34.5 -12 q-2 -2 -6 -2z" />
<glyph unicode="&#x1ea3;" horiz-adv-x="1099" d="M59 283q0 86 32 145t86 98t124 60.5t144.5 32t149.5 12.5t138 2q0 82 -58.5 130t-137.5 48q-76 0 -138.5 -31.5t-111.5 -87.5l-164 168q86 80 200.5 120t237.5 40q135 0 222 -34t139.5 -99.5t73 -160.5t20.5 -220v-506h-283v125h-4q-51 -80 -136 -115t-179 -35 q-70 0 -134.5 19.5t-113.5 58.5t-78 96.5t-29 133.5zM354 293q0 -55 47.5 -82t98.5 -27q45 0 87 12.5t74.5 35t52 57.5t19.5 82v65h-76q-35 0 -87 -3t-100 -17.5t-82 -43t-34 -79.5zM401 1454v137q18 6 55.5 12.5t78.5 6.5q100 0 158.5 -45t73.5 -106.5t-13.5 -125 t-104.5 -100.5h-6v-109h-178v168q47 16 74.5 45t27.5 72q0 29 -21.5 46.5t-56.5 17.5q-29 0 -47 -4.5t-34 -12.5q-2 -2 -7 -2z" />
<glyph unicode="&#x1ea4;" horiz-adv-x="1517" d="M-2 0l627 1450h264l631 -1450h-361l-125 307h-563l-121 -307h-352zM281 1554l194 263h238l192 -263h-217l-102 142l-105 -142h-200zM571 578h355l-178 450zM862 1665l150 238h258l-242 -238h-166z" />
<glyph unicode="&#x1ea5;" horiz-adv-x="1099" d="M59 283q0 86 32 145t86 98t124 60.5t144.5 32t149.5 12.5t138 2q0 82 -58.5 130t-137.5 48q-76 0 -138.5 -31.5t-111.5 -87.5l-164 168q86 80 200.5 120t237.5 40q135 0 222 -34t139.5 -99.5t73 -160.5t20.5 -220v-506h-283v125h-4q-51 -80 -136 -115t-179 -35 q-70 0 -134.5 19.5t-113.5 58.5t-78 96.5t-29 133.5zM63 1155l195 262h238l192 -262h-217l-102 141l-105 -141h-201zM354 293q0 -55 47.5 -82t98.5 -27q45 0 87 12.5t74.5 35t52 57.5t19.5 82v65h-76q-35 0 -87 -3t-100 -17.5t-82 -43t-34 -79.5zM645 1266l150 237h258 l-242 -237h-166z" />
<glyph unicode="&#x1ea6;" horiz-adv-x="1517" d="M-2 0l627 1450h264l631 -1450h-361l-125 307h-563l-121 -307h-352zM262 1903h258l150 -238h-166zM571 578h355l-178 450zM627 1554l192 263h238l194 -263h-200l-105 142l-102 -142h-217z" />
<glyph unicode="&#x1ea7;" horiz-adv-x="1099" d="M49 1503h258l150 -237h-166zM59 283q0 86 32 145t86 98t124 60.5t144.5 32t149.5 12.5t138 2q0 82 -58.5 130t-137.5 48q-76 0 -138.5 -31.5t-111.5 -87.5l-164 168q86 80 200.5 120t237.5 40q135 0 222 -34t139.5 -99.5t73 -160.5t20.5 -220v-506h-283v125h-4 q-51 -80 -136 -115t-179 -35q-70 0 -134.5 19.5t-113.5 58.5t-78 96.5t-29 133.5zM354 293q0 -55 47.5 -82t98.5 -27q45 0 87 12.5t74.5 35t52 57.5t19.5 82v65h-76q-35 0 -87 -3t-100 -17.5t-82 -43t-34 -79.5zM414 1155l192 262h238l194 -262h-200l-105 141l-102 -141 h-217z" />
<glyph unicode="&#x1ea8;" horiz-adv-x="1517" d="M-2 0l627 1450h264l631 -1450h-361l-125 307h-563l-121 -307h-352zM233 1554l195 263h238l192 -263h-217l-102 142l-105 -142h-201zM571 578h355l-178 450zM836 1812v127q18 6 52 13.5t70 7.5q51 0 91.5 -14.5t66 -39t38.5 -56t13 -64.5q0 -47 -26.5 -92t-83.5 -74l2 -86 h-168v137q41 14 63.5 36t22.5 62q0 35 -20.5 50.5t-47.5 15.5q-20 0 -39.5 -6t-33.5 -17z" />
<glyph unicode="&#x1ea9;" horiz-adv-x="1132" d="M59 283q0 86 32 145t86 98t124 60.5t144.5 32t149.5 12.5t138 2q0 82 -58.5 130t-137.5 48q-76 0 -138.5 -31.5t-111.5 -87.5l-164 168q86 80 200.5 120t237.5 40q135 0 222 -34t139.5 -99.5t73 -160.5t20.5 -220v-506h-283v125h-4q-51 -80 -136 -115t-179 -35 q-70 0 -134.5 19.5t-113.5 58.5t-78 96.5t-29 133.5zM115 1155l194 262h238l192 -262h-217l-102 141l-105 -141h-200zM354 293q0 -55 47.5 -82t98.5 -27q45 0 87 12.5t74.5 35t52 57.5t19.5 82v65h-76q-35 0 -87 -3t-100 -17.5t-82 -43t-34 -79.5zM717 1413v127 q18 6 52 13.5t71 7.5q51 0 91 -14.5t65.5 -39t39 -56.5t13.5 -65q0 -47 -27 -92t-84 -73l2 -86h-168v137q41 14 63.5 35.5t22.5 62.5q0 35 -20.5 50.5t-46.5 15.5q-20 0 -40 -6.5t-34 -16.5z" />
<glyph unicode="&#x1eaa;" horiz-adv-x="1517" d="M-2 0l627 1450h264l631 -1450h-361l-125 307h-563l-121 -307h-352zM68 1554l194 263h238l192 -263h-217l-102 142l-105 -142h-200zM571 578h355l-178 450zM717 1554q4 49 19.5 96.5t41 84.5t60 60.5t77.5 23.5q27 0 51.5 -8.5t71.5 -30.5q29 -14 57.5 -25.5t53.5 -11.5 q31 0 48 15.5t28 60.5h116q-8 -47 -19 -90t-31.5 -77t-54.5 -56.5t-85 -24.5q-33 0 -58.5 6t-78.5 31q-43 16 -66.5 26.5t-50.5 10.5q-31 0 -48.5 -25t-27.5 -66h-104z" />
<glyph unicode="&#x1eab;" horiz-adv-x="1099" d="M59 283q0 86 32 145t86 98t124 60.5t144.5 32t149.5 12.5t138 2q0 82 -58.5 130t-137.5 48q-76 0 -138.5 -31.5t-111.5 -87.5l-164 168q86 80 200.5 120t237.5 40q135 0 222 -34t139.5 -99.5t73 -160.5t20.5 -220v-506h-283v125h-4q-51 -80 -136 -115t-179 -35 q-70 0 -134.5 19.5t-113.5 58.5t-78 96.5t-29 133.5zM248 1153l194 262h238l192 -262h-217l-102 141l-104 -141h-201zM268 1442q4 43 19.5 86t41 76.5t60.5 55t78 21.5q27 0 51.5 -7t71.5 -27q29 -14 57.5 -23.5t52.5 -9.5q31 0 48.5 13t27.5 54h117q-8 -41 -19.5 -80.5 t-32 -70.5t-54 -50.5t-85.5 -21.5q-33 0 -59.5 5t-77.5 28q-43 14 -66.5 23.5t-49.5 9.5q-31 0 -48.5 -21.5t-27.5 -60.5h-105zM354 293q0 -55 47.5 -82t98.5 -27q45 0 87 12.5t74.5 35t52 57.5t19.5 82v65h-76q-35 0 -87 -3t-100 -17.5t-82 -43t-34 -79.5z" />
<glyph unicode="&#x1eac;" horiz-adv-x="1517" d="M-2 0l627 1450h264l631 -1450h-361l-125 307h-563l-121 -307h-352zM403 1556l228 291h266l225 -291h-239l-127 166l-131 -166h-222zM571 578h355l-178 450zM578 -274q0 33 13 63.5t35.5 53t52.5 37t64 14.5q72 0 125.5 -47.5t53.5 -120.5q0 -74 -49 -125.5t-125 -51.5 q-37 0 -68 14.5t-53.5 39t-35.5 56.5t-13 67z" />
<glyph unicode="&#x1ead;" horiz-adv-x="1099" d="M59 283q0 86 32 145t86 98t124 60.5t144.5 32t149.5 12.5t138 2q0 82 -58.5 130t-137.5 48q-76 0 -138.5 -31.5t-111.5 -87.5l-164 168q86 80 200.5 120t237.5 40q135 0 222 -34t139.5 -99.5t73 -160.5t20.5 -220v-506h-283v125h-4q-51 -80 -136 -115t-179 -35 q-70 0 -134.5 19.5t-113.5 58.5t-78 96.5t-29 133.5zM215 1155l227 291h267l225 -291h-240l-127 166l-131 -166h-221zM354 293q0 -55 47.5 -82t98.5 -27q45 0 87 12.5t74.5 35t52 57.5t19.5 82v65h-76q-35 0 -87 -3t-100 -17.5t-82 -43t-34 -79.5zM395 -274q0 33 13.5 63.5 t36 53t52 37t64.5 14.5q72 0 125 -47.5t53 -120.5q0 -74 -49 -125.5t-125 -51.5q-37 0 -67.5 14.5t-53 39t-36 56.5t-13.5 67z" />
<glyph unicode="&#x1eae;" horiz-adv-x="1517" d="M-2 0l627 1450h264l631 -1450h-361l-125 307h-563l-121 -307h-352zM422 1829h141q8 -37 27.5 -60.5t46.5 -39t57.5 -21.5t61.5 -6q88 0 141 29.5t74 97.5h139q-18 -147 -115.5 -212t-246.5 -65q-303 0 -326 277zM571 578h355l-178 450zM643 1792l141 231h281l-236 -231 h-186z" />
<glyph unicode="&#x1eaf;" horiz-adv-x="1099" d="M59 283q0 86 32 145t86 98t124 60.5t144.5 32t149.5 12.5t138 2q0 82 -58.5 130t-137.5 48q-76 0 -138.5 -31.5t-111.5 -87.5l-164 168q86 80 200.5 120t237.5 40q135 0 222 -34t139.5 -99.5t73 -160.5t20.5 -220v-506h-283v125h-4q-51 -80 -136 -115t-179 -35 q-70 0 -134.5 19.5t-113.5 58.5t-78 96.5t-29 133.5zM236 1432h141q8 -37 27.5 -60.5t46 -39t57.5 -21.5t61 -6q88 0 141.5 29.5t73.5 97.5h140q-18 -147 -115.5 -212t-247.5 -65q-303 0 -325 277zM354 293q0 -55 47.5 -82t98.5 -27q45 0 87 12.5t74.5 35t52 57.5t19.5 82 v65h-76q-35 0 -87 -3t-100 -17.5t-82 -43t-34 -79.5zM457 1395l141 231h281l-236 -231h-186z" />
<glyph unicode="&#x1eb0;" horiz-adv-x="1517" d="M-2 0l627 1450h264l631 -1450h-361l-125 307h-563l-121 -307h-352zM420 1829h141q8 -37 27.5 -60.5t46.5 -39t57.5 -21.5t61.5 -6q88 0 141 29.5t74 97.5h139q-18 -147 -115.5 -212t-247.5 -65q-303 0 -325 277zM469 2023h281l141 -231h-186zM571 578h355l-178 450z" />
<glyph unicode="&#x1eb1;" horiz-adv-x="1099" d="M59 283q0 86 32 145t86 98t124 60.5t144.5 32t149.5 12.5t138 2q0 82 -58.5 130t-137.5 48q-76 0 -138.5 -31.5t-111.5 -87.5l-164 168q86 80 200.5 120t237.5 40q135 0 222 -34t139.5 -99.5t73 -160.5t20.5 -220v-506h-283v125h-4q-51 -80 -136 -115t-179 -35 q-70 0 -134.5 19.5t-113.5 58.5t-78 96.5t-29 133.5zM244 1430h141q8 -37 27.5 -60.5t46 -39t57.5 -21.5t62 -6q88 0 141 29.5t74 97.5h139q-18 -147 -115.5 -212t-247.5 -65q-303 0 -325 277zM293 1624h280l142 -231h-187zM354 293q0 -55 47.5 -82t98.5 -27q45 0 87 12.5 t74.5 35t52 57.5t19.5 82v65h-76q-35 0 -87 -3t-100 -17.5t-82 -43t-34 -79.5z" />
<glyph unicode="&#x1eb2;" horiz-adv-x="1517" d="M-2 0l627 1450h264l631 -1450h-361l-125 307h-563l-121 -307h-352zM426 1829h141q8 -37 27.5 -60.5t46.5 -39t57.5 -21.5t61.5 -6q88 0 141 29.5t74 97.5h139q-18 -147 -115.5 -212t-246.5 -65q-303 0 -326 277zM571 578h355l-178 450zM621 1985v120q16 6 48.5 12.5 t67.5 6.5q100 0 149.5 -51.5t49.5 -112.5q0 -45 -25.5 -88t-79.5 -70l3 -45h-160v92q37 14 59.5 35t22.5 60q0 35 -20.5 48t-45.5 13q-39 0 -69 -20z" />
<glyph unicode="&#x1eb3;" horiz-adv-x="1099" d="M59 283q0 86 32 145t86 98t124 60.5t144.5 32t149.5 12.5t138 2q0 82 -58.5 130t-137.5 48q-76 0 -138.5 -31.5t-111.5 -87.5l-164 168q86 80 200.5 120t237.5 40q135 0 222 -34t139.5 -99.5t73 -160.5t20.5 -220v-506h-283v125h-4q-51 -80 -136 -115t-179 -35 q-70 0 -134.5 19.5t-113.5 58.5t-78 96.5t-29 133.5zM244 1432h141q8 -37 27.5 -60.5t46 -39t57.5 -21.5t62 -6q88 0 141 29.5t74 97.5h139q-18 -147 -115.5 -212t-247.5 -65q-303 0 -325 277zM354 293q0 -55 47.5 -82t98.5 -27q45 0 87 12.5t74.5 35t52 57.5t19.5 82v65 h-76q-35 0 -87 -3t-100 -17.5t-82 -43t-34 -79.5zM438 1587v121q16 6 49 12t68 6q100 0 149.5 -51t49.5 -112q0 -45 -26 -88t-79 -70l2 -45h-159v92q37 14 59 34.5t22 59.5q0 35 -20.5 48.5t-44.5 13.5q-39 0 -70 -21z" />
<glyph unicode="&#x1eb4;" horiz-adv-x="1517" d="M-2 0l627 1450h264l631 -1450h-361l-125 307h-563l-121 -307h-352zM422 1827h141q8 -37 27.5 -60.5t46.5 -39t57.5 -21.5t61.5 -6q88 0 141 29.5t74 97.5h139q-18 -147 -115.5 -212t-246.5 -65q-303 0 -326 277zM459 1860q4 43 19.5 86t41 76.5t60 55t77.5 21.5 q27 0 51.5 -7t71.5 -28q29 -14 57.5 -23t53.5 -9q31 0 48 13t28 54h116q-8 -41 -19 -81t-31.5 -70.5t-54.5 -50t-85 -21.5q-33 0 -59.5 5t-77.5 28q-43 14 -66.5 23.5t-50.5 9.5q-31 0 -48.5 -22t-27.5 -60h-104zM571 578h355l-178 450z" />
<glyph unicode="&#x1eb5;" horiz-adv-x="1099" d="M59 283q0 86 32 145t86 98t124 60.5t144.5 32t149.5 12.5t138 2q0 82 -58.5 130t-137.5 48q-76 0 -138.5 -31.5t-111.5 -87.5l-164 168q86 80 200.5 120t237.5 40q135 0 222 -34t139.5 -99.5t73 -160.5t20.5 -220v-506h-283v125h-4q-51 -80 -136 -115t-179 -35 q-70 0 -134.5 19.5t-113.5 58.5t-78 96.5t-29 133.5zM242 1432h141q8 -37 27.5 -60.5t46 -39t57.5 -21.5t61 -6q88 0 141.5 29.5t74.5 97.5h139q-18 -147 -115.5 -212t-247.5 -65q-303 0 -325 277zM279 1464q4 43 19 86t41 77t60.5 55.5t77.5 21.5q27 0 51.5 -7t71.5 -28 q29 -14 57.5 -23.5t53.5 -9.5q31 0 48 13.5t27 54.5h117q-8 -41 -19.5 -81t-32 -70.5t-54 -50t-84.5 -21.5q-33 0 -59.5 5t-78.5 27q-43 14 -66.5 23.5t-49.5 9.5q-31 0 -48.5 -21.5t-27.5 -60.5h-104zM354 293q0 -55 47.5 -82t98.5 -27q45 0 87 12.5t74.5 35t52 57.5 t19.5 82v65h-76q-35 0 -87 -3t-100 -17.5t-82 -43t-34 -79.5z" />
<glyph unicode="&#x1eb6;" horiz-adv-x="1517" d="M-2 0l627 1450h264l631 -1450h-361l-125 307h-563l-121 -307h-352zM418 1853h133q6 -41 26.5 -69.5t50 -45t62.5 -23.5t64 -7q92 0 149.5 34t75.5 111h129q-20 -160 -115.5 -229.5t-249.5 -69.5q-147 0 -230 76t-95 223zM571 578h355l-178 450zM578 -274q0 33 13 63.5 t35.5 53t52.5 37t64 14.5q72 0 125.5 -47.5t53.5 -120.5q0 -74 -49 -125.5t-125 -51.5q-37 0 -68 14.5t-53.5 39t-35.5 56.5t-13 67z" />
<glyph unicode="&#x1eb7;" d="M59 283q0 86 32 145t86 98t124 60.5t144.5 32t149.5 12.5t138 2q0 82 -58.5 130t-137.5 48q-76 0 -138.5 -31.5t-111.5 -87.5l-164 168q86 80 200.5 120t237.5 40q135 0 222 -34t139.5 -99.5t73 -160.5t20.5 -220v-506h-283v125h-4q-51 -80 -136 -115t-179 -35 q-70 0 -134.5 19.5t-113.5 58.5t-78 96.5t-29 133.5zM227 1454h133q6 -41 27 -69.5t50.5 -45t62 -23.5t63.5 -7q92 0 149.5 33.5t75.5 111.5h130q-20 -160 -115.5 -229.5t-249.5 -69.5q-147 0 -230 76t-96 223zM354 293q0 -55 47.5 -82t98.5 -27q45 0 87 12.5t74.5 35 t52 57.5t19.5 82v65h-76q-35 0 -87 -3t-100 -17.5t-82 -43t-34 -79.5zM387 -274q0 33 13.5 63.5t36 53t52 37t64.5 14.5q72 0 125 -47.5t53 -120.5q0 -74 -49 -125.5t-125 -51.5q-37 0 -67.5 14.5t-53 39t-36 56.5t-13.5 67z" />
<glyph unicode="&#x1eb8;" horiz-adv-x="1290" d="M160 0v1450h985v-295h-666v-270h629v-295h-629v-295h703v-295h-1022zM514 -274q0 33 13.5 63.5t36 53t52 37t64.5 14.5q72 0 125 -47.5t53 -120.5q0 -74 -49 -125.5t-125 -51.5q-37 0 -67.5 14.5t-53 39t-36 56.5t-13.5 67z" />
<glyph unicode="&#x1eb9;" d="M78 498q0 119 43 215t117.5 164.5t176 105.5t216.5 37q106 0 193 -37t147.5 -105.5t93.5 -165t33 -214.5v-97h-713q18 -88 79.5 -140t151.5 -52q76 0 128.5 33.5t91.5 87.5l215 -158q-74 -94 -186.5 -145.5t-233.5 -51.5q-115 0 -216.5 37t-176 105.5t-117.5 165 t-43 215.5zM385 610h406q2 78 -51.5 133.5t-137.5 55.5q-51 0 -90 -16.5t-66.5 -42t-43 -59.5t-17.5 -71zM434 -274q0 33 13.5 63.5t36 53t52 37t64.5 14.5q72 0 125 -47.5t53 -120.5q0 -74 -49 -125.5t-125 -51.5q-37 0 -67.5 14.5t-53 39t-36 56.5t-13.5 67z" />
<glyph unicode="&#x1eba;" horiz-adv-x="1290" d="M160 0v1450h985v-295h-666v-270h629v-295h-629v-295h703v-295h-1022zM475 1866v137q18 6 55 12t78 6q100 0 158.5 -45t74 -106.5t-13 -125t-104.5 -99.5h-6v-109h-178v168q47 16 74.5 45t27.5 72q0 29 -21.5 46t-56.5 17q-29 0 -47 -4t-35 -12q-2 -2 -6 -2z" />
<glyph unicode="&#x1ebb;" d="M78 498q0 119 43 215t117.5 164.5t176 105.5t216.5 37q106 0 193 -37t147.5 -105.5t93.5 -165t33 -214.5v-97h-713q18 -88 79.5 -140t151.5 -52q76 0 128.5 33.5t91.5 87.5l215 -158q-74 -94 -186.5 -145.5t-233.5 -51.5q-115 0 -216.5 37t-176 105.5t-117.5 165 t-43 215.5zM385 610h406q2 78 -51.5 133.5t-137.5 55.5q-51 0 -90 -16.5t-66.5 -42t-43 -59.5t-17.5 -71zM449 1460v137q18 6 55 12.5t78 6.5q100 0 158.5 -45t73.5 -106.5t-13.5 -125t-104.5 -100.5h-6v-109h-178v168q47 16 74.5 45t27.5 72q0 29 -21.5 46.5t-55.5 17.5 q-29 0 -47.5 -4.5t-34.5 -12.5q-2 -2 -6 -2z" />
<glyph unicode="&#x1ebc;" horiz-adv-x="1290" d="M160 0v1450h985v-295h-666v-270h629v-295h-629v-295h703v-295h-1022zM299 1554q6 45 23.5 89.5t48 80t72.5 58t96 22.5q31 0 61.5 -7t85.5 -30q35 -12 68.5 -23t64.5 -11q37 0 57.5 15t32.5 56h142q-10 -43 -23.5 -84t-38 -72.5t-64.5 -53t-104 -23.5q-39 0 -70.5 6 t-95.5 29q-51 16 -79.5 25t-59.5 9q-39 0 -60.5 -23.5t-31.5 -62.5h-125z" />
<glyph unicode="&#x1ebd;" d="M78 498q0 119 43 215t117.5 164.5t176 105.5t216.5 37q106 0 193 -37t147.5 -105.5t93.5 -165t33 -214.5v-97h-713q18 -88 79.5 -140t151.5 -52q76 0 128.5 33.5t91.5 87.5l215 -158q-74 -94 -186.5 -145.5t-233.5 -51.5q-115 0 -216.5 37t-176 105.5t-117.5 165 t-43 215.5zM231 1155q6 45 23.5 89t48.5 80t73 58.5t95 22.5q31 0 61.5 -7t85.5 -30q35 -12 69 -23.5t65 -11.5q37 0 57 15.5t33 56.5h141q-10 -43 -23.5 -84t-38 -72.5t-64.5 -53t-103 -24.5q-39 0 -71 6.5t-95 28.5q-51 16 -80 25.5t-59 9.5q-39 0 -60.5 -23.5 t-32.5 -62.5h-125zM385 610h406q2 78 -51.5 133.5t-137.5 55.5q-51 0 -90 -16.5t-66.5 -42t-43 -59.5t-17.5 -71z" />
<glyph unicode="&#x1ebe;" horiz-adv-x="1290" d="M160 0v1450h985v-295h-666v-270h629v-295h-629v-295h703v-295h-1022zM174 1554l195 263h237l193 -263h-217l-103 142l-104 -142h-201zM756 1665l149 238h258l-241 -238h-166z" />
<glyph unicode="&#x1ebf;" d="M78 498q0 119 43 215t117.5 164.5t176 105.5t216.5 37q106 0 193 -37t147.5 -105.5t93.5 -165t33 -214.5v-97h-713q18 -88 79.5 -140t151.5 -52q76 0 128.5 33.5t91.5 87.5l215 -158q-74 -94 -186.5 -145.5t-233.5 -51.5q-115 0 -216.5 37t-176 105.5t-117.5 165 t-43 215.5zM96 1155l195 262h237l193 -262h-217l-103 141l-104 -141h-201zM385 610h406q2 78 -51.5 133.5t-137.5 55.5q-51 0 -90 -16.5t-66.5 -42t-43 -59.5t-17.5 -71zM678 1266l149 237h258l-241 -237h-166z" />
<glyph unicode="&#x1ec0;" horiz-adv-x="1290" d="M131 1903h258l150 -238h-166zM160 0v1450h985v-295h-666v-270h629v-295h-629v-295h703v-295h-1022zM496 1554l192 263h238l194 -263h-200l-105 142l-102 -142h-217z" />
<glyph unicode="&#x1ec1;" d="M78 498q0 119 43 215t117.5 164.5t176 105.5t216.5 37q106 0 193 -37t147.5 -105.5t93.5 -165t33 -214.5v-97h-713q18 -88 79.5 -140t151.5 -52q76 0 128.5 33.5t91.5 87.5l215 -158q-74 -94 -186.5 -145.5t-233.5 -51.5q-115 0 -216.5 37t-176 105.5t-117.5 165 t-43 215.5zM84 1503h258l150 -237h-166zM385 610h406q2 78 -51.5 133.5t-137.5 55.5q-51 0 -90 -16.5t-66.5 -42t-43 -59.5t-17.5 -71zM449 1155l192 262h238l194 -262h-201l-104 141l-102 -141h-217z" />
<glyph unicode="&#x1ec2;" horiz-adv-x="1290" d="M160 0v1450h985v-295h-666v-270h629v-295h-629v-295h703v-295h-1022zM186 1554l195 263h237l193 -263h-217l-102 142l-105 -142h-201zM788 1812v127q18 6 52 13.5t71 7.5q51 0 91 -14.5t66 -39t39 -56t13 -64.5q0 -47 -26.5 -92t-83.5 -74l2 -86h-168v137q41 14 63.5 36 t22.5 62q0 35 -20.5 50.5t-47.5 15.5q-20 0 -39.5 -6t-34.5 -17z" />
<glyph unicode="&#x1ec3;" d="M78 498q0 119 43 215t117.5 164.5t176 105.5t216.5 37q106 0 193 -37t147.5 -105.5t93.5 -165t33 -214.5v-97h-713q18 -88 79.5 -140t151.5 -52q76 0 128.5 33.5t91.5 87.5l215 -158q-74 -94 -186.5 -145.5t-233.5 -51.5q-115 0 -216.5 37t-176 105.5t-117.5 165 t-43 215.5zM115 1155l194 262h238l192 -262h-217l-102 141l-105 -141h-200zM385 610h406q2 78 -51.5 133.5t-137.5 55.5q-51 0 -90 -16.5t-66.5 -42t-43 -59.5t-17.5 -71zM717 1413v127q18 6 52 13.5t71 7.5q51 0 91 -14.5t65.5 -39t39 -56.5t13.5 -65q0 -47 -27 -92 t-84 -73l2 -86h-168v137q41 14 63.5 35.5t22.5 62.5q0 35 -20.5 50.5t-46.5 15.5q-20 0 -40 -6.5t-34 -16.5z" />
<glyph unicode="&#x1ec4;" horiz-adv-x="1290" d="M2 1556l195 263h237l193 -263h-217l-103 142l-104 -142h-201zM160 0v1450h985v-295h-666v-270h629v-295h-629v-295h703v-295h-1022zM651 1556q4 49 19.5 96.5t41 84.5t60.5 60.5t78 23.5q27 0 51.5 -8.5t71.5 -30.5q29 -14 57.5 -25.5t52.5 -11.5q31 0 48.5 15.5 t27.5 60.5h117q-8 -47 -19.5 -90t-32 -77t-54 -56.5t-85.5 -24.5q-33 0 -58.5 6t-78.5 31q-43 16 -66.5 26.5t-50.5 10.5q-31 0 -48 -25t-27 -66h-105z" />
<glyph unicode="&#x1ec5;" d="M78 498q0 119 43 215t117.5 164.5t176 105.5t216.5 37q106 0 193 -37t147.5 -105.5t93.5 -165t33 -214.5v-97h-713q18 -88 79.5 -140t151.5 -52q76 0 128.5 33.5t91.5 87.5l215 -158q-74 -94 -186.5 -145.5t-233.5 -51.5q-115 0 -216.5 37t-176 105.5t-117.5 165 t-43 215.5zM295 1153l194 262h238l193 -262h-218l-102 141l-104 -141h-201zM315 1442q4 43 19.5 86t41 76.5t60.5 55t78 21.5q27 0 51.5 -7t71.5 -27q29 -14 57.5 -23.5t53.5 -9.5q31 0 48 13t27 54h117q-8 -41 -19.5 -80.5t-32 -70.5t-54 -50.5t-84.5 -21.5q-33 0 -59.5 5 t-78.5 28q-43 14 -66.5 23.5t-49.5 9.5q-31 0 -48.5 -21.5t-27.5 -60.5h-105zM385 610h406q2 78 -51.5 133.5t-137.5 55.5q-51 0 -90 -16.5t-66.5 -42t-43 -59.5t-17.5 -71z" />
<glyph unicode="&#x1ec6;" horiz-adv-x="1290" d="M160 0v1450h985v-295h-666v-270h629v-295h-629v-295h703v-295h-1022zM285 1554l227 291h266l226 -291h-240l-127 166l-131 -166h-221zM496 -274q0 33 13 63.5t35.5 53t52.5 37t65 14.5q72 0 125 -47.5t53 -120.5q0 -74 -49 -125.5t-125 -51.5q-37 0 -68 14.5t-53.5 39 t-35.5 56.5t-13 67z" />
<glyph unicode="&#x1ec7;" d="M78 498q0 119 43 215t117.5 164.5t176 105.5t216.5 37q106 0 193 -37t147.5 -105.5t93.5 -165t33 -214.5v-97h-713q18 -88 79.5 -140t151.5 -52q76 0 128.5 33.5t91.5 87.5l215 -158q-74 -94 -186.5 -145.5t-233.5 -51.5q-115 0 -216.5 37t-176 105.5t-117.5 165 t-43 215.5zM252 1155l227 291h266l226 -291h-240l-127 166l-131 -166h-221zM385 610h406q2 78 -51.5 133.5t-137.5 55.5q-51 0 -90 -16.5t-66.5 -42t-43 -59.5t-17.5 -71zM432 -274q0 33 13.5 63.5t36 53t52 37t64.5 14.5q72 0 125 -47.5t53 -120.5q0 -74 -49 -125.5 t-125 -51.5q-37 0 -67.5 14.5t-53 39t-36 56.5t-13.5 67z" />
<glyph unicode="&#x1ec8;" horiz-adv-x="606" d="M143 0v1450h320v-1450h-320zM147 1866v137q18 6 55.5 12t78.5 6q100 0 158.5 -45t73.5 -106.5t-13.5 -125t-104.5 -99.5h-6v-109h-178v168q47 16 74.5 45t27.5 72q0 29 -21.5 46t-55.5 17q-29 0 -47.5 -4t-34.5 -12q-2 -2 -7 -2z" />
<glyph unicode="&#x1ec9;" horiz-adv-x="532" d="M106 1460v137q18 6 55.5 12.5t78.5 6.5q100 0 158.5 -45t73.5 -106.5t-13.5 -125t-104.5 -100.5h-6v-109h-178v168q47 16 74.5 45t27.5 72q0 29 -21.5 46.5t-55.5 17.5q-29 0 -47.5 -4.5t-34.5 -12.5q-2 -2 -7 -2zM113 0v995h307v-995h-307z" />
<glyph unicode="&#x1eca;" horiz-adv-x="606" d="M137 -274q0 33 13.5 63.5t36 53t52 37t64.5 14.5q72 0 125 -47.5t53 -120.5q0 -74 -49 -125.5t-125 -51.5q-37 0 -67.5 14.5t-53 39t-36 56.5t-13.5 67zM143 0v1450h320v-1450h-320z" />
<glyph unicode="&#x1ecb;" horiz-adv-x="532" d="M88 1309q0 74 52.5 126t125.5 52q74 0 126 -52.5t52 -125.5q0 -74 -52 -126.5t-126 -52.5t-126 52.5t-52 126.5zM100 -274q0 33 13.5 63.5t36 53t52 37t64.5 14.5q72 0 125 -47.5t53 -120.5q0 -74 -49 -125.5t-125 -51.5q-37 0 -67.5 14.5t-53 39t-36 56.5t-13.5 67z M113 0v995h307v-995h-307z" />
<glyph unicode="&#x1ecc;" horiz-adv-x="1703" d="M70 725q0 174 58 315.5t162.5 240.5t248 152.5t313.5 53.5t313.5 -53.5t248 -152.5t162.5 -240.5t58 -315.5t-58 -315.5t-162.5 -240.5t-248 -152.5t-313.5 -53.5t-313.5 53.5t-248 152.5t-162.5 240.5t-58 315.5zM401 725q0 -102 32 -187t91.5 -147.5t142.5 -97.5 t185 -35t185 35t142.5 97.5t91.5 147.5t32 187q0 100 -32 186t-91.5 148.5t-142.5 97.5t-185 35t-185 -35t-142.5 -97.5t-91.5 -148.5t-32 -186zM686 -274q0 33 13.5 63.5t36 53t52 37t64.5 14.5q72 0 125 -47.5t53 -120.5q0 -74 -49 -125.5t-125 -51.5q-37 0 -67.5 14.5 t-53 39t-36 56.5t-13.5 67z" />
<glyph unicode="&#x1ecd;" horiz-adv-x="1249" d="M72 498q0 119 43 215t117.5 164.5t176 105.5t216.5 37t216 -37t176 -105.5t118 -165t43 -214.5q0 -119 -43 -215.5t-118 -165t-176.5 -105.5t-215.5 -37q-115 0 -216.5 37t-176 105.5t-117.5 165t-43 215.5zM379 498q0 -113 64.5 -182.5t181.5 -69.5t181 69.5t64 182.5 t-64.5 182.5t-180.5 69.5q-117 0 -181.5 -69.5t-64.5 -182.5zM459 -274q0 33 13 63.5t35.5 53t52.5 37t65 14.5q72 0 125 -47.5t53 -120.5q0 -74 -49 -125.5t-125 -51.5q-37 0 -68 14.5t-53.5 39t-35.5 56.5t-13 67z" />
<glyph unicode="&#x1ece;" horiz-adv-x="1703" d="M70 725q0 174 58 315.5t162.5 240.5t248 152.5t313.5 53.5t313.5 -53.5t248 -152.5t162.5 -240.5t58 -315.5t-58 -315.5t-162.5 -240.5t-248 -152.5t-313.5 -53.5t-313.5 53.5t-248 152.5t-162.5 240.5t-58 315.5zM401 725q0 -102 32 -187t91.5 -147.5t142.5 -97.5 t185 -35t185 35t142.5 97.5t91.5 147.5t32 187q0 100 -32 186t-91.5 148.5t-142.5 97.5t-185 35t-185 -35t-142.5 -97.5t-91.5 -148.5t-32 -186zM696 1866v137q18 6 55 12t78 6q100 0 159 -45t74 -106.5t-13.5 -125t-104.5 -99.5h-6v-89h-178v148q47 16 74.5 45t27.5 72 q0 29 -21.5 46t-56.5 17q-29 0 -47 -4t-35 -12q-2 -2 -6 -2z" />
<glyph unicode="&#x1ecf;" horiz-adv-x="1249" d="M72 498q0 119 43 215t117.5 164.5t176 105.5t216.5 37t216 -37t176 -105.5t118 -165t43 -214.5q0 -119 -43 -215.5t-118 -165t-176.5 -105.5t-215.5 -37q-115 0 -216.5 37t-176 105.5t-117.5 165t-43 215.5zM379 498q0 -113 64.5 -182.5t181.5 -69.5t181 69.5t64 182.5 t-64.5 182.5t-180.5 69.5q-117 0 -181.5 -69.5t-64.5 -182.5zM461 1462v137q18 6 55 12.5t78 6.5q100 0 158.5 -45t74 -106.5t-13.5 -125t-104 -100.5h-7v-108h-178v167q47 16 75 45t28 72q0 29 -21.5 46.5t-56.5 17.5q-29 0 -47.5 -4t-34.5 -13q-2 -2 -6 -2z" />
<glyph unicode="&#x1ed0;" horiz-adv-x="1703" d="M70 725q0 174 58 315.5t162.5 240.5t248 152.5t313.5 53.5t313.5 -53.5t248 -152.5t162.5 -240.5t58 -315.5t-58 -315.5t-162.5 -240.5t-248 -152.5t-313.5 -53.5t-313.5 53.5t-248 152.5t-162.5 240.5t-58 315.5zM401 725q0 -102 32 -187t91.5 -147.5t142.5 -97.5 t185 -35t185 35t142.5 97.5t91.5 147.5t32 187q0 100 -32 186t-91.5 148.5t-142.5 97.5t-185 35t-185 -35t-142.5 -97.5t-91.5 -148.5t-32 -186zM416 1554l194 263h238l192 -263h-217l-102 142l-105 -142h-200zM997 1665l150 238h258l-242 -238h-166z" />
<glyph unicode="&#x1ed1;" horiz-adv-x="1249" d="M72 498q0 119 43 215t117.5 164.5t176 105.5t216.5 37t216 -37t176 -105.5t118 -165t43 -214.5q0 -119 -43 -215.5t-118 -165t-176.5 -105.5t-215.5 -37q-115 0 -216.5 37t-176 105.5t-117.5 165t-43 215.5zM137 1155l195 262h237l193 -262h-217l-103 141l-104 -141h-201 zM379 498q0 -113 64.5 -182.5t181.5 -69.5t181 69.5t64 182.5t-64.5 182.5t-180.5 69.5q-117 0 -181.5 -69.5t-64.5 -182.5zM719 1266l149 237h258l-241 -237h-166z" />
<glyph unicode="&#x1ed2;" horiz-adv-x="1703" d="M70 725q0 174 58 315.5t162.5 240.5t248 152.5t313.5 53.5t313.5 -53.5t248 -152.5t162.5 -240.5t58 -315.5t-58 -315.5t-162.5 -240.5t-248 -152.5t-313.5 -53.5t-313.5 53.5t-248 152.5t-162.5 240.5t-58 315.5zM309 1903h258l150 -238h-166zM401 725q0 -102 32 -187 t91.5 -147.5t142.5 -97.5t185 -35t185 35t142.5 97.5t91.5 147.5t32 187q0 100 -32 186t-91.5 148.5t-142.5 97.5t-185 35t-185 -35t-142.5 -97.5t-91.5 -148.5t-32 -186zM674 1554l192 263h238l194 -263h-200l-105 142l-102 -142h-217z" />
<glyph unicode="&#x1ed3;" horiz-adv-x="1249" d="M72 498q0 119 43 215t117.5 164.5t176 105.5t216.5 37t216 -37t176 -105.5t118 -165t43 -214.5q0 -119 -43 -215.5t-118 -165t-176.5 -105.5t-215.5 -37q-115 0 -216.5 37t-176 105.5t-117.5 165t-43 215.5zM123 1503h258l149 -237h-165zM379 498q0 -113 64.5 -182.5 t181.5 -69.5t181 69.5t64 182.5t-64.5 182.5t-180.5 69.5q-117 0 -181.5 -69.5t-64.5 -182.5zM487 1155l193 262h238l194 -262h-201l-104 141l-102 -141h-218z" />
<glyph unicode="&#x1ed4;" horiz-adv-x="1703" d="M70 725q0 174 58 315.5t162.5 240.5t248 152.5t313.5 53.5t313.5 -53.5t248 -152.5t162.5 -240.5t58 -315.5t-58 -315.5t-162.5 -240.5t-248 -152.5t-313.5 -53.5t-313.5 53.5t-248 152.5t-162.5 240.5t-58 315.5zM285 1554l194 263h238l192 -263h-217l-102 142 l-105 -142h-200zM401 725q0 -102 32 -187t91.5 -147.5t142.5 -97.5t185 -35t185 35t142.5 97.5t91.5 147.5t32 187q0 100 -32 186t-91.5 148.5t-142.5 97.5t-185 35t-185 -35t-142.5 -97.5t-91.5 -148.5t-32 -186zM887 1812v127q18 6 52 13.5t71 7.5q51 0 91 -14.5t65.5 -39 t39 -56t13.5 -64.5q0 -47 -27 -92t-84 -74l2 -86h-168v137q41 14 63.5 36t22.5 62q0 35 -20.5 50.5t-46.5 15.5q-20 0 -40 -6t-34 -17z" />
<glyph unicode="&#x1ed5;" horiz-adv-x="1249" d="M72 498q0 119 43 215t117.5 164.5t176 105.5t216.5 37t216 -37t176 -105.5t118 -165t43 -214.5q0 -119 -43 -215.5t-118 -165t-176.5 -105.5t-215.5 -37q-115 0 -216.5 37t-176 105.5t-117.5 165t-43 215.5zM186 1155l195 262h237l193 -262h-217l-102 141l-105 -141h-201 zM379 498q0 -113 64.5 -182.5t181.5 -69.5t181 69.5t64 182.5t-64.5 182.5t-180.5 69.5q-117 0 -181.5 -69.5t-64.5 -182.5zM788 1413v127q18 6 52 13.5t71 7.5q51 0 91 -14.5t66 -39t39 -56.5t13 -65q0 -47 -26.5 -92t-83.5 -73l2 -86h-168v137q41 14 63.5 35.5t22.5 62.5 q0 35 -20.5 50.5t-47.5 15.5q-20 0 -39.5 -6.5t-34.5 -16.5z" />
<glyph unicode="&#x1ed6;" horiz-adv-x="1703" d="M70 725q0 174 58 315.5t162.5 240.5t248 152.5t313.5 53.5t313.5 -53.5t248 -152.5t162.5 -240.5t58 -315.5t-58 -315.5t-162.5 -240.5t-248 -152.5t-313.5 -53.5t-313.5 53.5t-248 152.5t-162.5 240.5t-58 315.5zM217 1554l195 263h237l193 -263h-217l-103 142 l-104 -142h-201zM401 725q0 -102 32 -187t91.5 -147.5t142.5 -97.5t185 -35t185 35t142.5 97.5t91.5 147.5t32 187q0 100 -32 186t-91.5 148.5t-142.5 97.5t-185 35t-185 -35t-142.5 -97.5t-91.5 -148.5t-32 -186zM866 1554q4 49 19.5 96.5t41 84.5t60.5 60.5t78 23.5 q27 0 51.5 -8.5t71.5 -30.5q29 -14 57.5 -25.5t52.5 -11.5q31 0 48.5 15.5t27.5 60.5h117q-8 -47 -19.5 -90t-32 -77t-54 -56.5t-85.5 -24.5q-33 0 -58 6t-79 31q-43 16 -66.5 26.5t-49.5 10.5q-31 0 -48.5 -25t-27.5 -66h-105z" />
<glyph unicode="&#x1ed7;" horiz-adv-x="1249" d="M72 498q0 119 43 215t117.5 164.5t176 105.5t216.5 37t216 -37t176 -105.5t118 -165t43 -214.5q0 -119 -43 -215.5t-118 -165t-176.5 -105.5t-215.5 -37q-115 0 -216.5 37t-176 105.5t-117.5 165t-43 215.5zM319 1153l195 262h238l192 -262h-217l-102 141l-105 -141h-201 zM340 1442q4 43 19.5 86t41 76.5t60.5 55t78 21.5q27 0 51 -7t72 -27q29 -14 57.5 -23.5t52.5 -9.5q31 0 48.5 13t27.5 54h117q-8 -41 -19.5 -80.5t-32 -70.5t-54.5 -50.5t-85 -21.5q-33 0 -59.5 5t-77.5 28q-43 14 -66.5 23.5t-50.5 9.5q-31 0 -48 -21.5t-28 -60.5h-104z M379 498q0 -113 64.5 -182.5t181.5 -69.5t181 69.5t64 182.5t-64.5 182.5t-180.5 69.5q-117 0 -181.5 -69.5t-64.5 -182.5z" />
<glyph unicode="&#x1ed8;" horiz-adv-x="1703" d="M70 725q0 174 58 315.5t162.5 240.5t248 152.5t313.5 53.5t313.5 -53.5t248 -152.5t162.5 -240.5t58 -315.5t-58 -315.5t-162.5 -240.5t-248 -152.5t-313.5 -53.5t-313.5 53.5t-248 152.5t-162.5 240.5t-58 315.5zM401 725q0 -102 32 -187t91.5 -147.5t142.5 -97.5 t185 -35t185 35t142.5 97.5t91.5 147.5t32 187q0 100 -32 186t-91.5 148.5t-142.5 97.5t-185 35t-185 -35t-142.5 -97.5t-91.5 -148.5t-32 -186zM492 1554l227 291h266l225 -291h-239l-127 166l-131 -166h-221zM684 -274q0 33 13.5 63.5t36 53t52 37t64.5 14.5 q72 0 125 -47.5t53 -120.5q0 -74 -49 -125.5t-125 -51.5q-37 0 -67.5 14.5t-53 39t-36 56.5t-13.5 67z" />
<glyph unicode="&#x1ed9;" horiz-adv-x="1249" d="M72 498q0 119 43 215t117.5 164.5t176 105.5t216.5 37t216 -37t176 -105.5t118 -165t43 -214.5q0 -119 -43 -215.5t-118 -165t-176.5 -105.5t-215.5 -37q-115 0 -216.5 37t-176 105.5t-117.5 165t-43 215.5zM270 1155l228 291h266l225 -291h-239l-127 166l-131 -166h-222 zM379 498q0 -113 64.5 -182.5t181.5 -69.5t181 69.5t64 182.5t-64.5 182.5t-180.5 69.5q-117 0 -181.5 -69.5t-64.5 -182.5zM457 -274q0 33 13 63.5t35.5 53t52.5 37t65 14.5q72 0 125 -47.5t53 -120.5q0 -74 -49 -125.5t-125 -51.5q-37 0 -68 14.5t-53.5 39t-35.5 56.5 t-13 67z" />
<glyph unicode="&#x1eda;" horiz-adv-x="1703" d="M70 725q0 174 58 315.5t162.5 240.5t248 152.5t313.5 53.5q68 0 131.5 -10.5t122.5 -26.5h223q70 0 96.5 39t26.5 92q0 41 -11 86t-28 80h217q29 -76 29 -170q0 -74 -23.5 -142.5t-83.5 -115.5q-23 -16 -52.5 -30.5t-74.5 -20.5q98 -100 153.5 -236.5t55.5 -306.5 q0 -174 -58 -315.5t-162.5 -240.5t-248 -152.5t-313.5 -53.5t-313.5 53.5t-248 152.5t-162.5 240.5t-58 315.5zM401 725q0 -102 32 -187t91.5 -147.5t142.5 -97.5t185 -35t185 35t142.5 97.5t91.5 147.5t32 187q0 100 -32 186t-91.5 148.5t-142.5 97.5t-185 35t-185 -35 t-142.5 -97.5t-91.5 -148.5t-32 -186zM672 1556l196 291h322l-316 -291h-202z" />
<glyph unicode="&#x1edb;" horiz-adv-x="1277" d="M72 498q0 119 43 215t117.5 164.5t176 105.5t216.5 37q92 0 178 -25h186q70 0 96.5 38t26.5 91q0 41 -11 86t-28 80h217q29 -76 29 -170q0 -74 -23.5 -142.5t-83.5 -115.5q-23 -18 -54.5 -31.5t-80.5 -21.5q47 -63 74 -141t27 -170q0 -119 -43 -215.5t-118 -165 t-176.5 -105.5t-215.5 -37q-115 0 -216.5 37t-176 105.5t-117.5 165t-43 215.5zM379 498q0 -113 64.5 -182.5t181.5 -69.5t181 69.5t64 182.5t-64.5 182.5t-180.5 69.5q-117 0 -181.5 -69.5t-64.5 -182.5zM426 1155l197 291h321l-315 -291h-203z" />
<glyph unicode="&#x1edc;" horiz-adv-x="1703" d="M70 725q0 174 58 315.5t162.5 240.5t248 152.5t313.5 53.5q68 0 131.5 -10.5t122.5 -26.5h223q70 0 96.5 39t26.5 92q0 41 -11 86t-28 80h217q29 -76 29 -170q0 -74 -23.5 -142.5t-83.5 -115.5q-23 -16 -52.5 -30.5t-74.5 -20.5q98 -100 153.5 -236.5t55.5 -306.5 q0 -174 -58 -315.5t-162.5 -240.5t-248 -152.5t-313.5 -53.5t-313.5 53.5t-248 152.5t-162.5 240.5t-58 315.5zM401 725q0 -102 32 -187t91.5 -147.5t142.5 -97.5t185 -35t185 35t142.5 97.5t91.5 147.5t32 187q0 100 -32 186t-91.5 148.5t-142.5 97.5t-185 35t-185 -35 t-142.5 -97.5t-91.5 -148.5t-32 -186zM483 1847h322l196 -291h-202z" />
<glyph unicode="&#x1edd;" horiz-adv-x="1277" d="M72 498q0 119 43 215t117.5 164.5t176 105.5t216.5 37q92 0 178 -25h186q70 0 96.5 38t26.5 91q0 41 -11 86t-28 80h217q29 -76 29 -170q0 -74 -23.5 -142.5t-83.5 -115.5q-23 -18 -54.5 -31.5t-80.5 -21.5q47 -63 74 -141t27 -170q0 -119 -43 -215.5t-118 -165 t-176.5 -105.5t-215.5 -37q-115 0 -216.5 37t-176 105.5t-117.5 165t-43 215.5zM276 1446h322l197 -291h-203zM379 498q0 -113 64.5 -182.5t181.5 -69.5t181 69.5t64 182.5t-64.5 182.5t-180.5 69.5q-117 0 -181.5 -69.5t-64.5 -182.5z" />
<glyph unicode="&#x1ede;" horiz-adv-x="1703" d="M70 725q0 174 58 315.5t162.5 240.5t248 152.5t313.5 53.5q68 0 131.5 -10.5t122.5 -26.5h223q70 0 96.5 39t26.5 92q0 41 -11 86t-28 80h217q29 -76 29 -170q0 -74 -23.5 -142.5t-83.5 -115.5q-23 -16 -52.5 -30.5t-74.5 -20.5q98 -100 153.5 -236.5t55.5 -306.5 q0 -174 -58 -315.5t-162.5 -240.5t-248 -152.5t-313.5 -53.5t-313.5 53.5t-248 152.5t-162.5 240.5t-58 315.5zM401 725q0 -102 32 -187t91.5 -147.5t142.5 -97.5t185 -35t185 35t142.5 97.5t91.5 147.5t32 187q0 100 -32 186t-91.5 148.5t-142.5 97.5t-185 35t-185 -35 t-142.5 -97.5t-91.5 -148.5t-32 -186zM690 1866v137q18 6 55 12t78 6q100 0 158.5 -45t74 -106.5t-13 -125t-104.5 -99.5h-6v-89h-178v148q47 16 74.5 45t27.5 72q0 29 -21.5 46t-56.5 17q-29 0 -47 -4t-35 -12q-2 -2 -6 -2z" />
<glyph unicode="&#x1edf;" horiz-adv-x="1277" d="M72 498q0 119 43 215t117.5 164.5t176 105.5t216.5 37q92 0 178 -25h186q70 0 96.5 38t26.5 91q0 41 -11 86t-28 80h217q29 -76 29 -170q0 -74 -23.5 -142.5t-83.5 -115.5q-23 -18 -54.5 -31.5t-80.5 -21.5q47 -63 74 -141t27 -170q0 -119 -43 -215.5t-118 -165 t-176.5 -105.5t-215.5 -37q-115 0 -216.5 37t-176 105.5t-117.5 165t-43 215.5zM379 498q0 -113 64.5 -182.5t181.5 -69.5t181 69.5t64 182.5t-64.5 182.5t-180.5 69.5q-117 0 -181.5 -69.5t-64.5 -182.5zM461 1460v137q18 6 55 12.5t78 6.5q100 0 158.5 -45t74 -106.5 t-13.5 -125t-104 -100.5h-7v-109h-178v168q47 16 75 45t28 72q0 29 -21.5 46.5t-56.5 17.5q-29 0 -47.5 -4.5t-34.5 -12.5q-2 -2 -6 -2z" />
<glyph unicode="&#x1ee0;" horiz-adv-x="1703" d="M70 725q0 174 58 315.5t162.5 240.5t248 152.5t313.5 53.5q68 0 131.5 -10.5t122.5 -26.5h223q70 0 96.5 39t26.5 92q0 41 -11 86t-28 80h217q29 -76 29 -170q0 -74 -23.5 -142.5t-83.5 -115.5q-23 -16 -52.5 -30.5t-74.5 -20.5q98 -100 153.5 -236.5t55.5 -306.5 q0 -174 -58 -315.5t-162.5 -240.5t-248 -152.5t-313.5 -53.5t-313.5 53.5t-248 152.5t-162.5 240.5t-58 315.5zM401 725q0 -102 32 -187t91.5 -147.5t142.5 -97.5t185 -35t185 35t142.5 97.5t91.5 147.5t32 187q0 100 -32 186t-91.5 148.5t-142.5 97.5t-185 35t-185 -35 t-142.5 -97.5t-91.5 -148.5t-32 -186zM473 1554q6 45 23.5 89.5t48 80t72.5 58t96 22.5q31 0 61.5 -7t85.5 -30q35 -12 69 -23t64 -11q37 0 57.5 15t32.5 56h142q-10 -43 -23.5 -84t-38 -72.5t-64.5 -53t-104 -23.5q-39 0 -70.5 6t-95.5 29q-51 16 -79.5 25t-59.5 9 q-39 0 -60.5 -23.5t-31.5 -62.5h-125z" />
<glyph unicode="&#x1ee1;" horiz-adv-x="1277" d="M72 498q0 119 43 215t117.5 164.5t176 105.5t216.5 37q92 0 178 -25h186q70 0 96.5 38t26.5 91q0 41 -11 86t-28 80h217q29 -76 29 -170q0 -74 -23.5 -142.5t-83.5 -115.5q-23 -18 -54.5 -31.5t-80.5 -21.5q47 -63 74 -141t27 -170q0 -119 -43 -215.5t-118 -165 t-176.5 -105.5t-215.5 -37q-115 0 -216.5 37t-176 105.5t-117.5 165t-43 215.5zM252 1153q6 45 23.5 89t48 80t72.5 58.5t96 22.5q31 0 61.5 -7t85.5 -30q35 -12 68.5 -23.5t64.5 -11.5q37 0 57.5 15.5t32.5 56.5h142q-10 -43 -23.5 -84t-38 -73t-64.5 -53.5t-104 -23.5 q-39 0 -70.5 6.5t-95.5 28.5q-51 16 -79.5 25.5t-59.5 9.5q-39 0 -60.5 -23.5t-31.5 -62.5h-125zM379 498q0 -113 64.5 -182.5t181.5 -69.5t181 69.5t64 182.5t-64.5 182.5t-180.5 69.5q-117 0 -181.5 -69.5t-64.5 -182.5z" />
<glyph unicode="&#x1ee2;" horiz-adv-x="1593" d="M70 725q0 174 58 315.5t162.5 240.5t248 152.5t313.5 53.5q68 0 131.5 -10.5t122.5 -26.5h223q70 0 96.5 39t26.5 92q0 41 -11 86t-28 80h217q29 -76 29 -170q0 -74 -23.5 -142.5t-83.5 -115.5q-23 -16 -52.5 -30.5t-74.5 -20.5q98 -100 153.5 -236.5t55.5 -306.5 q0 -174 -58 -315.5t-162.5 -240.5t-248 -152.5t-313.5 -53.5t-313.5 53.5t-248 152.5t-162.5 240.5t-58 315.5zM401 725q0 -102 32 -187t91.5 -147.5t142.5 -97.5t185 -35t185 35t142.5 97.5t91.5 147.5t32 187q0 100 -32 186t-91.5 148.5t-142.5 97.5t-185 35t-185 -35 t-142.5 -97.5t-91.5 -148.5t-32 -186zM684 -274q0 33 13.5 63.5t36 53t52 37t64.5 14.5q72 0 125 -47.5t53 -120.5q0 -74 -49 -125.5t-125 -51.5q-37 0 -67.5 14.5t-53 39t-36 56.5t-13.5 67z" />
<glyph unicode="&#x1ee3;" horiz-adv-x="1277" d="M72 498q0 119 43 215t117.5 164.5t176 105.5t216.5 37q92 0 178 -25h186q70 0 96.5 38t26.5 91q0 41 -11 86t-28 80h217q29 -76 29 -170q0 -74 -23.5 -142.5t-83.5 -115.5q-23 -18 -54.5 -31.5t-80.5 -21.5q47 -63 74 -141t27 -170q0 -119 -43 -215.5t-118 -165 t-176.5 -105.5t-215.5 -37q-115 0 -216.5 37t-176 105.5t-117.5 165t-43 215.5zM379 498q0 -113 64.5 -182.5t181.5 -69.5t181 69.5t64 182.5t-64.5 182.5t-180.5 69.5q-117 0 -181.5 -69.5t-64.5 -182.5zM455 -274q0 33 13 63.5t35.5 53t52.5 37t65 14.5q72 0 125 -47.5 t53 -120.5q0 -74 -49 -125.5t-125 -51.5q-37 0 -68 14.5t-53.5 39t-35.5 56.5t-13 67z" />
<glyph unicode="&#x1ee4;" horiz-adv-x="1517" d="M147 559v891h320v-879q0 -68 21.5 -125t60.5 -99t93 -65.5t118 -23.5q63 0 116.5 23.5t92.5 65.5t60.5 99.5t21.5 124.5v879h319v-891q0 -129 -39 -237.5t-115.5 -188.5t-191.5 -125t-264 -45q-152 0 -266.5 45t-191.5 125t-116 188.5t-39 237.5zM592 -274q0 33 13 63.5 t36 53t52.5 37t64.5 14.5q72 0 125 -47.5t53 -120.5q0 -74 -49 -125.5t-125 -51.5q-37 0 -67.5 14.5t-53.5 39t-36 56.5t-13 67z" />
<glyph unicode="&#x1ee5;" horiz-adv-x="1214" d="M109 446v549h307v-487q0 -43 3 -89t18.5 -85t47 -63.5t90.5 -24.5t96.5 21.5t57 57t25.5 81t6 94.5v495h307v-995h-295v135h-4q-16 -29 -42 -57.5t-62.5 -51t-84 -37t-102.5 -14.5q-117 0 -189.5 36t-112.5 99.5t-53 149.5t-13 186zM420 -274q0 33 13 63.5t36 53t52.5 37 t64.5 14.5q72 0 125 -47.5t53 -120.5q0 -74 -49 -125.5t-125 -51.5q-37 0 -67.5 14.5t-53.5 39t-36 56.5t-13 67z" />
<glyph unicode="&#x1ee6;" horiz-adv-x="1517" d="M147 559v891h320v-879q0 -68 21.5 -125t60.5 -99t93 -65.5t118 -23.5q63 0 116.5 23.5t92.5 65.5t60.5 99.5t21.5 124.5v879h319v-891q0 -129 -39 -237.5t-115.5 -188.5t-191.5 -125t-264 -45q-152 0 -266.5 45t-191.5 125t-116 188.5t-39 237.5zM592 1866v137 q18 6 55 12t78 6q100 0 158.5 -45t74 -106.5t-13.5 -125t-104 -99.5h-6v-109h-179v168q47 16 75 45t28 72q0 29 -21.5 46t-56.5 17q-29 0 -47.5 -4t-34.5 -12q-2 -2 -6 -2z" />
<glyph unicode="&#x1ee7;" horiz-adv-x="1214" d="M109 446v549h307v-487q0 -43 3 -89t18.5 -85t47 -63.5t90.5 -24.5t96.5 21.5t57 57t25.5 81t6 94.5v495h307v-995h-295v135h-4q-16 -29 -42 -57.5t-62.5 -51t-84 -37t-102.5 -14.5q-117 0 -189.5 36t-112.5 99.5t-53 149.5t-13 186zM432 1460v137q18 6 55 12.5t78 6.5 q100 0 158.5 -45t74 -106.5t-13 -125t-104.5 -100.5h-6v-109h-178v168q47 16 74.5 45t27.5 72q0 29 -21.5 46.5t-56.5 17.5q-29 0 -47 -4.5t-35 -12.5q-2 -2 -6 -2z" />
<glyph unicode="&#x1ee8;" horiz-adv-x="1613" d="M147 559v891h320v-879q0 -68 21.5 -125t60.5 -99t93 -65.5t118 -23.5q63 0 116.5 23.5t92.5 65.5t60.5 99.5t21.5 124.5v879h317q61 4 86 41t25 88q0 41 -11.5 85t-27.5 81h217q29 -76 29 -172q0 -59 -15.5 -115.5t-52.5 -101.5t-97.5 -73t-150.5 -28v-696 q0 -129 -39 -237.5t-115.5 -188.5t-191.5 -125t-264 -45q-152 0 -266.5 45t-191.5 125t-116 188.5t-39 237.5zM602 1556l197 291h321l-315 -291h-203z" />
<glyph unicode="&#x1ee9;" horiz-adv-x="1343" d="M109 446v549h307v-487q0 -43 3 -89t18.5 -85t47 -63.5t90.5 -24.5t96.5 21.5t57 57t25.5 81t6 94.5v495h293q61 0 88.5 31t32 76t-7 96t-29.5 92h217q23 -66 27.5 -150.5t-23 -160.5t-97 -127t-194.5 -51v-801h-295v135h-4q-16 -29 -42 -57.5t-62.5 -51t-84 -37 t-102.5 -14.5q-117 0 -189.5 36t-112.5 99.5t-53 149.5t-13 186zM428 1153l197 291h321l-315 -291h-203z" />
<glyph unicode="&#x1eea;" horiz-adv-x="1613" d="M147 559v891h320v-879q0 -68 21.5 -125t60.5 -99t93 -65.5t118 -23.5q63 0 116.5 23.5t92.5 65.5t60.5 99.5t21.5 124.5v879h317q61 4 86 41t25 88q0 41 -11.5 85t-27.5 81h217q29 -76 29 -172q0 -59 -15.5 -115.5t-52.5 -101.5t-97.5 -73t-150.5 -28v-696 q0 -129 -39 -237.5t-115.5 -188.5t-191.5 -125t-264 -45q-152 0 -266.5 45t-191.5 125t-116 188.5t-39 237.5zM406 1847h321l197 -291h-203z" />
<glyph unicode="&#x1eeb;" horiz-adv-x="1343" d="M109 446v549h307v-487q0 -43 3 -89t18.5 -85t47 -63.5t90.5 -24.5t96.5 21.5t57 57t25.5 81t6 94.5v495h293q61 0 88.5 31t32 76t-7 96t-29.5 92h217q23 -66 27.5 -150.5t-23 -160.5t-97 -127t-194.5 -51v-801h-295v135h-4q-16 -29 -42 -57.5t-62.5 -51t-84 -37 t-102.5 -14.5q-117 0 -189.5 36t-112.5 99.5t-53 149.5t-13 186zM299 1444h322l196 -291h-203z" />
<glyph unicode="&#x1eec;" horiz-adv-x="1613" d="M147 559v891h320v-879q0 -68 21.5 -125t60.5 -99t93 -65.5t118 -23.5q63 0 116.5 23.5t92.5 65.5t60.5 99.5t21.5 124.5v879h317q61 4 86 41t25 88q0 41 -11.5 85t-27.5 81h217q29 -76 29 -172q0 -59 -15.5 -115.5t-52.5 -101.5t-97.5 -73t-150.5 -28v-696 q0 -129 -39 -237.5t-115.5 -188.5t-191.5 -125t-264 -45q-152 0 -266.5 45t-191.5 125t-116 188.5t-39 237.5zM592 1866v137q18 6 55 12t78 6q100 0 158.5 -45t74 -106.5t-13.5 -125t-104 -99.5h-6v-109h-179v168q47 16 75 45t28 72q0 29 -21.5 46t-56.5 17q-29 0 -47.5 -4 t-34.5 -12q-2 -2 -6 -2z" />
<glyph unicode="&#x1eed;" horiz-adv-x="1343" d="M109 446v549h307v-487q0 -43 3 -89t18.5 -85t47 -63.5t90.5 -24.5t96.5 21.5t57 57t25.5 81t6 94.5v495h293q61 0 88.5 31t32 76t-7 96t-29.5 92h217q23 -66 27.5 -150.5t-23 -160.5t-97 -127t-194.5 -51v-801h-295v135h-4q-16 -29 -42 -57.5t-62.5 -51t-84 -37 t-102.5 -14.5q-117 0 -189.5 36t-112.5 99.5t-53 149.5t-13 186zM449 1464v138q18 6 55 12t78 6q100 0 158.5 -45t73.5 -106.5t-13.5 -125t-104.5 -100.5h-6v-108h-178v168q47 16 74.5 44.5t27.5 71.5q0 29 -21.5 46.5t-55.5 17.5q-29 0 -47.5 -4t-34.5 -13q-2 -2 -6 -2z " />
<glyph unicode="&#x1eee;" horiz-adv-x="1613" d="M147 559v891h320v-879q0 -68 21.5 -125t60.5 -99t93 -65.5t118 -23.5q63 0 116.5 23.5t92.5 65.5t60.5 99.5t21.5 124.5v879h317q61 4 86 41t25 88q0 41 -11.5 85t-27.5 81h217q29 -76 29 -172q0 -59 -15.5 -115.5t-52.5 -101.5t-97.5 -73t-150.5 -28v-696 q0 -129 -39 -237.5t-115.5 -188.5t-191.5 -125t-264 -45q-152 0 -266.5 45t-191.5 125t-116 188.5t-39 237.5zM391 1554q6 45 23.5 89.5t48.5 80t73 58t95 22.5q31 0 61.5 -7t85.5 -30q35 -12 69 -23t64 -11q37 0 57.5 15t32.5 56h142q-10 -43 -23.5 -84t-38 -72.5 t-64.5 -53t-104 -23.5q-39 0 -70.5 6t-94.5 29q-51 16 -80 25t-60 9q-39 0 -60.5 -23.5t-31.5 -62.5h-125z" />
<glyph unicode="&#x1eef;" horiz-adv-x="1343" d="M109 446v549h307v-487q0 -43 3 -89t18.5 -85t47 -63.5t90.5 -24.5t96.5 21.5t57 57t25.5 81t6 94.5v495h293q61 0 88.5 31t32 76t-7 96t-29.5 92h217q23 -66 27.5 -150.5t-23 -160.5t-97 -127t-194.5 -51v-801h-295v135h-4q-16 -29 -42 -57.5t-62.5 -51t-84 -37 t-102.5 -14.5q-117 0 -189.5 36t-112.5 99.5t-53 149.5t-13 186zM236 1153q6 45 23 89t48 80t73 58.5t95 22.5q31 0 61.5 -7t86.5 -30q35 -12 68.5 -23.5t64.5 -11.5q37 0 57.5 15.5t32.5 56.5h141q-10 -43 -23.5 -84t-38 -73t-64.5 -53.5t-103 -23.5q-39 0 -71 6.5 t-95 28.5q-51 16 -80 25.5t-59 9.5q-39 0 -60.5 -23.5t-32.5 -62.5h-124z" />
<glyph unicode="&#x1ef0;" horiz-adv-x="1613" d="M147 559v891h320v-879q0 -68 21.5 -125t60.5 -99t93 -65.5t118 -23.5q63 0 116.5 23.5t92.5 65.5t60.5 99.5t21.5 124.5v879h317q61 4 86 41t25 88q0 41 -11.5 85t-27.5 81h217q29 -76 29 -172q0 -59 -15.5 -115.5t-52.5 -101.5t-97.5 -73t-150.5 -28v-696 q0 -129 -39 -237.5t-115.5 -188.5t-191.5 -125t-264 -45q-152 0 -266.5 45t-191.5 125t-116 188.5t-39 237.5zM592 -274q0 33 13 63.5t36 53t52.5 37t64.5 14.5q72 0 125 -47.5t53 -120.5q0 -74 -49 -125.5t-125 -51.5q-37 0 -67.5 14.5t-53.5 39t-36 56.5t-13 67z" />
<glyph unicode="&#x1ef1;" horiz-adv-x="1343" d="M109 446v549h307v-487q0 -43 3 -89t18.5 -85t47 -63.5t90.5 -24.5t96.5 21.5t57 57t25.5 81t6 94.5v495h293q61 0 88.5 31t32 76t-7 96t-29.5 92h217q23 -66 27.5 -150.5t-23 -160.5t-97 -127t-194.5 -51v-801h-295v135h-4q-16 -29 -42 -57.5t-62.5 -51t-84 -37 t-102.5 -14.5q-117 0 -189.5 36t-112.5 99.5t-53 149.5t-13 186zM424 -274q0 33 13.5 63.5t36 53t52 37t64.5 14.5q72 0 125 -47.5t53 -120.5q0 -74 -49 -125.5t-125 -51.5q-37 0 -67.5 14.5t-53 39t-36 56.5t-13.5 67z" />
<glyph unicode="&#x1ef2;" horiz-adv-x="1327" d="M-41 1450h397l308 -543l325 543h379l-545 -832v-618h-319v618zM338 1845h321l197 -291h-203z" />
<glyph unicode="&#x1ef3;" horiz-adv-x="1138" d="M6 995h332l256 -657h4l219 657h316l-451 -1157q-31 -80 -59.5 -141.5t-72.5 -103.5t-111.5 -63.5t-178.5 -21.5q-119 0 -229 37l41 252q70 -31 143 -30q51 0 84 11t54.5 32.5t35.5 52.5t31 71l22 58zM268 1446h322l196 -291h-202z" />
<glyph unicode="&#x1ef4;" horiz-adv-x="1327" d="M-41 1450h397l308 -543l325 543h379l-545 -832v-618h-319v618zM498 -274q0 33 13 63.5t35.5 53t52.5 37t65 14.5q72 0 125 -47.5t53 -120.5q0 -74 -49 -125.5t-125 -51.5q-37 0 -68 14.5t-53.5 39t-35.5 56.5t-13 67z" />
<glyph unicode="&#x1ef5;" horiz-adv-x="1138" d="M6 995h332l256 -657h4l219 657h316l-451 -1157q-31 -80 -59.5 -141.5t-72.5 -103.5t-111.5 -63.5t-178.5 -21.5q-119 0 -229 37l41 252q70 -31 143 -30q51 0 84 11t54.5 32.5t35.5 52.5t31 71l22 58zM733 -274q0 33 13.5 63.5t36 53t52 37t64.5 14.5q72 0 125 -47.5 t53 -120.5q0 -74 -49 -125.5t-125 -51.5q-37 0 -67.5 14.5t-53 39t-36 56.5t-13.5 67z" />
<glyph unicode="&#x1ef6;" horiz-adv-x="1327" d="M-41 1450h397l308 -543l325 543h379l-545 -832v-618h-319v618zM500 1866v137q18 6 55 12t78 6q100 0 158.5 -45t74 -106.5t-13.5 -125t-104 -99.5h-7v-109h-178v168q47 16 75 45t28 72q0 29 -21.5 46t-56.5 17q-29 0 -47.5 -4t-34.5 -12q-2 -2 -6 -2z" />
<glyph unicode="&#x1ef7;" horiz-adv-x="1138" d="M6 995h332l256 -657h4l219 657h316l-451 -1157q-31 -80 -59.5 -141.5t-72.5 -103.5t-111.5 -63.5t-178.5 -21.5q-119 0 -229 37l41 252q70 -31 143 -30q51 0 84 11t54.5 32.5t35.5 52.5t31 71l22 58zM412 1456v137q18 6 55 12.5t78 6.5q100 0 158.5 -45t74 -106.5 t-13.5 -125t-105 -100.5h-6v-109h-178v168q47 16 75 45t28 72q0 29 -21.5 46.5t-56.5 17.5q-29 0 -47.5 -4.5t-34.5 -12.5q-2 -2 -6 -2z" />
<glyph unicode="&#x1ef8;" horiz-adv-x="1327" d="M-41 1450h397l308 -543l325 543h379l-545 -832v-618h-319v618zM309 1554q6 45 23.5 89.5t48.5 80t73 58t95 22.5q31 0 61.5 -7t85.5 -30q35 -12 69 -23t64 -11q37 0 57.5 15t33.5 56h141q-10 -43 -23.5 -84t-38 -72.5t-64.5 -53t-104 -23.5q-39 0 -70.5 6t-94.5 29 q-51 16 -80 25t-60 9q-39 0 -60.5 -23.5t-31.5 -62.5h-125z" />
<glyph unicode="&#x1ef9;" horiz-adv-x="1138" d="M6 995h332l256 -657h4l219 657h316l-451 -1157q-31 -80 -59.5 -141.5t-72.5 -103.5t-111.5 -63.5t-178.5 -21.5q-119 0 -229 37l41 252q70 -31 143 -30q51 0 84 11t54.5 32.5t35.5 52.5t31 71l22 58zM215 1153q6 45 23.5 89t48 80t72.5 58.5t96 22.5q31 0 61.5 -7 t85.5 -30q35 -12 69 -23.5t64 -11.5q37 0 57.5 15.5t32.5 56.5h142q-10 -43 -23.5 -84t-38 -73t-64.5 -53.5t-104 -23.5q-39 0 -70.5 6.5t-95.5 28.5q-51 16 -79.5 25.5t-59.5 9.5q-39 0 -60.5 -23.5t-31.5 -62.5h-125z" />
<glyph unicode="&#x2011;" horiz-adv-x="606" d="M51 387v246h504v-246h-504z" />
<glyph unicode="&#x2013;" horiz-adv-x="1024" d="M0 387v246h1024v-246h-1024z" />
<glyph unicode="&#x2014;" horiz-adv-x="2048" d="M0 387v246h2048v-246h-2048z" />
<glyph unicode="&#x2015;" horiz-adv-x="2048" d="M266 387v246h1516v-246h-1516z" />
<glyph unicode="&#x2018;" horiz-adv-x="606" d="M80 872l184 578h262l-151 -578h-295z" />
<glyph unicode="&#x2019;" horiz-adv-x="606" d="M80 872l151 578h295l-184 -578h-262z" />
<glyph unicode="&#x201a;" horiz-adv-x="606" d="M80 -258l151 577h295l-184 -577h-262z" />
<glyph unicode="&#x201c;" horiz-adv-x="1064" d="M90 872l184 578h263l-152 -578h-295zM528 872l185 578h262l-152 -578h-295z" />
<glyph unicode="&#x201d;" horiz-adv-x="1064" d="M90 872l152 578h295l-185 -578h-262zM528 872l152 578h295l-184 -578h-263z" />
<glyph unicode="&#x201e;" horiz-adv-x="1064" d="M90 -258l152 577h295l-185 -577h-262zM528 -258l152 577h295l-184 -577h-263z" />
<glyph unicode="&#x2020;" horiz-adv-x="1212" d="M70 762v258h389v430h282v-430h402v-258h-402v-1034h-282v1034h-389z" />
<glyph unicode="&#x2021;" horiz-adv-x="1212" d="M70 96v246h395v494h-395v245h395v369h283v-369h395v-245h-395v-494h395v-246h-395v-368h-283v368h-395z" />
<glyph unicode="&#x2022;" horiz-adv-x="1024" d="M150 725q0 76 28.5 141.5t77.5 114.5t114.5 77.5t141.5 28.5t141.5 -28.5t114.5 -77.5t77.5 -114.5t28.5 -141.5t-28.5 -141.5t-77.5 -114.5t-114.5 -78t-141.5 -29t-141.5 29t-114.5 78t-77.5 114.5t-28.5 141.5z" />
<glyph unicode="&#x2026;" horiz-adv-x="2048" d="M154 176q0 39 14 74t39.5 60.5t60.5 40t74 14.5t74 -14.5t60.5 -40t39.5 -60.5t14 -74t-14 -73.5t-39.5 -60.5t-60.5 -40t-74 -14t-74 14t-60.5 40t-39.5 60.5t-14 73.5zM836 176q0 39 14 74t39.5 60.5t60.5 40t74 14.5t74 -14.5t60.5 -40t39.5 -60.5t14 -74t-14 -73.5 t-39.5 -60.5t-60.5 -40t-74 -14t-74 14t-60.5 40t-39.5 60.5t-14 73.5zM1518 176q0 39 14 74t39.5 60.5t60.5 40t74 14.5t74 -14.5t60.5 -40t39.5 -60.5t14 -74t-14 -73.5t-39.5 -60.5t-60.5 -40t-74 -14t-74 14t-60.5 40t-39.5 60.5t-14 73.5z" />
<glyph unicode="&#x2030;" horiz-adv-x="2390" d="M66 1114q0 74 27.5 139.5t76.5 114.5t114.5 78t141.5 29q74 0 140.5 -29t115.5 -78t77.5 -114.5t28.5 -139.5t-28.5 -140.5t-77.5 -115.5t-115.5 -77.5t-140.5 -28.5q-76 0 -141.5 28.5t-114.5 77.5t-76.5 115.5t-27.5 140.5zM262 1114q0 -68 48 -117t116 -49t117 49.5 t49 116.5q0 68 -49 116t-117 48t-116 -48t-48 -116zM301 23l829 1493l173 -97l-846 -1485zM809 338q0 74 27.5 139.5t77 114.5t115 77.5t140.5 28.5q74 0 139.5 -28.5t115 -77.5t78 -114.5t28.5 -139.5t-28.5 -140.5t-78 -115.5t-115 -78t-139.5 -29q-76 0 -141 29 t-114.5 78t-77 115.5t-27.5 140.5zM1006 338q0 -68 48 -117t115 -49q68 0 116 49t48 117t-48 116t-116 48t-115.5 -48t-47.5 -116zM1602 338q0 74 28.5 139.5t77.5 114.5t114.5 77.5t139.5 28.5t140.5 -28.5t115.5 -77.5t77.5 -114.5t28.5 -139.5t-28.5 -140.5t-77.5 -115.5 t-115.5 -78t-140.5 -29t-139.5 29t-114.5 78t-77.5 115.5t-28.5 140.5zM1798 338q0 -68 48 -117t116 -49t117 49t49 117t-49 116t-117 48t-116 -48t-48 -116z" />
<glyph unicode="&#x2039;" horiz-adv-x="606" d="M37 510l325 479l187 -125l-238 -354l238 -354l-187 -125z" />
<glyph unicode="&#x203a;" horiz-adv-x="606" d="M57 156l238 354l-238 354l187 125l325 -479l-325 -479z" />
<glyph unicode="&#x2044;" horiz-adv-x="342" d="M-330 23l830 1493l172 -97l-846 -1485z" />
<glyph unicode="&#x20ab;" horiz-adv-x="1290" d="M72 489q0 104 31.5 199.5t90 169.5t142.5 118t190 44q96 0 179 -29.5t137 -101.5h4v321h-314v197h314v141h307v-141h137v-197h-137v-1210h-283v131h-4q-18 -27 -48 -54.5t-69.5 -50t-88 -37t-99.5 -14.5q-111 0 -201 38t-154.5 106.5t-99 163t-34.5 206.5zM143 -139h1010 v-193h-1010v193zM379 498q0 -113 64.5 -182.5t181.5 -69.5t181 69.5t64 182.5t-64.5 182.5t-180.5 69.5q-117 0 -181.5 -70t-64.5 -182z" />
<glyph unicode="&#x20ac;" horiz-adv-x="1212" d="M20 455l58 184h86q-2 10 -2 18.5v18.5v39q0 27 1 51.5t3 48.5h-139l63 189h107q61 233 221 352t407 119q35 0 81 -5.5t92 -12.5t85 -18.5t60 -23.5l-94 -266q-31 20 -91.5 35.5t-132.5 15.5q-104 0 -182 -46t-123 -150h481l-61 -189h-463q-2 -23 -3 -45t-1 -47v-43v-20.5 t2 -20.5h418l-59 -184h-328q31 -100 95.5 -156.5t168.5 -56.5q86 0 144.5 32.5t101.5 85.5l168 -206q-68 -80 -186.5 -129.5t-256.5 -49.5q-229 0 -368.5 122t-186.5 358h-166z" />
<glyph unicode="&#x2116;" horiz-adv-x="2385" d="M147 0v1450h435l616 -1008h4v1008h320v-1450h-418l-633 1032h-4v-1032h-320zM1640 1098q0 74 28 137t76 111.5t111.5 76t137.5 27.5t137 -27.5t111.5 -76t76 -112t27.5 -136.5q0 -74 -27.5 -138.5t-76 -111.5t-111.5 -75t-137 -28t-137.5 28t-111.5 75t-76 111.5 t-28 138.5zM1669 489v197h649v-197h-649zM1812 1098q0 -76 51.5 -128t129.5 -52q76 0 128 52t52 128t-52.5 128t-127.5 52q-78 0 -129.5 -52t-51.5 -128z" />
<glyph unicode="&#x2122;" horiz-adv-x="2048" d="M82 1253v197h709v-197h-244v-647h-221v647h-244zM971 606v844h297l200 -549l201 549h297v-844h-221v549h-4l-201 -549h-143l-201 549h-4v-549h-221z" />
<glyph unicode="&#x2126;" horiz-adv-x="1615" d="M70 791q0 143 55 270t154.5 221t234.5 149.5t295 55.5t295 -55.5t233.5 -149.5t153.5 -221t55 -270q0 -86 -20.5 -158t-53 -132.5t-75.5 -111.5t-86 -94h207v-295h-635v258q154 102 244 237.5t90 295.5q0 82 -30 155.5t-84 126.5t-129 85t-165 32t-165 -32t-129 -85 t-85 -127t-31 -155q0 -160 88 -295.5t246 -237.5v-258h-635v295h201q-45 43 -87 90t-74 105.5t-50 131t-18 169.5z" />
<glyph unicode="&#x2202;" horiz-adv-x="1241" d="M78 477q0 123 36 223.5t99 171t147 108.5t183 38q68 0 121 -19.5t93 -46t66.5 -55.5t38.5 -49h2q2 12 2 33.5v33.5q0 96 -25.5 185.5t-72.5 157t-114.5 107.5t-149.5 40q-100 0 -172 -34t-113 -64l-80 202q25 18 62 40t86 40.5t112.5 30.5t141.5 12q121 0 230.5 -51 t191 -150.5t130 -248t48.5 -342.5q0 -190 -42 -348t-121 -270.5t-191.5 -175t-256.5 -62.5q-117 0 -201.5 46t-140 118.5t-83 159.5t-27.5 169zM356 469q0 -106 54.5 -181t146.5 -75h2q59 0 106.5 38t83 96.5t58 131t31.5 144.5q-6 25 -25.5 54.5t-50.5 57t-71 46t-89 18.5 q-55 0 -100 -27t-77 -73t-50.5 -105t-18.5 -125z" />
<glyph unicode="&#x2206;" horiz-adv-x="1460" d="M25 0v219l577 1231h270l564 -1231v-219h-1411zM389 295h672l-332 731z" />
<glyph unicode="&#x220f;" horiz-adv-x="1554" d="M49 1194v250h1454v-250h-221v-1393h-276v1393h-459v-1393h-277v1393h-221z" />
<glyph unicode="&#x2211;" horiz-adv-x="1239" d="M82 0v238l461 505l-437 471v236h1029v-297h-557q94 -104 191 -207.5t189 -202.5l-407 -448h606v-295h-1075z" />
<glyph unicode="&#x2212;" horiz-adv-x="1363" d="M121 492v258h1122v-258h-1122z" />
<glyph unicode="&#x2215;" horiz-adv-x="342" d="M-330 23l830 1493l172 -97l-846 -1485z" />
<glyph unicode="&#x2219;" horiz-adv-x="606" d="M115 580q0 39 14 73.5t40 60t60.5 40t73.5 14.5t74 -14.5t60.5 -40t40 -60.5t14.5 -73q0 -39 -14.5 -74t-40 -60.5t-60.5 -40t-74 -14.5t-73.5 14.5t-60.5 40t-40 60.5t-14 74z" />
<glyph unicode="&#x221a;" horiz-adv-x="1277" d="M66 698l370 152l223 -660q10 -47 21.5 -94t21.5 -84l3 -2l15 87.5t19 105.5l365 1530h196l-485 -2024h-223l-322 901l-157 -63z" />
<glyph unicode="&#x221e;" horiz-adv-x="1644" d="M100 586q0 80 27 146.5t74 114.5t111.5 74.5t140.5 26.5q119 0 208 -63.5t170 -169.5q33 37 71 78t84 75.5t101.5 57t126.5 22.5q70 0 129.5 -24.5t103.5 -70.5t69.5 -110.5t25.5 -144.5v-2q0 -86 -28.5 -154.5t-75.5 -117t-108.5 -73t-127.5 -24.5q-90 0 -181 50.5 t-198 189.5q-82 -102 -172 -171t-217 -69q-66 0 -126 26t-106 74t-74 113.5t-28 145.5zM254 584q0 -86 56.5 -145.5t142.5 -59.5h4q43 0 82 17.5t73.5 46t66.5 64.5t62 71q-33 43 -63.5 83.5t-65 71.5t-74.5 49.5t-92 18.5q-90 0 -141 -61.5t-51 -155.5zM909 592 q47 -59 85 -100t72 -66t67.5 -36t72.5 -11q43 0 78 19.5t57.5 49t35 65.5t12.5 71q0 96 -52.5 156.5t-138.5 60.5h-2q-47 0 -89 -21.5t-78 -53.5t-65.5 -68.5t-54.5 -65.5z" />
<glyph unicode="&#x222b;" horiz-adv-x="839" d="M39 -326l35 195q16 -6 39.5 -14.5t52.5 -8.5q27 0 52.5 9.5t41.5 31.5q29 39 44 110t15 210q0 141 -5 268t-11 249t-11 244t-5 255q0 182 29.5 289.5t99.5 179.5q47 51 114.5 73.5t137.5 22.5q41 0 76.5 -8t54.5 -17l-29 -188q-16 8 -35.5 13t-42.5 5q-31 0 -58.5 -12 t-47.5 -41q-35 -43 -46.5 -129t-11.5 -215q0 -127 5.5 -244.5t11.5 -236.5t11 -243t5 -265q0 -147 -21.5 -248.5t-56.5 -163.5q-43 -86 -119.5 -120.5t-156.5 -34.5q-51 0 -97.5 11t-70.5 23z" />
<glyph unicode="&#x2248;" horiz-adv-x="1177" d="M78 336q47 92 131 153.5t182 61.5q78 0 131 -26.5t94 -49.5q49 -29 90.5 -52.5t94.5 -23.5q63 0 105 40t89 110l99 -92q-53 -96 -127 -156.5t-166 -60.5q-66 0 -117 21.5t-121 62.5q-49 29 -90 50t-94 21q-35 0 -63.5 -13t-52 -34.5t-44 -49.5t-41.5 -56zM78 731 q47 92 131 153.5t182 61.5q78 0 131 -26.5t94 -49.5q59 -35 98.5 -55t88.5 -20q61 0 105 41t87 110l99 -94q-53 -98 -127 -156.5t-164 -58.5q-66 0 -118 20.5t-122 63.5q-47 29 -89 49.5t-95 20.5q-35 0 -63.5 -13.5t-52 -35t-44 -48t-41.5 -55.5z" />
<glyph unicode="&#x2260;" horiz-adv-x="1177" d="M102 287v157h349l124 283h-473v160h535l104 235l127 -51l-82 -184h289v-160h-350l-125 -283h475v-157h-538l-107 -242l-125 53l84 189h-287z" />
<glyph unicode="&#x2264;" horiz-adv-x="1177" d="M104 -31v162h973v-162h-973zM113 676v172l956 467v-185l-797 -364v-4l797 -369v-184z" />
<glyph unicode="&#x2265;" horiz-adv-x="1177" d="M106 -31v162h967v-162h-967zM115 1130v185l958 -467v-172l-956 -467v184l794 367v6z" />
<glyph unicode="&#x25ca;" horiz-adv-x="1275" d="M104 721l426 825h224l417 -825l-428 -825h-221zM350 727l246 -500q12 -29 22.5 -60.5t14.5 -51.5h8q6 23 17.5 57.5t19.5 50.5l248 492l-244 491q-12 29 -23.5 60.5t-17.5 58.5h-6q-8 -29 -18.5 -59.5t-22.5 -59.5z" />
<glyph unicode="&#x25fc;" horiz-adv-x="993" d="M0 0v993h993v-993h-993z" />
<glyph unicode="&#xf6c3;" horiz-adv-x="512" d="M53 -500l127 402h295l-182 -402h-240z" />
<glyph unicode="&#xff06;" horiz-adv-x="1554" d="M86 397q0 70 23.5 132.5t65.5 113.5t97.5 89t120.5 61q-35 39 -64.5 73.5t-51 73.5t-33 82t-11.5 96q0 98 38 168t101.5 115t145.5 65.5t168 20.5q84 0 160 -21.5t134 -65.5t93 -110.5t35 -159.5q0 -66 -21.5 -121t-58.5 -103t-85 -86t-103 -66l186 -199l141 193h357 l-305 -406l323 -342h-395l-121 137q-90 -92 -193.5 -133t-232.5 -41q-98 0 -190.5 26.5t-165 81t-115.5 136.5t-43 190zM418 412q0 -41 16.5 -74t43 -55.5t62 -36t72.5 -13.5q72 0 124 31t104 76l-256 278q-31 -18 -60.5 -37.5t-53.5 -43t-38 -54t-14 -71.5zM541 1106 q0 -27 12 -52.5t29.5 -49t39 -44t40.5 -36.5q25 14 53 33.5t53 43t41 51t16 58.5q0 63 -42 97t-101 34t-100 -37t-41 -98z" />
</font>
</defs>
</svg>
